999
DXF created by Inkscape
  0
SECTION
  2
HEADER
  9
$ACADVER
  1
AC1014
  9
$HANDSEED
  5
FFFF
  9
$MEASUREMENT
 70
     1
  0
ENDSEC
  0
SECTION
  2
TABLES
  0
TABLE
  2
VPORT
  5
8
330
0
100
AcDbSymbolTable
 70
     4
  0
VPORT
  5
2E
330
8
100
AcDbSymbolTableRecord
100
AcDbViewportTableRecord
  2
*ACTIVE
 70
     0
 10
0.0
 20
0.0
 11
1.0
 21
1.0
 12
210.0
 22
148.5
 13
0.0
 23
0.0
 14
10.0
 24
10.0
 15
10.0
 25
10.0
 16
0.0
 26
0.0
 36
1.0
 17
0.0
 27
0.0
 37
0.0
 40
341.0
 41
1.24
 42
50.0
 43
0.0
 44
0.0
 50
0.0
 51
0.0
 71
     0
 72
   100
 73
     1
 74
     3
 75
     0
 76
     0
 77
     0
 78
     0
  0
ENDTAB
  0
TABLE
  2
LTYPE
  5
5
330
0
100
AcDbSymbolTable
 70
     1
  0
LTYPE
  5
14
330
5
100
AcDbSymbolTableRecord
100
AcDbLinetypeTableRecord
  2
BYBLOCK
 70
     0
  3

 72
    65
 73
     0
 40
0.0
  0
LTYPE
  5
15
330
5
100
AcDbSymbolTableRecord
100
AcDbLinetypeTableRecord
  2
BYLAYER
 70
     0
  3

 72
    65
 73
     0
 40
0.0
  0
LTYPE
  5
16
330
5
100
AcDbSymbolTableRecord
100
AcDbLinetypeTableRecord
  2
CONTINUOUS
 70
     0
  3
Solid line
 72
    65
 73
     0
 40
0.0
  0
ENDTAB
  0
TABLE
  2
LAYER
  5
2
100
AcDbSymbolTable
 70
2
  0
LAYER
  5
50
100
AcDbSymbolTableRecord
100
AcDbLayerTableRecord
  2
0
 70
0
  6
CONTINUOUS
  0
LAYER
  5
51
100
AcDbSymbolTableRecord
100
AcDbLayerTableRecord
  2
Layer_1
 70
0
  6
CONTINUOUS
  0
ENDTAB
  0
TABLE
  2
STYLE
  5
3
330
0
100
AcDbSymbolTable
 70
     1
  0
STYLE
  5
11
330
3
100
AcDbSymbolTableRecord
100
AcDbTextStyleTableRecord
  2
STANDARD
 70
     0
 40
0.0
 41
1.0
 50
0.0
 71
     0
 42
2.5
  3
txt
  4

  0
ENDTAB
  0
TABLE
  2
VIEW
  5
6
330
0
100
AcDbSymbolTable
 70
     0
  0
ENDTAB
  0
TABLE
  2
UCS
  5
7
330
0
100
AcDbSymbolTable
 70
     0
  0
ENDTAB
  0
TABLE
  2
APPID
  5
9
330
0
100
AcDbSymbolTable
 70
     2
  0
APPID
  5
12
330
9
100
AcDbSymbolTableRecord
100
AcDbRegAppTableRecord
  2
ACAD
 70
     0
  0
ENDTAB
  0
TABLE
  2
DIMSTYLE
  5
A
330
0
100
AcDbSymbolTable
 70
     1
  0
DIMSTYLE
105
27
330
A
100
AcDbSymbolTableRecord
100
AcDbDimStyleTableRecord
  2
ISO-25
 70
     0
  3

  4

  5

  6

  7

 40
1.0
 41
2.5
 42
0.625
 43
3.75
 44
1.25
 45
0.0
 46
0.0
 47
0.0
 48
0.0
140
2.5
141
2.5
142
0.0
143
0.03937007874016
144
1.0
145
0.0
146
1.0
147
0.625
 71
     0
 72
     0
 73
     0
 74
     0
 75
     0
 76
     0
 77
     1
 78
     8
170
     0
171
     3
172
     1
173
     0
174
     0
175
     0
176
     0
177
     0
178
     0
270
     2
271
     2
272
     2
273
     2
274
     3
340
11
275
     0
280
     0
281
     0
282
     0
283
     0
284
     8
285
     0
286
     0
287
     3
288
     0
  0
ENDTAB
  0
TABLE
  2
BLOCK_RECORD
  5
1
330
0
100
AcDbSymbolTable
 70
     1
  0
BLOCK_RECORD
  5
1F
330
1
100
AcDbSymbolTableRecord
100
AcDbBlockTableRecord
  2
*MODEL_SPACE
  0
BLOCK_RECORD
  5
1B
330
1
100
AcDbSymbolTableRecord
100
AcDbBlockTableRecord
  2
*PAPER_SPACE
  0
ENDTAB
  0
ENDSEC
  0
SECTION
  2
BLOCKS
  0
BLOCK
  5
20
330
1F
100
AcDbEntity
  8
0
100
AcDbBlockBegin
  2
*MODEL_SPACE
 70
     0
 10
0.0
 20
0.0
 30
0.0
  3
*MODEL_SPACE
  1

  0
ENDBLK
  5
21
330
1F
100
AcDbEntity
  8
0
100
AcDbBlockEnd
  0
BLOCK
  5
1C
330
1B
100
AcDbEntity
 67
     1
  8
0
100
AcDbBlockBegin
  2
*PAPER_SPACE
  1

  0
ENDBLK
  5
1D
330
1B
100
AcDbEntity
 67
     1
  8
0
100
AcDbBlockEnd
  0
ENDSEC
  0
SECTION
  2
ENTITIES
  0
LINE
  5
100
100
AcDbEntity
  8
Layer_1
 62
5
100
AcDbLine
 10
223.091163
 20
-117.862941
 30
0.0
 11
219.532990
 21
-117.862941
 31
0.0
  0
LINE
  5
101
100
AcDbEntity
  8
Layer_1
 62
5
100
AcDbLine
 10
219.532990
 20
-117.862941
 30
0.0
 11
219.532990
 21
-121.231969
 31
0.0
  0
LINE
  5
102
100
AcDbEntity
  8
Layer_1
 62
5
100
AcDbLine
 10
219.532990
 20
-121.231969
 30
0.0
 11
219.005771
 21
-121.814052
 31
0.0
  0
LINE
  5
103
100
AcDbEntity
  8
Layer_1
 62
5
100
AcDbLine
 10
219.005771
 20
-121.814052
 30
0.0
 11
214.430864
 21
-121.814052
 31
0.0
  0
LINE
  5
104
100
AcDbEntity
  8
Layer_1
 62
5
100
AcDbLine
 10
214.430864
 20
-121.814052
 30
0.0
 11
213.862807
 21
-121.249608
 31
0.0
  0
LINE
  5
105
100
AcDbEntity
  8
Layer_1
 62
5
100
AcDbLine
 10
213.862807
 20
-121.249608
 30
0.0
 11
213.865629
 21
-117.862941
 31
0.0
  0
LINE
  5
106
100
AcDbEntity
  8
Layer_1
 62
5
100
AcDbLine
 10
213.865629
 20
-117.862941
 30
0.0
 11
193.490765
 21
-117.851088
 31
0.0
  0
LINE
  5
107
100
AcDbEntity
  8
Layer_1
 62
5
100
AcDbLine
 10
193.490765
 20
-117.851088
 30
0.0
 11
193.490765
 21
-120.145752
 31
0.0
  0
LINE
  5
108
100
AcDbEntity
  8
Layer_1
 62
5
100
AcDbLine
 10
193.490765
 20
-120.145752
 30
0.0
 11
193.422722
 21
-120.663404
 31
0.0
  0
LINE
  5
109
100
AcDbEntity
  8
Layer_1
 62
5
100
AcDbLine
 10
193.422722
 20
-120.663404
 30
0.0
 11
193.223360
 21
-121.145750
 31
0.0
  0
LINE
  5
10a
100
AcDbEntity
  8
Layer_1
 62
5
100
AcDbLine
 10
193.223360
 20
-121.145750
 30
0.0
 11
192.906142
 21
-121.559968
 31
0.0
  0
LINE
  5
10b
100
AcDbEntity
  8
Layer_1
 62
5
100
AcDbLine
 10
192.906142
 20
-121.559968
 30
0.0
 11
192.492771
 21
-121.877778
 31
0.0
  0
LINE
  5
10c
100
AcDbEntity
  8
Layer_1
 62
5
100
AcDbLine
 10
192.492771
 20
-121.877778
 30
0.0
 11
192.011356
 21
-122.077592
 31
0.0
  0
LINE
  5
10d
100
AcDbEntity
  8
Layer_1
 62
5
100
AcDbLine
 10
192.011356
 20
-122.077592
 30
0.0
 11
191.494749
 21
-122.145720
 31
0.0
  0
LINE
  5
10e
100
AcDbEntity
  8
Layer_1
 62
5
100
AcDbLine
 10
191.494749
 20
-122.145720
 30
0.0
 11
188.496730
 21
-122.149107
 31
0.0
  0
LINE
  5
10f
100
AcDbEntity
  8
Layer_1
 62
5
100
AcDbLine
 10
188.496730
 20
-122.149107
 30
0.0
 11
188.492779
 21
-114.376114
 31
0.0
  0
LINE
  5
110
100
AcDbEntity
  8
Layer_1
 62
5
100
AcDbLine
 10
188.492779
 20
-114.376114
 30
0.0
 11
190.292764
 21
-114.376114
 31
0.0
  0
LINE
  5
111
100
AcDbEntity
  8
Layer_1
 62
5
100
AcDbLine
 10
190.292764
 20
-114.376114
 30
0.0
 11
190.292764
 21
-109.286321
 31
0.0
  0
LINE
  5
112
100
AcDbEntity
  8
Layer_1
 62
5
100
AcDbLine
 10
190.292764
 20
-109.286321
 30
0.0
 11
188.492779
 21
-109.286321
 31
0.0
  0
LINE
  5
113
100
AcDbEntity
  8
Layer_1
 62
5
100
AcDbLine
 10
188.492779
 20
-109.286321
 30
0.0
 11
188.492779
 21
-107.037546
 31
0.0
  0
LINE
  5
114
100
AcDbEntity
  8
Layer_1
 62
5
100
AcDbLine
 10
188.492779
 20
-107.037546
 30
0.0
 11
184.092822
 21
-107.037546
 31
0.0
  0
LINE
  5
115
100
AcDbEntity
  8
Layer_1
 62
5
100
AcDbLine
 10
184.092822
 20
-107.037546
 30
0.0
 11
184.092822
 21
-109.286321
 31
0.0
  0
LINE
  5
116
100
AcDbEntity
  8
Layer_1
 62
5
100
AcDbLine
 10
184.092822
 20
-109.286321
 30
0.0
 11
182.292808
 21
-109.286321
 31
0.0
  0
LINE
  5
117
100
AcDbEntity
  8
Layer_1
 62
5
100
AcDbLine
 10
182.292808
 20
-109.286321
 30
0.0
 11
182.292808
 21
-114.376114
 31
0.0
  0
LINE
  5
118
100
AcDbEntity
  8
Layer_1
 62
5
100
AcDbLine
 10
182.292808
 20
-114.376114
 30
0.0
 11
184.092822
 21
-114.376114
 31
0.0
  0
LINE
  5
119
100
AcDbEntity
  8
Layer_1
 62
5
100
AcDbLine
 10
184.092822
 20
-114.376114
 30
0.0
 11
184.101288
 21
-122.155485
 31
0.0
  0
LINE
  5
11a
100
AcDbEntity
  8
Layer_1
 62
5
100
AcDbLine
 10
184.101288
 20
-122.155485
 30
0.0
 11
181.115660
 21
-122.158307
 31
0.0
  0
LINE
  5
11b
100
AcDbEntity
  8
Layer_1
 62
5
100
AcDbLine
 10
181.115660
 20
-122.158307
 30
0.0
 11
180.599080
 21
-122.090150
 31
0.0
  0
LINE
  5
11c
100
AcDbEntity
  8
Layer_1
 62
5
100
AcDbLine
 10
180.599080
 20
-122.090150
 30
0.0
 11
180.117637
 21
-121.890365
 31
0.0
  0
LINE
  5
11d
100
AcDbEntity
  8
Layer_1
 62
5
100
AcDbLine
 10
180.117637
 20
-121.890365
 30
0.0
 11
179.704266
 21
-121.572527
 31
0.0
  0
LINE
  5
11e
100
AcDbEntity
  8
Layer_1
 62
5
100
AcDbLine
 10
179.704266
 20
-121.572527
 30
0.0
 11
179.387048
 21
-121.158309
 31
0.0
  0
LINE
  5
11f
100
AcDbEntity
  8
Layer_1
 62
5
100
AcDbLine
 10
179.387048
 20
-121.158309
 30
0.0
 11
179.187687
 21
-120.675963
 31
0.0
  0
LINE
  5
120
100
AcDbEntity
  8
Layer_1
 62
5
100
AcDbLine
 10
179.187687
 20
-120.675963
 30
0.0
 11
179.119643
 21
-120.158311
 31
0.0
  0
LINE
  5
121
100
AcDbEntity
  8
Layer_1
 62
5
100
AcDbLine
 10
179.119643
 20
-120.158311
 30
0.0
 11
179.106661
 21
-117.851032
 31
0.0
  0
LINE
  5
122
100
AcDbEntity
  8
Layer_1
 62
5
100
AcDbLine
 10
179.106661
 20
-117.851032
 30
0.0
 11
173.593732
 21
-117.863167
 31
0.0
  0
LINE
  5
123
100
AcDbEntity
  8
Layer_1
 62
5
100
AcDbLine
 10
173.593732
 20
-117.863167
 30
0.0
 11
173.599658
 21
-101.660902
 31
0.0
  0
LINE
  5
124
100
AcDbEntity
  8
Layer_1
 62
5
100
AcDbLine
 10
173.599658
 20
-101.660902
 30
0.0
 11
171.299039
 21
-101.666264
 31
0.0
  0
LINE
  5
125
100
AcDbEntity
  8
Layer_1
 62
5
100
AcDbLine
 10
171.299039
 20
-101.666264
 30
0.0
 11
170.781387
 21
-101.598221
 31
0.0
  0
LINE
  5
126
100
AcDbEntity
  8
Layer_1
 62
5
100
AcDbLine
 10
170.781387
 20
-101.598221
 30
0.0
 11
170.299041
 21
-101.398859
 31
0.0
  0
LINE
  5
127
100
AcDbEntity
  8
Layer_1
 62
5
100
AcDbLine
 10
170.299041
 20
-101.398859
 30
0.0
 11
169.884824
 21
-101.081641
 31
0.0
  0
LINE
  5
128
100
AcDbEntity
  8
Layer_1
 62
5
100
AcDbLine
 10
169.884824
 20
-101.081641
 30
0.0
 11
169.567013
 21
-100.668270
 31
0.0
  0
LINE
  5
129
100
AcDbEntity
  8
Layer_1
 62
5
100
AcDbLine
 10
169.567013
 20
-100.668270
 30
0.0
 11
169.367200
 21
-100.186856
 31
0.0
  0
LINE
  5
12a
100
AcDbEntity
  8
Layer_1
 62
5
100
AcDbLine
 10
169.367200
 20
-100.186856
 30
0.0
 11
169.299072
 21
-99.670248
 31
0.0
  0
LINE
  5
12b
100
AcDbEntity
  8
Layer_1
 62
5
100
AcDbLine
 10
169.299072
 20
-99.670248
 30
0.0
 11
169.295685
 21
-96.672229
 31
0.0
  0
LINE
  5
12c
100
AcDbEntity
  8
Layer_1
 62
5
100
AcDbLine
 10
169.295685
 20
-96.672229
 30
0.0
 11
177.068678
 21
-96.668278
 31
0.0
  0
LINE
  5
12d
100
AcDbEntity
  8
Layer_1
 62
5
100
AcDbLine
 10
177.068678
 20
-96.668278
 30
0.0
 11
177.068678
 21
-98.468263
 31
0.0
  0
LINE
  5
12e
100
AcDbEntity
  8
Layer_1
 62
5
100
AcDbLine
 10
177.068678
 20
-98.468263
 30
0.0
 11
182.158471
 21
-98.468263
 31
0.0
  0
LINE
  5
12f
100
AcDbEntity
  8
Layer_1
 62
5
100
AcDbLine
 10
182.158471
 20
-98.468263
 30
0.0
 11
182.158471
 21
-96.668278
 31
0.0
  0
LINE
  5
130
100
AcDbEntity
  8
Layer_1
 62
5
100
AcDbLine
 10
182.158471
 20
-96.668278
 30
0.0
 11
184.407246
 21
-96.668278
 31
0.0
  0
LINE
  5
131
100
AcDbEntity
  8
Layer_1
 62
5
100
AcDbLine
 10
184.407246
 20
-96.668278
 30
0.0
 11
184.407246
 21
-92.268321
 31
0.0
  0
LINE
  5
132
100
AcDbEntity
  8
Layer_1
 62
5
100
AcDbLine
 10
184.407246
 20
-92.268321
 30
0.0
 11
182.158471
 21
-92.268321
 31
0.0
  0
LINE
  5
133
100
AcDbEntity
  8
Layer_1
 62
5
100
AcDbLine
 10
182.158471
 20
-92.268321
 30
0.0
 11
182.158471
 21
-90.468308
 31
0.0
  0
LINE
  5
134
100
AcDbEntity
  8
Layer_1
 62
5
100
AcDbLine
 10
182.158471
 20
-90.468308
 30
0.0
 11
177.068678
 21
-90.468308
 31
0.0
  0
LINE
  5
135
100
AcDbEntity
  8
Layer_1
 62
5
100
AcDbLine
 10
177.068678
 20
-90.468308
 30
0.0
 11
177.068678
 21
-92.268321
 31
0.0
  0
LINE
  5
136
100
AcDbEntity
  8
Layer_1
 62
5
100
AcDbLine
 10
177.068678
 20
-92.268321
 30
0.0
 11
169.289307
 21
-92.276788
 31
0.0
  0
LINE
  5
137
100
AcDbEntity
  8
Layer_1
 62
5
100
AcDbLine
 10
169.289307
 20
-92.276788
 30
0.0
 11
169.286484
 21
-89.291159
 31
0.0
  0
LINE
  5
138
100
AcDbEntity
  8
Layer_1
 62
5
100
AcDbLine
 10
169.286484
 20
-89.291159
 30
0.0
 11
169.354641
 21
-88.774579
 31
0.0
  0
LINE
  5
139
100
AcDbEntity
  8
Layer_1
 62
5
100
AcDbLine
 10
169.354641
 20
-88.774579
 30
0.0
 11
169.554426
 21
-88.293136
 31
0.0
  0
LINE
  5
13a
100
AcDbEntity
  8
Layer_1
 62
5
100
AcDbLine
 10
169.554426
 20
-88.293136
 30
0.0
 11
169.872265
 21
-87.879765
 31
0.0
  0
LINE
  5
13b
100
AcDbEntity
  8
Layer_1
 62
5
100
AcDbLine
 10
169.872265
 20
-87.879765
 30
0.0
 11
170.286482
 21
-87.562548
 31
0.0
  0
LINE
  5
13c
100
AcDbEntity
  8
Layer_1
 62
5
100
AcDbLine
 10
170.286482
 20
-87.562548
 30
0.0
 11
170.768828
 21
-87.363186
 31
0.0
  0
LINE
  5
13d
100
AcDbEntity
  8
Layer_1
 62
5
100
AcDbLine
 10
170.768828
 20
-87.363186
 30
0.0
 11
171.286480
 21
-87.295142
 31
0.0
  0
LINE
  5
13e
100
AcDbEntity
  8
Layer_1
 62
5
100
AcDbLine
 10
171.286480
 20
-87.295142
 30
0.0
 11
173.599715
 21
-87.289780
 31
0.0
  0
LINE
  5
13f
100
AcDbEntity
  8
Layer_1
 62
5
100
AcDbLine
 10
173.599715
 20
-87.289780
 30
0.0
 11
173.593224
 21
-79.001026
 31
0.0
  0
LINE
  5
140
100
AcDbEntity
  8
Layer_1
 62
5
100
AcDbLine
 10
173.593224
 20
-79.001026
 30
0.0
 11
177.192347
 21
-75.417255
 31
0.0
  0
LINE
  5
141
100
AcDbEntity
  8
Layer_1
 62
5
100
AcDbLine
 10
177.192347
 20
-75.417255
 30
0.0
 11
223.131070
 21
-75.528733
 31
0.0
  0
LINE
  5
142
100
AcDbEntity
  8
Layer_1
 62
5
100
AcDbLine
 10
223.131070
 20
-75.528733
 30
0.0
 11
223.113290
 21
-81.726531
 31
0.0
  0
LINE
  5
143
100
AcDbEntity
  8
Layer_1
 62
5
100
AcDbLine
 10
223.113290
 20
-81.726531
 30
0.0
 11
223.091163
 21
-117.862941
 31
0.0
  0
LINE
  5
144
100
AcDbEntity
  8
Layer_1
 62
7
100
AcDbLine
 10
206.813686
 20
-106.640939
 30
0.0
 11
209.195388
 21
-104.817050
 31
0.0
  0
LINE
  5
145
100
AcDbEntity
  8
Layer_1
 62
7
100
AcDbLine
 10
209.195388
 20
-104.817050
 30
0.0
 11
211.022974
 21
-102.440061
 31
0.0
  0
LINE
  5
146
100
AcDbEntity
  8
Layer_1
 62
7
100
AcDbLine
 10
211.022974
 20
-102.440061
 30
0.0
 11
212.171788
 21
-99.672026
 31
0.0
  0
LINE
  5
147
100
AcDbEntity
  8
Layer_1
 62
7
100
AcDbLine
 10
212.171788
 20
-99.672026
 30
0.0
 11
212.563654
 21
-96.701552
 31
0.0
  0
LINE
  5
148
100
AcDbEntity
  8
Layer_1
 62
7
100
AcDbLine
 10
212.563654
 20
-96.701552
 30
0.0
 11
212.171788
 21
-93.731079
 31
0.0
  0
LINE
  5
149
100
AcDbEntity
  8
Layer_1
 62
7
100
AcDbLine
 10
212.171788
 20
-93.731079
 30
0.0
 11
211.022974
 21
-90.963043
 31
0.0
  0
LINE
  5
14a
100
AcDbEntity
  8
Layer_1
 62
7
100
AcDbLine
 10
211.022974
 20
-90.963043
 30
0.0
 11
209.195388
 21
-88.586083
 31
0.0
  0
LINE
  5
14b
100
AcDbEntity
  8
Layer_1
 62
7
100
AcDbLine
 10
209.195388
 20
-88.586083
 30
0.0
 11
206.813686
 21
-86.762165
 31
0.0
  0
LINE
  5
14c
100
AcDbEntity
  8
Layer_1
 62
7
100
AcDbLine
 10
206.813686
 20
-86.762165
 30
0.0
 11
204.040119
 21
-85.615609
 31
0.0
  0
LINE
  5
14d
100
AcDbEntity
  8
Layer_1
 62
7
100
AcDbLine
 10
204.040119
 20
-85.615609
 30
0.0
 11
201.063719
 21
-85.224534
 31
0.0
  0
LINE
  5
14e
100
AcDbEntity
  8
Layer_1
 62
7
100
AcDbLine
 10
201.063719
 20
-85.224534
 30
0.0
 11
198.087347
 21
-85.615609
 31
0.0
  0
LINE
  5
14f
100
AcDbEntity
  8
Layer_1
 62
7
100
AcDbLine
 10
198.087347
 20
-85.615609
 30
0.0
 11
195.313780
 21
-86.762165
 31
0.0
  0
LINE
  5
150
100
AcDbEntity
  8
Layer_1
 62
7
100
AcDbLine
 10
195.313780
 20
-86.762165
 30
0.0
 11
192.932078
 21
-88.586083
 31
0.0
  0
LINE
  5
151
100
AcDbEntity
  8
Layer_1
 62
7
100
AcDbLine
 10
192.932078
 20
-88.586083
 30
0.0
 11
191.104520
 21
-90.963043
 31
0.0
  0
LINE
  5
152
100
AcDbEntity
  8
Layer_1
 62
7
100
AcDbLine
 10
191.104520
 20
-90.963043
 30
0.0
 11
189.955678
 21
-93.731079
 31
0.0
  0
LINE
  5
153
100
AcDbEntity
  8
Layer_1
 62
7
100
AcDbLine
 10
189.955678
 20
-93.731079
 30
0.0
 11
189.563841
 21
-96.701552
 31
0.0
  0
LINE
  5
154
100
AcDbEntity
  8
Layer_1
 62
7
100
AcDbLine
 10
189.563841
 20
-96.701552
 30
0.0
 11
189.955678
 21
-99.672026
 31
0.0
  0
LINE
  5
155
100
AcDbEntity
  8
Layer_1
 62
7
100
AcDbLine
 10
189.955678
 20
-99.672026
 30
0.0
 11
191.104520
 21
-102.440061
 31
0.0
  0
LINE
  5
156
100
AcDbEntity
  8
Layer_1
 62
7
100
AcDbLine
 10
191.104520
 20
-102.440061
 30
0.0
 11
192.932078
 21
-104.817050
 31
0.0
  0
LINE
  5
157
100
AcDbEntity
  8
Layer_1
 62
7
100
AcDbLine
 10
192.932078
 20
-104.817050
 30
0.0
 11
195.313780
 21
-106.640939
 31
0.0
  0
LINE
  5
158
100
AcDbEntity
  8
Layer_1
 62
7
100
AcDbLine
 10
195.313780
 20
-106.640939
 30
0.0
 11
198.087347
 21
-107.787523
 31
0.0
  0
LINE
  5
159
100
AcDbEntity
  8
Layer_1
 62
7
100
AcDbLine
 10
198.087347
 20
-107.787523
 30
0.0
 11
201.063719
 21
-108.178570
 31
0.0
  0
LINE
  5
15a
100
AcDbEntity
  8
Layer_1
 62
7
100
AcDbLine
 10
201.063719
 20
-108.178570
 30
0.0
 11
204.040119
 21
-107.787523
 31
0.0
  0
LINE
  5
15b
100
AcDbEntity
  8
Layer_1
 62
7
100
AcDbLine
 10
204.040119
 20
-107.787523
 30
0.0
 11
206.813686
 21
-106.640939
 31
0.0
  0
LINE
  5
15c
100
AcDbEntity
  8
Layer_1
 62
7
100
AcDbLine
 10
187.109326
 20
-81.645815
 30
0.0
 11
187.163851
 21
-81.232557
 31
0.0
  0
LINE
  5
15d
100
AcDbEntity
  8
Layer_1
 62
7
100
AcDbLine
 10
187.163851
 20
-81.232557
 30
0.0
 11
187.109326
 21
-80.819243
 31
0.0
  0
LINE
  5
15e
100
AcDbEntity
  8
Layer_1
 62
7
100
AcDbLine
 10
187.109326
 20
-80.819243
 30
0.0
 11
186.949503
 21
-80.434150
 31
0.0
  0
LINE
  5
15f
100
AcDbEntity
  8
Layer_1
 62
7
100
AcDbLine
 10
186.949503
 20
-80.434150
 30
0.0
 11
186.695221
 21
-80.103442
 31
0.0
  0
LINE
  5
160
100
AcDbEntity
  8
Layer_1
 62
7
100
AcDbLine
 10
186.695221
 20
-80.103442
 30
0.0
 11
186.363864
 21
-79.849668
 31
0.0
  0
LINE
  5
161
100
AcDbEntity
  8
Layer_1
 62
7
100
AcDbLine
 10
186.363864
 20
-79.849668
 30
0.0
 11
185.977982
 21
-79.690128
 31
0.0
  0
LINE
  5
162
100
AcDbEntity
  8
Layer_1
 62
7
100
AcDbLine
 10
185.977982
 20
-79.690128
 30
0.0
 11
185.563877
 21
-79.635716
 31
0.0
  0
LINE
  5
163
100
AcDbEntity
  8
Layer_1
 62
7
100
AcDbLine
 10
185.563877
 20
-79.635716
 30
0.0
 11
185.149772
 21
-79.690128
 31
0.0
  0
LINE
  5
164
100
AcDbEntity
  8
Layer_1
 62
7
100
AcDbLine
 10
185.149772
 20
-79.690128
 30
0.0
 11
184.763862
 21
-79.849668
 31
0.0
  0
LINE
  5
165
100
AcDbEntity
  8
Layer_1
 62
7
100
AcDbLine
 10
184.763862
 20
-79.849668
 30
0.0
 11
184.432504
 21
-80.103442
 31
0.0
  0
LINE
  5
166
100
AcDbEntity
  8
Layer_1
 62
7
100
AcDbLine
 10
184.432504
 20
-80.103442
 30
0.0
 11
184.178250
 21
-80.434150
 31
0.0
  0
LINE
  5
167
100
AcDbEntity
  8
Layer_1
 62
7
100
AcDbLine
 10
184.178250
 20
-80.434150
 30
0.0
 11
184.018400
 21
-80.819243
 31
0.0
  0
LINE
  5
168
100
AcDbEntity
  8
Layer_1
 62
7
100
AcDbLine
 10
184.018400
 20
-80.819243
 30
0.0
 11
183.963903
 21
-81.232557
 31
0.0
  0
LINE
  5
169
100
AcDbEntity
  8
Layer_1
 62
7
100
AcDbLine
 10
183.963903
 20
-81.232557
 30
0.0
 11
184.018400
 21
-81.645815
 31
0.0
  0
LINE
  5
16a
100
AcDbEntity
  8
Layer_1
 62
7
100
AcDbLine
 10
184.018400
 20
-81.645815
 30
0.0
 11
184.178250
 21
-82.030936
 31
0.0
  0
LINE
  5
16b
100
AcDbEntity
  8
Layer_1
 62
7
100
AcDbLine
 10
184.178250
 20
-82.030936
 30
0.0
 11
184.432504
 21
-82.361644
 31
0.0
  0
LINE
  5
16c
100
AcDbEntity
  8
Layer_1
 62
7
100
AcDbLine
 10
184.432504
 20
-82.361644
 30
0.0
 11
184.763862
 21
-82.615418
 31
0.0
  0
LINE
  5
16d
100
AcDbEntity
  8
Layer_1
 62
7
100
AcDbLine
 10
184.763862
 20
-82.615418
 30
0.0
 11
185.149772
 21
-82.774930
 31
0.0
  0
LINE
  5
16e
100
AcDbEntity
  8
Layer_1
 62
7
100
AcDbLine
 10
185.149772
 20
-82.774930
 30
0.0
 11
185.563877
 21
-82.829342
 31
0.0
  0
LINE
  5
16f
100
AcDbEntity
  8
Layer_1
 62
7
100
AcDbLine
 10
185.563877
 20
-82.829342
 30
0.0
 11
185.977982
 21
-82.774930
 31
0.0
  0
LINE
  5
170
100
AcDbEntity
  8
Layer_1
 62
7
100
AcDbLine
 10
185.977982
 20
-82.774930
 30
0.0
 11
186.363864
 21
-82.615418
 31
0.0
  0
LINE
  5
171
100
AcDbEntity
  8
Layer_1
 62
7
100
AcDbLine
 10
186.363864
 20
-82.615418
 30
0.0
 11
186.695221
 21
-82.361644
 31
0.0
  0
LINE
  5
172
100
AcDbEntity
  8
Layer_1
 62
7
100
AcDbLine
 10
186.695221
 20
-82.361644
 30
0.0
 11
186.949503
 21
-82.030936
 31
0.0
  0
LINE
  5
173
100
AcDbEntity
  8
Layer_1
 62
7
100
AcDbLine
 10
186.949503
 20
-82.030936
 30
0.0
 11
187.109326
 21
-81.645815
 31
0.0
  0
LINE
  5
174
100
AcDbEntity
  8
Layer_1
 62
7
100
AcDbLine
 10
218.153770
 20
-81.645815
 30
0.0
 11
218.208296
 21
-81.232557
 31
0.0
  0
LINE
  5
175
100
AcDbEntity
  8
Layer_1
 62
7
100
AcDbLine
 10
218.208296
 20
-81.232557
 30
0.0
 11
218.153770
 21
-80.819243
 31
0.0
  0
LINE
  5
176
100
AcDbEntity
  8
Layer_1
 62
7
100
AcDbLine
 10
218.153770
 20
-80.819243
 30
0.0
 11
217.993948
 21
-80.434150
 31
0.0
  0
LINE
  5
177
100
AcDbEntity
  8
Layer_1
 62
7
100
AcDbLine
 10
217.993948
 20
-80.434150
 30
0.0
 11
217.739666
 21
-80.103442
 31
0.0
  0
LINE
  5
178
100
AcDbEntity
  8
Layer_1
 62
7
100
AcDbLine
 10
217.739666
 20
-80.103442
 30
0.0
 11
217.408308
 21
-79.849668
 31
0.0
  0
LINE
  5
179
100
AcDbEntity
  8
Layer_1
 62
7
100
AcDbLine
 10
217.408308
 20
-79.849668
 30
0.0
 11
217.022426
 21
-79.690128
 31
0.0
  0
LINE
  5
17a
100
AcDbEntity
  8
Layer_1
 62
7
100
AcDbLine
 10
217.022426
 20
-79.690128
 30
0.0
 11
216.608321
 21
-79.635716
 31
0.0
  0
LINE
  5
17b
100
AcDbEntity
  8
Layer_1
 62
7
100
AcDbLine
 10
216.608321
 20
-79.635716
 30
0.0
 11
216.194217
 21
-79.690128
 31
0.0
  0
LINE
  5
17c
100
AcDbEntity
  8
Layer_1
 62
7
100
AcDbLine
 10
216.194217
 20
-79.690128
 30
0.0
 11
215.808306
 21
-79.849668
 31
0.0
  0
LINE
  5
17d
100
AcDbEntity
  8
Layer_1
 62
7
100
AcDbLine
 10
215.808306
 20
-79.849668
 30
0.0
 11
215.476949
 21
-80.103442
 31
0.0
  0
LINE
  5
17e
100
AcDbEntity
  8
Layer_1
 62
7
100
AcDbLine
 10
215.476949
 20
-80.103442
 30
0.0
 11
215.222695
 21
-80.434150
 31
0.0
  0
LINE
  5
17f
100
AcDbEntity
  8
Layer_1
 62
7
100
AcDbLine
 10
215.222695
 20
-80.434150
 30
0.0
 11
215.062844
 21
-80.819243
 31
0.0
  0
LINE
  5
180
100
AcDbEntity
  8
Layer_1
 62
7
100
AcDbLine
 10
215.062844
 20
-80.819243
 30
0.0
 11
215.008347
 21
-81.232557
 31
0.0
  0
LINE
  5
181
100
AcDbEntity
  8
Layer_1
 62
7
100
AcDbLine
 10
215.008347
 20
-81.232557
 30
0.0
 11
215.062844
 21
-81.645815
 31
0.0
  0
LINE
  5
182
100
AcDbEntity
  8
Layer_1
 62
7
100
AcDbLine
 10
215.062844
 20
-81.645815
 30
0.0
 11
215.222695
 21
-82.030936
 31
0.0
  0
LINE
  5
183
100
AcDbEntity
  8
Layer_1
 62
7
100
AcDbLine
 10
215.222695
 20
-82.030936
 30
0.0
 11
215.476949
 21
-82.361644
 31
0.0
  0
LINE
  5
184
100
AcDbEntity
  8
Layer_1
 62
7
100
AcDbLine
 10
215.476949
 20
-82.361644
 30
0.0
 11
215.808306
 21
-82.615418
 31
0.0
  0
LINE
  5
185
100
AcDbEntity
  8
Layer_1
 62
7
100
AcDbLine
 10
215.808306
 20
-82.615418
 30
0.0
 11
216.194217
 21
-82.774930
 31
0.0
  0
LINE
  5
186
100
AcDbEntity
  8
Layer_1
 62
7
100
AcDbLine
 10
216.194217
 20
-82.774930
 30
0.0
 11
216.608321
 21
-82.829342
 31
0.0
  0
LINE
  5
187
100
AcDbEntity
  8
Layer_1
 62
7
100
AcDbLine
 10
216.608321
 20
-82.829342
 30
0.0
 11
217.022426
 21
-82.774930
 31
0.0
  0
LINE
  5
188
100
AcDbEntity
  8
Layer_1
 62
7
100
AcDbLine
 10
217.022426
 20
-82.774930
 30
0.0
 11
217.408308
 21
-82.615418
 31
0.0
  0
LINE
  5
189
100
AcDbEntity
  8
Layer_1
 62
7
100
AcDbLine
 10
217.408308
 20
-82.615418
 30
0.0
 11
217.739666
 21
-82.361644
 31
0.0
  0
LINE
  5
18a
100
AcDbEntity
  8
Layer_1
 62
7
100
AcDbLine
 10
217.739666
 20
-82.361644
 30
0.0
 11
217.993948
 21
-82.030936
 31
0.0
  0
LINE
  5
18b
100
AcDbEntity
  8
Layer_1
 62
7
100
AcDbLine
 10
217.993948
 20
-82.030936
 30
0.0
 11
218.153770
 21
-81.645815
 31
0.0
  0
LINE
  5
18c
100
AcDbEntity
  8
Layer_1
 62
7
100
AcDbLine
 10
218.153770
 20
-112.690260
 30
0.0
 11
218.208296
 21
-112.277002
 31
0.0
  0
LINE
  5
18d
100
AcDbEntity
  8
Layer_1
 62
7
100
AcDbLine
 10
218.208296
 20
-112.277002
 30
0.0
 11
218.153770
 21
-111.863687
 31
0.0
  0
LINE
  5
18e
100
AcDbEntity
  8
Layer_1
 62
7
100
AcDbLine
 10
218.153770
 20
-111.863687
 30
0.0
 11
217.993948
 21
-111.478595
 31
0.0
  0
LINE
  5
18f
100
AcDbEntity
  8
Layer_1
 62
7
100
AcDbLine
 10
217.993948
 20
-111.478595
 30
0.0
 11
217.739666
 21
-111.147887
 31
0.0
  0
LINE
  5
190
100
AcDbEntity
  8
Layer_1
 62
7
100
AcDbLine
 10
217.739666
 20
-111.147887
 30
0.0
 11
217.408308
 21
-110.894113
 31
0.0
  0
LINE
  5
191
100
AcDbEntity
  8
Layer_1
 62
7
100
AcDbLine
 10
217.408308
 20
-110.894113
 30
0.0
 11
217.022426
 21
-110.734572
 31
0.0
  0
LINE
  5
192
100
AcDbEntity
  8
Layer_1
 62
7
100
AcDbLine
 10
217.022426
 20
-110.734572
 30
0.0
 11
216.608321
 21
-110.680160
 31
0.0
  0
LINE
  5
193
100
AcDbEntity
  8
Layer_1
 62
7
100
AcDbLine
 10
216.608321
 20
-110.680160
 30
0.0
 11
216.194217
 21
-110.734572
 31
0.0
  0
LINE
  5
194
100
AcDbEntity
  8
Layer_1
 62
7
100
AcDbLine
 10
216.194217
 20
-110.734572
 30
0.0
 11
215.808306
 21
-110.894113
 31
0.0
  0
LINE
  5
195
100
AcDbEntity
  8
Layer_1
 62
7
100
AcDbLine
 10
215.808306
 20
-110.894113
 30
0.0
 11
215.476949
 21
-111.147887
 31
0.0
  0
LINE
  5
196
100
AcDbEntity
  8
Layer_1
 62
7
100
AcDbLine
 10
215.476949
 20
-111.147887
 30
0.0
 11
215.222695
 21
-111.478595
 31
0.0
  0
LINE
  5
197
100
AcDbEntity
  8
Layer_1
 62
7
100
AcDbLine
 10
215.222695
 20
-111.478595
 30
0.0
 11
215.062844
 21
-111.863687
 31
0.0
  0
LINE
  5
198
100
AcDbEntity
  8
Layer_1
 62
7
100
AcDbLine
 10
215.062844
 20
-111.863687
 30
0.0
 11
215.008347
 21
-112.277002
 31
0.0
  0
LINE
  5
199
100
AcDbEntity
  8
Layer_1
 62
7
100
AcDbLine
 10
215.008347
 20
-112.277002
 30
0.0
 11
215.062844
 21
-112.690260
 31
0.0
  0
LINE
  5
19a
100
AcDbEntity
  8
Layer_1
 62
7
100
AcDbLine
 10
215.062844
 20
-112.690260
 30
0.0
 11
215.222695
 21
-113.075380
 31
0.0
  0
LINE
  5
19b
100
AcDbEntity
  8
Layer_1
 62
7
100
AcDbLine
 10
215.222695
 20
-113.075380
 30
0.0
 11
215.476949
 21
-113.406088
 31
0.0
  0
LINE
  5
19c
100
AcDbEntity
  8
Layer_1
 62
7
100
AcDbLine
 10
215.476949
 20
-113.406088
 30
0.0
 11
215.808306
 21
-113.659862
 31
0.0
  0
LINE
  5
19d
100
AcDbEntity
  8
Layer_1
 62
7
100
AcDbLine
 10
215.808306
 20
-113.659862
 30
0.0
 11
216.194217
 21
-113.819374
 31
0.0
  0
LINE
  5
19e
100
AcDbEntity
  8
Layer_1
 62
7
100
AcDbLine
 10
216.194217
 20
-113.819374
 30
0.0
 11
216.608321
 21
-113.873787
 31
0.0
  0
LINE
  5
19f
100
AcDbEntity
  8
Layer_1
 62
7
100
AcDbLine
 10
216.608321
 20
-113.873787
 30
0.0
 11
217.022426
 21
-113.819374
 31
0.0
  0
LINE
  5
1a0
100
AcDbEntity
  8
Layer_1
 62
7
100
AcDbLine
 10
217.022426
 20
-113.819374
 30
0.0
 11
217.408308
 21
-113.659862
 31
0.0
  0
LINE
  5
1a1
100
AcDbEntity
  8
Layer_1
 62
7
100
AcDbLine
 10
217.408308
 20
-113.659862
 30
0.0
 11
217.739666
 21
-113.406088
 31
0.0
  0
LINE
  5
1a2
100
AcDbEntity
  8
Layer_1
 62
7
100
AcDbLine
 10
217.739666
 20
-113.406088
 30
0.0
 11
217.993948
 21
-113.075380
 31
0.0
  0
LINE
  5
1a3
100
AcDbEntity
  8
Layer_1
 62
7
100
AcDbLine
 10
217.993948
 20
-113.075380
 30
0.0
 11
218.153770
 21
-112.690260
 31
0.0
  0
ENDSEC
  0
SECTION
  2
OBJECTS
  0
DICTIONARY
  5
C
330
0
100
AcDbDictionary
  3
ACAD_GROUP
350
D
  3
ACAD_MLINESTYLE
350
17
  0
DICTIONARY
  5
D
330
C
100
AcDbDictionary
  0
DICTIONARY
  5
1A
330
C
100
AcDbDictionary
  0
DICTIONARY
  5
17
330
C
100
AcDbDictionary
  3
STANDARD
350
18
  0
DICTIONARY
  5
19
330
C
100
AcDbDictionary
  0
ENDSEC
  0
EOF
