  0
SECTION
  2
BLOCKS
  0
ENDSEC
  0
SECTION
  2
ENTITIES
  0
LINE
  8
0
 10
300
 20
150
 11
-300
 21
150
  0
LINE
  8
0
 10
-300
 20
150
 11
-300
 21
-150
  0
LINE
  8
0
 10
-300
 20
-150
 11
300
 21
-150
  0
LINE
  8
0
 10
300
 20
-150
 11
300
 21
150
  0
LINE
  8
0
 10
12.55
 20
143.55
 11
12.55
 21
149.95
  0
LINE
  8
0
 10
12.55
 20
149.95
 11
37.45
 21
149.95
  0
LINE
  8
0
 10
37.45
 20
149.95
 11
37.45
 21
143.55
  0
LINE
  8
0
 10
37.45
 20
143.55
 11
12.55
 21
143.55
  0
LINE
  8
0
 10
-37.45
 20
143.55
 11
-37.45
 21
149.95
  0
LINE
  8
0
 10
-37.45
 20
149.95
 11
-12.55
 21
149.95
  0
LINE
  8
0
 10
-12.55
 20
149.95
 11
-12.55
 21
143.55
  0
LINE
  8
0
 10
-12.55
 20
143.55
 11
-37.45
 21
143.55
  0
LINE
  8
0
 10
0
 20
144.25
 11
-0.487717
 21
144.298
  0
LINE
  8
0
 10
-0.487717
 20
144.298
 11
-0.956696
 21
144.44
  0
LINE
  8
0
 10
-0.956696
 20
144.44
 11
-1.38892
 21
144.671
  0
LINE
  8
0
 10
-1.38892
 20
144.671
 11
-1.76776
 21
144.982
  0
LINE
  8
0
 10
-1.76776
 20
144.982
 11
-2.07866
 21
145.361
  0
LINE
  8
0
 10
-2.07866
 20
145.361
 11
-2.30969
 21
145.793
  0
LINE
  8
0
 10
-2.30969
 20
145.793
 11
-2.45195
 21
146.262
  0
LINE
  8
0
 10
-2.45195
 20
146.262
 11
-2.5
 21
146.75
  0
LINE
  8
0
 10
-2.5
 20
146.75
 11
-2.45195
 21
147.238
  0
LINE
  8
0
 10
-2.45195
 20
147.238
 11
-2.30969
 21
147.707
  0
LINE
  8
0
 10
-2.30969
 20
147.707
 11
-2.07866
 21
148.139
  0
LINE
  8
0
 10
-2.07866
 20
148.139
 11
-1.76776
 21
148.518
  0
LINE
  8
0
 10
-1.76776
 20
148.518
 11
-1.38892
 21
148.829
  0
LINE
  8
0
 10
-1.38892
 20
148.829
 11
-0.956696
 21
149.06
  0
LINE
  8
0
 10
-0.956696
 20
149.06
 11
-0.487717
 21
149.202
  0
LINE
  8
0
 10
-0.487717
 20
149.202
 11
0
 21
149.25
  0
LINE
  8
0
 10
0
 20
149.25
 11
0.487717
 21
149.202
  0
LINE
  8
0
 10
0.487717
 20
149.202
 11
0.956696
 21
149.06
  0
LINE
  8
0
 10
0.956696
 20
149.06
 11
1.38892
 21
148.829
  0
LINE
  8
0
 10
1.38892
 20
148.829
 11
1.76776
 21
148.518
  0
LINE
  8
0
 10
1.76776
 20
148.518
 11
2.07866
 21
148.139
  0
LINE
  8
0
 10
2.07866
 20
148.139
 11
2.30969
 21
147.707
  0
LINE
  8
0
 10
2.30969
 20
147.707
 11
2.45195
 21
147.238
  0
LINE
  8
0
 10
2.45195
 20
147.238
 11
2.5
 21
146.75
  0
LINE
  8
0
 10
2.5
 20
146.75
 11
2.45195
 21
146.262
  0
LINE
  8
0
 10
2.45195
 20
146.262
 11
2.30969
 21
145.793
  0
LINE
  8
0
 10
2.30969
 20
145.793
 11
2.07866
 21
145.361
  0
LINE
  8
0
 10
2.07866
 20
145.361
 11
1.76776
 21
144.982
  0
LINE
  8
0
 10
1.76776
 20
144.982
 11
1.38892
 21
144.671
  0
LINE
  8
0
 10
1.38892
 20
144.671
 11
0.956696
 21
144.44
  0
LINE
  8
0
 10
0.956696
 20
144.44
 11
0.487717
 21
144.298
  0
LINE
  8
0
 10
0.487717
 20
144.298
 11
0
 21
144.25
  0
LINE
  8
0
 10
53.55
 20
134.95
 11
59.95
 21
134.95
  0
LINE
  8
0
 10
59.95
 20
134.95
 11
59.95
 21
105.05
  0
LINE
  8
0
 10
59.95
 20
105.05
 11
53.55
 21
105.05
  0
LINE
  8
0
 10
53.55
 20
105.05
 11
53.55
 21
134.95
  0
LINE
  8
0
 10
-59.95
 20
134.95
 11
-53.55
 21
134.95
  0
LINE
  8
0
 10
-53.55
 20
134.95
 11
-53.55
 21
105.05
  0
LINE
  8
0
 10
-53.55
 20
105.05
 11
-59.95
 21
105.05
  0
LINE
  8
0
 10
-59.95
 20
105.05
 11
-59.95
 21
134.95
  0
LINE
  8
0
 10
-144.374
 20
96.0039
 11
-144.872
 21
96.0211
  0
LINE
  8
0
 10
-144.872
 20
96.0211
 11
-145.369
 21
96.0521
  0
LINE
  8
0
 10
-145.369
 20
96.0521
 11
-145.865
 21
96.0969
  0
LINE
  8
0
 10
-145.865
 20
96.0969
 11
-146.36
 21
96.1553
  0
LINE
  8
0
 10
-146.36
 20
96.1553
 11
-146.853
 21
96.2275
  0
LINE
  8
0
 10
-146.853
 20
96.2275
 11
-147.343
 21
96.3132
  0
LINE
  8
0
 10
-147.343
 20
96.3132
 11
-147.832
 21
96.4126
  0
LINE
  8
0
 10
-147.832
 20
96.4126
 11
-148.317
 21
96.5253
  0
LINE
  8
0
 10
-148.317
 20
96.5253
 11
-148.799
 21
96.6515
  0
LINE
  8
0
 10
-148.799
 20
96.6515
 11
-149.277
 21
96.791
  0
LINE
  8
0
 10
-149.277
 20
96.791
 11
-149.751
 21
96.9436
  0
LINE
  8
0
 10
-149.751
 20
96.9436
 11
-150.221
 21
97.1093
  0
LINE
  8
0
 10
-150.221
 20
97.1093
 11
-150.686
 21
97.288
  0
LINE
  8
0
 10
-150.686
 20
97.288
 11
-151.146
 21
97.4794
  0
LINE
  8
0
 10
-151.146
 20
97.4794
 11
-151.601
 21
97.6835
  0
LINE
  8
0
 10
-151.601
 20
97.6835
 11
-152.05
 21
97.9001
  0
LINE
  8
0
 10
-152.05
 20
97.9001
 11
-152.492
 21
98.1291
  0
LINE
  8
0
 10
-152.492
 20
98.1291
 11
-152.928
 21
98.3702
  0
LINE
  8
0
 10
-152.928
 20
98.3702
 11
-153.357
 21
98.6233
  0
LINE
  8
0
 10
-153.357
 20
98.6233
 11
-153.779
 21
98.8881
  0
LINE
  8
0
 10
-153.779
 20
98.8881
 11
-154.194
 21
99.1646
  0
LINE
  8
0
 10
-154.194
 20
99.1646
 11
-154.6
 21
99.4523
  0
LINE
  8
0
 10
-154.6
 20
99.4523
 11
-154.999
 21
99.7513
  0
LINE
  8
0
 10
-154.999
 20
99.7513
 11
-155.389
 21
100.061
  0
LINE
  8
0
 10
-155.389
 20
100.061
 11
-155.77
 21
100.382
  0
LINE
  8
0
 10
-155.77
 20
100.382
 11
-156.143
 21
100.713
  0
LINE
  8
0
 10
-156.143
 20
100.713
 11
-156.506
 21
101.054
  0
LINE
  8
0
 10
-156.506
 20
101.054
 11
-156.859
 21
101.405
  0
LINE
  8
0
 10
-156.859
 20
101.405
 11
-157.203
 21
101.766
  0
LINE
  8
0
 10
-157.203
 20
101.766
 11
-157.537
 21
102.136
  0
LINE
  8
0
 10
-157.537
 20
102.136
 11
-157.86
 21
102.515
  0
LINE
  8
0
 10
-157.86
 20
102.515
 11
-158.172
 21
102.903
  0
LINE
  8
0
 10
-158.172
 20
102.903
 11
-158.474
 21
103.299
  0
LINE
  8
0
 10
-158.474
 20
103.299
 11
-158.765
 21
103.704
  0
LINE
  8
0
 10
-158.765
 20
103.704
 11
-159.044
 21
104.117
  0
LINE
  8
0
 10
-159.044
 20
104.117
 11
-159.312
 21
104.537
  0
LINE
  8
0
 10
-159.312
 20
104.537
 11
-159.568
 21
104.964
  0
LINE
  8
0
 10
-159.568
 20
104.964
 11
-159.812
 21
105.398
  0
LINE
  8
0
 10
-159.812
 20
105.398
 11
-160.044
 21
105.839
  0
LINE
  8
0
 10
-160.044
 20
105.839
 11
-160.263
 21
106.286
  0
LINE
  8
0
 10
-160.263
 20
106.286
 11
-160.471
 21
106.739
  0
LINE
  8
0
 10
-160.471
 20
106.739
 11
-160.665
 21
107.198
  0
LINE
  8
0
 10
-160.665
 20
107.198
 11
-160.847
 21
107.662
  0
LINE
  8
0
 10
-160.847
 20
107.662
 11
-161.016
 21
108.131
  0
LINE
  8
0
 10
-161.016
 20
108.131
 11
-161.172
 21
108.604
  0
LINE
  8
0
 10
-161.172
 20
108.604
 11
-161.315
 21
109.081
  0
LINE
  8
0
 10
-161.315
 20
109.081
 11
-161.444
 21
109.562
  0
LINE
  8
0
 10
-161.444
 20
109.562
 11
-161.561
 21
110.047
  0
LINE
  8
0
 10
-161.561
 20
110.047
 11
-161.663
 21
110.534
  0
LINE
  8
0
 10
-161.663
 20
110.534
 11
-161.752
 21
111.024
  0
LINE
  8
0
 10
-161.752
 20
111.024
 11
-161.828
 21
111.517
  0
LINE
  8
0
 10
-161.828
 20
111.517
 11
-161.89
 21
112.011
  0
LINE
  8
0
 10
-161.89
 20
112.011
 11
-161.938
 21
112.507
  0
LINE
  8
0
 10
-161.938
 20
112.507
 11
-161.972
 21
113.004
  0
LINE
  8
0
 10
-161.972
 20
113.004
 11
-161.993
 21
113.502
  0
LINE
  8
0
 10
-161.993
 20
113.502
 11
-162
 21
114
  0
LINE
  8
0
 10
-162
 20
114
 11
-161.993
 21
114.498
  0
LINE
  8
0
 10
-161.993
 20
114.498
 11
-161.972
 21
114.996
  0
LINE
  8
0
 10
-161.972
 20
114.996
 11
-161.938
 21
115.493
  0
LINE
  8
0
 10
-161.938
 20
115.493
 11
-161.89
 21
115.989
  0
LINE
  8
0
 10
-161.89
 20
115.989
 11
-161.828
 21
116.483
  0
LINE
  8
0
 10
-161.828
 20
116.483
 11
-161.752
 21
116.976
  0
LINE
  8
0
 10
-161.752
 20
116.976
 11
-161.663
 21
117.466
  0
LINE
  8
0
 10
-161.663
 20
117.466
 11
-161.561
 21
117.953
  0
LINE
  8
0
 10
-161.561
 20
117.953
 11
-161.444
 21
118.438
  0
LINE
  8
0
 10
-161.444
 20
118.438
 11
-161.315
 21
118.919
  0
LINE
  8
0
 10
-161.315
 20
118.919
 11
-161.172
 21
119.396
  0
LINE
  8
0
 10
-161.172
 20
119.396
 11
-161.016
 21
119.869
  0
LINE
  8
0
 10
-161.016
 20
119.869
 11
-160.847
 21
120.338
  0
LINE
  8
0
 10
-160.847
 20
120.338
 11
-160.665
 21
120.802
  0
LINE
  8
0
 10
-160.665
 20
120.802
 11
-160.471
 21
121.261
  0
LINE
  8
0
 10
-160.471
 20
121.261
 11
-160.263
 21
121.714
  0
LINE
  8
0
 10
-160.263
 20
121.714
 11
-160.044
 21
122.161
  0
LINE
  8
0
 10
-160.044
 20
122.161
 11
-159.812
 21
122.602
  0
LINE
  8
0
 10
-159.812
 20
122.602
 11
-159.568
 21
123.036
  0
LINE
  8
0
 10
-159.568
 20
123.036
 11
-159.312
 21
123.463
  0
LINE
  8
0
 10
-159.312
 20
123.463
 11
-159.044
 21
123.883
  0
LINE
  8
0
 10
-159.044
 20
123.883
 11
-158.765
 21
124.296
  0
LINE
  8
0
 10
-158.765
 20
124.296
 11
-158.474
 21
124.701
  0
LINE
  8
0
 10
-158.474
 20
124.701
 11
-158.172
 21
125.097
  0
LINE
  8
0
 10
-158.172
 20
125.097
 11
-157.86
 21
125.485
  0
LINE
  8
0
 10
-157.86
 20
125.485
 11
-157.537
 21
125.864
  0
LINE
  8
0
 10
-157.537
 20
125.864
 11
-157.203
 21
126.234
  0
LINE
  8
0
 10
-157.203
 20
126.234
 11
-156.859
 21
126.595
  0
LINE
  8
0
 10
-156.859
 20
126.595
 11
-156.506
 21
126.946
  0
LINE
  8
0
 10
-156.506
 20
126.946
 11
-156.143
 21
127.287
  0
LINE
  8
0
 10
-156.143
 20
127.287
 11
-155.77
 21
127.618
  0
LINE
  8
0
 10
-155.77
 20
127.618
 11
-155.389
 21
127.939
  0
LINE
  8
0
 10
-155.389
 20
127.939
 11
-154.999
 21
128.249
  0
LINE
  8
0
 10
-154.999
 20
128.249
 11
-154.6
 21
128.548
  0
LINE
  8
0
 10
-154.6
 20
128.548
 11
-154.194
 21
128.835
  0
LINE
  8
0
 10
-154.194
 20
128.835
 11
-153.779
 21
129.112
  0
LINE
  8
0
 10
-153.779
 20
129.112
 11
-153.357
 21
129.377
  0
LINE
  8
0
 10
-153.357
 20
129.377
 11
-152.928
 21
129.63
  0
LINE
  8
0
 10
-152.928
 20
129.63
 11
-152.492
 21
129.871
  0
LINE
  8
0
 10
-152.492
 20
129.871
 11
-152.05
 21
130.1
  0
LINE
  8
0
 10
-152.05
 20
130.1
 11
-151.601
 21
130.316
  0
LINE
  8
0
 10
-151.601
 20
130.316
 11
-151.146
 21
130.521
  0
LINE
  8
0
 10
-151.146
 20
130.521
 11
-150.686
 21
130.712
  0
LINE
  8
0
 10
-150.686
 20
130.712
 11
-150.221
 21
130.891
  0
LINE
  8
0
 10
-150.221
 20
130.891
 11
-149.751
 21
131.056
  0
LINE
  8
0
 10
-149.751
 20
131.056
 11
-149.277
 21
131.209
  0
LINE
  8
0
 10
-149.277
 20
131.209
 11
-148.799
 21
131.348
  0
LINE
  8
0
 10
-148.799
 20
131.348
 11
-148.317
 21
131.475
  0
LINE
  8
0
 10
-148.317
 20
131.475
 11
-147.832
 21
131.587
  0
LINE
  8
0
 10
-147.832
 20
131.587
 11
-147.343
 21
131.687
  0
LINE
  8
0
 10
-147.343
 20
131.687
 11
-146.853
 21
131.773
  0
LINE
  8
0
 10
-146.853
 20
131.773
 11
-146.36
 21
131.845
  0
LINE
  8
0
 10
-146.36
 20
131.845
 11
-145.865
 21
131.903
  0
LINE
  8
0
 10
-145.865
 20
131.903
 11
-145.369
 21
131.948
  0
LINE
  8
0
 10
-145.369
 20
131.948
 11
-144.872
 21
131.979
  0
LINE
  8
0
 10
-144.872
 20
131.979
 11
-144.374
 21
131.996
  0
LINE
  8
0
 10
-144.374
 20
131.996
 11
-143.875
 21
132
  0
LINE
  8
0
 10
-143.875
 20
132
 11
-143.377
 21
131.989
  0
LINE
  8
0
 10
-143.377
 20
131.989
 11
-142.88
 21
131.965
  0
LINE
  8
0
 10
-142.88
 20
131.965
 11
-142.383
 21
131.927
  0
LINE
  8
0
 10
-142.383
 20
131.927
 11
-141.887
 21
131.876
  0
LINE
  8
0
 10
-141.887
 20
131.876
 11
-141.394
 21
131.81
  0
LINE
  8
0
 10
-141.394
 20
131.81
 11
-140.902
 21
131.731
  0
LINE
  8
0
 10
-140.902
 20
131.731
 11
-140.412
 21
131.639
  0
LINE
  8
0
 10
-140.412
 20
131.639
 11
-139.925
 21
131.533
  0
LINE
  8
0
 10
-139.925
 20
131.533
 11
-139.442
 21
131.413
  0
LINE
  8
0
 10
-139.442
 20
131.413
 11
-138.961
 21
131.28
  0
LINE
  8
0
 10
-138.961
 20
131.28
 11
-138.485
 21
131.134
  0
LINE
  8
0
 10
-138.485
 20
131.134
 11
-138.013
 21
130.975
  0
LINE
  8
0
 10
-138.013
 20
130.975
 11
-137.546
 21
130.803
  0
LINE
  8
0
 10
-137.546
 20
130.803
 11
-137.083
 21
130.618
  0
LINE
  8
0
 10
-137.083
 20
130.618
 11
-136.626
 21
130.42
  0
LINE
  8
0
 10
-136.626
 20
130.42
 11
-136.174
 21
130.21
  0
LINE
  8
0
 10
-136.174
 20
130.21
 11
-135.728
 21
129.987
  0
LINE
  8
0
 10
-135.728
 20
129.987
 11
-135.289
 21
129.752
  0
LINE
  8
0
 10
-135.289
 20
129.752
 11
-134.857
 21
129.505
  0
LINE
  8
0
 10
-134.857
 20
129.505
 11
-134.431
 21
129.246
  0
LINE
  8
0
 10
-134.431
 20
129.246
 11
-134.013
 21
128.975
  0
LINE
  8
0
 10
-134.013
 20
128.975
 11
-133.602
 21
128.693
  0
LINE
  8
0
 10
-133.602
 20
128.693
 11
-133.199
 21
128.4
  0
LINE
  8
0
 10
-133.199
 20
128.4
 11
-132.805
 21
128.095
  0
LINE
  8
0
 10
-132.805
 20
128.095
 11
-132.419
 21
127.78
  0
LINE
  8
0
 10
-132.419
 20
127.78
 11
-132.042
 21
127.454
  0
LINE
  8
0
 10
-132.042
 20
127.454
 11
-131.675
 21
127.118
  0
LINE
  8
0
 10
-131.675
 20
127.118
 11
-131.316
 21
126.772
  0
LINE
  8
0
 10
-131.316
 20
126.772
 11
-130.968
 21
126.416
  0
LINE
  8
0
 10
-130.968
 20
126.416
 11
-130.629
 21
126.051
  0
LINE
  8
0
 10
-130.629
 20
126.051
 11
-130.301
 21
125.676
  0
LINE
  8
0
 10
-130.301
 20
125.676
 11
-129.983
 21
125.292
  0
LINE
  8
0
 10
-129.983
 20
125.292
 11
-129.676
 21
124.9
  0
LINE
  8
0
 10
-129.676
 20
124.9
 11
-129.379
 21
124.499
  0
LINE
  8
0
 10
-129.379
 20
124.499
 11
-129.094
 21
124.091
  0
LINE
  8
0
 10
-129.094
 20
124.091
 11
-128.821
 21
123.674
  0
LINE
  8
0
 10
-128.821
 20
123.674
 11
-128.559
 21
123.251
  0
LINE
  8
0
 10
-128.559
 20
123.251
 11
-128.309
 21
122.82
  0
LINE
  8
0
 10
-128.309
 20
122.82
 11
-128.071
 21
122.382
  0
LINE
  8
0
 10
-128.071
 20
122.382
 11
-127.845
 21
121.938
  0
LINE
  8
0
 10
-127.845
 20
121.938
 11
-127.631
 21
121.488
  0
LINE
  8
0
 10
-127.631
 20
121.488
 11
-127.43
 21
121.032
  0
LINE
  8
0
 10
-127.43
 20
121.032
 11
-127.242
 21
120.571
  0
LINE
  8
0
 10
-127.242
 20
120.571
 11
-127.067
 21
120.104
  0
LINE
  8
0
 10
-127.067
 20
120.104
 11
-126.904
 21
119.633
  0
LINE
  8
0
 10
-126.904
 20
119.633
 11
-126.755
 21
119.158
  0
LINE
  8
0
 10
-126.755
 20
119.158
 11
-126.619
 21
118.679
  0
LINE
  8
0
 10
-126.619
 20
118.679
 11
-126.496
 21
118.196
  0
LINE
  8
0
 10
-126.496
 20
118.196
 11
-126.386
 21
117.71
  0
LINE
  8
0
 10
-126.386
 20
117.71
 11
-126.291
 21
117.221
  0
LINE
  8
0
 10
-126.291
 20
117.221
 11
-126.208
 21
116.73
  0
LINE
  8
0
 10
-126.208
 20
116.73
 11
-126.139
 21
116.236
  0
LINE
  8
0
 10
-126.139
 20
116.236
 11
-126.084
 21
115.741
  0
LINE
  8
0
 10
-126.084
 20
115.741
 11
-126.043
 21
115.245
  0
LINE
  8
0
 10
-126.043
 20
115.245
 11
-126.016
 21
114.747
  0
LINE
  8
0
 10
-126.016
 20
114.747
 11
-126.002
 21
114.249
  0
LINE
  8
0
 10
-126.002
 20
114.249
 11
-126.002
 21
113.751
  0
LINE
  8
0
 10
-126.002
 20
113.751
 11
-126.016
 21
113.253
  0
LINE
  8
0
 10
-126.016
 20
113.253
 11
-126.043
 21
112.755
  0
LINE
  8
0
 10
-126.043
 20
112.755
 11
-126.084
 21
112.259
  0
LINE
  8
0
 10
-126.084
 20
112.259
 11
-126.139
 21
111.764
  0
LINE
  8
0
 10
-126.139
 20
111.764
 11
-126.208
 21
111.27
  0
LINE
  8
0
 10
-126.208
 20
111.27
 11
-126.291
 21
110.779
  0
LINE
  8
0
 10
-126.291
 20
110.779
 11
-126.386
 21
110.29
  0
LINE
  8
0
 10
-126.386
 20
110.29
 11
-126.496
 21
109.804
  0
LINE
  8
0
 10
-126.496
 20
109.804
 11
-126.619
 21
109.321
  0
LINE
  8
0
 10
-126.619
 20
109.321
 11
-126.755
 21
108.842
  0
LINE
  8
0
 10
-126.755
 20
108.842
 11
-126.904
 21
108.367
  0
LINE
  8
0
 10
-126.904
 20
108.367
 11
-127.067
 21
107.896
  0
LINE
  8
0
 10
-127.067
 20
107.896
 11
-127.242
 21
107.429
  0
LINE
  8
0
 10
-127.242
 20
107.429
 11
-127.43
 21
106.968
  0
LINE
  8
0
 10
-127.43
 20
106.968
 11
-127.631
 21
106.512
  0
LINE
  8
0
 10
-127.631
 20
106.512
 11
-127.845
 21
106.062
  0
LINE
  8
0
 10
-127.845
 20
106.062
 11
-128.071
 21
105.618
  0
LINE
  8
0
 10
-128.071
 20
105.618
 11
-128.309
 21
105.18
  0
LINE
  8
0
 10
-128.309
 20
105.18
 11
-128.559
 21
104.749
  0
LINE
  8
0
 10
-128.559
 20
104.749
 11
-128.821
 21
104.326
  0
LINE
  8
0
 10
-128.821
 20
104.326
 11
-129.094
 21
103.909
  0
LINE
  8
0
 10
-129.094
 20
103.909
 11
-129.379
 21
103.501
  0
LINE
  8
0
 10
-129.379
 20
103.501
 11
-129.676
 21
103.1
  0
LINE
  8
0
 10
-129.676
 20
103.1
 11
-129.983
 21
102.708
  0
LINE
  8
0
 10
-129.983
 20
102.708
 11
-130.301
 21
102.324
  0
LINE
  8
0
 10
-130.301
 20
102.324
 11
-130.629
 21
101.949
  0
LINE
  8
0
 10
-130.629
 20
101.949
 11
-130.968
 21
101.584
  0
LINE
  8
0
 10
-130.968
 20
101.584
 11
-131.316
 21
101.228
  0
LINE
  8
0
 10
-131.316
 20
101.228
 11
-131.675
 21
100.882
  0
LINE
  8
0
 10
-131.675
 20
100.882
 11
-132.042
 21
100.546
  0
LINE
  8
0
 10
-132.042
 20
100.546
 11
-132.419
 21
100.22
  0
LINE
  8
0
 10
-132.419
 20
100.22
 11
-132.805
 21
99.9049
  0
LINE
  8
0
 10
-132.805
 20
99.9049
 11
-133.199
 21
99.6004
  0
LINE
  8
0
 10
-133.199
 20
99.6004
 11
-133.602
 21
99.307
  0
LINE
  8
0
 10
-133.602
 20
99.307
 11
-134.013
 21
99.0249
  0
LINE
  8
0
 10
-134.013
 20
99.0249
 11
-134.431
 21
98.7542
  0
LINE
  8
0
 10
-134.431
 20
98.7542
 11
-134.857
 21
98.4952
  0
LINE
  8
0
 10
-134.857
 20
98.4952
 11
-135.289
 21
98.2481
  0
LINE
  8
0
 10
-135.289
 20
98.2481
 11
-135.728
 21
98.0131
  0
LINE
  8
0
 10
-135.728
 20
98.0131
 11
-136.174
 21
97.7903
  0
LINE
  8
0
 10
-136.174
 20
97.7903
 11
-136.626
 21
97.5799
  0
LINE
  8
0
 10
-136.626
 20
97.5799
 11
-137.083
 21
97.3821
  0
LINE
  8
0
 10
-137.083
 20
97.3821
 11
-137.546
 21
97.197
  0
LINE
  8
0
 10
-137.546
 20
97.197
 11
-138.013
 21
97.0248
  0
LINE
  8
0
 10
-138.013
 20
97.0248
 11
-138.485
 21
96.8656
  0
LINE
  8
0
 10
-138.485
 20
96.8656
 11
-138.961
 21
96.7196
  0
LINE
  8
0
 10
-138.961
 20
96.7196
 11
-139.442
 21
96.5868
  0
LINE
  8
0
 10
-139.442
 20
96.5868
 11
-139.925
 21
96.4673
  0
LINE
  8
0
 10
-139.925
 20
96.4673
 11
-140.412
 21
96.3612
  0
LINE
  8
0
 10
-140.412
 20
96.3612
 11
-140.902
 21
96.2687
  0
LINE
  8
0
 10
-140.902
 20
96.2687
 11
-141.394
 21
96.1897
  0
LINE
  8
0
 10
-141.394
 20
96.1897
 11
-141.887
 21
96.1244
  0
LINE
  8
0
 10
-141.887
 20
96.1244
 11
-142.383
 21
96.0728
  0
LINE
  8
0
 10
-142.383
 20
96.0728
 11
-142.88
 21
96.0349
  0
LINE
  8
0
 10
-142.88
 20
96.0349
 11
-143.377
 21
96.0108
  0
LINE
  8
0
 10
-143.377
 20
96.0108
 11
-143.875
 21
96.0004
  0
LINE
  8
0
 10
-143.875
 20
96.0004
 11
-144.374
 21
96.0039
  0
LINE
  8
0
 10
143.377
 20
96.0108
 11
142.88
 21
96.0349
  0
LINE
  8
0
 10
142.88
 20
96.0349
 11
142.383
 21
96.0728
  0
LINE
  8
0
 10
142.383
 20
96.0728
 11
141.887
 21
96.1244
  0
LINE
  8
0
 10
141.887
 20
96.1244
 11
141.394
 21
96.1897
  0
LINE
  8
0
 10
141.394
 20
96.1897
 11
140.902
 21
96.2687
  0
LINE
  8
0
 10
140.902
 20
96.2687
 11
140.412
 21
96.3612
  0
LINE
  8
0
 10
140.412
 20
96.3612
 11
139.925
 21
96.4673
  0
LINE
  8
0
 10
139.925
 20
96.4673
 11
139.442
 21
96.5868
  0
LINE
  8
0
 10
139.442
 20
96.5868
 11
138.961
 21
96.7196
  0
LINE
  8
0
 10
138.961
 20
96.7196
 11
138.485
 21
96.8656
  0
LINE
  8
0
 10
138.485
 20
96.8656
 11
138.013
 21
97.0248
  0
LINE
  8
0
 10
138.013
 20
97.0248
 11
137.546
 21
97.197
  0
LINE
  8
0
 10
137.546
 20
97.197
 11
137.083
 21
97.3821
  0
LINE
  8
0
 10
137.083
 20
97.3821
 11
136.626
 21
97.5799
  0
LINE
  8
0
 10
136.626
 20
97.5799
 11
136.174
 21
97.7903
  0
LINE
  8
0
 10
136.174
 20
97.7903
 11
135.728
 21
98.0131
  0
LINE
  8
0
 10
135.728
 20
98.0131
 11
135.289
 21
98.2481
  0
LINE
  8
0
 10
135.289
 20
98.2481
 11
134.857
 21
98.4952
  0
LINE
  8
0
 10
134.857
 20
98.4952
 11
134.431
 21
98.7542
  0
LINE
  8
0
 10
134.431
 20
98.7542
 11
134.013
 21
99.0249
  0
LINE
  8
0
 10
134.013
 20
99.0249
 11
133.602
 21
99.307
  0
LINE
  8
0
 10
133.602
 20
99.307
 11
133.199
 21
99.6004
  0
LINE
  8
0
 10
133.199
 20
99.6004
 11
132.805
 21
99.9049
  0
LINE
  8
0
 10
132.805
 20
99.9049
 11
132.419
 21
100.22
  0
LINE
  8
0
 10
132.419
 20
100.22
 11
132.042
 21
100.546
  0
LINE
  8
0
 10
132.042
 20
100.546
 11
131.675
 21
100.882
  0
LINE
  8
0
 10
131.675
 20
100.882
 11
131.316
 21
101.228
  0
LINE
  8
0
 10
131.316
 20
101.228
 11
130.968
 21
101.584
  0
LINE
  8
0
 10
130.968
 20
101.584
 11
130.629
 21
101.949
  0
LINE
  8
0
 10
130.629
 20
101.949
 11
130.301
 21
102.324
  0
LINE
  8
0
 10
130.301
 20
102.324
 11
129.983
 21
102.708
  0
LINE
  8
0
 10
129.983
 20
102.708
 11
129.676
 21
103.1
  0
LINE
  8
0
 10
129.676
 20
103.1
 11
129.379
 21
103.501
  0
LINE
  8
0
 10
129.379
 20
103.501
 11
129.094
 21
103.909
  0
LINE
  8
0
 10
129.094
 20
103.909
 11
128.821
 21
104.326
  0
LINE
  8
0
 10
128.821
 20
104.326
 11
128.559
 21
104.749
  0
LINE
  8
0
 10
128.559
 20
104.749
 11
128.309
 21
105.18
  0
LINE
  8
0
 10
128.309
 20
105.18
 11
128.071
 21
105.618
  0
LINE
  8
0
 10
128.071
 20
105.618
 11
127.845
 21
106.062
  0
LINE
  8
0
 10
127.845
 20
106.062
 11
127.631
 21
106.512
  0
LINE
  8
0
 10
127.631
 20
106.512
 11
127.43
 21
106.968
  0
LINE
  8
0
 10
127.43
 20
106.968
 11
127.242
 21
107.429
  0
LINE
  8
0
 10
127.242
 20
107.429
 11
127.067
 21
107.896
  0
LINE
  8
0
 10
127.067
 20
107.896
 11
126.904
 21
108.367
  0
LINE
  8
0
 10
126.904
 20
108.367
 11
126.755
 21
108.842
  0
LINE
  8
0
 10
126.755
 20
108.842
 11
126.619
 21
109.321
  0
LINE
  8
0
 10
126.619
 20
109.321
 11
126.496
 21
109.804
  0
LINE
  8
0
 10
126.496
 20
109.804
 11
126.386
 21
110.29
  0
LINE
  8
0
 10
126.386
 20
110.29
 11
126.291
 21
110.779
  0
LINE
  8
0
 10
126.291
 20
110.779
 11
126.208
 21
111.27
  0
LINE
  8
0
 10
126.208
 20
111.27
 11
126.139
 21
111.764
  0
LINE
  8
0
 10
126.139
 20
111.764
 11
126.084
 21
112.259
  0
LINE
  8
0
 10
126.084
 20
112.259
 11
126.043
 21
112.755
  0
LINE
  8
0
 10
126.043
 20
112.755
 11
126.016
 21
113.253
  0
LINE
  8
0
 10
126.016
 20
113.253
 11
126.002
 21
113.751
  0
LINE
  8
0
 10
126.002
 20
113.751
 11
126.002
 21
114.249
  0
LINE
  8
0
 10
126.002
 20
114.249
 11
126.016
 21
114.747
  0
LINE
  8
0
 10
126.016
 20
114.747
 11
126.043
 21
115.245
  0
LINE
  8
0
 10
126.043
 20
115.245
 11
126.084
 21
115.741
  0
LINE
  8
0
 10
126.084
 20
115.741
 11
126.139
 21
116.236
  0
LINE
  8
0
 10
126.139
 20
116.236
 11
126.208
 21
116.73
  0
LINE
  8
0
 10
126.208
 20
116.73
 11
126.291
 21
117.221
  0
LINE
  8
0
 10
126.291
 20
117.221
 11
126.386
 21
117.71
  0
LINE
  8
0
 10
126.386
 20
117.71
 11
126.496
 21
118.196
  0
LINE
  8
0
 10
126.496
 20
118.196
 11
126.619
 21
118.679
  0
LINE
  8
0
 10
126.619
 20
118.679
 11
126.755
 21
119.158
  0
LINE
  8
0
 10
126.755
 20
119.158
 11
126.904
 21
119.633
  0
LINE
  8
0
 10
126.904
 20
119.633
 11
127.067
 21
120.104
  0
LINE
  8
0
 10
127.067
 20
120.104
 11
127.242
 21
120.571
  0
LINE
  8
0
 10
127.242
 20
120.571
 11
127.43
 21
121.032
  0
LINE
  8
0
 10
127.43
 20
121.032
 11
127.631
 21
121.488
  0
LINE
  8
0
 10
127.631
 20
121.488
 11
127.845
 21
121.938
  0
LINE
  8
0
 10
127.845
 20
121.938
 11
128.071
 21
122.382
  0
LINE
  8
0
 10
128.071
 20
122.382
 11
128.309
 21
122.82
  0
LINE
  8
0
 10
128.309
 20
122.82
 11
128.559
 21
123.251
  0
LINE
  8
0
 10
128.559
 20
123.251
 11
128.821
 21
123.674
  0
LINE
  8
0
 10
128.821
 20
123.674
 11
129.094
 21
124.091
  0
LINE
  8
0
 10
129.094
 20
124.091
 11
129.379
 21
124.499
  0
LINE
  8
0
 10
129.379
 20
124.499
 11
129.676
 21
124.9
  0
LINE
  8
0
 10
129.676
 20
124.9
 11
129.983
 21
125.292
  0
LINE
  8
0
 10
129.983
 20
125.292
 11
130.301
 21
125.676
  0
LINE
  8
0
 10
130.301
 20
125.676
 11
130.629
 21
126.051
  0
LINE
  8
0
 10
130.629
 20
126.051
 11
130.968
 21
126.416
  0
LINE
  8
0
 10
130.968
 20
126.416
 11
131.316
 21
126.772
  0
LINE
  8
0
 10
131.316
 20
126.772
 11
131.675
 21
127.118
  0
LINE
  8
0
 10
131.675
 20
127.118
 11
132.042
 21
127.454
  0
LINE
  8
0
 10
132.042
 20
127.454
 11
132.419
 21
127.78
  0
LINE
  8
0
 10
132.419
 20
127.78
 11
132.805
 21
128.095
  0
LINE
  8
0
 10
132.805
 20
128.095
 11
133.199
 21
128.4
  0
LINE
  8
0
 10
133.199
 20
128.4
 11
133.602
 21
128.693
  0
LINE
  8
0
 10
133.602
 20
128.693
 11
134.013
 21
128.975
  0
LINE
  8
0
 10
134.013
 20
128.975
 11
134.431
 21
129.246
  0
LINE
  8
0
 10
134.431
 20
129.246
 11
134.857
 21
129.505
  0
LINE
  8
0
 10
134.857
 20
129.505
 11
135.289
 21
129.752
  0
LINE
  8
0
 10
135.289
 20
129.752
 11
135.728
 21
129.987
  0
LINE
  8
0
 10
135.728
 20
129.987
 11
136.174
 21
130.21
  0
LINE
  8
0
 10
136.174
 20
130.21
 11
136.626
 21
130.42
  0
LINE
  8
0
 10
136.626
 20
130.42
 11
137.083
 21
130.618
  0
LINE
  8
0
 10
137.083
 20
130.618
 11
137.546
 21
130.803
  0
LINE
  8
0
 10
137.546
 20
130.803
 11
138.013
 21
130.975
  0
LINE
  8
0
 10
138.013
 20
130.975
 11
138.485
 21
131.134
  0
LINE
  8
0
 10
138.485
 20
131.134
 11
138.961
 21
131.28
  0
LINE
  8
0
 10
138.961
 20
131.28
 11
139.442
 21
131.413
  0
LINE
  8
0
 10
139.442
 20
131.413
 11
139.925
 21
131.533
  0
LINE
  8
0
 10
139.925
 20
131.533
 11
140.412
 21
131.639
  0
LINE
  8
0
 10
140.412
 20
131.639
 11
140.902
 21
131.731
  0
LINE
  8
0
 10
140.902
 20
131.731
 11
141.394
 21
131.81
  0
LINE
  8
0
 10
141.394
 20
131.81
 11
141.887
 21
131.876
  0
LINE
  8
0
 10
141.887
 20
131.876
 11
142.383
 21
131.927
  0
LINE
  8
0
 10
142.383
 20
131.927
 11
142.88
 21
131.965
  0
LINE
  8
0
 10
142.88
 20
131.965
 11
143.377
 21
131.989
  0
LINE
  8
0
 10
143.377
 20
131.989
 11
143.875
 21
132
  0
LINE
  8
0
 10
143.875
 20
132
 11
144.374
 21
131.996
  0
LINE
  8
0
 10
144.374
 20
131.996
 11
144.872
 21
131.979
  0
LINE
  8
0
 10
144.872
 20
131.979
 11
145.369
 21
131.948
  0
LINE
  8
0
 10
145.369
 20
131.948
 11
145.865
 21
131.903
  0
LINE
  8
0
 10
145.865
 20
131.903
 11
146.36
 21
131.845
  0
LINE
  8
0
 10
146.36
 20
131.845
 11
146.853
 21
131.773
  0
LINE
  8
0
 10
146.853
 20
131.773
 11
147.343
 21
131.687
  0
LINE
  8
0
 10
147.343
 20
131.687
 11
147.832
 21
131.587
  0
LINE
  8
0
 10
147.832
 20
131.587
 11
148.317
 21
131.475
  0
LINE
  8
0
 10
148.317
 20
131.475
 11
148.799
 21
131.348
  0
LINE
  8
0
 10
148.799
 20
131.348
 11
149.277
 21
131.209
  0
LINE
  8
0
 10
149.277
 20
131.209
 11
149.751
 21
131.056
  0
LINE
  8
0
 10
149.751
 20
131.056
 11
150.221
 21
130.891
  0
LINE
  8
0
 10
150.221
 20
130.891
 11
150.686
 21
130.712
  0
LINE
  8
0
 10
150.686
 20
130.712
 11
151.146
 21
130.521
  0
LINE
  8
0
 10
151.146
 20
130.521
 11
151.601
 21
130.316
  0
LINE
  8
0
 10
151.601
 20
130.316
 11
152.05
 21
130.1
  0
LINE
  8
0
 10
152.05
 20
130.1
 11
152.492
 21
129.871
  0
LINE
  8
0
 10
152.492
 20
129.871
 11
152.928
 21
129.63
  0
LINE
  8
0
 10
152.928
 20
129.63
 11
153.357
 21
129.377
  0
LINE
  8
0
 10
153.357
 20
129.377
 11
153.779
 21
129.112
  0
LINE
  8
0
 10
153.779
 20
129.112
 11
154.194
 21
128.835
  0
LINE
  8
0
 10
154.194
 20
128.835
 11
154.6
 21
128.548
  0
LINE
  8
0
 10
154.6
 20
128.548
 11
154.999
 21
128.249
  0
LINE
  8
0
 10
154.999
 20
128.249
 11
155.389
 21
127.939
  0
LINE
  8
0
 10
155.389
 20
127.939
 11
155.77
 21
127.618
  0
LINE
  8
0
 10
155.77
 20
127.618
 11
156.143
 21
127.287
  0
LINE
  8
0
 10
156.143
 20
127.287
 11
156.506
 21
126.946
  0
LINE
  8
0
 10
156.506
 20
126.946
 11
156.859
 21
126.595
  0
LINE
  8
0
 10
156.859
 20
126.595
 11
157.203
 21
126.234
  0
LINE
  8
0
 10
157.203
 20
126.234
 11
157.537
 21
125.864
  0
LINE
  8
0
 10
157.537
 20
125.864
 11
157.86
 21
125.485
  0
LINE
  8
0
 10
157.86
 20
125.485
 11
158.172
 21
125.097
  0
LINE
  8
0
 10
158.172
 20
125.097
 11
158.474
 21
124.701
  0
LINE
  8
0
 10
158.474
 20
124.701
 11
158.765
 21
124.296
  0
LINE
  8
0
 10
158.765
 20
124.296
 11
159.044
 21
123.883
  0
LINE
  8
0
 10
159.044
 20
123.883
 11
159.312
 21
123.463
  0
LINE
  8
0
 10
159.312
 20
123.463
 11
159.568
 21
123.036
  0
LINE
  8
0
 10
159.568
 20
123.036
 11
159.812
 21
122.602
  0
LINE
  8
0
 10
159.812
 20
122.602
 11
160.044
 21
122.161
  0
LINE
  8
0
 10
160.044
 20
122.161
 11
160.263
 21
121.714
  0
LINE
  8
0
 10
160.263
 20
121.714
 11
160.471
 21
121.261
  0
LINE
  8
0
 10
160.471
 20
121.261
 11
160.665
 21
120.802
  0
LINE
  8
0
 10
160.665
 20
120.802
 11
160.847
 21
120.338
  0
LINE
  8
0
 10
160.847
 20
120.338
 11
161.016
 21
119.869
  0
LINE
  8
0
 10
161.016
 20
119.869
 11
161.172
 21
119.396
  0
LINE
  8
0
 10
161.172
 20
119.396
 11
161.315
 21
118.919
  0
LINE
  8
0
 10
161.315
 20
118.919
 11
161.444
 21
118.438
  0
LINE
  8
0
 10
161.444
 20
118.438
 11
161.561
 21
117.953
  0
LINE
  8
0
 10
161.561
 20
117.953
 11
161.663
 21
117.466
  0
LINE
  8
0
 10
161.663
 20
117.466
 11
161.752
 21
116.976
  0
LINE
  8
0
 10
161.752
 20
116.976
 11
161.828
 21
116.483
  0
LINE
  8
0
 10
161.828
 20
116.483
 11
161.89
 21
115.989
  0
LINE
  8
0
 10
161.89
 20
115.989
 11
161.938
 21
115.493
  0
LINE
  8
0
 10
161.938
 20
115.493
 11
161.972
 21
114.996
  0
LINE
  8
0
 10
161.972
 20
114.996
 11
161.993
 21
114.498
  0
LINE
  8
0
 10
161.993
 20
114.498
 11
162
 21
114
  0
LINE
  8
0
 10
162
 20
114
 11
161.993
 21
113.502
  0
LINE
  8
0
 10
161.993
 20
113.502
 11
161.972
 21
113.004
  0
LINE
  8
0
 10
161.972
 20
113.004
 11
161.938
 21
112.507
  0
LINE
  8
0
 10
161.938
 20
112.507
 11
161.89
 21
112.011
  0
LINE
  8
0
 10
161.89
 20
112.011
 11
161.828
 21
111.517
  0
LINE
  8
0
 10
161.828
 20
111.517
 11
161.752
 21
111.024
  0
LINE
  8
0
 10
161.752
 20
111.024
 11
161.663
 21
110.534
  0
LINE
  8
0
 10
161.663
 20
110.534
 11
161.561
 21
110.047
  0
LINE
  8
0
 10
161.561
 20
110.047
 11
161.444
 21
109.562
  0
LINE
  8
0
 10
161.444
 20
109.562
 11
161.315
 21
109.081
  0
LINE
  8
0
 10
161.315
 20
109.081
 11
161.172
 21
108.604
  0
LINE
  8
0
 10
161.172
 20
108.604
 11
161.016
 21
108.131
  0
LINE
  8
0
 10
161.016
 20
108.131
 11
160.847
 21
107.662
  0
LINE
  8
0
 10
160.847
 20
107.662
 11
160.665
 21
107.198
  0
LINE
  8
0
 10
160.665
 20
107.198
 11
160.471
 21
106.739
  0
LINE
  8
0
 10
160.471
 20
106.739
 11
160.263
 21
106.286
  0
LINE
  8
0
 10
160.263
 20
106.286
 11
160.044
 21
105.839
  0
LINE
  8
0
 10
160.044
 20
105.839
 11
159.812
 21
105.398
  0
LINE
  8
0
 10
159.812
 20
105.398
 11
159.568
 21
104.964
  0
LINE
  8
0
 10
159.568
 20
104.964
 11
159.312
 21
104.537
  0
LINE
  8
0
 10
159.312
 20
104.537
 11
159.044
 21
104.117
  0
LINE
  8
0
 10
159.044
 20
104.117
 11
158.765
 21
103.704
  0
LINE
  8
0
 10
158.765
 20
103.704
 11
158.474
 21
103.299
  0
LINE
  8
0
 10
158.474
 20
103.299
 11
158.172
 21
102.903
  0
LINE
  8
0
 10
158.172
 20
102.903
 11
157.86
 21
102.515
  0
LINE
  8
0
 10
157.86
 20
102.515
 11
157.537
 21
102.136
  0
LINE
  8
0
 10
157.537
 20
102.136
 11
157.203
 21
101.766
  0
LINE
  8
0
 10
157.203
 20
101.766
 11
156.859
 21
101.405
  0
LINE
  8
0
 10
156.859
 20
101.405
 11
156.506
 21
101.054
  0
LINE
  8
0
 10
156.506
 20
101.054
 11
156.143
 21
100.713
  0
LINE
  8
0
 10
156.143
 20
100.713
 11
155.77
 21
100.382
  0
LINE
  8
0
 10
155.77
 20
100.382
 11
155.389
 21
100.061
  0
LINE
  8
0
 10
155.389
 20
100.061
 11
154.999
 21
99.7513
  0
LINE
  8
0
 10
154.999
 20
99.7513
 11
154.6
 21
99.4523
  0
LINE
  8
0
 10
154.6
 20
99.4523
 11
154.194
 21
99.1646
  0
LINE
  8
0
 10
154.194
 20
99.1646
 11
153.779
 21
98.8881
  0
LINE
  8
0
 10
153.779
 20
98.8881
 11
153.357
 21
98.6233
  0
LINE
  8
0
 10
153.357
 20
98.6233
 11
152.928
 21
98.3702
  0
LINE
  8
0
 10
152.928
 20
98.3702
 11
152.492
 21
98.1291
  0
LINE
  8
0
 10
152.492
 20
98.1291
 11
152.05
 21
97.9001
  0
LINE
  8
0
 10
152.05
 20
97.9001
 11
151.601
 21
97.6835
  0
LINE
  8
0
 10
151.601
 20
97.6835
 11
151.146
 21
97.4794
  0
LINE
  8
0
 10
151.146
 20
97.4794
 11
150.686
 21
97.288
  0
LINE
  8
0
 10
150.686
 20
97.288
 11
150.221
 21
97.1093
  0
LINE
  8
0
 10
150.221
 20
97.1093
 11
149.751
 21
96.9436
  0
LINE
  8
0
 10
149.751
 20
96.9436
 11
149.277
 21
96.791
  0
LINE
  8
0
 10
149.277
 20
96.791
 11
148.799
 21
96.6515
  0
LINE
  8
0
 10
148.799
 20
96.6515
 11
148.317
 21
96.5253
  0
LINE
  8
0
 10
148.317
 20
96.5253
 11
147.832
 21
96.4126
  0
LINE
  8
0
 10
147.832
 20
96.4126
 11
147.343
 21
96.3132
  0
LINE
  8
0
 10
147.343
 20
96.3132
 11
146.853
 21
96.2275
  0
LINE
  8
0
 10
146.853
 20
96.2275
 11
146.36
 21
96.1553
  0
LINE
  8
0
 10
146.36
 20
96.1553
 11
145.865
 21
96.0969
  0
LINE
  8
0
 10
145.865
 20
96.0969
 11
145.369
 21
96.0521
  0
LINE
  8
0
 10
145.369
 20
96.0521
 11
144.872
 21
96.0211
  0
LINE
  8
0
 10
144.872
 20
96.0211
 11
144.374
 21
96.0039
  0
LINE
  8
0
 10
144.374
 20
96.0039
 11
143.875
 21
96.0004
  0
LINE
  8
0
 10
143.875
 20
96.0004
 11
143.377
 21
96.0108
  0
LINE
  8
0
 10
-90.4877
 20
117.548
 11
-90.9567
 21
117.69
  0
LINE
  8
0
 10
-90.9567
 20
117.69
 11
-91.3889
 21
117.921
  0
LINE
  8
0
 10
-91.3889
 20
117.921
 11
-91.7678
 21
118.232
  0
LINE
  8
0
 10
-91.7678
 20
118.232
 11
-92.0787
 21
118.611
  0
LINE
  8
0
 10
-92.0787
 20
118.611
 11
-92.3097
 21
119.043
  0
LINE
  8
0
 10
-92.3097
 20
119.043
 11
-92.452
 21
119.512
  0
LINE
  8
0
 10
-92.452
 20
119.512
 11
-92.5
 21
120
  0
LINE
  8
0
 10
-92.5
 20
120
 11
-92.452
 21
120.488
  0
LINE
  8
0
 10
-92.452
 20
120.488
 11
-92.3097
 21
120.957
  0
LINE
  8
0
 10
-92.3097
 20
120.957
 11
-92.0787
 21
121.389
  0
LINE
  8
0
 10
-92.0787
 20
121.389
 11
-91.7678
 21
121.768
  0
LINE
  8
0
 10
-91.7678
 20
121.768
 11
-91.3889
 21
122.079
  0
LINE
  8
0
 10
-91.3889
 20
122.079
 11
-90.9567
 21
122.31
  0
LINE
  8
0
 10
-90.9567
 20
122.31
 11
-90.4877
 21
122.452
  0
LINE
  8
0
 10
-90.4877
 20
122.452
 11
-90
 21
122.5
  0
LINE
  8
0
 10
-90
 20
122.5
 11
-89.5123
 21
122.452
  0
LINE
  8
0
 10
-89.5123
 20
122.452
 11
-89.0433
 21
122.31
  0
LINE
  8
0
 10
-89.0433
 20
122.31
 11
-88.6111
 21
122.079
  0
LINE
  8
0
 10
-88.6111
 20
122.079
 11
-88.2322
 21
121.768
  0
LINE
  8
0
 10
-88.2322
 20
121.768
 11
-87.9213
 21
121.389
  0
LINE
  8
0
 10
-87.9213
 20
121.389
 11
-87.6903
 21
120.957
  0
LINE
  8
0
 10
-87.6903
 20
120.957
 11
-87.548
 21
120.488
  0
LINE
  8
0
 10
-87.548
 20
120.488
 11
-87.5
 21
120
  0
LINE
  8
0
 10
-87.5
 20
120
 11
-87.548
 21
119.512
  0
LINE
  8
0
 10
-87.548
 20
119.512
 11
-87.6903
 21
119.043
  0
LINE
  8
0
 10
-87.6903
 20
119.043
 11
-87.9213
 21
118.611
  0
LINE
  8
0
 10
-87.9213
 20
118.611
 11
-88.2322
 21
118.232
  0
LINE
  8
0
 10
-88.2322
 20
118.232
 11
-88.6111
 21
117.921
  0
LINE
  8
0
 10
-88.6111
 20
117.921
 11
-89.0433
 21
117.69
  0
LINE
  8
0
 10
-89.0433
 20
117.69
 11
-89.5123
 21
117.548
  0
LINE
  8
0
 10
-89.5123
 20
117.548
 11
-90
 21
117.5
  0
LINE
  8
0
 10
-90
 20
117.5
 11
-90.4877
 21
117.548
  0
LINE
  8
0
 10
89.5123
 20
117.548
 11
89.0433
 21
117.69
  0
LINE
  8
0
 10
89.0433
 20
117.69
 11
88.6111
 21
117.921
  0
LINE
  8
0
 10
88.6111
 20
117.921
 11
88.2322
 21
118.232
  0
LINE
  8
0
 10
88.2322
 20
118.232
 11
87.9213
 21
118.611
  0
LINE
  8
0
 10
87.9213
 20
118.611
 11
87.6903
 21
119.043
  0
LINE
  8
0
 10
87.6903
 20
119.043
 11
87.548
 21
119.512
  0
LINE
  8
0
 10
87.548
 20
119.512
 11
87.5
 21
120
  0
LINE
  8
0
 10
87.5
 20
120
 11
87.548
 21
120.488
  0
LINE
  8
0
 10
87.548
 20
120.488
 11
87.6903
 21
120.957
  0
LINE
  8
0
 10
87.6903
 20
120.957
 11
87.9213
 21
121.389
  0
LINE
  8
0
 10
87.9213
 20
121.389
 11
88.2322
 21
121.768
  0
LINE
  8
0
 10
88.2322
 20
121.768
 11
88.6111
 21
122.079
  0
LINE
  8
0
 10
88.6111
 20
122.079
 11
89.0433
 21
122.31
  0
LINE
  8
0
 10
89.0433
 20
122.31
 11
89.5123
 21
122.452
  0
LINE
  8
0
 10
89.5123
 20
122.452
 11
90
 21
122.5
  0
LINE
  8
0
 10
90
 20
122.5
 11
90.4877
 21
122.452
  0
LINE
  8
0
 10
90.4877
 20
122.452
 11
90.9567
 21
122.31
  0
LINE
  8
0
 10
90.9567
 20
122.31
 11
91.3889
 21
122.079
  0
LINE
  8
0
 10
91.3889
 20
122.079
 11
91.7678
 21
121.768
  0
LINE
  8
0
 10
91.7678
 20
121.768
 11
92.0787
 21
121.389
  0
LINE
  8
0
 10
92.0787
 20
121.389
 11
92.3097
 21
120.957
  0
LINE
  8
0
 10
92.3097
 20
120.957
 11
92.452
 21
120.488
  0
LINE
  8
0
 10
92.452
 20
120.488
 11
92.5
 21
120
  0
LINE
  8
0
 10
92.5
 20
120
 11
92.452
 21
119.512
  0
LINE
  8
0
 10
92.452
 20
119.512
 11
92.3097
 21
119.043
  0
LINE
  8
0
 10
92.3097
 20
119.043
 11
92.0787
 21
118.611
  0
LINE
  8
0
 10
92.0787
 20
118.611
 11
91.7678
 21
118.232
  0
LINE
  8
0
 10
91.7678
 20
118.232
 11
91.3889
 21
117.921
  0
LINE
  8
0
 10
91.3889
 20
117.921
 11
90.9567
 21
117.69
  0
LINE
  8
0
 10
90.9567
 20
117.69
 11
90.4877
 21
117.548
  0
LINE
  8
0
 10
90.4877
 20
117.548
 11
90
 21
117.5
  0
LINE
  8
0
 10
90
 20
117.5
 11
89.5123
 21
117.548
  0
LINE
  8
0
 10
-57.2377
 20
87.548
 11
-57.7067
 21
87.6903
  0
LINE
  8
0
 10
-57.7067
 20
87.6903
 11
-58.1389
 21
87.9213
  0
LINE
  8
0
 10
-58.1389
 20
87.9213
 11
-58.5178
 21
88.2322
  0
LINE
  8
0
 10
-58.5178
 20
88.2322
 11
-58.8287
 21
88.6111
  0
LINE
  8
0
 10
-58.8287
 20
88.6111
 11
-59.0597
 21
89.0433
  0
LINE
  8
0
 10
-59.0597
 20
89.0433
 11
-59.202
 21
89.5123
  0
LINE
  8
0
 10
-59.202
 20
89.5123
 11
-59.25
 21
90
  0
LINE
  8
0
 10
-59.25
 20
90
 11
-59.202
 21
90.4877
  0
LINE
  8
0
 10
-59.202
 20
90.4877
 11
-59.0597
 21
90.9567
  0
LINE
  8
0
 10
-59.0597
 20
90.9567
 11
-58.8287
 21
91.3889
  0
LINE
  8
0
 10
-58.8287
 20
91.3889
 11
-58.5178
 21
91.7678
  0
LINE
  8
0
 10
-58.5178
 20
91.7678
 11
-58.1389
 21
92.0787
  0
LINE
  8
0
 10
-58.1389
 20
92.0787
 11
-57.7067
 21
92.3097
  0
LINE
  8
0
 10
-57.7067
 20
92.3097
 11
-57.2377
 21
92.452
  0
LINE
  8
0
 10
-57.2377
 20
92.452
 11
-56.75
 21
92.5
  0
LINE
  8
0
 10
-56.75
 20
92.5
 11
-56.2623
 21
92.452
  0
LINE
  8
0
 10
-56.2623
 20
92.452
 11
-55.7933
 21
92.3097
  0
LINE
  8
0
 10
-55.7933
 20
92.3097
 11
-55.3611
 21
92.0787
  0
LINE
  8
0
 10
-55.3611
 20
92.0787
 11
-54.9822
 21
91.7678
  0
LINE
  8
0
 10
-54.9822
 20
91.7678
 11
-54.6713
 21
91.3889
  0
LINE
  8
0
 10
-54.6713
 20
91.3889
 11
-54.4403
 21
90.9567
  0
LINE
  8
0
 10
-54.4403
 20
90.9567
 11
-54.298
 21
90.4877
  0
LINE
  8
0
 10
-54.298
 20
90.4877
 11
-54.25
 21
90
  0
LINE
  8
0
 10
-54.25
 20
90
 11
-54.298
 21
89.5123
  0
LINE
  8
0
 10
-54.298
 20
89.5123
 11
-54.4403
 21
89.0433
  0
LINE
  8
0
 10
-54.4403
 20
89.0433
 11
-54.6713
 21
88.6111
  0
LINE
  8
0
 10
-54.6713
 20
88.6111
 11
-54.9822
 21
88.2322
  0
LINE
  8
0
 10
-54.9822
 20
88.2322
 11
-55.3611
 21
87.9213
  0
LINE
  8
0
 10
-55.3611
 20
87.9213
 11
-55.7933
 21
87.6903
  0
LINE
  8
0
 10
-55.7933
 20
87.6903
 11
-56.2623
 21
87.548
  0
LINE
  8
0
 10
-56.2623
 20
87.548
 11
-56.75
 21
87.5
  0
LINE
  8
0
 10
-56.75
 20
87.5
 11
-57.2377
 21
87.548
  0
LINE
  8
0
 10
-59.95
 20
45.05
 11
-59.95
 21
74.95
  0
LINE
  8
0
 10
-59.95
 20
74.95
 11
-53.55
 21
74.95
  0
LINE
  8
0
 10
-53.55
 20
74.95
 11
-53.55
 21
45.05
  0
LINE
  8
0
 10
-53.55
 20
45.05
 11
-59.95
 21
45.05
  0
LINE
  8
0
 10
53.55
 20
45.05
 11
53.55
 21
74.95
  0
LINE
  8
0
 10
53.55
 20
74.95
 11
59.95
 21
74.95
  0
LINE
  8
0
 10
59.95
 20
74.95
 11
59.95
 21
45.05
  0
LINE
  8
0
 10
59.95
 20
45.05
 11
53.55
 21
45.05
  0
LINE
  8
0
 10
12.55
 20
30.05
 11
12.55
 21
36.45
  0
LINE
  8
0
 10
12.55
 20
36.45
 11
37.45
 21
36.45
  0
LINE
  8
0
 10
37.45
 20
36.45
 11
37.45
 21
30.05
  0
LINE
  8
0
 10
37.45
 20
30.05
 11
12.55
 21
30.05
  0
LINE
  8
0
 10
-37.45
 20
30.05
 11
-37.45
 21
36.45
  0
LINE
  8
0
 10
-37.45
 20
36.45
 11
-12.55
 21
36.45
  0
LINE
  8
0
 10
-12.55
 20
36.45
 11
-12.55
 21
30.05
  0
LINE
  8
0
 10
-12.55
 20
30.05
 11
-37.45
 21
30.05
  0
LINE
  8
0
 10
0
 20
30.75
 11
-0.487717
 21
30.798
  0
LINE
  8
0
 10
-0.487717
 20
30.798
 11
-0.956696
 21
30.9403
  0
LINE
  8
0
 10
-0.956696
 20
30.9403
 11
-1.38892
 21
31.1713
  0
LINE
  8
0
 10
-1.38892
 20
31.1713
 11
-1.76776
 21
31.4822
  0
LINE
  8
0
 10
-1.76776
 20
31.4822
 11
-2.07866
 21
31.8611
  0
LINE
  8
0
 10
-2.07866
 20
31.8611
 11
-2.30969
 21
32.2933
  0
LINE
  8
0
 10
-2.30969
 20
32.2933
 11
-2.45195
 21
32.7623
  0
LINE
  8
0
 10
-2.45195
 20
32.7623
 11
-2.5
 21
33.25
  0
LINE
  8
0
 10
-2.5
 20
33.25
 11
-2.45195
 21
33.7377
  0
LINE
  8
0
 10
-2.45195
 20
33.7377
 11
-2.30969
 21
34.2067
  0
LINE
  8
0
 10
-2.30969
 20
34.2067
 11
-2.07866
 21
34.6389
  0
LINE
  8
0
 10
-2.07866
 20
34.6389
 11
-1.76776
 21
35.0178
  0
LINE
  8
0
 10
-1.76776
 20
35.0178
 11
-1.38892
 21
35.3287
  0
LINE
  8
0
 10
-1.38892
 20
35.3287
 11
-0.956696
 21
35.5597
  0
LINE
  8
0
 10
-0.956696
 20
35.5597
 11
-0.487717
 21
35.702
  0
LINE
  8
0
 10
-0.487717
 20
35.702
 11
0
 21
35.75
  0
LINE
  8
0
 10
0
 20
35.75
 11
0.487717
 21
35.702
  0
LINE
  8
0
 10
0.487717
 20
35.702
 11
0.956696
 21
35.5597
  0
LINE
  8
0
 10
0.956696
 20
35.5597
 11
1.38892
 21
35.3287
  0
LINE
  8
0
 10
1.38892
 20
35.3287
 11
1.76776
 21
35.0178
  0
LINE
  8
0
 10
1.76776
 20
35.0178
 11
2.07866
 21
34.6389
  0
LINE
  8
0
 10
2.07866
 20
34.6389
 11
2.30969
 21
34.2067
  0
LINE
  8
0
 10
2.30969
 20
34.2067
 11
2.45195
 21
33.7377
  0
LINE
  8
0
 10
2.45195
 20
33.7377
 11
2.5
 21
33.25
  0
LINE
  8
0
 10
2.5
 20
33.25
 11
2.45195
 21
32.7623
  0
LINE
  8
0
 10
2.45195
 20
32.7623
 11
2.30969
 21
32.2933
  0
LINE
  8
0
 10
2.30969
 20
32.2933
 11
2.07866
 21
31.8611
  0
LINE
  8
0
 10
2.07866
 20
31.8611
 11
1.76776
 21
31.4822
  0
LINE
  8
0
 10
1.76776
 20
31.4822
 11
1.38892
 21
31.1713
  0
LINE
  8
0
 10
1.38892
 20
31.1713
 11
0.956696
 21
30.9403
  0
LINE
  8
0
 10
0.956696
 20
30.9403
 11
0.487717
 21
30.798
  0
LINE
  8
0
 10
0.487717
 20
30.798
 11
0
 21
30.75
  0
LINE
  8
0
 10
54.4403
 20
90.9567
 11
54.6713
 21
91.3889
  0
LINE
  8
0
 10
54.6713
 20
91.3889
 11
54.9822
 21
91.7678
  0
LINE
  8
0
 10
54.9822
 20
91.7678
 11
55.3611
 21
92.0787
  0
LINE
  8
0
 10
55.3611
 20
92.0787
 11
55.7933
 21
92.3097
  0
LINE
  8
0
 10
55.7933
 20
92.3097
 11
56.2623
 21
92.452
  0
LINE
  8
0
 10
56.2623
 20
92.452
 11
56.75
 21
92.5
  0
LINE
  8
0
 10
56.75
 20
92.5
 11
57.2377
 21
92.452
  0
LINE
  8
0
 10
57.2377
 20
92.452
 11
57.7067
 21
92.3097
  0
LINE
  8
0
 10
57.7067
 20
92.3097
 11
58.1389
 21
92.0787
  0
LINE
  8
0
 10
58.1389
 20
92.0787
 11
58.5178
 21
91.7678
  0
LINE
  8
0
 10
58.5178
 20
91.7678
 11
58.8287
 21
91.3889
  0
LINE
  8
0
 10
58.8287
 20
91.3889
 11
59.0597
 21
90.9567
  0
LINE
  8
0
 10
59.0597
 20
90.9567
 11
59.202
 21
90.4877
  0
LINE
  8
0
 10
59.202
 20
90.4877
 11
59.25
 21
90
  0
LINE
  8
0
 10
59.25
 20
90
 11
59.202
 21
89.5123
  0
LINE
  8
0
 10
59.202
 20
89.5123
 11
59.0597
 21
89.0433
  0
LINE
  8
0
 10
59.0597
 20
89.0433
 11
58.8287
 21
88.6111
  0
LINE
  8
0
 10
58.8287
 20
88.6111
 11
58.5178
 21
88.2322
  0
LINE
  8
0
 10
58.5178
 20
88.2322
 11
58.1389
 21
87.9213
  0
LINE
  8
0
 10
58.1389
 20
87.9213
 11
57.7067
 21
87.6903
  0
LINE
  8
0
 10
57.7067
 20
87.6903
 11
57.2377
 21
87.548
  0
LINE
  8
0
 10
57.2377
 20
87.548
 11
56.75
 21
87.5
  0
LINE
  8
0
 10
56.75
 20
87.5
 11
56.2623
 21
87.548
  0
LINE
  8
0
 10
56.2623
 20
87.548
 11
55.7933
 21
87.6903
  0
LINE
  8
0
 10
55.7933
 20
87.6903
 11
55.3611
 21
87.9213
  0
LINE
  8
0
 10
55.3611
 20
87.9213
 11
54.9822
 21
88.2322
  0
LINE
  8
0
 10
54.9822
 20
88.2322
 11
54.6713
 21
88.6111
  0
LINE
  8
0
 10
54.6713
 20
88.6111
 11
54.4403
 21
89.0433
  0
LINE
  8
0
 10
54.4403
 20
89.0433
 11
54.298
 21
89.5123
  0
LINE
  8
0
 10
54.298
 20
89.5123
 11
54.25
 21
90
  0
LINE
  8
0
 10
54.25
 20
90
 11
54.298
 21
90.4877
  0
LINE
  8
0
 10
54.298
 20
90.4877
 11
54.4403
 21
90.9567
  0
ENDSEC
  0
SECTION
  2
OBJECTS
  0
DICTIONARY
  0
ENDSEC
  0
EOF
