  0
SECTION
  2
BLOCKS
  0
ENDSEC
  0
SECTION
  2
ENTITIES
  0
LINE
  8
0
 10
200
 20
100
 11
-200
 21
100
  0
LINE
  8
0
 10
-200
 20
100
 11
-200
 21
-100
  0
LINE
  8
0
 10
-200
 20
-100
 11
200
 21
-100
  0
LINE
  8
0
 10
200
 20
-100
 11
200
 21
100
  0
LINE
  8
0
 10
12.55
 20
93.55
 11
12.55
 21
99.95
  0
LINE
  8
0
 10
12.55
 20
99.95
 11
37.45
 21
99.95
  0
LINE
  8
0
 10
37.45
 20
99.95
 11
37.45
 21
93.55
  0
LINE
  8
0
 10
37.45
 20
93.55
 11
12.55
 21
93.55
  0
LINE
  8
0
 10
-37.45
 20
93.55
 11
-37.45
 21
99.95
  0
LINE
  8
0
 10
-37.45
 20
99.95
 11
-12.55
 21
99.95
  0
LINE
  8
0
 10
-12.55
 20
99.95
 11
-12.55
 21
93.55
  0
LINE
  8
0
 10
-12.55
 20
93.55
 11
-37.45
 21
93.55
  0
LINE
  8
0
 10
0
 20
94.25
 11
-0.487717
 21
94.298
  0
LINE
  8
0
 10
-0.487717
 20
94.298
 11
-0.956696
 21
94.4403
  0
LINE
  8
0
 10
-0.956696
 20
94.4403
 11
-1.38892
 21
94.6713
  0
LINE
  8
0
 10
-1.38892
 20
94.6713
 11
-1.76776
 21
94.9822
  0
LINE
  8
0
 10
-1.76776
 20
94.9822
 11
-2.07866
 21
95.3611
  0
LINE
  8
0
 10
-2.07866
 20
95.3611
 11
-2.30969
 21
95.7933
  0
LINE
  8
0
 10
-2.30969
 20
95.7933
 11
-2.45195
 21
96.2623
  0
LINE
  8
0
 10
-2.45195
 20
96.2623
 11
-2.5
 21
96.75
  0
LINE
  8
0
 10
-2.5
 20
96.75
 11
-2.45195
 21
97.2377
  0
LINE
  8
0
 10
-2.45195
 20
97.2377
 11
-2.30969
 21
97.7067
  0
LINE
  8
0
 10
-2.30969
 20
97.7067
 11
-2.07866
 21
98.1389
  0
LINE
  8
0
 10
-2.07866
 20
98.1389
 11
-1.76776
 21
98.5178
  0
LINE
  8
0
 10
-1.76776
 20
98.5178
 11
-1.38892
 21
98.8287
  0
LINE
  8
0
 10
-1.38892
 20
98.8287
 11
-0.956696
 21
99.0597
  0
LINE
  8
0
 10
-0.956696
 20
99.0597
 11
-0.487717
 21
99.202
  0
LINE
  8
0
 10
-0.487717
 20
99.202
 11
0
 21
99.25
  0
LINE
  8
0
 10
0
 20
99.25
 11
0.487717
 21
99.202
  0
LINE
  8
0
 10
0.487717
 20
99.202
 11
0.956696
 21
99.0597
  0
LINE
  8
0
 10
0.956696
 20
99.0597
 11
1.38892
 21
98.8287
  0
LINE
  8
0
 10
1.38892
 20
98.8287
 11
1.76776
 21
98.5178
  0
LINE
  8
0
 10
1.76776
 20
98.5178
 11
2.07866
 21
98.1389
  0
LINE
  8
0
 10
2.07866
 20
98.1389
 11
2.30969
 21
97.7067
  0
LINE
  8
0
 10
2.30969
 20
97.7067
 11
2.45195
 21
97.2377
  0
LINE
  8
0
 10
2.45195
 20
97.2377
 11
2.5
 21
96.75
  0
LINE
  8
0
 10
2.5
 20
96.75
 11
2.45195
 21
96.2623
  0
LINE
  8
0
 10
2.45195
 20
96.2623
 11
2.30969
 21
95.7933
  0
LINE
  8
0
 10
2.30969
 20
95.7933
 11
2.07866
 21
95.3611
  0
LINE
  8
0
 10
2.07866
 20
95.3611
 11
1.76776
 21
94.9822
  0
LINE
  8
0
 10
1.76776
 20
94.9822
 11
1.38892
 21
94.6713
  0
LINE
  8
0
 10
1.38892
 20
94.6713
 11
0.956696
 21
94.4403
  0
LINE
  8
0
 10
0.956696
 20
94.4403
 11
0.487717
 21
94.298
  0
LINE
  8
0
 10
0.487717
 20
94.298
 11
0
 21
94.25
  0
LINE
  8
0
 10
-59.95
 20
55.05
 11
-59.95
 21
84.95
  0
LINE
  8
0
 10
-59.95
 20
84.95
 11
-53.55
 21
84.95
  0
LINE
  8
0
 10
-53.55
 20
84.95
 11
-53.55
 21
55.05
  0
LINE
  8
0
 10
-53.55
 20
55.05
 11
-59.95
 21
55.05
  0
LINE
  8
0
 10
53.55
 20
55.05
 11
53.55
 21
84.95
  0
LINE
  8
0
 10
53.55
 20
84.95
 11
59.95
 21
84.95
  0
LINE
  8
0
 10
59.95
 20
84.95
 11
59.95
 21
55.05
  0
LINE
  8
0
 10
59.95
 20
55.05
 11
53.55
 21
55.05
  0
LINE
  8
0
 10
-90.4877
 20
67.548
 11
-90.9567
 21
67.6903
  0
LINE
  8
0
 10
-90.9567
 20
67.6903
 11
-91.3889
 21
67.9213
  0
LINE
  8
0
 10
-91.3889
 20
67.9213
 11
-91.7678
 21
68.2322
  0
LINE
  8
0
 10
-91.7678
 20
68.2322
 11
-92.0787
 21
68.6111
  0
LINE
  8
0
 10
-92.0787
 20
68.6111
 11
-92.3097
 21
69.0433
  0
LINE
  8
0
 10
-92.3097
 20
69.0433
 11
-92.452
 21
69.5123
  0
LINE
  8
0
 10
-92.452
 20
69.5123
 11
-92.5
 21
70
  0
LINE
  8
0
 10
-92.5
 20
70
 11
-92.452
 21
70.4877
  0
LINE
  8
0
 10
-92.452
 20
70.4877
 11
-92.3097
 21
70.9567
  0
LINE
  8
0
 10
-92.3097
 20
70.9567
 11
-92.0787
 21
71.3889
  0
LINE
  8
0
 10
-92.0787
 20
71.3889
 11
-91.7678
 21
71.7678
  0
LINE
  8
0
 10
-91.7678
 20
71.7678
 11
-91.3889
 21
72.0787
  0
LINE
  8
0
 10
-91.3889
 20
72.0787
 11
-90.9567
 21
72.3097
  0
LINE
  8
0
 10
-90.9567
 20
72.3097
 11
-90.4877
 21
72.452
  0
LINE
  8
0
 10
-90.4877
 20
72.452
 11
-90
 21
72.5
  0
LINE
  8
0
 10
-90
 20
72.5
 11
-89.5123
 21
72.452
  0
LINE
  8
0
 10
-89.5123
 20
72.452
 11
-89.0433
 21
72.3097
  0
LINE
  8
0
 10
-89.0433
 20
72.3097
 11
-88.6111
 21
72.0787
  0
LINE
  8
0
 10
-88.6111
 20
72.0787
 11
-88.2322
 21
71.7678
  0
LINE
  8
0
 10
-88.2322
 20
71.7678
 11
-87.9213
 21
71.3889
  0
LINE
  8
0
 10
-87.9213
 20
71.3889
 11
-87.6903
 21
70.9567
  0
LINE
  8
0
 10
-87.6903
 20
70.9567
 11
-87.548
 21
70.4877
  0
LINE
  8
0
 10
-87.548
 20
70.4877
 11
-87.5
 21
70
  0
LINE
  8
0
 10
-87.5
 20
70
 11
-87.548
 21
69.5123
  0
LINE
  8
0
 10
-87.548
 20
69.5123
 11
-87.6903
 21
69.0433
  0
LINE
  8
0
 10
-87.6903
 20
69.0433
 11
-87.9213
 21
68.6111
  0
LINE
  8
0
 10
-87.9213
 20
68.6111
 11
-88.2322
 21
68.2322
  0
LINE
  8
0
 10
-88.2322
 20
68.2322
 11
-88.6111
 21
67.9213
  0
LINE
  8
0
 10
-88.6111
 20
67.9213
 11
-89.0433
 21
67.6903
  0
LINE
  8
0
 10
-89.0433
 20
67.6903
 11
-89.5123
 21
67.548
  0
LINE
  8
0
 10
-89.5123
 20
67.548
 11
-90
 21
67.5
  0
LINE
  8
0
 10
-90
 20
67.5
 11
-90.4877
 21
67.548
  0
LINE
  8
0
 10
89.5123
 20
67.548
 11
89.0433
 21
67.6903
  0
LINE
  8
0
 10
89.0433
 20
67.6903
 11
88.6111
 21
67.9213
  0
LINE
  8
0
 10
88.6111
 20
67.9213
 11
88.2322
 21
68.2322
  0
LINE
  8
0
 10
88.2322
 20
68.2322
 11
87.9213
 21
68.6111
  0
LINE
  8
0
 10
87.9213
 20
68.6111
 11
87.6903
 21
69.0433
  0
LINE
  8
0
 10
87.6903
 20
69.0433
 11
87.548
 21
69.5123
  0
LINE
  8
0
 10
87.548
 20
69.5123
 11
87.5
 21
70
  0
LINE
  8
0
 10
87.5
 20
70
 11
87.548
 21
70.4877
  0
LINE
  8
0
 10
87.548
 20
70.4877
 11
87.6903
 21
70.9567
  0
LINE
  8
0
 10
87.6903
 20
70.9567
 11
87.9213
 21
71.3889
  0
LINE
  8
0
 10
87.9213
 20
71.3889
 11
88.2322
 21
71.7678
  0
LINE
  8
0
 10
88.2322
 20
71.7678
 11
88.6111
 21
72.0787
  0
LINE
  8
0
 10
88.6111
 20
72.0787
 11
89.0433
 21
72.3097
  0
LINE
  8
0
 10
89.0433
 20
72.3097
 11
89.5123
 21
72.452
  0
LINE
  8
0
 10
89.5123
 20
72.452
 11
90
 21
72.5
  0
LINE
  8
0
 10
90
 20
72.5
 11
90.4877
 21
72.452
  0
LINE
  8
0
 10
90.4877
 20
72.452
 11
90.9567
 21
72.3097
  0
LINE
  8
0
 10
90.9567
 20
72.3097
 11
91.3889
 21
72.0787
  0
LINE
  8
0
 10
91.3889
 20
72.0787
 11
91.7678
 21
71.7678
  0
LINE
  8
0
 10
91.7678
 20
71.7678
 11
92.0787
 21
71.3889
  0
LINE
  8
0
 10
92.0787
 20
71.3889
 11
92.3097
 21
70.9567
  0
LINE
  8
0
 10
92.3097
 20
70.9567
 11
92.452
 21
70.4877
  0
LINE
  8
0
 10
92.452
 20
70.4877
 11
92.5
 21
70
  0
LINE
  8
0
 10
92.5
 20
70
 11
92.452
 21
69.5123
  0
LINE
  8
0
 10
92.452
 20
69.5123
 11
92.3097
 21
69.0433
  0
LINE
  8
0
 10
92.3097
 20
69.0433
 11
92.0787
 21
68.6111
  0
LINE
  8
0
 10
92.0787
 20
68.6111
 11
91.7678
 21
68.2322
  0
LINE
  8
0
 10
91.7678
 20
68.2322
 11
91.3889
 21
67.9213
  0
LINE
  8
0
 10
91.3889
 20
67.9213
 11
90.9567
 21
67.6903
  0
LINE
  8
0
 10
90.9567
 20
67.6903
 11
90.4877
 21
67.548
  0
LINE
  8
0
 10
90.4877
 20
67.548
 11
90
 21
67.5
  0
LINE
  8
0
 10
90
 20
67.5
 11
89.5123
 21
67.548
  0
LINE
  8
0
 10
-57.2377
 20
37.548
 11
-57.7067
 21
37.6903
  0
LINE
  8
0
 10
-57.7067
 20
37.6903
 11
-58.1389
 21
37.9213
  0
LINE
  8
0
 10
-58.1389
 20
37.9213
 11
-58.5178
 21
38.2322
  0
LINE
  8
0
 10
-58.5178
 20
38.2322
 11
-58.8287
 21
38.6111
  0
LINE
  8
0
 10
-58.8287
 20
38.6111
 11
-59.0597
 21
39.0433
  0
LINE
  8
0
 10
-59.0597
 20
39.0433
 11
-59.202
 21
39.5123
  0
LINE
  8
0
 10
-59.202
 20
39.5123
 11
-59.25
 21
40
  0
LINE
  8
0
 10
-59.25
 20
40
 11
-59.202
 21
40.4877
  0
LINE
  8
0
 10
-59.202
 20
40.4877
 11
-59.0597
 21
40.9567
  0
LINE
  8
0
 10
-59.0597
 20
40.9567
 11
-58.8287
 21
41.3889
  0
LINE
  8
0
 10
-58.8287
 20
41.3889
 11
-58.5178
 21
41.7678
  0
LINE
  8
0
 10
-58.5178
 20
41.7678
 11
-58.1389
 21
42.0787
  0
LINE
  8
0
 10
-58.1389
 20
42.0787
 11
-57.7067
 21
42.3097
  0
LINE
  8
0
 10
-57.7067
 20
42.3097
 11
-57.2377
 21
42.452
  0
LINE
  8
0
 10
-57.2377
 20
42.452
 11
-56.75
 21
42.5
  0
LINE
  8
0
 10
-56.75
 20
42.5
 11
-56.2623
 21
42.452
  0
LINE
  8
0
 10
-56.2623
 20
42.452
 11
-55.7933
 21
42.3097
  0
LINE
  8
0
 10
-55.7933
 20
42.3097
 11
-55.3611
 21
42.0787
  0
LINE
  8
0
 10
-55.3611
 20
42.0787
 11
-54.9822
 21
41.7678
  0
LINE
  8
0
 10
-54.9822
 20
41.7678
 11
-54.6713
 21
41.3889
  0
LINE
  8
0
 10
-54.6713
 20
41.3889
 11
-54.4403
 21
40.9567
  0
LINE
  8
0
 10
-54.4403
 20
40.9567
 11
-54.298
 21
40.4877
  0
LINE
  8
0
 10
-54.298
 20
40.4877
 11
-54.25
 21
40
  0
LINE
  8
0
 10
-54.25
 20
40
 11
-54.298
 21
39.5123
  0
LINE
  8
0
 10
-54.298
 20
39.5123
 11
-54.4403
 21
39.0433
  0
LINE
  8
0
 10
-54.4403
 20
39.0433
 11
-54.6713
 21
38.6111
  0
LINE
  8
0
 10
-54.6713
 20
38.6111
 11
-54.9822
 21
38.2322
  0
LINE
  8
0
 10
-54.9822
 20
38.2322
 11
-55.3611
 21
37.9213
  0
LINE
  8
0
 10
-55.3611
 20
37.9213
 11
-55.7933
 21
37.6903
  0
LINE
  8
0
 10
-55.7933
 20
37.6903
 11
-56.2623
 21
37.548
  0
LINE
  8
0
 10
-56.2623
 20
37.548
 11
-56.75
 21
37.5
  0
LINE
  8
0
 10
-56.75
 20
37.5
 11
-57.2377
 21
37.548
  0
LINE
  8
0
 10
56.2623
 20
37.548
 11
55.7933
 21
37.6903
  0
LINE
  8
0
 10
55.7933
 20
37.6903
 11
55.3611
 21
37.9213
  0
LINE
  8
0
 10
55.3611
 20
37.9213
 11
54.9822
 21
38.2322
  0
LINE
  8
0
 10
54.9822
 20
38.2322
 11
54.6713
 21
38.6111
  0
LINE
  8
0
 10
54.6713
 20
38.6111
 11
54.4403
 21
39.0433
  0
LINE
  8
0
 10
54.4403
 20
39.0433
 11
54.298
 21
39.5123
  0
LINE
  8
0
 10
54.298
 20
39.5123
 11
54.25
 21
40
  0
LINE
  8
0
 10
54.25
 20
40
 11
54.298
 21
40.4877
  0
LINE
  8
0
 10
54.298
 20
40.4877
 11
54.4403
 21
40.9567
  0
LINE
  8
0
 10
54.4403
 20
40.9567
 11
54.6713
 21
41.3889
  0
LINE
  8
0
 10
54.6713
 20
41.3889
 11
54.9822
 21
41.7678
  0
LINE
  8
0
 10
54.9822
 20
41.7678
 11
55.3611
 21
42.0787
  0
LINE
  8
0
 10
55.3611
 20
42.0787
 11
55.7933
 21
42.3097
  0
LINE
  8
0
 10
55.7933
 20
42.3097
 11
56.2623
 21
42.452
  0
LINE
  8
0
 10
56.2623
 20
42.452
 11
56.75
 21
42.5
  0
LINE
  8
0
 10
56.75
 20
42.5
 11
57.2377
 21
42.452
  0
LINE
  8
0
 10
57.2377
 20
42.452
 11
57.7067
 21
42.3097
  0
LINE
  8
0
 10
57.7067
 20
42.3097
 11
58.1389
 21
42.0787
  0
LINE
  8
0
 10
58.1389
 20
42.0787
 11
58.5178
 21
41.7678
  0
LINE
  8
0
 10
58.5178
 20
41.7678
 11
58.8287
 21
41.3889
  0
LINE
  8
0
 10
58.8287
 20
41.3889
 11
59.0597
 21
40.9567
  0
LINE
  8
0
 10
59.0597
 20
40.9567
 11
59.202
 21
40.4877
  0
LINE
  8
0
 10
59.202
 20
40.4877
 11
59.25
 21
40
  0
LINE
  8
0
 10
59.25
 20
40
 11
59.202
 21
39.5123
  0
LINE
  8
0
 10
59.202
 20
39.5123
 11
59.0597
 21
39.0433
  0
LINE
  8
0
 10
59.0597
 20
39.0433
 11
58.8287
 21
38.6111
  0
LINE
  8
0
 10
58.8287
 20
38.6111
 11
58.5178
 21
38.2322
  0
LINE
  8
0
 10
58.5178
 20
38.2322
 11
58.1389
 21
37.9213
  0
LINE
  8
0
 10
58.1389
 20
37.9213
 11
57.7067
 21
37.6903
  0
LINE
  8
0
 10
57.7067
 20
37.6903
 11
57.2377
 21
37.548
  0
LINE
  8
0
 10
57.2377
 20
37.548
 11
56.75
 21
37.5
  0
LINE
  8
0
 10
56.75
 20
37.5
 11
56.2623
 21
37.548
  0
LINE
  8
0
 10
-150.499
 20
-35.9963
 11
-150.998
 21
-35.9853
  0
LINE
  8
0
 10
-150.998
 20
-35.9853
 11
-151.497
 21
-35.967
  0
LINE
  8
0
 10
-151.497
 20
-35.967
 11
-151.995
 21
-35.9414
  0
LINE
  8
0
 10
-151.995
 20
-35.9414
 11
-152.493
 21
-35.9084
  0
LINE
  8
0
 10
-152.493
 20
-35.9084
 11
-152.991
 21
-35.8682
  0
LINE
  8
0
 10
-152.991
 20
-35.8682
 11
-153.488
 21
-35.8206
  0
LINE
  8
0
 10
-153.488
 20
-35.8206
 11
-153.984
 21
-35.7658
  0
LINE
  8
0
 10
-153.984
 20
-35.7658
 11
-154.479
 21
-35.7037
  0
LINE
  8
0
 10
-154.479
 20
-35.7037
 11
-154.973
 21
-35.6343
  0
LINE
  8
0
 10
-154.973
 20
-35.6343
 11
-155.467
 21
-35.5576
  0
LINE
  8
0
 10
-155.467
 20
-35.5576
 11
-155.959
 21
-35.4738
  0
LINE
  8
0
 10
-155.959
 20
-35.4738
 11
-156.449
 21
-35.3827
  0
LINE
  8
0
 10
-156.449
 20
-35.3827
 11
-156.939
 21
-35.2844
  0
LINE
  8
0
 10
-156.939
 20
-35.2844
 11
-157.427
 21
-35.179
  0
LINE
  8
0
 10
-157.427
 20
-35.179
 11
-157.913
 21
-35.0664
  0
LINE
  8
0
 10
-157.913
 20
-35.0664
 11
-158.397
 21
-34.9467
  0
LINE
  8
0
 10
-158.397
 20
-34.9467
 11
-158.88
 21
-34.8198
  0
LINE
  8
0
 10
-158.88
 20
-34.8198
 11
-159.361
 21
-34.6859
  0
LINE
  8
0
 10
-159.361
 20
-34.6859
 11
-159.84
 21
-34.545
  0
LINE
  8
0
 10
-159.84
 20
-34.545
 11
-160.317
 21
-34.397
  0
LINE
  8
0
 10
-160.317
 20
-34.397
 11
-160.791
 21
-34.2421
  0
LINE
  8
0
 10
-160.791
 20
-34.2421
 11
-161.263
 21
-34.0802
  0
LINE
  8
0
 10
-161.263
 20
-34.0802
 11
-161.733
 21
-33.9114
  0
LINE
  8
0
 10
-161.733
 20
-33.9114
 11
-162.2
 21
-33.7358
  0
LINE
  8
0
 10
-162.2
 20
-33.7358
 11
-162.665
 21
-33.5533
  0
LINE
  8
0
 10
-162.665
 20
-33.5533
 11
-163.126
 21
-33.3639
  0
LINE
  8
0
 10
-163.126
 20
-33.3639
 11
-163.585
 21
-33.1679
  0
LINE
  8
0
 10
-163.585
 20
-33.1679
 11
-164.042
 21
-32.9651
  0
LINE
  8
0
 10
-164.042
 20
-32.9651
 11
-164.495
 21
-32.7556
  0
LINE
  8
0
 10
-164.495
 20
-32.7556
 11
-164.944
 21
-32.5395
  0
LINE
  8
0
 10
-164.944
 20
-32.5395
 11
-165.391
 21
-32.3168
  0
LINE
  8
0
 10
-165.391
 20
-32.3168
 11
-165.835
 21
-32.0876
  0
LINE
  8
0
 10
-165.835
 20
-32.0876
 11
-166.275
 21
-31.8519
  0
LINE
  8
0
 10
-166.275
 20
-31.8519
 11
-166.711
 21
-31.6098
  0
LINE
  8
0
 10
-166.711
 20
-31.6098
 11
-167.144
 21
-31.3613
  0
LINE
  8
0
 10
-167.144
 20
-31.3613
 11
-167.573
 21
-31.1065
  0
LINE
  8
0
 10
-167.573
 20
-31.1065
 11
-167.998
 21
-30.8454
  0
LINE
  8
0
 10
-167.998
 20
-30.8454
 11
-168.42
 21
-30.578
  0
LINE
  8
0
 10
-168.42
 20
-30.578
 11
-168.837
 21
-30.3046
  0
LINE
  8
0
 10
-168.837
 20
-30.3046
 11
-169.251
 21
-30.025
  0
LINE
  8
0
 10
-169.251
 20
-30.025
 11
-169.66
 21
-29.7394
  0
LINE
  8
0
 10
-169.66
 20
-29.7394
 11
-170.065
 21
-29.4478
  0
LINE
  8
0
 10
-170.065
 20
-29.4478
 11
-170.466
 21
-29.1503
  0
LINE
  8
0
 10
-170.466
 20
-29.1503
 11
-170.862
 21
-28.8469
  0
LINE
  8
0
 10
-170.862
 20
-28.8469
 11
-171.254
 21
-28.5378
  0
LINE
  8
0
 10
-171.254
 20
-28.5378
 11
-171.642
 21
-28.2229
  0
LINE
  8
0
 10
-171.642
 20
-28.2229
 11
-172.024
 21
-27.9024
  0
LINE
  8
0
 10
-172.024
 20
-27.9024
 11
-172.402
 21
-27.5762
  0
LINE
  8
0
 10
-172.402
 20
-27.5762
 11
-172.775
 21
-27.2446
  0
LINE
  8
0
 10
-172.775
 20
-27.2446
 11
-173.143
 21
-26.9076
  0
LINE
  8
0
 10
-173.143
 20
-26.9076
 11
-173.506
 21
-26.5652
  0
LINE
  8
0
 10
-173.506
 20
-26.5652
 11
-173.865
 21
-26.2174
  0
LINE
  8
0
 10
-173.865
 20
-26.2174
 11
-174.217
 21
-25.8645
  0
LINE
  8
0
 10
-174.217
 20
-25.8645
 11
-174.565
 21
-25.5064
  0
LINE
  8
0
 10
-174.565
 20
-25.5064
 11
-174.908
 21
-25.1433
  0
LINE
  8
0
 10
-174.908
 20
-25.1433
 11
-175.245
 21
-24.7751
  0
LINE
  8
0
 10
-175.245
 20
-24.7751
 11
-175.576
 21
-24.4021
  0
LINE
  8
0
 10
-175.576
 20
-24.4021
 11
-175.902
 21
-24.0242
  0
LINE
  8
0
 10
-175.902
 20
-24.0242
 11
-176.223
 21
-23.6416
  0
LINE
  8
0
 10
-176.223
 20
-23.6416
 11
-176.538
 21
-23.2543
  0
LINE
  8
0
 10
-176.538
 20
-23.2543
 11
-176.847
 21
-22.8625
  0
LINE
  8
0
 10
-176.847
 20
-22.8625
 11
-177.15
 21
-22.4661
  0
LINE
  8
0
 10
-177.15
 20
-22.4661
 11
-177.448
 21
-22.0654
  0
LINE
  8
0
 10
-177.448
 20
-22.0654
 11
-177.739
 21
-21.6603
  0
LINE
  8
0
 10
-177.739
 20
-21.6603
 11
-178.025
 21
-21.2509
  0
LINE
  8
0
 10
-178.025
 20
-21.2509
 11
-178.305
 21
-20.8375
  0
LINE
  8
0
 10
-178.305
 20
-20.8375
 11
-178.578
 21
-20.4199
  0
LINE
  8
0
 10
-178.578
 20
-20.4199
 11
-178.845
 21
-19.9984
  0
LINE
  8
0
 10
-178.845
 20
-19.9984
 11
-179.106
 21
-19.573
  0
LINE
  8
0
 10
-179.106
 20
-19.573
 11
-179.361
 21
-19.1439
  0
LINE
  8
0
 10
-179.361
 20
-19.1439
 11
-179.61
 21
-18.711
  0
LINE
  8
0
 10
-179.61
 20
-18.711
 11
-179.852
 21
-18.2745
  0
LINE
  8
0
 10
-179.852
 20
-18.2745
 11
-180.088
 21
-17.8346
  0
LINE
  8
0
 10
-180.088
 20
-17.8346
 11
-180.317
 21
-17.3912
  0
LINE
  8
0
 10
-180.317
 20
-17.3912
 11
-180.54
 21
-16.9445
  0
LINE
  8
0
 10
-180.54
 20
-16.9445
 11
-180.756
 21
-16.4946
  0
LINE
  8
0
 10
-180.756
 20
-16.4946
 11
-180.965
 21
-16.0415
  0
LINE
  8
0
 10
-180.965
 20
-16.0415
 11
-181.168
 21
-15.5854
  0
LINE
  8
0
 10
-181.168
 20
-15.5854
 11
-181.364
 21
-15.1264
  0
LINE
  8
0
 10
-181.364
 20
-15.1264
 11
-181.553
 21
-14.6646
  0
LINE
  8
0
 10
-181.553
 20
-14.6646
 11
-181.736
 21
-14.2
  0
LINE
  8
0
 10
-181.736
 20
-14.2
 11
-181.911
 21
-13.7328
  0
LINE
  8
0
 10
-181.911
 20
-13.7328
 11
-182.08
 21
-13.2631
  0
LINE
  8
0
 10
-182.08
 20
-13.2631
 11
-182.242
 21
-12.791
  0
LINE
  8
0
 10
-182.242
 20
-12.791
 11
-182.397
 21
-12.3165
  0
LINE
  8
0
 10
-182.397
 20
-12.3165
 11
-182.545
 21
-11.8398
  0
LINE
  8
0
 10
-182.545
 20
-11.8398
 11
-182.686
 21
-11.361
  0
LINE
  8
0
 10
-182.686
 20
-11.361
 11
-182.82
 21
-10.8802
  0
LINE
  8
0
 10
-182.82
 20
-10.8802
 11
-182.947
 21
-10.3974
  0
LINE
  8
0
 10
-182.947
 20
-10.3974
 11
-183.066
 21
-9.91287
  0
LINE
  8
0
 10
-183.066
 20
-9.91287
 11
-183.179
 21
-9.42661
  0
LINE
  8
0
 10
-183.179
 20
-9.42661
 11
-183.284
 21
-8.93874
  0
LINE
  8
0
 10
-183.284
 20
-8.93874
 11
-183.383
 21
-8.44939
  0
LINE
  8
0
 10
-183.383
 20
-8.44939
 11
-183.474
 21
-7.95863
  0
LINE
  8
0
 10
-183.474
 20
-7.95863
 11
-183.558
 21
-7.46661
  0
LINE
  8
0
 10
-183.558
 20
-7.46661
 11
-183.634
 21
-6.9734
  0
LINE
  8
0
 10
-183.634
 20
-6.9734
 11
-183.704
 21
-6.47911
  0
LINE
  8
0
 10
-183.704
 20
-6.47911
 11
-183.766
 21
-5.98387
  0
LINE
  8
0
 10
-183.766
 20
-5.98387
 11
-183.821
 21
-5.48776
  0
LINE
  8
0
 10
-183.821
 20
-5.48776
 11
-183.868
 21
-4.99091
  0
LINE
  8
0
 10
-183.868
 20
-4.99091
 11
-183.908
 21
-4.49341
  0
LINE
  8
0
 10
-183.908
 20
-4.49341
 11
-183.941
 21
-3.99538
  0
LINE
  8
0
 10
-183.941
 20
-3.99538
 11
-183.967
 21
-3.4969
  0
LINE
  8
0
 10
-183.967
 20
-3.4969
 11
-183.985
 21
-2.99811
  0
LINE
  8
0
 10
-183.985
 20
-2.99811
 11
-183.996
 21
-2.4991
  0
LINE
  8
0
 10
-183.996
 20
-2.4991
 11
-184
 21
-2
  0
LINE
  8
0
 10
-184
 20
-2
 11
-183.996
 21
-1.50089
  0
LINE
  8
0
 10
-183.996
 20
-1.50089
 11
-183.985
 21
-1.00188
  0
LINE
  8
0
 10
-183.985
 20
-1.00188
 11
-183.967
 21
-0.503082
  0
LINE
  8
0
 10
-183.967
 20
-0.503082
 11
-183.941
 21
-0.00460815
  0
LINE
  8
0
 10
-183.941
 20
-0.00460815
 11
-183.908
 21
0.493408
  0
LINE
  8
0
 10
-183.908
 20
0.493408
 11
-183.868
 21
0.990906
  0
LINE
  8
0
 10
-183.868
 20
0.990906
 11
-183.821
 21
1.48776
  0
LINE
  8
0
 10
-183.821
 20
1.48776
 11
-183.766
 21
1.98387
  0
LINE
  8
0
 10
-183.766
 20
1.98387
 11
-183.704
 21
2.47911
  0
LINE
  8
0
 10
-183.704
 20
2.47911
 11
-183.634
 21
2.9734
  0
LINE
  8
0
 10
-183.634
 20
2.9734
 11
-183.558
 21
3.46661
  0
LINE
  8
0
 10
-183.558
 20
3.46661
 11
-183.474
 21
3.95863
  0
LINE
  8
0
 10
-183.474
 20
3.95863
 11
-183.383
 21
4.44939
  0
LINE
  8
0
 10
-183.383
 20
4.44939
 11
-183.284
 21
4.93874
  0
LINE
  8
0
 10
-183.284
 20
4.93874
 11
-183.179
 21
5.42661
  0
LINE
  8
0
 10
-183.179
 20
5.42661
 11
-183.066
 21
5.91287
  0
LINE
  8
0
 10
-183.066
 20
5.91287
 11
-182.947
 21
6.39742
  0
LINE
  8
0
 10
-182.947
 20
6.39742
 11
-182.82
 21
6.88017
  0
LINE
  8
0
 10
-182.82
 20
6.88017
 11
-182.686
 21
7.36099
  0
LINE
  8
0
 10
-182.686
 20
7.36099
 11
-182.545
 21
7.83981
  0
LINE
  8
0
 10
-182.545
 20
7.83981
 11
-182.397
 21
8.31651
  0
LINE
  8
0
 10
-182.397
 20
8.31651
 11
-182.242
 21
8.79099
  0
LINE
  8
0
 10
-182.242
 20
8.79099
 11
-182.08
 21
9.26312
  0
LINE
  8
0
 10
-182.08
 20
9.26312
 11
-181.911
 21
9.73285
  0
LINE
  8
0
 10
-181.911
 20
9.73285
 11
-181.736
 21
10.2
  0
LINE
  8
0
 10
-181.736
 20
10.2
 11
-181.553
 21
10.6646
  0
LINE
  8
0
 10
-181.553
 20
10.6646
 11
-181.364
 21
11.1264
  0
LINE
  8
0
 10
-181.364
 20
11.1264
 11
-181.168
 21
11.5854
  0
LINE
  8
0
 10
-181.168
 20
11.5854
 11
-180.965
 21
12.0415
  0
LINE
  8
0
 10
-180.965
 20
12.0415
 11
-180.756
 21
12.4946
  0
LINE
  8
0
 10
-180.756
 20
12.4946
 11
-180.54
 21
12.9445
  0
LINE
  8
0
 10
-180.54
 20
12.9445
 11
-180.317
 21
13.3912
  0
LINE
  8
0
 10
-180.317
 20
13.3912
 11
-180.088
 21
13.8346
  0
LINE
  8
0
 10
-180.088
 20
13.8346
 11
-179.852
 21
14.2745
  0
LINE
  8
0
 10
-179.852
 20
14.2745
 11
-179.61
 21
14.711
  0
LINE
  8
0
 10
-179.61
 20
14.711
 11
-179.361
 21
15.1439
  0
LINE
  8
0
 10
-179.361
 20
15.1439
 11
-179.106
 21
15.573
  0
LINE
  8
0
 10
-179.106
 20
15.573
 11
-178.845
 21
15.9984
  0
LINE
  8
0
 10
-178.845
 20
15.9984
 11
-178.578
 21
16.4199
  0
LINE
  8
0
 10
-178.578
 20
16.4199
 11
-178.305
 21
16.8375
  0
LINE
  8
0
 10
-178.305
 20
16.8375
 11
-178.025
 21
17.2509
  0
LINE
  8
0
 10
-178.025
 20
17.2509
 11
-177.739
 21
17.6603
  0
LINE
  8
0
 10
-177.739
 20
17.6603
 11
-177.448
 21
18.0654
  0
LINE
  8
0
 10
-177.448
 20
18.0654
 11
-177.15
 21
18.4661
  0
LINE
  8
0
 10
-177.15
 20
18.4661
 11
-176.847
 21
18.8625
  0
LINE
  8
0
 10
-176.847
 20
18.8625
 11
-176.538
 21
19.2543
  0
LINE
  8
0
 10
-176.538
 20
19.2543
 11
-176.223
 21
19.6416
  0
LINE
  8
0
 10
-176.223
 20
19.6416
 11
-175.902
 21
20.0242
  0
LINE
  8
0
 10
-175.902
 20
20.0242
 11
-175.576
 21
20.4021
  0
LINE
  8
0
 10
-175.576
 20
20.4021
 11
-175.245
 21
20.7751
  0
LINE
  8
0
 10
-175.245
 20
20.7751
 11
-174.908
 21
21.1433
  0
LINE
  8
0
 10
-174.908
 20
21.1433
 11
-174.565
 21
21.5064
  0
LINE
  8
0
 10
-174.565
 20
21.5064
 11
-174.217
 21
21.8645
  0
LINE
  8
0
 10
-174.217
 20
21.8645
 11
-173.865
 21
22.2174
  0
LINE
  8
0
 10
-173.865
 20
22.2174
 11
-173.506
 21
22.5652
  0
LINE
  8
0
 10
-173.506
 20
22.5652
 11
-173.143
 21
22.9076
  0
LINE
  8
0
 10
-173.143
 20
22.9076
 11
-172.775
 21
23.2446
  0
LINE
  8
0
 10
-172.775
 20
23.2446
 11
-172.402
 21
23.5762
  0
LINE
  8
0
 10
-172.402
 20
23.5762
 11
-172.024
 21
23.9024
  0
LINE
  8
0
 10
-172.024
 20
23.9024
 11
-171.642
 21
24.2229
  0
LINE
  8
0
 10
-171.642
 20
24.2229
 11
-171.254
 21
24.5378
  0
LINE
  8
0
 10
-171.254
 20
24.5378
 11
-170.862
 21
24.8469
  0
LINE
  8
0
 10
-170.862
 20
24.8469
 11
-170.466
 21
25.1503
  0
LINE
  8
0
 10
-170.466
 20
25.1503
 11
-170.065
 21
25.4478
  0
LINE
  8
0
 10
-170.065
 20
25.4478
 11
-169.66
 21
25.7394
  0
LINE
  8
0
 10
-169.66
 20
25.7394
 11
-169.251
 21
26.025
  0
LINE
  8
0
 10
-169.251
 20
26.025
 11
-168.837
 21
26.3046
  0
LINE
  8
0
 10
-168.837
 20
26.3046
 11
-168.42
 21
26.578
  0
LINE
  8
0
 10
-168.42
 20
26.578
 11
-167.998
 21
26.8454
  0
LINE
  8
0
 10
-167.998
 20
26.8454
 11
-167.573
 21
27.1065
  0
LINE
  8
0
 10
-167.573
 20
27.1065
 11
-167.144
 21
27.3613
  0
LINE
  8
0
 10
-167.144
 20
27.3613
 11
-166.711
 21
27.6098
  0
LINE
  8
0
 10
-166.711
 20
27.6098
 11
-166.275
 21
27.8519
  0
LINE
  8
0
 10
-166.275
 20
27.8519
 11
-165.835
 21
28.0876
  0
LINE
  8
0
 10
-165.835
 20
28.0876
 11
-165.391
 21
28.3168
  0
LINE
  8
0
 10
-165.391
 20
28.3168
 11
-164.944
 21
28.5395
  0
LINE
  8
0
 10
-164.944
 20
28.5395
 11
-164.495
 21
28.7556
  0
LINE
  8
0
 10
-164.495
 20
28.7556
 11
-164.042
 21
28.9651
  0
LINE
  8
0
 10
-164.042
 20
28.9651
 11
-163.585
 21
29.1679
  0
LINE
  8
0
 10
-163.585
 20
29.1679
 11
-163.126
 21
29.3639
  0
LINE
  8
0
 10
-163.126
 20
29.3639
 11
-162.665
 21
29.5533
  0
LINE
  8
0
 10
-162.665
 20
29.5533
 11
-162.2
 21
29.7358
  0
LINE
  8
0
 10
-162.2
 20
29.7358
 11
-161.733
 21
29.9114
  0
LINE
  8
0
 10
-161.733
 20
29.9114
 11
-161.263
 21
30.0802
  0
LINE
  8
0
 10
-161.263
 20
30.0802
 11
-160.791
 21
30.2421
  0
LINE
  8
0
 10
-160.791
 20
30.2421
 11
-160.317
 21
30.397
  0
LINE
  8
0
 10
-160.317
 20
30.397
 11
-159.84
 21
30.545
  0
LINE
  8
0
 10
-159.84
 20
30.545
 11
-159.361
 21
30.6859
  0
LINE
  8
0
 10
-159.361
 20
30.6859
 11
-158.88
 21
30.8198
  0
LINE
  8
0
 10
-158.88
 20
30.8198
 11
-158.397
 21
30.9467
  0
LINE
  8
0
 10
-158.397
 20
30.9467
 11
-157.913
 21
31.0664
  0
LINE
  8
0
 10
-157.913
 20
31.0664
 11
-157.427
 21
31.179
  0
LINE
  8
0
 10
-157.427
 20
31.179
 11
-156.939
 21
31.2844
  0
LINE
  8
0
 10
-156.939
 20
31.2844
 11
-156.449
 21
31.3827
  0
LINE
  8
0
 10
-156.449
 20
31.3827
 11
-155.959
 21
31.4738
  0
LINE
  8
0
 10
-155.959
 20
31.4738
 11
-155.467
 21
31.5576
  0
LINE
  8
0
 10
-155.467
 20
31.5576
 11
-154.973
 21
31.6343
  0
LINE
  8
0
 10
-154.973
 20
31.6343
 11
-154.479
 21
31.7037
  0
LINE
  8
0
 10
-154.479
 20
31.7037
 11
-153.984
 21
31.7658
  0
LINE
  8
0
 10
-153.984
 20
31.7658
 11
-153.488
 21
31.8206
  0
LINE
  8
0
 10
-153.488
 20
31.8206
 11
-152.991
 21
31.8682
  0
LINE
  8
0
 10
-152.991
 20
31.8682
 11
-152.493
 21
31.9084
  0
LINE
  8
0
 10
-152.493
 20
31.9084
 11
-151.995
 21
31.9414
  0
LINE
  8
0
 10
-151.995
 20
31.9414
 11
-151.497
 21
31.967
  0
LINE
  8
0
 10
-151.497
 20
31.967
 11
-150.998
 21
31.9853
  0
LINE
  8
0
 10
-150.998
 20
31.9853
 11
-150.499
 21
31.9963
  0
LINE
  8
0
 10
-150.499
 20
31.9963
 11
-150
 21
32
  0
LINE
  8
0
 10
-150
 20
32
 11
-149.501
 21
31.9963
  0
LINE
  8
0
 10
-149.501
 20
31.9963
 11
-149.002
 21
31.9853
  0
LINE
  8
0
 10
-149.002
 20
31.9853
 11
-148.503
 21
31.967
  0
LINE
  8
0
 10
-148.503
 20
31.967
 11
-148.005
 21
31.9414
  0
LINE
  8
0
 10
-148.005
 20
31.9414
 11
-147.507
 21
31.9084
  0
LINE
  8
0
 10
-147.507
 20
31.9084
 11
-147.009
 21
31.8682
  0
LINE
  8
0
 10
-147.009
 20
31.8682
 11
-146.512
 21
31.8206
  0
LINE
  8
0
 10
-146.512
 20
31.8206
 11
-146.016
 21
31.7658
  0
LINE
  8
0
 10
-146.016
 20
31.7658
 11
-145.521
 21
31.7037
  0
LINE
  8
0
 10
-145.521
 20
31.7037
 11
-145.027
 21
31.6343
  0
LINE
  8
0
 10
-145.027
 20
31.6343
 11
-144.533
 21
31.5576
  0
LINE
  8
0
 10
-144.533
 20
31.5576
 11
-144.041
 21
31.4738
  0
LINE
  8
0
 10
-144.041
 20
31.4738
 11
-143.551
 21
31.3827
  0
LINE
  8
0
 10
-143.551
 20
31.3827
 11
-143.061
 21
31.2844
  0
LINE
  8
0
 10
-143.061
 20
31.2844
 11
-142.573
 21
31.179
  0
LINE
  8
0
 10
-142.573
 20
31.179
 11
-142.087
 21
31.0664
  0
LINE
  8
0
 10
-142.087
 20
31.0664
 11
-141.603
 21
30.9467
  0
LINE
  8
0
 10
-141.603
 20
30.9467
 11
-141.12
 21
30.8198
  0
LINE
  8
0
 10
-141.12
 20
30.8198
 11
-140.639
 21
30.6859
  0
LINE
  8
0
 10
-140.639
 20
30.6859
 11
-140.16
 21
30.545
  0
LINE
  8
0
 10
-140.16
 20
30.545
 11
-139.683
 21
30.397
  0
LINE
  8
0
 10
-139.683
 20
30.397
 11
-139.209
 21
30.2421
  0
LINE
  8
0
 10
-139.209
 20
30.2421
 11
-138.737
 21
30.0802
  0
LINE
  8
0
 10
-138.737
 20
30.0802
 11
-138.267
 21
29.9114
  0
LINE
  8
0
 10
-138.267
 20
29.9114
 11
-137.8
 21
29.7358
  0
LINE
  8
0
 10
-137.8
 20
29.7358
 11
-137.335
 21
29.5533
  0
LINE
  8
0
 10
-137.335
 20
29.5533
 11
-136.874
 21
29.3639
  0
LINE
  8
0
 10
-136.874
 20
29.3639
 11
-136.415
 21
29.1679
  0
LINE
  8
0
 10
-136.415
 20
29.1679
 11
-135.958
 21
28.9651
  0
LINE
  8
0
 10
-135.958
 20
28.9651
 11
-135.505
 21
28.7556
  0
LINE
  8
0
 10
-135.505
 20
28.7556
 11
-135.056
 21
28.5395
  0
LINE
  8
0
 10
-135.056
 20
28.5395
 11
-134.609
 21
28.3168
  0
LINE
  8
0
 10
-134.609
 20
28.3168
 11
-134.165
 21
28.0876
  0
LINE
  8
0
 10
-134.165
 20
28.0876
 11
-133.725
 21
27.8519
  0
LINE
  8
0
 10
-133.725
 20
27.8519
 11
-133.289
 21
27.6098
  0
LINE
  8
0
 10
-133.289
 20
27.6098
 11
-132.856
 21
27.3613
  0
LINE
  8
0
 10
-132.856
 20
27.3613
 11
-132.427
 21
27.1065
  0
LINE
  8
0
 10
-132.427
 20
27.1065
 11
-132.002
 21
26.8454
  0
LINE
  8
0
 10
-132.002
 20
26.8454
 11
-131.58
 21
26.578
  0
LINE
  8
0
 10
-131.58
 20
26.578
 11
-131.163
 21
26.3046
  0
LINE
  8
0
 10
-131.163
 20
26.3046
 11
-130.749
 21
26.025
  0
LINE
  8
0
 10
-130.749
 20
26.025
 11
-130.34
 21
25.7394
  0
LINE
  8
0
 10
-130.34
 20
25.7394
 11
-129.935
 21
25.4478
  0
LINE
  8
0
 10
-129.935
 20
25.4478
 11
-129.534
 21
25.1503
  0
LINE
  8
0
 10
-129.534
 20
25.1503
 11
-129.138
 21
24.8469
  0
LINE
  8
0
 10
-129.138
 20
24.8469
 11
-128.746
 21
24.5378
  0
LINE
  8
0
 10
-128.746
 20
24.5378
 11
-128.358
 21
24.2229
  0
LINE
  8
0
 10
-128.358
 20
24.2229
 11
-127.976
 21
23.9024
  0
LINE
  8
0
 10
-127.976
 20
23.9024
 11
-127.598
 21
23.5762
  0
LINE
  8
0
 10
-127.598
 20
23.5762
 11
-127.225
 21
23.2446
  0
LINE
  8
0
 10
-127.225
 20
23.2446
 11
-126.857
 21
22.9076
  0
LINE
  8
0
 10
-126.857
 20
22.9076
 11
-126.494
 21
22.5652
  0
LINE
  8
0
 10
-126.494
 20
22.5652
 11
-126.135
 21
22.2174
  0
LINE
  8
0
 10
-126.135
 20
22.2174
 11
-125.783
 21
21.8645
  0
LINE
  8
0
 10
-125.783
 20
21.8645
 11
-125.435
 21
21.5064
  0
LINE
  8
0
 10
-125.435
 20
21.5064
 11
-125.092
 21
21.1433
  0
LINE
  8
0
 10
-125.092
 20
21.1433
 11
-124.755
 21
20.7751
  0
LINE
  8
0
 10
-124.755
 20
20.7751
 11
-124.424
 21
20.4021
  0
LINE
  8
0
 10
-124.424
 20
20.4021
 11
-124.098
 21
20.0242
  0
LINE
  8
0
 10
-124.098
 20
20.0242
 11
-123.777
 21
19.6416
  0
LINE
  8
0
 10
-123.777
 20
19.6416
 11
-123.462
 21
19.2543
  0
LINE
  8
0
 10
-123.462
 20
19.2543
 11
-123.153
 21
18.8625
  0
LINE
  8
0
 10
-123.153
 20
18.8625
 11
-122.85
 21
18.4661
  0
LINE
  8
0
 10
-122.85
 20
18.4661
 11
-122.552
 21
18.0654
  0
LINE
  8
0
 10
-122.552
 20
18.0654
 11
-122.261
 21
17.6603
  0
LINE
  8
0
 10
-122.261
 20
17.6603
 11
-121.975
 21
17.2509
  0
LINE
  8
0
 10
-121.975
 20
17.2509
 11
-121.695
 21
16.8375
  0
LINE
  8
0
 10
-121.695
 20
16.8375
 11
-121.422
 21
16.4199
  0
LINE
  8
0
 10
-121.422
 20
16.4199
 11
-121.155
 21
15.9984
  0
LINE
  8
0
 10
-121.155
 20
15.9984
 11
-120.894
 21
15.573
  0
LINE
  8
0
 10
-120.894
 20
15.573
 11
-120.639
 21
15.1439
  0
LINE
  8
0
 10
-120.639
 20
15.1439
 11
-120.39
 21
14.711
  0
LINE
  8
0
 10
-120.39
 20
14.711
 11
-120.148
 21
14.2745
  0
LINE
  8
0
 10
-120.148
 20
14.2745
 11
-119.912
 21
13.8346
  0
LINE
  8
0
 10
-119.912
 20
13.8346
 11
-119.683
 21
13.3912
  0
LINE
  8
0
 10
-119.683
 20
13.3912
 11
-119.46
 21
12.9445
  0
LINE
  8
0
 10
-119.46
 20
12.9445
 11
-119.244
 21
12.4946
  0
LINE
  8
0
 10
-119.244
 20
12.4946
 11
-119.035
 21
12.0415
  0
LINE
  8
0
 10
-119.035
 20
12.0415
 11
-118.832
 21
11.5854
  0
LINE
  8
0
 10
-118.832
 20
11.5854
 11
-118.636
 21
11.1264
  0
LINE
  8
0
 10
-118.636
 20
11.1264
 11
-118.447
 21
10.6646
  0
LINE
  8
0
 10
-118.447
 20
10.6646
 11
-118.264
 21
10.2
  0
LINE
  8
0
 10
-118.264
 20
10.2
 11
-118.089
 21
9.73285
  0
LINE
  8
0
 10
-118.089
 20
9.73285
 11
-117.92
 21
9.26312
  0
LINE
  8
0
 10
-117.92
 20
9.26312
 11
-117.758
 21
8.79099
  0
LINE
  8
0
 10
-117.758
 20
8.79099
 11
-117.603
 21
8.31651
  0
LINE
  8
0
 10
-117.603
 20
8.31651
 11
-117.455
 21
7.83981
  0
LINE
  8
0
 10
-117.455
 20
7.83981
 11
-117.314
 21
7.36099
  0
LINE
  8
0
 10
-117.314
 20
7.36099
 11
-117.18
 21
6.88017
  0
LINE
  8
0
 10
-117.18
 20
6.88017
 11
-117.053
 21
6.39742
  0
LINE
  8
0
 10
-117.053
 20
6.39742
 11
-116.934
 21
5.91287
  0
LINE
  8
0
 10
-116.934
 20
5.91287
 11
-116.821
 21
5.42661
  0
LINE
  8
0
 10
-116.821
 20
5.42661
 11
-116.716
 21
4.93874
  0
LINE
  8
0
 10
-116.716
 20
4.93874
 11
-116.617
 21
4.44939
  0
LINE
  8
0
 10
-116.617
 20
4.44939
 11
-116.526
 21
3.95863
  0
LINE
  8
0
 10
-116.526
 20
3.95863
 11
-116.442
 21
3.46661
  0
LINE
  8
0
 10
-116.442
 20
3.46661
 11
-116.366
 21
2.9734
  0
LINE
  8
0
 10
-116.366
 20
2.9734
 11
-116.296
 21
2.47911
  0
LINE
  8
0
 10
-116.296
 20
2.47911
 11
-116.234
 21
1.98387
  0
LINE
  8
0
 10
-116.234
 20
1.98387
 11
-116.179
 21
1.48776
  0
LINE
  8
0
 10
-116.179
 20
1.48776
 11
-116.132
 21
0.990906
  0
LINE
  8
0
 10
-116.132
 20
0.990906
 11
-116.092
 21
0.493408
  0
LINE
  8
0
 10
-116.092
 20
0.493408
 11
-116.059
 21
-0.00460815
  0
LINE
  8
0
 10
-116.059
 20
-0.00460815
 11
-116.033
 21
-0.503082
  0
LINE
  8
0
 10
-116.033
 20
-0.503082
 11
-116.015
 21
-1.00188
  0
LINE
  8
0
 10
-116.015
 20
-1.00188
 11
-116.004
 21
-1.50089
  0
LINE
  8
0
 10
-116.004
 20
-1.50089
 11
-116
 21
-1.99998
  0
LINE
  8
0
 10
-116
 20
-1.99998
 11
-116.004
 21
-2.4991
  0
LINE
  8
0
 10
-116.004
 20
-2.4991
 11
-116.015
 21
-2.99811
  0
LINE
  8
0
 10
-116.015
 20
-2.99811
 11
-116.033
 21
-3.4969
  0
LINE
  8
0
 10
-116.033
 20
-3.4969
 11
-116.059
 21
-3.99538
  0
LINE
  8
0
 10
-116.059
 20
-3.99538
 11
-116.092
 21
-4.49341
  0
LINE
  8
0
 10
-116.092
 20
-4.49341
 11
-116.132
 21
-4.99091
  0
LINE
  8
0
 10
-116.132
 20
-4.99091
 11
-116.179
 21
-5.48776
  0
LINE
  8
0
 10
-116.179
 20
-5.48776
 11
-116.234
 21
-5.98387
  0
LINE
  8
0
 10
-116.234
 20
-5.98387
 11
-116.296
 21
-6.47911
  0
LINE
  8
0
 10
-116.296
 20
-6.47911
 11
-116.366
 21
-6.9734
  0
LINE
  8
0
 10
-116.366
 20
-6.9734
 11
-116.442
 21
-7.46661
  0
LINE
  8
0
 10
-116.442
 20
-7.46661
 11
-116.526
 21
-7.95863
  0
LINE
  8
0
 10
-116.526
 20
-7.95863
 11
-116.617
 21
-8.44939
  0
LINE
  8
0
 10
-116.617
 20
-8.44939
 11
-116.716
 21
-8.93874
  0
LINE
  8
0
 10
-116.716
 20
-8.93874
 11
-116.821
 21
-9.42661
  0
LINE
  8
0
 10
-116.821
 20
-9.42661
 11
-116.934
 21
-9.91287
  0
LINE
  8
0
 10
-116.934
 20
-9.91287
 11
-117.053
 21
-10.3974
  0
LINE
  8
0
 10
-117.053
 20
-10.3974
 11
-117.18
 21
-10.8802
  0
LINE
  8
0
 10
-117.18
 20
-10.8802
 11
-117.314
 21
-11.361
  0
LINE
  8
0
 10
-117.314
 20
-11.361
 11
-117.455
 21
-11.8398
  0
LINE
  8
0
 10
-117.455
 20
-11.8398
 11
-117.603
 21
-12.3165
  0
LINE
  8
0
 10
-117.603
 20
-12.3165
 11
-117.758
 21
-12.791
  0
LINE
  8
0
 10
-117.758
 20
-12.791
 11
-117.92
 21
-13.2631
  0
LINE
  8
0
 10
-117.92
 20
-13.2631
 11
-118.089
 21
-13.7328
  0
LINE
  8
0
 10
-118.089
 20
-13.7328
 11
-118.264
 21
-14.2
  0
LINE
  8
0
 10
-118.264
 20
-14.2
 11
-118.447
 21
-14.6646
  0
LINE
  8
0
 10
-118.447
 20
-14.6646
 11
-118.636
 21
-15.1264
  0
LINE
  8
0
 10
-118.636
 20
-15.1264
 11
-118.832
 21
-15.5854
  0
LINE
  8
0
 10
-118.832
 20
-15.5854
 11
-119.035
 21
-16.0415
  0
LINE
  8
0
 10
-119.035
 20
-16.0415
 11
-119.244
 21
-16.4946
  0
LINE
  8
0
 10
-119.244
 20
-16.4946
 11
-119.46
 21
-16.9445
  0
LINE
  8
0
 10
-119.46
 20
-16.9445
 11
-119.683
 21
-17.3912
  0
LINE
  8
0
 10
-119.683
 20
-17.3912
 11
-119.912
 21
-17.8346
  0
LINE
  8
0
 10
-119.912
 20
-17.8346
 11
-120.148
 21
-18.2745
  0
LINE
  8
0
 10
-120.148
 20
-18.2745
 11
-120.39
 21
-18.711
  0
LINE
  8
0
 10
-120.39
 20
-18.711
 11
-120.639
 21
-19.1439
  0
LINE
  8
0
 10
-120.639
 20
-19.1439
 11
-120.894
 21
-19.573
  0
LINE
  8
0
 10
-120.894
 20
-19.573
 11
-121.155
 21
-19.9984
  0
LINE
  8
0
 10
-121.155
 20
-19.9984
 11
-121.422
 21
-20.4199
  0
LINE
  8
0
 10
-121.422
 20
-20.4199
 11
-121.695
 21
-20.8375
  0
LINE
  8
0
 10
-121.695
 20
-20.8375
 11
-121.975
 21
-21.2509
  0
LINE
  8
0
 10
-121.975
 20
-21.2509
 11
-122.261
 21
-21.6603
  0
LINE
  8
0
 10
-122.261
 20
-21.6603
 11
-122.552
 21
-22.0654
  0
LINE
  8
0
 10
-122.552
 20
-22.0654
 11
-122.85
 21
-22.4661
  0
LINE
  8
0
 10
-122.85
 20
-22.4661
 11
-123.153
 21
-22.8625
  0
LINE
  8
0
 10
-123.153
 20
-22.8625
 11
-123.462
 21
-23.2543
  0
LINE
  8
0
 10
-123.462
 20
-23.2543
 11
-123.777
 21
-23.6416
  0
LINE
  8
0
 10
-123.777
 20
-23.6416
 11
-124.098
 21
-24.0242
  0
LINE
  8
0
 10
-124.098
 20
-24.0242
 11
-124.424
 21
-24.4021
  0
LINE
  8
0
 10
-124.424
 20
-24.4021
 11
-124.755
 21
-24.7751
  0
LINE
  8
0
 10
-124.755
 20
-24.7751
 11
-125.092
 21
-25.1433
  0
LINE
  8
0
 10
-125.092
 20
-25.1433
 11
-125.435
 21
-25.5064
  0
LINE
  8
0
 10
-125.435
 20
-25.5064
 11
-125.783
 21
-25.8645
  0
LINE
  8
0
 10
-125.783
 20
-25.8645
 11
-126.135
 21
-26.2174
  0
LINE
  8
0
 10
-126.135
 20
-26.2174
 11
-126.494
 21
-26.5652
  0
LINE
  8
0
 10
-126.494
 20
-26.5652
 11
-126.857
 21
-26.9076
  0
LINE
  8
0
 10
-126.857
 20
-26.9076
 11
-127.225
 21
-27.2446
  0
LINE
  8
0
 10
-127.225
 20
-27.2446
 11
-127.598
 21
-27.5762
  0
LINE
  8
0
 10
-127.598
 20
-27.5762
 11
-127.976
 21
-27.9024
  0
LINE
  8
0
 10
-127.976
 20
-27.9024
 11
-128.358
 21
-28.2229
  0
LINE
  8
0
 10
-128.358
 20
-28.2229
 11
-128.746
 21
-28.5378
  0
LINE
  8
0
 10
-128.746
 20
-28.5378
 11
-129.138
 21
-28.8469
  0
LINE
  8
0
 10
-129.138
 20
-28.8469
 11
-129.534
 21
-29.1503
  0
LINE
  8
0
 10
-129.534
 20
-29.1503
 11
-129.935
 21
-29.4478
  0
LINE
  8
0
 10
-129.935
 20
-29.4478
 11
-130.34
 21
-29.7394
  0
LINE
  8
0
 10
-130.34
 20
-29.7394
 11
-130.749
 21
-30.025
  0
LINE
  8
0
 10
-130.749
 20
-30.025
 11
-131.163
 21
-30.3046
  0
LINE
  8
0
 10
-131.163
 20
-30.3046
 11
-131.58
 21
-30.578
  0
LINE
  8
0
 10
-131.58
 20
-30.578
 11
-132.002
 21
-30.8454
  0
LINE
  8
0
 10
-132.002
 20
-30.8454
 11
-132.427
 21
-31.1065
  0
LINE
  8
0
 10
-132.427
 20
-31.1065
 11
-132.856
 21
-31.3613
  0
LINE
  8
0
 10
-132.856
 20
-31.3613
 11
-133.289
 21
-31.6098
  0
LINE
  8
0
 10
-133.289
 20
-31.6098
 11
-133.725
 21
-31.8519
  0
LINE
  8
0
 10
-133.725
 20
-31.8519
 11
-134.165
 21
-32.0876
  0
LINE
  8
0
 10
-134.165
 20
-32.0876
 11
-134.609
 21
-32.3168
  0
LINE
  8
0
 10
-134.609
 20
-32.3168
 11
-135.056
 21
-32.5395
  0
LINE
  8
0
 10
-135.056
 20
-32.5395
 11
-135.505
 21
-32.7556
  0
LINE
  8
0
 10
-135.505
 20
-32.7556
 11
-135.958
 21
-32.9651
  0
LINE
  8
0
 10
-135.958
 20
-32.9651
 11
-136.415
 21
-33.1679
  0
LINE
  8
0
 10
-136.415
 20
-33.1679
 11
-136.874
 21
-33.3639
  0
LINE
  8
0
 10
-136.874
 20
-33.3639
 11
-137.335
 21
-33.5533
  0
LINE
  8
0
 10
-137.335
 20
-33.5533
 11
-137.8
 21
-33.7358
  0
LINE
  8
0
 10
-137.8
 20
-33.7358
 11
-138.267
 21
-33.9114
  0
LINE
  8
0
 10
-138.267
 20
-33.9114
 11
-138.737
 21
-34.0802
  0
LINE
  8
0
 10
-138.737
 20
-34.0802
 11
-139.209
 21
-34.2421
  0
LINE
  8
0
 10
-139.209
 20
-34.2421
 11
-139.683
 21
-34.397
  0
LINE
  8
0
 10
-139.683
 20
-34.397
 11
-140.16
 21
-34.545
  0
LINE
  8
0
 10
-140.16
 20
-34.545
 11
-140.639
 21
-34.6859
  0
LINE
  8
0
 10
-140.639
 20
-34.6859
 11
-141.12
 21
-34.8198
  0
LINE
  8
0
 10
-141.12
 20
-34.8198
 11
-141.603
 21
-34.9467
  0
LINE
  8
0
 10
-141.603
 20
-34.9467
 11
-142.087
 21
-35.0664
  0
LINE
  8
0
 10
-142.087
 20
-35.0664
 11
-142.573
 21
-35.179
  0
LINE
  8
0
 10
-142.573
 20
-35.179
 11
-143.061
 21
-35.2844
  0
LINE
  8
0
 10
-143.061
 20
-35.2844
 11
-143.551
 21
-35.3827
  0
LINE
  8
0
 10
-143.551
 20
-35.3827
 11
-144.041
 21
-35.4738
  0
LINE
  8
0
 10
-144.041
 20
-35.4738
 11
-144.533
 21
-35.5576
  0
LINE
  8
0
 10
-144.533
 20
-35.5576
 11
-145.027
 21
-35.6343
  0
LINE
  8
0
 10
-145.027
 20
-35.6343
 11
-145.521
 21
-35.7037
  0
LINE
  8
0
 10
-145.521
 20
-35.7037
 11
-146.016
 21
-35.7658
  0
LINE
  8
0
 10
-146.016
 20
-35.7658
 11
-146.512
 21
-35.8206
  0
LINE
  8
0
 10
-146.512
 20
-35.8206
 11
-147.009
 21
-35.8682
  0
LINE
  8
0
 10
-147.009
 20
-35.8682
 11
-147.507
 21
-35.9084
  0
LINE
  8
0
 10
-147.507
 20
-35.9084
 11
-148.005
 21
-35.9414
  0
LINE
  8
0
 10
-148.005
 20
-35.9414
 11
-148.503
 21
-35.967
  0
LINE
  8
0
 10
-148.503
 20
-35.967
 11
-149.002
 21
-35.9853
  0
LINE
  8
0
 10
-149.002
 20
-35.9853
 11
-149.501
 21
-35.9963
  0
LINE
  8
0
 10
-149.501
 20
-35.9963
 11
-150
 21
-36
  0
LINE
  8
0
 10
-150
 20
-36
 11
-150.499
 21
-35.9963
  0
LINE
  8
0
 10
149.501
 20
-35.9963
 11
149.002
 21
-35.9853
  0
LINE
  8
0
 10
149.002
 20
-35.9853
 11
148.503
 21
-35.967
  0
LINE
  8
0
 10
148.503
 20
-35.967
 11
148.005
 21
-35.9414
  0
LINE
  8
0
 10
148.005
 20
-35.9414
 11
147.507
 21
-35.9084
  0
LINE
  8
0
 10
147.507
 20
-35.9084
 11
147.009
 21
-35.8682
  0
LINE
  8
0
 10
147.009
 20
-35.8682
 11
146.512
 21
-35.8206
  0
LINE
  8
0
 10
146.512
 20
-35.8206
 11
146.016
 21
-35.7658
  0
LINE
  8
0
 10
146.016
 20
-35.7658
 11
145.521
 21
-35.7037
  0
LINE
  8
0
 10
145.521
 20
-35.7037
 11
145.027
 21
-35.6343
  0
LINE
  8
0
 10
145.027
 20
-35.6343
 11
144.533
 21
-35.5576
  0
LINE
  8
0
 10
144.533
 20
-35.5576
 11
144.041
 21
-35.4738
  0
LINE
  8
0
 10
144.041
 20
-35.4738
 11
143.551
 21
-35.3827
  0
LINE
  8
0
 10
143.551
 20
-35.3827
 11
143.061
 21
-35.2844
  0
LINE
  8
0
 10
143.061
 20
-35.2844
 11
142.573
 21
-35.179
  0
LINE
  8
0
 10
142.573
 20
-35.179
 11
142.087
 21
-35.0664
  0
LINE
  8
0
 10
142.087
 20
-35.0664
 11
141.603
 21
-34.9467
  0
LINE
  8
0
 10
141.603
 20
-34.9467
 11
141.12
 21
-34.8198
  0
LINE
  8
0
 10
141.12
 20
-34.8198
 11
140.639
 21
-34.6859
  0
LINE
  8
0
 10
140.639
 20
-34.6859
 11
140.16
 21
-34.545
  0
LINE
  8
0
 10
140.16
 20
-34.545
 11
139.683
 21
-34.397
  0
LINE
  8
0
 10
139.683
 20
-34.397
 11
139.209
 21
-34.2421
  0
LINE
  8
0
 10
139.209
 20
-34.2421
 11
138.737
 21
-34.0802
  0
LINE
  8
0
 10
138.737
 20
-34.0802
 11
138.267
 21
-33.9114
  0
LINE
  8
0
 10
138.267
 20
-33.9114
 11
137.8
 21
-33.7358
  0
LINE
  8
0
 10
137.8
 20
-33.7358
 11
137.335
 21
-33.5533
  0
LINE
  8
0
 10
137.335
 20
-33.5533
 11
136.874
 21
-33.3639
  0
LINE
  8
0
 10
136.874
 20
-33.3639
 11
136.415
 21
-33.1679
  0
LINE
  8
0
 10
136.415
 20
-33.1679
 11
135.958
 21
-32.9651
  0
LINE
  8
0
 10
135.958
 20
-32.9651
 11
135.505
 21
-32.7556
  0
LINE
  8
0
 10
135.505
 20
-32.7556
 11
135.056
 21
-32.5395
  0
LINE
  8
0
 10
135.056
 20
-32.5395
 11
134.609
 21
-32.3168
  0
LINE
  8
0
 10
134.609
 20
-32.3168
 11
134.165
 21
-32.0876
  0
LINE
  8
0
 10
134.165
 20
-32.0876
 11
133.725
 21
-31.8519
  0
LINE
  8
0
 10
133.725
 20
-31.8519
 11
133.289
 21
-31.6098
  0
LINE
  8
0
 10
133.289
 20
-31.6098
 11
132.856
 21
-31.3613
  0
LINE
  8
0
 10
132.856
 20
-31.3613
 11
132.427
 21
-31.1065
  0
LINE
  8
0
 10
132.427
 20
-31.1065
 11
132.002
 21
-30.8454
  0
LINE
  8
0
 10
132.002
 20
-30.8454
 11
131.58
 21
-30.578
  0
LINE
  8
0
 10
131.58
 20
-30.578
 11
131.163
 21
-30.3046
  0
LINE
  8
0
 10
131.163
 20
-30.3046
 11
130.749
 21
-30.025
  0
LINE
  8
0
 10
130.749
 20
-30.025
 11
130.34
 21
-29.7394
  0
LINE
  8
0
 10
130.34
 20
-29.7394
 11
129.935
 21
-29.4478
  0
LINE
  8
0
 10
129.935
 20
-29.4478
 11
129.534
 21
-29.1503
  0
LINE
  8
0
 10
129.534
 20
-29.1503
 11
129.138
 21
-28.8469
  0
LINE
  8
0
 10
129.138
 20
-28.8469
 11
128.746
 21
-28.5378
  0
LINE
  8
0
 10
128.746
 20
-28.5378
 11
128.358
 21
-28.2229
  0
LINE
  8
0
 10
128.358
 20
-28.2229
 11
127.976
 21
-27.9024
  0
LINE
  8
0
 10
127.976
 20
-27.9024
 11
127.598
 21
-27.5762
  0
LINE
  8
0
 10
127.598
 20
-27.5762
 11
127.225
 21
-27.2446
  0
LINE
  8
0
 10
127.225
 20
-27.2446
 11
126.857
 21
-26.9076
  0
LINE
  8
0
 10
126.857
 20
-26.9076
 11
126.494
 21
-26.5652
  0
LINE
  8
0
 10
126.494
 20
-26.5652
 11
126.135
 21
-26.2174
  0
LINE
  8
0
 10
126.135
 20
-26.2174
 11
125.783
 21
-25.8645
  0
LINE
  8
0
 10
125.783
 20
-25.8645
 11
125.435
 21
-25.5064
  0
LINE
  8
0
 10
125.435
 20
-25.5064
 11
125.092
 21
-25.1433
  0
LINE
  8
0
 10
125.092
 20
-25.1433
 11
124.755
 21
-24.7751
  0
LINE
  8
0
 10
124.755
 20
-24.7751
 11
124.424
 21
-24.4021
  0
LINE
  8
0
 10
124.424
 20
-24.4021
 11
124.098
 21
-24.0242
  0
LINE
  8
0
 10
124.098
 20
-24.0242
 11
123.777
 21
-23.6416
  0
LINE
  8
0
 10
123.777
 20
-23.6416
 11
123.462
 21
-23.2543
  0
LINE
  8
0
 10
123.462
 20
-23.2543
 11
123.153
 21
-22.8625
  0
LINE
  8
0
 10
123.153
 20
-22.8625
 11
122.85
 21
-22.4661
  0
LINE
  8
0
 10
122.85
 20
-22.4661
 11
122.552
 21
-22.0654
  0
LINE
  8
0
 10
122.552
 20
-22.0654
 11
122.261
 21
-21.6603
  0
LINE
  8
0
 10
122.261
 20
-21.6603
 11
121.975
 21
-21.2509
  0
LINE
  8
0
 10
121.975
 20
-21.2509
 11
121.695
 21
-20.8375
  0
LINE
  8
0
 10
121.695
 20
-20.8375
 11
121.422
 21
-20.4199
  0
LINE
  8
0
 10
121.422
 20
-20.4199
 11
121.155
 21
-19.9984
  0
LINE
  8
0
 10
121.155
 20
-19.9984
 11
120.894
 21
-19.573
  0
LINE
  8
0
 10
120.894
 20
-19.573
 11
120.639
 21
-19.1439
  0
LINE
  8
0
 10
120.639
 20
-19.1439
 11
120.39
 21
-18.711
  0
LINE
  8
0
 10
120.39
 20
-18.711
 11
120.148
 21
-18.2745
  0
LINE
  8
0
 10
120.148
 20
-18.2745
 11
119.912
 21
-17.8346
  0
LINE
  8
0
 10
119.912
 20
-17.8346
 11
119.683
 21
-17.3912
  0
LINE
  8
0
 10
119.683
 20
-17.3912
 11
119.46
 21
-16.9445
  0
LINE
  8
0
 10
119.46
 20
-16.9445
 11
119.244
 21
-16.4946
  0
LINE
  8
0
 10
119.244
 20
-16.4946
 11
119.035
 21
-16.0415
  0
LINE
  8
0
 10
119.035
 20
-16.0415
 11
118.832
 21
-15.5854
  0
LINE
  8
0
 10
118.832
 20
-15.5854
 11
118.636
 21
-15.1264
  0
LINE
  8
0
 10
118.636
 20
-15.1264
 11
118.447
 21
-14.6646
  0
LINE
  8
0
 10
118.447
 20
-14.6646
 11
118.264
 21
-14.2
  0
LINE
  8
0
 10
118.264
 20
-14.2
 11
118.089
 21
-13.7328
  0
LINE
  8
0
 10
118.089
 20
-13.7328
 11
117.92
 21
-13.2631
  0
LINE
  8
0
 10
117.92
 20
-13.2631
 11
117.758
 21
-12.791
  0
LINE
  8
0
 10
117.758
 20
-12.791
 11
117.603
 21
-12.3165
  0
LINE
  8
0
 10
117.603
 20
-12.3165
 11
117.455
 21
-11.8398
  0
LINE
  8
0
 10
117.455
 20
-11.8398
 11
117.314
 21
-11.361
  0
LINE
  8
0
 10
117.314
 20
-11.361
 11
117.18
 21
-10.8802
  0
LINE
  8
0
 10
117.18
 20
-10.8802
 11
117.053
 21
-10.3974
  0
LINE
  8
0
 10
117.053
 20
-10.3974
 11
116.934
 21
-9.91287
  0
LINE
  8
0
 10
116.934
 20
-9.91287
 11
116.821
 21
-9.42661
  0
LINE
  8
0
 10
116.821
 20
-9.42661
 11
116.716
 21
-8.93874
  0
LINE
  8
0
 10
116.716
 20
-8.93874
 11
116.617
 21
-8.44939
  0
LINE
  8
0
 10
116.617
 20
-8.44939
 11
116.526
 21
-7.95863
  0
LINE
  8
0
 10
116.526
 20
-7.95863
 11
116.442
 21
-7.46661
  0
LINE
  8
0
 10
116.442
 20
-7.46661
 11
116.366
 21
-6.9734
  0
LINE
  8
0
 10
116.366
 20
-6.9734
 11
116.296
 21
-6.47911
  0
LINE
  8
0
 10
116.296
 20
-6.47911
 11
116.234
 21
-5.98387
  0
LINE
  8
0
 10
116.234
 20
-5.98387
 11
116.179
 21
-5.48776
  0
LINE
  8
0
 10
116.179
 20
-5.48776
 11
116.132
 21
-4.99091
  0
LINE
  8
0
 10
116.132
 20
-4.99091
 11
116.092
 21
-4.49341
  0
LINE
  8
0
 10
116.092
 20
-4.49341
 11
116.059
 21
-3.99538
  0
LINE
  8
0
 10
116.059
 20
-3.99538
 11
116.033
 21
-3.4969
  0
LINE
  8
0
 10
116.033
 20
-3.4969
 11
116.015
 21
-2.99811
  0
LINE
  8
0
 10
116.015
 20
-2.99811
 11
116.004
 21
-2.4991
  0
LINE
  8
0
 10
116.004
 20
-2.4991
 11
116
 21
-1.99998
  0
LINE
  8
0
 10
116
 20
-1.99998
 11
116.004
 21
-1.50089
  0
LINE
  8
0
 10
116.004
 20
-1.50089
 11
116.015
 21
-1.00188
  0
LINE
  8
0
 10
116.015
 20
-1.00188
 11
116.033
 21
-0.503082
  0
LINE
  8
0
 10
116.033
 20
-0.503082
 11
116.059
 21
-0.00460815
  0
LINE
  8
0
 10
116.059
 20
-0.00460815
 11
116.092
 21
0.493408
  0
LINE
  8
0
 10
116.092
 20
0.493408
 11
116.132
 21
0.990906
  0
LINE
  8
0
 10
116.132
 20
0.990906
 11
116.179
 21
1.48776
  0
LINE
  8
0
 10
116.179
 20
1.48776
 11
116.234
 21
1.98387
  0
LINE
  8
0
 10
116.234
 20
1.98387
 11
116.296
 21
2.47911
  0
LINE
  8
0
 10
116.296
 20
2.47911
 11
116.366
 21
2.9734
  0
LINE
  8
0
 10
116.366
 20
2.9734
 11
116.442
 21
3.46661
  0
LINE
  8
0
 10
116.442
 20
3.46661
 11
116.526
 21
3.95863
  0
LINE
  8
0
 10
116.526
 20
3.95863
 11
116.617
 21
4.44939
  0
LINE
  8
0
 10
116.617
 20
4.44939
 11
116.716
 21
4.93874
  0
LINE
  8
0
 10
116.716
 20
4.93874
 11
116.821
 21
5.42661
  0
LINE
  8
0
 10
116.821
 20
5.42661
 11
116.934
 21
5.91287
  0
LINE
  8
0
 10
116.934
 20
5.91287
 11
117.053
 21
6.39742
  0
LINE
  8
0
 10
117.053
 20
6.39742
 11
117.18
 21
6.88017
  0
LINE
  8
0
 10
117.18
 20
6.88017
 11
117.314
 21
7.36099
  0
LINE
  8
0
 10
117.314
 20
7.36099
 11
117.455
 21
7.83981
  0
LINE
  8
0
 10
117.455
 20
7.83981
 11
117.603
 21
8.31651
  0
LINE
  8
0
 10
117.603
 20
8.31651
 11
117.758
 21
8.79099
  0
LINE
  8
0
 10
117.758
 20
8.79099
 11
117.92
 21
9.26312
  0
LINE
  8
0
 10
117.92
 20
9.26312
 11
118.089
 21
9.73285
  0
LINE
  8
0
 10
118.089
 20
9.73285
 11
118.264
 21
10.2
  0
LINE
  8
0
 10
118.264
 20
10.2
 11
118.447
 21
10.6646
  0
LINE
  8
0
 10
118.447
 20
10.6646
 11
118.636
 21
11.1264
  0
LINE
  8
0
 10
118.636
 20
11.1264
 11
118.832
 21
11.5854
  0
LINE
  8
0
 10
118.832
 20
11.5854
 11
119.035
 21
12.0415
  0
LINE
  8
0
 10
119.035
 20
12.0415
 11
119.244
 21
12.4946
  0
LINE
  8
0
 10
119.244
 20
12.4946
 11
119.46
 21
12.9445
  0
LINE
  8
0
 10
119.46
 20
12.9445
 11
119.683
 21
13.3912
  0
LINE
  8
0
 10
119.683
 20
13.3912
 11
119.912
 21
13.8346
  0
LINE
  8
0
 10
119.912
 20
13.8346
 11
120.148
 21
14.2745
  0
LINE
  8
0
 10
120.148
 20
14.2745
 11
120.39
 21
14.711
  0
LINE
  8
0
 10
120.39
 20
14.711
 11
120.639
 21
15.1439
  0
LINE
  8
0
 10
120.639
 20
15.1439
 11
120.894
 21
15.573
  0
LINE
  8
0
 10
120.894
 20
15.573
 11
121.155
 21
15.9984
  0
LINE
  8
0
 10
121.155
 20
15.9984
 11
121.422
 21
16.4199
  0
LINE
  8
0
 10
121.422
 20
16.4199
 11
121.695
 21
16.8375
  0
LINE
  8
0
 10
121.695
 20
16.8375
 11
121.975
 21
17.2509
  0
LINE
  8
0
 10
121.975
 20
17.2509
 11
122.261
 21
17.6603
  0
LINE
  8
0
 10
122.261
 20
17.6603
 11
122.552
 21
18.0654
  0
LINE
  8
0
 10
122.552
 20
18.0654
 11
122.85
 21
18.4661
  0
LINE
  8
0
 10
122.85
 20
18.4661
 11
123.153
 21
18.8625
  0
LINE
  8
0
 10
123.153
 20
18.8625
 11
123.462
 21
19.2543
  0
LINE
  8
0
 10
123.462
 20
19.2543
 11
123.777
 21
19.6416
  0
LINE
  8
0
 10
123.777
 20
19.6416
 11
124.098
 21
20.0242
  0
LINE
  8
0
 10
124.098
 20
20.0242
 11
124.424
 21
20.4021
  0
LINE
  8
0
 10
124.424
 20
20.4021
 11
124.755
 21
20.7751
  0
LINE
  8
0
 10
124.755
 20
20.7751
 11
125.092
 21
21.1433
  0
LINE
  8
0
 10
125.092
 20
21.1433
 11
125.435
 21
21.5064
  0
LINE
  8
0
 10
125.435
 20
21.5064
 11
125.783
 21
21.8645
  0
LINE
  8
0
 10
125.783
 20
21.8645
 11
126.135
 21
22.2174
  0
LINE
  8
0
 10
126.135
 20
22.2174
 11
126.494
 21
22.5652
  0
LINE
  8
0
 10
126.494
 20
22.5652
 11
126.857
 21
22.9076
  0
LINE
  8
0
 10
126.857
 20
22.9076
 11
127.225
 21
23.2446
  0
LINE
  8
0
 10
127.225
 20
23.2446
 11
127.598
 21
23.5762
  0
LINE
  8
0
 10
127.598
 20
23.5762
 11
127.976
 21
23.9024
  0
LINE
  8
0
 10
127.976
 20
23.9024
 11
128.358
 21
24.2229
  0
LINE
  8
0
 10
128.358
 20
24.2229
 11
128.746
 21
24.5378
  0
LINE
  8
0
 10
128.746
 20
24.5378
 11
129.138
 21
24.8469
  0
LINE
  8
0
 10
129.138
 20
24.8469
 11
129.534
 21
25.1503
  0
LINE
  8
0
 10
129.534
 20
25.1503
 11
129.935
 21
25.4478
  0
LINE
  8
0
 10
129.935
 20
25.4478
 11
130.34
 21
25.7394
  0
LINE
  8
0
 10
130.34
 20
25.7394
 11
130.749
 21
26.025
  0
LINE
  8
0
 10
130.749
 20
26.025
 11
131.163
 21
26.3046
  0
LINE
  8
0
 10
131.163
 20
26.3046
 11
131.58
 21
26.578
  0
LINE
  8
0
 10
131.58
 20
26.578
 11
132.002
 21
26.8454
  0
LINE
  8
0
 10
132.002
 20
26.8454
 11
132.427
 21
27.1065
  0
LINE
  8
0
 10
132.427
 20
27.1065
 11
132.856
 21
27.3613
  0
LINE
  8
0
 10
132.856
 20
27.3613
 11
133.289
 21
27.6098
  0
LINE
  8
0
 10
133.289
 20
27.6098
 11
133.725
 21
27.8519
  0
LINE
  8
0
 10
133.725
 20
27.8519
 11
134.165
 21
28.0876
  0
LINE
  8
0
 10
134.165
 20
28.0876
 11
134.609
 21
28.3168
  0
LINE
  8
0
 10
134.609
 20
28.3168
 11
135.056
 21
28.5395
  0
LINE
  8
0
 10
135.056
 20
28.5395
 11
135.505
 21
28.7556
  0
LINE
  8
0
 10
135.505
 20
28.7556
 11
135.958
 21
28.9651
  0
LINE
  8
0
 10
135.958
 20
28.9651
 11
136.415
 21
29.1679
  0
LINE
  8
0
 10
136.415
 20
29.1679
 11
136.874
 21
29.3639
  0
LINE
  8
0
 10
136.874
 20
29.3639
 11
137.335
 21
29.5533
  0
LINE
  8
0
 10
137.335
 20
29.5533
 11
137.8
 21
29.7358
  0
LINE
  8
0
 10
137.8
 20
29.7358
 11
138.267
 21
29.9114
  0
LINE
  8
0
 10
138.267
 20
29.9114
 11
138.737
 21
30.0802
  0
LINE
  8
0
 10
138.737
 20
30.0802
 11
139.209
 21
30.2421
  0
LINE
  8
0
 10
139.209
 20
30.2421
 11
139.683
 21
30.397
  0
LINE
  8
0
 10
139.683
 20
30.397
 11
140.16
 21
30.545
  0
LINE
  8
0
 10
140.16
 20
30.545
 11
140.639
 21
30.6859
  0
LINE
  8
0
 10
140.639
 20
30.6859
 11
141.12
 21
30.8198
  0
LINE
  8
0
 10
141.12
 20
30.8198
 11
141.603
 21
30.9467
  0
LINE
  8
0
 10
141.603
 20
30.9467
 11
142.087
 21
31.0664
  0
LINE
  8
0
 10
142.087
 20
31.0664
 11
142.573
 21
31.179
  0
LINE
  8
0
 10
142.573
 20
31.179
 11
143.061
 21
31.2844
  0
LINE
  8
0
 10
143.061
 20
31.2844
 11
143.551
 21
31.3827
  0
LINE
  8
0
 10
143.551
 20
31.3827
 11
144.041
 21
31.4738
  0
LINE
  8
0
 10
144.041
 20
31.4738
 11
144.533
 21
31.5576
  0
LINE
  8
0
 10
144.533
 20
31.5576
 11
145.027
 21
31.6343
  0
LINE
  8
0
 10
145.027
 20
31.6343
 11
145.521
 21
31.7037
  0
LINE
  8
0
 10
145.521
 20
31.7037
 11
146.016
 21
31.7658
  0
LINE
  8
0
 10
146.016
 20
31.7658
 11
146.512
 21
31.8206
  0
LINE
  8
0
 10
146.512
 20
31.8206
 11
147.009
 21
31.8682
  0
LINE
  8
0
 10
147.009
 20
31.8682
 11
147.507
 21
31.9084
  0
LINE
  8
0
 10
147.507
 20
31.9084
 11
148.005
 21
31.9414
  0
LINE
  8
0
 10
148.005
 20
31.9414
 11
148.503
 21
31.967
  0
LINE
  8
0
 10
148.503
 20
31.967
 11
149.002
 21
31.9853
  0
LINE
  8
0
 10
149.002
 20
31.9853
 11
149.501
 21
31.9963
  0
LINE
  8
0
 10
149.501
 20
31.9963
 11
150
 21
32
  0
LINE
  8
0
 10
150
 20
32
 11
150.499
 21
31.9963
  0
LINE
  8
0
 10
150.499
 20
31.9963
 11
150.998
 21
31.9853
  0
LINE
  8
0
 10
150.998
 20
31.9853
 11
151.497
 21
31.967
  0
LINE
  8
0
 10
151.497
 20
31.967
 11
151.995
 21
31.9414
  0
LINE
  8
0
 10
151.995
 20
31.9414
 11
152.493
 21
31.9084
  0
LINE
  8
0
 10
152.493
 20
31.9084
 11
152.991
 21
31.8682
  0
LINE
  8
0
 10
152.991
 20
31.8682
 11
153.488
 21
31.8206
  0
LINE
  8
0
 10
153.488
 20
31.8206
 11
153.984
 21
31.7658
  0
LINE
  8
0
 10
153.984
 20
31.7658
 11
154.479
 21
31.7037
  0
LINE
  8
0
 10
154.479
 20
31.7037
 11
154.973
 21
31.6343
  0
LINE
  8
0
 10
154.973
 20
31.6343
 11
155.467
 21
31.5576
  0
LINE
  8
0
 10
155.467
 20
31.5576
 11
155.959
 21
31.4738
  0
LINE
  8
0
 10
155.959
 20
31.4738
 11
156.449
 21
31.3827
  0
LINE
  8
0
 10
156.449
 20
31.3827
 11
156.939
 21
31.2844
  0
LINE
  8
0
 10
156.939
 20
31.2844
 11
157.427
 21
31.179
  0
LINE
  8
0
 10
157.427
 20
31.179
 11
157.913
 21
31.0664
  0
LINE
  8
0
 10
157.913
 20
31.0664
 11
158.397
 21
30.9467
  0
LINE
  8
0
 10
158.397
 20
30.9467
 11
158.88
 21
30.8198
  0
LINE
  8
0
 10
158.88
 20
30.8198
 11
159.361
 21
30.6859
  0
LINE
  8
0
 10
159.361
 20
30.6859
 11
159.84
 21
30.545
  0
LINE
  8
0
 10
159.84
 20
30.545
 11
160.317
 21
30.397
  0
LINE
  8
0
 10
160.317
 20
30.397
 11
160.791
 21
30.2421
  0
LINE
  8
0
 10
160.791
 20
30.2421
 11
161.263
 21
30.0802
  0
LINE
  8
0
 10
161.263
 20
30.0802
 11
161.733
 21
29.9114
  0
LINE
  8
0
 10
161.733
 20
29.9114
 11
162.2
 21
29.7358
  0
LINE
  8
0
 10
162.2
 20
29.7358
 11
162.665
 21
29.5533
  0
LINE
  8
0
 10
162.665
 20
29.5533
 11
163.126
 21
29.3639
  0
LINE
  8
0
 10
163.126
 20
29.3639
 11
163.585
 21
29.1679
  0
LINE
  8
0
 10
163.585
 20
29.1679
 11
164.042
 21
28.9651
  0
LINE
  8
0
 10
164.042
 20
28.9651
 11
164.495
 21
28.7556
  0
LINE
  8
0
 10
164.495
 20
28.7556
 11
164.944
 21
28.5395
  0
LINE
  8
0
 10
164.944
 20
28.5395
 11
165.391
 21
28.3168
  0
LINE
  8
0
 10
165.391
 20
28.3168
 11
165.835
 21
28.0876
  0
LINE
  8
0
 10
165.835
 20
28.0876
 11
166.275
 21
27.8519
  0
LINE
  8
0
 10
166.275
 20
27.8519
 11
166.711
 21
27.6098
  0
LINE
  8
0
 10
166.711
 20
27.6098
 11
167.144
 21
27.3613
  0
LINE
  8
0
 10
167.144
 20
27.3613
 11
167.573
 21
27.1065
  0
LINE
  8
0
 10
167.573
 20
27.1065
 11
167.998
 21
26.8454
  0
LINE
  8
0
 10
167.998
 20
26.8454
 11
168.42
 21
26.578
  0
LINE
  8
0
 10
168.42
 20
26.578
 11
168.837
 21
26.3046
  0
LINE
  8
0
 10
168.837
 20
26.3046
 11
169.251
 21
26.025
  0
LINE
  8
0
 10
169.251
 20
26.025
 11
169.66
 21
25.7394
  0
LINE
  8
0
 10
169.66
 20
25.7394
 11
170.065
 21
25.4478
  0
LINE
  8
0
 10
170.065
 20
25.4478
 11
170.466
 21
25.1503
  0
LINE
  8
0
 10
170.466
 20
25.1503
 11
170.862
 21
24.8469
  0
LINE
  8
0
 10
170.862
 20
24.8469
 11
171.254
 21
24.5378
  0
LINE
  8
0
 10
171.254
 20
24.5378
 11
171.642
 21
24.2229
  0
LINE
  8
0
 10
171.642
 20
24.2229
 11
172.024
 21
23.9024
  0
LINE
  8
0
 10
172.024
 20
23.9024
 11
172.402
 21
23.5762
  0
LINE
  8
0
 10
172.402
 20
23.5762
 11
172.775
 21
23.2446
  0
LINE
  8
0
 10
172.775
 20
23.2446
 11
173.143
 21
22.9076
  0
LINE
  8
0
 10
173.143
 20
22.9076
 11
173.506
 21
22.5652
  0
LINE
  8
0
 10
173.506
 20
22.5652
 11
173.865
 21
22.2174
  0
LINE
  8
0
 10
173.865
 20
22.2174
 11
174.217
 21
21.8645
  0
LINE
  8
0
 10
174.217
 20
21.8645
 11
174.565
 21
21.5064
  0
LINE
  8
0
 10
174.565
 20
21.5064
 11
174.908
 21
21.1433
  0
LINE
  8
0
 10
174.908
 20
21.1433
 11
175.245
 21
20.7751
  0
LINE
  8
0
 10
175.245
 20
20.7751
 11
175.576
 21
20.4021
  0
LINE
  8
0
 10
175.576
 20
20.4021
 11
175.902
 21
20.0242
  0
LINE
  8
0
 10
175.902
 20
20.0242
 11
176.223
 21
19.6416
  0
LINE
  8
0
 10
176.223
 20
19.6416
 11
176.538
 21
19.2543
  0
LINE
  8
0
 10
176.538
 20
19.2543
 11
176.847
 21
18.8625
  0
LINE
  8
0
 10
176.847
 20
18.8625
 11
177.15
 21
18.4661
  0
LINE
  8
0
 10
177.15
 20
18.4661
 11
177.448
 21
18.0654
  0
LINE
  8
0
 10
177.448
 20
18.0654
 11
177.739
 21
17.6603
  0
LINE
  8
0
 10
177.739
 20
17.6603
 11
178.025
 21
17.2509
  0
LINE
  8
0
 10
178.025
 20
17.2509
 11
178.305
 21
16.8375
  0
LINE
  8
0
 10
178.305
 20
16.8375
 11
178.578
 21
16.4199
  0
LINE
  8
0
 10
178.578
 20
16.4199
 11
178.845
 21
15.9984
  0
LINE
  8
0
 10
178.845
 20
15.9984
 11
179.106
 21
15.573
  0
LINE
  8
0
 10
179.106
 20
15.573
 11
179.361
 21
15.1439
  0
LINE
  8
0
 10
179.361
 20
15.1439
 11
179.61
 21
14.711
  0
LINE
  8
0
 10
179.61
 20
14.711
 11
179.852
 21
14.2745
  0
LINE
  8
0
 10
179.852
 20
14.2745
 11
180.088
 21
13.8346
  0
LINE
  8
0
 10
180.088
 20
13.8346
 11
180.317
 21
13.3912
  0
LINE
  8
0
 10
180.317
 20
13.3912
 11
180.54
 21
12.9445
  0
LINE
  8
0
 10
180.54
 20
12.9445
 11
180.756
 21
12.4946
  0
LINE
  8
0
 10
180.756
 20
12.4946
 11
180.965
 21
12.0415
  0
LINE
  8
0
 10
180.965
 20
12.0415
 11
181.168
 21
11.5854
  0
LINE
  8
0
 10
181.168
 20
11.5854
 11
181.364
 21
11.1264
  0
LINE
  8
0
 10
181.364
 20
11.1264
 11
181.553
 21
10.6646
  0
LINE
  8
0
 10
181.553
 20
10.6646
 11
181.736
 21
10.2
  0
LINE
  8
0
 10
181.736
 20
10.2
 11
181.911
 21
9.73285
  0
LINE
  8
0
 10
181.911
 20
9.73285
 11
182.08
 21
9.26312
  0
LINE
  8
0
 10
182.08
 20
9.26312
 11
182.242
 21
8.79099
  0
LINE
  8
0
 10
182.242
 20
8.79099
 11
182.397
 21
8.31651
  0
LINE
  8
0
 10
182.397
 20
8.31651
 11
182.545
 21
7.83981
  0
LINE
  8
0
 10
182.545
 20
7.83981
 11
182.686
 21
7.36099
  0
LINE
  8
0
 10
182.686
 20
7.36099
 11
182.82
 21
6.88017
  0
LINE
  8
0
 10
182.82
 20
6.88017
 11
182.947
 21
6.39742
  0
LINE
  8
0
 10
182.947
 20
6.39742
 11
183.066
 21
5.91287
  0
LINE
  8
0
 10
183.066
 20
5.91287
 11
183.179
 21
5.42661
  0
LINE
  8
0
 10
183.179
 20
5.42661
 11
183.284
 21
4.93874
  0
LINE
  8
0
 10
183.284
 20
4.93874
 11
183.383
 21
4.44939
  0
LINE
  8
0
 10
183.383
 20
4.44939
 11
183.474
 21
3.95863
  0
LINE
  8
0
 10
183.474
 20
3.95863
 11
183.558
 21
3.46661
  0
LINE
  8
0
 10
183.558
 20
3.46661
 11
183.634
 21
2.9734
  0
LINE
  8
0
 10
183.634
 20
2.9734
 11
183.704
 21
2.47911
  0
LINE
  8
0
 10
183.704
 20
2.47911
 11
183.766
 21
1.98387
  0
LINE
  8
0
 10
183.766
 20
1.98387
 11
183.821
 21
1.48776
  0
LINE
  8
0
 10
183.821
 20
1.48776
 11
183.868
 21
0.990906
  0
LINE
  8
0
 10
183.868
 20
0.990906
 11
183.908
 21
0.493408
  0
LINE
  8
0
 10
183.908
 20
0.493408
 11
183.941
 21
-0.00460815
  0
LINE
  8
0
 10
183.941
 20
-0.00460815
 11
183.967
 21
-0.503082
  0
LINE
  8
0
 10
183.967
 20
-0.503082
 11
183.985
 21
-1.00188
  0
LINE
  8
0
 10
183.985
 20
-1.00188
 11
183.996
 21
-1.50089
  0
LINE
  8
0
 10
183.996
 20
-1.50089
 11
184
 21
-2
  0
LINE
  8
0
 10
184
 20
-2
 11
183.996
 21
-2.4991
  0
LINE
  8
0
 10
183.996
 20
-2.4991
 11
183.985
 21
-2.99811
  0
LINE
  8
0
 10
183.985
 20
-2.99811
 11
183.967
 21
-3.4969
  0
LINE
  8
0
 10
183.967
 20
-3.4969
 11
183.941
 21
-3.99538
  0
LINE
  8
0
 10
183.941
 20
-3.99538
 11
183.908
 21
-4.49341
  0
LINE
  8
0
 10
183.908
 20
-4.49341
 11
183.868
 21
-4.99091
  0
LINE
  8
0
 10
183.868
 20
-4.99091
 11
183.821
 21
-5.48776
  0
LINE
  8
0
 10
183.821
 20
-5.48776
 11
183.766
 21
-5.98387
  0
LINE
  8
0
 10
183.766
 20
-5.98387
 11
183.704
 21
-6.47911
  0
LINE
  8
0
 10
183.704
 20
-6.47911
 11
183.634
 21
-6.9734
  0
LINE
  8
0
 10
183.634
 20
-6.9734
 11
183.558
 21
-7.46661
  0
LINE
  8
0
 10
183.558
 20
-7.46661
 11
183.474
 21
-7.95863
  0
LINE
  8
0
 10
183.474
 20
-7.95863
 11
183.383
 21
-8.44939
  0
LINE
  8
0
 10
183.383
 20
-8.44939
 11
183.284
 21
-8.93874
  0
LINE
  8
0
 10
183.284
 20
-8.93874
 11
183.179
 21
-9.42661
  0
LINE
  8
0
 10
183.179
 20
-9.42661
 11
183.066
 21
-9.91287
  0
LINE
  8
0
 10
183.066
 20
-9.91287
 11
182.947
 21
-10.3974
  0
LINE
  8
0
 10
182.947
 20
-10.3974
 11
182.82
 21
-10.8802
  0
LINE
  8
0
 10
182.82
 20
-10.8802
 11
182.686
 21
-11.361
  0
LINE
  8
0
 10
182.686
 20
-11.361
 11
182.545
 21
-11.8398
  0
LINE
  8
0
 10
182.545
 20
-11.8398
 11
182.397
 21
-12.3165
  0
LINE
  8
0
 10
182.397
 20
-12.3165
 11
182.242
 21
-12.791
  0
LINE
  8
0
 10
182.242
 20
-12.791
 11
182.08
 21
-13.2631
  0
LINE
  8
0
 10
182.08
 20
-13.2631
 11
181.911
 21
-13.7328
  0
LINE
  8
0
 10
181.911
 20
-13.7328
 11
181.736
 21
-14.2
  0
LINE
  8
0
 10
181.736
 20
-14.2
 11
181.553
 21
-14.6646
  0
LINE
  8
0
 10
181.553
 20
-14.6646
 11
181.364
 21
-15.1264
  0
LINE
  8
0
 10
181.364
 20
-15.1264
 11
181.168
 21
-15.5854
  0
LINE
  8
0
 10
181.168
 20
-15.5854
 11
180.965
 21
-16.0415
  0
LINE
  8
0
 10
180.965
 20
-16.0415
 11
180.756
 21
-16.4946
  0
LINE
  8
0
 10
180.756
 20
-16.4946
 11
180.54
 21
-16.9445
  0
LINE
  8
0
 10
180.54
 20
-16.9445
 11
180.317
 21
-17.3912
  0
LINE
  8
0
 10
180.317
 20
-17.3912
 11
180.088
 21
-17.8346
  0
LINE
  8
0
 10
180.088
 20
-17.8346
 11
179.852
 21
-18.2745
  0
LINE
  8
0
 10
179.852
 20
-18.2745
 11
179.61
 21
-18.711
  0
LINE
  8
0
 10
179.61
 20
-18.711
 11
179.361
 21
-19.1439
  0
LINE
  8
0
 10
179.361
 20
-19.1439
 11
179.106
 21
-19.573
  0
LINE
  8
0
 10
179.106
 20
-19.573
 11
178.845
 21
-19.9984
  0
LINE
  8
0
 10
178.845
 20
-19.9984
 11
178.578
 21
-20.4199
  0
LINE
  8
0
 10
178.578
 20
-20.4199
 11
178.305
 21
-20.8375
  0
LINE
  8
0
 10
178.305
 20
-20.8375
 11
178.025
 21
-21.2509
  0
LINE
  8
0
 10
178.025
 20
-21.2509
 11
177.739
 21
-21.6603
  0
LINE
  8
0
 10
177.739
 20
-21.6603
 11
177.448
 21
-22.0654
  0
LINE
  8
0
 10
177.448
 20
-22.0654
 11
177.15
 21
-22.4661
  0
LINE
  8
0
 10
177.15
 20
-22.4661
 11
176.847
 21
-22.8625
  0
LINE
  8
0
 10
176.847
 20
-22.8625
 11
176.538
 21
-23.2543
  0
LINE
  8
0
 10
176.538
 20
-23.2543
 11
176.223
 21
-23.6416
  0
LINE
  8
0
 10
176.223
 20
-23.6416
 11
175.902
 21
-24.0242
  0
LINE
  8
0
 10
175.902
 20
-24.0242
 11
175.576
 21
-24.4021
  0
LINE
  8
0
 10
175.576
 20
-24.4021
 11
175.245
 21
-24.7751
  0
LINE
  8
0
 10
175.245
 20
-24.7751
 11
174.908
 21
-25.1433
  0
LINE
  8
0
 10
174.908
 20
-25.1433
 11
174.565
 21
-25.5064
  0
LINE
  8
0
 10
174.565
 20
-25.5064
 11
174.217
 21
-25.8645
  0
LINE
  8
0
 10
174.217
 20
-25.8645
 11
173.865
 21
-26.2174
  0
LINE
  8
0
 10
173.865
 20
-26.2174
 11
173.506
 21
-26.5652
  0
LINE
  8
0
 10
173.506
 20
-26.5652
 11
173.143
 21
-26.9076
  0
LINE
  8
0
 10
173.143
 20
-26.9076
 11
172.775
 21
-27.2446
  0
LINE
  8
0
 10
172.775
 20
-27.2446
 11
172.402
 21
-27.5762
  0
LINE
  8
0
 10
172.402
 20
-27.5762
 11
172.024
 21
-27.9024
  0
LINE
  8
0
 10
172.024
 20
-27.9024
 11
171.642
 21
-28.2229
  0
LINE
  8
0
 10
171.642
 20
-28.2229
 11
171.254
 21
-28.5378
  0
LINE
  8
0
 10
171.254
 20
-28.5378
 11
170.862
 21
-28.8469
  0
LINE
  8
0
 10
170.862
 20
-28.8469
 11
170.466
 21
-29.1503
  0
LINE
  8
0
 10
170.466
 20
-29.1503
 11
170.065
 21
-29.4478
  0
LINE
  8
0
 10
170.065
 20
-29.4478
 11
169.66
 21
-29.7394
  0
LINE
  8
0
 10
169.66
 20
-29.7394
 11
169.251
 21
-30.025
  0
LINE
  8
0
 10
169.251
 20
-30.025
 11
168.837
 21
-30.3046
  0
LINE
  8
0
 10
168.837
 20
-30.3046
 11
168.42
 21
-30.578
  0
LINE
  8
0
 10
168.42
 20
-30.578
 11
167.998
 21
-30.8454
  0
LINE
  8
0
 10
167.998
 20
-30.8454
 11
167.573
 21
-31.1065
  0
LINE
  8
0
 10
167.573
 20
-31.1065
 11
167.144
 21
-31.3613
  0
LINE
  8
0
 10
167.144
 20
-31.3613
 11
166.711
 21
-31.6098
  0
LINE
  8
0
 10
166.711
 20
-31.6098
 11
166.275
 21
-31.8519
  0
LINE
  8
0
 10
166.275
 20
-31.8519
 11
165.835
 21
-32.0876
  0
LINE
  8
0
 10
165.835
 20
-32.0876
 11
165.391
 21
-32.3168
  0
LINE
  8
0
 10
165.391
 20
-32.3168
 11
164.944
 21
-32.5395
  0
LINE
  8
0
 10
164.944
 20
-32.5395
 11
164.495
 21
-32.7556
  0
LINE
  8
0
 10
164.495
 20
-32.7556
 11
164.042
 21
-32.9651
  0
LINE
  8
0
 10
164.042
 20
-32.9651
 11
163.585
 21
-33.1679
  0
LINE
  8
0
 10
163.585
 20
-33.1679
 11
163.126
 21
-33.3639
  0
LINE
  8
0
 10
163.126
 20
-33.3639
 11
162.665
 21
-33.5533
  0
LINE
  8
0
 10
162.665
 20
-33.5533
 11
162.2
 21
-33.7358
  0
LINE
  8
0
 10
162.2
 20
-33.7358
 11
161.733
 21
-33.9114
  0
LINE
  8
0
 10
161.733
 20
-33.9114
 11
161.263
 21
-34.0802
  0
LINE
  8
0
 10
161.263
 20
-34.0802
 11
160.791
 21
-34.2421
  0
LINE
  8
0
 10
160.791
 20
-34.2421
 11
160.317
 21
-34.397
  0
LINE
  8
0
 10
160.317
 20
-34.397
 11
159.84
 21
-34.545
  0
LINE
  8
0
 10
159.84
 20
-34.545
 11
159.361
 21
-34.6859
  0
LINE
  8
0
 10
159.361
 20
-34.6859
 11
158.88
 21
-34.8198
  0
LINE
  8
0
 10
158.88
 20
-34.8198
 11
158.397
 21
-34.9467
  0
LINE
  8
0
 10
158.397
 20
-34.9467
 11
157.913
 21
-35.0664
  0
LINE
  8
0
 10
157.913
 20
-35.0664
 11
157.427
 21
-35.179
  0
LINE
  8
0
 10
157.427
 20
-35.179
 11
156.939
 21
-35.2844
  0
LINE
  8
0
 10
156.939
 20
-35.2844
 11
156.449
 21
-35.3827
  0
LINE
  8
0
 10
156.449
 20
-35.3827
 11
155.959
 21
-35.4738
  0
LINE
  8
0
 10
155.959
 20
-35.4738
 11
155.467
 21
-35.5576
  0
LINE
  8
0
 10
155.467
 20
-35.5576
 11
154.973
 21
-35.6343
  0
LINE
  8
0
 10
154.973
 20
-35.6343
 11
154.479
 21
-35.7037
  0
LINE
  8
0
 10
154.479
 20
-35.7037
 11
153.984
 21
-35.7658
  0
LINE
  8
0
 10
153.984
 20
-35.7658
 11
153.488
 21
-35.8206
  0
LINE
  8
0
 10
153.488
 20
-35.8206
 11
152.991
 21
-35.8682
  0
LINE
  8
0
 10
152.991
 20
-35.8682
 11
152.493
 21
-35.9084
  0
LINE
  8
0
 10
152.493
 20
-35.9084
 11
151.995
 21
-35.9414
  0
LINE
  8
0
 10
151.995
 20
-35.9414
 11
151.497
 21
-35.967
  0
LINE
  8
0
 10
151.497
 20
-35.967
 11
150.998
 21
-35.9853
  0
LINE
  8
0
 10
150.998
 20
-35.9853
 11
150.499
 21
-35.9963
  0
LINE
  8
0
 10
150.499
 20
-35.9963
 11
150
 21
-36
  0
LINE
  8
0
 10
150
 20
-36
 11
149.501
 21
-35.9963
  0
LINE
  8
0
 10
53.55
 20
-4.95
 11
53.55
 21
24.95
  0
LINE
  8
0
 10
53.55
 20
24.95
 11
59.95
 21
24.95
  0
LINE
  8
0
 10
59.95
 20
24.95
 11
59.95
 21
-4.95
  0
LINE
  8
0
 10
59.95
 20
-4.95
 11
53.55
 21
-4.95
  0
LINE
  8
0
 10
-59.95
 20
-4.95
 11
-59.95
 21
24.95
  0
LINE
  8
0
 10
-59.95
 20
24.95
 11
-53.55
 21
24.95
  0
LINE
  8
0
 10
-53.55
 20
24.95
 11
-53.55
 21
-4.95
  0
LINE
  8
0
 10
-53.55
 20
-4.95
 11
-59.95
 21
-4.95
  0
LINE
  8
0
 10
12.55
 20
-19.95
 11
12.55
 21
-13.55
  0
LINE
  8
0
 10
12.55
 20
-13.55
 11
37.45
 21
-13.55
  0
LINE
  8
0
 10
37.45
 20
-13.55
 11
37.45
 21
-19.95
  0
LINE
  8
0
 10
37.45
 20
-19.95
 11
12.55
 21
-19.95
  0
LINE
  8
0
 10
-37.45
 20
-19.95
 11
-37.45
 21
-13.55
  0
LINE
  8
0
 10
-37.45
 20
-13.55
 11
-12.55
 21
-13.55
  0
LINE
  8
0
 10
-12.55
 20
-13.55
 11
-12.55
 21
-19.95
  0
LINE
  8
0
 10
-12.55
 20
-19.95
 11
-37.45
 21
-19.95
  0
LINE
  8
0
 10
0
 20
-19.25
 11
-0.487717
 21
-19.202
  0
LINE
  8
0
 10
-0.487717
 20
-19.202
 11
-0.956696
 21
-19.0597
  0
LINE
  8
0
 10
-0.956696
 20
-19.0597
 11
-1.38892
 21
-18.8287
  0
LINE
  8
0
 10
-1.38892
 20
-18.8287
 11
-1.76776
 21
-18.5178
  0
LINE
  8
0
 10
-1.76776
 20
-18.5178
 11
-2.07866
 21
-18.1389
  0
LINE
  8
0
 10
-2.07866
 20
-18.1389
 11
-2.30969
 21
-17.7067
  0
LINE
  8
0
 10
-2.30969
 20
-17.7067
 11
-2.45195
 21
-17.2377
  0
LINE
  8
0
 10
-2.45195
 20
-17.2377
 11
-2.5
 21
-16.75
  0
LINE
  8
0
 10
-2.5
 20
-16.75
 11
-2.45195
 21
-16.2623
  0
LINE
  8
0
 10
-2.45195
 20
-16.2623
 11
-2.30969
 21
-15.7933
  0
LINE
  8
0
 10
-2.30969
 20
-15.7933
 11
-2.07866
 21
-15.3611
  0
LINE
  8
0
 10
-2.07866
 20
-15.3611
 11
-1.76776
 21
-14.9822
  0
LINE
  8
0
 10
-1.76776
 20
-14.9822
 11
-1.38892
 21
-14.6713
  0
LINE
  8
0
 10
-1.38892
 20
-14.6713
 11
-0.956696
 21
-14.4403
  0
LINE
  8
0
 10
-0.956696
 20
-14.4403
 11
-0.487717
 21
-14.298
  0
LINE
  8
0
 10
-0.487717
 20
-14.298
 11
0
 21
-14.25
  0
LINE
  8
0
 10
0
 20
-14.25
 11
0.487717
 21
-14.298
  0
LINE
  8
0
 10
0.487717
 20
-14.298
 11
0.956696
 21
-14.4403
  0
LINE
  8
0
 10
0.956696
 20
-14.4403
 11
1.38892
 21
-14.6713
  0
LINE
  8
0
 10
1.38892
 20
-14.6713
 11
1.76776
 21
-14.9822
  0
LINE
  8
0
 10
1.76776
 20
-14.9822
 11
2.07866
 21
-15.3611
  0
LINE
  8
0
 10
2.07866
 20
-15.3611
 11
2.30969
 21
-15.7933
  0
LINE
  8
0
 10
2.30969
 20
-15.7933
 11
2.45195
 21
-16.2623
  0
LINE
  8
0
 10
2.45195
 20
-16.2623
 11
2.5
 21
-16.75
  0
LINE
  8
0
 10
2.5
 20
-16.75
 11
2.45195
 21
-17.2377
  0
LINE
  8
0
 10
2.45195
 20
-17.2377
 11
2.30969
 21
-17.7067
  0
LINE
  8
0
 10
2.30969
 20
-17.7067
 11
2.07866
 21
-18.1389
  0
LINE
  8
0
 10
2.07866
 20
-18.1389
 11
1.76776
 21
-18.5178
  0
LINE
  8
0
 10
1.76776
 20
-18.5178
 11
1.38892
 21
-18.8287
  0
LINE
  8
0
 10
1.38892
 20
-18.8287
 11
0.956696
 21
-19.0597
  0
LINE
  8
0
 10
0.956696
 20
-19.0597
 11
0.487717
 21
-19.202
  0
LINE
  8
0
 10
0.487717
 20
-19.202
 11
0
 21
-19.25
  0
ENDSEC
  0
SECTION
  2
OBJECTS
  0
DICTIONARY
  0
ENDSEC
  0
EOF
