  0
SECTION
  2
BLOCKS
  0
ENDSEC
  0
SECTION
  2
ENTITIES
  0
LINE
  8
0
 10
-12.5
 20
-1.625
 11
-12.5
 21
3.25
  0
LINE
  8
0
 10
-12.5
 20
3.25
 11
-2.45
 21
3.25
  0
LINE
  8
0
 10
-2.45
 20
3.25
 11
-2.45
 21
10.15
  0
LINE
  8
0
 10
-2.45
 20
10.15
 11
-3.95
 21
10.15
  0
LINE
  8
0
 10
-3.95
 20
10.15
 11
-3.95
 21
15.85
  0
LINE
  8
0
 10
-3.95
 20
15.85
 11
-2.45
 21
15.85
  0
LINE
  8
0
 10
-2.45
 20
15.85
 11
-2.45
 21
19.5
  0
LINE
  8
0
 10
-2.45
 20
19.5
 11
2.45
 21
19.5
  0
LINE
  8
0
 10
2.45
 20
19.5
 11
2.45
 21
15.85
  0
LINE
  8
0
 10
2.45
 20
15.85
 11
3.95
 21
15.85
  0
LINE
  8
0
 10
3.95
 20
15.85
 11
3.95
 21
10.15
  0
LINE
  8
0
 10
3.95
 20
10.15
 11
2.45
 21
10.15
  0
LINE
  8
0
 10
2.45
 20
10.15
 11
2.45
 21
3.25
  0
LINE
  8
0
 10
2.45
 20
3.25
 11
12.5
 21
3.25
  0
LINE
  8
0
 10
12.5
 20
3.25
 11
12.5
 21
-1.625
  0
LINE
  8
0
 10
12.5
 20
-1.625
 11
14.125
 21
-3.25
  0
LINE
  8
0
 10
14.125
 20
-3.25
 11
35.875
 21
-3.25
  0
LINE
  8
0
 10
35.875
 20
-3.25
 11
37.5
 21
-1.625
  0
LINE
  8
0
 10
37.5
 20
-1.625
 11
37.5
 21
3.25
  0
LINE
  8
0
 10
37.5
 20
3.25
 11
45
 21
3.25
  0
LINE
  8
0
 10
45
 20
3.25
 11
45
 21
4.75
  0
LINE
  8
0
 10
45
 20
4.75
 11
45.0409
 21
5.24377
  0
LINE
  8
0
 10
45.0409
 20
5.24377
 11
45.1625
 21
5.72409
  0
LINE
  8
0
 10
45.1625
 20
5.72409
 11
45.3616
 21
6.17784
  0
LINE
  8
0
 10
45.3616
 20
6.17784
 11
45.6326
 21
6.59264
  0
LINE
  8
0
 10
45.6326
 20
6.59264
 11
45.9682
 21
6.95717
  0
LINE
  8
0
 10
45.9682
 20
6.95717
 11
46.3591
 21
7.26149
  0
LINE
  8
0
 10
46.3591
 20
7.26149
 11
46.7949
 21
7.49731
  0
LINE
  8
0
 10
46.7949
 20
7.49731
 11
47.2635
 21
7.65819
  0
LINE
  8
0
 10
47.2635
 20
7.65819
 11
47.7523
 21
7.73975
  0
LINE
  8
0
 10
47.7523
 20
7.73975
 11
48.2477
 21
7.73975
  0
LINE
  8
0
 10
48.2477
 20
7.73975
 11
48.7365
 21
7.65819
  0
LINE
  8
0
 10
48.7365
 20
7.65819
 11
49.2051
 21
7.49731
  0
LINE
  8
0
 10
49.2051
 20
7.49731
 11
49.6408
 21
7.26149
  0
LINE
  8
0
 10
49.6408
 20
7.26149
 11
50.0318
 21
6.95717
  0
LINE
  8
0
 10
50.0318
 20
6.95717
 11
50.3674
 21
6.59264
  0
LINE
  8
0
 10
50.3674
 20
6.59264
 11
50.6384
 21
6.17784
  0
LINE
  8
0
 10
50.6384
 20
6.17784
 11
50.8374
 21
5.72409
  0
LINE
  8
0
 10
50.8374
 20
5.72409
 11
50.9591
 21
5.24377
  0
LINE
  8
0
 10
50.9591
 20
5.24377
 11
51
 21
4.75
  0
LINE
  8
0
 10
51
 20
4.75
 11
51
 21
3.25
  0
LINE
  8
0
 10
51
 20
3.25
 11
60
 21
3.25
  0
LINE
  8
0
 10
60
 20
3.25
 11
60
 21
53.25
  0
LINE
  8
0
 10
60
 20
53.25
 11
37.5
 21
53.25
  0
LINE
  8
0
 10
37.5
 20
53.25
 11
37.5
 21
58.125
  0
LINE
  8
0
 10
37.5
 20
58.125
 11
35.875
 21
59.75
  0
LINE
  8
0
 10
35.875
 20
59.75
 11
14.125
 21
59.75
  0
LINE
  8
0
 10
14.125
 20
59.75
 11
12.5
 21
58.125
  0
LINE
  8
0
 10
12.5
 20
58.125
 11
12.5
 21
53.25
  0
LINE
  8
0
 10
12.5
 20
53.25
 11
2.45
 21
53.25
  0
LINE
  8
0
 10
2.45
 20
53.25
 11
2.45
 21
46.35
  0
LINE
  8
0
 10
2.45
 20
46.35
 11
3.95
 21
46.35
  0
LINE
  8
0
 10
3.95
 20
46.35
 11
3.95
 21
40.65
  0
LINE
  8
0
 10
3.95
 20
40.65
 11
2.45
 21
40.65
  0
LINE
  8
0
 10
2.45
 20
40.65
 11
2.45
 21
37
  0
LINE
  8
0
 10
2.45
 20
37
 11
-2.45
 21
37
  0
LINE
  8
0
 10
-2.45
 20
37
 11
-2.45
 21
40.65
  0
LINE
  8
0
 10
-2.45
 20
40.65
 11
-3.95
 21
40.65
  0
LINE
  8
0
 10
-3.95
 20
40.65
 11
-3.95
 21
46.35
  0
LINE
  8
0
 10
-3.95
 20
46.35
 11
-2.45
 21
46.35
  0
LINE
  8
0
 10
-2.45
 20
46.35
 11
-2.45
 21
53.25
  0
LINE
  8
0
 10
-2.45
 20
53.25
 11
-12.5
 21
53.25
  0
LINE
  8
0
 10
-12.5
 20
53.25
 11
-12.5
 21
58.125
  0
LINE
  8
0
 10
-12.5
 20
58.125
 11
-14.125
 21
59.75
  0
LINE
  8
0
 10
-14.125
 20
59.75
 11
-35.875
 21
59.75
  0
LINE
  8
0
 10
-35.875
 20
59.75
 11
-37.5
 21
58.125
  0
LINE
  8
0
 10
-37.5
 20
58.125
 11
-37.5
 21
53.25
  0
LINE
  8
0
 10
-37.5
 20
53.25
 11
-60
 21
53.25
  0
LINE
  8
0
 10
-60
 20
53.25
 11
-60
 21
3.25
  0
LINE
  8
0
 10
-60
 20
3.25
 11
-51
 21
3.25
  0
LINE
  8
0
 10
-51
 20
3.25
 11
-51
 21
4.75
  0
LINE
  8
0
 10
-51
 20
4.75
 11
-50.9591
 21
5.24377
  0
LINE
  8
0
 10
-50.9591
 20
5.24377
 11
-50.8374
 21
5.72409
  0
LINE
  8
0
 10
-50.8374
 20
5.72409
 11
-50.6384
 21
6.17784
  0
LINE
  8
0
 10
-50.6384
 20
6.17784
 11
-50.3674
 21
6.59264
  0
LINE
  8
0
 10
-50.3674
 20
6.59264
 11
-50.0318
 21
6.95717
  0
LINE
  8
0
 10
-50.0318
 20
6.95717
 11
-49.6408
 21
7.26149
  0
LINE
  8
0
 10
-49.6408
 20
7.26149
 11
-49.2051
 21
7.49731
  0
LINE
  8
0
 10
-49.2051
 20
7.49731
 11
-48.7365
 21
7.65819
  0
LINE
  8
0
 10
-48.7365
 20
7.65819
 11
-48.2477
 21
7.73975
  0
LINE
  8
0
 10
-48.2477
 20
7.73975
 11
-47.7523
 21
7.73975
  0
LINE
  8
0
 10
-47.7523
 20
7.73975
 11
-47.2635
 21
7.65819
  0
LINE
  8
0
 10
-47.2635
 20
7.65819
 11
-46.7949
 21
7.49731
  0
LINE
  8
0
 10
-46.7949
 20
7.49731
 11
-46.3591
 21
7.26149
  0
LINE
  8
0
 10
-46.3591
 20
7.26149
 11
-45.9682
 21
6.95717
  0
LINE
  8
0
 10
-45.9682
 20
6.95717
 11
-45.6326
 21
6.59264
  0
LINE
  8
0
 10
-45.6326
 20
6.59264
 11
-45.3616
 21
6.17784
  0
LINE
  8
0
 10
-45.3616
 20
6.17784
 11
-45.1625
 21
5.72409
  0
LINE
  8
0
 10
-45.1625
 20
5.72409
 11
-45.0409
 21
5.24377
  0
LINE
  8
0
 10
-45.0409
 20
5.24377
 11
-45
 21
4.75
  0
LINE
  8
0
 10
-45
 20
4.75
 11
-45
 21
3.25
  0
LINE
  8
0
 10
-45
 20
3.25
 11
-37.5
 21
3.25
  0
LINE
  8
0
 10
-37.5
 20
3.25
 11
-37.5
 21
-1.625
  0
LINE
  8
0
 10
-37.5
 20
-1.625
 11
-35.875
 21
-3.25
  0
LINE
  8
0
 10
-35.875
 20
-3.25
 11
-14.125
 21
-3.25
  0
LINE
  8
0
 10
-14.125
 20
-3.25
 11
-12.5
 21
-1.625
  0
ENDSEC
  0
SECTION
  2
OBJECTS
  0
DICTIONARY
  0
ENDSEC
  0
EOF
