  0
SECTION
  2
BLOCKS
  0
ENDSEC
  0
SECTION
  2
ENTITIES
  0
LINE
  8
0
 10
-12.5
 20
-1.625
 11
-12.5
 21
3.25
  0
LINE
  8
0
 10
-12.5
 20
3.25
 11
-2.45
 21
3.25
  0
LINE
  8
0
 10
-2.45
 20
3.25
 11
-2.45
 21
10.15
  0
LINE
  8
0
 10
-2.45
 20
10.15
 11
-3.95
 21
10.15
  0
LINE
  8
0
 10
-3.95
 20
10.15
 11
-3.95
 21
15.85
  0
LINE
  8
0
 10
-3.95
 20
15.85
 11
-2.45
 21
15.85
  0
LINE
  8
0
 10
-2.45
 20
15.85
 11
-2.45
 21
19.5
  0
LINE
  8
0
 10
-2.45
 20
19.5
 11
2.45
 21
19.5
  0
LINE
  8
0
 10
2.45
 20
19.5
 11
2.45
 21
15.85
  0
LINE
  8
0
 10
2.45
 20
15.85
 11
3.95
 21
15.85
  0
LINE
  8
0
 10
3.95
 20
15.85
 11
3.95
 21
10.15
  0
LINE
  8
0
 10
3.95
 20
10.15
 11
2.45
 21
10.15
  0
LINE
  8
0
 10
2.45
 20
10.15
 11
2.45
 21
3.25
  0
LINE
  8
0
 10
2.45
 20
3.25
 11
12.5
 21
3.25
  0
LINE
  8
0
 10
12.5
 20
3.25
 11
12.5
 21
-1.625
  0
LINE
  8
0
 10
12.5
 20
-1.625
 11
14.125
 21
-3.25
  0
LINE
  8
0
 10
14.125
 20
-3.25
 11
35.875
 21
-3.25
  0
LINE
  8
0
 10
35.875
 20
-3.25
 11
37.5
 21
-1.625
  0
LINE
  8
0
 10
37.5
 20
-1.625
 11
37.5
 21
3.25
  0
LINE
  8
0
 10
37.5
 20
3.25
 11
44.0076
 21
3.25
  0
LINE
  8
0
 10
44.0076
 20
3.25
 11
44.0076
 21
5.49623
  0
LINE
  8
0
 10
44.0076
 20
5.49623
 11
44.0681
 21
5.98499
  0
LINE
  8
0
 10
44.0681
 20
5.98499
 11
44.1882
 21
6.4626
  0
LINE
  8
0
 10
44.1882
 20
6.4626
 11
44.3661
 21
6.92183
  0
LINE
  8
0
 10
44.3661
 20
6.92183
 11
44.5991
 21
7.35573
  0
LINE
  8
0
 10
44.5991
 20
7.35573
 11
44.8837
 21
7.75769
  0
LINE
  8
0
 10
44.8837
 20
7.75769
 11
45.2155
 21
8.12164
  0
LINE
  8
0
 10
45.2155
 20
8.12164
 11
45.5895
 21
8.44206
  0
LINE
  8
0
 10
45.5895
 20
8.44206
 11
46
 21
8.7141
  0
LINE
  8
0
 10
46
 20
8.7141
 11
46.4409
 21
8.93361
  0
LINE
  8
0
 10
46.4409
 20
8.93361
 11
46.9053
 21
9.09729
  0
LINE
  8
0
 10
46.9053
 20
9.09729
 11
47.3864
 21
9.20265
  0
LINE
  8
0
 10
47.3864
 20
9.20265
 11
47.8768
 21
9.24809
  0
LINE
  8
0
 10
47.8768
 20
9.24809
 11
48.3691
 21
9.23293
  0
LINE
  8
0
 10
48.3691
 20
9.23293
 11
48.8557
 21
9.15738
  0
LINE
  8
0
 10
48.8557
 20
9.15738
 11
49.3294
 21
9.02261
  0
LINE
  8
0
 10
49.3294
 20
9.02261
 11
49.7829
 21
8.83064
  0
LINE
  8
0
 10
49.7829
 20
8.83064
 11
50.2095
 21
8.5844
  0
LINE
  8
0
 10
50.2095
 20
8.5844
 11
50.6025
 21
8.28761
  0
LINE
  8
0
 10
50.6025
 20
8.28761
 11
50.956
 21
7.94478
  0
LINE
  8
0
 10
50.956
 20
7.94478
 11
51.2648
 21
7.5611
  0
LINE
  8
0
 10
51.2648
 20
7.5611
 11
51.524
 21
7.14236
  0
LINE
  8
0
 10
51.524
 20
7.14236
 11
51.7299
 21
6.69496
  0
LINE
  8
0
 10
51.7299
 20
6.69496
 11
51.8792
 21
6.22565
  0
LINE
  8
0
 10
51.8792
 20
6.22565
 11
51.9697
 21
5.74155
  0
LINE
  8
0
 10
51.9697
 20
5.74155
 11
52
 21
5.25
  0
LINE
  8
0
 10
52
 20
5.25
 11
52
 21
3.25
  0
LINE
  8
0
 10
52
 20
3.25
 11
60
 21
3.25
  0
LINE
  8
0
 10
60
 20
3.25
 11
60
 21
53.25
  0
LINE
  8
0
 10
60
 20
53.25
 11
37.5
 21
53.25
  0
LINE
  8
0
 10
37.5
 20
53.25
 11
37.5
 21
58.125
  0
LINE
  8
0
 10
37.5
 20
58.125
 11
35.875
 21
59.75
  0
LINE
  8
0
 10
35.875
 20
59.75
 11
14.125
 21
59.75
  0
LINE
  8
0
 10
14.125
 20
59.75
 11
12.5
 21
58.125
  0
LINE
  8
0
 10
12.5
 20
58.125
 11
12.5
 21
53.25
  0
LINE
  8
0
 10
12.5
 20
53.25
 11
2.45
 21
53.25
  0
LINE
  8
0
 10
2.45
 20
53.25
 11
2.45
 21
46.35
  0
LINE
  8
0
 10
2.45
 20
46.35
 11
3.95
 21
46.35
  0
LINE
  8
0
 10
3.95
 20
46.35
 11
3.95
 21
40.65
  0
LINE
  8
0
 10
3.95
 20
40.65
 11
2.45
 21
40.65
  0
LINE
  8
0
 10
2.45
 20
40.65
 11
2.45
 21
37
  0
LINE
  8
0
 10
2.45
 20
37
 11
-2.45
 21
37
  0
LINE
  8
0
 10
-2.45
 20
37
 11
-2.45
 21
40.65
  0
LINE
  8
0
 10
-2.45
 20
40.65
 11
-3.95
 21
40.65
  0
LINE
  8
0
 10
-3.95
 20
40.65
 11
-3.95
 21
46.35
  0
LINE
  8
0
 10
-3.95
 20
46.35
 11
-2.45
 21
46.35
  0
LINE
  8
0
 10
-2.45
 20
46.35
 11
-2.45
 21
53.25
  0
LINE
  8
0
 10
-2.45
 20
53.25
 11
-12.5
 21
53.25
  0
LINE
  8
0
 10
-12.5
 20
53.25
 11
-12.5
 21
58.125
  0
LINE
  8
0
 10
-12.5
 20
58.125
 11
-14.125
 21
59.75
  0
LINE
  8
0
 10
-14.125
 20
59.75
 11
-35.875
 21
59.75
  0
LINE
  8
0
 10
-35.875
 20
59.75
 11
-37.5
 21
58.125
  0
LINE
  8
0
 10
-37.5
 20
58.125
 11
-37.5
 21
53.25
  0
LINE
  8
0
 10
-37.5
 20
53.25
 11
-60
 21
53.25
  0
LINE
  8
0
 10
-60
 20
53.25
 11
-60
 21
3.25
  0
LINE
  8
0
 10
-60
 20
3.25
 11
-52
 21
3.25
  0
LINE
  8
0
 10
-52
 20
3.25
 11
-52
 21
5.25
  0
LINE
  8
0
 10
-52
 20
5.25
 11
-51.9697
 21
5.74155
  0
LINE
  8
0
 10
-51.9697
 20
5.74155
 11
-51.8792
 21
6.22565
  0
LINE
  8
0
 10
-51.8792
 20
6.22565
 11
-51.7299
 21
6.69496
  0
LINE
  8
0
 10
-51.7299
 20
6.69496
 11
-51.524
 21
7.14236
  0
LINE
  8
0
 10
-51.524
 20
7.14236
 11
-51.2648
 21
7.5611
  0
LINE
  8
0
 10
-51.2648
 20
7.5611
 11
-50.956
 21
7.94478
  0
LINE
  8
0
 10
-50.956
 20
7.94478
 11
-50.6025
 21
8.28761
  0
LINE
  8
0
 10
-50.6025
 20
8.28761
 11
-50.2095
 21
8.5844
  0
LINE
  8
0
 10
-50.2095
 20
8.5844
 11
-49.7829
 21
8.83064
  0
LINE
  8
0
 10
-49.7829
 20
8.83064
 11
-49.3294
 21
9.02261
  0
LINE
  8
0
 10
-49.3294
 20
9.02261
 11
-48.8557
 21
9.15738
  0
LINE
  8
0
 10
-48.8557
 20
9.15738
 11
-48.3691
 21
9.23293
  0
LINE
  8
0
 10
-48.3691
 20
9.23293
 11
-47.8768
 21
9.24809
  0
LINE
  8
0
 10
-47.8768
 20
9.24809
 11
-47.3864
 21
9.20265
  0
LINE
  8
0
 10
-47.3864
 20
9.20265
 11
-46.9053
 21
9.09729
  0
LINE
  8
0
 10
-46.9053
 20
9.09729
 11
-46.4409
 21
8.93361
  0
LINE
  8
0
 10
-46.4409
 20
8.93361
 11
-46
 21
8.7141
  0
LINE
  8
0
 10
-46
 20
8.7141
 11
-45.5895
 21
8.44206
  0
LINE
  8
0
 10
-45.5895
 20
8.44206
 11
-45.2155
 21
8.12164
  0
LINE
  8
0
 10
-45.2155
 20
8.12164
 11
-44.8837
 21
7.75769
  0
LINE
  8
0
 10
-44.8837
 20
7.75769
 11
-44.5991
 21
7.35573
  0
LINE
  8
0
 10
-44.5991
 20
7.35573
 11
-44.3661
 21
6.92183
  0
LINE
  8
0
 10
-44.3661
 20
6.92183
 11
-44.1882
 21
6.4626
  0
LINE
  8
0
 10
-44.1882
 20
6.4626
 11
-44.0681
 21
5.98499
  0
LINE
  8
0
 10
-44.0681
 20
5.98499
 11
-44.0076
 21
5.49623
  0
LINE
  8
0
 10
-44.0076
 20
5.49623
 11
-44.0076
 21
3.25
  0
LINE
  8
0
 10
-44.0076
 20
3.25
 11
-37.5
 21
3.25
  0
LINE
  8
0
 10
-37.5
 20
3.25
 11
-37.5
 21
-1.625
  0
LINE
  8
0
 10
-37.5
 20
-1.625
 11
-35.875
 21
-3.25
  0
LINE
  8
0
 10
-35.875
 20
-3.25
 11
-14.125
 21
-3.25
  0
LINE
  8
0
 10
-14.125
 20
-3.25
 11
-12.5
 21
-1.625
  0
ENDSEC
  0
SECTION
  2
OBJECTS
  0
DICTIONARY
  0
ENDSEC
  0
EOF
