  0
SECTION
  2
BLOCKS
  0
ENDSEC
  0
SECTION
  2
ENTITIES
  0
LINE
  8
0
 10
-3.25
 20
45
 11
1.625
 21
45
  0
LINE
  8
0
 10
1.625
 20
45
 11
3.25
 21
46.625
  0
LINE
  8
0
 10
3.25
 20
46.625
 11
3.25
 21
73.375
  0
LINE
  8
0
 10
3.25
 20
73.375
 11
1.625
 21
75
  0
LINE
  8
0
 10
1.625
 20
75
 11
-3.25
 21
75
  0
LINE
  8
0
 10
-3.25
 20
75
 11
-3.25
 21
87.55
  0
LINE
  8
0
 10
-3.25
 20
87.55
 11
-10.15
 21
87.55
  0
LINE
  8
0
 10
-10.15
 20
87.55
 11
-10.15
 21
86.05
  0
LINE
  8
0
 10
-10.15
 20
86.05
 11
-15.85
 21
86.05
  0
LINE
  8
0
 10
-15.85
 20
86.05
 11
-15.85
 21
87.55
  0
LINE
  8
0
 10
-15.85
 20
87.55
 11
-19.5
 21
87.55
  0
LINE
  8
0
 10
-19.5
 20
87.55
 11
-19.5
 21
92.45
  0
LINE
  8
0
 10
-19.5
 20
92.45
 11
-15.85
 21
92.45
  0
LINE
  8
0
 10
-15.85
 20
92.45
 11
-15.85
 21
93.95
  0
LINE
  8
0
 10
-15.85
 20
93.95
 11
-10.15
 21
93.95
  0
LINE
  8
0
 10
-10.15
 20
93.95
 11
-10.15
 21
92.45
  0
LINE
  8
0
 10
-10.15
 20
92.45
 11
-3.25
 21
92.45
  0
LINE
  8
0
 10
-3.25
 20
92.45
 11
-3.25
 21
105
  0
LINE
  8
0
 10
-3.25
 20
105
 11
1.625
 21
105
  0
LINE
  8
0
 10
1.625
 20
105
 11
3.25
 21
106.625
  0
LINE
  8
0
 10
3.25
 20
106.625
 11
3.25
 21
133.375
  0
LINE
  8
0
 10
3.25
 20
133.375
 11
1.625
 21
135
  0
LINE
  8
0
 10
1.625
 20
135
 11
-3.25
 21
135
  0
LINE
  8
0
 10
-3.25
 20
135
 11
-3.25
 21
143.5
  0
LINE
  8
0
 10
-3.25
 20
143.5
 11
-53.25
 21
143.5
  0
LINE
  8
0
 10
-53.25
 20
143.5
 11
-53.25
 21
127.5
  0
LINE
  8
0
 10
-53.25
 20
127.5
 11
-58.125
 21
127.5
  0
LINE
  8
0
 10
-58.125
 20
127.5
 11
-59.75
 21
125.875
  0
LINE
  8
0
 10
-59.75
 20
125.875
 11
-59.75
 21
104.125
  0
LINE
  8
0
 10
-59.75
 20
104.125
 11
-58.125
 21
102.5
  0
LINE
  8
0
 10
-58.125
 20
102.5
 11
-53.25
 21
102.5
  0
LINE
  8
0
 10
-53.25
 20
102.5
 11
-53.25
 21
92.45
  0
LINE
  8
0
 10
-53.25
 20
92.45
 11
-46.35
 21
92.45
  0
LINE
  8
0
 10
-46.35
 20
92.45
 11
-46.35
 21
93.95
  0
LINE
  8
0
 10
-46.35
 20
93.95
 11
-40.65
 21
93.95
  0
LINE
  8
0
 10
-40.65
 20
93.95
 11
-40.65
 21
92.45
  0
LINE
  8
0
 10
-40.65
 20
92.45
 11
-37
 21
92.45
  0
LINE
  8
0
 10
-37
 20
92.45
 11
-37
 21
87.55
  0
LINE
  8
0
 10
-37
 20
87.55
 11
-40.65
 21
87.55
  0
LINE
  8
0
 10
-40.65
 20
87.55
 11
-40.65
 21
86.05
  0
LINE
  8
0
 10
-40.65
 20
86.05
 11
-46.35
 21
86.05
  0
LINE
  8
0
 10
-46.35
 20
86.05
 11
-46.35
 21
87.55
  0
LINE
  8
0
 10
-46.35
 20
87.55
 11
-53.25
 21
87.55
  0
LINE
  8
0
 10
-53.25
 20
87.55
 11
-53.25
 21
77.5
  0
LINE
  8
0
 10
-53.25
 20
77.5
 11
-58.125
 21
77.5
  0
LINE
  8
0
 10
-58.125
 20
77.5
 11
-59.75
 21
75.875
  0
LINE
  8
0
 10
-59.75
 20
75.875
 11
-59.75
 21
54.125
  0
LINE
  8
0
 10
-59.75
 20
54.125
 11
-58.125
 21
52.5
  0
LINE
  8
0
 10
-58.125
 20
52.5
 11
-53.25
 21
52.5
  0
LINE
  8
0
 10
-53.25
 20
52.5
 11
-53.25
 21
36.5
  0
LINE
  8
0
 10
-53.25
 20
36.5
 11
-3.25
 21
36.5
  0
LINE
  8
0
 10
-3.25
 20
36.5
 11
-3.25
 21
45
  0
ENDSEC
  0
SECTION
  2
OBJECTS
  0
DICTIONARY
  0
ENDSEC
  0
EOF
