  0
SECTION
  2
BLOCKS
  0
ENDSEC
  0
SECTION
  2
ENTITIES
  0
LINE
  8
0
 10
-3.25
 20
-5
 11
1.625
 21
-5
  0
LINE
  8
0
 10
1.625
 20
-5
 11
3.25
 21
-3.375
  0
LINE
  8
0
 10
3.25
 20
-3.375
 11
3.25
 21
23.375
  0
LINE
  8
0
 10
3.25
 20
23.375
 11
1.625
 21
25
  0
LINE
  8
0
 10
1.625
 20
25
 11
-3.25
 21
25
  0
LINE
  8
0
 10
-3.25
 20
25
 11
-3.25
 21
37.55
  0
LINE
  8
0
 10
-3.25
 20
37.55
 11
-10.15
 21
37.55
  0
LINE
  8
0
 10
-10.15
 20
37.55
 11
-10.15
 21
36.05
  0
LINE
  8
0
 10
-10.15
 20
36.05
 11
-15.85
 21
36.05
  0
LINE
  8
0
 10
-15.85
 20
36.05
 11
-15.85
 21
37.55
  0
LINE
  8
0
 10
-15.85
 20
37.55
 11
-19.5
 21
37.55
  0
LINE
  8
0
 10
-19.5
 20
37.55
 11
-19.5
 21
42.45
  0
LINE
  8
0
 10
-19.5
 20
42.45
 11
-15.85
 21
42.45
  0
LINE
  8
0
 10
-15.85
 20
42.45
 11
-15.85
 21
43.95
  0
LINE
  8
0
 10
-15.85
 20
43.95
 11
-10.15
 21
43.95
  0
LINE
  8
0
 10
-10.15
 20
43.95
 11
-10.15
 21
42.45
  0
LINE
  8
0
 10
-10.15
 20
42.45
 11
-3.25
 21
42.45
  0
LINE
  8
0
 10
-3.25
 20
42.45
 11
-3.25
 21
55
  0
LINE
  8
0
 10
-3.25
 20
55
 11
1.625
 21
55
  0
LINE
  8
0
 10
1.625
 20
55
 11
3.25
 21
56.625
  0
LINE
  8
0
 10
3.25
 20
56.625
 11
3.25
 21
83.375
  0
LINE
  8
0
 10
3.25
 20
83.375
 11
1.625
 21
85
  0
LINE
  8
0
 10
1.625
 20
85
 11
-3.25
 21
85
  0
LINE
  8
0
 10
-3.25
 20
85
 11
-3.25
 21
93.5
  0
LINE
  8
0
 10
-3.25
 20
93.5
 11
-53.25
 21
93.5
  0
LINE
  8
0
 10
-53.25
 20
93.5
 11
-53.25
 21
77.5
  0
LINE
  8
0
 10
-53.25
 20
77.5
 11
-58.125
 21
77.5
  0
LINE
  8
0
 10
-58.125
 20
77.5
 11
-59.75
 21
75.875
  0
LINE
  8
0
 10
-59.75
 20
75.875
 11
-59.75
 21
54.125
  0
LINE
  8
0
 10
-59.75
 20
54.125
 11
-58.125
 21
52.5
  0
LINE
  8
0
 10
-58.125
 20
52.5
 11
-53.25
 21
52.5
  0
LINE
  8
0
 10
-53.25
 20
52.5
 11
-53.25
 21
42.45
  0
LINE
  8
0
 10
-53.25
 20
42.45
 11
-46.35
 21
42.45
  0
LINE
  8
0
 10
-46.35
 20
42.45
 11
-46.35
 21
43.95
  0
LINE
  8
0
 10
-46.35
 20
43.95
 11
-40.65
 21
43.95
  0
LINE
  8
0
 10
-40.65
 20
43.95
 11
-40.65
 21
42.45
  0
LINE
  8
0
 10
-40.65
 20
42.45
 11
-37
 21
42.45
  0
LINE
  8
0
 10
-37
 20
42.45
 11
-37
 21
37.55
  0
LINE
  8
0
 10
-37
 20
37.55
 11
-40.65
 21
37.55
  0
LINE
  8
0
 10
-40.65
 20
37.55
 11
-40.65
 21
36.05
  0
LINE
  8
0
 10
-40.65
 20
36.05
 11
-46.35
 21
36.05
  0
LINE
  8
0
 10
-46.35
 20
36.05
 11
-46.35
 21
37.55
  0
LINE
  8
0
 10
-46.35
 20
37.55
 11
-53.25
 21
37.55
  0
LINE
  8
0
 10
-53.25
 20
37.55
 11
-53.25
 21
27.5
  0
LINE
  8
0
 10
-53.25
 20
27.5
 11
-58.125
 21
27.5
  0
LINE
  8
0
 10
-58.125
 20
27.5
 11
-59.75
 21
25.875
  0
LINE
  8
0
 10
-59.75
 20
25.875
 11
-59.75
 21
4.125
  0
LINE
  8
0
 10
-59.75
 20
4.125
 11
-58.125
 21
2.5
  0
LINE
  8
0
 10
-58.125
 20
2.5
 11
-53.25
 21
2.5
  0
LINE
  8
0
 10
-53.25
 20
2.5
 11
-53.25
 21
-13.5
  0
LINE
  8
0
 10
-53.25
 20
-13.5
 11
-3.25
 21
-13.5
  0
LINE
  8
0
 10
-3.25
 20
-13.5
 11
-3.25
 21
-5
  0
ENDSEC
  0
SECTION
  2
OBJECTS
  0
DICTIONARY
  0
ENDSEC
  0
EOF
