  0
SECTION
  2
BLOCKS
  0
ENDSEC
  0
SECTION
  2
ENTITIES
  0
LINE
  8
0
 10
60
 20
150
 11
-60
 21
150
  0
LINE
  8
0
 10
-60
 20
150
 11
-60
 21
30
  0
LINE
  8
0
 10
-60
 20
30
 11
60
 21
30
  0
LINE
  8
0
 10
60
 20
30
 11
60
 21
150
  0
LINE
  8
0
 10
-0.34729
 20
129.68
 11
-0.684036
 21
129.771
  0
LINE
  8
0
 10
-0.684036
 20
129.771
 11
-1
 21
129.918
  0
LINE
  8
0
 10
-1
 20
129.918
 11
-1.28557
 21
130.118
  0
LINE
  8
0
 10
-1.28557
 20
130.118
 11
-1.53207
 21
130.364
  0
LINE
  8
0
 10
-1.53207
 20
130.364
 11
-1.73204
 21
130.65
  0
LINE
  8
0
 10
-1.73204
 20
130.65
 11
-1.87938
 21
130.966
  0
LINE
  8
0
 10
-1.87938
 20
130.966
 11
-1.9696
 21
131.303
  0
LINE
  8
0
 10
-1.9696
 20
131.303
 11
-2
 21
131.65
  0
LINE
  8
0
 10
-2
 20
131.65
 11
-1.9696
 21
131.997
  0
LINE
  8
0
 10
-1.9696
 20
131.997
 11
-1.87938
 21
132.334
  0
LINE
  8
0
 10
-1.87938
 20
132.334
 11
-1.73204
 21
132.65
  0
LINE
  8
0
 10
-1.73204
 20
132.65
 11
-1.53207
 21
132.936
  0
LINE
  8
0
 10
-1.53207
 20
132.936
 11
-1.28557
 21
133.182
  0
LINE
  8
0
 10
-1.28557
 20
133.182
 11
-0.999985
 21
133.382
  0
LINE
  8
0
 10
-0.999985
 20
133.382
 11
-0.684036
 21
133.529
  0
LINE
  8
0
 10
-0.684036
 20
133.529
 11
-0.34729
 21
133.62
  0
LINE
  8
0
 10
-0.34729
 20
133.62
 11
0
 21
133.65
  0
LINE
  8
0
 10
0
 20
133.65
 11
0.34729
 21
133.62
  0
LINE
  8
0
 10
0.34729
 20
133.62
 11
0.684036
 21
133.529
  0
LINE
  8
0
 10
0.684036
 20
133.529
 11
1
 21
133.382
  0
LINE
  8
0
 10
1
 20
133.382
 11
1.28557
 21
133.182
  0
LINE
  8
0
 10
1.28557
 20
133.182
 11
1.53207
 21
132.936
  0
LINE
  8
0
 10
1.53207
 20
132.936
 11
1.73204
 21
132.65
  0
LINE
  8
0
 10
1.73204
 20
132.65
 11
1.87938
 21
132.334
  0
LINE
  8
0
 10
1.87938
 20
132.334
 11
1.9696
 21
131.997
  0
LINE
  8
0
 10
1.9696
 20
131.997
 11
2
 21
131.65
  0
LINE
  8
0
 10
2
 20
131.65
 11
1.9696
 21
131.303
  0
LINE
  8
0
 10
1.9696
 20
131.303
 11
1.87938
 21
130.966
  0
LINE
  8
0
 10
1.87938
 20
130.966
 11
1.73204
 21
130.65
  0
LINE
  8
0
 10
1.73204
 20
130.65
 11
1.53207
 21
130.364
  0
LINE
  8
0
 10
1.53207
 20
130.364
 11
1.28557
 21
130.118
  0
LINE
  8
0
 10
1.28557
 20
130.118
 11
0.999985
 21
129.918
  0
LINE
  8
0
 10
0.999985
 20
129.918
 11
0.684036
 21
129.771
  0
LINE
  8
0
 10
0.684036
 20
129.771
 11
0.34729
 21
129.68
  0
LINE
  8
0
 10
0.34729
 20
129.68
 11
0
 21
129.65
  0
LINE
  8
0
 10
0
 20
129.65
 11
-0.34729
 21
129.68
  0
LINE
  8
0
 10
-20
 20
55
 11
-20
 21
125
  0
LINE
  8
0
 10
-20
 20
125
 11
20
 21
125
  0
LINE
  8
0
 10
20
 20
125
 11
20
 21
55
  0
LINE
  8
0
 10
20
 20
55
 11
-20
 21
55
  0
LINE
  8
0
 10
35
 20
55
 11
35
 21
75
  0
LINE
  8
0
 10
35
 20
75
 11
45
 21
75
  0
LINE
  8
0
 10
45
 20
75
 11
45
 21
55
  0
LINE
  8
0
 10
45
 20
55
 11
35
 21
55
  0
LINE
  8
0
 10
-45
 20
55
 11
-45
 21
75
  0
LINE
  8
0
 10
-45
 20
75
 11
-35
 21
75
  0
LINE
  8
0
 10
-35
 20
75
 11
-35
 21
55
  0
LINE
  8
0
 10
-35
 20
55
 11
-45
 21
55
  0
LINE
  8
0
 10
-0.34729
 20
46.3804
 11
-0.684036
 21
46.4706
  0
LINE
  8
0
 10
-0.684036
 20
46.4706
 11
-0.999985
 21
46.618
  0
LINE
  8
0
 10
-0.999985
 20
46.618
 11
-1.28557
 21
46.8179
  0
LINE
  8
0
 10
-1.28557
 20
46.8179
 11
-1.53207
 21
47.0644
  0
LINE
  8
0
 10
-1.53207
 20
47.0644
 11
-1.73204
 21
47.35
  0
LINE
  8
0
 10
-1.73204
 20
47.35
 11
-1.87938
 21
47.666
  0
LINE
  8
0
 10
-1.87938
 20
47.666
 11
-1.9696
 21
48.0027
  0
LINE
  8
0
 10
-1.9696
 20
48.0027
 11
-2
 21
48.35
  0
LINE
  8
0
 10
-2
 20
48.35
 11
-1.9696
 21
48.6973
  0
LINE
  8
0
 10
-1.9696
 20
48.6973
 11
-1.87938
 21
49.034
  0
LINE
  8
0
 10
-1.87938
 20
49.034
 11
-1.73204
 21
49.35
  0
LINE
  8
0
 10
-1.73204
 20
49.35
 11
-1.53207
 21
49.6356
  0
LINE
  8
0
 10
-1.53207
 20
49.6356
 11
-1.28557
 21
49.8821
  0
LINE
  8
0
 10
-1.28557
 20
49.8821
 11
-1
 21
50.082
  0
LINE
  8
0
 10
-1
 20
50.082
 11
-0.684036
 21
50.2294
  0
LINE
  8
0
 10
-0.684036
 20
50.2294
 11
-0.34729
 21
50.3196
  0
LINE
  8
0
 10
-0.34729
 20
50.3196
 11
0
 21
50.35
  0
LINE
  8
0
 10
0
 20
50.35
 11
0.34729
 21
50.3196
  0
LINE
  8
0
 10
0.34729
 20
50.3196
 11
0.684036
 21
50.2294
  0
LINE
  8
0
 10
0.684036
 20
50.2294
 11
0.999985
 21
50.082
  0
LINE
  8
0
 10
0.999985
 20
50.082
 11
1.28557
 21
49.8821
  0
LINE
  8
0
 10
1.28557
 20
49.8821
 11
1.53207
 21
49.6356
  0
LINE
  8
0
 10
1.53207
 20
49.6356
 11
1.73204
 21
49.35
  0
LINE
  8
0
 10
1.73204
 20
49.35
 11
1.87938
 21
49.034
  0
LINE
  8
0
 10
1.87938
 20
49.034
 11
1.9696
 21
48.6973
  0
LINE
  8
0
 10
1.9696
 20
48.6973
 11
2
 21
48.35
  0
LINE
  8
0
 10
2
 20
48.35
 11
1.9696
 21
48.0027
  0
LINE
  8
0
 10
1.9696
 20
48.0027
 11
1.87938
 21
47.666
  0
LINE
  8
0
 10
1.87938
 20
47.666
 11
1.73204
 21
47.35
  0
LINE
  8
0
 10
1.73204
 20
47.35
 11
1.53207
 21
47.0644
  0
LINE
  8
0
 10
1.53207
 20
47.0644
 11
1.28557
 21
46.8179
  0
LINE
  8
0
 10
1.28557
 20
46.8179
 11
1
 21
46.618
  0
LINE
  8
0
 10
1
 20
46.618
 11
0.684036
 21
46.4706
  0
LINE
  8
0
 10
0.684036
 20
46.4706
 11
0.34729
 21
46.3804
  0
LINE
  8
0
 10
0.34729
 20
46.3804
 11
0
 21
46.35
  0
LINE
  8
0
 10
0
 20
46.35
 11
-0.34729
 21
46.3804
  0
ENDSEC
  0
SECTION
  2
OBJECTS
  0
DICTIONARY
  0
ENDSEC
  0
EOF
