  0
SECTION
  2
BLOCKS
  0
ENDSEC
  0
SECTION
  2
ENTITIES
  0
LINE
  8
0
 10
60
 20
100
 11
-60
 21
100
  0
LINE
  8
0
 10
-60
 20
100
 11
-60
 21
-20
  0
LINE
  8
0
 10
-60
 20
-20
 11
60
 21
-20
  0
LINE
  8
0
 10
60
 20
-20
 11
60
 21
100
  0
LINE
  8
0
 10
-37.45
 20
93.55
 11
-37.45
 21
99.95
  0
LINE
  8
0
 10
-37.45
 20
99.95
 11
-12.55
 21
99.95
  0
LINE
  8
0
 10
-12.55
 20
99.95
 11
-12.55
 21
93.55
  0
LINE
  8
0
 10
-12.55
 20
93.55
 11
-37.45
 21
93.55
  0
LINE
  8
0
 10
12.55
 20
93.55
 11
12.55
 21
99.95
  0
LINE
  8
0
 10
12.55
 20
99.95
 11
37.45
 21
99.95
  0
LINE
  8
0
 10
37.45
 20
99.95
 11
37.45
 21
93.55
  0
LINE
  8
0
 10
37.45
 20
93.55
 11
12.55
 21
93.55
  0
LINE
  8
0
 10
0
 20
94.25
 11
-0.487717
 21
94.298
  0
LINE
  8
0
 10
-0.487717
 20
94.298
 11
-0.956696
 21
94.4403
  0
LINE
  8
0
 10
-0.956696
 20
94.4403
 11
-1.38892
 21
94.6713
  0
LINE
  8
0
 10
-1.38892
 20
94.6713
 11
-1.76776
 21
94.9822
  0
LINE
  8
0
 10
-1.76776
 20
94.9822
 11
-2.07866
 21
95.3611
  0
LINE
  8
0
 10
-2.07866
 20
95.3611
 11
-2.30969
 21
95.7933
  0
LINE
  8
0
 10
-2.30969
 20
95.7933
 11
-2.45195
 21
96.2623
  0
LINE
  8
0
 10
-2.45195
 20
96.2623
 11
-2.5
 21
96.75
  0
LINE
  8
0
 10
-2.5
 20
96.75
 11
-2.45195
 21
97.2377
  0
LINE
  8
0
 10
-2.45195
 20
97.2377
 11
-2.30969
 21
97.7067
  0
LINE
  8
0
 10
-2.30969
 20
97.7067
 11
-2.07866
 21
98.1389
  0
LINE
  8
0
 10
-2.07866
 20
98.1389
 11
-1.76776
 21
98.5178
  0
LINE
  8
0
 10
-1.76776
 20
98.5178
 11
-1.38892
 21
98.8287
  0
LINE
  8
0
 10
-1.38892
 20
98.8287
 11
-0.956696
 21
99.0597
  0
LINE
  8
0
 10
-0.956696
 20
99.0597
 11
-0.487717
 21
99.202
  0
LINE
  8
0
 10
-0.487717
 20
99.202
 11
0
 21
99.25
  0
LINE
  8
0
 10
0
 20
99.25
 11
0.487717
 21
99.202
  0
LINE
  8
0
 10
0.487717
 20
99.202
 11
0.956696
 21
99.0597
  0
LINE
  8
0
 10
0.956696
 20
99.0597
 11
1.38892
 21
98.8287
  0
LINE
  8
0
 10
1.38892
 20
98.8287
 11
1.76776
 21
98.5178
  0
LINE
  8
0
 10
1.76776
 20
98.5178
 11
2.07866
 21
98.1389
  0
LINE
  8
0
 10
2.07866
 20
98.1389
 11
2.30969
 21
97.7067
  0
LINE
  8
0
 10
2.30969
 20
97.7067
 11
2.45195
 21
97.2377
  0
LINE
  8
0
 10
2.45195
 20
97.2377
 11
2.5
 21
96.75
  0
LINE
  8
0
 10
2.5
 20
96.75
 11
2.45195
 21
96.2623
  0
LINE
  8
0
 10
2.45195
 20
96.2623
 11
2.30969
 21
95.7933
  0
LINE
  8
0
 10
2.30969
 20
95.7933
 11
2.07866
 21
95.3611
  0
LINE
  8
0
 10
2.07866
 20
95.3611
 11
1.76776
 21
94.9822
  0
LINE
  8
0
 10
1.76776
 20
94.9822
 11
1.38892
 21
94.6713
  0
LINE
  8
0
 10
1.38892
 20
94.6713
 11
0.956696
 21
94.4403
  0
LINE
  8
0
 10
0.956696
 20
94.4403
 11
0.487717
 21
94.298
  0
LINE
  8
0
 10
0.487717
 20
94.298
 11
0
 21
94.25
  0
LINE
  8
0
 10
-0.34729
 20
79.6804
 11
-0.684036
 21
79.7706
  0
LINE
  8
0
 10
-0.684036
 20
79.7706
 11
-1
 21
79.9179
  0
LINE
  8
0
 10
-1
 20
79.9179
 11
-1.28557
 21
80.1179
  0
LINE
  8
0
 10
-1.28557
 20
80.1179
 11
-1.53207
 21
80.3644
  0
LINE
  8
0
 10
-1.53207
 20
80.3644
 11
-1.73204
 21
80.65
  0
LINE
  8
0
 10
-1.73204
 20
80.65
 11
-1.87938
 21
80.966
  0
LINE
  8
0
 10
-1.87938
 20
80.966
 11
-1.9696
 21
81.3027
  0
LINE
  8
0
 10
-1.9696
 20
81.3027
 11
-2
 21
81.65
  0
LINE
  8
0
 10
-2
 20
81.65
 11
-1.9696
 21
81.9973
  0
LINE
  8
0
 10
-1.9696
 20
81.9973
 11
-1.87938
 21
82.334
  0
LINE
  8
0
 10
-1.87938
 20
82.334
 11
-1.73204
 21
82.65
  0
LINE
  8
0
 10
-1.73204
 20
82.65
 11
-1.53207
 21
82.9356
  0
LINE
  8
0
 10
-1.53207
 20
82.9356
 11
-1.28557
 21
83.1821
  0
LINE
  8
0
 10
-1.28557
 20
83.1821
 11
-0.999985
 21
83.382
  0
LINE
  8
0
 10
-0.999985
 20
83.382
 11
-0.684036
 21
83.5294
  0
LINE
  8
0
 10
-0.684036
 20
83.5294
 11
-0.34729
 21
83.6196
  0
LINE
  8
0
 10
-0.34729
 20
83.6196
 11
0
 21
83.65
  0
LINE
  8
0
 10
0
 20
83.65
 11
0.34729
 21
83.6196
  0
LINE
  8
0
 10
0.34729
 20
83.6196
 11
0.684036
 21
83.5294
  0
LINE
  8
0
 10
0.684036
 20
83.5294
 11
1
 21
83.382
  0
LINE
  8
0
 10
1
 20
83.382
 11
1.28557
 21
83.1821
  0
LINE
  8
0
 10
1.28557
 20
83.1821
 11
1.53207
 21
82.9356
  0
LINE
  8
0
 10
1.53207
 20
82.9356
 11
1.73204
 21
82.65
  0
LINE
  8
0
 10
1.73204
 20
82.65
 11
1.87938
 21
82.334
  0
LINE
  8
0
 10
1.87938
 20
82.334
 11
1.9696
 21
81.9973
  0
LINE
  8
0
 10
1.9696
 20
81.9973
 11
2
 21
81.65
  0
LINE
  8
0
 10
2
 20
81.65
 11
1.9696
 21
81.3027
  0
LINE
  8
0
 10
1.9696
 20
81.3027
 11
1.87938
 21
80.966
  0
LINE
  8
0
 10
1.87938
 20
80.966
 11
1.73204
 21
80.65
  0
LINE
  8
0
 10
1.73204
 20
80.65
 11
1.53207
 21
80.3644
  0
LINE
  8
0
 10
1.53207
 20
80.3644
 11
1.28557
 21
80.1179
  0
LINE
  8
0
 10
1.28557
 20
80.1179
 11
1
 21
79.9179
  0
LINE
  8
0
 10
1
 20
79.9179
 11
0.684036
 21
79.7706
  0
LINE
  8
0
 10
0.684036
 20
79.7706
 11
0.34729
 21
79.6804
  0
LINE
  8
0
 10
0.34729
 20
79.6804
 11
0
 21
79.65
  0
LINE
  8
0
 10
0
 20
79.65
 11
-0.34729
 21
79.6804
  0
LINE
  8
0
 10
53.55
 20
52.55
 11
53.55
 21
77.45
  0
LINE
  8
0
 10
53.55
 20
77.45
 11
59.95
 21
77.45
  0
LINE
  8
0
 10
59.95
 20
77.45
 11
59.95
 21
52.55
  0
LINE
  8
0
 10
59.95
 20
52.55
 11
53.55
 21
52.55
  0
LINE
  8
0
 10
-59.95
 20
52.55
 11
-59.95
 21
77.45
  0
LINE
  8
0
 10
-59.95
 20
77.45
 11
-53.55
 21
77.45
  0
LINE
  8
0
 10
-53.55
 20
77.45
 11
-53.55
 21
52.55
  0
LINE
  8
0
 10
-53.55
 20
52.55
 11
-59.95
 21
52.55
  0
LINE
  8
0
 10
-22
 20
5
 11
-22
 21
75
  0
LINE
  8
0
 10
-22
 20
75
 11
22
 21
75
  0
LINE
  8
0
 10
22
 20
75
 11
22
 21
5
  0
LINE
  8
0
 10
22
 20
5
 11
-22
 21
5
  0
LINE
  8
0
 10
-57.2377
 20
37.548
 11
-57.7067
 21
37.6903
  0
LINE
  8
0
 10
-57.7067
 20
37.6903
 11
-58.1389
 21
37.9213
  0
LINE
  8
0
 10
-58.1389
 20
37.9213
 11
-58.5178
 21
38.2322
  0
LINE
  8
0
 10
-58.5178
 20
38.2322
 11
-58.8287
 21
38.6111
  0
LINE
  8
0
 10
-58.8287
 20
38.6111
 11
-59.0597
 21
39.0433
  0
LINE
  8
0
 10
-59.0597
 20
39.0433
 11
-59.202
 21
39.5123
  0
LINE
  8
0
 10
-59.202
 20
39.5123
 11
-59.25
 21
40
  0
LINE
  8
0
 10
-59.25
 20
40
 11
-59.202
 21
40.4877
  0
LINE
  8
0
 10
-59.202
 20
40.4877
 11
-59.0597
 21
40.9567
  0
LINE
  8
0
 10
-59.0597
 20
40.9567
 11
-58.8287
 21
41.3889
  0
LINE
  8
0
 10
-58.8287
 20
41.3889
 11
-58.5178
 21
41.7678
  0
LINE
  8
0
 10
-58.5178
 20
41.7678
 11
-58.1389
 21
42.0787
  0
LINE
  8
0
 10
-58.1389
 20
42.0787
 11
-57.7067
 21
42.3097
  0
LINE
  8
0
 10
-57.7067
 20
42.3097
 11
-57.2377
 21
42.452
  0
LINE
  8
0
 10
-57.2377
 20
42.452
 11
-56.75
 21
42.5
  0
LINE
  8
0
 10
-56.75
 20
42.5
 11
-56.2623
 21
42.452
  0
LINE
  8
0
 10
-56.2623
 20
42.452
 11
-55.7933
 21
42.3097
  0
LINE
  8
0
 10
-55.7933
 20
42.3097
 11
-55.3611
 21
42.0787
  0
LINE
  8
0
 10
-55.3611
 20
42.0787
 11
-54.9822
 21
41.7678
  0
LINE
  8
0
 10
-54.9822
 20
41.7678
 11
-54.6713
 21
41.3889
  0
LINE
  8
0
 10
-54.6713
 20
41.3889
 11
-54.4403
 21
40.9567
  0
LINE
  8
0
 10
-54.4403
 20
40.9567
 11
-54.298
 21
40.4877
  0
LINE
  8
0
 10
-54.298
 20
40.4877
 11
-54.25
 21
40
  0
LINE
  8
0
 10
-54.25
 20
40
 11
-54.298
 21
39.5123
  0
LINE
  8
0
 10
-54.298
 20
39.5123
 11
-54.4403
 21
39.0433
  0
LINE
  8
0
 10
-54.4403
 20
39.0433
 11
-54.6713
 21
38.6111
  0
LINE
  8
0
 10
-54.6713
 20
38.6111
 11
-54.9822
 21
38.2322
  0
LINE
  8
0
 10
-54.9822
 20
38.2322
 11
-55.3611
 21
37.9213
  0
LINE
  8
0
 10
-55.3611
 20
37.9213
 11
-55.7933
 21
37.6903
  0
LINE
  8
0
 10
-55.7933
 20
37.6903
 11
-56.2623
 21
37.548
  0
LINE
  8
0
 10
-56.2623
 20
37.548
 11
-56.75
 21
37.5
  0
LINE
  8
0
 10
-56.75
 20
37.5
 11
-57.2377
 21
37.548
  0
LINE
  8
0
 10
56.2623
 20
37.548
 11
55.7933
 21
37.6903
  0
LINE
  8
0
 10
55.7933
 20
37.6903
 11
55.3611
 21
37.9213
  0
LINE
  8
0
 10
55.3611
 20
37.9213
 11
54.9822
 21
38.2322
  0
LINE
  8
0
 10
54.9822
 20
38.2322
 11
54.6713
 21
38.6111
  0
LINE
  8
0
 10
54.6713
 20
38.6111
 11
54.4403
 21
39.0433
  0
LINE
  8
0
 10
54.4403
 20
39.0433
 11
54.298
 21
39.5123
  0
LINE
  8
0
 10
54.298
 20
39.5123
 11
54.25
 21
40
  0
LINE
  8
0
 10
54.25
 20
40
 11
54.298
 21
40.4877
  0
LINE
  8
0
 10
54.298
 20
40.4877
 11
54.4403
 21
40.9567
  0
LINE
  8
0
 10
54.4403
 20
40.9567
 11
54.6713
 21
41.3889
  0
LINE
  8
0
 10
54.6713
 20
41.3889
 11
54.9822
 21
41.7678
  0
LINE
  8
0
 10
54.9822
 20
41.7678
 11
55.3611
 21
42.0787
  0
LINE
  8
0
 10
55.3611
 20
42.0787
 11
55.7933
 21
42.3097
  0
LINE
  8
0
 10
55.7933
 20
42.3097
 11
56.2623
 21
42.452
  0
LINE
  8
0
 10
56.2623
 20
42.452
 11
56.75
 21
42.5
  0
LINE
  8
0
 10
56.75
 20
42.5
 11
57.2377
 21
42.452
  0
LINE
  8
0
 10
57.2377
 20
42.452
 11
57.7067
 21
42.3097
  0
LINE
  8
0
 10
57.7067
 20
42.3097
 11
58.1389
 21
42.0787
  0
LINE
  8
0
 10
58.1389
 20
42.0787
 11
58.5178
 21
41.7678
  0
LINE
  8
0
 10
58.5178
 20
41.7678
 11
58.8287
 21
41.3889
  0
LINE
  8
0
 10
58.8287
 20
41.3889
 11
59.0597
 21
40.9567
  0
LINE
  8
0
 10
59.0597
 20
40.9567
 11
59.202
 21
40.4877
  0
LINE
  8
0
 10
59.202
 20
40.4877
 11
59.25
 21
40
  0
LINE
  8
0
 10
59.25
 20
40
 11
59.202
 21
39.5123
  0
LINE
  8
0
 10
59.202
 20
39.5123
 11
59.0597
 21
39.0433
  0
LINE
  8
0
 10
59.0597
 20
39.0433
 11
58.8287
 21
38.6111
  0
LINE
  8
0
 10
58.8287
 20
38.6111
 11
58.5178
 21
38.2322
  0
LINE
  8
0
 10
58.5178
 20
38.2322
 11
58.1389
 21
37.9213
  0
LINE
  8
0
 10
58.1389
 20
37.9213
 11
57.7067
 21
37.6903
  0
LINE
  8
0
 10
57.7067
 20
37.6903
 11
57.2377
 21
37.548
  0
LINE
  8
0
 10
57.2377
 20
37.548
 11
56.75
 21
37.5
  0
LINE
  8
0
 10
56.75
 20
37.5
 11
56.2623
 21
37.548
  0
LINE
  8
0
 10
-59.95
 20
2.54999
 11
-59.95
 21
27.45
  0
LINE
  8
0
 10
-59.95
 20
27.45
 11
-53.55
 21
27.45
  0
LINE
  8
0
 10
-53.55
 20
27.45
 11
-53.55
 21
2.54999
  0
LINE
  8
0
 10
-53.55
 20
2.54999
 11
-59.95
 21
2.54999
  0
LINE
  8
0
 10
53.55
 20
2.54999
 11
53.55
 21
27.45
  0
LINE
  8
0
 10
53.55
 20
27.45
 11
59.95
 21
27.45
  0
LINE
  8
0
 10
59.95
 20
27.45
 11
59.95
 21
2.54999
  0
LINE
  8
0
 10
59.95
 20
2.54999
 11
53.55
 21
2.54999
  0
LINE
  8
0
 10
37.75
 20
5
 11
37.75
 21
23.5
  0
LINE
  8
0
 10
37.75
 20
23.5
 11
50.25
 21
23.5
  0
LINE
  8
0
 10
50.25
 20
23.5
 11
50.25
 21
5
  0
LINE
  8
0
 10
50.25
 20
5
 11
37.75
 21
5
  0
LINE
  8
0
 10
-50.25
 20
5
 11
-50.25
 21
23.5
  0
LINE
  8
0
 10
-50.25
 20
23.5
 11
-37.75
 21
23.5
  0
LINE
  8
0
 10
-37.75
 20
23.5
 11
-37.75
 21
5
  0
LINE
  8
0
 10
-37.75
 20
5
 11
-50.25
 21
5
  0
LINE
  8
0
 10
-0.34729
 20
-3.61961
 11
-0.684036
 21
-3.52937
  0
LINE
  8
0
 10
-0.684036
 20
-3.52937
 11
-0.999985
 21
-3.38205
  0
LINE
  8
0
 10
-0.999985
 20
-3.38205
 11
-1.28557
 21
-3.18208
  0
LINE
  8
0
 10
-1.28557
 20
-3.18208
 11
-1.53207
 21
-2.93556
  0
LINE
  8
0
 10
-1.53207
 20
-2.93556
 11
-1.73204
 21
-2.64999
  0
LINE
  8
0
 10
-1.73204
 20
-2.64999
 11
-1.87938
 21
-2.33403
  0
LINE
  8
0
 10
-1.87938
 20
-2.33403
 11
-1.9696
 21
-1.99728
  0
LINE
  8
0
 10
-1.9696
 20
-1.99728
 11
-2
 21
-1.64999
  0
LINE
  8
0
 10
-2
 20
-1.64999
 11
-1.9696
 21
-1.30269
  0
LINE
  8
0
 10
-1.9696
 20
-1.30269
 11
-1.87938
 21
-0.965958
  0
LINE
  8
0
 10
-1.87938
 20
-0.965958
 11
-1.73204
 21
-0.649994
  0
LINE
  8
0
 10
-1.73204
 20
-0.649994
 11
-1.53207
 21
-0.36441
  0
LINE
  8
0
 10
-1.53207
 20
-0.36441
 11
-1.28557
 21
-0.117905
  0
LINE
  8
0
 10
-1.28557
 20
-0.117905
 11
-1
 21
0.0820465
  0
LINE
  8
0
 10
-1
 20
0.0820465
 11
-0.684036
 21
0.229385
  0
LINE
  8
0
 10
-0.684036
 20
0.229385
 11
-0.34729
 21
0.319611
  0
LINE
  8
0
 10
-0.34729
 20
0.319611
 11
0
 21
0.349991
  0
LINE
  8
0
 10
0
 20
0.349991
 11
0.34729
 21
0.319611
  0
LINE
  8
0
 10
0.34729
 20
0.319611
 11
0.684036
 21
0.229385
  0
LINE
  8
0
 10
0.684036
 20
0.229385
 11
1
 21
0.0820465
  0
LINE
  8
0
 10
1
 20
0.0820465
 11
1.28557
 21
-0.117905
  0
LINE
  8
0
 10
1.28557
 20
-0.117905
 11
1.53207
 21
-0.36441
  0
LINE
  8
0
 10
1.53207
 20
-0.36441
 11
1.73204
 21
-0.649994
  0
LINE
  8
0
 10
1.73204
 20
-0.649994
 11
1.87938
 21
-0.965958
  0
LINE
  8
0
 10
1.87938
 20
-0.965958
 11
1.9696
 21
-1.30269
  0
LINE
  8
0
 10
1.9696
 20
-1.30269
 11
2
 21
-1.64999
  0
LINE
  8
0
 10
2
 20
-1.64999
 11
1.9696
 21
-1.99728
  0
LINE
  8
0
 10
1.9696
 20
-1.99728
 11
1.87938
 21
-2.33403
  0
LINE
  8
0
 10
1.87938
 20
-2.33403
 11
1.73204
 21
-2.64999
  0
LINE
  8
0
 10
1.73204
 20
-2.64999
 11
1.53207
 21
-2.93556
  0
LINE
  8
0
 10
1.53207
 20
-2.93556
 11
1.28557
 21
-3.18208
  0
LINE
  8
0
 10
1.28557
 20
-3.18208
 11
1
 21
-3.38205
  0
LINE
  8
0
 10
1
 20
-3.38205
 11
0.684036
 21
-3.52937
  0
LINE
  8
0
 10
0.684036
 20
-3.52937
 11
0.34729
 21
-3.61961
  0
LINE
  8
0
 10
0.34729
 20
-3.61961
 11
0
 21
-3.64999
  0
LINE
  8
0
 10
0
 20
-3.64999
 11
-0.34729
 21
-3.61961
  0
LINE
  8
0
 10
-37.45
 20
-19.95
 11
-37.45
 21
-13.55
  0
LINE
  8
0
 10
-37.45
 20
-13.55
 11
-12.55
 21
-13.55
  0
LINE
  8
0
 10
-12.55
 20
-13.55
 11
-12.55
 21
-19.95
  0
LINE
  8
0
 10
-12.55
 20
-19.95
 11
-37.45
 21
-19.95
  0
LINE
  8
0
 10
12.55
 20
-19.95
 11
12.55
 21
-13.55
  0
LINE
  8
0
 10
12.55
 20
-13.55
 11
37.45
 21
-13.55
  0
LINE
  8
0
 10
37.45
 20
-13.55
 11
37.45
 21
-19.95
  0
LINE
  8
0
 10
37.45
 20
-19.95
 11
12.55
 21
-19.95
  0
LINE
  8
0
 10
0
 20
-19.25
 11
-0.487717
 21
-19.202
  0
LINE
  8
0
 10
-0.487717
 20
-19.202
 11
-0.956696
 21
-19.0597
  0
LINE
  8
0
 10
-0.956696
 20
-19.0597
 11
-1.38892
 21
-18.8287
  0
LINE
  8
0
 10
-1.38892
 20
-18.8287
 11
-1.76776
 21
-18.5178
  0
LINE
  8
0
 10
-1.76776
 20
-18.5178
 11
-2.07866
 21
-18.1389
  0
LINE
  8
0
 10
-2.07866
 20
-18.1389
 11
-2.30969
 21
-17.7067
  0
LINE
  8
0
 10
-2.30969
 20
-17.7067
 11
-2.45195
 21
-17.2377
  0
LINE
  8
0
 10
-2.45195
 20
-17.2377
 11
-2.5
 21
-16.75
  0
LINE
  8
0
 10
-2.5
 20
-16.75
 11
-2.45195
 21
-16.2623
  0
LINE
  8
0
 10
-2.45195
 20
-16.2623
 11
-2.30969
 21
-15.7933
  0
LINE
  8
0
 10
-2.30969
 20
-15.7933
 11
-2.07866
 21
-15.3611
  0
LINE
  8
0
 10
-2.07866
 20
-15.3611
 11
-1.76776
 21
-14.9822
  0
LINE
  8
0
 10
-1.76776
 20
-14.9822
 11
-1.38892
 21
-14.6713
  0
LINE
  8
0
 10
-1.38892
 20
-14.6713
 11
-0.956696
 21
-14.4403
  0
LINE
  8
0
 10
-0.956696
 20
-14.4403
 11
-0.487717
 21
-14.298
  0
LINE
  8
0
 10
-0.487717
 20
-14.298
 11
0
 21
-14.25
  0
LINE
  8
0
 10
0
 20
-14.25
 11
0.487717
 21
-14.298
  0
LINE
  8
0
 10
0.487717
 20
-14.298
 11
0.956696
 21
-14.4403
  0
LINE
  8
0
 10
0.956696
 20
-14.4403
 11
1.38892
 21
-14.6713
  0
LINE
  8
0
 10
1.38892
 20
-14.6713
 11
1.76776
 21
-14.9822
  0
LINE
  8
0
 10
1.76776
 20
-14.9822
 11
2.07866
 21
-15.3611
  0
LINE
  8
0
 10
2.07866
 20
-15.3611
 11
2.30969
 21
-15.7933
  0
LINE
  8
0
 10
2.30969
 20
-15.7933
 11
2.45195
 21
-16.2623
  0
LINE
  8
0
 10
2.45195
 20
-16.2623
 11
2.5
 21
-16.75
  0
LINE
  8
0
 10
2.5
 20
-16.75
 11
2.45195
 21
-17.2377
  0
LINE
  8
0
 10
2.45195
 20
-17.2377
 11
2.30969
 21
-17.7067
  0
LINE
  8
0
 10
2.30969
 20
-17.7067
 11
2.07866
 21
-18.1389
  0
LINE
  8
0
 10
2.07866
 20
-18.1389
 11
1.76776
 21
-18.5178
  0
LINE
  8
0
 10
1.76776
 20
-18.5178
 11
1.38892
 21
-18.8287
  0
LINE
  8
0
 10
1.38892
 20
-18.8287
 11
0.956696
 21
-19.0597
  0
LINE
  8
0
 10
0.956696
 20
-19.0597
 11
0.487717
 21
-19.202
  0
LINE
  8
0
 10
0.487717
 20
-19.202
 11
0
 21
-19.25
  0
ENDSEC
  0
SECTION
  2
OBJECTS
  0
DICTIONARY
  0
ENDSEC
  0
EOF
