solid OpenSCAD_Model
  facet normal -1 0 0
    outer loop
      vertex -10 -10 6
      vertex -10 10 0
      vertex -10 -10 0
    endloop
  endfacet
  facet normal -1 0 0
    outer loop
      vertex -10 -10 6
      vertex -10 10 6
      vertex -10 10 0
    endloop
  endfacet
  facet normal 0 -1 0
    outer loop
      vertex 10 -10 0
      vertex -10 -10 6
      vertex -10 -10 0
    endloop
  endfacet
  facet normal 0 -1 0
    outer loop
      vertex 10 -10 0
      vertex 10 -10 6
      vertex -10 -10 6
    endloop
  endfacet
  facet normal -0 0 -1
    outer loop
      vertex 7.5 -7.5 0
      vertex -10 -10 0
      vertex -7.5 -7.5 0
    endloop
  endfacet
  facet normal 0 0 -1
    outer loop
      vertex -10 10 0
      vertex 7.5 7.5 0
      vertex -7.5 7.5 0
    endloop
  endfacet
  facet normal 0 0 -1
    outer loop
      vertex -10 10 0
      vertex -7.5 -7.5 0
      vertex -10 -10 0
    endloop
  endfacet
  facet normal 0 0 -1
    outer loop
      vertex -10 10 0
      vertex 10 10 0
      vertex 7.5 7.5 0
    endloop
  endfacet
  facet normal -0 -0 -1
    outer loop
      vertex -7.5 7.5 0
      vertex -7.5 -7.5 0
      vertex -10 10 0
    endloop
  endfacet
  facet normal 0 -0 -1
    outer loop
      vertex 7.5 -7.5 0
      vertex 10 -10 0
      vertex -10 -10 0
    endloop
  endfacet
  facet normal 0 0 -1
    outer loop
      vertex 7.5 7.5 0
      vertex 10 10 0
      vertex 10 -10 0
    endloop
  endfacet
  facet normal 0 0 -1
    outer loop
      vertex 7.5 7.5 0
      vertex 10 -10 0
      vertex 7.5 -7.5 0
    endloop
  endfacet
  facet normal 0 1 0
    outer loop
      vertex -10 10 6
      vertex 10 10 0
      vertex -10 10 0
    endloop
  endfacet
  facet normal -0 1 0
    outer loop
      vertex -10 10 6
      vertex 10 10 6
      vertex 10 10 0
    endloop
  endfacet
  facet normal 0 0 1
    outer loop
      vertex 10 10 6
      vertex -10 10 6
      vertex 7.5 7.5 6
    endloop
  endfacet
  facet normal 0 0 1
    outer loop
      vertex 10 -10 6
      vertex -7.5 -7.5 6
      vertex -10 -10 6
    endloop
  endfacet
  facet normal 0 0 1
    outer loop
      vertex -7.5 7.5 6
      vertex -10 10 6
      vertex -10 -10 6
    endloop
  endfacet
  facet normal 0 0 1
    outer loop
      vertex -10 10 6
      vertex -7.5 7.5 6
      vertex 7.5 7.5 6
    endloop
  endfacet
  facet normal 0 0 1
    outer loop
      vertex -7.5 7.5 6
      vertex -10 -10 6
      vertex -7.5 -7.5 6
    endloop
  endfacet
  facet normal 0 0 1
    outer loop
      vertex 10 10 6
      vertex 7.5 7.5 6
      vertex 10 -10 6
    endloop
  endfacet
  facet normal 0 0 1
    outer loop
      vertex 7.5 7.5 6
      vertex 7.5 -7.5 6
      vertex 10 -10 6
    endloop
  endfacet
  facet normal 0 0 1
    outer loop
      vertex 7.5 -7.5 6
      vertex -7.5 -7.5 6
      vertex 10 -10 6
    endloop
  endfacet
  facet normal 1 0 0
    outer loop
      vertex 10 10 0
      vertex 10 -10 6
      vertex 10 -10 0
    endloop
  endfacet
  facet normal 1 0 -0
    outer loop
      vertex 10 10 0
      vertex 10 10 6
      vertex 10 -10 6
    endloop
  endfacet
  facet normal 1 -0 0
    outer loop
      vertex -7.5 -7.5 6
      vertex -7.5 7.5 0
      vertex -7.5 7.5 6
    endloop
  endfacet
  facet normal 1 0 0
    outer loop
      vertex -7.5 -7.5 6
      vertex -7.5 -7.5 0
      vertex -7.5 7.5 0
    endloop
  endfacet
  facet normal 0 1 -0
    outer loop
      vertex 7.5 -7.5 0
      vertex -7.5 -7.5 6
      vertex 7.5 -7.5 6
    endloop
  endfacet
  facet normal 0 1 0
    outer loop
      vertex 7.5 -7.5 0
      vertex -7.5 -7.5 0
      vertex -7.5 -7.5 6
    endloop
  endfacet
  facet normal 0 -1 0
    outer loop
      vertex -7.5 7.5 6
      vertex 7.5 7.5 0
      vertex 7.5 7.5 6
    endloop
  endfacet
  facet normal 0 -1 0
    outer loop
      vertex -7.5 7.5 6
      vertex -7.5 7.5 0
      vertex 7.5 7.5 0
    endloop
  endfacet
  facet normal -1 0 0
    outer loop
      vertex 7.5 7.5 0
      vertex 7.5 -7.5 6
      vertex 7.5 7.5 6
    endloop
  endfacet
  facet normal -1 0 0
    outer loop
      vertex 7.5 7.5 0
      vertex 7.5 -7.5 0
      vertex 7.5 -7.5 6
    endloop
  endfacet
endsolid OpenSCAD_Model
