  0
SECTION
  2
HEADER
  9
$ACADVER
  1
AC1014
  9
$HANDSEED
  5
FFFF
  9
$MEASUREMENT
 70
     1
  0
ENDSEC
  0
SECTION
  2
TABLES
  0
TABLE
  2
VPORT
  5
8
330
0
100
AcDbSymbolTable
 70
     4
  0
VPORT
  5
2E
330
8
100
AcDbSymbolTableRecord
100
AcDbViewportTableRecord
  2
*ACTIVE
 70
     0
 10
0.0
 20
0.0
 11
1.0
 21
1.0
 12
210.0
 22
148.5
 13
0.0
 23
0.0
 14
10.0
 24
10.0
 15
10.0
 25
10.0
 16
0.0
 26
0.0
 36
1.0
 17
0.0
 27
0.0
 37
0.0
 40
341.0
 41
1.24
 42
50.0
 43
0.0
 44
0.0
 50
0.0
 51
0.0
 71
     0
 72
   100
 73
     1
 74
     3
 75
     0
 76
     0
 77
     0
 78
     0
  0
ENDTAB
  0
TABLE
  2
LTYPE
  5
5
330
0
100
AcDbSymbolTable
 70
     1
  0
LTYPE
  5
14
330
5
100
AcDbSymbolTableRecord
100
AcDbLinetypeTableRecord
  2
BYBLOCK
 70
     0
  3

 72
    65
 73
     0
 40
0.0
  0
LTYPE
  5
15
330
5
100
AcDbSymbolTableRecord
100
AcDbLinetypeTableRecord
  2
BYLAYER
 70
     0
  3

 72
    65
 73
     0
 40
0.0
  0
LTYPE
  5
16
330
5
100
AcDbSymbolTableRecord
100
AcDbLinetypeTableRecord
  2
CONTINUOUS
 70
     0
  3
Solid line
 72
    65
 73
     0
 40
0.0
  0
ENDTAB
  0
TABLE
  2
LAYER
  5
2
100
AcDbSymbolTable
 70
2
  0
LAYER
  5
50
100
AcDbSymbolTableRecord
100
AcDbLayerTableRecord
  2
0
 70
0
  6
CONTINUOUS
  0
LAYER
  5
51
100
AcDbSymbolTableRecord
100
AcDbLayerTableRecord
  2
Layer_1
 70
0
  6
CONTINUOUS
  0
ENDTAB
  0
TABLE
  2
STYLE
  5
3
330
0
100
AcDbSymbolTable
 70
     1
  0
STYLE
  5
11
330
3
100
AcDbSymbolTableRecord
100
AcDbTextStyleTableRecord
  2
STANDARD
 70
     0
 40
0.0
 41
1.0
 50
0.0
 71
     0
 42
2.5
  3
txt
  4

  0
ENDTAB
  0
TABLE
  2
VIEW
  5
6
330
0
100
AcDbSymbolTable
 70
     0
  0
ENDTAB
  0
TABLE
  2
UCS
  5
7
330
0
100
AcDbSymbolTable
 70
     0
  0
ENDTAB
  0
TABLE
  2
APPID
  5
9
330
0
100
AcDbSymbolTable
 70
     2
  0
APPID
  5
12
330
9
100
AcDbSymbolTableRecord
100
AcDbRegAppTableRecord
  2
ACAD
 70
     0
  0
ENDTAB
  0
TABLE
  2
DIMSTYLE
  5
A
330
0
100
AcDbSymbolTable
 70
     1
  0
DIMSTYLE
105
27
330
A
100
AcDbSymbolTableRecord
100
AcDbDimStyleTableRecord
  2
ISO-25
 70
     0
  3

  4

  5

  6

  7

 40
1.0
 41
2.5
 42
0.625
 43
3.75
 44
1.25
 45
0.0
 46
0.0
 47
0.0
 48
0.0
140
2.5
141
2.5
142
0.0
143
0.03937007874016
144
1.0
145
0.0
146
1.0
147
0.625
 71
     0
 72
     0
 73
     0
 74
     0
 75
     0
 76
     0
 77
     1
 78
     8
170
     0
171
     3
172
     1
173
     0
174
     0
175
     0
176
     0
177
     0
178
     0
270
     2
271
     2
272
     2
273
     2
274
     3
340
11
275
     0
280
     0
281
     0
282
     0
283
     0
284
     8
285
     0
286
     0
287
     3
288
     0
  0
ENDTAB
  0
TABLE
  2
BLOCK_RECORD
  5
1
330
0
100
AcDbSymbolTable
 70
     1
  0
BLOCK_RECORD
  5
1F
330
1
100
AcDbSymbolTableRecord
100
AcDbBlockTableRecord
  2
*MODEL_SPACE
  0
BLOCK_RECORD
  5
1B
330
1
100
AcDbSymbolTableRecord
100
AcDbBlockTableRecord
  2
*PAPER_SPACE
  0
ENDTAB
  0
ENDSEC
  0
SECTION
  2
BLOCKS
  0
BLOCK
  5
20
330
1F
100
AcDbEntity
  8
0
100
AcDbBlockBegin
  2
*MODEL_SPACE
 70
     0
 10
0.0
 20
0.0
 30
0.0
  3
*MODEL_SPACE
  1

  0
ENDBLK
  5
21
330
1F
100
AcDbEntity
  8
0
100
AcDbBlockEnd
  0
BLOCK
  5
1C
330
1B
100
AcDbEntity
 67
     1
  8
0
100
AcDbBlockBegin
  2
*PAPER_SPACE
  1

  0
ENDBLK
  5
1D
330
1B
100
AcDbEntity
 67
     1
  8
0
100
AcDbBlockEnd
  0
ENDSEC
  0
SECTION
  2
ENTITIES
  0
LWPOLYLINE
  5
100
100
AcDbEntity
  8
Layer_1
 62
5
100
AcDbPolyline
 90
35
 70
0
 10
58.142830
 20
-138.017692
 30
0.0
 10
50.672294
 20
-146.617124
 30
0.0
 10
-17.217305
 20
-146.619946
 30
0.0
 10
-17.194445
 20
-118.592937
 30
0.0
 10
-14.229447
 20
-118.027364
 30
0.0
 10
-12.251888
 20
-116.922154
 30
0.0
 10
-10.632242
 20
-115.501221
 30
0.0
 10
-9.382591
 20
-113.622806
 30
0.0
 10
-9.382591
 20
-104.005068
 30
0.0
 10
-10.632242
 20
-102.126654
 30
0.0
 10
-12.251888
 20
-100.705749
 30
0.0
 10
-14.229447
 20
-99.600511
 30
0.0
 10
-17.194643
 20
-99.034824
 30
0.0
 10
-17.194671
 20
-83.229703
 30
0.0
 10
-17.194671
 20
-67.424609
 30
0.0
 10
-17.194699
 20
-51.619487
 30
0.0
 10
-17.194728
 20
-35.814394
 30
0.0
 10
-17.194756
 20
-20.009278
 30
0.0
 10
-17.182902
 20
-4.566066
 30
0.0
 10
-15.851096
 20
-4.392240
 30
0.0
 10
-14.621030
 20
-3.881694
 30
0.0
 10
-13.564757
 20
-3.069586
 30
0.0
 10
-12.754158
 20
-2.011157
 30
0.0
 10
-12.244663
 20
-0.778605
 30
0.0
 10
-12.070927
 20
1.108494
 30
0.0
 10
-12.244663
 20
2.995593
 30
0.0
 10
-12.754158
 20
4.228145
 30
0.0
 10
-13.564757
 20
5.286571
 30
0.0
 10
-14.621030
 20
6.098680
 30
0.0
 10
-15.851096
 20
6.609225
 30
0.0
 10
-17.182902
 20
6.784437
 30
0.0
 10
-17.194756
 20
27.406045
 30
0.0
 10
51.220370
 20
27.377468
 30
0.0
 10
58.052660
 20
20.611500
 30
0.0
 10
58.142830
 20
-138.017692
 30
0.0
  0
LWPOLYLINE
  5
101
100
AcDbEntity
  8
Layer_1
 62
7
100
AcDbPolyline
 90
2
 70
0
 10
45.404617
 20
-128.389887
 30
0.0
 10
46.699029
 20
-127.396662
 30
0.0
  0
LWPOLYLINE
  5
102
100
AcDbEntity
  8
Layer_1
 62
7
100
AcDbPolyline
 90
3
 70
0
 10
48.316670
 20
-124.594873
 30
0.0
 10
48.529635
 20
-122.977231
 30
0.0
 10
48.316670
 20
-121.359618
 30
0.0
  0
LWPOLYLINE
  5
103
100
AcDbEntity
  8
Layer_1
 62
7
100
AcDbPolyline
 90
2
 70
0
 10
47.692282
 20
-119.852241
 30
0.0
 10
46.699029
 20
-118.557829
 30
0.0
  0
LWPOLYLINE
  5
104
100
AcDbEntity
  8
Layer_1
 62
7
100
AcDbPolyline
 90
2
 70
0
 10
36.029618
 20
-122.977231
 30
0.0
 10
36.242583
 20
-124.594873
 30
0.0
  0
LWPOLYLINE
  5
105
100
AcDbEntity
  8
Layer_1
 62
7
100
AcDbPolyline
 90
5
 70
0
 10
36.866971
 20
-126.102250
 30
0.0
 10
37.860196
 20
-127.396662
 30
0.0
 10
39.154636
 20
-128.389887
 30
0.0
 10
40.662013
 20
-129.014275
 30
0.0
 10
42.279626
 20
-129.227240
 30
0.0
  0
LWPOLYLINE
  5
106
100
AcDbEntity
  8
Layer_1
 62
7
100
AcDbPolyline
 90
2
 70
0
 10
43.897240
 20
-129.014275
 30
0.0
 10
45.404617
 20
-128.389887
 30
0.0
  0
LWPOLYLINE
  5
107
100
AcDbEntity
  8
Layer_1
 62
7
100
AcDbPolyline
 90
2
 70
0
 10
47.692282
 20
-126.102250
 30
0.0
 10
48.316670
 20
-124.594873
 30
0.0
  0
LWPOLYLINE
  5
108
100
AcDbEntity
  8
Layer_1
 62
7
100
AcDbPolyline
 90
5
 70
0
 10
46.699029
 20
-118.557829
 30
0.0
 10
45.404617
 20
-117.564576
 30
0.0
 10
43.897240
 20
-116.940216
 30
0.0
 10
42.279626
 20
-116.727251
 30
0.0
 10
40.662013
 20
-116.940216
 30
0.0
  0
LWPOLYLINE
  5
109
100
AcDbEntity
  8
Layer_1
 62
7
100
AcDbPolyline
 90
3
 70
0
 10
39.154636
 20
-117.564576
 30
0.0
 10
37.860196
 20
-118.557829
 30
0.0
 10
36.866971
 20
-119.852241
 30
0.0
  0
LWPOLYLINE
  5
10a
100
AcDbEntity
  8
Layer_1
 62
7
100
AcDbPolyline
 90
2
 70
0
 10
36.242583
 20
-121.359618
 30
0.0
 10
36.029618
 20
-122.977231
 30
0.0
  0
LWPOLYLINE
  5
10b
100
AcDbEntity
  8
Layer_1
 62
7
100
AcDbPolyline
 90
2
 70
0
 10
42.279626
 20
-129.227240
 30
0.0
 10
43.897240
 20
-129.014275
 30
0.0
  0
LWPOLYLINE
  5
10c
100
AcDbEntity
  8
Layer_1
 62
7
100
AcDbPolyline
 90
2
 70
0
 10
36.866971
 20
-119.852241
 30
0.0
 10
36.242583
 20
-121.359618
 30
0.0
  0
LWPOLYLINE
  5
10d
100
AcDbEntity
  8
Layer_1
 62
7
100
AcDbPolyline
 90
2
 70
0
 10
36.242583
 20
-124.594873
 30
0.0
 10
36.866971
 20
-126.102250
 30
0.0
  0
LWPOLYLINE
  5
10e
100
AcDbEntity
  8
Layer_1
 62
7
100
AcDbPolyline
 90
2
 70
0
 10
48.316670
 20
-121.359618
 30
0.0
 10
47.692282
 20
-119.852241
 30
0.0
  0
LWPOLYLINE
  5
10f
100
AcDbEntity
  8
Layer_1
 62
7
100
AcDbPolyline
 90
2
 70
0
 10
40.662013
 20
-116.940216
 30
0.0
 10
39.154636
 20
-117.564576
 30
0.0
  0
LWPOLYLINE
  5
110
100
AcDbEntity
  8
Layer_1
 62
7
100
AcDbPolyline
 90
2
 70
0
 10
46.699029
 20
-127.396662
 30
0.0
 10
47.692282
 20
-126.102250
 30
0.0
  0
LWPOLYLINE
  5
111
100
AcDbEntity
  8
Layer_1
 62
7
100
AcDbPolyline
 90
5
 70
0
 10
26.643330
 20
-124.012507
 30
0.0
 10
26.779615
 20
-122.977231
 30
0.0
 10
26.643330
 20
-121.941956
 30
0.0
 10
26.243732
 20
-120.977235
 30
0.0
 10
25.608054
 20
-120.148800
 30
0.0
  0
LWPOLYLINE
  5
112
100
AcDbEntity
  8
Layer_1
 62
7
100
AcDbPolyline
 90
2
 70
0
 10
24.779619
 20
-119.513151
 30
0.0
 10
23.814899
 20
-119.113524
 30
0.0
  0
LWPOLYLINE
  5
113
100
AcDbEntity
  8
Layer_1
 62
7
100
AcDbPolyline
 90
3
 70
0
 10
22.779623
 20
-118.977239
 30
0.0
 10
21.744347
 20
-119.113524
 30
0.0
 10
20.779627
 20
-119.513151
 30
0.0
  0
LWPOLYLINE
  5
114
100
AcDbEntity
  8
Layer_1
 62
7
100
AcDbPolyline
 90
2
 70
0
 10
18.915916
 20
-121.941956
 30
0.0
 10
18.779631
 20
-122.977231
 30
0.0
  0
LWPOLYLINE
  5
115
100
AcDbEntity
  8
Layer_1
 62
7
100
AcDbPolyline
 90
3
 70
0
 10
18.915916
 20
-124.012507
 30
0.0
 10
19.315515
 20
-124.977227
 30
0.0
 10
19.951192
 20
-125.805662
 30
0.0
  0
LWPOLYLINE
  5
116
100
AcDbEntity
  8
Layer_1
 62
7
100
AcDbPolyline
 90
3
 70
0
 10
20.779627
 20
-126.441340
 30
0.0
 10
21.744347
 20
-126.840938
 30
0.0
 10
22.779623
 20
-126.977252
 30
0.0
  0
LWPOLYLINE
  5
117
100
AcDbEntity
  8
Layer_1
 62
7
100
AcDbPolyline
 90
2
 70
0
 10
25.608054
 20
-125.805662
 30
0.0
 10
26.243732
 20
-124.977227
 30
0.0
  0
LWPOLYLINE
  5
118
100
AcDbEntity
  8
Layer_1
 62
7
100
AcDbPolyline
 90
2
 70
0
 10
19.951192
 20
-125.805662
 30
0.0
 10
20.779627
 20
-126.441340
 30
0.0
  0
LWPOLYLINE
  5
119
100
AcDbEntity
  8
Layer_1
 62
7
100
AcDbPolyline
 90
2
 70
0
 10
23.814899
 20
-119.113524
 30
0.0
 10
22.779623
 20
-118.977239
 30
0.0
  0
LWPOLYLINE
  5
11a
100
AcDbEntity
  8
Layer_1
 62
7
100
AcDbPolyline
 90
2
 70
0
 10
24.779619
 20
-126.441340
 30
0.0
 10
25.608054
 20
-125.805662
 30
0.0
  0
LWPOLYLINE
  5
11b
100
AcDbEntity
  8
Layer_1
 62
7
100
AcDbPolyline
 90
2
 70
0
 10
18.779631
 20
-122.977231
 30
0.0
 10
18.915916
 20
-124.012507
 30
0.0
  0
LWPOLYLINE
  5
11c
100
AcDbEntity
  8
Layer_1
 62
7
100
AcDbPolyline
 90
2
 70
0
 10
23.814899
 20
-126.840938
 30
0.0
 10
24.779619
 20
-126.441340
 30
0.0
  0
LWPOLYLINE
  5
11d
100
AcDbEntity
  8
Layer_1
 62
7
100
AcDbPolyline
 90
2
 70
0
 10
19.951192
 20
-120.148800
 30
0.0
 10
19.315515
 20
-120.977235
 30
0.0
  0
LWPOLYLINE
  5
11e
100
AcDbEntity
  8
Layer_1
 62
7
100
AcDbPolyline
 90
2
 70
0
 10
26.243732
 20
-124.977227
 30
0.0
 10
26.643330
 20
-124.012507
 30
0.0
  0
LWPOLYLINE
  5
11f
100
AcDbEntity
  8
Layer_1
 62
7
100
AcDbPolyline
 90
2
 70
0
 10
25.608054
 20
-120.148800
 30
0.0
 10
24.779619
 20
-119.513151
 30
0.0
  0
LWPOLYLINE
  5
120
100
AcDbEntity
  8
Layer_1
 62
7
100
AcDbPolyline
 90
2
 70
0
 10
22.779623
 20
-126.977252
 30
0.0
 10
23.814899
 20
-126.840938
 30
0.0
  0
LWPOLYLINE
  5
121
100
AcDbEntity
  8
Layer_1
 62
7
100
AcDbPolyline
 90
2
 70
0
 10
19.315515
 20
-120.977235
 30
0.0
 10
18.915916
 20
-121.941956
 30
0.0
  0
LWPOLYLINE
  5
122
100
AcDbEntity
  8
Layer_1
 62
7
100
AcDbPolyline
 90
2
 70
0
 10
20.779627
 20
-119.513151
 30
0.0
 10
19.951192
 20
-120.148800
 30
0.0
  0
LWPOLYLINE
  5
123
100
AcDbEntity
  8
Layer_1
 62
7
100
AcDbPolyline
 90
2
 70
0
 10
39.479615
 20
0.522756
 30
0.0
 10
-1.520388
 20
0.522756
 30
0.0
  0
LWPOLYLINE
  5
124
100
AcDbEntity
  8
Layer_1
 62
7
100
AcDbPolyline
 90
2
 70
0
 10
39.479615
 20
-98.977251
 30
0.0
 10
39.479615
 20
0.522756
 30
0.0
  0
LWPOLYLINE
  5
125
100
AcDbEntity
  8
Layer_1
 62
7
100
AcDbPolyline
 90
3
 70
0
 10
-1.520388
 20
0.522756
 30
0.0
 10
-1.520388
 20
-98.977251
 30
0.0
 10
39.479615
 20
-98.977251
 30
0.0
  0
LWPOLYLINE
  5
126
100
AcDbEntity
  8
Layer_1
 62
7
100
AcDbPolyline
 90
5
 70
0
 10
9.779621
 20
-145.232514
 30
0.0
 10
29.779609
 20
-145.232514
 30
0.0
 10
29.779609
 20
-138.632493
 30
0.0
 10
9.779621
 20
-138.632493
 30
0.0
 10
9.779621
 20
-145.232514
 30
0.0
  0
LWPOLYLINE
  5
127
100
AcDbEntity
  8
Layer_1
 62
7
100
AcDbPolyline
 90
5
 70
0
 10
29.779609
 20
22.044540
 30
0.0
 10
9.779621
 20
22.044540
 30
0.0
 10
9.779621
 20
15.444548
 30
0.0
 10
29.779609
 20
15.444548
 30
0.0
 10
29.779609
 20
22.044540
 30
0.0
  0
LWPOLYLINE
  5
128
100
AcDbEntity
  8
Layer_1
 62
7
100
AcDbPolyline
 90
2
 70
0
 10
38.245486
 20
-140.193831
 30
0.0
 10
38.679628
 20
-140.373663
 30
0.0
  0
LWPOLYLINE
  5
129
100
AcDbEntity
  8
Layer_1
 62
7
100
AcDbPolyline
 90
2
 70
0
 10
37.779621
 20
-140.132504
 30
0.0
 10
38.245486
 20
-140.193831
 30
0.0
  0
LWPOLYLINE
  5
12a
100
AcDbEntity
  8
Layer_1
 62
7
100
AcDbPolyline
 90
2
 70
0
 10
37.313757
 20
-140.193831
 30
0.0
 10
37.779621
 20
-140.132504
 30
0.0
  0
LWPOLYLINE
  5
12b
100
AcDbEntity
  8
Layer_1
 62
7
100
AcDbPolyline
 90
2
 70
0
 10
39.052415
 20
-140.659724
 30
0.0
 10
39.338476
 20
-141.032511
 30
0.0
  0
LWPOLYLINE
  5
12c
100
AcDbEntity
  8
Layer_1
 62
7
100
AcDbPolyline
 90
2
 70
0
 10
38.679628
 20
-140.373663
 30
0.0
 10
39.052415
 20
-140.659724
 30
0.0
  0
LWPOLYLINE
  5
12d
100
AcDbEntity
  8
Layer_1
 62
7
100
AcDbPolyline
 90
2
 70
0
 10
36.879615
 20
-140.373663
 30
0.0
 10
37.313757
 20
-140.193831
 30
0.0
  0
LWPOLYLINE
  5
12e
100
AcDbEntity
  8
Layer_1
 62
7
100
AcDbPolyline
 90
2
 70
0
 10
36.506827
 20
-140.659724
 30
0.0
 10
36.879615
 20
-140.373663
 30
0.0
  0
LWPOLYLINE
  5
12f
100
AcDbEntity
  8
Layer_1
 62
7
100
AcDbPolyline
 90
2
 70
0
 10
36.220767
 20
-141.032511
 30
0.0
 10
36.506827
 20
-140.659724
 30
0.0
  0
LWPOLYLINE
  5
130
100
AcDbEntity
  8
Layer_1
 62
7
100
AcDbPolyline
 90
2
 70
0
 10
36.040963
 20
-141.466625
 30
0.0
 10
36.220767
 20
-141.032511
 30
0.0
  0
LWPOLYLINE
  5
131
100
AcDbEntity
  8
Layer_1
 62
7
100
AcDbPolyline
 90
2
 70
0
 10
35.979636
 20
-141.932489
 30
0.0
 10
36.040963
 20
-141.466625
 30
0.0
  0
LWPOLYLINE
  5
132
100
AcDbEntity
  8
Layer_1
 62
7
100
AcDbPolyline
 90
2
 70
0
 10
36.040963
 20
-142.398382
 30
0.0
 10
35.979636
 20
-141.932489
 30
0.0
  0
LWPOLYLINE
  5
133
100
AcDbEntity
  8
Layer_1
 62
7
100
AcDbPolyline
 90
2
 70
0
 10
36.220767
 20
-142.832496
 30
0.0
 10
36.040963
 20
-142.398382
 30
0.0
  0
LWPOLYLINE
  5
134
100
AcDbEntity
  8
Layer_1
 62
7
100
AcDbPolyline
 90
2
 70
0
 10
36.506827
 20
-143.205283
 30
0.0
 10
36.220767
 20
-142.832496
 30
0.0
  0
LWPOLYLINE
  5
135
100
AcDbEntity
  8
Layer_1
 62
7
100
AcDbPolyline
 90
2
 70
0
 10
36.879615
 20
-143.491344
 30
0.0
 10
36.506827
 20
-143.205283
 30
0.0
  0
LWPOLYLINE
  5
136
100
AcDbEntity
  8
Layer_1
 62
7
100
AcDbPolyline
 90
2
 70
0
 10
37.313757
 20
-143.671176
 30
0.0
 10
36.879615
 20
-143.491344
 30
0.0
  0
LWPOLYLINE
  5
137
100
AcDbEntity
  8
Layer_1
 62
7
100
AcDbPolyline
 90
2
 70
0
 10
37.779621
 20
-143.732503
 30
0.0
 10
37.313757
 20
-143.671176
 30
0.0
  0
LWPOLYLINE
  5
138
100
AcDbEntity
  8
Layer_1
 62
7
100
AcDbPolyline
 90
2
 70
0
 10
38.245486
 20
-143.671176
 30
0.0
 10
37.779621
 20
-143.732503
 30
0.0
  0
LWPOLYLINE
  5
139
100
AcDbEntity
  8
Layer_1
 62
7
100
AcDbPolyline
 90
2
 70
0
 10
38.679628
 20
-143.491344
 30
0.0
 10
38.245486
 20
-143.671176
 30
0.0
  0
LWPOLYLINE
  5
13a
100
AcDbEntity
  8
Layer_1
 62
7
100
AcDbPolyline
 90
2
 70
0
 10
39.052415
 20
-143.205283
 30
0.0
 10
38.679628
 20
-143.491344
 30
0.0
  0
LWPOLYLINE
  5
13b
100
AcDbEntity
  8
Layer_1
 62
7
100
AcDbPolyline
 90
2
 70
0
 10
39.338476
 20
-142.832496
 30
0.0
 10
39.052415
 20
-143.205283
 30
0.0
  0
LWPOLYLINE
  5
13c
100
AcDbEntity
  8
Layer_1
 62
7
100
AcDbPolyline
 90
2
 70
0
 10
39.518280
 20
-142.398382
 30
0.0
 10
39.338476
 20
-142.832496
 30
0.0
  0
LWPOLYLINE
  5
13d
100
AcDbEntity
  8
Layer_1
 62
7
100
AcDbPolyline
 90
2
 70
0
 10
39.579635
 20
-141.932489
 30
0.0
 10
39.518280
 20
-142.398382
 30
0.0
  0
LWPOLYLINE
  5
13e
100
AcDbEntity
  8
Layer_1
 62
7
100
AcDbPolyline
 90
2
 70
0
 10
39.518280
 20
-141.466625
 30
0.0
 10
39.579635
 20
-141.932489
 30
0.0
  0
LWPOLYLINE
  5
13f
100
AcDbEntity
  8
Layer_1
 62
7
100
AcDbPolyline
 90
2
 70
0
 10
39.338476
 20
-141.032511
 30
0.0
 10
39.518280
 20
-141.466625
 30
0.0
  0
LWPOLYLINE
  5
140
100
AcDbEntity
  8
Layer_1
 62
7
100
AcDbPolyline
 90
2
 70
0
 10
-0.608612
 20
-132.528337
 30
0.0
 10
-0.970393
 20
-132.678197
 30
0.0
  0
LWPOLYLINE
  5
141
100
AcDbEntity
  8
Layer_1
 62
7
100
AcDbPolyline
 90
3
 70
0
 10
1.228485
 20
-134.365462
 30
0.0
 10
1.279596
 20
-133.977238
 30
0.0
 10
1.228485
 20
-133.589013
 30
0.0
  0
LWPOLYLINE
  5
142
100
AcDbEntity
  8
Layer_1
 62
7
100
AcDbPolyline
 90
2
 70
0
 10
0.840260
 20
-132.916590
 30
0.0
 10
0.529618
 20
-132.678197
 30
0.0
  0
LWPOLYLINE
  5
143
100
AcDbEntity
  8
Layer_1
 62
7
100
AcDbPolyline
 90
2
 70
0
 10
-1.281063
 20
-132.916590
 30
0.0
 10
-1.519428
 20
-133.227232
 30
0.0
  0
LWPOLYLINE
  5
144
100
AcDbEntity
  8
Layer_1
 62
7
100
AcDbPolyline
 90
2
 70
0
 10
0.529618
 20
-132.678197
 30
0.0
 10
0.167838
 20
-132.528337
 30
0.0
  0
LWPOLYLINE
  5
145
100
AcDbEntity
  8
Layer_1
 62
7
100
AcDbPolyline
 90
3
 70
0
 10
-1.519428
 20
-133.227232
 30
0.0
 10
-1.669288
 20
-133.589013
 30
0.0
 10
-1.720398
 20
-133.977238
 30
0.0
  0
LWPOLYLINE
  5
146
100
AcDbEntity
  8
Layer_1
 62
7
100
AcDbPolyline
 90
3
 70
0
 10
-1.519428
 20
-134.727243
 30
0.0
 10
-1.281063
 20
-135.037885
 30
0.0
 10
-0.970393
 20
-135.276278
 30
0.0
  0
LWPOLYLINE
  5
147
100
AcDbEntity
  8
Layer_1
 62
7
100
AcDbPolyline
 90
4
 70
0
 10
-0.608612
 20
-135.426138
 30
0.0
 10
-0.220387
 20
-135.477249
 30
0.0
 10
0.167838
 20
-135.426138
 30
0.0
 10
0.529618
 20
-135.276278
 30
0.0
  0
LWPOLYLINE
  5
148
100
AcDbEntity
  8
Layer_1
 62
7
100
AcDbPolyline
 90
3
 70
0
 10
0.840260
 20
-135.037885
 30
0.0
 10
1.078653
 20
-134.727243
 30
0.0
 10
1.228485
 20
-134.365462
 30
0.0
  0
LWPOLYLINE
  5
149
100
AcDbEntity
  8
Layer_1
 62
7
100
AcDbPolyline
 90
3
 70
0
 10
1.228485
 20
-133.589013
 30
0.0
 10
1.078653
 20
-133.227232
 30
0.0
 10
0.840260
 20
-132.916590
 30
0.0
  0
LWPOLYLINE
  5
14a
100
AcDbEntity
  8
Layer_1
 62
7
100
AcDbPolyline
 90
2
 70
0
 10
-0.220387
 20
-132.477226
 30
0.0
 10
-0.608612
 20
-132.528337
 30
0.0
  0
LWPOLYLINE
  5
14b
100
AcDbEntity
  8
Layer_1
 62
7
100
AcDbPolyline
 90
2
 70
0
 10
-0.970393
 20
-132.678197
 30
0.0
 10
-1.281063
 20
-132.916590
 30
0.0
  0
LWPOLYLINE
  5
14c
100
AcDbEntity
  8
Layer_1
 62
7
100
AcDbPolyline
 90
2
 70
0
 10
0.529618
 20
-135.276278
 30
0.0
 10
0.840260
 20
-135.037885
 30
0.0
  0
LWPOLYLINE
  5
14d
100
AcDbEntity
  8
Layer_1
 62
7
100
AcDbPolyline
 90
2
 70
0
 10
-1.669288
 20
-134.365462
 30
0.0
 10
-1.519428
 20
-134.727243
 30
0.0
  0
LWPOLYLINE
  5
14e
100
AcDbEntity
  8
Layer_1
 62
7
100
AcDbPolyline
 90
2
 70
0
 10
-0.970393
 20
-135.276278
 30
0.0
 10
-0.608612
 20
-135.426138
 30
0.0
  0
LWPOLYLINE
  5
14f
100
AcDbEntity
  8
Layer_1
 62
7
100
AcDbPolyline
 90
2
 70
0
 10
-1.720398
 20
-133.977238
 30
0.0
 10
-1.669288
 20
-134.365462
 30
0.0
  0
LWPOLYLINE
  5
150
100
AcDbEntity
  8
Layer_1
 62
7
100
AcDbPolyline
 90
2
 70
0
 10
0.167838
 20
-132.528337
 30
0.0
 10
-0.220387
 20
-132.477226
 30
0.0
  0
LWPOLYLINE
  5
151
100
AcDbEntity
  8
Layer_1
 62
7
100
AcDbPolyline
 90
2
 70
0
 10
48.718950
 20
9.962070
 30
0.0
 10
49.029620
 20
9.723706
 30
0.0
  0
LWPOLYLINE
  5
152
100
AcDbEntity
  8
Layer_1
 62
7
100
AcDbPolyline
 90
2
 70
0
 10
48.718950
 20
12.083394
 30
0.0
 10
48.480585
 20
11.772752
 30
0.0
  0
LWPOLYLINE
  5
153
100
AcDbEntity
  8
Layer_1
 62
7
100
AcDbPolyline
 90
2
 70
0
 10
48.330725
 20
11.410971
 30
0.0
 10
48.279614
 20
11.022746
 30
0.0
  0
LWPOLYLINE
  5
154
100
AcDbEntity
  8
Layer_1
 62
7
100
AcDbPolyline
 90
2
 70
0
 10
48.330725
 20
10.634521
 30
0.0
 10
48.480585
 20
10.272741
 30
0.0
  0
LWPOLYLINE
  5
155
100
AcDbEntity
  8
Layer_1
 62
7
100
AcDbPolyline
 90
2
 70
0
 10
50.529631
 20
9.723706
 30
0.0
 10
50.840273
 20
9.962070
 30
0.0
  0
LWPOLYLINE
  5
156
100
AcDbEntity
  8
Layer_1
 62
7
100
AcDbPolyline
 90
2
 70
0
 10
48.279614
 20
11.022746
 30
0.0
 10
48.330725
 20
10.634521
 30
0.0
  0
LWPOLYLINE
  5
157
100
AcDbEntity
  8
Layer_1
 62
7
100
AcDbPolyline
 90
2
 70
0
 10
49.029620
 20
9.723706
 30
0.0
 10
49.391401
 20
9.573846
 30
0.0
  0
LWPOLYLINE
  5
158
100
AcDbEntity
  8
Layer_1
 62
7
100
AcDbPolyline
 90
2
 70
0
 10
50.167850
 20
9.573846
 30
0.0
 10
50.529631
 20
9.723706
 30
0.0
  0
LWPOLYLINE
  5
159
100
AcDbEntity
  8
Layer_1
 62
7
100
AcDbPolyline
 90
4
 70
0
 10
50.840273
 20
9.962070
 30
0.0
 10
51.078666
 20
10.272741
 30
0.0
 10
51.228498
 20
10.634521
 30
0.0
 10
51.279608
 20
11.022746
 30
0.0
  0
LWPOLYLINE
  5
15a
100
AcDbEntity
  8
Layer_1
 62
7
100
AcDbPolyline
 90
2
 70
0
 10
51.228498
 20
11.410971
 30
0.0
 10
51.078666
 20
11.772752
 30
0.0
  0
LWPOLYLINE
  5
15b
100
AcDbEntity
  8
Layer_1
 62
7
100
AcDbPolyline
 90
4
 70
0
 10
50.529631
 20
12.321787
 30
0.0
 10
50.167850
 20
12.471619
 30
0.0
 10
49.779626
 20
12.522729
 30
0.0
 10
49.391401
 20
12.471619
 30
0.0
  0
LWPOLYLINE
  5
15c
100
AcDbEntity
  8
Layer_1
 62
7
100
AcDbPolyline
 90
2
 70
0
 10
49.779626
 20
9.522735
 30
0.0
 10
50.167850
 20
9.573846
 30
0.0
  0
LWPOLYLINE
  5
15d
100
AcDbEntity
  8
Layer_1
 62
7
100
AcDbPolyline
 90
2
 70
0
 10
51.078666
 20
11.772752
 30
0.0
 10
50.840273
 20
12.083394
 30
0.0
  0
LWPOLYLINE
  5
15e
100
AcDbEntity
  8
Layer_1
 62
7
100
AcDbPolyline
 90
2
 70
0
 10
51.279608
 20
11.022746
 30
0.0
 10
51.228498
 20
11.410971
 30
0.0
  0
LWPOLYLINE
  5
15f
100
AcDbEntity
  8
Layer_1
 62
7
100
AcDbPolyline
 90
2
 70
0
 10
50.840273
 20
12.083394
 30
0.0
 10
50.529631
 20
12.321787
 30
0.0
  0
LWPOLYLINE
  5
160
100
AcDbEntity
  8
Layer_1
 62
7
100
AcDbPolyline
 90
2
 70
0
 10
49.391401
 20
9.573846
 30
0.0
 10
49.779626
 20
9.522735
 30
0.0
  0
LWPOLYLINE
  5
161
100
AcDbEntity
  8
Layer_1
 62
7
100
AcDbPolyline
 90
2
 70
0
 10
48.480585
 20
10.272741
 30
0.0
 10
48.718950
 20
9.962070
 30
0.0
  0
LWPOLYLINE
  5
162
100
AcDbEntity
  8
Layer_1
 62
7
100
AcDbPolyline
 90
2
 70
0
 10
48.480585
 20
11.772752
 30
0.0
 10
48.330725
 20
11.410971
 30
0.0
  0
LWPOLYLINE
  5
163
100
AcDbEntity
  8
Layer_1
 62
7
100
AcDbPolyline
 90
2
 70
0
 10
49.029620
 20
12.321787
 30
0.0
 10
48.718950
 20
12.083394
 30
0.0
  0
LWPOLYLINE
  5
164
100
AcDbEntity
  8
Layer_1
 62
7
100
AcDbPolyline
 90
2
 70
0
 10
49.391401
 20
12.471619
 30
0.0
 10
49.029620
 20
12.321787
 30
0.0
  0
LWPOLYLINE
  5
165
100
AcDbEntity
  8
Layer_1
 62
7
100
AcDbPolyline
 90
2
 70
0
 10
1.078653
 20
11.772752
 30
0.0
 10
0.840260
 20
12.083394
 30
0.0
  0
LWPOLYLINE
  5
166
100
AcDbEntity
  8
Layer_1
 62
7
100
AcDbPolyline
 90
2
 70
0
 10
0.529618
 20
9.723706
 30
0.0
 10
0.840260
 20
9.962070
 30
0.0
  0
LWPOLYLINE
  5
167
100
AcDbEntity
  8
Layer_1
 62
7
100
AcDbPolyline
 90
7
 70
0
 10
-0.220387
 20
12.522729
 30
0.0
 10
-0.608612
 20
12.471619
 30
0.0
 10
-0.970393
 20
12.321787
 30
0.0
 10
-1.281063
 20
12.083394
 30
0.0
 10
-1.519428
 20
11.772752
 30
0.0
 10
-1.669288
 20
11.410971
 30
0.0
 10
-1.720398
 20
11.022746
 30
0.0
  0
LWPOLYLINE
  5
168
100
AcDbEntity
  8
Layer_1
 62
7
100
AcDbPolyline
 90
3
 70
0
 10
-1.519428
 20
10.272741
 30
0.0
 10
-1.281063
 20
9.962070
 30
0.0
 10
-0.970393
 20
9.723706
 30
0.0
  0
LWPOLYLINE
  5
169
100
AcDbEntity
  8
Layer_1
 62
7
100
AcDbPolyline
 90
4
 70
0
 10
-0.608612
 20
9.573846
 30
0.0
 10
-0.220387
 20
9.522735
 30
0.0
 10
0.167838
 20
9.573846
 30
0.0
 10
0.529618
 20
9.723706
 30
0.0
  0
LWPOLYLINE
  5
16a
100
AcDbEntity
  8
Layer_1
 62
7
100
AcDbPolyline
 90
2
 70
0
 10
1.228485
 20
10.634521
 30
0.0
 10
1.279596
 20
11.022746
 30
0.0
  0
LWPOLYLINE
  5
16b
100
AcDbEntity
  8
Layer_1
 62
7
100
AcDbPolyline
 90
2
 70
0
 10
1.228485
 20
11.410971
 30
0.0
 10
1.078653
 20
11.772752
 30
0.0
  0
LWPOLYLINE
  5
16c
100
AcDbEntity
  8
Layer_1
 62
7
100
AcDbPolyline
 90
4
 70
0
 10
0.840260
 20
12.083394
 30
0.0
 10
0.529618
 20
12.321787
 30
0.0
 10
0.167838
 20
12.471619
 30
0.0
 10
-0.220387
 20
12.522729
 30
0.0
  0
LWPOLYLINE
  5
16d
100
AcDbEntity
  8
Layer_1
 62
7
100
AcDbPolyline
 90
2
 70
0
 10
-0.970393
 20
9.723706
 30
0.0
 10
-0.608612
 20
9.573846
 30
0.0
  0
LWPOLYLINE
  5
16e
100
AcDbEntity
  8
Layer_1
 62
7
100
AcDbPolyline
 90
2
 70
0
 10
1.279596
 20
11.022746
 30
0.0
 10
1.228485
 20
11.410971
 30
0.0
  0
LWPOLYLINE
  5
16f
100
AcDbEntity
  8
Layer_1
 62
7
100
AcDbPolyline
 90
2
 70
0
 10
1.078653
 20
10.272741
 30
0.0
 10
1.228485
 20
10.634521
 30
0.0
  0
LWPOLYLINE
  5
170
100
AcDbEntity
  8
Layer_1
 62
7
100
AcDbPolyline
 90
2
 70
0
 10
-1.669288
 20
10.634521
 30
0.0
 10
-1.519428
 20
10.272741
 30
0.0
  0
LWPOLYLINE
  5
171
100
AcDbEntity
  8
Layer_1
 62
7
100
AcDbPolyline
 90
2
 70
0
 10
0.840260
 20
9.962070
 30
0.0
 10
1.078653
 20
10.272741
 30
0.0
  0
LWPOLYLINE
  5
172
100
AcDbEntity
  8
Layer_1
 62
7
100
AcDbPolyline
 90
2
 70
0
 10
-1.720398
 20
11.022746
 30
0.0
 10
-1.669288
 20
10.634521
 30
0.0
  0
LWPOLYLINE
  5
173
100
AcDbEntity
  8
Layer_1
 62
7
100
AcDbPolyline
 90
3
 70
0
 10
48.330725
 20
-134.365462
 30
0.0
 10
48.480585
 20
-134.727243
 30
0.0
 10
48.718950
 20
-135.037885
 30
0.0
  0
LWPOLYLINE
  5
174
100
AcDbEntity
  8
Layer_1
 62
7
100
AcDbPolyline
 90
2
 70
0
 10
49.029620
 20
-135.276278
 30
0.0
 10
49.391401
 20
-135.426138
 30
0.0
  0
LWPOLYLINE
  5
175
100
AcDbEntity
  8
Layer_1
 62
7
100
AcDbPolyline
 90
2
 70
0
 10
49.779626
 20
-135.477249
 30
0.0
 10
50.167850
 20
-135.426138
 30
0.0
  0
LWPOLYLINE
  5
176
100
AcDbEntity
  8
Layer_1
 62
7
100
AcDbPolyline
 90
3
 70
0
 10
49.391401
 20
-132.528337
 30
0.0
 10
49.029620
 20
-132.678197
 30
0.0
 10
48.718950
 20
-132.916590
 30
0.0
  0
LWPOLYLINE
  5
177
100
AcDbEntity
  8
Layer_1
 62
7
100
AcDbPolyline
 90
2
 70
0
 10
49.391401
 20
-135.426138
 30
0.0
 10
49.779626
 20
-135.477249
 30
0.0
  0
LWPOLYLINE
  5
178
100
AcDbEntity
  8
Layer_1
 62
7
100
AcDbPolyline
 90
2
 70
0
 10
50.840273
 20
-135.037885
 30
0.0
 10
51.078666
 20
-134.727243
 30
0.0
  0
LWPOLYLINE
  5
179
100
AcDbEntity
  8
Layer_1
 62
7
100
AcDbPolyline
 90
4
 70
0
 10
51.228498
 20
-134.365462
 30
0.0
 10
51.279608
 20
-133.977238
 30
0.0
 10
51.228498
 20
-133.589013
 30
0.0
 10
51.078666
 20
-133.227232
 30
0.0
  0
LWPOLYLINE
  5
17a
100
AcDbEntity
  8
Layer_1
 62
7
100
AcDbPolyline
 90
2
 70
0
 10
50.529631
 20
-135.276278
 30
0.0
 10
50.840273
 20
-135.037885
 30
0.0
  0
LWPOLYLINE
  5
17b
100
AcDbEntity
  8
Layer_1
 62
7
100
AcDbPolyline
 90
2
 70
0
 10
50.167850
 20
-135.426138
 30
0.0
 10
50.529631
 20
-135.276278
 30
0.0
  0
LWPOLYLINE
  5
17c
100
AcDbEntity
  8
Layer_1
 62
7
100
AcDbPolyline
 90
2
 70
0
 10
48.718950
 20
-135.037885
 30
0.0
 10
49.029620
 20
-135.276278
 30
0.0
  0
LWPOLYLINE
  5
17d
100
AcDbEntity
  8
Layer_1
 62
7
100
AcDbPolyline
 90
2
 70
0
 10
48.718950
 20
-132.916590
 30
0.0
 10
48.480585
 20
-133.227232
 30
0.0
  0
LWPOLYLINE
  5
17e
100
AcDbEntity
  8
Layer_1
 62
7
100
AcDbPolyline
 90
2
 70
0
 10
50.529631
 20
-132.678197
 30
0.0
 10
50.167850
 20
-132.528337
 30
0.0
  0
LWPOLYLINE
  5
17f
100
AcDbEntity
  8
Layer_1
 62
7
100
AcDbPolyline
 90
2
 70
0
 10
50.840273
 20
-132.916590
 30
0.0
 10
50.529631
 20
-132.678197
 30
0.0
  0
LWPOLYLINE
  5
180
100
AcDbEntity
  8
Layer_1
 62
7
100
AcDbPolyline
 90
2
 70
0
 10
48.279614
 20
-133.977238
 30
0.0
 10
48.330725
 20
-134.365462
 30
0.0
  0
LWPOLYLINE
  5
181
100
AcDbEntity
  8
Layer_1
 62
7
100
AcDbPolyline
 90
2
 70
0
 10
48.330725
 20
-133.589013
 30
0.0
 10
48.279614
 20
-133.977238
 30
0.0
  0
LWPOLYLINE
  5
182
100
AcDbEntity
  8
Layer_1
 62
7
100
AcDbPolyline
 90
2
 70
0
 10
49.779626
 20
-132.477226
 30
0.0
 10
49.391401
 20
-132.528337
 30
0.0
  0
LWPOLYLINE
  5
183
100
AcDbEntity
  8
Layer_1
 62
7
100
AcDbPolyline
 90
2
 70
0
 10
50.167850
 20
-132.528337
 30
0.0
 10
49.779626
 20
-132.477226
 30
0.0
  0
LWPOLYLINE
  5
184
100
AcDbEntity
  8
Layer_1
 62
7
100
AcDbPolyline
 90
2
 70
0
 10
51.078666
 20
-134.727243
 30
0.0
 10
51.228498
 20
-134.365462
 30
0.0
  0
LWPOLYLINE
  5
185
100
AcDbEntity
  8
Layer_1
 62
7
100
AcDbPolyline
 90
2
 70
0
 10
51.078666
 20
-133.227232
 30
0.0
 10
50.840273
 20
-132.916590
 30
0.0
  0
LWPOLYLINE
  5
186
100
AcDbEntity
  8
Layer_1
 62
7
100
AcDbPolyline
 90
2
 70
0
 10
48.480585
 20
-133.227232
 30
0.0
 10
48.330725
 20
-133.589013
 30
0.0
  0
LWPOLYLINE
  5
187
100
AcDbEntity
  8
Layer_1
 62
7
100
AcDbPolyline
 90
2
 70
0
 10
9.779621
 20
-122.977231
 30
0.0
 10
9.643336
 20
-121.941956
 30
0.0
  0
LWPOLYLINE
  5
188
100
AcDbEntity
  8
Layer_1
 62
7
100
AcDbPolyline
 90
3
 70
0
 10
7.779625
 20
-119.513151
 30
0.0
 10
6.814905
 20
-119.113524
 30
0.0
 10
5.779629
 20
-118.977239
 30
0.0
  0
LWPOLYLINE
  5
189
100
AcDbEntity
  8
Layer_1
 62
7
100
AcDbPolyline
 90
2
 70
0
 10
8.608060
 20
-125.805662
 30
0.0
 10
9.243737
 20
-124.977227
 30
0.0
  0
LWPOLYLINE
  5
18a
100
AcDbEntity
  8
Layer_1
 62
7
100
AcDbPolyline
 90
2
 70
0
 10
2.315520
 20
-120.977235
 30
0.0
 10
1.915894
 20
-121.941956
 30
0.0
  0
LWPOLYLINE
  5
18b
100
AcDbEntity
  8
Layer_1
 62
7
100
AcDbPolyline
 90
3
 70
0
 10
1.915894
 20
-124.012507
 30
0.0
 10
2.315520
 20
-124.977227
 30
0.0
 10
2.951198
 20
-125.805662
 30
0.0
  0
LWPOLYLINE
  5
18c
100
AcDbEntity
  8
Layer_1
 62
7
100
AcDbPolyline
 90
2
 70
0
 10
3.779633
 20
-126.441340
 30
0.0
 10
4.744353
 20
-126.840938
 30
0.0
  0
LWPOLYLINE
  5
18d
100
AcDbEntity
  8
Layer_1
 62
7
100
AcDbPolyline
 90
2
 70
0
 10
5.779629
 20
-126.977252
 30
0.0
 10
6.814905
 20
-126.840938
 30
0.0
  0
LWPOLYLINE
  5
18e
100
AcDbEntity
  8
Layer_1
 62
7
100
AcDbPolyline
 90
3
 70
0
 10
5.779629
 20
-118.977239
 30
0.0
 10
4.744353
 20
-119.113524
 30
0.0
 10
3.779633
 20
-119.513151
 30
0.0
  0
LWPOLYLINE
  5
18f
100
AcDbEntity
  8
Layer_1
 62
7
100
AcDbPolyline
 90
2
 70
0
 10
1.915894
 20
-121.941956
 30
0.0
 10
1.779609
 20
-122.977231
 30
0.0
  0
LWPOLYLINE
  5
190
100
AcDbEntity
  8
Layer_1
 62
7
100
AcDbPolyline
 90
2
 70
0
 10
8.608060
 20
-120.148800
 30
0.0
 10
7.779625
 20
-119.513151
 30
0.0
  0
LWPOLYLINE
  5
191
100
AcDbEntity
  8
Layer_1
 62
7
100
AcDbPolyline
 90
2
 70
0
 10
7.779625
 20
-126.441340
 30
0.0
 10
8.608060
 20
-125.805662
 30
0.0
  0
LWPOLYLINE
  5
192
100
AcDbEntity
  8
Layer_1
 62
7
100
AcDbPolyline
 90
2
 70
0
 10
6.814905
 20
-126.840938
 30
0.0
 10
7.779625
 20
-126.441340
 30
0.0
  0
LWPOLYLINE
  5
193
100
AcDbEntity
  8
Layer_1
 62
7
100
AcDbPolyline
 90
2
 70
0
 10
9.243737
 20
-124.977227
 30
0.0
 10
9.643336
 20
-124.012507
 30
0.0
  0
LWPOLYLINE
  5
194
100
AcDbEntity
  8
Layer_1
 62
7
100
AcDbPolyline
 90
2
 70
0
 10
9.643336
 20
-121.941956
 30
0.0
 10
9.243737
 20
-120.977235
 30
0.0
  0
LWPOLYLINE
  5
195
100
AcDbEntity
  8
Layer_1
 62
7
100
AcDbPolyline
 90
2
 70
0
 10
2.951198
 20
-120.148800
 30
0.0
 10
2.315520
 20
-120.977235
 30
0.0
  0
LWPOLYLINE
  5
196
100
AcDbEntity
  8
Layer_1
 62
7
100
AcDbPolyline
 90
2
 70
0
 10
9.243737
 20
-120.977235
 30
0.0
 10
8.608060
 20
-120.148800
 30
0.0
  0
LWPOLYLINE
  5
197
100
AcDbEntity
  8
Layer_1
 62
7
100
AcDbPolyline
 90
2
 70
0
 10
1.779609
 20
-122.977231
 30
0.0
 10
1.915894
 20
-124.012507
 30
0.0
  0
LWPOLYLINE
  5
198
100
AcDbEntity
  8
Layer_1
 62
7
100
AcDbPolyline
 90
2
 70
0
 10
2.951198
 20
-125.805662
 30
0.0
 10
3.779633
 20
-126.441340
 30
0.0
  0
LWPOLYLINE
  5
199
100
AcDbEntity
  8
Layer_1
 62
7
100
AcDbPolyline
 90
2
 70
0
 10
3.779633
 20
-119.513151
 30
0.0
 10
2.951198
 20
-120.148800
 30
0.0
  0
LWPOLYLINE
  5
19a
100
AcDbEntity
  8
Layer_1
 62
7
100
AcDbPolyline
 90
2
 70
0
 10
9.643336
 20
-124.012507
 30
0.0
 10
9.779621
 20
-122.977231
 30
0.0
  0
LWPOLYLINE
  5
19b
100
AcDbEntity
  8
Layer_1
 62
7
100
AcDbPolyline
 90
2
 70
0
 10
4.744353
 20
-126.840938
 30
0.0
 10
5.779629
 20
-126.977252
 30
0.0
  0
LWPOLYLINE
  5
19c
100
AcDbEntity
  8
Layer_1
 62
7
100
AcDbPolyline
 90
2
 70
0
 10
39.052415
 20
17.471750
 30
0.0
 10
38.679628
 20
17.185689
 30
0.0
  0
LWPOLYLINE
  5
19d
100
AcDbEntity
  8
Layer_1
 62
7
100
AcDbPolyline
 90
2
 70
0
 10
36.879615
 20
17.185689
 30
0.0
 10
36.506827
 20
17.471750
 30
0.0
  0
LWPOLYLINE
  5
19e
100
AcDbEntity
  8
Layer_1
 62
7
100
AcDbPolyline
 90
2
 70
0
 10
37.313757
 20
17.005886
 30
0.0
 10
36.879615
 20
17.185689
 30
0.0
  0
LWPOLYLINE
  5
19f
100
AcDbEntity
  8
Layer_1
 62
7
100
AcDbPolyline
 90
2
 70
0
 10
38.245486
 20
20.483202
 30
0.0
 10
38.679628
 20
20.303398
 30
0.0
  0
LWPOLYLINE
  5
1a0
100
AcDbEntity
  8
Layer_1
 62
7
100
AcDbPolyline
 90
2
 70
0
 10
37.779621
 20
20.544529
 30
0.0
 10
38.245486
 20
20.483202
 30
0.0
  0
LWPOLYLINE
  5
1a1
100
AcDbEntity
  8
Layer_1
 62
7
100
AcDbPolyline
 90
2
 70
0
 10
37.313757
 20
20.483202
 30
0.0
 10
37.779621
 20
20.544529
 30
0.0
  0
LWPOLYLINE
  5
1a2
100
AcDbEntity
  8
Layer_1
 62
7
100
AcDbPolyline
 90
2
 70
0
 10
36.879615
 20
20.303398
 30
0.0
 10
37.313757
 20
20.483202
 30
0.0
  0
LWPOLYLINE
  5
1a3
100
AcDbEntity
  8
Layer_1
 62
7
100
AcDbPolyline
 90
2
 70
0
 10
36.506827
 20
20.017338
 30
0.0
 10
36.879615
 20
20.303398
 30
0.0
  0
LWPOLYLINE
  5
1a4
100
AcDbEntity
  8
Layer_1
 62
7
100
AcDbPolyline
 90
2
 70
0
 10
36.220767
 20
19.644550
 30
0.0
 10
36.506827
 20
20.017338
 30
0.0
  0
LWPOLYLINE
  5
1a5
100
AcDbEntity
  8
Layer_1
 62
7
100
AcDbPolyline
 90
2
 70
0
 10
36.040963
 20
19.210408
 30
0.0
 10
36.220767
 20
19.644550
 30
0.0
  0
LWPOLYLINE
  5
1a6
100
AcDbEntity
  8
Layer_1
 62
7
100
AcDbPolyline
 90
2
 70
0
 10
35.979636
 20
18.744544
 30
0.0
 10
36.040963
 20
19.210408
 30
0.0
  0
LWPOLYLINE
  5
1a7
100
AcDbEntity
  8
Layer_1
 62
7
100
AcDbPolyline
 90
2
 70
0
 10
36.040963
 20
18.278680
 30
0.0
 10
35.979636
 20
18.744544
 30
0.0
  0
LWPOLYLINE
  5
1a8
100
AcDbEntity
  8
Layer_1
 62
7
100
AcDbPolyline
 90
2
 70
0
 10
36.220767
 20
17.844537
 30
0.0
 10
36.040963
 20
18.278680
 30
0.0
  0
LWPOLYLINE
  5
1a9
100
AcDbEntity
  8
Layer_1
 62
7
100
AcDbPolyline
 90
2
 70
0
 10
36.506827
 20
17.471750
 30
0.0
 10
36.220767
 20
17.844537
 30
0.0
  0
LWPOLYLINE
  5
1aa
100
AcDbEntity
  8
Layer_1
 62
7
100
AcDbPolyline
 90
2
 70
0
 10
37.779621
 20
16.944530
 30
0.0
 10
37.313757
 20
17.005886
 30
0.0
  0
LWPOLYLINE
  5
1ab
100
AcDbEntity
  8
Layer_1
 62
7
100
AcDbPolyline
 90
2
 70
0
 10
38.245486
 20
17.005886
 30
0.0
 10
37.779621
 20
16.944530
 30
0.0
  0
LWPOLYLINE
  5
1ac
100
AcDbEntity
  8
Layer_1
 62
7
100
AcDbPolyline
 90
2
 70
0
 10
38.679628
 20
17.185689
 30
0.0
 10
38.245486
 20
17.005886
 30
0.0
  0
LWPOLYLINE
  5
1ad
100
AcDbEntity
  8
Layer_1
 62
7
100
AcDbPolyline
 90
2
 70
0
 10
39.338476
 20
17.844537
 30
0.0
 10
39.052415
 20
17.471750
 30
0.0
  0
LWPOLYLINE
  5
1ae
100
AcDbEntity
  8
Layer_1
 62
7
100
AcDbPolyline
 90
2
 70
0
 10
39.518280
 20
18.278680
 30
0.0
 10
39.338476
 20
17.844537
 30
0.0
  0
LWPOLYLINE
  5
1af
100
AcDbEntity
  8
Layer_1
 62
7
100
AcDbPolyline
 90
2
 70
0
 10
39.052415
 20
20.017338
 30
0.0
 10
39.338476
 20
19.644550
 30
0.0
  0
LWPOLYLINE
  5
1b0
100
AcDbEntity
  8
Layer_1
 62
7
100
AcDbPolyline
 90
2
 70
0
 10
38.679628
 20
20.303398
 30
0.0
 10
39.052415
 20
20.017338
 30
0.0
  0
LWPOLYLINE
  5
1b1
100
AcDbEntity
  8
Layer_1
 62
7
100
AcDbPolyline
 90
2
 70
0
 10
39.579635
 20
18.744544
 30
0.0
 10
39.518280
 20
18.278680
 30
0.0
  0
LWPOLYLINE
  5
1b2
100
AcDbEntity
  8
Layer_1
 62
7
100
AcDbPolyline
 90
2
 70
0
 10
39.518280
 20
19.210408
 30
0.0
 10
39.579635
 20
18.744544
 30
0.0
  0
LWPOLYLINE
  5
1b3
100
AcDbEntity
  8
Layer_1
 62
7
100
AcDbPolyline
 90
2
 70
0
 10
39.338476
 20
19.644550
 30
0.0
 10
39.518280
 20
19.210408
 30
0.0
  0
LWPOLYLINE
  5
1b4
100
AcDbEntity
  8
Layer_1
 62
7
100
AcDbPolyline
 90
2
 70
0
 10
-121.760883
 20
-33.574760
 30
0.0
 10
-122.122664
 20
-33.724620
 30
0.0
  0
LWPOLYLINE
  5
1b5
100
AcDbEntity
  8
Layer_1
 62
7
100
AcDbPolyline
 90
3
 70
0
 10
-119.923786
 20
-35.411886
 30
0.0
 10
-119.872675
 20
-35.023661
 30
0.0
 10
-119.923786
 20
-34.635436
 30
0.0
  0
LWPOLYLINE
  5
1b6
100
AcDbEntity
  8
Layer_1
 62
7
100
AcDbPolyline
 90
2
 70
0
 10
-120.312011
 20
-33.963013
 30
0.0
 10
-120.622653
 20
-33.724620
 30
0.0
  0
LWPOLYLINE
  5
1b7
100
AcDbEntity
  8
Layer_1
 62
7
100
AcDbPolyline
 90
2
 70
0
 10
-122.433334
 20
-33.963013
 30
0.0
 10
-122.671699
 20
-34.273655
 30
0.0
  0
LWPOLYLINE
  5
1b8
100
AcDbEntity
  8
Layer_1
 62
7
100
AcDbPolyline
 90
2
 70
0
 10
-120.622653
 20
-33.724620
 30
0.0
 10
-120.984433
 20
-33.574760
 30
0.0
  0
LWPOLYLINE
  5
1b9
100
AcDbEntity
  8
Layer_1
 62
7
100
AcDbPolyline
 90
3
 70
0
 10
-122.671699
 20
-34.273655
 30
0.0
 10
-122.821559
 20
-34.635436
 30
0.0
 10
-122.872669
 20
-35.023661
 30
0.0
  0
LWPOLYLINE
  5
1ba
100
AcDbEntity
  8
Layer_1
 62
7
100
AcDbPolyline
 90
3
 70
0
 10
-122.671699
 20
-35.773666
 30
0.0
 10
-122.433334
 20
-36.084308
 30
0.0
 10
-122.122664
 20
-36.322701
 30
0.0
  0
LWPOLYLINE
  5
1bb
100
AcDbEntity
  8
Layer_1
 62
7
100
AcDbPolyline
 90
4
 70
0
 10
-121.760883
 20
-36.472561
 30
0.0
 10
-121.372658
 20
-36.523672
 30
0.0
 10
-120.984433
 20
-36.472561
 30
0.0
 10
-120.622653
 20
-36.322701
 30
0.0
  0
LWPOLYLINE
  5
1bc
100
AcDbEntity
  8
Layer_1
 62
7
100
AcDbPolyline
 90
3
 70
0
 10
-120.312011
 20
-36.084308
 30
0.0
 10
-120.073618
 20
-35.773666
 30
0.0
 10
-119.923786
 20
-35.411886
 30
0.0
  0
LWPOLYLINE
  5
1bd
100
AcDbEntity
  8
Layer_1
 62
7
100
AcDbPolyline
 90
3
 70
0
 10
-119.923786
 20
-34.635436
 30
0.0
 10
-120.073618
 20
-34.273655
 30
0.0
 10
-120.312011
 20
-33.963013
 30
0.0
  0
LWPOLYLINE
  5
1be
100
AcDbEntity
  8
Layer_1
 62
7
100
AcDbPolyline
 90
2
 70
0
 10
-121.372658
 20
-33.523650
 30
0.0
 10
-121.760883
 20
-33.574760
 30
0.0
  0
LWPOLYLINE
  5
1bf
100
AcDbEntity
  8
Layer_1
 62
7
100
AcDbPolyline
 90
2
 70
0
 10
-122.122664
 20
-33.724620
 30
0.0
 10
-122.433334
 20
-33.963013
 30
0.0
  0
LWPOLYLINE
  5
1c0
100
AcDbEntity
  8
Layer_1
 62
7
100
AcDbPolyline
 90
2
 70
0
 10
-120.622653
 20
-36.322701
 30
0.0
 10
-120.312011
 20
-36.084308
 30
0.0
  0
LWPOLYLINE
  5
1c1
100
AcDbEntity
  8
Layer_1
 62
7
100
AcDbPolyline
 90
2
 70
0
 10
-122.821559
 20
-35.411886
 30
0.0
 10
-122.671699
 20
-35.773666
 30
0.0
  0
LWPOLYLINE
  5
1c2
100
AcDbEntity
  8
Layer_1
 62
7
100
AcDbPolyline
 90
2
 70
0
 10
-122.122664
 20
-36.322701
 30
0.0
 10
-121.760883
 20
-36.472561
 30
0.0
  0
LWPOLYLINE
  5
1c3
100
AcDbEntity
  8
Layer_1
 62
7
100
AcDbPolyline
 90
2
 70
0
 10
-122.872669
 20
-35.023661
 30
0.0
 10
-122.821559
 20
-35.411886
 30
0.0
  0
LWPOLYLINE
  5
1c4
100
AcDbEntity
  8
Layer_1
 62
7
100
AcDbPolyline
 90
2
 70
0
 10
-120.984433
 20
-33.574760
 30
0.0
 10
-121.372658
 20
-33.523650
 30
0.0
  0
LWPOLYLINE
  5
1c5
100
AcDbEntity
  8
Layer_1
 62
7
100
AcDbPolyline
 90
2
 70
0
 10
-146.769892
 20
-33.586218
 30
0.0
 10
-147.131673
 20
-33.736078
 30
0.0
  0
LWPOLYLINE
  5
1c6
100
AcDbEntity
  8
Layer_1
 62
7
100
AcDbPolyline
 90
3
 70
0
 10
-144.932795
 20
-35.423344
 30
0.0
 10
-144.881685
 20
-35.035119
 30
0.0
 10
-144.932795
 20
-34.646894
 30
0.0
  0
LWPOLYLINE
  5
1c7
100
AcDbEntity
  8
Layer_1
 62
7
100
AcDbPolyline
 90
2
 70
0
 10
-145.321020
 20
-33.974471
 30
0.0
 10
-145.631662
 20
-33.736078
 30
0.0
  0
LWPOLYLINE
  5
1c8
100
AcDbEntity
  8
Layer_1
 62
7
100
AcDbPolyline
 90
2
 70
0
 10
-147.442343
 20
-33.974471
 30
0.0
 10
-147.680708
 20
-34.285113
 30
0.0
  0
LWPOLYLINE
  5
1c9
100
AcDbEntity
  8
Layer_1
 62
7
100
AcDbPolyline
 90
2
 70
0
 10
-145.631662
 20
-33.736078
 30
0.0
 10
-145.993443
 20
-33.586218
 30
0.0
  0
LWPOLYLINE
  5
1ca
100
AcDbEntity
  8
Layer_1
 62
7
100
AcDbPolyline
 90
3
 70
0
 10
-147.680708
 20
-34.285113
 30
0.0
 10
-147.830568
 20
-34.646894
 30
0.0
 10
-147.881679
 20
-35.035119
 30
0.0
  0
LWPOLYLINE
  5
1cb
100
AcDbEntity
  8
Layer_1
 62
7
100
AcDbPolyline
 90
3
 70
0
 10
-147.680708
 20
-35.785125
 30
0.0
 10
-147.442343
 20
-36.095767
 30
0.0
 10
-147.131673
 20
-36.334160
 30
0.0
  0
LWPOLYLINE
  5
1cc
100
AcDbEntity
  8
Layer_1
 62
7
100
AcDbPolyline
 90
4
 70
0
 10
-146.769892
 20
-36.484020
 30
0.0
 10
-146.381668
 20
-36.535130
 30
0.0
 10
-145.993443
 20
-36.484020
 30
0.0
 10
-145.631662
 20
-36.334160
 30
0.0
  0
LWPOLYLINE
  5
1cd
100
AcDbEntity
  8
Layer_1
 62
7
100
AcDbPolyline
 90
3
 70
0
 10
-145.321020
 20
-36.095767
 30
0.0
 10
-145.082627
 20
-35.785125
 30
0.0
 10
-144.932795
 20
-35.423344
 30
0.0
  0
LWPOLYLINE
  5
1ce
100
AcDbEntity
  8
Layer_1
 62
7
100
AcDbPolyline
 90
3
 70
0
 10
-144.932795
 20
-34.646894
 30
0.0
 10
-145.082627
 20
-34.285113
 30
0.0
 10
-145.321020
 20
-33.974471
 30
0.0
  0
LWPOLYLINE
  5
1cf
100
AcDbEntity
  8
Layer_1
 62
7
100
AcDbPolyline
 90
2
 70
0
 10
-146.381668
 20
-33.535108
 30
0.0
 10
-146.769892
 20
-33.586218
 30
0.0
  0
LWPOLYLINE
  5
1d0
100
AcDbEntity
  8
Layer_1
 62
7
100
AcDbPolyline
 90
2
 70
0
 10
-147.131673
 20
-33.736078
 30
0.0
 10
-147.442343
 20
-33.974471
 30
0.0
  0
LWPOLYLINE
  5
1d1
100
AcDbEntity
  8
Layer_1
 62
7
100
AcDbPolyline
 90
2
 70
0
 10
-145.631662
 20
-36.334160
 30
0.0
 10
-145.321020
 20
-36.095767
 30
0.0
  0
LWPOLYLINE
  5
1d2
100
AcDbEntity
  8
Layer_1
 62
7
100
AcDbPolyline
 90
2
 70
0
 10
-147.830568
 20
-35.423344
 30
0.0
 10
-147.680708
 20
-35.785125
 30
0.0
  0
LWPOLYLINE
  5
1d3
100
AcDbEntity
  8
Layer_1
 62
7
100
AcDbPolyline
 90
2
 70
0
 10
-147.131673
 20
-36.334160
 30
0.0
 10
-146.769892
 20
-36.484020
 30
0.0
  0
LWPOLYLINE
  5
1d4
100
AcDbEntity
  8
Layer_1
 62
7
100
AcDbPolyline
 90
2
 70
0
 10
-147.881679
 20
-35.035119
 30
0.0
 10
-147.830568
 20
-35.423344
 30
0.0
  0
LWPOLYLINE
  5
1d5
100
AcDbEntity
  8
Layer_1
 62
7
100
AcDbPolyline
 90
2
 70
0
 10
-145.993443
 20
-33.586218
 30
0.0
 10
-146.381668
 20
-33.535108
 30
0.0
  0
LWPOLYLINE
  5
1d6
100
AcDbEntity
  8
Layer_1
 62
7
100
AcDbPolyline
 90
2
 70
0
 10
-184.337229
 20
51.739211
 30
0.0
 10
-184.371406
 20
51.217072
 30
0.0
  0
LWPOLYLINE
  5
1d7
100
AcDbEntity
  8
Layer_1
 62
7
100
AcDbPolyline
 90
2
 70
0
 10
-181.412617
 20
55.080807
 30
0.0
 10
-181.907070
 20
54.912603
 30
0.0
  0
LWPOLYLINE
  5
1d8
100
AcDbEntity
  8
Layer_1
 62
7
100
AcDbPolyline
 90
2
 70
0
 10
-182.375389
 20
45.753052
 30
0.0
 10
-181.907070
 20
45.521602
 30
0.0
  0
LWPOLYLINE
  5
1d9
100
AcDbEntity
  8
Layer_1
 62
7
100
AcDbPolyline
 90
2
 70
0
 10
-182.809560
 20
46.043741
 30
0.0
 10
-182.375389
 20
45.753052
 30
0.0
  0
LWPOLYLINE
  5
1da
100
AcDbEntity
  8
Layer_1
 62
7
100
AcDbPolyline
 90
3
 70
0
 10
-154.602578
 20
54.045503
 30
0.0
 10
-154.995177
 20
54.390520
 30
0.0
 10
-155.429376
 20
54.681152
 30
0.0
  0
LWPOLYLINE
  5
1db
100
AcDbEntity
  8
Layer_1
 62
7
100
AcDbPolyline
 90
2
 70
0
 10
-184.235375
 20
52.252376
 30
0.0
 10
-184.337229
 20
51.739211
 30
0.0
  0
LWPOLYLINE
  5
1dc
100
AcDbEntity
  8
Layer_1
 62
7
100
AcDbPolyline
 90
2
 70
0
 10
-184.371406
 20
49.217161
 30
0.0
 10
-184.337229
 20
48.694965
 30
0.0
  0
LWPOLYLINE
  5
1dd
100
AcDbEntity
  8
Layer_1
 62
7
100
AcDbPolyline
 90
2
 70
0
 10
-153.569391
 20
52.252376
 30
0.0
 10
-153.737228
 20
52.747845
 30
0.0
  0
LWPOLYLINE
  5
1de
100
AcDbEntity
  8
Layer_1
 62
7
100
AcDbPolyline
 90
3
 70
0
 10
-154.602578
 20
46.388701
 30
0.0
 10
-154.258295
 20
46.782091
 30
0.0
 10
-153.968199
 20
47.217108
 30
0.0
  0
LWPOLYLINE
  5
1df
100
AcDbEntity
  8
Layer_1
 62
7
100
AcDbPolyline
 90
2
 70
0
 10
-181.412617
 20
45.353454
 30
0.0
 10
-180.900440
 20
45.251374
 30
0.0
  0
LWPOLYLINE
  5
1e0
100
AcDbEntity
  8
Layer_1
 62
7
100
AcDbPolyline
 90
2
 70
0
 10
-181.907070
 20
45.521602
 30
0.0
 10
-181.412617
 20
45.353454
 30
0.0
  0
LWPOLYLINE
  5
1e1
100
AcDbEntity
  8
Layer_1
 62
7
100
AcDbPolyline
 90
2
 70
0
 10
-184.235375
 20
48.181857
 30
0.0
 10
-184.067509
 20
47.686387
 30
0.0
  0
LWPOLYLINE
  5
1e2
100
AcDbEntity
  8
Layer_1
 62
7
100
AcDbPolyline
 90
2
 70
0
 10
-183.546445
 20
46.782091
 30
0.0
 10
-183.202159
 20
46.388701
 30
0.0
  0
LWPOLYLINE
  5
1e3
100
AcDbEntity
  8
Layer_1
 62
7
100
AcDbPolyline
 90
2
 70
0
 10
-183.836567
 20
47.217108
 30
0.0
 10
-183.546445
 20
46.782091
 30
0.0
  0
LWPOLYLINE
  5
1e4
100
AcDbEntity
  8
Layer_1
 62
7
100
AcDbPolyline
 90
2
 70
0
 10
-184.067509
 20
47.686387
 30
0.0
 10
-183.836567
 20
47.217108
 30
0.0
  0
LWPOLYLINE
  5
1e5
100
AcDbEntity
  8
Layer_1
 62
7
100
AcDbPolyline
 90
2
 70
0
 10
-155.429376
 20
54.681152
 30
0.0
 10
-155.897696
 20
54.912603
 30
0.0
  0
LWPOLYLINE
  5
1e6
100
AcDbEntity
  8
Layer_1
 62
7
100
AcDbPolyline
 90
2
 70
0
 10
-157.425365
 20
45.217141
 30
0.0
 10
-180.379401
 20
45.217141
 30
0.0
  0
LWPOLYLINE
  5
1e7
100
AcDbEntity
  8
Layer_1
 62
7
100
AcDbPolyline
 90
2
 70
0
 10
-182.809560
 20
54.390520
 30
0.0
 10
-183.202159
 20
54.045503
 30
0.0
  0
LWPOLYLINE
  5
1e8
100
AcDbEntity
  8
Layer_1
 62
7
100
AcDbPolyline
 90
2
 70
0
 10
-154.995177
 20
46.043741
 30
0.0
 10
-154.602578
 20
46.388701
 30
0.0
  0
LWPOLYLINE
  5
1e9
100
AcDbEntity
  8
Layer_1
 62
7
100
AcDbPolyline
 90
2
 70
0
 10
-182.375389
 20
54.681152
 30
0.0
 10
-182.809560
 20
54.390520
 30
0.0
  0
LWPOLYLINE
  5
1ea
100
AcDbEntity
  8
Layer_1
 62
7
100
AcDbPolyline
 90
2
 70
0
 10
-181.907070
 20
54.912603
 30
0.0
 10
-182.375389
 20
54.681152
 30
0.0
  0
LWPOLYLINE
  5
1eb
100
AcDbEntity
  8
Layer_1
 62
7
100
AcDbPolyline
 90
2
 70
0
 10
-155.429376
 20
45.753052
 30
0.0
 10
-154.995177
 20
46.043741
 30
0.0
  0
LWPOLYLINE
  5
1ec
100
AcDbEntity
  8
Layer_1
 62
7
100
AcDbPolyline
 90
2
 70
0
 10
-155.897696
 20
45.521602
 30
0.0
 10
-155.429376
 20
45.753052
 30
0.0
  0
LWPOLYLINE
  5
1ed
100
AcDbEntity
  8
Layer_1
 62
7
100
AcDbPolyline
 90
4
 70
0
 10
-157.425365
 20
45.217141
 30
0.0
 10
-156.904326
 20
45.251374
 30
0.0
 10
-156.392149
 20
45.353454
 30
0.0
 10
-155.897696
 20
45.521602
 30
0.0
  0
LWPOLYLINE
  5
1ee
100
AcDbEntity
  8
Layer_1
 62
7
100
AcDbPolyline
 90
2
 70
0
 10
-180.900440
 20
55.182831
 30
0.0
 10
-181.412591
 20
55.080807
 30
0.0
  0
LWPOLYLINE
  5
1ef
100
AcDbEntity
  8
Layer_1
 62
7
100
AcDbPolyline
 90
2
 70
0
 10
-180.379401
 20
55.217092
 30
0.0
 10
-180.900440
 20
55.182831
 30
0.0
  0
LWPOLYLINE
  5
1f0
100
AcDbEntity
  8
Layer_1
 62
7
100
AcDbPolyline
 90
2
 70
0
 10
-180.379401
 20
55.217092
 30
0.0
 10
-157.425365
 20
55.217092
 30
0.0
  0
LWPOLYLINE
  5
1f1
100
AcDbEntity
  8
Layer_1
 62
7
100
AcDbPolyline
 90
2
 70
0
 10
-153.467508
 20
51.739211
 30
0.0
 10
-153.569391
 20
52.252376
 30
0.0
  0
LWPOLYLINE
  5
1f2
100
AcDbEntity
  8
Layer_1
 62
7
100
AcDbPolyline
 90
2
 70
0
 10
-153.433359
 20
51.217072
 30
0.0
 10
-153.467508
 20
51.739211
 30
0.0
  0
LWPOLYLINE
  5
1f3
100
AcDbEntity
  8
Layer_1
 62
7
100
AcDbPolyline
 90
2
 70
0
 10
-184.371406
 20
49.217161
 30
0.0
 10
-184.371406
 20
51.217072
 30
0.0
  0
LWPOLYLINE
  5
1f4
100
AcDbEntity
  8
Layer_1
 62
7
100
AcDbPolyline
 90
3
 70
0
 10
-183.202159
 20
54.045503
 30
0.0
 10
-183.546445
 20
53.652114
 30
0.0
 10
-183.836567
 20
53.217096
 30
0.0
  0
LWPOLYLINE
  5
1f5
100
AcDbEntity
  8
Layer_1
 62
7
100
AcDbPolyline
 90
2
 70
0
 10
-153.433359
 20
51.217072
 30
0.0
 10
-153.433359
 20
49.217161
 30
0.0
  0
LWPOLYLINE
  5
1f6
100
AcDbEntity
  8
Layer_1
 62
7
100
AcDbPolyline
 90
2
 70
0
 10
-156.904326
 20
55.182831
 30
0.0
 10
-157.425365
 20
55.217092
 30
0.0
  0
LWPOLYLINE
  5
1f7
100
AcDbEntity
  8
Layer_1
 62
7
100
AcDbPolyline
 90
2
 70
0
 10
-156.392149
 20
55.080807
 30
0.0
 10
-156.904326
 20
55.182831
 30
0.0
  0
LWPOLYLINE
  5
1f8
100
AcDbEntity
  8
Layer_1
 62
7
100
AcDbPolyline
 90
2
 70
0
 10
-155.897696
 20
54.912603
 30
0.0
 10
-156.392149
 20
55.080807
 30
0.0
  0
LWPOLYLINE
  5
1f9
100
AcDbEntity
  8
Layer_1
 62
7
100
AcDbPolyline
 90
2
 70
0
 10
-153.968199
 20
47.217108
 30
0.0
 10
-153.737228
 20
47.686387
 30
0.0
  0
LWPOLYLINE
  5
1fa
100
AcDbEntity
  8
Layer_1
 62
7
100
AcDbPolyline
 90
3
 70
0
 10
-183.836567
 20
53.217096
 30
0.0
 10
-184.067509
 20
52.747845
 30
0.0
 10
-184.235375
 20
52.252376
 30
0.0
  0
LWPOLYLINE
  5
1fb
100
AcDbEntity
  8
Layer_1
 62
7
100
AcDbPolyline
 90
2
 70
0
 10
-184.337229
 20
48.694965
 30
0.0
 10
-184.235375
 20
48.181857
 30
0.0
  0
LWPOLYLINE
  5
1fc
100
AcDbEntity
  8
Layer_1
 62
7
100
AcDbPolyline
 90
2
 70
0
 10
-180.900440
 20
45.251374
 30
0.0
 10
-180.379401
 20
45.217141
 30
0.0
  0
LWPOLYLINE
  5
1fd
100
AcDbEntity
  8
Layer_1
 62
7
100
AcDbPolyline
 90
2
 70
0
 10
-153.467508
 20
48.694965
 30
0.0
 10
-153.433359
 20
49.217161
 30
0.0
  0
LWPOLYLINE
  5
1fe
100
AcDbEntity
  8
Layer_1
 62
7
100
AcDbPolyline
 90
2
 70
0
 10
-153.569391
 20
48.181857
 30
0.0
 10
-153.467508
 20
48.694965
 30
0.0
  0
LWPOLYLINE
  5
1ff
100
AcDbEntity
  8
Layer_1
 62
7
100
AcDbPolyline
 90
2
 70
0
 10
-153.737228
 20
47.686387
 30
0.0
 10
-153.569391
 20
48.181857
 30
0.0
  0
LWPOLYLINE
  5
200
100
AcDbEntity
  8
Layer_1
 62
7
100
AcDbPolyline
 90
2
 70
0
 10
-183.202159
 20
46.388701
 30
0.0
 10
-182.809560
 20
46.043741
 30
0.0
  0
LWPOLYLINE
  5
201
100
AcDbEntity
  8
Layer_1
 62
7
100
AcDbPolyline
 90
3
 70
0
 10
-153.968199
 20
53.217096
 30
0.0
 10
-154.258295
 20
53.652114
 30
0.0
 10
-154.602578
 20
54.045503
 30
0.0
  0
LWPOLYLINE
  5
202
100
AcDbEntity
  8
Layer_1
 62
7
100
AcDbPolyline
 90
2
 70
0
 10
-153.737228
 20
52.747845
 30
0.0
 10
-153.968199
 20
53.217096
 30
0.0
  0
LWPOLYLINE
  5
203
100
AcDbEntity
  8
Layer_1
 62
7
100
AcDbPolyline
 90
8
 70
0
 10
-120.463116
 20
-116.346530
 30
0.0
 10
-120.807399
 20
-115.953141
 30
0.0
 10
-121.199998
 20
-115.608152
 30
0.0
 10
-121.634169
 20
-115.317463
 30
0.0
 10
-122.102517
 20
-115.086069
 30
0.0
 10
-122.596970
 20
-114.917865
 30
0.0
 10
-123.109091
 20
-114.815785
 30
0.0
 10
-123.630186
 20
-114.781580
 30
0.0
  0
LWPOLYLINE
  5
204
100
AcDbEntity
  8
Layer_1
 62
7
100
AcDbPolyline
 90
2
 70
0
 10
-146.584193
 20
-114.781580
 30
0.0
 10
-123.630186
 20
-114.781580
 30
0.0
  0
LWPOLYLINE
  5
205
100
AcDbEntity
  8
Layer_1
 62
7
100
AcDbPolyline
 90
13
 70
0
 10
-146.584193
 20
-114.781580
 30
0.0
 10
-147.105260
 20
-114.815785
 30
0.0
 10
-147.617409
 20
-114.917865
 30
0.0
 10
-148.111862
 20
-115.086069
 30
0.0
 10
-148.580181
 20
-115.317463
 30
0.0
 10
-149.014380
 20
-115.608181
 30
0.0
 10
-149.406951
 20
-115.953169
 30
0.0
 10
-149.751263
 20
-116.346559
 30
0.0
 10
-150.041359
 20
-116.781548
 30
0.0
 10
-150.272329
 20
-117.250827
 30
0.0
 10
-150.440167
 20
-117.746268
 30
0.0
 10
-150.542049
 20
-118.259461
 30
0.0
 10
-150.576226
 20
-118.781544
 30
0.0
  0
LWPOLYLINE
  5
206
100
AcDbEntity
  8
Layer_1
 62
7
100
AcDbPolyline
 90
2
 70
0
 10
-150.576198
 20
-120.781568
 30
0.0
 10
-150.576198
 20
-118.781544
 30
0.0
  0
LWPOLYLINE
  5
207
100
AcDbEntity
  8
Layer_1
 62
7
100
AcDbPolyline
 90
13
 70
0
 10
-150.576198
 20
-120.781568
 30
0.0
 10
-150.542049
 20
-121.303623
 30
0.0
 10
-150.440167
 20
-121.816815
 30
0.0
 10
-150.272329
 20
-122.312285
 30
0.0
 10
-150.041359
 20
-122.781507
 30
0.0
 10
-149.751263
 20
-123.216581
 30
0.0
 10
-149.406951
 20
-123.609971
 30
0.0
 10
-149.014380
 20
-123.954931
 30
0.0
 10
-148.580181
 20
-124.245648
 30
0.0
 10
-148.111862
 20
-124.477042
 30
0.0
 10
-147.617409
 20
-124.645190
 30
0.0
 10
-147.105260
 20
-124.747270
 30
0.0
 10
-146.584193
 20
-124.781503
 30
0.0
  0
LWPOLYLINE
  5
208
100
AcDbEntity
  8
Layer_1
 62
7
100
AcDbPolyline
 90
2
 70
0
 10
-123.630186
 20
-124.781503
 30
0.0
 10
-146.584193
 20
-124.781503
 30
0.0
  0
LWPOLYLINE
  5
209
100
AcDbEntity
  8
Layer_1
 62
7
100
AcDbPolyline
 90
13
 70
0
 10
-123.630186
 20
-124.781503
 30
0.0
 10
-123.109091
 20
-124.747270
 30
0.0
 10
-122.596970
 20
-124.645190
 30
0.0
 10
-122.102517
 20
-124.477042
 30
0.0
 10
-121.634169
 20
-124.245620
 30
0.0
 10
-121.199998
 20
-123.954903
 30
0.0
 10
-120.807399
 20
-123.609943
 30
0.0
 10
-120.463116
 20
-123.216553
 30
0.0
 10
-120.172992
 20
-122.781507
 30
0.0
 10
-119.942049
 20
-122.312285
 30
0.0
 10
-119.774183
 20
-121.816787
 30
0.0
 10
-119.672329
 20
-121.303623
 30
0.0
 10
-119.638152
 20
-120.781540
 30
0.0
  0
LWPOLYLINE
  5
20a
100
AcDbEntity
  8
Layer_1
 62
7
100
AcDbPolyline
 90
2
 70
0
 10
-119.638152
 20
-118.781544
 30
0.0
 10
-119.638152
 20
-120.781568
 30
0.0
  0
LWPOLYLINE
  5
20b
100
AcDbEntity
  8
Layer_1
 62
7
100
AcDbPolyline
 90
4
 70
0
 10
-119.638152
 20
-118.781544
 30
0.0
 10
-119.672329
 20
-118.259461
 30
0.0
 10
-119.774183
 20
-117.746268
 30
0.0
 10
-119.942049
 20
-117.250827
 30
0.0
  0
LWPOLYLINE
  5
20c
100
AcDbEntity
  8
Layer_1
 62
7
100
AcDbPolyline
 90
2
 70
0
 10
-120.172992
 20
-116.781604
 30
0.0
 10
-120.463116
 20
-116.346530
 30
0.0
  0
LWPOLYLINE
  5
20d
100
AcDbEntity
  8
Layer_1
 62
7
100
AcDbPolyline
 90
2
 70
0
 10
-119.942049
 20
-117.250827
 30
0.0
 10
-120.172992
 20
-116.781604
 30
0.0
  0
LWPOLYLINE
  5
20e
100
AcDbEntity
  8
Layer_1
 62
7
100
AcDbPolyline
 90
2
 70
0
 10
-85.562246
 20
45.753052
 30
0.0
 10
-85.128075
 20
46.043741
 30
0.0
  0
LWPOLYLINE
  5
20f
100
AcDbEntity
  8
Layer_1
 62
7
100
AcDbPolyline
 90
7
 70
0
 10
-84.735476
 20
46.388701
 30
0.0
 10
-84.391193
 20
46.782091
 30
0.0
 10
-84.101069
 20
47.217108
 30
0.0
 10
-83.870155
 20
47.686387
 30
0.0
 10
-83.702261
 20
48.181857
 30
0.0
 10
-83.600407
 20
48.694965
 30
0.0
 10
-83.566258
 20
49.217161
 30
0.0
  0
LWPOLYLINE
  5
210
100
AcDbEntity
  8
Layer_1
 62
7
100
AcDbPolyline
 90
2
 70
0
 10
-83.566258
 20
51.217072
 30
0.0
 10
-83.566258
 20
49.217161
 30
0.0
  0
LWPOLYLINE
  5
211
100
AcDbEntity
  8
Layer_1
 62
7
100
AcDbPolyline
 90
13
 70
0
 10
-83.566258
 20
51.217072
 30
0.0
 10
-83.600407
 20
51.739211
 30
0.0
 10
-83.702261
 20
52.252376
 30
0.0
 10
-83.870155
 20
52.747845
 30
0.0
 10
-84.101069
 20
53.217096
 30
0.0
 10
-84.391193
 20
53.652114
 30
0.0
 10
-84.735476
 20
54.045503
 30
0.0
 10
-85.128075
 20
54.390520
 30
0.0
 10
-85.562246
 20
54.681152
 30
0.0
 10
-86.030594
 20
54.912603
 30
0.0
 10
-86.525075
 20
55.080807
 30
0.0
 10
-87.037196
 20
55.182831
 30
0.0
 10
-87.558291
 20
55.217092
 30
0.0
  0
LWPOLYLINE
  5
212
100
AcDbEntity
  8
Layer_1
 62
7
100
AcDbPolyline
 90
2
 70
0
 10
-110.512271
 20
55.217092
 30
0.0
 10
-87.558291
 20
55.217092
 30
0.0
  0
LWPOLYLINE
  5
213
100
AcDbEntity
  8
Layer_1
 62
7
100
AcDbPolyline
 90
13
 70
0
 10
-110.512271
 20
55.217092
 30
0.0
 10
-111.033338
 20
55.182831
 30
0.0
 10
-111.545487
 20
55.080807
 30
0.0
 10
-112.039968
 20
54.912603
 30
0.0
 10
-112.508288
 20
54.681152
 30
0.0
 10
-112.942458
 20
54.390520
 30
0.0
 10
-113.335058
 20
54.045503
 30
0.0
 10
-113.679369
 20
53.652114
 30
0.0
 10
-113.969465
 20
53.217096
 30
0.0
 10
-114.200407
 20
52.747845
 30
0.0
 10
-114.368245
 20
52.252376
 30
0.0
 10
-114.470155
 20
51.739211
 30
0.0
 10
-114.504276
 20
51.217072
 30
0.0
  0
LWPOLYLINE
  5
214
100
AcDbEntity
  8
Layer_1
 62
7
100
AcDbPolyline
 90
2
 70
0
 10
-114.504276
 20
49.217161
 30
0.0
 10
-114.504276
 20
51.217072
 30
0.0
  0
LWPOLYLINE
  5
215
100
AcDbEntity
  8
Layer_1
 62
7
100
AcDbPolyline
 90
13
 70
0
 10
-114.504276
 20
49.217161
 30
0.0
 10
-114.470155
 20
48.694965
 30
0.0
 10
-114.368245
 20
48.181857
 30
0.0
 10
-114.200407
 20
47.686387
 30
0.0
 10
-113.969465
 20
47.217108
 30
0.0
 10
-113.679369
 20
46.782091
 30
0.0
 10
-113.335058
 20
46.388701
 30
0.0
 10
-112.942458
 20
46.043741
 30
0.0
 10
-112.508288
 20
45.753052
 30
0.0
 10
-112.039968
 20
45.521630
 30
0.0
 10
-111.545487
 20
45.353454
 30
0.0
 10
-111.033338
 20
45.251374
 30
0.0
 10
-110.512271
 20
45.217141
 30
0.0
  0
LWPOLYLINE
  5
216
100
AcDbEntity
  8
Layer_1
 62
7
100
AcDbPolyline
 90
2
 70
0
 10
-87.558291
 20
45.217141
 30
0.0
 10
-110.512271
 20
45.217141
 30
0.0
  0
LWPOLYLINE
  5
217
100
AcDbEntity
  8
Layer_1
 62
7
100
AcDbPolyline
 90
3
 70
0
 10
-87.558291
 20
45.217141
 30
0.0
 10
-87.037196
 20
45.251374
 30
0.0
 10
-86.525075
 20
45.353454
 30
0.0
  0
LWPOLYLINE
  5
218
100
AcDbEntity
  8
Layer_1
 62
7
100
AcDbPolyline
 90
2
 70
0
 10
-85.128075
 20
46.043741
 30
0.0
 10
-84.735476
 20
46.388701
 30
0.0
  0
LWPOLYLINE
  5
219
100
AcDbEntity
  8
Layer_1
 62
7
100
AcDbPolyline
 90
2
 70
0
 10
-86.030594
 20
45.521602
 30
0.0
 10
-85.562246
 20
45.753052
 30
0.0
  0
LWPOLYLINE
  5
21a
100
AcDbEntity
  8
Layer_1
 62
7
100
AcDbPolyline
 90
2
 70
0
 10
-86.525075
 20
45.353454
 30
0.0
 10
-86.030594
 20
45.521602
 30
0.0
  0
LWPOLYLINE
  5
21b
100
AcDbEntity
  8
Layer_1
 62
6
100
AcDbPolyline
 90
6
 70
0
 10
-64.611253
 20
23.217354
 30
0.0
 10
-64.611253
 20
-52.701129
 30
0.0
 10
-79.048621
 20
-67.750375
 30
0.0
 10
-93.335889
 20
-67.747553
 30
0.0
 10
-99.541305
 20
-61.537169
 30
0.0
 10
-99.541305
 20
-11.781899
 30
0.0
  0
LWPOLYLINE
  5
21c
100
AcDbEntity
  8
Layer_1
 62
6
100
AcDbPolyline
 90
2
 70
0
 10
-64.611253
 20
23.217354
 30
0.0
 10
-99.541305
 20
-11.782379
 30
0.0
  0
LWPOLYLINE
  5
21d
100
AcDbEntity
  8
Layer_1
 62
7
100
AcDbPolyline
 90
25
 70
0
 10
-237.037601
 20
-139.757654
 30
0.0
 10
-236.976387
 20
-139.291761
 30
0.0
 10
-237.037601
 20
-138.825897
 30
0.0
 10
-237.217094
 20
-138.391783
 30
0.0
 10
-237.502562
 20
-138.019024
 30
0.0
 10
-237.874615
 20
-137.732935
 30
0.0
 10
-238.307855
 20
-137.553103
 30
0.0
 10
-238.772816
 20
-137.491776
 30
0.0
 10
-239.237749
 20
-137.553103
 30
0.0
 10
-239.671016
 20
-137.732935
 30
0.0
 10
-240.043041
 20
-138.019024
 30
0.0
 10
-240.328537
 20
-138.391783
 30
0.0
 10
-240.508003
 20
-138.825897
 30
0.0
 10
-240.569217
 20
-139.291761
 30
0.0
 10
-240.508003
 20
-139.757654
 30
0.0
 10
-240.328537
 20
-140.191740
 30
0.0
 10
-240.043041
 20
-140.564555
 30
0.0
 10
-239.671016
 20
-140.850588
 30
0.0
 10
-239.237749
 20
-141.030448
 30
0.0
 10
-238.772816
 20
-141.091747
 30
0.0
 10
-238.307855
 20
-141.030448
 30
0.0
 10
-237.874615
 20
-140.850588
 30
0.0
 10
-237.502562
 20
-140.564555
 30
0.0
 10
-237.217094
 20
-140.191740
 30
0.0
 10
-237.037601
 20
-139.757654
 30
0.0
  0
LWPOLYLINE
  5
21e
100
AcDbEntity
  8
Layer_1
 62
7
100
AcDbPolyline
 90
25
 70
0
 10
-240.481953
 20
70.212603
 30
0.0
 10
-240.548360
 20
69.747416
 30
0.0
 10
-240.492367
 20
69.280959
 30
0.0
 10
-240.317757
 20
68.844785
 30
0.0
 10
-240.036466
 20
68.468837
 30
0.0
 10
-239.667629
 20
68.178656
 30
0.0
 10
-239.236394
 20
67.993998
 30
0.0
 10
-238.772167
 20
67.927450
 30
0.0
 10
-238.306585
 20
67.983584
 30
0.0
 10
-237.871313
 20
68.158562
 30
0.0
 10
-237.496099
 20
68.440417
 30
0.0
 10
-237.206482
 20
68.809959
 30
0.0
 10
-237.022219
 20
69.242069
 30
0.0
 10
-236.955784
 20
69.707200
 30
0.0
 10
-237.011805
 20
70.173741
 30
0.0
 10
-237.186416
 20
70.609887
 30
0.0
 10
-237.467735
 20
70.985836
 30
0.0
 10
-237.836543
 20
71.276045
 30
0.0
 10
-238.267779
 20
71.460618
 30
0.0
 10
-238.732006
 20
71.527223
 30
0.0
 10
-239.197588
 20
71.471089
 30
0.0
 10
-239.632831
 20
71.296139
 30
0.0
 10
-240.008046
 20
71.014255
 30
0.0
 10
-240.297691
 20
70.644714
 30
0.0
 10
-240.481953
 20
70.212603
 30
0.0
  0
LWPOLYLINE
  5
21f
100
AcDbEntity
  8
Layer_1
 62
7
100
AcDbPolyline
 90
25
 70
0
 10
-133.555799
 20
-137.743095
 30
0.0
 10
-133.987007
 20
-137.558437
 30
0.0
 10
-134.451234
 20
-137.491889
 30
0.0
 10
-134.916844
 20
-137.548023
 30
0.0
 10
-135.352087
 20
-137.722973
 30
0.0
 10
-135.727302
 20
-138.004828
 30
0.0
 10
-136.016918
 20
-138.374398
 30
0.0
 10
-136.201237
 20
-138.806480
 30
0.0
 10
-136.267616
 20
-139.271639
 30
0.0
 10
-136.211623
 20
-139.738152
 30
0.0
 10
-136.037012
 20
-140.174270
 30
0.0
 10
-135.755693
 20
-140.550219
 30
0.0
 10
-135.386857
 20
-140.840428
 30
0.0
 10
-134.955650
 20
-141.025086
 30
0.0
 10
-134.491422
 20
-141.091634
 30
0.0
 10
-134.025812
 20
-141.035528
 30
0.0
 10
-133.590597
 20
-140.860578
 30
0.0
 10
-133.215383
 20
-140.578695
 30
0.0
 10
-132.925738
 20
-140.209125
 30
0.0
 10
-132.741447
 20
-139.777071
 30
0.0
 10
-132.675040
 20
-139.311884
 30
0.0
 10
-132.731061
 20
-138.845371
 30
0.0
 10
-132.905672
 20
-138.409253
 30
0.0
 10
-133.186963
 20
-138.033304
 30
0.0
 10
-133.555799
 20
-137.743095
 30
0.0
  0
LWPOLYLINE
  5
220
100
AcDbEntity
  8
Layer_1
 62
7
100
AcDbPolyline
 90
25
 70
0
 10
-134.916844
 20
71.471089
 30
0.0
 10
-135.352087
 20
71.296139
 30
0.0
 10
-135.727302
 20
71.014255
 30
0.0
 10
-136.016918
 20
70.644714
 30
0.0
 10
-136.201237
 20
70.212603
 30
0.0
 10
-136.267616
 20
69.747416
 30
0.0
 10
-136.211623
 20
69.280931
 30
0.0
 10
-136.037012
 20
68.844785
 30
0.0
 10
-135.755693
 20
68.468837
 30
0.0
 10
-135.386857
 20
68.178656
 30
0.0
 10
-134.955650
 20
67.993998
 30
0.0
 10
-134.491422
 20
67.927450
 30
0.0
 10
-134.025812
 20
67.983584
 30
0.0
 10
-133.590597
 20
68.158562
 30
0.0
 10
-133.215383
 20
68.440417
 30
0.0
 10
-132.925738
 20
68.809959
 30
0.0
 10
-132.741447
 20
69.242069
 30
0.0
 10
-132.675040
 20
69.707200
 30
0.0
 10
-132.731061
 20
70.173741
 30
0.0
 10
-132.905672
 20
70.609887
 30
0.0
 10
-133.186963
 20
70.985836
 30
0.0
 10
-133.555799
 20
71.276045
 30
0.0
 10
-133.987007
 20
71.460618
 30
0.0
 10
-134.451234
 20
71.527223
 30
0.0
 10
-134.916844
 20
71.471089
 30
0.0
  0
LWPOLYLINE
  5
221
100
AcDbEntity
  8
Layer_1
 62
6
100
AcDbPolyline
 90
2
 70
0
 10
-109.521304
 20
5.217446
 30
0.0
 10
-129.481330
 20
-14.782344
 30
0.0
  0
LWPOLYLINE
  5
222
100
AcDbEntity
  8
Layer_1
 62
6
100
AcDbPolyline
 90
2
 70
0
 10
-109.521304
 20
25.217350
 30
0.0
 10
-109.521304
 20
5.217446
 30
0.0
  0
LWPOLYLINE
  5
223
100
AcDbEntity
  8
Layer_1
 62
6
100
AcDbPolyline
 90
2
 70
0
 10
-129.481330
 20
45.217141
 30
0.0
 10
-109.521304
 20
25.217350
 30
0.0
  0
LWPOLYLINE
  5
224
100
AcDbEntity
  8
Layer_1
 62
6
100
AcDbPolyline
 90
2
 70
0
 10
-139.461356
 20
45.217141
 30
0.0
 10
-129.481330
 20
45.217141
 30
0.0
  0
LWPOLYLINE
  5
225
100
AcDbEntity
  8
Layer_1
 62
6
100
AcDbPolyline
 90
2
 70
0
 10
-159.421353
 20
25.217350
 30
0.0
 10
-139.461356
 20
45.217141
 30
0.0
  0
LWPOLYLINE
  5
226
100
AcDbEntity
  8
Layer_1
 62
6
100
AcDbPolyline
 90
2
 70
0
 10
-159.421353
 20
5.217446
 30
0.0
 10
-159.421353
 20
25.217350
 30
0.0
  0
LWPOLYLINE
  5
227
100
AcDbEntity
  8
Layer_1
 62
6
100
AcDbPolyline
 90
2
 70
0
 10
-139.461356
 20
-14.782344
 30
0.0
 10
-159.421353
 20
5.217446
 30
0.0
  0
LWPOLYLINE
  5
228
100
AcDbEntity
  8
Layer_1
 62
6
100
AcDbPolyline
 90
2
 70
0
 10
-129.481330
 20
-14.782344
 30
0.0
 10
-139.461356
 20
-14.782344
 30
0.0
  0
LWPOLYLINE
  5
229
100
AcDbEntity
  8
Layer_1
 62
6
100
AcDbPolyline
 90
5
 70
0
 10
-204.331403
 20
23.217354
 30
0.0
 10
-204.331403
 20
-92.781737
 30
0.0
 10
-169.401380
 20
-57.782004
 30
0.0
 10
-169.401380
 20
-11.782379
 30
0.0
 10
-204.331403
 20
23.217354
 30
0.0
  0
LWPOLYLINE
  5
22a
100
AcDbEntity
  8
Layer_1
 62
7
100
AcDbPolyline
 90
2
 70
0
 10
-28.614119
 20
-33.882213
 30
0.0
 10
-28.434654
 20
-34.316327
 30
0.0
  0
LWPOLYLINE
  5
22b
100
AcDbEntity
  8
Layer_1
 62
7
100
AcDbPolyline
 90
10
 70
0
 10
-30.634802
 20
-36.520850
 30
0.0
 10
-30.169869
 20
-36.582177
 30
0.0
 10
-29.704936
 20
-36.520850
 30
0.0
 10
-29.271668
 20
-36.341018
 30
0.0
 10
-28.899615
 20
-36.054985
 30
0.0
 10
-28.646349
 20
-35.715811
 30
0.0
 10
-28.614119
 20
-35.682198
 30
0.0
 10
-28.434654
 20
-35.248084
 30
0.0
 10
-28.373468
 20
-34.782191
 30
0.0
 10
-28.434654
 20
-34.316327
 30
0.0
  0
LWPOLYLINE
  5
22c
100
AcDbEntity
  8
Layer_1
 62
7
100
AcDbPolyline
 90
16
 70
0
 10
-28.614119
 20
-33.882213
 30
0.0
 10
-28.899615
 20
-33.509426
 30
0.0
 10
-29.271668
 20
-33.223365
 30
0.0
 10
-29.704936
 20
-33.043533
 30
0.0
 10
-30.169869
 20
-32.982206
 30
0.0
 10
-30.634802
 20
-33.043533
 30
0.0
 10
-31.068041
 20
-33.223365
 30
0.0
 10
-31.440123
 20
-33.509426
 30
0.0
 10
-31.725591
 20
-33.882213
 30
0.0
 10
-31.905056
 20
-34.316327
 30
0.0
 10
-31.966270
 20
-34.782191
 30
0.0
 10
-31.905056
 20
-35.248084
 30
0.0
 10
-31.725591
 20
-35.682198
 30
0.0
 10
-31.440123
 20
-36.054985
 30
0.0
 10
-31.068041
 20
-36.341018
 30
0.0
 10
-30.634802
 20
-36.520850
 30
0.0
  0
LWPOLYLINE
  5
22d
100
AcDbEntity
  8
Layer_1
 62
7
100
AcDbPolyline
 90
2
 70
0
 10
-240.328537
 20
-35.682198
 30
0.0
 10
-240.508003
 20
-35.248084
 30
0.0
  0
LWPOLYLINE
  5
22e
100
AcDbEntity
  8
Layer_1
 62
7
100
AcDbPolyline
 90
12
 70
0
 10
-237.502562
 20
-33.509426
 30
0.0
 10
-237.874615
 20
-33.223393
 30
0.0
 10
-238.307855
 20
-33.043533
 30
0.0
 10
-238.772816
 20
-32.982235
 30
0.0
 10
-239.237749
 20
-33.043533
 30
0.0
 10
-239.671016
 20
-33.223393
 30
0.0
 10
-240.043041
 20
-33.509426
 30
0.0
 10
-240.296308
 20
-33.848572
 30
0.0
 10
-240.328537
 20
-33.882213
 30
0.0
 10
-240.508003
 20
-34.316327
 30
0.0
 10
-240.569217
 20
-34.782191
 30
0.0
 10
-240.508003
 20
-35.248084
 30
0.0
  0
LWPOLYLINE
  5
22f
100
AcDbEntity
  8
Layer_1
 62
7
100
AcDbPolyline
 90
14
 70
0
 10
-240.328537
 20
-35.682198
 30
0.0
 10
-240.043041
 20
-36.055014
 30
0.0
 10
-239.671016
 20
-36.341046
 30
0.0
 10
-239.237749
 20
-36.520850
 30
0.0
 10
-238.772816
 20
-36.582177
 30
0.0
 10
-238.307855
 20
-36.520850
 30
0.0
 10
-237.874615
 20
-36.341046
 30
0.0
 10
-237.502562
 20
-36.055014
 30
0.0
 10
-237.217094
 20
-35.682198
 30
0.0
 10
-237.037601
 20
-35.248084
 30
0.0
 10
-236.976387
 20
-34.782220
 30
0.0
 10
-237.037601
 20
-34.316327
 30
0.0
 10
-237.217094
 20
-33.882213
 30
0.0
 10
-237.502562
 20
-33.509426
 30
0.0
  0
LWPOLYLINE
  5
230
100
AcDbEntity
  8
Layer_1
 62
7
100
AcDbPolyline
 90
2
 70
0
 10
-29.704936
 20
71.466009
 30
0.0
 10
-29.271668
 20
71.286177
 30
0.0
  0
LWPOLYLINE
  5
231
100
AcDbEntity
  8
Layer_1
 62
7
100
AcDbPolyline
 90
17
 70
0
 10
-31.725591
 20
70.627329
 30
0.0
 10
-31.905056
 20
70.193158
 30
0.0
 10
-31.966270
 20
69.727350
 30
0.0
 10
-31.905056
 20
69.261514
 30
0.0
 10
-31.725591
 20
68.827344
 30
0.0
 10
-31.440123
 20
68.454556
 30
0.0
 10
-31.068041
 20
68.168524
 30
0.0
 10
-30.634802
 20
67.988692
 30
0.0
 10
-30.169869
 20
67.927365
 30
0.0
 10
-29.704936
 20
67.988692
 30
0.0
 10
-29.271668
 20
68.168524
 30
0.0
 10
-28.899615
 20
68.454556
 30
0.0
 10
-28.614119
 20
68.827344
 30
0.0
 10
-28.434654
 20
69.261514
 30
0.0
 10
-28.373468
 20
69.727350
 30
0.0
 10
-28.433751
 20
70.146620
 30
0.0
 10
-28.433751
 20
70.193158
 30
0.0
  0
LWPOLYLINE
  5
232
100
AcDbEntity
  8
Layer_1
 62
7
100
AcDbPolyline
 90
4
 70
0
 10
-28.434654
 20
70.193158
 30
0.0
 10
-28.614119
 20
70.627329
 30
0.0
 10
-28.899615
 20
71.000116
 30
0.0
 10
-29.271668
 20
71.286177
 30
0.0
  0
LWPOLYLINE
  5
233
100
AcDbEntity
  8
Layer_1
 62
7
100
AcDbPolyline
 90
6
 70
0
 10
-29.704936
 20
71.466009
 30
0.0
 10
-30.169869
 20
71.527307
 30
0.0
 10
-30.634802
 20
71.466009
 30
0.0
 10
-31.068041
 20
71.286177
 30
0.0
 10
-31.440123
 20
71.000116
 30
0.0
 10
-31.725591
 20
70.627329
 30
0.0
  0
LWPOLYLINE
  5
234
100
AcDbEntity
  8
Layer_1
 62
7
100
AcDbPolyline
 90
2
 70
0
 10
-169.401380
 20
-6.852775
 30
0.0
 10
-169.401380
 20
-6.782445
 30
0.0
  0
LWPOLYLINE
  5
235
100
AcDbEntity
  8
Layer_1
 62
5
100
AcDbPolyline
 90
2
 70
0
 10
-109.521304
 20
5.217446
 30
0.0
 10
-109.521304
 20
5.147145
 30
0.0
  0
LWPOLYLINE
  5
236
100
AcDbEntity
  8
Layer_1
 62
6
100
AcDbPolyline
 90
2
 70
0
 10
-119.501303
 20
-94.852091
 30
0.0
 10
-119.571548
 20
-94.852091
 30
0.0
  0
LWPOLYLINE
  5
237
100
AcDbEntity
  8
Layer_1
 62
6
100
AcDbPolyline
 90
2
 70
0
 10
-149.371137
 20
-94.852091
 30
0.0
 10
-149.441326
 20
-94.852091
 30
0.0
  0
LWPOLYLINE
  5
238
100
AcDbEntity
  8
Layer_1
 62
6
100
AcDbPolyline
 90
2
 70
0
 10
-109.521304
 20
-84.781809
 30
0.0
 10
-129.481330
 20
-104.781656
 30
0.0
  0
LWPOLYLINE
  5
239
100
AcDbEntity
  8
Layer_1
 62
6
100
AcDbPolyline
 90
2
 70
0
 10
-139.461356
 20
-104.781656
 30
0.0
 10
-159.421353
 20
-84.781809
 30
0.0
  0
LWPOLYLINE
  5
23a
100
AcDbEntity
  8
Layer_1
 62
6
100
AcDbPolyline
 90
2
 70
0
 10
-109.521304
 20
-74.781886
 30
0.0
 10
-109.521304
 20
-84.781809
 30
0.0
  0
LWPOLYLINE
  5
23b
100
AcDbEntity
  8
Layer_1
 62
6
100
AcDbPolyline
 90
2
 70
0
 10
-129.481330
 20
-54.782039
 30
0.0
 10
-109.521304
 20
-74.781886
 30
0.0
  0
LWPOLYLINE
  5
23c
100
AcDbEntity
  8
Layer_1
 62
6
100
AcDbPolyline
 90
2
 70
0
 10
-139.461356
 20
-54.782039
 30
0.0
 10
-129.481330
 20
-54.782039
 30
0.0
  0
LWPOLYLINE
  5
23d
100
AcDbEntity
  8
Layer_1
 62
6
100
AcDbPolyline
 90
2
 70
0
 10
-159.421353
 20
-74.781886
 30
0.0
 10
-139.461356
 20
-54.782039
 30
0.0
  0
LWPOLYLINE
  5
23e
100
AcDbEntity
  8
Layer_1
 62
6
100
AcDbPolyline
 90
2
 70
0
 10
-159.421353
 20
-84.781809
 30
0.0
 10
-159.421353
 20
-74.781886
 30
0.0
  0
LWPOLYLINE
  5
23f
100
AcDbEntity
  8
Layer_1
 62
6
100
AcDbPolyline
 90
2
 70
0
 10
-129.481330
 20
-104.781656
 30
0.0
 10
-139.461356
 20
-104.781656
 30
0.0
  0
LWPOLYLINE
  5
240
100
AcDbEntity
  8
Layer_1
 62
7
100
AcDbPolyline
 90
2
 70
0
 10
-132.952450
 20
-111.308045
 30
0.0
 10
-132.952450
 20
-109.173401
 30
0.0
  0
LWPOLYLINE
  5
241
100
AcDbEntity
  8
Layer_1
 62
7
100
AcDbPolyline
 90
2
 70
0
 10
-135.977949
 20
-111.308045
 30
0.0
 10
-132.952450
 20
-111.308045
 30
0.0
  0
LWPOLYLINE
  5
242
100
AcDbEntity
  8
Layer_1
 62
7
100
AcDbPolyline
 90
2
 70
0
 10
-135.977949
 20
-109.173401
 30
0.0
 10
-135.977949
 20
-111.308045
 30
0.0
  0
LWPOLYLINE
  5
243
100
AcDbEntity
  8
Layer_1
 62
7
100
AcDbPolyline
 90
2
 70
0
 10
-132.952450
 20
-109.173401
 30
0.0
 10
-135.977949
 20
-109.173401
 30
0.0
  0
LWPOLYLINE
  5
244
100
AcDbEntity
  8
Layer_1
 62
7
100
AcDbPolyline
 90
2
 70
0
 10
-132.946594
 20
-130.528479
 30
0.0
 10
-132.946594
 20
-128.393835
 30
0.0
  0
LWPOLYLINE
  5
245
100
AcDbEntity
  8
Layer_1
 62
7
100
AcDbPolyline
 90
2
 70
0
 10
-135.972093
 20
-130.528479
 30
0.0
 10
-132.946594
 20
-130.528479
 30
0.0
  0
LWPOLYLINE
  5
246
100
AcDbEntity
  8
Layer_1
 62
7
100
AcDbPolyline
 90
2
 70
0
 10
-135.972093
 20
-128.393835
 30
0.0
 10
-135.972093
 20
-130.528479
 30
0.0
  0
LWPOLYLINE
  5
247
100
AcDbEntity
  8
Layer_1
 62
7
100
AcDbPolyline
 90
2
 70
0
 10
-132.946594
 20
-128.393835
 30
0.0
 10
-135.972093
 20
-128.393835
 30
0.0
  0
LWPOLYLINE
  5
248
100
AcDbEntity
  8
Layer_1
 62
7
100
AcDbPolyline
 90
2
 70
0
 10
-98.039315
 20
58.782547
 30
0.0
 10
-98.039315
 20
60.917191
 30
0.0
  0
LWPOLYLINE
  5
249
100
AcDbEntity
  8
Layer_1
 62
7
100
AcDbPolyline
 90
2
 70
0
 10
-101.064814
 20
58.782547
 30
0.0
 10
-98.039315
 20
58.782547
 30
0.0
  0
LWPOLYLINE
  5
24a
100
AcDbEntity
  8
Layer_1
 62
7
100
AcDbPolyline
 90
2
 70
0
 10
-101.064814
 20
60.917191
 30
0.0
 10
-101.064814
 20
58.782547
 30
0.0
  0
LWPOLYLINE
  5
24b
100
AcDbEntity
  8
Layer_1
 62
7
100
AcDbPolyline
 90
2
 70
0
 10
-98.039315
 20
60.917191
 30
0.0
 10
-101.064814
 20
60.917191
 30
0.0
  0
LWPOLYLINE
  5
24c
100
AcDbEntity
  8
Layer_1
 62
7
100
AcDbPolyline
 90
2
 70
0
 10
-98.033459
 20
39.562113
 30
0.0
 10
-98.033459
 20
41.696757
 30
0.0
  0
LWPOLYLINE
  5
24d
100
AcDbEntity
  8
Layer_1
 62
7
100
AcDbPolyline
 90
2
 70
0
 10
-101.058957
 20
39.562113
 30
0.0
 10
-98.033459
 20
39.562113
 30
0.0
  0
LWPOLYLINE
  5
24e
100
AcDbEntity
  8
Layer_1
 62
7
100
AcDbPolyline
 90
2
 70
0
 10
-101.058957
 20
41.696757
 30
0.0
 10
-101.058957
 20
39.562113
 30
0.0
  0
LWPOLYLINE
  5
24f
100
AcDbEntity
  8
Layer_1
 62
7
100
AcDbPolyline
 90
2
 70
0
 10
-98.033459
 20
41.696757
 30
0.0
 10
-101.058957
 20
41.696757
 30
0.0
  0
LWPOLYLINE
  5
250
100
AcDbEntity
  8
Layer_1
 62
7
100
AcDbPolyline
 90
2
 70
0
 10
-167.884292
 20
58.764400
 30
0.0
 10
-167.884292
 20
60.899044
 30
0.0
  0
LWPOLYLINE
  5
251
100
AcDbEntity
  8
Layer_1
 62
7
100
AcDbPolyline
 90
2
 70
0
 10
-170.909790
 20
58.764400
 30
0.0
 10
-167.884292
 20
58.764400
 30
0.0
  0
LWPOLYLINE
  5
252
100
AcDbEntity
  8
Layer_1
 62
7
100
AcDbPolyline
 90
2
 70
0
 10
-170.909790
 20
60.899044
 30
0.0
 10
-170.909790
 20
58.764400
 30
0.0
  0
LWPOLYLINE
  5
253
100
AcDbEntity
  8
Layer_1
 62
7
100
AcDbPolyline
 90
2
 70
0
 10
-167.884292
 20
60.899044
 30
0.0
 10
-170.909790
 20
60.899044
 30
0.0
  0
LWPOLYLINE
  5
254
100
AcDbEntity
  8
Layer_1
 62
7
100
AcDbPolyline
 90
2
 70
0
 10
-167.878435
 20
39.543966
 30
0.0
 10
-167.878435
 20
41.678610
 30
0.0
  0
LWPOLYLINE
  5
255
100
AcDbEntity
  8
Layer_1
 62
7
100
AcDbPolyline
 90
2
 70
0
 10
-170.903934
 20
39.543966
 30
0.0
 10
-167.878435
 20
39.543966
 30
0.0
  0
LWPOLYLINE
  5
256
100
AcDbEntity
  8
Layer_1
 62
7
100
AcDbPolyline
 90
2
 70
0
 10
-170.903934
 20
41.678610
 30
0.0
 10
-170.903934
 20
39.543966
 30
0.0
  0
LWPOLYLINE
  5
257
100
AcDbEntity
  8
Layer_1
 62
7
100
AcDbPolyline
 90
2
 70
0
 10
-167.878435
 20
41.678610
 30
0.0
 10
-170.903934
 20
41.678610
 30
0.0
  0
LWPOLYLINE
  5
258
100
AcDbEntity
  8
Layer_1
 62
7
100
AcDbPolyline
 90
5
 70
0
 10
-154.972625
 20
-127.025678
 30
0.0
 10
-157.998123
 20
-127.025678
 30
0.0
 10
-157.998123
 20
-129.160322
 30
0.0
 10
-154.972625
 20
-129.160322
 30
0.0
 10
-154.972625
 20
-127.025678
 30
0.0
  0
LWPOLYLINE
  5
259
100
AcDbEntity
  8
Layer_1
 62
7
100
AcDbPolyline
 90
5
 70
0
 10
-154.860935
 20
-139.296390
 30
0.0
 10
-157.886434
 20
-139.296390
 30
0.0
 10
-157.886434
 20
-141.431034
 30
0.0
 10
-154.860935
 20
-141.431034
 30
0.0
 10
-154.860935
 20
-139.296390
 30
0.0
  0
SPLINE
  5
25a
100
AcDbEntity
  8
Layer_1
 62
4
100
AcDbSpline
 70
8
 71
3
 72
8
 73
4
 74
0
 40
0
 40
0
 40
0
 40
0
 40
1
 40
1
 40
1
 40
1
 10
-244.375954
 20
60.382295
 30
0.0
 10
-244.215065
 20
60.815817
 30
0.0
 10
-244.375954
 20
72.108205
 30
0.0
 10
-244.375954
 20
72.108205
 30
0.0
  0
LWPOLYLINE
  5
25b
100
AcDbEntity
  8
Layer_1
 62
4
100
AcDbPolyline
 90
57
 70
0
 10
-229.449661
 20
75.383027
 30
0.0
 10
-219.334961
 20
65.173441
 30
0.0
 10
-151.739981
 20
65.217016
 30
0.0
 10
-141.593048
 20
75.384128
 30
0.0
 10
-127.378873
 20
75.384213
 30
0.0
 10
-117.231968
 20
65.217101
 30
0.0
 10
-49.412545
 20
65.230365
 30
0.0
 10
-39.489453
 20
75.379076
 30
0.0
 10
-27.685227
 20
75.379133
 30
0.0
 10
-24.691216
 20
72.217058
 30
0.0
 10
-24.691216
 20
60.394882
 30
0.0
 10
-38.988963
 20
46.062876
 30
0.0
 10
-39.006800
 20
-7.508490
 30
0.0
 10
-24.538960
 20
-27.660878
 30
0.0
 10
-24.610387
 20
-41.974907
 30
0.0
 10
-67.627836
 20
-84.470433
 30
0.0
 10
-67.636726
 20
-132.636990
 30
0.0
 10
-65.945266
 20
-134.353776
 30
0.0
 10
-27.741979
 20
-134.353776
 30
0.0
 10
-24.534247
 20
-137.188190
 30
0.0
 10
-24.534247
 20
-144.820410
 30
0.0
 10
-27.677336
 20
-147.963491
 30
0.0
 10
-82.897101
 20
-147.963491
 30
0.0
 10
-93.249341
 20
-138.740158
 30
0.0
 10
-116.499515
 20
-138.806875
 30
0.0
 10
-127.375715
 20
-147.796669
 30
0.0
 10
-164.172674
 20
-147.770705
 30
0.0
 10
-164.167622
 20
-139.789376
 30
0.0
 10
-163.604459
 20
-139.575479
 30
0.0
 10
-163.070055
 20
-139.241244
 30
0.0
 10
-162.586456
 20
-138.786047
 30
0.0
 10
-162.165112
 20
-138.228235
 30
0.0
 10
-161.817471
 20
-137.552144
 30
0.0
 10
-161.554981
 20
-136.776174
 30
0.0
 10
-161.389091
 20
-135.918670
 30
0.0
 10
-161.331250
 20
-134.998033
 30
0.0
 10
-161.389091
 20
-134.077367
 30
0.0
 10
-161.554981
 20
-133.219863
 30
0.0
 10
-161.817471
 20
-132.443893
 30
0.0
 10
-162.165112
 20
-131.767802
 30
0.0
 10
-162.586456
 20
-131.209989
 30
0.0
 10
-163.070055
 20
-130.754793
 30
0.0
 10
-163.604459
 20
-130.420557
 30
0.0
 10
-164.163725
 20
-130.197461
 30
0.0
 10
-164.141429
 20
-122.270911
 30
0.0
 10
-207.008815
 20
-122.227731
 30
0.0
 10
-229.453132
 20
-144.781407
 30
0.0
 10
-240.128470
 20
-144.781435
 30
0.0
 10
-244.374842
 20
-140.652524
 30
0.0
 10
-244.374842
 20
-127.137043
 30
0.0
 10
-232.700991
 20
-115.588058
 30
0.0
 10
-232.758011
 20
-62.055921
 30
0.0
 10
-244.403629
 20
-41.903533
 30
0.0
 10
-244.403629
 20
-27.660991
 30
0.0
 10
-232.758011
 20
-7.508603
 30
0.0
 10
-232.758011
 20
48.861561
 30
0.0
 10
-244.375954
 20
60.382295
 30
0.0
  0
LWPOLYLINE
  5
25c
100
AcDbEntity
  8
Layer_1
 62
4
100
AcDbPolyline
 90
3
 70
0
 10
-244.375954
 20
72.108205
 30
0.0
 10
-241.098265
 20
75.385906
 30
0.0
 10
-229.449661
 20
75.383084
 30
0.0
  0
LWPOLYLINE
  5
25d
100
AcDbEntity
  8
Layer_1
 62
7
100
AcDbPolyline
 90
2
 70
0
 10
-29.720884
 20
-137.536142
 30
0.0
 10
-29.287617
 20
-137.715974
 30
0.0
  0
LWPOLYLINE
  5
25e
100
AcDbEntity
  8
Layer_1
 62
7
100
AcDbPolyline
 90
17
 70
0
 10
-31.741539
 20
-138.374821
 30
0.0
 10
-31.921004
 20
-138.808992
 30
0.0
 10
-31.982218
 20
-139.274800
 30
0.0
 10
-31.921004
 20
-139.740636
 30
0.0
 10
-31.741539
 20
-140.174807
 30
0.0
 10
-31.456071
 20
-140.547594
 30
0.0
 10
-31.083989
 20
-140.833626
 30
0.0
 10
-30.650750
 20
-141.013458
 30
0.0
 10
-30.185817
 20
-141.074785
 30
0.0
 10
-29.720884
 20
-141.013458
 30
0.0
 10
-29.287617
 20
-140.833626
 30
0.0
 10
-28.915566
 20
-140.547594
 30
0.0
 10
-28.630070
 20
-140.174807
 30
0.0
 10
-28.450605
 20
-139.740636
 30
0.0
 10
-28.389419
 20
-139.274800
 30
0.0
 10
-28.449702
 20
-138.855531
 30
0.0
 10
-28.449702
 20
-138.808992
 30
0.0
  0
LWPOLYLINE
  5
25f
100
AcDbEntity
  8
Layer_1
 62
7
100
AcDbPolyline
 90
4
 70
0
 10
-28.450605
 20
-138.808992
 30
0.0
 10
-28.630070
 20
-138.374821
 30
0.0
 10
-28.915566
 20
-138.002034
 30
0.0
 10
-29.287617
 20
-137.715974
 30
0.0
  0
LWPOLYLINE
  5
260
100
AcDbEntity
  8
Layer_1
 62
7
100
AcDbPolyline
 90
6
 70
0
 10
-29.720884
 20
-137.536142
 30
0.0
 10
-30.185817
 20
-137.474843
 30
0.0
 10
-30.650750
 20
-137.536142
 30
0.0
 10
-31.083989
 20
-137.715974
 30
0.0
 10
-31.456071
 20
-138.002034
 30
0.0
 10
-31.741539
 20
-138.374821
 30
0.0
  0
LWPOLYLINE
  5
261
100
AcDbEntity
  8
Layer_1
 62
7
100
AcDbPolyline
 90
2
 70
0
 10
-77.661601
 20
-158.121320
 30
0.0
 10
-77.661601
 20
-165.021315
 30
0.0
  0
LWPOLYLINE
  5
262
100
AcDbEntity
  8
Layer_1
 62
7
100
AcDbPolyline
 90
2
 70
0
 10
-68.461608
 20
-165.021315
 30
0.0
 10
-68.461608
 20
-158.121320
 30
0.0
  0
LWPOLYLINE
  5
263
100
AcDbEntity
  8
Layer_1
 62
7
100
AcDbPolyline
 90
2
 70
0
 10
-77.661601
 20
-165.021315
 30
0.0
 10
-68.461608
 20
-165.021315
 30
0.0
  0
LWPOLYLINE
  5
264
100
AcDbEntity
  8
Layer_1
 62
7
100
AcDbPolyline
 90
2
 70
0
 10
-68.461608
 20
-158.121320
 30
0.0
 10
-77.661601
 20
-158.121320
 30
0.0
  0
LWPOLYLINE
  5
265
100
AcDbEntity
  8
Layer_1
 62
7
100
AcDbPolyline
 90
2
 70
0
 10
-245.811576
 20
-168.121300
 30
0.0
 10
-252.711599
 20
-168.121300
 30
0.0
  0
LWPOLYLINE
  5
266
100
AcDbEntity
  8
Layer_1
 62
7
100
AcDbPolyline
 90
2
 70
0
 10
-245.811576
 20
-177.321293
 30
0.0
 10
-245.811576
 20
-168.121300
 30
0.0
  0
LWPOLYLINE
  5
267
100
AcDbEntity
  8
Layer_1
 62
7
100
AcDbPolyline
 90
2
 70
0
 10
-252.711599
 20
-177.321293
 30
0.0
 10
-245.811576
 20
-177.321293
 30
0.0
  0
LWPOLYLINE
  5
268
100
AcDbEntity
  8
Layer_1
 62
7
100
AcDbPolyline
 90
2
 70
0
 10
-252.711599
 20
-168.121300
 30
0.0
 10
-252.711599
 20
-177.321293
 30
0.0
  0
LWPOLYLINE
  5
269
100
AcDbEntity
  8
Layer_1
 62
7
100
AcDbPolyline
 90
2
 70
0
 10
-146.661576
 20
-158.121320
 30
0.0
 10
-146.661576
 20
-165.021315
 30
0.0
  0
LWPOLYLINE
  5
26a
100
AcDbEntity
  8
Layer_1
 62
7
100
AcDbPolyline
 90
2
 70
0
 10
-137.461554
 20
-158.121320
 30
0.0
 10
-146.661576
 20
-158.121320
 30
0.0
  0
LWPOLYLINE
  5
26b
100
AcDbEntity
  8
Layer_1
 62
7
100
AcDbPolyline
 90
3
 70
0
 10
-146.661576
 20
-165.021315
 30
0.0
 10
-137.461554
 20
-165.021315
 30
0.0
 10
-137.461498
 20
-158.121320
 30
0.0
  0
LWPOLYLINE
  5
26c
100
AcDbEntity
  8
Layer_1
 62
7
100
AcDbPolyline
 90
2
 70
0
 10
-44.661610
 20
-158.121320
 30
0.0
 10
-53.861603
 20
-158.121320
 30
0.0
  0
LWPOLYLINE
  5
26d
100
AcDbEntity
  8
Layer_1
 62
7
100
AcDbPolyline
 90
2
 70
0
 10
-53.861603
 20
-165.021315
 30
0.0
 10
-44.661610
 20
-165.021315
 30
0.0
  0
LWPOLYLINE
  5
26e
100
AcDbEntity
  8
Layer_1
 62
7
100
AcDbPolyline
 90
2
 70
0
 10
-53.861603
 20
-158.121320
 30
0.0
 10
-53.861603
 20
-165.021315
 30
0.0
  0
LWPOLYLINE
  5
26f
100
AcDbEntity
  8
Layer_1
 62
7
100
AcDbPolyline
 90
2
 70
0
 10
-44.661554
 20
-165.021315
 30
0.0
 10
-44.661554
 20
-158.121320
 30
0.0
  0
LWPOLYLINE
  5
270
100
AcDbEntity
  8
Layer_1
 62
7
100
AcDbPolyline
 90
2
 70
0
 10
34.138164
 20
-186.323025
 30
0.0
 10
34.604508
 20
-186.261642
 30
0.0
  0
LWPOLYLINE
  5
271
100
AcDbEntity
  8
Layer_1
 62
7
100
AcDbPolyline
 90
2
 70
0
 10
32.397869
 20
-184.054974
 30
0.0
 10
32.336486
 20
-184.521290
 30
0.0
  0
LWPOLYLINE
  5
272
100
AcDbEntity
  8
Layer_1
 62
7
100
AcDbPolyline
 90
2
 70
0
 10
33.237311
 20
-182.960968
 30
0.0
 10
32.864157
 20
-183.247283
 30
0.0
  0
LWPOLYLINE
  5
273
100
AcDbEntity
  8
Layer_1
 62
7
100
AcDbPolyline
 90
2
 70
0
 10
35.878516
 20
-184.054974
 30
0.0
 10
35.698515
 20
-183.620437
 30
0.0
  0
LWPOLYLINE
  5
274
100
AcDbEntity
  8
Layer_1
 62
7
100
AcDbPolyline
 90
2
 70
0
 10
35.039046
 20
-186.081640
 30
0.0
 10
35.412200
 20
-185.795326
 30
0.0
  0
LWPOLYLINE
  5
275
100
AcDbEntity
  8
Layer_1
 62
7
100
AcDbPolyline
 90
2
 70
0
 10
32.577871
 20
-185.422172
 30
0.0
 10
32.864157
 20
-185.795326
 30
0.0
  0
LWPOLYLINE
  5
276
100
AcDbEntity
  8
Layer_1
 62
7
100
AcDbPolyline
 90
2
 70
0
 10
35.698515
 20
-183.620437
 30
0.0
 10
35.412200
 20
-183.247283
 30
0.0
  0
LWPOLYLINE
  5
277
100
AcDbEntity
  8
Layer_1
 62
7
100
AcDbPolyline
 90
2
 70
0
 10
35.878516
 20
-184.987634
 30
0.0
 10
35.939899
 20
-184.521290
 30
0.0
  0
LWPOLYLINE
  5
278
100
AcDbEntity
  8
Layer_1
 62
7
100
AcDbPolyline
 90
3
 70
0
 10
35.412200
 20
-183.247283
 30
0.0
 10
35.039046
 20
-182.960968
 30
0.0
 10
34.604508
 20
-182.780995
 30
0.0
  0
LWPOLYLINE
  5
279
100
AcDbEntity
  8
Layer_1
 62
7
100
AcDbPolyline
 90
2
 70
0
 10
32.864157
 20
-183.247283
 30
0.0
 10
32.577871
 20
-183.620437
 30
0.0
  0
LWPOLYLINE
  5
27a
100
AcDbEntity
  8
Layer_1
 62
7
100
AcDbPolyline
 90
2
 70
0
 10
35.412200
 20
-185.795326
 30
0.0
 10
35.698515
 20
-185.422200
 30
0.0
  0
LWPOLYLINE
  5
27b
100
AcDbEntity
  8
Layer_1
 62
7
100
AcDbPolyline
 90
2
 70
0
 10
33.237311
 20
-186.081640
 30
0.0
 10
33.671849
 20
-186.261642
 30
0.0
  0
LWPOLYLINE
  5
27c
100
AcDbEntity
  8
Layer_1
 62
7
100
AcDbPolyline
 90
2
 70
0
 10
32.864157
 20
-185.795326
 30
0.0
 10
33.237311
 20
-186.081640
 30
0.0
  0
LWPOLYLINE
  5
27d
100
AcDbEntity
  8
Layer_1
 62
7
100
AcDbPolyline
 90
2
 70
0
 10
34.604508
 20
-182.780995
 30
0.0
 10
34.138164
 20
-182.719584
 30
0.0
  0
LWPOLYLINE
  5
27e
100
AcDbEntity
  8
Layer_1
 62
7
100
AcDbPolyline
 90
2
 70
0
 10
35.698515
 20
-185.422172
 30
0.0
 10
35.878516
 20
-184.987634
 30
0.0
  0
LWPOLYLINE
  5
27f
100
AcDbEntity
  8
Layer_1
 62
7
100
AcDbPolyline
 90
2
 70
0
 10
32.577871
 20
-183.620437
 30
0.0
 10
32.397869
 20
-184.054974
 30
0.0
  0
LWPOLYLINE
  5
280
100
AcDbEntity
  8
Layer_1
 62
7
100
AcDbPolyline
 90
2
 70
0
 10
33.671849
 20
-182.780995
 30
0.0
 10
33.237311
 20
-182.960968
 30
0.0
  0
LWPOLYLINE
  5
281
100
AcDbEntity
  8
Layer_1
 62
7
100
AcDbPolyline
 90
2
 70
0
 10
32.336486
 20
-184.521290
 30
0.0
 10
32.397869
 20
-184.987634
 30
0.0
  0
LWPOLYLINE
  5
282
100
AcDbEntity
  8
Layer_1
 62
7
100
AcDbPolyline
 90
2
 70
0
 10
33.671905
 20
-186.261642
 30
0.0
 10
34.138221
 20
-186.323025
 30
0.0
  0
LWPOLYLINE
  5
283
100
AcDbEntity
  8
Layer_1
 62
7
100
AcDbPolyline
 90
2
 70
0
 10
32.397926
 20
-184.987634
 30
0.0
 10
32.577927
 20
-185.422200
 30
0.0
  0
LWPOLYLINE
  5
284
100
AcDbEntity
  8
Layer_1
 62
7
100
AcDbPolyline
 90
2
 70
0
 10
34.138221
 20
-182.719584
 30
0.0
 10
33.671905
 20
-182.780967
 30
0.0
  0
LWPOLYLINE
  5
285
100
AcDbEntity
  8
Layer_1
 62
7
100
AcDbPolyline
 90
2
 70
0
 10
35.939956
 20
-184.521290
 30
0.0
 10
35.878572
 20
-184.054974
 30
0.0
  0
LWPOLYLINE
  5
286
100
AcDbEntity
  8
Layer_1
 62
7
100
AcDbPolyline
 90
2
 70
0
 10
34.604565
 20
-186.261642
 30
0.0
 10
35.039102
 20
-186.081640
 30
0.0
  0
LWPOLYLINE
  5
287
100
AcDbEntity
  8
Layer_1
 62
7
100
AcDbPolyline
 90
2
 70
0
 10
37.588190
 20
-201.021300
 30
0.0
 10
37.588190
 20
-191.821307
 30
0.0
  0
LWPOLYLINE
  5
288
100
AcDbEntity
  8
Layer_1
 62
7
100
AcDbPolyline
 90
2
 70
0
 10
30.688336
 20
-201.021300
 30
0.0
 10
37.588190
 20
-201.021300
 30
0.0
  0
LWPOLYLINE
  5
289
100
AcDbEntity
  8
Layer_1
 62
7
100
AcDbPolyline
 90
3
 70
0
 10
37.588190
 20
-191.821307
 30
0.0
 10
30.688336
 20
-191.821307
 30
0.0
 10
30.688336
 20
-201.021300
 30
0.0
  0
LWPOLYLINE
  5
28a
100
AcDbEntity
  8
Layer_1
 62
7
100
AcDbPolyline
 90
2
 70
0
 10
-186.361578
 20
-207.771293
 30
0.0
 10
-186.300251
 20
-208.237157
 30
0.0
  0
LWPOLYLINE
  5
28b
100
AcDbEntity
  8
Layer_1
 62
7
100
AcDbPolyline
 90
2
 70
0
 10
-183.661586
 20
-206.212439
 30
0.0
 10
-184.095700
 20
-206.032635
 30
0.0
  0
LWPOLYLINE
  5
28c
100
AcDbEntity
  8
Layer_1
 62
7
100
AcDbPolyline
 90
2
 70
0
 10
-184.095700
 20
-209.509951
 30
0.0
 10
-183.661586
 20
-209.330148
 30
0.0
  0
LWPOLYLINE
  5
28d
100
AcDbEntity
  8
Layer_1
 62
7
100
AcDbPolyline
 90
3
 70
0
 10
-182.822906
 20
-208.237157
 30
0.0
 10
-182.761580
 20
-207.771293
 30
0.0
 10
-182.822906
 20
-207.305429
 30
0.0
  0
LWPOLYLINE
  5
28e
100
AcDbEntity
  8
Layer_1
 62
7
100
AcDbPolyline
 90
2
 70
0
 10
-185.461571
 20
-206.212439
 30
0.0
 10
-185.834359
 20
-206.498499
 30
0.0
  0
LWPOLYLINE
  5
28f
100
AcDbEntity
  8
Layer_1
 62
7
100
AcDbPolyline
 90
2
 70
0
 10
-185.027457
 20
-209.509951
 30
0.0
 10
-184.561593
 20
-209.571306
 30
0.0
  0
LWPOLYLINE
  5
290
100
AcDbEntity
  8
Layer_1
 62
7
100
AcDbPolyline
 90
2
 70
0
 10
-186.300251
 20
-207.305429
 30
0.0
 10
-186.361578
 20
-207.771293
 30
0.0
  0
LWPOLYLINE
  5
291
100
AcDbEntity
  8
Layer_1
 62
7
100
AcDbPolyline
 90
2
 70
0
 10
-185.027457
 20
-206.032635
 30
0.0
 10
-185.461571
 20
-206.212439
 30
0.0
  0
LWPOLYLINE
  5
292
100
AcDbEntity
  8
Layer_1
 62
7
100
AcDbPolyline
 90
2
 70
0
 10
-183.288799
 20
-206.498499
 30
0.0
 10
-183.661586
 20
-206.212439
 30
0.0
  0
LWPOLYLINE
  5
293
100
AcDbEntity
  8
Layer_1
 62
7
100
AcDbPolyline
 90
2
 70
0
 10
-186.120419
 20
-208.671300
 30
0.0
 10
-185.834359
 20
-209.044087
 30
0.0
  0
LWPOLYLINE
  5
294
100
AcDbEntity
  8
Layer_1
 62
7
100
AcDbPolyline
 90
2
 70
0
 10
-185.834359
 20
-206.498499
 30
0.0
 10
-186.120419
 20
-206.871286
 30
0.0
  0
LWPOLYLINE
  5
295
100
AcDbEntity
  8
Layer_1
 62
7
100
AcDbPolyline
 90
2
 70
0
 10
-182.822906
 20
-207.305429
 30
0.0
 10
-183.002738
 20
-206.871286
 30
0.0
  0
LWPOLYLINE
  5
296
100
AcDbEntity
  8
Layer_1
 62
7
100
AcDbPolyline
 90
2
 70
0
 10
-183.288799
 20
-209.044087
 30
0.0
 10
-183.002738
 20
-208.671300
 30
0.0
  0
LWPOLYLINE
  5
297
100
AcDbEntity
  8
Layer_1
 62
7
100
AcDbPolyline
 90
2
 70
0
 10
-183.002738
 20
-206.871286
 30
0.0
 10
-183.288799
 20
-206.498499
 30
0.0
  0
LWPOLYLINE
  5
298
100
AcDbEntity
  8
Layer_1
 62
7
100
AcDbPolyline
 90
2
 70
0
 10
-183.661586
 20
-209.330148
 30
0.0
 10
-183.288799
 20
-209.044087
 30
0.0
  0
LWPOLYLINE
  5
299
100
AcDbEntity
  8
Layer_1
 62
7
100
AcDbPolyline
 90
2
 70
0
 10
-183.002738
 20
-208.671300
 30
0.0
 10
-182.822906
 20
-208.237157
 30
0.0
  0
LWPOLYLINE
  5
29a
100
AcDbEntity
  8
Layer_1
 62
7
100
AcDbPolyline
 90
2
 70
0
 10
-186.120363
 20
-206.871286
 30
0.0
 10
-186.300195
 20
-207.305429
 30
0.0
  0
LWPOLYLINE
  5
29b
100
AcDbEntity
  8
Layer_1
 62
7
100
AcDbPolyline
 90
2
 70
0
 10
-184.561536
 20
-205.971308
 30
0.0
 10
-185.027401
 20
-206.032635
 30
0.0
  0
LWPOLYLINE
  5
29c
100
AcDbEntity
  8
Layer_1
 62
7
100
AcDbPolyline
 90
2
 70
0
 10
-184.095644
 20
-206.032635
 30
0.0
 10
-184.561536
 20
-205.971308
 30
0.0
  0
LWPOLYLINE
  5
29d
100
AcDbEntity
  8
Layer_1
 62
7
100
AcDbPolyline
 90
2
 70
0
 10
-184.561536
 20
-209.571306
 30
0.0
 10
-184.095644
 20
-209.509951
 30
0.0
  0
LWPOLYLINE
  5
29e
100
AcDbEntity
  8
Layer_1
 62
7
100
AcDbPolyline
 90
2
 70
0
 10
-185.461515
 20
-209.330148
 30
0.0
 10
-185.027401
 20
-209.509951
 30
0.0
  0
LWPOLYLINE
  5
29f
100
AcDbEntity
  8
Layer_1
 62
7
100
AcDbPolyline
 90
2
 70
0
 10
-185.834302
 20
-209.044087
 30
0.0
 10
-185.461515
 20
-209.330148
 30
0.0
  0
LWPOLYLINE
  5
2a0
100
AcDbEntity
  8
Layer_1
 62
7
100
AcDbPolyline
 90
2
 70
0
 10
-186.300195
 20
-208.237157
 30
0.0
 10
-186.120363
 20
-208.671300
 30
0.0
  0
LWPOLYLINE
  5
2a1
100
AcDbEntity
  8
Layer_1
 62
7
100
AcDbPolyline
 90
2
 70
0
 10
-170.461545
 20
-165.021315
 30
0.0
 10
-161.261552
 20
-165.021315
 30
0.0
  0
LWPOLYLINE
  5
2a2
100
AcDbEntity
  8
Layer_1
 62
7
100
AcDbPolyline
 90
2
 70
0
 10
-170.461545
 20
-158.121320
 30
0.0
 10
-170.461545
 20
-165.021315
 30
0.0
  0
LWPOLYLINE
  5
2a3
100
AcDbEntity
  8
Layer_1
 62
7
100
AcDbPolyline
 90
3
 70
0
 10
-161.261552
 20
-165.021315
 30
0.0
 10
-161.261552
 20
-158.121320
 30
0.0
 10
-170.461545
 20
-158.121320
 30
0.0
  0
LWPOLYLINE
  5
2a4
100
AcDbEntity
  8
Layer_1
 62
7
100
AcDbPolyline
 90
2
 70
0
 10
-155.521886
 20
-162.472171
 30
0.0
 10
-155.235571
 20
-162.845325
 30
0.0
  0
LWPOLYLINE
  5
2a5
100
AcDbEntity
  8
Layer_1
 62
7
100
AcDbPolyline
 90
2
 70
0
 10
-155.235571
 20
-160.297310
 30
0.0
 10
-155.521886
 20
-160.670436
 30
0.0
  0
LWPOLYLINE
  5
2a6
100
AcDbEntity
  8
Layer_1
 62
7
100
AcDbPolyline
 90
2
 70
0
 10
-152.159829
 20
-161.571318
 30
0.0
 10
-152.221212
 20
-161.105002
 30
0.0
  0
LWPOLYLINE
  5
2a7
100
AcDbEntity
  8
Layer_1
 62
7
100
AcDbPolyline
 90
2
 70
0
 10
-153.060682
 20
-163.131640
 30
0.0
 10
-152.687556
 20
-162.845325
 30
0.0
  0
LWPOLYLINE
  5
2a8
100
AcDbEntity
  8
Layer_1
 62
7
100
AcDbPolyline
 90
2
 70
0
 10
-155.235571
 20
-162.845325
 30
0.0
 10
-154.862417
 20
-163.131640
 30
0.0
  0
LWPOLYLINE
  5
2a9
100
AcDbEntity
  8
Layer_1
 62
7
100
AcDbPolyline
 90
2
 70
0
 10
-152.687556
 20
-162.845325
 30
0.0
 10
-152.401214
 20
-162.472171
 30
0.0
  0
LWPOLYLINE
  5
2aa
100
AcDbEntity
  8
Layer_1
 62
7
100
AcDbPolyline
 90
2
 70
0
 10
-153.495248
 20
-159.830966
 30
0.0
 10
-153.961564
 20
-159.769611
 30
0.0
  0
LWPOLYLINE
  5
2ab
100
AcDbEntity
  8
Layer_1
 62
7
100
AcDbPolyline
 90
2
 70
0
 10
-153.060682
 20
-160.010968
 30
0.0
 10
-153.495248
 20
-159.830966
 30
0.0
  0
LWPOLYLINE
  5
2ac
100
AcDbEntity
  8
Layer_1
 62
7
100
AcDbPolyline
 90
2
 70
0
 10
-155.521886
 20
-160.670436
 30
0.0
 10
-155.701887
 20
-161.105002
 30
0.0
  0
LWPOLYLINE
  5
2ad
100
AcDbEntity
  8
Layer_1
 62
7
100
AcDbPolyline
 90
2
 70
0
 10
-154.862417
 20
-160.010968
 30
0.0
 10
-155.235571
 20
-160.297310
 30
0.0
  0
LWPOLYLINE
  5
2ae
100
AcDbEntity
  8
Layer_1
 62
7
100
AcDbPolyline
 90
2
 70
0
 10
-152.401214
 20
-162.472171
 30
0.0
 10
-152.221212
 20
-162.037634
 30
0.0
  0
LWPOLYLINE
  5
2af
100
AcDbEntity
  8
Layer_1
 62
7
100
AcDbPolyline
 90
2
 70
0
 10
-155.701887
 20
-161.105002
 30
0.0
 10
-155.763270
 20
-161.571318
 30
0.0
  0
LWPOLYLINE
  5
2b0
100
AcDbEntity
  8
Layer_1
 62
7
100
AcDbPolyline
 90
2
 70
0
 10
-155.701887
 20
-162.037662
 30
0.0
 10
-155.521886
 20
-162.472171
 30
0.0
  0
LWPOLYLINE
  5
2b1
100
AcDbEntity
  8
Layer_1
 62
7
100
AcDbPolyline
 90
2
 70
0
 10
-153.961564
 20
-163.373024
 30
0.0
 10
-153.495248
 20
-163.311641
 30
0.0
  0
LWPOLYLINE
  5
2b2
100
AcDbEntity
  8
Layer_1
 62
7
100
AcDbPolyline
 90
2
 70
0
 10
-152.401214
 20
-160.670436
 30
0.0
 10
-152.687556
 20
-160.297310
 30
0.0
  0
LWPOLYLINE
  5
2b3
100
AcDbEntity
  8
Layer_1
 62
7
100
AcDbPolyline
 90
2
 70
0
 10
-154.862417
 20
-163.131640
 30
0.0
 10
-154.427880
 20
-163.311641
 30
0.0
  0
LWPOLYLINE
  5
2b4
100
AcDbEntity
  8
Layer_1
 62
7
100
AcDbPolyline
 90
2
 70
0
 10
-152.687556
 20
-160.297310
 30
0.0
 10
-153.060682
 20
-160.010968
 30
0.0
  0
LWPOLYLINE
  5
2b5
100
AcDbEntity
  8
Layer_1
 62
7
100
AcDbPolyline
 90
2
 70
0
 10
-154.427880
 20
-163.311641
 30
0.0
 10
-153.961564
 20
-163.373024
 30
0.0
  0
LWPOLYLINE
  5
2b6
100
AcDbEntity
  8
Layer_1
 62
7
100
AcDbPolyline
 90
2
 70
0
 10
-155.763270
 20
-161.571318
 30
0.0
 10
-155.701887
 20
-162.037634
 30
0.0
  0
LWPOLYLINE
  5
2b7
100
AcDbEntity
  8
Layer_1
 62
7
100
AcDbPolyline
 90
2
 70
0
 10
-154.427880
 20
-159.830966
 30
0.0
 10
-154.862417
 20
-160.010968
 30
0.0
  0
LWPOLYLINE
  5
2b8
100
AcDbEntity
  8
Layer_1
 62
7
100
AcDbPolyline
 90
2
 70
0
 10
-153.961564
 20
-159.769583
 30
0.0
 10
-154.427880
 20
-159.830966
 30
0.0
  0
LWPOLYLINE
  5
2b9
100
AcDbEntity
  8
Layer_1
 62
7
100
AcDbPolyline
 90
2
 70
0
 10
-152.221212
 20
-161.105002
 30
0.0
 10
-152.401214
 20
-160.670436
 30
0.0
  0
LWPOLYLINE
  5
2ba
100
AcDbEntity
  8
Layer_1
 62
7
100
AcDbPolyline
 90
2
 70
0
 10
-152.221212
 20
-162.037662
 30
0.0
 10
-152.159829
 20
-161.571318
 30
0.0
  0
LWPOLYLINE
  5
2bb
100
AcDbEntity
  8
Layer_1
 62
7
100
AcDbPolyline
 90
2
 70
0
 10
-153.495248
 20
-163.311641
 30
0.0
 10
-153.060682
 20
-163.131640
 30
0.0
  0
LWPOLYLINE
  5
2bc
100
AcDbEntity
  8
Layer_1
 62
7
100
AcDbPolyline
 90
2
 70
0
 10
-61.627907
 20
-159.830966
 30
0.0
 10
-62.062445
 20
-160.010968
 30
0.0
  0
LWPOLYLINE
  5
2bd
100
AcDbEntity
  8
Layer_1
 62
7
100
AcDbPolyline
 90
2
 70
0
 10
-60.695276
 20
-159.830966
 30
0.0
 10
-61.161591
 20
-159.769611
 30
0.0
  0
LWPOLYLINE
  5
2be
100
AcDbEntity
  8
Layer_1
 62
7
100
AcDbPolyline
 90
2
 70
0
 10
-59.601269
 20
-160.670436
 30
0.0
 10
-59.887584
 20
-160.297310
 30
0.0
  0
LWPOLYLINE
  5
2bf
100
AcDbEntity
  8
Layer_1
 62
7
100
AcDbPolyline
 90
2
 70
0
 10
-59.421268
 20
-162.037662
 30
0.0
 10
-59.359856
 20
-161.571318
 30
0.0
  0
LWPOLYLINE
  5
2c0
100
AcDbEntity
  8
Layer_1
 62
7
100
AcDbPolyline
 90
2
 70
0
 10
-62.721942
 20
-162.472171
 30
0.0
 10
-62.435599
 20
-162.845325
 30
0.0
  0
LWPOLYLINE
  5
2c1
100
AcDbEntity
  8
Layer_1
 62
7
100
AcDbPolyline
 90
2
 70
0
 10
-60.695276
 20
-163.311641
 30
0.0
 10
-60.260738
 20
-163.131640
 30
0.0
  0
LWPOLYLINE
  5
2c2
100
AcDbEntity
  8
Layer_1
 62
7
100
AcDbPolyline
 90
2
 70
0
 10
-59.359856
 20
-161.571318
 30
0.0
 10
-59.421268
 20
-161.105002
 30
0.0
  0
LWPOLYLINE
  5
2c3
100
AcDbEntity
  8
Layer_1
 62
7
100
AcDbPolyline
 90
3
 70
0
 10
-62.963326
 20
-161.571318
 30
0.0
 10
-62.901915
 20
-162.037634
 30
0.0
 10
-62.721942
 20
-162.472171
 30
0.0
  0
LWPOLYLINE
  5
2c4
100
AcDbEntity
  8
Layer_1
 62
7
100
AcDbPolyline
 90
2
 70
0
 10
-59.887584
 20
-162.845325
 30
0.0
 10
-59.601269
 20
-162.472171
 30
0.0
  0
LWPOLYLINE
  5
2c5
100
AcDbEntity
  8
Layer_1
 62
7
100
AcDbPolyline
 90
2
 70
0
 10
-59.421268
 20
-161.105002
 30
0.0
 10
-59.601269
 20
-160.670436
 30
0.0
  0
LWPOLYLINE
  5
2c6
100
AcDbEntity
  8
Layer_1
 62
7
100
AcDbPolyline
 90
2
 70
0
 10
-62.062445
 20
-160.010968
 30
0.0
 10
-62.435599
 20
-160.297310
 30
0.0
  0
LWPOLYLINE
  5
2c7
100
AcDbEntity
  8
Layer_1
 62
7
100
AcDbPolyline
 90
2
 70
0
 10
-60.260738
 20
-160.010968
 30
0.0
 10
-60.695276
 20
-159.830966
 30
0.0
  0
LWPOLYLINE
  5
2c8
100
AcDbEntity
  8
Layer_1
 62
7
100
AcDbPolyline
 90
2
 70
0
 10
-61.161591
 20
-159.769583
 30
0.0
 10
-61.627907
 20
-159.830966
 30
0.0
  0
LWPOLYLINE
  5
2c9
100
AcDbEntity
  8
Layer_1
 62
7
100
AcDbPolyline
 90
2
 70
0
 10
-60.260738
 20
-163.131640
 30
0.0
 10
-59.887584
 20
-162.845325
 30
0.0
  0
LWPOLYLINE
  5
2ca
100
AcDbEntity
  8
Layer_1
 62
7
100
AcDbPolyline
 90
2
 70
0
 10
-62.721942
 20
-160.670436
 30
0.0
 10
-62.901915
 20
-161.105002
 30
0.0
  0
LWPOLYLINE
  5
2cb
100
AcDbEntity
  8
Layer_1
 62
7
100
AcDbPolyline
 90
2
 70
0
 10
-62.435599
 20
-160.297310
 30
0.0
 10
-62.721942
 20
-160.670436
 30
0.0
  0
LWPOLYLINE
  5
2cc
100
AcDbEntity
  8
Layer_1
 62
7
100
AcDbPolyline
 90
2
 70
0
 10
-62.062445
 20
-163.131640
 30
0.0
 10
-61.627907
 20
-163.311641
 30
0.0
  0
LWPOLYLINE
  5
2cd
100
AcDbEntity
  8
Layer_1
 62
7
100
AcDbPolyline
 90
2
 70
0
 10
-62.901915
 20
-161.105002
 30
0.0
 10
-62.963326
 20
-161.571318
 30
0.0
  0
LWPOLYLINE
  5
2ce
100
AcDbEntity
  8
Layer_1
 62
7
100
AcDbPolyline
 90
2
 70
0
 10
-59.887584
 20
-160.297310
 30
0.0
 10
-60.260738
 20
-160.010968
 30
0.0
  0
LWPOLYLINE
  5
2cf
100
AcDbEntity
  8
Layer_1
 62
7
100
AcDbPolyline
 90
2
 70
0
 10
-59.601269
 20
-162.472171
 30
0.0
 10
-59.421268
 20
-162.037634
 30
0.0
  0
LWPOLYLINE
  5
2d0
100
AcDbEntity
  8
Layer_1
 62
7
100
AcDbPolyline
 90
2
 70
0
 10
-61.161591
 20
-163.373024
 30
0.0
 10
-60.695276
 20
-163.311641
 30
0.0
  0
LWPOLYLINE
  5
2d1
100
AcDbEntity
  8
Layer_1
 62
7
100
AcDbPolyline
 90
2
 70
0
 10
-61.627907
 20
-163.311641
 30
0.0
 10
-61.161591
 20
-163.373024
 30
0.0
  0
LWPOLYLINE
  5
2d2
100
AcDbEntity
  8
Layer_1
 62
7
100
AcDbPolyline
 90
2
 70
0
 10
-62.435599
 20
-162.845325
 30
0.0
 10
-62.062445
 20
-163.131640
 30
0.0
  0
LWPOLYLINE
  5
2d3
100
AcDbEntity
  8
Layer_1
 62
7
100
AcDbPolyline
 90
2
 70
0
 10
37.588190
 20
-168.021309
 30
0.0
 10
30.688336
 20
-168.021309
 30
0.0
  0
LWPOLYLINE
  5
2d4
100
AcDbEntity
  8
Layer_1
 62
7
100
AcDbPolyline
 90
2
 70
0
 10
30.688336
 20
-177.221302
 30
0.0
 10
37.588190
 20
-177.221302
 30
0.0
  0
LWPOLYLINE
  5
2d5
100
AcDbEntity
  8
Layer_1
 62
7
100
AcDbPolyline
 90
2
 70
0
 10
30.688336
 20
-168.021309
 30
0.0
 10
30.688336
 20
-177.221302
 30
0.0
  0
LWPOLYLINE
  5
2d6
100
AcDbEntity
  8
Layer_1
 62
7
100
AcDbPolyline
 90
2
 70
0
 10
37.588190
 20
-177.221302
 30
0.0
 10
37.588190
 20
-168.021309
 30
0.0
  0
LWPOLYLINE
  5
2d7
100
AcDbEntity
  8
Layer_1
 62
7
100
AcDbPolyline
 90
2
 70
0
 10
-16.300281
 20
-208.237157
 30
0.0
 10
-16.120449
 20
-208.671300
 30
0.0
  0
LWPOLYLINE
  5
2d8
100
AcDbEntity
  8
Layer_1
 62
7
100
AcDbPolyline
 90
2
 70
0
 10
-16.120449
 20
-206.871286
 30
0.0
 10
-16.300281
 20
-207.305429
 30
0.0
  0
LWPOLYLINE
  5
2d9
100
AcDbEntity
  8
Layer_1
 62
7
100
AcDbPolyline
 90
2
 70
0
 10
-16.361608
 20
-207.771293
 30
0.0
 10
-16.300281
 20
-208.237157
 30
0.0
  0
LWPOLYLINE
  5
2da
100
AcDbEntity
  8
Layer_1
 62
7
100
AcDbPolyline
 90
2
 70
0
 10
-12.761609
 20
-207.771293
 30
0.0
 10
-12.822936
 20
-207.305429
 30
0.0
  0
LWPOLYLINE
  5
2db
100
AcDbEntity
  8
Layer_1
 62
7
100
AcDbPolyline
 90
2
 70
0
 10
-13.002768
 20
-206.871286
 30
0.0
 10
-13.288828
 20
-206.498499
 30
0.0
  0
LWPOLYLINE
  5
2dc
100
AcDbEntity
  8
Layer_1
 62
7
100
AcDbPolyline
 90
2
 70
0
 10
-12.822936
 20
-208.237157
 30
0.0
 10
-12.761609
 20
-207.771293
 30
0.0
  0
LWPOLYLINE
  5
2dd
100
AcDbEntity
  8
Layer_1
 62
7
100
AcDbPolyline
 90
2
 70
0
 10
-16.120449
 20
-208.671300
 30
0.0
 10
-15.834388
 20
-209.044087
 30
0.0
  0
LWPOLYLINE
  5
2de
100
AcDbEntity
  8
Layer_1
 62
7
100
AcDbPolyline
 90
2
 70
0
 10
-16.300281
 20
-207.305429
 30
0.0
 10
-16.361608
 20
-207.771293
 30
0.0
  0
LWPOLYLINE
  5
2df
100
AcDbEntity
  8
Layer_1
 62
7
100
AcDbPolyline
 90
2
 70
0
 10
-13.288828
 20
-209.044087
 30
0.0
 10
-13.002768
 20
-208.671300
 30
0.0
  0
LWPOLYLINE
  5
2e0
100
AcDbEntity
  8
Layer_1
 62
7
100
AcDbPolyline
 90
2
 70
0
 10
-14.561594
 20
-209.571306
 30
0.0
 10
-14.095730
 20
-209.509951
 30
0.0
  0
LWPOLYLINE
  5
2e1
100
AcDbEntity
  8
Layer_1
 62
7
100
AcDbPolyline
 90
2
 70
0
 10
-14.561594
 20
-205.971308
 30
0.0
 10
-15.027487
 20
-206.032635
 30
0.0
  0
LWPOLYLINE
  5
2e2
100
AcDbEntity
  8
Layer_1
 62
7
100
AcDbPolyline
 90
2
 70
0
 10
-13.661616
 20
-206.212439
 30
0.0
 10
-14.095730
 20
-206.032635
 30
0.0
  0
LWPOLYLINE
  5
2e3
100
AcDbEntity
  8
Layer_1
 62
7
100
AcDbPolyline
 90
2
 70
0
 10
-13.661616
 20
-209.330148
 30
0.0
 10
-13.288828
 20
-209.044087
 30
0.0
  0
LWPOLYLINE
  5
2e4
100
AcDbEntity
  8
Layer_1
 62
7
100
AcDbPolyline
 90
2
 70
0
 10
-12.822936
 20
-207.305429
 30
0.0
 10
-13.002768
 20
-206.871286
 30
0.0
  0
LWPOLYLINE
  5
2e5
100
AcDbEntity
  8
Layer_1
 62
7
100
AcDbPolyline
 90
2
 70
0
 10
-13.002768
 20
-208.671300
 30
0.0
 10
-12.822936
 20
-208.237157
 30
0.0
  0
LWPOLYLINE
  5
2e6
100
AcDbEntity
  8
Layer_1
 62
7
100
AcDbPolyline
 90
2
 70
0
 10
-13.288828
 20
-206.498499
 30
0.0
 10
-13.661616
 20
-206.212439
 30
0.0
  0
LWPOLYLINE
  5
2e7
100
AcDbEntity
  8
Layer_1
 62
7
100
AcDbPolyline
 90
2
 70
0
 10
-15.834388
 20
-209.044087
 30
0.0
 10
-15.461601
 20
-209.330148
 30
0.0
  0
LWPOLYLINE
  5
2e8
100
AcDbEntity
  8
Layer_1
 62
7
100
AcDbPolyline
 90
2
 70
0
 10
-14.095730
 20
-209.509951
 30
0.0
 10
-13.661616
 20
-209.330148
 30
0.0
  0
LWPOLYLINE
  5
2e9
100
AcDbEntity
  8
Layer_1
 62
7
100
AcDbPolyline
 90
2
 70
0
 10
-15.027487
 20
-209.509951
 30
0.0
 10
-14.561594
 20
-209.571306
 30
0.0
  0
LWPOLYLINE
  5
2ea
100
AcDbEntity
  8
Layer_1
 62
7
100
AcDbPolyline
 90
2
 70
0
 10
-15.834388
 20
-206.498499
 30
0.0
 10
-16.120449
 20
-206.871286
 30
0.0
  0
LWPOLYLINE
  5
2eb
100
AcDbEntity
  8
Layer_1
 62
7
100
AcDbPolyline
 90
2
 70
0
 10
-15.461601
 20
-206.212439
 30
0.0
 10
-15.834388
 20
-206.498499
 30
0.0
  0
LWPOLYLINE
  5
2ec
100
AcDbEntity
  8
Layer_1
 62
7
100
AcDbPolyline
 90
2
 70
0
 10
-15.027487
 20
-206.032635
 30
0.0
 10
-15.461601
 20
-206.212439
 30
0.0
  0
LWPOLYLINE
  5
2ed
100
AcDbEntity
  8
Layer_1
 62
7
100
AcDbPolyline
 90
2
 70
0
 10
-14.095730
 20
-206.032635
 30
0.0
 10
-14.561594
 20
-205.971308
 30
0.0
  0
LWPOLYLINE
  5
2ee
100
AcDbEntity
  8
Layer_1
 62
7
100
AcDbPolyline
 90
2
 70
0
 10
-15.461601
 20
-209.330148
 30
0.0
 10
-15.027487
 20
-209.509951
 30
0.0
  0
LWPOLYLINE
  5
2ef
100
AcDbEntity
  8
Layer_1
 62
7
100
AcDbPolyline
 90
2
 70
0
 10
-192.095713
 20
-203.009950
 30
0.0
 10
-191.661570
 20
-202.830146
 30
0.0
  0
LWPOLYLINE
  5
2f0
100
AcDbEntity
  8
Layer_1
 62
7
100
AcDbPolyline
 90
2
 70
0
 10
-193.461584
 20
-202.830146
 30
0.0
 10
-193.027441
 20
-203.009950
 30
0.0
  0
LWPOLYLINE
  5
2f1
100
AcDbEntity
  8
Layer_1
 62
7
100
AcDbPolyline
 90
2
 70
0
 10
-190.822919
 20
-201.737184
 30
0.0
 10
-190.761592
 20
-201.271292
 30
0.0
  0
LWPOLYLINE
  5
2f2
100
AcDbEntity
  8
Layer_1
 62
7
100
AcDbPolyline
 90
2
 70
0
 10
-193.461584
 20
-199.712466
 30
0.0
 10
-193.834371
 20
-199.998498
 30
0.0
  0
LWPOLYLINE
  5
2f3
100
AcDbEntity
  8
Layer_1
 62
7
100
AcDbPolyline
 90
2
 70
0
 10
-191.288783
 20
-199.998498
 30
0.0
 10
-191.661570
 20
-199.712466
 30
0.0
  0
LWPOLYLINE
  5
2f4
100
AcDbEntity
  8
Layer_1
 62
7
100
AcDbPolyline
 90
3
 70
0
 10
-194.300235
 20
-200.805428
 30
0.0
 10
-194.361590
 20
-201.271292
 30
0.0
 10
-194.300235
 20
-201.737184
 30
0.0
  0
LWPOLYLINE
  5
2f5
100
AcDbEntity
  8
Layer_1
 62
7
100
AcDbPolyline
 90
2
 70
0
 10
-192.095713
 20
-199.532634
 30
0.0
 10
-192.561577
 20
-199.471307
 30
0.0
  0
LWPOLYLINE
  5
2f6
100
AcDbEntity
  8
Layer_1
 62
7
100
AcDbPolyline
 90
2
 70
0
 10
-194.120431
 20
-200.371285
 30
0.0
 10
-194.300235
 20
-200.805428
 30
0.0
  0
LWPOLYLINE
  5
2f7
100
AcDbEntity
  8
Layer_1
 62
7
100
AcDbPolyline
 90
2
 70
0
 10
-194.120431
 20
-202.171299
 30
0.0
 10
-193.834371
 20
-202.544086
 30
0.0
  0
LWPOLYLINE
  5
2f8
100
AcDbEntity
  8
Layer_1
 62
7
100
AcDbPolyline
 90
2
 70
0
 10
-191.002722
 20
-202.171299
 30
0.0
 10
-190.822919
 20
-201.737184
 30
0.0
  0
LWPOLYLINE
  5
2f9
100
AcDbEntity
  8
Layer_1
 62
7
100
AcDbPolyline
 90
2
 70
0
 10
-191.288783
 20
-202.544086
 30
0.0
 10
-191.002722
 20
-202.171299
 30
0.0
  0
LWPOLYLINE
  5
2fa
100
AcDbEntity
  8
Layer_1
 62
7
100
AcDbPolyline
 90
2
 70
0
 10
-190.822919
 20
-200.805428
 30
0.0
 10
-191.002722
 20
-200.371285
 30
0.0
  0
LWPOLYLINE
  5
2fb
100
AcDbEntity
  8
Layer_1
 62
7
100
AcDbPolyline
 90
2
 70
0
 10
-193.834371
 20
-199.998498
 30
0.0
 10
-194.120431
 20
-200.371285
 30
0.0
  0
LWPOLYLINE
  5
2fc
100
AcDbEntity
  8
Layer_1
 62
7
100
AcDbPolyline
 90
2
 70
0
 10
-193.834371
 20
-202.544086
 30
0.0
 10
-193.461584
 20
-202.830146
 30
0.0
  0
LWPOLYLINE
  5
2fd
100
AcDbEntity
  8
Layer_1
 62
7
100
AcDbPolyline
 90
2
 70
0
 10
-191.002722
 20
-200.371285
 30
0.0
 10
-191.288783
 20
-199.998498
 30
0.0
  0
LWPOLYLINE
  5
2fe
100
AcDbEntity
  8
Layer_1
 62
7
100
AcDbPolyline
 90
2
 70
0
 10
-193.027441
 20
-199.532634
 30
0.0
 10
-193.461584
 20
-199.712466
 30
0.0
  0
LWPOLYLINE
  5
2ff
100
AcDbEntity
  8
Layer_1
 62
7
100
AcDbPolyline
 90
2
 70
0
 10
-192.561577
 20
-203.071305
 30
0.0
 10
-192.095713
 20
-203.009950
 30
0.0
  0
LWPOLYLINE
  5
300
100
AcDbEntity
  8
Layer_1
 62
7
100
AcDbPolyline
 90
2
 70
0
 10
-193.027441
 20
-203.009950
 30
0.0
 10
-192.561577
 20
-203.071305
 30
0.0
  0
LWPOLYLINE
  5
301
100
AcDbEntity
  8
Layer_1
 62
7
100
AcDbPolyline
 90
2
 70
0
 10
-194.300235
 20
-201.737184
 30
0.0
 10
-194.120431
 20
-202.171299
 30
0.0
  0
LWPOLYLINE
  5
302
100
AcDbEntity
  8
Layer_1
 62
7
100
AcDbPolyline
 90
2
 70
0
 10
-192.561577
 20
-199.471307
 30
0.0
 10
-193.027441
 20
-199.532634
 30
0.0
  0
LWPOLYLINE
  5
303
100
AcDbEntity
  8
Layer_1
 62
7
100
AcDbPolyline
 90
2
 70
0
 10
-191.661570
 20
-199.712466
 30
0.0
 10
-192.095713
 20
-199.532634
 30
0.0
  0
LWPOLYLINE
  5
304
100
AcDbEntity
  8
Layer_1
 62
7
100
AcDbPolyline
 90
2
 70
0
 10
-190.761592
 20
-201.271292
 30
0.0
 10
-190.822919
 20
-200.805428
 30
0.0
  0
LWPOLYLINE
  5
305
100
AcDbEntity
  8
Layer_1
 62
7
100
AcDbPolyline
 90
2
 70
0
 10
-191.661570
 20
-202.830146
 30
0.0
 10
-191.288783
 20
-202.544086
 30
0.0
  0
LWPOLYLINE
  5
306
100
AcDbEntity
  8
Layer_1
 62
7
100
AcDbPolyline
 90
3
 70
0
 10
-252.711599
 20
-201.121291
 30
0.0
 10
-245.811576
 20
-201.121291
 30
0.0
 10
-245.811576
 20
-191.921298
 30
0.0
  0
LWPOLYLINE
  5
307
100
AcDbEntity
  8
Layer_1
 62
7
100
AcDbPolyline
 90
2
 70
0
 10
-252.711599
 20
-191.921298
 30
0.0
 10
-252.711599
 20
-201.121291
 30
0.0
  0
LWPOLYLINE
  5
308
100
AcDbEntity
  8
Layer_1
 62
7
100
AcDbPolyline
 90
2
 70
0
 10
-245.811576
 20
-191.921298
 30
0.0
 10
-252.711599
 20
-191.921298
 30
0.0
  0
LWPOLYLINE
  5
309
100
AcDbEntity
  8
Layer_1
 62
7
100
AcDbPolyline
 90
2
 70
0
 10
-28.821832
 20
-208.237157
 30
0.0
 10
-28.760476
 20
-207.771293
 30
0.0
  0
LWPOLYLINE
  5
30a
100
AcDbEntity
  8
Layer_1
 62
7
100
AcDbPolyline
 90
2
 70
0
 10
-29.287696
 20
-209.044087
 30
0.0
 10
-29.001635
 20
-208.671300
 30
0.0
  0
LWPOLYLINE
  5
30b
100
AcDbEntity
  8
Layer_1
 62
7
100
AcDbPolyline
 90
2
 70
0
 10
-31.833284
 20
-206.498499
 30
0.0
 10
-32.119344
 20
-206.871286
 30
0.0
  0
LWPOLYLINE
  5
30c
100
AcDbEntity
  8
Layer_1
 62
7
100
AcDbPolyline
 90
2
 70
0
 10
-29.660483
 20
-206.212439
 30
0.0
 10
-30.094597
 20
-206.032635
 30
0.0
  0
LWPOLYLINE
  5
30d
100
AcDbEntity
  8
Layer_1
 62
7
100
AcDbPolyline
 90
2
 70
0
 10
-32.299148
 20
-208.237157
 30
0.0
 10
-32.119344
 20
-208.671300
 30
0.0
  0
LWPOLYLINE
  5
30e
100
AcDbEntity
  8
Layer_1
 62
7
100
AcDbPolyline
 90
2
 70
0
 10
-30.560490
 20
-205.971308
 30
0.0
 10
-31.026354
 20
-206.032635
 30
0.0
  0
LWPOLYLINE
  5
30f
100
AcDbEntity
  8
Layer_1
 62
7
100
AcDbPolyline
 90
2
 70
0
 10
-31.026354
 20
-209.509951
 30
0.0
 10
-30.560490
 20
-209.571306
 30
0.0
  0
LWPOLYLINE
  5
310
100
AcDbEntity
  8
Layer_1
 62
7
100
AcDbPolyline
 90
2
 70
0
 10
-31.460496
 20
-209.330148
 30
0.0
 10
-31.026354
 20
-209.509951
 30
0.0
  0
LWPOLYLINE
  5
311
100
AcDbEntity
  8
Layer_1
 62
7
100
AcDbPolyline
 90
2
 70
0
 10
-30.560490
 20
-209.571306
 30
0.0
 10
-30.094597
 20
-209.509951
 30
0.0
  0
LWPOLYLINE
  5
312
100
AcDbEntity
  8
Layer_1
 62
7
100
AcDbPolyline
 90
2
 70
0
 10
-31.833284
 20
-209.044087
 30
0.0
 10
-31.460496
 20
-209.330148
 30
0.0
  0
LWPOLYLINE
  5
313
100
AcDbEntity
  8
Layer_1
 62
7
100
AcDbPolyline
 90
2
 70
0
 10
-29.287696
 20
-206.498499
 30
0.0
 10
-29.660483
 20
-206.212439
 30
0.0
  0
LWPOLYLINE
  5
314
100
AcDbEntity
  8
Layer_1
 62
7
100
AcDbPolyline
 90
3
 70
0
 10
-28.760476
 20
-207.771293
 30
0.0
 10
-28.821832
 20
-207.305429
 30
0.0
 10
-29.001635
 20
-206.871286
 30
0.0
  0
LWPOLYLINE
  5
315
100
AcDbEntity
  8
Layer_1
 62
7
100
AcDbPolyline
 90
2
 70
0
 10
-32.119344
 20
-208.671300
 30
0.0
 10
-31.833284
 20
-209.044087
 30
0.0
  0
LWPOLYLINE
  5
316
100
AcDbEntity
  8
Layer_1
 62
7
100
AcDbPolyline
 90
2
 70
0
 10
-32.119344
 20
-206.871286
 30
0.0
 10
-32.299148
 20
-207.305429
 30
0.0
  0
LWPOLYLINE
  5
317
100
AcDbEntity
  8
Layer_1
 62
7
100
AcDbPolyline
 90
2
 70
0
 10
-30.094597
 20
-206.032635
 30
0.0
 10
-30.560490
 20
-205.971308
 30
0.0
  0
LWPOLYLINE
  5
318
100
AcDbEntity
  8
Layer_1
 62
7
100
AcDbPolyline
 90
2
 70
0
 10
-32.360475
 20
-207.771293
 30
0.0
 10
-32.299148
 20
-208.237157
 30
0.0
  0
LWPOLYLINE
  5
319
100
AcDbEntity
  8
Layer_1
 62
7
100
AcDbPolyline
 90
2
 70
0
 10
-30.094597
 20
-209.509951
 30
0.0
 10
-29.660483
 20
-209.330148
 30
0.0
  0
LWPOLYLINE
  5
31a
100
AcDbEntity
  8
Layer_1
 62
7
100
AcDbPolyline
 90
2
 70
0
 10
-29.001635
 20
-206.871286
 30
0.0
 10
-29.287696
 20
-206.498499
 30
0.0
  0
LWPOLYLINE
  5
31b
100
AcDbEntity
  8
Layer_1
 62
7
100
AcDbPolyline
 90
3
 70
0
 10
-31.026354
 20
-206.032635
 30
0.0
 10
-31.460496
 20
-206.212439
 30
0.0
 10
-31.833284
 20
-206.498499
 30
0.0
  0
LWPOLYLINE
  5
31c
100
AcDbEntity
  8
Layer_1
 62
7
100
AcDbPolyline
 90
2
 70
0
 10
-29.001635
 20
-208.671300
 30
0.0
 10
-28.821832
 20
-208.237157
 30
0.0
  0
LWPOLYLINE
  5
31d
100
AcDbEntity
  8
Layer_1
 62
7
100
AcDbPolyline
 90
2
 70
0
 10
-29.660483
 20
-209.330148
 30
0.0
 10
-29.287696
 20
-209.044087
 30
0.0
  0
LWPOLYLINE
  5
31e
100
AcDbEntity
  8
Layer_1
 62
7
100
AcDbPolyline
 90
2
 70
0
 10
-32.299148
 20
-207.305429
 30
0.0
 10
-32.360475
 20
-207.771293
 30
0.0
  0
LWPOLYLINE
  5
31f
100
AcDbEntity
  8
Layer_1
 62
7
100
AcDbPolyline
 90
2
 70
0
 10
-201.026324
 20
-209.509951
 30
0.0
 10
-200.560460
 20
-209.571306
 30
0.0
  0
LWPOLYLINE
  5
320
100
AcDbEntity
  8
Layer_1
 62
7
100
AcDbPolyline
 90
2
 70
0
 10
-202.299118
 20
-208.237157
 30
0.0
 10
-202.119315
 20
-208.671300
 30
0.0
  0
LWPOLYLINE
  5
321
100
AcDbEntity
  8
Layer_1
 62
7
100
AcDbPolyline
 90
2
 70
0
 10
-200.560460
 20
-205.971308
 30
0.0
 10
-201.026324
 20
-206.032635
 30
0.0
  0
LWPOLYLINE
  5
322
100
AcDbEntity
  8
Layer_1
 62
7
100
AcDbPolyline
 90
2
 70
0
 10
-199.287666
 20
-206.498499
 30
0.0
 10
-199.660454
 20
-206.212439
 30
0.0
  0
LWPOLYLINE
  5
323
100
AcDbEntity
  8
Layer_1
 62
7
100
AcDbPolyline
 90
2
 70
0
 10
-202.119315
 20
-206.871286
 30
0.0
 10
-202.299118
 20
-207.305429
 30
0.0
  0
LWPOLYLINE
  5
324
100
AcDbEntity
  8
Layer_1
 62
7
100
AcDbPolyline
 90
2
 70
0
 10
-201.460467
 20
-206.212439
 30
0.0
 10
-201.833254
 20
-206.498499
 30
0.0
  0
LWPOLYLINE
  5
325
100
AcDbEntity
  8
Layer_1
 62
7
100
AcDbPolyline
 90
2
 70
0
 10
-199.660454
 20
-206.212439
 30
0.0
 10
-200.094596
 20
-206.032635
 30
0.0
  0
LWPOLYLINE
  5
326
100
AcDbEntity
  8
Layer_1
 62
7
100
AcDbPolyline
 90
2
 70
0
 10
-198.821802
 20
-208.237157
 30
0.0
 10
-198.760447
 20
-207.771293
 30
0.0
  0
LWPOLYLINE
  5
327
100
AcDbEntity
  8
Layer_1
 62
7
100
AcDbPolyline
 90
2
 70
0
 10
-201.833254
 20
-206.498499
 30
0.0
 10
-202.119315
 20
-206.871286
 30
0.0
  0
LWPOLYLINE
  5
328
100
AcDbEntity
  8
Layer_1
 62
7
100
AcDbPolyline
 90
2
 70
0
 10
-201.833254
 20
-209.044087
 30
0.0
 10
-201.460467
 20
-209.330148
 30
0.0
  0
LWPOLYLINE
  5
329
100
AcDbEntity
  8
Layer_1
 62
7
100
AcDbPolyline
 90
2
 70
0
 10
-199.001606
 20
-206.871286
 30
0.0
 10
-199.287666
 20
-206.498499
 30
0.0
  0
LWPOLYLINE
  5
32a
100
AcDbEntity
  8
Layer_1
 62
7
100
AcDbPolyline
 90
2
 70
0
 10
-199.001606
 20
-208.671300
 30
0.0
 10
-198.821802
 20
-208.237157
 30
0.0
  0
LWPOLYLINE
  5
32b
100
AcDbEntity
  8
Layer_1
 62
7
100
AcDbPolyline
 90
2
 70
0
 10
-198.821802
 20
-207.305429
 30
0.0
 10
-199.001606
 20
-206.871286
 30
0.0
  0
LWPOLYLINE
  5
32c
100
AcDbEntity
  8
Layer_1
 62
7
100
AcDbPolyline
 90
2
 70
0
 10
-202.119315
 20
-208.671300
 30
0.0
 10
-201.833254
 20
-209.044087
 30
0.0
  0
LWPOLYLINE
  5
32d
100
AcDbEntity
  8
Layer_1
 62
7
100
AcDbPolyline
 90
2
 70
0
 10
-202.360445
 20
-207.771293
 30
0.0
 10
-202.299118
 20
-208.237157
 30
0.0
  0
LWPOLYLINE
  5
32e
100
AcDbEntity
  8
Layer_1
 62
7
100
AcDbPolyline
 90
2
 70
0
 10
-201.460467
 20
-209.330148
 30
0.0
 10
-201.026324
 20
-209.509951
 30
0.0
  0
LWPOLYLINE
  5
32f
100
AcDbEntity
  8
Layer_1
 62
7
100
AcDbPolyline
 90
2
 70
0
 10
-199.660454
 20
-209.330148
 30
0.0
 10
-199.287666
 20
-209.044087
 30
0.0
  0
LWPOLYLINE
  5
330
100
AcDbEntity
  8
Layer_1
 62
7
100
AcDbPolyline
 90
2
 70
0
 10
-201.026324
 20
-206.032635
 30
0.0
 10
-201.460467
 20
-206.212439
 30
0.0
  0
LWPOLYLINE
  5
331
100
AcDbEntity
  8
Layer_1
 62
7
100
AcDbPolyline
 90
2
 70
0
 10
-202.299118
 20
-207.305429
 30
0.0
 10
-202.360445
 20
-207.771293
 30
0.0
  0
LWPOLYLINE
  5
332
100
AcDbEntity
  8
Layer_1
 62
7
100
AcDbPolyline
 90
2
 70
0
 10
-200.094596
 20
-206.032635
 30
0.0
 10
-200.560460
 20
-205.971308
 30
0.0
  0
LWPOLYLINE
  5
333
100
AcDbEntity
  8
Layer_1
 62
7
100
AcDbPolyline
 90
2
 70
0
 10
-198.760447
 20
-207.771293
 30
0.0
 10
-198.821802
 20
-207.305429
 30
0.0
  0
LWPOLYLINE
  5
334
100
AcDbEntity
  8
Layer_1
 62
7
100
AcDbPolyline
 90
2
 70
0
 10
-199.287666
 20
-209.044087
 30
0.0
 10
-199.001606
 20
-208.671300
 30
0.0
  0
LWPOLYLINE
  5
335
100
AcDbEntity
  8
Layer_1
 62
7
100
AcDbPolyline
 90
2
 70
0
 10
-200.094596
 20
-209.509951
 30
0.0
 10
-199.660454
 20
-209.330148
 30
0.0
  0
LWPOLYLINE
  5
336
100
AcDbEntity
  8
Layer_1
 62
7
100
AcDbPolyline
 90
2
 70
0
 10
-200.560460
 20
-209.571306
 30
0.0
 10
-200.094596
 20
-209.509951
 30
0.0
  0
LWPOLYLINE
  5
337
100
AcDbEntity
  8
Layer_1
 62
7
100
AcDbPolyline
 90
2
 70
0
 10
-24.120461
 20
-202.171299
 30
0.0
 10
-23.834400
 20
-202.544086
 30
0.0
  0
LWPOLYLINE
  5
338
100
AcDbEntity
  8
Layer_1
 62
7
100
AcDbPolyline
 90
2
 70
0
 10
-24.300265
 20
-201.737184
 30
0.0
 10
-24.120461
 20
-202.171299
 30
0.0
  0
LWPOLYLINE
  5
339
100
AcDbEntity
  8
Layer_1
 62
7
100
AcDbPolyline
 90
2
 70
0
 10
-24.120461
 20
-200.371285
 30
0.0
 10
-24.300265
 20
-200.805428
 30
0.0
  0
LWPOLYLINE
  5
33a
100
AcDbEntity
  8
Layer_1
 62
7
100
AcDbPolyline
 90
2
 70
0
 10
-22.095742
 20
-199.532634
 30
0.0
 10
-22.561606
 20
-199.471307
 30
0.0
  0
LWPOLYLINE
  5
33b
100
AcDbEntity
  8
Layer_1
 62
7
100
AcDbPolyline
 90
2
 70
0
 10
-23.027471
 20
-203.009950
 30
0.0
 10
-22.561606
 20
-203.071305
 30
0.0
  0
LWPOLYLINE
  5
33c
100
AcDbEntity
  8
Layer_1
 62
7
100
AcDbPolyline
 90
2
 70
0
 10
-24.300265
 20
-200.805428
 30
0.0
 10
-24.361592
 20
-201.271292
 30
0.0
  0
LWPOLYLINE
  5
33d
100
AcDbEntity
  8
Layer_1
 62
7
100
AcDbPolyline
 90
2
 70
0
 10
-22.095742
 20
-203.009950
 30
0.0
 10
-21.661600
 20
-202.830146
 30
0.0
  0
LWPOLYLINE
  5
33e
100
AcDbEntity
  8
Layer_1
 62
7
100
AcDbPolyline
 90
2
 70
0
 10
-22.561606
 20
-199.471307
 30
0.0
 10
-23.027471
 20
-199.532634
 30
0.0
  0
LWPOLYLINE
  5
33f
100
AcDbEntity
  8
Layer_1
 62
7
100
AcDbPolyline
 90
2
 70
0
 10
-24.361592
 20
-201.271292
 30
0.0
 10
-24.300265
 20
-201.737184
 30
0.0
  0
LWPOLYLINE
  5
340
100
AcDbEntity
  8
Layer_1
 62
7
100
AcDbPolyline
 90
2
 70
0
 10
-20.822948
 20
-201.737184
 30
0.0
 10
-20.761593
 20
-201.271292
 30
0.0
  0
LWPOLYLINE
  5
341
100
AcDbEntity
  8
Layer_1
 62
7
100
AcDbPolyline
 90
2
 70
0
 10
-21.288812
 20
-199.998498
 30
0.0
 10
-21.661600
 20
-199.712466
 30
0.0
  0
LWPOLYLINE
  5
342
100
AcDbEntity
  8
Layer_1
 62
7
100
AcDbPolyline
 90
2
 70
0
 10
-23.461613
 20
-202.830146
 30
0.0
 10
-23.027471
 20
-203.009950
 30
0.0
  0
LWPOLYLINE
  5
343
100
AcDbEntity
  8
Layer_1
 62
7
100
AcDbPolyline
 90
2
 70
0
 10
-21.288812
 20
-202.544086
 30
0.0
 10
-21.002752
 20
-202.171299
 30
0.0
  0
LWPOLYLINE
  5
344
100
AcDbEntity
  8
Layer_1
 62
7
100
AcDbPolyline
 90
2
 70
0
 10
-23.834400
 20
-202.544086
 30
0.0
 10
-23.461613
 20
-202.830146
 30
0.0
  0
LWPOLYLINE
  5
345
100
AcDbEntity
  8
Layer_1
 62
7
100
AcDbPolyline
 90
2
 70
0
 10
-20.822948
 20
-200.805428
 30
0.0
 10
-21.002752
 20
-200.371285
 30
0.0
  0
LWPOLYLINE
  5
346
100
AcDbEntity
  8
Layer_1
 62
7
100
AcDbPolyline
 90
2
 70
0
 10
-20.761593
 20
-201.271292
 30
0.0
 10
-20.822948
 20
-200.805428
 30
0.0
  0
LWPOLYLINE
  5
347
100
AcDbEntity
  8
Layer_1
 62
7
100
AcDbPolyline
 90
2
 70
0
 10
-21.002752
 20
-202.171299
 30
0.0
 10
-20.822948
 20
-201.737184
 30
0.0
  0
LWPOLYLINE
  5
348
100
AcDbEntity
  8
Layer_1
 62
7
100
AcDbPolyline
 90
2
 70
0
 10
-21.661600
 20
-199.712466
 30
0.0
 10
-22.095742
 20
-199.532634
 30
0.0
  0
LWPOLYLINE
  5
349
100
AcDbEntity
  8
Layer_1
 62
7
100
AcDbPolyline
 90
2
 70
0
 10
-23.834400
 20
-199.998498
 30
0.0
 10
-24.120461
 20
-200.371285
 30
0.0
  0
LWPOLYLINE
  5
34a
100
AcDbEntity
  8
Layer_1
 62
7
100
AcDbPolyline
 90
2
 70
0
 10
-23.461613
 20
-199.712466
 30
0.0
 10
-23.834400
 20
-199.998498
 30
0.0
  0
LWPOLYLINE
  5
34b
100
AcDbEntity
  8
Layer_1
 62
7
100
AcDbPolyline
 90
2
 70
0
 10
-23.027471
 20
-199.532634
 30
0.0
 10
-23.461613
 20
-199.712466
 30
0.0
  0
LWPOLYLINE
  5
34c
100
AcDbEntity
  8
Layer_1
 62
7
100
AcDbPolyline
 90
2
 70
0
 10
-21.002752
 20
-200.371285
 30
0.0
 10
-21.288812
 20
-199.998498
 30
0.0
  0
LWPOLYLINE
  5
34d
100
AcDbEntity
  8
Layer_1
 62
7
100
AcDbPolyline
 90
2
 70
0
 10
-21.661600
 20
-202.830146
 30
0.0
 10
-21.288812
 20
-202.544086
 30
0.0
  0
LWPOLYLINE
  5
34e
100
AcDbEntity
  8
Layer_1
 62
7
100
AcDbPolyline
 90
2
 70
0
 10
-22.561606
 20
-203.071305
 30
0.0
 10
-22.095742
 20
-203.009950
 30
0.0
  0
LWPOLYLINE
  5
34f
100
AcDbEntity
  8
Layer_1
 62
7
100
AcDbPolyline
 90
2
 70
0
 10
-250.535609
 20
-183.347302
 30
0.0
 10
-250.821924
 20
-183.720428
 30
0.0
  0
LWPOLYLINE
  5
350
100
AcDbEntity
  8
Layer_1
 62
7
100
AcDbPolyline
 90
2
 70
0
 10
-247.701252
 20
-185.522163
 30
0.0
 10
-247.521250
 20
-185.087626
 30
0.0
  0
LWPOLYLINE
  5
351
100
AcDbEntity
  8
Layer_1
 62
7
100
AcDbPolyline
 90
2
 70
0
 10
-249.727918
 20
-182.880958
 30
0.0
 10
-250.162455
 20
-183.060960
 30
0.0
  0
LWPOLYLINE
  5
352
100
AcDbEntity
  8
Layer_1
 62
7
100
AcDbPolyline
 90
2
 70
0
 10
-250.821924
 20
-183.720428
 30
0.0
 10
-251.001925
 20
-184.154994
 30
0.0
  0
LWPOLYLINE
  5
353
100
AcDbEntity
  8
Layer_1
 62
7
100
AcDbPolyline
 90
2
 70
0
 10
-250.162455
 20
-186.181632
 30
0.0
 10
-249.727918
 20
-186.361633
 30
0.0
  0
LWPOLYLINE
  5
354
100
AcDbEntity
  8
Layer_1
 62
7
100
AcDbPolyline
 90
2
 70
0
 10
-247.987566
 20
-185.895317
 30
0.0
 10
-247.701252
 20
-185.522163
 30
0.0
  0
LWPOLYLINE
  5
355
100
AcDbEntity
  8
Layer_1
 62
7
100
AcDbPolyline
 90
2
 70
0
 10
-248.795258
 20
-186.361633
 30
0.0
 10
-248.360720
 20
-186.181632
 30
0.0
  0
LWPOLYLINE
  5
356
100
AcDbEntity
  8
Layer_1
 62
7
100
AcDbPolyline
 90
2
 70
0
 10
-251.063308
 20
-184.621310
 30
0.0
 10
-251.001925
 20
-185.087626
 30
0.0
  0
LWPOLYLINE
  5
357
100
AcDbEntity
  8
Layer_1
 62
7
100
AcDbPolyline
 90
2
 70
0
 10
-250.535609
 20
-185.895317
 30
0.0
 10
-250.162455
 20
-186.181632
 30
0.0
  0
LWPOLYLINE
  5
358
100
AcDbEntity
  8
Layer_1
 62
7
100
AcDbPolyline
 90
2
 70
0
 10
-251.001925
 20
-185.087626
 30
0.0
 10
-250.821924
 20
-185.522163
 30
0.0
  0
LWPOLYLINE
  5
359
100
AcDbEntity
  8
Layer_1
 62
7
100
AcDbPolyline
 90
2
 70
0
 10
-248.795258
 20
-182.880958
 30
0.0
 10
-249.261574
 20
-182.819575
 30
0.0
  0
LWPOLYLINE
  5
35a
100
AcDbEntity
  8
Layer_1
 62
7
100
AcDbPolyline
 90
2
 70
0
 10
-247.521250
 20
-185.087626
 30
0.0
 10
-247.459867
 20
-184.621310
 30
0.0
  0
LWPOLYLINE
  5
35b
100
AcDbEntity
  8
Layer_1
 62
7
100
AcDbPolyline
 90
2
 70
0
 10
-250.821924
 20
-185.522163
 30
0.0
 10
-250.535609
 20
-185.895317
 30
0.0
  0
LWPOLYLINE
  5
35c
100
AcDbEntity
  8
Layer_1
 62
7
100
AcDbPolyline
 90
2
 70
0
 10
-247.987566
 20
-183.347302
 30
0.0
 10
-248.360720
 20
-183.060960
 30
0.0
  0
LWPOLYLINE
  5
35d
100
AcDbEntity
  8
Layer_1
 62
7
100
AcDbPolyline
 90
2
 70
0
 10
-247.701252
 20
-183.720428
 30
0.0
 10
-247.987566
 20
-183.347302
 30
0.0
  0
LWPOLYLINE
  5
35e
100
AcDbEntity
  8
Layer_1
 62
7
100
AcDbPolyline
 90
2
 70
0
 10
-248.360720
 20
-186.181632
 30
0.0
 10
-247.987566
 20
-185.895317
 30
0.0
  0
LWPOLYLINE
  5
35f
100
AcDbEntity
  8
Layer_1
 62
7
100
AcDbPolyline
 90
2
 70
0
 10
-249.727918
 20
-186.361633
 30
0.0
 10
-249.261574
 20
-186.423016
 30
0.0
  0
LWPOLYLINE
  5
360
100
AcDbEntity
  8
Layer_1
 62
7
100
AcDbPolyline
 90
2
 70
0
 10
-247.459867
 20
-184.621310
 30
0.0
 10
-247.521250
 20
-184.154994
 30
0.0
  0
LWPOLYLINE
  5
361
100
AcDbEntity
  8
Layer_1
 62
7
100
AcDbPolyline
 90
2
 70
0
 10
-249.261574
 20
-182.819575
 30
0.0
 10
-249.727918
 20
-182.880958
 30
0.0
  0
LWPOLYLINE
  5
362
100
AcDbEntity
  8
Layer_1
 62
7
100
AcDbPolyline
 90
2
 70
0
 10
-250.162455
 20
-183.060960
 30
0.0
 10
-250.535609
 20
-183.347302
 30
0.0
  0
LWPOLYLINE
  5
363
100
AcDbEntity
  8
Layer_1
 62
7
100
AcDbPolyline
 90
2
 70
0
 10
-251.001925
 20
-184.154994
 30
0.0
 10
-251.063308
 20
-184.621310
 30
0.0
  0
LWPOLYLINE
  5
364
100
AcDbEntity
  8
Layer_1
 62
7
100
AcDbPolyline
 90
2
 70
0
 10
-247.521250
 20
-184.154994
 30
0.0
 10
-247.701252
 20
-183.720428
 30
0.0
  0
LWPOLYLINE
  5
365
100
AcDbEntity
  8
Layer_1
 62
7
100
AcDbPolyline
 90
2
 70
0
 10
-248.360720
 20
-183.060960
 30
0.0
 10
-248.795258
 20
-182.880958
 30
0.0
  0
LWPOLYLINE
  5
366
100
AcDbEntity
  8
Layer_1
 62
7
100
AcDbPolyline
 90
2
 70
0
 10
-249.261574
 20
-186.423045
 30
0.0
 10
-248.795258
 20
-186.361633
 30
0.0
  0
LWPOLYLINE
  5
367
100
AcDbEntity
  8
Layer_1
 62
5
100
AcDbPolyline
 90
2
 70
0
 10
-196.425284
 20
-208.736013
 30
0.0
 10
-196.561569
 20
-209.771289
 30
0.0
  0
LWPOLYLINE
  5
368
100
AcDbEntity
  8
Layer_1
 62
5
100
AcDbPolyline
 90
2
 70
0
 10
-24.561602
 20
-206.307181
 30
0.0
 10
-25.390038
 20
-206.942858
 30
0.0
  0
LWPOLYLINE
  5
369
100
AcDbEntity
  8
Layer_1
 62
5
100
AcDbPolyline
 90
2
 70
0
 10
-192.561577
 20
-205.771297
 30
0.0
 10
-193.596853
 20
-205.907582
 30
0.0
  0
LWPOLYLINE
  5
36a
100
AcDbEntity
  8
Layer_1
 62
5
100
AcDbPolyline
 90
2
 70
0
 10
40.438183
 20
-213.771281
 30
0.0
 10
9.438386
 20
-213.771281
 30
0.0
  0
LWPOLYLINE
  5
36b
100
AcDbEntity
  8
Layer_1
 62
5
100
AcDbPolyline
 90
2
 70
0
 10
-222.561573
 20
-205.771297
 30
0.0
 10
-206.561577
 20
-205.771297
 30
0.0
  0
LWPOLYLINE
  5
36c
100
AcDbEntity
  8
Layer_1
 62
5
100
AcDbPolyline
 90
2
 70
0
 10
-204.561581
 20
-213.771281
 30
0.0
 10
-204.561581
 20
-207.771293
 30
0.0
  0
LWPOLYLINE
  5
36d
100
AcDbEntity
  8
Layer_1
 62
5
100
AcDbPolyline
 90
2
 70
0
 10
-25.390038
 20
-206.942858
 30
0.0
 10
-26.025715
 20
-207.771293
 30
0.0
  0
LWPOLYLINE
  5
36e
100
AcDbEntity
  8
Layer_1
 62
5
100
AcDbPolyline
 90
2
 70
0
 10
-195.390008
 20
-206.942858
 30
0.0
 10
-196.025685
 20
-207.771293
 30
0.0
  0
LWPOLYLINE
  5
36f
100
AcDbEntity
  8
Layer_1
 62
5
100
AcDbPolyline
 90
2
 70
0
 10
9.438386
 20
-207.771293
 30
0.0
 10
9.438386
 20
-213.771281
 30
0.0
  0
LWPOLYLINE
  5
370
100
AcDbEntity
  8
Layer_1
 62
5
100
AcDbPolyline
 90
2
 70
0
 10
-193.596853
 20
-205.907610
 30
0.0
 10
-194.561573
 20
-206.307181
 30
0.0
  0
LWPOLYLINE
  5
371
100
AcDbEntity
  8
Layer_1
 62
5
100
AcDbPolyline
 90
2
 70
0
 10
-188.561585
 20
-209.771289
 30
0.0
 10
-188.697870
 20
-208.736013
 30
0.0
  0
LWPOLYLINE
  5
372
100
AcDbEntity
  8
Layer_1
 62
5
100
AcDbPolyline
 90
2
 70
0
 10
-26.425313
 20
-208.736013
 30
0.0
 10
-26.561598
 20
-209.771289
 30
0.0
  0
LWPOLYLINE
  5
373
100
AcDbEntity
  8
Layer_1
 62
5
100
AcDbPolyline
 90
2
 70
0
 10
-10.561602
 20
-213.771281
 30
0.0
 10
-18.561614
 20
-213.771281
 30
0.0
  0
LWPOLYLINE
  5
374
100
AcDbEntity
  8
Layer_1
 62
5
100
AcDbPolyline
 90
2
 70
0
 10
-26.025715
 20
-207.771293
 30
0.0
 10
-26.425313
 20
-208.736013
 30
0.0
  0
LWPOLYLINE
  5
375
100
AcDbEntity
  8
Layer_1
 62
5
100
AcDbPolyline
 90
2
 70
0
 10
9.438386
 20
-207.771293
 30
0.0
 10
7.438390
 20
-205.771325
 30
0.0
  0
LWPOLYLINE
  5
376
100
AcDbEntity
  8
Layer_1
 62
5
100
AcDbPolyline
 90
2
 70
0
 10
-10.561602
 20
-207.771293
 30
0.0
 10
-10.561602
 20
-213.771281
 30
0.0
  0
LWPOLYLINE
  5
377
100
AcDbEntity
  8
Layer_1
 62
5
100
AcDbPolyline
 90
2
 70
0
 10
-20.561610
 20
-206.307181
 30
0.0
 10
-21.526331
 20
-205.907610
 30
0.0
  0
LWPOLYLINE
  5
378
100
AcDbEntity
  8
Layer_1
 62
5
100
AcDbPolyline
 90
2
 70
0
 10
-26.561598
 20
-213.771281
 30
0.0
 10
-103.811578
 20
-213.771281
 30
0.0
  0
LWPOLYLINE
  5
379
100
AcDbEntity
  8
Layer_1
 62
5
100
AcDbPolyline
 90
2
 70
0
 10
-18.561614
 20
-209.771289
 30
0.0
 10
-18.697900
 20
-208.736013
 30
0.0
  0
LWPOLYLINE
  5
37a
100
AcDbEntity
  8
Layer_1
 62
5
100
AcDbPolyline
 90
2
 70
0
 10
-196.561569
 20
-209.771289
 30
0.0
 10
-196.561569
 20
-213.771281
 30
0.0
  0
LWPOLYLINE
  5
37b
100
AcDbEntity
  8
Layer_1
 62
5
100
AcDbPolyline
 90
2
 70
0
 10
-21.526331
 20
-205.907610
 30
0.0
 10
-22.561606
 20
-205.771325
 30
0.0
  0
LWPOLYLINE
  5
37c
100
AcDbEntity
  8
Layer_1
 62
5
100
AcDbPolyline
 90
2
 70
0
 10
-8.561606
 20
-205.771297
 30
0.0
 10
7.438390
 20
-205.771297
 30
0.0
  0
LWPOLYLINE
  5
37d
100
AcDbEntity
  8
Layer_1
 62
5
100
AcDbPolyline
 90
2
 70
0
 10
-204.561581
 20
-207.771293
 30
0.0
 10
-206.561577
 20
-205.771325
 30
0.0
  0
LWPOLYLINE
  5
37e
100
AcDbEntity
  8
Layer_1
 62
5
100
AcDbPolyline
 90
2
 70
0
 10
-196.561569
 20
-213.771281
 30
0.0
 10
-204.561581
 20
-213.771281
 30
0.0
  0
LWPOLYLINE
  5
37f
100
AcDbEntity
  8
Layer_1
 62
5
100
AcDbPolyline
 90
2
 70
0
 10
-190.561581
 20
-206.307181
 30
0.0
 10
-191.526301
 20
-205.907610
 30
0.0
  0
LWPOLYLINE
  5
380
100
AcDbEntity
  8
Layer_1
 62
5
100
AcDbPolyline
 90
2
 70
0
 10
-189.097468
 20
-207.771293
 30
0.0
 10
-189.733146
 20
-206.942858
 30
0.0
  0
LWPOLYLINE
  5
381
100
AcDbEntity
  8
Layer_1
 62
5
100
AcDbPolyline
 90
2
 70
0
 10
-196.025685
 20
-207.771293
 30
0.0
 10
-196.425284
 20
-208.736013
 30
0.0
  0
LWPOLYLINE
  5
382
100
AcDbEntity
  8
Layer_1
 62
5
100
AcDbPolyline
 90
2
 70
0
 10
-18.561614
 20
-209.771289
 30
0.0
 10
-18.561614
 20
-213.771281
 30
0.0
  0
LWPOLYLINE
  5
383
100
AcDbEntity
  8
Layer_1
 62
5
100
AcDbPolyline
 90
2
 70
0
 10
-18.697900
 20
-208.736013
 30
0.0
 10
-19.097498
 20
-207.771293
 30
0.0
  0
LWPOLYLINE
  5
384
100
AcDbEntity
  8
Layer_1
 62
5
100
AcDbPolyline
 90
2
 70
0
 10
-194.561573
 20
-206.307181
 30
0.0
 10
-195.390008
 20
-206.942858
 30
0.0
  0
LWPOLYLINE
  5
385
100
AcDbEntity
  8
Layer_1
 62
5
100
AcDbPolyline
 90
2
 70
0
 10
40.438183
 20
-155.271299
 30
0.0
 10
40.438183
 20
-213.771281
 30
0.0
  0
LWPOLYLINE
  5
386
100
AcDbEntity
  8
Layer_1
 62
5
100
AcDbPolyline
 90
2
 70
0
 10
-224.561598
 20
-207.771293
 30
0.0
 10
-222.561573
 20
-205.771325
 30
0.0
  0
LWPOLYLINE
  5
387
100
AcDbEntity
  8
Layer_1
 62
5
100
AcDbPolyline
 90
2
 70
0
 10
-188.697870
 20
-208.736013
 30
0.0
 10
-189.097468
 20
-207.771293
 30
0.0
  0
LWPOLYLINE
  5
388
100
AcDbEntity
  8
Layer_1
 62
5
100
AcDbPolyline
 90
2
 70
0
 10
-191.526301
 20
-205.907610
 30
0.0
 10
-192.561577
 20
-205.771325
 30
0.0
  0
LWPOLYLINE
  5
389
100
AcDbEntity
  8
Layer_1
 62
5
100
AcDbPolyline
 90
2
 70
0
 10
-26.561598
 20
-209.771289
 30
0.0
 10
-26.561598
 20
-213.771281
 30
0.0
  0
LWPOLYLINE
  5
38a
100
AcDbEntity
  8
Layer_1
 62
5
100
AcDbPolyline
 90
2
 70
0
 10
-22.561606
 20
-205.771297
 30
0.0
 10
-23.596882
 20
-205.907582
 30
0.0
  0
LWPOLYLINE
  5
38b
100
AcDbEntity
  8
Layer_1
 62
5
100
AcDbPolyline
 90
2
 70
0
 10
-19.097498
 20
-207.771293
 30
0.0
 10
-19.733175
 20
-206.942858
 30
0.0
  0
LWPOLYLINE
  5
38c
100
AcDbEntity
  8
Layer_1
 62
5
100
AcDbPolyline
 90
2
 70
0
 10
-188.561585
 20
-209.771289
 30
0.0
 10
-188.561585
 20
-213.771281
 30
0.0
  0
LWPOLYLINE
  5
38d
100
AcDbEntity
  8
Layer_1
 62
5
100
AcDbPolyline
 90
2
 70
0
 10
-10.561602
 20
-207.771293
 30
0.0
 10
-8.561606
 20
-205.771325
 30
0.0
  0
LWPOLYLINE
  5
38e
100
AcDbEntity
  8
Layer_1
 62
5
100
AcDbPolyline
 90
2
 70
0
 10
-23.596882
 20
-205.907610
 30
0.0
 10
-24.561602
 20
-206.307181
 30
0.0
  0
LWPOLYLINE
  5
38f
100
AcDbEntity
  8
Layer_1
 62
5
100
AcDbPolyline
 90
2
 70
0
 10
-189.733146
 20
-206.942858
 30
0.0
 10
-190.561581
 20
-206.307181
 30
0.0
  0
LWPOLYLINE
  5
390
100
AcDbEntity
  8
Layer_1
 62
5
100
AcDbPolyline
 90
2
 70
0
 10
-19.733175
 20
-206.942858
 30
0.0
 10
-20.561610
 20
-206.307181
 30
0.0
  0
LWPOLYLINE
  5
391
100
AcDbEntity
  8
Layer_1
 62
5
100
AcDbPolyline
 90
2
 70
0
 10
-103.811522
 20
-207.771293
 30
0.0
 10
-105.811518
 20
-205.771325
 30
0.0
  0
LWPOLYLINE
  5
392
100
AcDbEntity
  8
Layer_1
 62
5
100
AcDbPolyline
 90
3
 70
0
 10
-111.311521
 20
-207.771293
 30
0.0
 10
-109.311525
 20
-205.771325
 30
0.0
 10
-105.811518
 20
-205.771325
 30
0.0
  0
LWPOLYLINE
  5
393
100
AcDbEntity
  8
Layer_1
 62
5
100
AcDbPolyline
 90
2
 70
0
 10
-103.811522
 20
-213.771281
 30
0.0
 10
-103.811522
 20
-207.771293
 30
0.0
  0
LWPOLYLINE
  5
394
100
AcDbEntity
  8
Layer_1
 62
5
100
AcDbPolyline
 90
2
 70
0
 10
-111.311521
 20
-213.771281
 30
0.0
 10
-111.311521
 20
-207.771293
 30
0.0
  0
LWPOLYLINE
  5
395
100
AcDbEntity
  8
Layer_1
 62
5
100
AcDbPolyline
 90
2
 70
0
 10
-111.311521
 20
-213.771281
 30
0.0
 10
-188.561528
 20
-213.771281
 30
0.0
  0
LWPOLYLINE
  5
396
100
AcDbEntity
  8
Layer_1
 62
7
100
AcDbPolyline
 90
5
 70
0
 10
-224.561598
 20
-207.771293
 30
0.0
 10
-224.561598
 20
-213.771281
 30
0.0
 10
-255.611715
 20
-213.771535
 30
0.0
 10
-255.561592
 20
-155.271299
 30
0.0
 10
40.438183
 20
-155.271299
 30
0.0
  0
LWPOLYLINE
  5
397
100
AcDbEntity
  8
Layer_1
 62
7
100
AcDbPolyline
 90
17
 70
0
 10
-117.288451
 20
-196.078206
 30
0.0
 10
-117.288451
 20
-193.988265
 30
0.0
 10
-117.288451
 20
-191.896180
 30
0.0
 10
-117.291838
 20
-189.189218
 30
0.0
 10
-117.289016
 20
-186.233956
 30
0.0
 10
-117.285629
 20
-183.527247
 30
0.0
 10
-117.285629
 20
-181.435190
 30
0.0
 10
-117.289016
 20
-179.344544
 30
0.0
 10
-111.562614
 20
-179.344686
 30
0.0
 10
-111.562614
 20
-181.435529
 30
0.0
 10
-111.562614
 20
-183.527614
 30
0.0
 10
-111.559227
 20
-186.234294
 30
0.0
 10
-111.556405
 20
-189.186480
 30
0.0
 10
-111.559792
 20
-191.893386
 30
0.0
 10
-111.559792
 20
-193.985471
 30
0.0
 10
-111.559792
 20
-196.076766
 30
0.0
 10
-117.288451
 20
-196.078206
 30
0.0
  0
LWPOLYLINE
  5
398
100
AcDbEntity
  8
Layer_1
 62
7
100
AcDbPolyline
 90
12
 70
0
 10
-103.572084
 20
-196.104650
 30
0.0
 10
-103.569262
 20
-187.738172
 30
0.0
 10
-103.572084
 20
-179.370989
 30
0.0
 10
-97.845682
 20
-179.371130
 30
0.0
 10
-97.845682
 20
-181.461973
 30
0.0
 10
-97.845682
 20
-183.554058
 30
0.0
 10
-97.842296
 20
-186.260739
 30
0.0
 10
-97.839474
 20
-189.212924
 30
0.0
 10
-97.842860
 20
-191.919830
 30
0.0
 10
-97.842860
 20
-194.011916
 30
0.0
 10
-97.842860
 20
-196.103210
 30
0.0
 10
-103.572084
 20
-196.104650
 30
0.0
  0
ENDSEC
  0
SECTION
  2
OBJECTS
  0
DICTIONARY
  5
C
330
0
100
AcDbDictionary
  3
ACAD_GROUP
350
D
  3
ACAD_MLINESTYLE
350
17
  0
DICTIONARY
  5
D
330
C
100
AcDbDictionary
  0
DICTIONARY
  5
1A
330
C
100
AcDbDictionary
  0
DICTIONARY
  5
17
330
C
100
AcDbDictionary
  3
STANDARD
350
18
  0
DICTIONARY
  5
19
330
C
100
AcDbDictionary
  0
ENDSEC
  0
EOF
