  0
SECTION
  2
HEADER
  9
$ACADVER
  1
AC1014
  9
$HANDSEED
  5
FFFF
  9
$MEASUREMENT
 70
     1
  0
ENDSEC
  0
SECTION
  2
TABLES
  0
TABLE
  2
VPORT
  5
8
330
0
100
AcDbSymbolTable
 70
     4
  0
VPORT
  5
2E
330
8
100
AcDbSymbolTableRecord
100
AcDbViewportTableRecord
  2
*ACTIVE
 70
     0
 10
0.0
 20
0.0
 11
1.0
 21
1.0
 12
210.0
 22
148.5
 13
0.0
 23
0.0
 14
10.0
 24
10.0
 15
10.0
 25
10.0
 16
0.0
 26
0.0
 36
1.0
 17
0.0
 27
0.0
 37
0.0
 40
341.0
 41
1.24
 42
50.0
 43
0.0
 44
0.0
 50
0.0
 51
0.0
 71
     0
 72
   100
 73
     1
 74
     3
 75
     0
 76
     0
 77
     0
 78
     0
  0
ENDTAB
  0
TABLE
  2
LTYPE
  5
5
330
0
100
AcDbSymbolTable
 70
     1
  0
LTYPE
  5
14
330
5
100
AcDbSymbolTableRecord
100
AcDbLinetypeTableRecord
  2
BYBLOCK
 70
     0
  3

 72
    65
 73
     0
 40
0.0
  0
LTYPE
  5
15
330
5
100
AcDbSymbolTableRecord
100
AcDbLinetypeTableRecord
  2
BYLAYER
 70
     0
  3

 72
    65
 73
     0
 40
0.0
  0
LTYPE
  5
16
330
5
100
AcDbSymbolTableRecord
100
AcDbLinetypeTableRecord
  2
CONTINUOUS
 70
     0
  3
Solid line
 72
    65
 73
     0
 40
0.0
  0
ENDTAB
  0
TABLE
  2
LAYER
  5
2
100
AcDbSymbolTable
 70
2
  0
LAYER
  5
50
100
AcDbSymbolTableRecord
100
AcDbLayerTableRecord
  2
0
 70
0
  6
CONTINUOUS
  0
LAYER
  5
51
100
AcDbSymbolTableRecord
100
AcDbLayerTableRecord
  2
Layer_1
 70
0
  6
CONTINUOUS
  0
ENDTAB
  0
TABLE
  2
STYLE
  5
3
330
0
100
AcDbSymbolTable
 70
     1
  0
STYLE
  5
11
330
3
100
AcDbSymbolTableRecord
100
AcDbTextStyleTableRecord
  2
STANDARD
 70
     0
 40
0.0
 41
1.0
 50
0.0
 71
     0
 42
2.5
  3
txt
  4

  0
ENDTAB
  0
TABLE
  2
VIEW
  5
6
330
0
100
AcDbSymbolTable
 70
     0
  0
ENDTAB
  0
TABLE
  2
UCS
  5
7
330
0
100
AcDbSymbolTable
 70
     0
  0
ENDTAB
  0
TABLE
  2
APPID
  5
9
330
0
100
AcDbSymbolTable
 70
     2
  0
APPID
  5
12
330
9
100
AcDbSymbolTableRecord
100
AcDbRegAppTableRecord
  2
ACAD
 70
     0
  0
ENDTAB
  0
TABLE
  2
DIMSTYLE
  5
A
330
0
100
AcDbSymbolTable
 70
     1
  0
DIMSTYLE
105
27
330
A
100
AcDbSymbolTableRecord
100
AcDbDimStyleTableRecord
  2
ISO-25
 70
     0
  3

  4

  5

  6

  7

 40
1.0
 41
2.5
 42
0.625
 43
3.75
 44
1.25
 45
0.0
 46
0.0
 47
0.0
 48
0.0
140
2.5
141
2.5
142
0.0
143
0.03937007874016
144
1.0
145
0.0
146
1.0
147
0.625
 71
     0
 72
     0
 73
     0
 74
     0
 75
     0
 76
     0
 77
     1
 78
     8
170
     0
171
     3
172
     1
173
     0
174
     0
175
     0
176
     0
177
     0
178
     0
270
     2
271
     2
272
     2
273
     2
274
     3
340
11
275
     0
280
     0
281
     0
282
     0
283
     0
284
     8
285
     0
286
     0
287
     3
288
     0
  0
ENDTAB
  0
TABLE
  2
BLOCK_RECORD
  5
1
330
0
100
AcDbSymbolTable
 70
     1
  0
BLOCK_RECORD
  5
1F
330
1
100
AcDbSymbolTableRecord
100
AcDbBlockTableRecord
  2
*MODEL_SPACE
  0
BLOCK_RECORD
  5
1B
330
1
100
AcDbSymbolTableRecord
100
AcDbBlockTableRecord
  2
*PAPER_SPACE
  0
ENDTAB
  0
ENDSEC
  0
SECTION
  2
BLOCKS
  0
BLOCK
  5
20
330
1F
100
AcDbEntity
  8
0
100
AcDbBlockBegin
  2
*MODEL_SPACE
 70
     0
 10
0.0
 20
0.0
 30
0.0
  3
*MODEL_SPACE
  1

  0
ENDBLK
  5
21
330
1F
100
AcDbEntity
  8
0
100
AcDbBlockEnd
  0
BLOCK
  5
1C
330
1B
100
AcDbEntity
 67
     1
  8
0
100
AcDbBlockBegin
  2
*PAPER_SPACE
  1

  0
ENDBLK
  5
1D
330
1B
100
AcDbEntity
 67
     1
  8
0
100
AcDbBlockEnd
  0
ENDSEC
  0
SECTION
  2
ENTITIES
  0
LWPOLYLINE
  5
100
100
AcDbEntity
  8
Layer_1
 62
7
100
AcDbPolyline
 90
25
 70
0
 10
-45.190935
 20
96.517501
 30
0.0
 10
-44.755833
 20
96.697361
 30
0.0
 10
-44.288924
 20
96.758688
 30
0.0
 10
-43.822016
 20
96.697361
 30
0.0
 10
-43.386914
 20
96.517501
 30
0.0
 10
-43.013280
 20
96.231356
 30
0.0
 10
-42.726599
 20
95.858484
 30
0.0
 10
-42.546372
 20
95.424254
 30
0.0
 10
-42.484904
 20
94.958280
 30
0.0
 10
-42.546372
 20
94.492274
 30
0.0
 10
-42.726599
 20
94.058047
 30
0.0
 10
-43.013280
 20
93.685175
 30
0.0
 10
-43.386914
 20
93.399058
 30
0.0
 10
-43.822016
 20
93.219170
 30
0.0
 10
-44.288924
 20
93.157815
 30
0.0
 10
-44.755833
 20
93.219170
 30
0.0
 10
-45.190935
 20
93.399058
 30
0.0
 10
-45.564569
 20
93.685175
 30
0.0
 10
-45.851250
 20
94.058047
 30
0.0
 10
-46.031477
 20
94.492274
 30
0.0
 10
-46.092945
 20
94.958280
 30
0.0
 10
-46.031477
 20
95.424254
 30
0.0
 10
-45.851250
 20
95.858484
 30
0.0
 10
-45.564569
 20
96.231356
 30
0.0
 10
-45.190935
 20
96.517501
 30
0.0
  0
LWPOLYLINE
  5
101
100
AcDbEntity
  8
Layer_1
 62
7
100
AcDbPolyline
 90
4
 70
0
 10
-245.766663
 20
86.918276
 30
0.0
 10
-245.780774
 20
64.728969
 30
0.0
 10
100.801943
 20
64.703851
 30
0.0
 10
157.359390
 20
86.857486
 30
0.0
  0
LWPOLYLINE
  5
102
100
AcDbEntity
  8
Layer_1
 62
5
100
AcDbPolyline
 90
6
 70
0
 10
-218.410073
 20
136.530290
 30
0.0
 10
-218.412895
 20
114.708953
 30
0.0
 10
-182.938493
 20
102.959957
 30
0.0
 10
-182.938550
 20
98.258600
 30
0.0
 10
-191.096917
 20
98.258600
 30
0.0
 10
-191.096917
 20
91.557431
 30
0.0
  0
LWPOLYLINE
  5
103
100
AcDbEntity
  8
Layer_1
 62
5
100
AcDbPolyline
 90
2
 70
0
 10
-223.421267
 20
141.531494
 30
0.0
 10
-218.410073
 20
136.530290
 30
0.0
  0
LWPOLYLINE
  5
104
100
AcDbEntity
  8
Layer_1
 62
5
100
AcDbPolyline
 90
2
 70
0
 10
-223.421267
 20
141.531494
 30
0.0
 10
-240.755497
 20
141.531494
 30
0.0
  0
LWPOLYLINE
  5
105
100
AcDbEntity
  8
Layer_1
 62
5
100
AcDbPolyline
 90
2
 70
0
 10
-245.766663
 20
136.530290
 30
0.0
 10
-240.755497
 20
141.531494
 30
0.0
  0
LWPOLYLINE
  5
106
100
AcDbEntity
  8
Layer_1
 62
5
100
AcDbPolyline
 90
2
 70
0
 10
-245.766663
 20
98.320816
 30
0.0
 10
-245.766663
 20
136.530290
 30
0.0
  0
LWPOLYLINE
  5
107
100
AcDbEntity
  8
Layer_1
 62
5
100
AcDbPolyline
 90
2
 70
0
 10
-245.766663
 20
91.619647
 30
0.0
 10
-233.543873
 20
91.619647
 30
0.0
  0
LWPOLYLINE
  5
108
100
AcDbEntity
  8
Layer_1
 62
5
100
AcDbPolyline
 90
2
 70
0
 10
-245.766663
 20
86.918276
 30
0.0
 10
-245.766663
 20
91.619647
 30
0.0
  0
LWPOLYLINE
  5
109
100
AcDbEntity
  8
Layer_1
 62
5
100
AcDbPolyline
 90
2
 70
0
 10
-233.543873
 20
98.320816
 30
0.0
 10
-245.766663
 20
98.320816
 30
0.0
  0
LWPOLYLINE
  5
10a
100
AcDbEntity
  8
Layer_1
 62
5
100
AcDbPolyline
 90
2
 70
0
 10
-233.543873
 20
91.619647
 30
0.0
 10
-233.543873
 20
98.320816
 30
0.0
  0
LWPOLYLINE
  5
10b
100
AcDbEntity
  8
Layer_1
 62
7
100
AcDbPolyline
 90
2
 70
0
 10
-187.564398
 20
80.022261
 30
0.0
 10
-187.277716
 20
80.395133
 30
0.0
  0
LWPOLYLINE
  5
10c
100
AcDbEntity
  8
Layer_1
 62
7
100
AcDbPolyline
 90
2
 70
0
 10
-187.744625
 20
79.588006
 30
0.0
 10
-187.564398
 20
80.022261
 30
0.0
  0
LWPOLYLINE
  5
10d
100
AcDbEntity
  8
Layer_1
 62
7
100
AcDbPolyline
 90
2
 70
0
 10
-187.806093
 20
79.122029
 30
0.0
 10
-187.744625
 20
79.588006
 30
0.0
  0
LWPOLYLINE
  5
10e
100
AcDbEntity
  8
Layer_1
 62
7
100
AcDbPolyline
 90
2
 70
0
 10
-187.744625
 20
78.656023
 30
0.0
 10
-187.806093
 20
79.122029
 30
0.0
  0
LWPOLYLINE
  5
10f
100
AcDbEntity
  8
Layer_1
 62
7
100
AcDbPolyline
 90
2
 70
0
 10
-187.564398
 20
78.221796
 30
0.0
 10
-187.744625
 20
78.656023
 30
0.0
  0
LWPOLYLINE
  5
110
100
AcDbEntity
  8
Layer_1
 62
7
100
AcDbPolyline
 90
2
 70
0
 10
-187.277716
 20
77.848924
 30
0.0
 10
-187.564398
 20
78.221796
 30
0.0
  0
LWPOLYLINE
  5
111
100
AcDbEntity
  8
Layer_1
 62
7
100
AcDbPolyline
 90
2
 70
0
 10
-186.904082
 20
77.562807
 30
0.0
 10
-187.277716
 20
77.848924
 30
0.0
  0
LWPOLYLINE
  5
112
100
AcDbEntity
  8
Layer_1
 62
7
100
AcDbPolyline
 90
2
 70
0
 10
-186.468980
 20
77.382947
 30
0.0
 10
-186.904082
 20
77.562807
 30
0.0
  0
LWPOLYLINE
  5
113
100
AcDbEntity
  8
Layer_1
 62
7
100
AcDbPolyline
 90
2
 70
0
 10
-186.002072
 20
77.321564
 30
0.0
 10
-186.468980
 20
77.382947
 30
0.0
  0
LWPOLYLINE
  5
114
100
AcDbEntity
  8
Layer_1
 62
7
100
AcDbPolyline
 90
2
 70
0
 10
-185.535135
 20
77.382947
 30
0.0
 10
-186.002072
 20
77.321564
 30
0.0
  0
LWPOLYLINE
  5
115
100
AcDbEntity
  8
Layer_1
 62
7
100
AcDbPolyline
 90
2
 70
0
 10
-185.100062
 20
77.562807
 30
0.0
 10
-185.535135
 20
77.382947
 30
0.0
  0
LWPOLYLINE
  5
116
100
AcDbEntity
  8
Layer_1
 62
7
100
AcDbPolyline
 90
2
 70
0
 10
-184.726428
 20
77.848924
 30
0.0
 10
-185.100062
 20
77.562807
 30
0.0
  0
LWPOLYLINE
  5
117
100
AcDbEntity
  8
Layer_1
 62
7
100
AcDbPolyline
 90
2
 70
0
 10
-184.439746
 20
78.221796
 30
0.0
 10
-184.726428
 20
77.848924
 30
0.0
  0
LWPOLYLINE
  5
118
100
AcDbEntity
  8
Layer_1
 62
7
100
AcDbPolyline
 90
2
 70
0
 10
-184.259519
 20
78.656023
 30
0.0
 10
-184.439746
 20
78.221796
 30
0.0
  0
LWPOLYLINE
  5
119
100
AcDbEntity
  8
Layer_1
 62
7
100
AcDbPolyline
 90
2
 70
0
 10
-184.198051
 20
79.122029
 30
0.0
 10
-184.259519
 20
78.656023
 30
0.0
  0
LWPOLYLINE
  5
11a
100
AcDbEntity
  8
Layer_1
 62
7
100
AcDbPolyline
 90
2
 70
0
 10
-184.259519
 20
79.588006
 30
0.0
 10
-184.198051
 20
79.122029
 30
0.0
  0
LWPOLYLINE
  5
11b
100
AcDbEntity
  8
Layer_1
 62
7
100
AcDbPolyline
 90
2
 70
0
 10
-184.439746
 20
80.022261
 30
0.0
 10
-184.259519
 20
79.588006
 30
0.0
  0
LWPOLYLINE
  5
11c
100
AcDbEntity
  8
Layer_1
 62
7
100
AcDbPolyline
 90
2
 70
0
 10
-184.726428
 20
80.395133
 30
0.0
 10
-184.439746
 20
80.022261
 30
0.0
  0
LWPOLYLINE
  5
11d
100
AcDbEntity
  8
Layer_1
 62
7
100
AcDbPolyline
 90
2
 70
0
 10
-185.100062
 20
80.681250
 30
0.0
 10
-184.726428
 20
80.395133
 30
0.0
  0
LWPOLYLINE
  5
11e
100
AcDbEntity
  8
Layer_1
 62
7
100
AcDbPolyline
 90
2
 70
0
 10
-185.535135
 20
80.861110
 30
0.0
 10
-185.100062
 20
80.681250
 30
0.0
  0
LWPOLYLINE
  5
11f
100
AcDbEntity
  8
Layer_1
 62
7
100
AcDbPolyline
 90
2
 70
0
 10
-186.002072
 20
80.922437
 30
0.0
 10
-185.535135
 20
80.861110
 30
0.0
  0
LWPOLYLINE
  5
120
100
AcDbEntity
  8
Layer_1
 62
7
100
AcDbPolyline
 90
2
 70
0
 10
-186.468980
 20
80.861110
 30
0.0
 10
-186.002072
 20
80.922437
 30
0.0
  0
LWPOLYLINE
  5
121
100
AcDbEntity
  8
Layer_1
 62
7
100
AcDbPolyline
 90
2
 70
0
 10
-186.904082
 20
80.681250
 30
0.0
 10
-186.468980
 20
80.861110
 30
0.0
  0
LWPOLYLINE
  5
122
100
AcDbEntity
  8
Layer_1
 62
7
100
AcDbPolyline
 90
2
 70
0
 10
-187.277716
 20
80.395133
 30
0.0
 10
-186.904082
 20
80.681250
 30
0.0
  0
LWPOLYLINE
  5
123
100
AcDbEntity
  8
Layer_1
 62
7
100
AcDbPolyline
 90
25
 70
0
 10
-231.912854
 20
110.796308
 30
0.0
 10
-231.732627
 20
110.362110
 30
0.0
 10
-231.445946
 20
109.989238
 30
0.0
 10
-231.072312
 20
109.703092
 30
0.0
 10
-230.637210
 20
109.523232
 30
0.0
 10
-230.170301
 20
109.461877
 30
0.0
 10
-229.703393
 20
109.523232
 30
0.0
 10
-229.268291
 20
109.703092
 30
0.0
 10
-228.894657
 20
109.989238
 30
0.0
 10
-228.607976
 20
110.362110
 30
0.0
 10
-228.427748
 20
110.796308
 30
0.0
 10
-228.366280
 20
111.262311
 30
0.0
 10
-228.427748
 20
111.728319
 30
0.0
 10
-228.607976
 20
112.162546
 30
0.0
 10
-228.894657
 20
112.535418
 30
0.0
 10
-229.268291
 20
112.821535
 30
0.0
 10
-229.703393
 20
113.001395
 30
0.0
 10
-230.170301
 20
113.062779
 30
0.0
 10
-230.637210
 20
113.001395
 30
0.0
 10
-231.072312
 20
112.821535
 30
0.0
 10
-231.445946
 20
112.535418
 30
0.0
 10
-231.732627
 20
112.162546
 30
0.0
 10
-231.912854
 20
111.728319
 30
0.0
 10
-231.974322
 20
111.262311
 30
0.0
 10
-231.912854
 20
110.796308
 30
0.0
  0
LWPOLYLINE
  5
124
100
AcDbEntity
  8
Layer_1
 62
7
100
AcDbPolyline
 90
25
 70
0
 10
-211.342015
 20
96.529467
 30
0.0
 10
-211.777117
 20
96.709327
 30
0.0
 10
-212.244026
 20
96.770654
 30
0.0
 10
-212.710934
 20
96.709327
 30
0.0
 10
-213.146036
 20
96.529467
 30
0.0
 10
-213.519670
 20
96.243322
 30
0.0
 10
-213.806351
 20
95.870450
 30
0.0
 10
-213.986578
 20
95.436223
 30
0.0
 10
-214.048046
 20
94.970243
 30
0.0
 10
-213.986578
 20
94.504240
 30
0.0
 10
-213.806351
 20
94.070013
 30
0.0
 10
-213.519670
 20
93.697141
 30
0.0
 10
-213.146036
 20
93.411024
 30
0.0
 10
-212.710934
 20
93.231136
 30
0.0
 10
-212.244026
 20
93.169781
 30
0.0
 10
-211.777117
 20
93.231136
 30
0.0
 10
-211.342015
 20
93.411024
 30
0.0
 10
-210.968381
 20
93.697141
 30
0.0
 10
-210.681700
 20
94.070013
 30
0.0
 10
-210.501473
 20
94.504240
 30
0.0
 10
-210.440005
 20
94.970243
 30
0.0
 10
-210.501473
 20
95.436223
 30
0.0
 10
-210.681700
 20
95.870450
 30
0.0
 10
-210.968381
 20
96.243322
 30
0.0
 10
-211.342015
 20
96.529467
 30
0.0
  0
LWPOLYLINE
  5
125
100
AcDbEntity
  8
Layer_1
 62
7
100
AcDbPolyline
 90
25
 70
0
 10
-231.940286
 20
123.863141
 30
0.0
 10
-230.973393
 20
123.463430
 30
0.0
 10
-229.935803
 20
123.327116
 30
0.0
 10
-228.898213
 20
123.463430
 30
0.0
 10
-227.931320
 20
123.863141
 30
0.0
 10
-227.101050
 20
124.498959
 30
0.0
 10
-226.463962
 20
125.327592
 30
0.0
 10
-226.063460
 20
126.292538
 30
0.0
 10
-225.926864
 20
127.328068
 30
0.0
 10
-226.063460
 20
128.363598
 30
0.0
 10
-226.463962
 20
129.328544
 30
0.0
 10
-227.101050
 20
130.157204
 30
0.0
 10
-227.931320
 20
130.792995
 30
0.0
 10
-228.898213
 20
131.192706
 30
0.0
 10
-229.935803
 20
131.329019
 30
0.0
 10
-230.973393
 20
131.192706
 30
0.0
 10
-231.940286
 20
130.792995
 30
0.0
 10
-232.770556
 20
130.157204
 30
0.0
 10
-233.407672
 20
129.328544
 30
0.0
 10
-233.808174
 20
128.363598
 30
0.0
 10
-233.944770
 20
127.328068
 30
0.0
 10
-233.808174
 20
126.292538
 30
0.0
 10
-233.407672
 20
125.327592
 30
0.0
 10
-232.770556
 20
124.498959
 30
0.0
 10
-231.940286
 20
123.863141
 30
0.0
  0
LWPOLYLINE
  5
126
100
AcDbEntity
  8
Layer_1
 62
5
100
AcDbPolyline
 90
5
 70
0
 10
130.002856
 20
114.695011
 30
0.0
 10
93.845391
 20
102.961537
 30
0.0
 10
93.845391
 20
98.260167
 30
0.0
 10
102.710753
 20
98.260167
 30
0.0
 10
102.710753
 20
91.558998
 30
0.0
  0
LWPOLYLINE
  5
127
100
AcDbEntity
  8
Layer_1
 62
5
100
AcDbPolyline
 90
2
 70
0
 10
130.002856
 20
114.695011
 30
0.0
 10
130.002856
 20
136.469641
 30
0.0
  0
LWPOLYLINE
  5
128
100
AcDbEntity
  8
Layer_1
 62
5
100
AcDbPolyline
 90
2
 70
0
 10
135.014050
 20
141.470844
 30
0.0
 10
130.002856
 20
136.469641
 30
0.0
  0
LWPOLYLINE
  5
129
100
AcDbEntity
  8
Layer_1
 62
5
100
AcDbPolyline
 90
2
 70
0
 10
135.014050
 20
141.470844
 30
0.0
 10
152.348280
 20
141.470844
 30
0.0
  0
LWPOLYLINE
  5
12a
100
AcDbEntity
  8
Layer_1
 62
5
100
AcDbPolyline
 90
2
 70
0
 10
157.359446
 20
136.469641
 30
0.0
 10
152.348280
 20
141.470844
 30
0.0
  0
LWPOLYLINE
  5
12b
100
AcDbEntity
  8
Layer_1
 62
5
100
AcDbPolyline
 90
2
 70
0
 10
157.359446
 20
98.260167
 30
0.0
 10
157.359446
 20
136.469641
 30
0.0
  0
LWPOLYLINE
  5
12c
100
AcDbEntity
  8
Layer_1
 62
5
100
AcDbPolyline
 90
2
 70
0
 10
157.359446
 20
91.558998
 30
0.0
 10
145.136656
 20
91.558998
 30
0.0
  0
LWPOLYLINE
  5
12d
100
AcDbEntity
  8
Layer_1
 62
5
100
AcDbPolyline
 90
2
 70
0
 10
157.359446
 20
86.857627
 30
0.0
 10
157.359446
 20
91.558998
 30
0.0
  0
LWPOLYLINE
  5
12e
100
AcDbEntity
  8
Layer_1
 62
5
100
AcDbPolyline
 90
2
 70
0
 10
145.136656
 20
98.260167
 30
0.0
 10
157.359446
 20
98.260167
 30
0.0
  0
LWPOLYLINE
  5
12f
100
AcDbEntity
  8
Layer_1
 62
5
100
AcDbPolyline
 90
2
 70
0
 10
145.136656
 20
91.558998
 30
0.0
 10
145.136656
 20
98.260167
 30
0.0
  0
LWPOLYLINE
  5
130
100
AcDbEntity
  8
Layer_1
 62
7
100
AcDbPolyline
 90
2
 70
0
 10
99.157180
 20
79.961612
 30
0.0
 10
98.870499
 20
80.334484
 30
0.0
  0
LWPOLYLINE
  5
131
100
AcDbEntity
  8
Layer_1
 62
7
100
AcDbPolyline
 90
2
 70
0
 10
99.337408
 20
79.527356
 30
0.0
 10
99.157180
 20
79.961612
 30
0.0
  0
LWPOLYLINE
  5
132
100
AcDbEntity
  8
Layer_1
 62
7
100
AcDbPolyline
 90
2
 70
0
 10
99.398876
 20
79.061379
 30
0.0
 10
99.337408
 20
79.527356
 30
0.0
  0
LWPOLYLINE
  5
133
100
AcDbEntity
  8
Layer_1
 62
7
100
AcDbPolyline
 90
2
 70
0
 10
99.337408
 20
78.595374
 30
0.0
 10
99.398876
 20
79.061379
 30
0.0
  0
LWPOLYLINE
  5
134
100
AcDbEntity
  8
Layer_1
 62
7
100
AcDbPolyline
 90
2
 70
0
 10
99.157180
 20
78.161144
 30
0.0
 10
99.337408
 20
78.595374
 30
0.0
  0
LWPOLYLINE
  5
135
100
AcDbEntity
  8
Layer_1
 62
7
100
AcDbPolyline
 90
2
 70
0
 10
98.870499
 20
77.788272
 30
0.0
 10
99.157180
 20
78.161144
 30
0.0
  0
LWPOLYLINE
  5
136
100
AcDbEntity
  8
Layer_1
 62
7
100
AcDbPolyline
 90
2
 70
0
 10
98.496865
 20
77.502158
 30
0.0
 10
98.870499
 20
77.788272
 30
0.0
  0
LWPOLYLINE
  5
137
100
AcDbEntity
  8
Layer_1
 62
7
100
AcDbPolyline
 90
2
 70
0
 10
98.061763
 20
77.322298
 30
0.0
 10
98.496865
 20
77.502158
 30
0.0
  0
LWPOLYLINE
  5
138
100
AcDbEntity
  8
Layer_1
 62
7
100
AcDbPolyline
 90
2
 70
0
 10
97.594855
 20
77.260914
 30
0.0
 10
98.061763
 20
77.322298
 30
0.0
  0
LWPOLYLINE
  5
139
100
AcDbEntity
  8
Layer_1
 62
7
100
AcDbPolyline
 90
2
 70
0
 10
97.127918
 20
77.322298
 30
0.0
 10
97.594855
 20
77.260914
 30
0.0
  0
LWPOLYLINE
  5
13a
100
AcDbEntity
  8
Layer_1
 62
7
100
AcDbPolyline
 90
2
 70
0
 10
96.692844
 20
77.502158
 30
0.0
 10
97.127918
 20
77.322298
 30
0.0
  0
LWPOLYLINE
  5
13b
100
AcDbEntity
  8
Layer_1
 62
7
100
AcDbPolyline
 90
2
 70
0
 10
96.319210
 20
77.788272
 30
0.0
 10
96.692844
 20
77.502158
 30
0.0
  0
LWPOLYLINE
  5
13c
100
AcDbEntity
  8
Layer_1
 62
7
100
AcDbPolyline
 90
2
 70
0
 10
96.032529
 20
78.161144
 30
0.0
 10
96.319210
 20
77.788272
 30
0.0
  0
LWPOLYLINE
  5
13d
100
AcDbEntity
  8
Layer_1
 62
7
100
AcDbPolyline
 90
2
 70
0
 10
95.852302
 20
78.595374
 30
0.0
 10
96.032529
 20
78.161144
 30
0.0
  0
LWPOLYLINE
  5
13e
100
AcDbEntity
  8
Layer_1
 62
7
100
AcDbPolyline
 90
2
 70
0
 10
95.790834
 20
79.061379
 30
0.0
 10
95.852302
 20
78.595374
 30
0.0
  0
LWPOLYLINE
  5
13f
100
AcDbEntity
  8
Layer_1
 62
7
100
AcDbPolyline
 90
2
 70
0
 10
95.852302
 20
79.527356
 30
0.0
 10
95.790834
 20
79.061379
 30
0.0
  0
LWPOLYLINE
  5
140
100
AcDbEntity
  8
Layer_1
 62
7
100
AcDbPolyline
 90
2
 70
0
 10
96.032529
 20
79.961612
 30
0.0
 10
95.852302
 20
79.527356
 30
0.0
  0
LWPOLYLINE
  5
141
100
AcDbEntity
  8
Layer_1
 62
7
100
AcDbPolyline
 90
2
 70
0
 10
96.319210
 20
80.334484
 30
0.0
 10
96.032529
 20
79.961612
 30
0.0
  0
LWPOLYLINE
  5
142
100
AcDbEntity
  8
Layer_1
 62
7
100
AcDbPolyline
 90
2
 70
0
 10
96.692844
 20
80.620600
 30
0.0
 10
96.319210
 20
80.334484
 30
0.0
  0
LWPOLYLINE
  5
143
100
AcDbEntity
  8
Layer_1
 62
7
100
AcDbPolyline
 90
2
 70
0
 10
97.127918
 20
80.800458
 30
0.0
 10
96.692844
 20
80.620600
 30
0.0
  0
LWPOLYLINE
  5
144
100
AcDbEntity
  8
Layer_1
 62
7
100
AcDbPolyline
 90
2
 70
0
 10
97.594855
 20
80.861788
 30
0.0
 10
97.127918
 20
80.800458
 30
0.0
  0
LWPOLYLINE
  5
145
100
AcDbEntity
  8
Layer_1
 62
7
100
AcDbPolyline
 90
2
 70
0
 10
98.061763
 20
80.800458
 30
0.0
 10
97.594855
 20
80.861788
 30
0.0
  0
LWPOLYLINE
  5
146
100
AcDbEntity
  8
Layer_1
 62
7
100
AcDbPolyline
 90
2
 70
0
 10
98.496865
 20
80.620600
 30
0.0
 10
98.061763
 20
80.800458
 30
0.0
  0
LWPOLYLINE
  5
147
100
AcDbEntity
  8
Layer_1
 62
7
100
AcDbPolyline
 90
2
 70
0
 10
98.870499
 20
80.334484
 30
0.0
 10
98.496865
 20
80.620600
 30
0.0
  0
LWPOLYLINE
  5
148
100
AcDbEntity
  8
Layer_1
 62
7
100
AcDbPolyline
 90
25
 70
0
 10
143.505637
 20
110.735659
 30
0.0
 10
143.325410
 20
110.301460
 30
0.0
 10
143.038728
 20
109.928588
 30
0.0
 10
142.665094
 20
109.642443
 30
0.0
 10
142.229992
 20
109.462583
 30
0.0
 10
141.763084
 20
109.401228
 30
0.0
 10
141.296176
 20
109.462583
 30
0.0
 10
140.861074
 20
109.642443
 30
0.0
 10
140.487440
 20
109.928588
 30
0.0
 10
140.200758
 20
110.301460
 30
0.0
 10
140.020531
 20
110.735659
 30
0.0
 10
139.959063
 20
111.201664
 30
0.0
 10
140.020531
 20
111.667670
 30
0.0
 10
140.200758
 20
112.101897
 30
0.0
 10
140.487440
 20
112.474766
 30
0.0
 10
140.861074
 20
112.760886
 30
0.0
 10
141.296176
 20
112.940746
 30
0.0
 10
141.763084
 20
113.002129
 30
0.0
 10
142.229992
 20
112.940746
 30
0.0
 10
142.665094
 20
112.760886
 30
0.0
 10
143.038728
 20
112.474766
 30
0.0
 10
143.325410
 20
112.101897
 30
0.0
 10
143.505637
 20
111.667670
 30
0.0
 10
143.567105
 20
111.201664
 30
0.0
 10
143.505637
 20
110.735659
 30
0.0
  0
LWPOLYLINE
  5
149
100
AcDbEntity
  8
Layer_1
 62
7
100
AcDbPolyline
 90
25
 70
0
 10
122.934798
 20
96.468818
 30
0.0
 10
123.369900
 20
96.648678
 30
0.0
 10
123.836808
 20
96.710005
 30
0.0
 10
124.303717
 20
96.648678
 30
0.0
 10
124.738819
 20
96.468818
 30
0.0
 10
125.112453
 20
96.182672
 30
0.0
 10
125.399134
 20
95.809800
 30
0.0
 10
125.579361
 20
95.375573
 30
0.0
 10
125.640829
 20
94.909596
 30
0.0
 10
125.579361
 20
94.443591
 30
0.0
 10
125.399134
 20
94.009364
 30
0.0
 10
125.112453
 20
93.636492
 30
0.0
 10
124.738819
 20
93.350375
 30
0.0
 10
124.303717
 20
93.170486
 30
0.0
 10
123.836808
 20
93.109131
 30
0.0
 10
123.369900
 20
93.170486
 30
0.0
 10
122.934798
 20
93.350375
 30
0.0
 10
122.561164
 20
93.636492
 30
0.0
 10
122.274482
 20
94.009364
 30
0.0
 10
122.094255
 20
94.443591
 30
0.0
 10
122.032787
 20
94.909596
 30
0.0
 10
122.094255
 20
95.375573
 30
0.0
 10
122.274482
 20
95.809800
 30
0.0
 10
122.561164
 20
96.182672
 30
0.0
 10
122.934798
 20
96.468818
 30
0.0
  0
LWPOLYLINE
  5
14a
100
AcDbEntity
  8
Layer_1
 62
7
100
AcDbPolyline
 90
25
 70
0
 10
143.533069
 20
123.802491
 30
0.0
 10
142.566176
 20
123.402780
 30
0.0
 10
141.528586
 20
123.266467
 30
0.0
 10
140.490996
 20
123.402780
 30
0.0
 10
139.524102
 20
123.802491
 30
0.0
 10
138.693833
 20
124.438310
 30
0.0
 10
138.056744
 20
125.266942
 30
0.0
 10
137.656243
 20
126.231888
 30
0.0
 10
137.519647
 20
127.267418
 30
0.0
 10
137.656243
 20
128.302948
 30
0.0
 10
138.056744
 20
129.267894
 30
0.0
 10
138.693833
 20
130.096555
 30
0.0
 10
139.524102
 20
130.732345
 30
0.0
 10
140.490996
 20
131.132056
 30
0.0
 10
141.528586
 20
131.268367
 30
0.0
 10
142.566176
 20
131.132056
 30
0.0
 10
143.533069
 20
130.732345
 30
0.0
 10
144.363338
 20
130.096555
 30
0.0
 10
145.000455
 20
129.267894
 30
0.0
 10
145.400957
 20
128.302948
 30
0.0
 10
145.537552
 20
127.267418
 30
0.0
 10
145.400957
 20
126.231888
 30
0.0
 10
145.000455
 20
125.266942
 30
0.0
 10
144.363338
 20
124.438310
 30
0.0
 10
143.533069
 20
123.802491
 30
0.0
  0
LWPOLYLINE
  5
14b
100
AcDbEntity
  8
Layer_1
 62
5
100
AcDbPolyline
 90
6
 70
0
 10
102.710753
 20
91.785043
 30
0.0
 10
-22.988568
 20
91.817468
 30
0.0
 10
-22.988568
 20
98.112996
 30
0.0
 10
-65.414471
 20
98.112996
 30
0.0
 10
-65.417294
 20
91.815636
 30
0.0
 10
-191.118479
 20
91.845693
 30
0.0
  0
LWPOLYLINE
  5
14c
100
AcDbEntity
  8
Layer_1
 62
7
100
AcDbPolyline
 90
2
 70
0
 10
-70.942640
 20
81.991946
 30
0.0
 10
-70.762808
 20
82.426089
 30
0.0
  0
LWPOLYLINE
  5
14d
100
AcDbEntity
  8
Layer_1
 62
7
100
AcDbPolyline
 90
2
 70
0
 10
-71.003967
 20
81.526082
 30
0.0
 10
-70.942640
 20
81.991946
 30
0.0
  0
LWPOLYLINE
  5
14e
100
AcDbEntity
  8
Layer_1
 62
7
100
AcDbPolyline
 90
2
 70
0
 10
-70.942640
 20
81.060218
 30
0.0
 10
-71.003967
 20
81.526082
 30
0.0
  0
LWPOLYLINE
  5
14f
100
AcDbEntity
  8
Layer_1
 62
7
100
AcDbPolyline
 90
2
 70
0
 10
-70.476748
 20
82.798876
 30
0.0
 10
-70.103960
 20
83.084934
 30
0.0
  0
LWPOLYLINE
  5
150
100
AcDbEntity
  8
Layer_1
 62
7
100
AcDbPolyline
 90
2
 70
0
 10
-70.762808
 20
82.426089
 30
0.0
 10
-70.476748
 20
82.798876
 30
0.0
  0
LWPOLYLINE
  5
151
100
AcDbEntity
  8
Layer_1
 62
7
100
AcDbPolyline
 90
2
 70
0
 10
-70.762808
 20
80.626076
 30
0.0
 10
-70.942640
 20
81.060218
 30
0.0
  0
LWPOLYLINE
  5
152
100
AcDbEntity
  8
Layer_1
 62
7
100
AcDbPolyline
 90
2
 70
0
 10
-70.476748
 20
80.253288
 30
0.0
 10
-70.762808
 20
80.626076
 30
0.0
  0
LWPOLYLINE
  5
153
100
AcDbEntity
  8
Layer_1
 62
7
100
AcDbPolyline
 90
2
 70
0
 10
-70.103960
 20
79.967228
 30
0.0
 10
-70.476748
 20
80.253288
 30
0.0
  0
LWPOLYLINE
  5
154
100
AcDbEntity
  8
Layer_1
 62
7
100
AcDbPolyline
 90
2
 70
0
 10
-69.669846
 20
79.787424
 30
0.0
 10
-70.103960
 20
79.967228
 30
0.0
  0
LWPOLYLINE
  5
155
100
AcDbEntity
  8
Layer_1
 62
7
100
AcDbPolyline
 90
2
 70
0
 10
-69.203982
 20
79.726097
 30
0.0
 10
-69.669846
 20
79.787424
 30
0.0
  0
LWPOLYLINE
  5
156
100
AcDbEntity
  8
Layer_1
 62
7
100
AcDbPolyline
 90
2
 70
0
 10
-68.738090
 20
79.787424
 30
0.0
 10
-69.203982
 20
79.726097
 30
0.0
  0
LWPOLYLINE
  5
157
100
AcDbEntity
  8
Layer_1
 62
7
100
AcDbPolyline
 90
2
 70
0
 10
-68.303975
 20
79.967228
 30
0.0
 10
-68.738090
 20
79.787424
 30
0.0
  0
LWPOLYLINE
  5
158
100
AcDbEntity
  8
Layer_1
 62
7
100
AcDbPolyline
 90
2
 70
0
 10
-67.931188
 20
80.253288
 30
0.0
 10
-68.303975
 20
79.967228
 30
0.0
  0
LWPOLYLINE
  5
159
100
AcDbEntity
  8
Layer_1
 62
7
100
AcDbPolyline
 90
2
 70
0
 10
-67.645128
 20
80.626076
 30
0.0
 10
-67.931188
 20
80.253288
 30
0.0
  0
LWPOLYLINE
  5
15a
100
AcDbEntity
  8
Layer_1
 62
7
100
AcDbPolyline
 90
2
 70
0
 10
-67.465296
 20
81.060218
 30
0.0
 10
-67.645128
 20
80.626076
 30
0.0
  0
LWPOLYLINE
  5
15b
100
AcDbEntity
  8
Layer_1
 62
7
100
AcDbPolyline
 90
2
 70
0
 10
-67.403969
 20
81.526082
 30
0.0
 10
-67.465296
 20
81.060218
 30
0.0
  0
LWPOLYLINE
  5
15c
100
AcDbEntity
  8
Layer_1
 62
7
100
AcDbPolyline
 90
2
 70
0
 10
-67.465296
 20
81.991946
 30
0.0
 10
-67.403969
 20
81.526082
 30
0.0
  0
LWPOLYLINE
  5
15d
100
AcDbEntity
  8
Layer_1
 62
7
100
AcDbPolyline
 90
2
 70
0
 10
-67.645128
 20
82.426089
 30
0.0
 10
-67.465296
 20
81.991946
 30
0.0
  0
LWPOLYLINE
  5
15e
100
AcDbEntity
  8
Layer_1
 62
7
100
AcDbPolyline
 90
2
 70
0
 10
-67.931188
 20
82.798876
 30
0.0
 10
-67.645128
 20
82.426089
 30
0.0
  0
LWPOLYLINE
  5
15f
100
AcDbEntity
  8
Layer_1
 62
7
100
AcDbPolyline
 90
2
 70
0
 10
-68.303975
 20
83.084934
 30
0.0
 10
-67.931188
 20
82.798876
 30
0.0
  0
LWPOLYLINE
  5
160
100
AcDbEntity
  8
Layer_1
 62
7
100
AcDbPolyline
 90
2
 70
0
 10
-68.738090
 20
83.264740
 30
0.0
 10
-68.303975
 20
83.084934
 30
0.0
  0
LWPOLYLINE
  5
161
100
AcDbEntity
  8
Layer_1
 62
7
100
AcDbPolyline
 90
2
 70
0
 10
-69.203982
 20
83.326096
 30
0.0
 10
-68.738090
 20
83.264740
 30
0.0
  0
LWPOLYLINE
  5
162
100
AcDbEntity
  8
Layer_1
 62
7
100
AcDbPolyline
 90
2
 70
0
 10
-69.669846
 20
83.264740
 30
0.0
 10
-69.203982
 20
83.326096
 30
0.0
  0
LWPOLYLINE
  5
163
100
AcDbEntity
  8
Layer_1
 62
7
100
AcDbPolyline
 90
2
 70
0
 10
-70.103960
 20
83.084934
 30
0.0
 10
-69.669846
 20
83.264740
 30
0.0
  0
LWPOLYLINE
  5
164
100
AcDbEntity
  8
Layer_1
 62
7
100
AcDbPolyline
 90
2
 70
0
 10
-228.608230
 20
82.798876
 30
0.0
 10
-228.322169
 20
82.426089
 30
0.0
  0
LWPOLYLINE
  5
165
100
AcDbEntity
  8
Layer_1
 62
7
100
AcDbPolyline
 90
2
 70
0
 10
-228.322169
 20
80.626076
 30
0.0
 10
-228.608230
 20
80.253288
 30
0.0
  0
LWPOLYLINE
  5
166
100
AcDbEntity
  8
Layer_1
 62
7
100
AcDbPolyline
 90
2
 70
0
 10
-228.142365
 20
81.060218
 30
0.0
 10
-228.322169
 20
80.626076
 30
0.0
  0
LWPOLYLINE
  5
167
100
AcDbEntity
  8
Layer_1
 62
7
100
AcDbPolyline
 90
2
 70
0
 10
-231.619682
 20
81.991946
 30
0.0
 10
-231.439878
 20
82.426089
 30
0.0
  0
LWPOLYLINE
  5
168
100
AcDbEntity
  8
Layer_1
 62
7
100
AcDbPolyline
 90
2
 70
0
 10
-231.681009
 20
81.526082
 30
0.0
 10
-231.619682
 20
81.991946
 30
0.0
  0
LWPOLYLINE
  5
169
100
AcDbEntity
  8
Layer_1
 62
7
100
AcDbPolyline
 90
2
 70
0
 10
-231.619682
 20
81.060218
 30
0.0
 10
-231.681009
 20
81.526082
 30
0.0
  0
LWPOLYLINE
  5
16a
100
AcDbEntity
  8
Layer_1
 62
7
100
AcDbPolyline
 90
2
 70
0
 10
-231.439878
 20
80.626076
 30
0.0
 10
-231.619682
 20
81.060218
 30
0.0
  0
LWPOLYLINE
  5
16b
100
AcDbEntity
  8
Layer_1
 62
7
100
AcDbPolyline
 90
2
 70
0
 10
-231.153818
 20
80.253288
 30
0.0
 10
-231.439878
 20
80.626076
 30
0.0
  0
LWPOLYLINE
  5
16c
100
AcDbEntity
  8
Layer_1
 62
7
100
AcDbPolyline
 90
2
 70
0
 10
-230.781030
 20
79.967228
 30
0.0
 10
-231.153818
 20
80.253288
 30
0.0
  0
LWPOLYLINE
  5
16d
100
AcDbEntity
  8
Layer_1
 62
7
100
AcDbPolyline
 90
2
 70
0
 10
-230.346888
 20
79.787424
 30
0.0
 10
-230.781030
 20
79.967228
 30
0.0
  0
LWPOLYLINE
  5
16e
100
AcDbEntity
  8
Layer_1
 62
7
100
AcDbPolyline
 90
2
 70
0
 10
-229.881024
 20
79.726097
 30
0.0
 10
-230.346888
 20
79.787424
 30
0.0
  0
LWPOLYLINE
  5
16f
100
AcDbEntity
  8
Layer_1
 62
7
100
AcDbPolyline
 90
2
 70
0
 10
-229.415159
 20
79.787424
 30
0.0
 10
-229.881024
 20
79.726097
 30
0.0
  0
LWPOLYLINE
  5
170
100
AcDbEntity
  8
Layer_1
 62
7
100
AcDbPolyline
 90
2
 70
0
 10
-228.981017
 20
79.967228
 30
0.0
 10
-229.415159
 20
79.787424
 30
0.0
  0
LWPOLYLINE
  5
171
100
AcDbEntity
  8
Layer_1
 62
7
100
AcDbPolyline
 90
2
 70
0
 10
-228.608230
 20
80.253288
 30
0.0
 10
-228.981017
 20
79.967228
 30
0.0
  0
LWPOLYLINE
  5
172
100
AcDbEntity
  8
Layer_1
 62
7
100
AcDbPolyline
 90
2
 70
0
 10
-228.081010
 20
81.526082
 30
0.0
 10
-228.142365
 20
81.060218
 30
0.0
  0
LWPOLYLINE
  5
173
100
AcDbEntity
  8
Layer_1
 62
7
100
AcDbPolyline
 90
2
 70
0
 10
-228.142365
 20
81.991946
 30
0.0
 10
-228.081010
 20
81.526082
 30
0.0
  0
LWPOLYLINE
  5
174
100
AcDbEntity
  8
Layer_1
 62
7
100
AcDbPolyline
 90
2
 70
0
 10
-228.322169
 20
82.426089
 30
0.0
 10
-228.142365
 20
81.991946
 30
0.0
  0
LWPOLYLINE
  5
175
100
AcDbEntity
  8
Layer_1
 62
7
100
AcDbPolyline
 90
2
 70
0
 10
-228.981017
 20
83.084934
 30
0.0
 10
-228.608230
 20
82.798876
 30
0.0
  0
LWPOLYLINE
  5
176
100
AcDbEntity
  8
Layer_1
 62
7
100
AcDbPolyline
 90
2
 70
0
 10
-229.415159
 20
83.264740
 30
0.0
 10
-228.981017
 20
83.084934
 30
0.0
  0
LWPOLYLINE
  5
177
100
AcDbEntity
  8
Layer_1
 62
7
100
AcDbPolyline
 90
2
 70
0
 10
-231.153818
 20
82.798876
 30
0.0
 10
-230.781030
 20
83.084934
 30
0.0
  0
LWPOLYLINE
  5
178
100
AcDbEntity
  8
Layer_1
 62
7
100
AcDbPolyline
 90
2
 70
0
 10
-231.439878
 20
82.426089
 30
0.0
 10
-231.153818
 20
82.798876
 30
0.0
  0
LWPOLYLINE
  5
179
100
AcDbEntity
  8
Layer_1
 62
7
100
AcDbPolyline
 90
2
 70
0
 10
-229.881024
 20
83.326096
 30
0.0
 10
-229.415159
 20
83.264740
 30
0.0
  0
LWPOLYLINE
  5
17a
100
AcDbEntity
  8
Layer_1
 62
7
100
AcDbPolyline
 90
2
 70
0
 10
-230.346888
 20
83.264740
 30
0.0
 10
-229.881024
 20
83.326096
 30
0.0
  0
LWPOLYLINE
  5
17b
100
AcDbEntity
  8
Layer_1
 62
7
100
AcDbPolyline
 90
2
 70
0
 10
-230.781030
 20
83.084934
 30
0.0
 10
-230.346888
 20
83.264740
 30
0.0
  0
LWPOLYLINE
  5
17c
100
AcDbEntity
  8
Layer_1
 62
7
100
AcDbPolyline
 90
2
 70
0
 10
-117.396204
 20
297.110264
 30
0.0
 10
-117.430381
 20
296.588125
 30
0.0
  0
LWPOLYLINE
  5
17d
100
AcDbEntity
  8
Layer_1
 62
7
100
AcDbPolyline
 90
2
 70
0
 10
-114.471591
 20
300.451860
 30
0.0
 10
-114.966044
 20
300.283656
 30
0.0
  0
LWPOLYLINE
  5
17e
100
AcDbEntity
  8
Layer_1
 62
7
100
AcDbPolyline
 90
2
 70
0
 10
-115.434364
 20
291.124105
 30
0.0
 10
-114.966044
 20
290.892655
 30
0.0
  0
LWPOLYLINE
  5
17f
100
AcDbEntity
  8
Layer_1
 62
7
100
AcDbPolyline
 90
2
 70
0
 10
-115.868535
 20
291.414794
 30
0.0
 10
-115.434364
 20
291.124105
 30
0.0
  0
LWPOLYLINE
  5
180
100
AcDbEntity
  8
Layer_1
 62
7
100
AcDbPolyline
 90
3
 70
0
 10
-87.661552
 20
299.416556
 30
0.0
 10
-88.054152
 20
299.761573
 30
0.0
 10
-88.488351
 20
300.052205
 30
0.0
  0
LWPOLYLINE
  5
181
100
AcDbEntity
  8
Layer_1
 62
7
100
AcDbPolyline
 90
2
 70
0
 10
-117.294350
 20
297.623429
 30
0.0
 10
-117.396204
 20
297.110264
 30
0.0
  0
LWPOLYLINE
  5
182
100
AcDbEntity
  8
Layer_1
 62
7
100
AcDbPolyline
 90
2
 70
0
 10
-117.430381
 20
294.588214
 30
0.0
 10
-117.396204
 20
294.066018
 30
0.0
  0
LWPOLYLINE
  5
183
100
AcDbEntity
  8
Layer_1
 62
7
100
AcDbPolyline
 90
2
 70
0
 10
-86.628365
 20
297.623429
 30
0.0
 10
-86.796203
 20
298.118898
 30
0.0
  0
LWPOLYLINE
  5
184
100
AcDbEntity
  8
Layer_1
 62
7
100
AcDbPolyline
 90
3
 70
0
 10
-87.661552
 20
291.759754
 30
0.0
 10
-87.317270
 20
292.153144
 30
0.0
 10
-87.027173
 20
292.588161
 30
0.0
  0
LWPOLYLINE
  5
185
100
AcDbEntity
  8
Layer_1
 62
7
100
AcDbPolyline
 90
2
 70
0
 10
-114.471591
 20
290.724507
 30
0.0
 10
-113.959414
 20
290.622427
 30
0.0
  0
LWPOLYLINE
  5
186
100
AcDbEntity
  8
Layer_1
 62
7
100
AcDbPolyline
 90
2
 70
0
 10
-114.966044
 20
290.892655
 30
0.0
 10
-114.471591
 20
290.724507
 30
0.0
  0
LWPOLYLINE
  5
187
100
AcDbEntity
  8
Layer_1
 62
7
100
AcDbPolyline
 90
2
 70
0
 10
-117.294350
 20
293.552910
 30
0.0
 10
-117.126484
 20
293.057440
 30
0.0
  0
LWPOLYLINE
  5
188
100
AcDbEntity
  8
Layer_1
 62
7
100
AcDbPolyline
 90
2
 70
0
 10
-116.605420
 20
292.153144
 30
0.0
 10
-116.261134
 20
291.759754
 30
0.0
  0
LWPOLYLINE
  5
189
100
AcDbEntity
  8
Layer_1
 62
7
100
AcDbPolyline
 90
2
 70
0
 10
-116.895541
 20
292.588161
 30
0.0
 10
-116.605420
 20
292.153144
 30
0.0
  0
LWPOLYLINE
  5
18a
100
AcDbEntity
  8
Layer_1
 62
7
100
AcDbPolyline
 90
2
 70
0
 10
-117.126484
 20
293.057440
 30
0.0
 10
-116.895541
 20
292.588161
 30
0.0
  0
LWPOLYLINE
  5
18b
100
AcDbEntity
  8
Layer_1
 62
7
100
AcDbPolyline
 90
2
 70
0
 10
-88.488351
 20
300.052205
 30
0.0
 10
-88.956670
 20
300.283656
 30
0.0
  0
LWPOLYLINE
  5
18c
100
AcDbEntity
  8
Layer_1
 62
7
100
AcDbPolyline
 90
2
 70
0
 10
-90.484339
 20
290.588193
 30
0.0
 10
-113.438376
 20
290.588193
 30
0.0
  0
LWPOLYLINE
  5
18d
100
AcDbEntity
  8
Layer_1
 62
7
100
AcDbPolyline
 90
2
 70
0
 10
-115.868535
 20
299.761573
 30
0.0
 10
-116.261134
 20
299.416556
 30
0.0
  0
LWPOLYLINE
  5
18e
100
AcDbEntity
  8
Layer_1
 62
7
100
AcDbPolyline
 90
2
 70
0
 10
-88.054152
 20
291.414794
 30
0.0
 10
-87.661552
 20
291.759754
 30
0.0
  0
LWPOLYLINE
  5
18f
100
AcDbEntity
  8
Layer_1
 62
7
100
AcDbPolyline
 90
2
 70
0
 10
-115.434364
 20
300.052205
 30
0.0
 10
-115.868535
 20
299.761573
 30
0.0
  0
LWPOLYLINE
  5
190
100
AcDbEntity
  8
Layer_1
 62
7
100
AcDbPolyline
 90
2
 70
0
 10
-114.966044
 20
300.283656
 30
0.0
 10
-115.434364
 20
300.052205
 30
0.0
  0
LWPOLYLINE
  5
191
100
AcDbEntity
  8
Layer_1
 62
7
100
AcDbPolyline
 90
2
 70
0
 10
-88.488351
 20
291.124105
 30
0.0
 10
-88.054152
 20
291.414794
 30
0.0
  0
LWPOLYLINE
  5
192
100
AcDbEntity
  8
Layer_1
 62
7
100
AcDbPolyline
 90
2
 70
0
 10
-88.956670
 20
290.892655
 30
0.0
 10
-88.488351
 20
291.124105
 30
0.0
  0
LWPOLYLINE
  5
193
100
AcDbEntity
  8
Layer_1
 62
7
100
AcDbPolyline
 90
4
 70
0
 10
-90.484339
 20
290.588193
 30
0.0
 10
-89.963300
 20
290.622427
 30
0.0
 10
-89.451124
 20
290.724507
 30
0.0
 10
-88.956670
 20
290.892655
 30
0.0
  0
LWPOLYLINE
  5
194
100
AcDbEntity
  8
Layer_1
 62
7
100
AcDbPolyline
 90
2
 70
0
 10
-113.959414
 20
300.553883
 30
0.0
 10
-114.471566
 20
300.451860
 30
0.0
  0
LWPOLYLINE
  5
195
100
AcDbEntity
  8
Layer_1
 62
7
100
AcDbPolyline
 90
2
 70
0
 10
-113.438376
 20
300.588145
 30
0.0
 10
-113.959414
 20
300.553883
 30
0.0
  0
LWPOLYLINE
  5
196
100
AcDbEntity
  8
Layer_1
 62
7
100
AcDbPolyline
 90
2
 70
0
 10
-113.438376
 20
300.588145
 30
0.0
 10
-90.484339
 20
300.588145
 30
0.0
  0
LWPOLYLINE
  5
197
100
AcDbEntity
  8
Layer_1
 62
7
100
AcDbPolyline
 90
2
 70
0
 10
-86.526483
 20
297.110264
 30
0.0
 10
-86.628365
 20
297.623429
 30
0.0
  0
LWPOLYLINE
  5
198
100
AcDbEntity
  8
Layer_1
 62
7
100
AcDbPolyline
 90
2
 70
0
 10
-86.492334
 20
296.588125
 30
0.0
 10
-86.526483
 20
297.110264
 30
0.0
  0
LWPOLYLINE
  5
199
100
AcDbEntity
  8
Layer_1
 62
7
100
AcDbPolyline
 90
2
 70
0
 10
-117.430381
 20
294.588214
 30
0.0
 10
-117.430381
 20
296.588125
 30
0.0
  0
LWPOLYLINE
  5
19a
100
AcDbEntity
  8
Layer_1
 62
7
100
AcDbPolyline
 90
3
 70
0
 10
-116.261134
 20
299.416556
 30
0.0
 10
-116.605420
 20
299.023166
 30
0.0
 10
-116.895541
 20
298.588149
 30
0.0
  0
LWPOLYLINE
  5
19b
100
AcDbEntity
  8
Layer_1
 62
7
100
AcDbPolyline
 90
2
 70
0
 10
-86.492334
 20
296.588125
 30
0.0
 10
-86.492334
 20
294.588214
 30
0.0
  0
LWPOLYLINE
  5
19c
100
AcDbEntity
  8
Layer_1
 62
7
100
AcDbPolyline
 90
2
 70
0
 10
-89.963300
 20
300.553883
 30
0.0
 10
-90.484339
 20
300.588145
 30
0.0
  0
LWPOLYLINE
  5
19d
100
AcDbEntity
  8
Layer_1
 62
7
100
AcDbPolyline
 90
2
 70
0
 10
-89.451124
 20
300.451860
 30
0.0
 10
-89.963300
 20
300.553883
 30
0.0
  0
LWPOLYLINE
  5
19e
100
AcDbEntity
  8
Layer_1
 62
7
100
AcDbPolyline
 90
2
 70
0
 10
-88.956670
 20
300.283656
 30
0.0
 10
-89.451124
 20
300.451860
 30
0.0
  0
LWPOLYLINE
  5
19f
100
AcDbEntity
  8
Layer_1
 62
7
100
AcDbPolyline
 90
2
 70
0
 10
-87.027173
 20
292.588161
 30
0.0
 10
-86.796203
 20
293.057440
 30
0.0
  0
LWPOLYLINE
  5
1a0
100
AcDbEntity
  8
Layer_1
 62
7
100
AcDbPolyline
 90
3
 70
0
 10
-116.895541
 20
298.588149
 30
0.0
 10
-117.126484
 20
298.118898
 30
0.0
 10
-117.294350
 20
297.623429
 30
0.0
  0
LWPOLYLINE
  5
1a1
100
AcDbEntity
  8
Layer_1
 62
7
100
AcDbPolyline
 90
2
 70
0
 10
-117.396204
 20
294.066018
 30
0.0
 10
-117.294350
 20
293.552910
 30
0.0
  0
LWPOLYLINE
  5
1a2
100
AcDbEntity
  8
Layer_1
 62
7
100
AcDbPolyline
 90
2
 70
0
 10
-113.959414
 20
290.622427
 30
0.0
 10
-113.438376
 20
290.588193
 30
0.0
  0
LWPOLYLINE
  5
1a3
100
AcDbEntity
  8
Layer_1
 62
7
100
AcDbPolyline
 90
2
 70
0
 10
-86.526483
 20
294.066018
 30
0.0
 10
-86.492334
 20
294.588214
 30
0.0
  0
LWPOLYLINE
  5
1a4
100
AcDbEntity
  8
Layer_1
 62
7
100
AcDbPolyline
 90
2
 70
0
 10
-86.628365
 20
293.552910
 30
0.0
 10
-86.526483
 20
294.066018
 30
0.0
  0
LWPOLYLINE
  5
1a5
100
AcDbEntity
  8
Layer_1
 62
7
100
AcDbPolyline
 90
2
 70
0
 10
-86.796203
 20
293.057440
 30
0.0
 10
-86.628365
 20
293.552910
 30
0.0
  0
LWPOLYLINE
  5
1a6
100
AcDbEntity
  8
Layer_1
 62
7
100
AcDbPolyline
 90
2
 70
0
 10
-116.261134
 20
291.759754
 30
0.0
 10
-115.868535
 20
291.414794
 30
0.0
  0
LWPOLYLINE
  5
1a7
100
AcDbEntity
  8
Layer_1
 62
7
100
AcDbPolyline
 90
3
 70
0
 10
-87.027173
 20
298.588149
 30
0.0
 10
-87.317270
 20
299.023166
 30
0.0
 10
-87.661552
 20
299.416556
 30
0.0
  0
LWPOLYLINE
  5
1a8
100
AcDbEntity
  8
Layer_1
 62
7
100
AcDbPolyline
 90
2
 70
0
 10
-86.796203
 20
298.118898
 30
0.0
 10
-87.027173
 20
298.588149
 30
0.0
  0
LWPOLYLINE
  5
1a9
100
AcDbEntity
  8
Layer_1
 62
7
100
AcDbPolyline
 90
8
 70
0
 10
-53.522091
 20
129.024522
 30
0.0
 10
-53.866374
 20
129.417912
 30
0.0
 10
-54.258973
 20
129.762900
 30
0.0
 10
-54.693144
 20
130.053589
 30
0.0
 10
-55.161491
 20
130.284983
 30
0.0
 10
-55.655945
 20
130.453188
 30
0.0
 10
-56.168065
 20
130.555268
 30
0.0
 10
-56.689160
 20
130.589473
 30
0.0
  0
LWPOLYLINE
  5
1aa
100
AcDbEntity
  8
Layer_1
 62
7
100
AcDbPolyline
 90
2
 70
0
 10
-79.643168
 20
130.589473
 30
0.0
 10
-56.689160
 20
130.589473
 30
0.0
  0
LWPOLYLINE
  5
1ab
100
AcDbEntity
  8
Layer_1
 62
7
100
AcDbPolyline
 90
13
 70
0
 10
-79.643168
 20
130.589473
 30
0.0
 10
-80.164234
 20
130.555268
 30
0.0
 10
-80.676383
 20
130.453188
 30
0.0
 10
-81.170836
 20
130.284983
 30
0.0
 10
-81.639156
 20
130.053589
 30
0.0
 10
-82.073355
 20
129.762872
 30
0.0
 10
-82.465926
 20
129.417884
 30
0.0
 10
-82.810237
 20
129.024494
 30
0.0
 10
-83.100333
 20
128.589505
 30
0.0
 10
-83.331304
 20
128.120226
 30
0.0
 10
-83.499142
 20
127.624785
 30
0.0
 10
-83.601024
 20
127.111592
 30
0.0
 10
-83.635201
 20
126.589509
 30
0.0
  0
LWPOLYLINE
  5
1ac
100
AcDbEntity
  8
Layer_1
 62
7
100
AcDbPolyline
 90
2
 70
0
 10
-83.635173
 20
124.589485
 30
0.0
 10
-83.635173
 20
126.589509
 30
0.0
  0
LWPOLYLINE
  5
1ad
100
AcDbEntity
  8
Layer_1
 62
7
100
AcDbPolyline
 90
13
 70
0
 10
-83.635173
 20
124.589485
 30
0.0
 10
-83.601024
 20
124.067430
 30
0.0
 10
-83.499142
 20
123.554237
 30
0.0
 10
-83.331304
 20
123.058768
 30
0.0
 10
-83.100333
 20
122.589545
 30
0.0
 10
-82.810237
 20
122.154472
 30
0.0
 10
-82.465926
 20
121.761082
 30
0.0
 10
-82.073355
 20
121.416122
 30
0.0
 10
-81.639156
 20
121.125405
 30
0.0
 10
-81.170836
 20
120.894011
 30
0.0
 10
-80.676383
 20
120.725863
 30
0.0
 10
-80.164234
 20
120.623783
 30
0.0
 10
-79.643168
 20
120.589549
 30
0.0
  0
LWPOLYLINE
  5
1ae
100
AcDbEntity
  8
Layer_1
 62
7
100
AcDbPolyline
 90
2
 70
0
 10
-56.689160
 20
120.589549
 30
0.0
 10
-79.643168
 20
120.589549
 30
0.0
  0
LWPOLYLINE
  5
1af
100
AcDbEntity
  8
Layer_1
 62
7
100
AcDbPolyline
 90
13
 70
0
 10
-56.689160
 20
120.589549
 30
0.0
 10
-56.168065
 20
120.623783
 30
0.0
 10
-55.655945
 20
120.725863
 30
0.0
 10
-55.161491
 20
120.894011
 30
0.0
 10
-54.693144
 20
121.125433
 30
0.0
 10
-54.258973
 20
121.416150
 30
0.0
 10
-53.866374
 20
121.761110
 30
0.0
 10
-53.522091
 20
122.154500
 30
0.0
 10
-53.231966
 20
122.589545
 30
0.0
 10
-53.001024
 20
123.058768
 30
0.0
 10
-52.833158
 20
123.554266
 30
0.0
 10
-52.731304
 20
124.067430
 30
0.0
 10
-52.697127
 20
124.589513
 30
0.0
  0
LWPOLYLINE
  5
1b0
100
AcDbEntity
  8
Layer_1
 62
7
100
AcDbPolyline
 90
2
 70
0
 10
-52.697127
 20
126.589509
 30
0.0
 10
-52.697127
 20
124.589485
 30
0.0
  0
LWPOLYLINE
  5
1b1
100
AcDbEntity
  8
Layer_1
 62
7
100
AcDbPolyline
 90
4
 70
0
 10
-52.697127
 20
126.589509
 30
0.0
 10
-52.731304
 20
127.111592
 30
0.0
 10
-52.833158
 20
127.624785
 30
0.0
 10
-53.001024
 20
128.120226
 30
0.0
  0
LWPOLYLINE
  5
1b2
100
AcDbEntity
  8
Layer_1
 62
7
100
AcDbPolyline
 90
2
 70
0
 10
-53.231966
 20
128.589449
 30
0.0
 10
-53.522091
 20
129.024522
 30
0.0
  0
LWPOLYLINE
  5
1b3
100
AcDbEntity
  8
Layer_1
 62
7
100
AcDbPolyline
 90
2
 70
0
 10
-53.001024
 20
128.120226
 30
0.0
 10
-53.231966
 20
128.589449
 30
0.0
  0
LWPOLYLINE
  5
1b4
100
AcDbEntity
  8
Layer_1
 62
7
100
AcDbPolyline
 90
2
 70
0
 10
-18.621221
 20
291.124105
 30
0.0
 10
-18.187050
 20
291.414794
 30
0.0
  0
LWPOLYLINE
  5
1b5
100
AcDbEntity
  8
Layer_1
 62
7
100
AcDbPolyline
 90
7
 70
0
 10
-17.794451
 20
291.759754
 30
0.0
 10
-17.450168
 20
292.153144
 30
0.0
 10
-17.160043
 20
292.588161
 30
0.0
 10
-16.929129
 20
293.057440
 30
0.0
 10
-16.761235
 20
293.552910
 30
0.0
 10
-16.659381
 20
294.066018
 30
0.0
 10
-16.625232
 20
294.588214
 30
0.0
  0
LWPOLYLINE
  5
1b6
100
AcDbEntity
  8
Layer_1
 62
7
100
AcDbPolyline
 90
2
 70
0
 10
-16.625232
 20
296.588125
 30
0.0
 10
-16.625232
 20
294.588214
 30
0.0
  0
LWPOLYLINE
  5
1b7
100
AcDbEntity
  8
Layer_1
 62
7
100
AcDbPolyline
 90
13
 70
0
 10
-16.625232
 20
296.588125
 30
0.0
 10
-16.659381
 20
297.110264
 30
0.0
 10
-16.761235
 20
297.623429
 30
0.0
 10
-16.929129
 20
298.118898
 30
0.0
 10
-17.160043
 20
298.588149
 30
0.0
 10
-17.450168
 20
299.023166
 30
0.0
 10
-17.794451
 20
299.416556
 30
0.0
 10
-18.187050
 20
299.761573
 30
0.0
 10
-18.621221
 20
300.052205
 30
0.0
 10
-19.089568
 20
300.283656
 30
0.0
 10
-19.584050
 20
300.451860
 30
0.0
 10
-20.096170
 20
300.553883
 30
0.0
 10
-20.617266
 20
300.588145
 30
0.0
  0
LWPOLYLINE
  5
1b8
100
AcDbEntity
  8
Layer_1
 62
7
100
AcDbPolyline
 90
2
 70
0
 10
-43.571246
 20
300.588145
 30
0.0
 10
-20.617266
 20
300.588145
 30
0.0
  0
LWPOLYLINE
  5
1b9
100
AcDbEntity
  8
Layer_1
 62
7
100
AcDbPolyline
 90
13
 70
0
 10
-43.571246
 20
300.588145
 30
0.0
 10
-44.092312
 20
300.553883
 30
0.0
 10
-44.604461
 20
300.451860
 30
0.0
 10
-45.098943
 20
300.283656
 30
0.0
 10
-45.567262
 20
300.052205
 30
0.0
 10
-46.001433
 20
299.761573
 30
0.0
 10
-46.394032
 20
299.416556
 30
0.0
 10
-46.738343
 20
299.023166
 30
0.0
 10
-47.028440
 20
298.588149
 30
0.0
 10
-47.259382
 20
298.118898
 30
0.0
 10
-47.427220
 20
297.623429
 30
0.0
 10
-47.529130
 20
297.110264
 30
0.0
 10
-47.563251
 20
296.588125
 30
0.0
  0
LWPOLYLINE
  5
1ba
100
AcDbEntity
  8
Layer_1
 62
7
100
AcDbPolyline
 90
2
 70
0
 10
-47.563251
 20
294.588214
 30
0.0
 10
-47.563251
 20
296.588125
 30
0.0
  0
LWPOLYLINE
  5
1bb
100
AcDbEntity
  8
Layer_1
 62
7
100
AcDbPolyline
 90
13
 70
0
 10
-47.563251
 20
294.588214
 30
0.0
 10
-47.529130
 20
294.066018
 30
0.0
 10
-47.427220
 20
293.552910
 30
0.0
 10
-47.259382
 20
293.057440
 30
0.0
 10
-47.028440
 20
292.588161
 30
0.0
 10
-46.738343
 20
292.153144
 30
0.0
 10
-46.394032
 20
291.759754
 30
0.0
 10
-46.001433
 20
291.414794
 30
0.0
 10
-45.567262
 20
291.124105
 30
0.0
 10
-45.098943
 20
290.892683
 30
0.0
 10
-44.604461
 20
290.724507
 30
0.0
 10
-44.092312
 20
290.622427
 30
0.0
 10
-43.571246
 20
290.588193
 30
0.0
  0
LWPOLYLINE
  5
1bc
100
AcDbEntity
  8
Layer_1
 62
7
100
AcDbPolyline
 90
2
 70
0
 10
-20.617266
 20
290.588193
 30
0.0
 10
-43.571246
 20
290.588193
 30
0.0
  0
LWPOLYLINE
  5
1bd
100
AcDbEntity
  8
Layer_1
 62
7
100
AcDbPolyline
 90
3
 70
0
 10
-20.617266
 20
290.588193
 30
0.0
 10
-20.096170
 20
290.622427
 30
0.0
 10
-19.584050
 20
290.724507
 30
0.0
  0
LWPOLYLINE
  5
1be
100
AcDbEntity
  8
Layer_1
 62
7
100
AcDbPolyline
 90
2
 70
0
 10
-18.187050
 20
291.414794
 30
0.0
 10
-17.794451
 20
291.759754
 30
0.0
  0
LWPOLYLINE
  5
1bf
100
AcDbEntity
  8
Layer_1
 62
7
100
AcDbPolyline
 90
2
 70
0
 10
-19.089568
 20
290.892655
 30
0.0
 10
-18.621221
 20
291.124105
 30
0.0
  0
LWPOLYLINE
  5
1c0
100
AcDbEntity
  8
Layer_1
 62
7
100
AcDbPolyline
 90
2
 70
0
 10
-19.584050
 20
290.724507
 30
0.0
 10
-19.089568
 20
290.892655
 30
0.0
  0
LWPOLYLINE
  5
1c1
100
AcDbEntity
  8
Layer_1
 62
6
100
AcDbPolyline
 90
2
 70
0
 10
2.329773
 20
268.588407
 30
0.0
 10
-32.600280
 20
233.588674
 30
0.0
  0
LWPOLYLINE
  5
1c2
100
AcDbEntity
  8
Layer_1
 62
6
100
AcDbPolyline
 90
5
 70
0
 10
2.329773
 20
268.588407
 30
0.0
 10
2.329773
 20
192.669923
 30
0.0
 10
-11.543151
 20
177.620677
 30
0.0
 10
-32.600280
 20
177.625193
 30
0.0
 10
-32.600280
 20
233.588590
 30
0.0
  0
LWPOLYLINE
  5
1c3
100
AcDbEntity
  8
Layer_1
 62
7
100
AcDbPolyline
 90
25
 70
0
 10
-170.096575
 20
105.613399
 30
0.0
 10
-170.035361
 20
106.079291
 30
0.0
 10
-170.096575
 20
106.545156
 30
0.0
 10
-170.276068
 20
106.979270
 30
0.0
 10
-170.561536
 20
107.352029
 30
0.0
 10
-170.933590
 20
107.638118
 30
0.0
 10
-171.366829
 20
107.817950
 30
0.0
 10
-171.831790
 20
107.879276
 30
0.0
 10
-172.296723
 20
107.817950
 30
0.0
 10
-172.729991
 20
107.638118
 30
0.0
 10
-173.102016
 20
107.352029
 30
0.0
 10
-173.387512
 20
106.979270
 30
0.0
 10
-173.566977
 20
106.545156
 30
0.0
 10
-173.628191
 20
106.079291
 30
0.0
 10
-173.566977
 20
105.613399
 30
0.0
 10
-173.387512
 20
105.179313
 30
0.0
 10
-173.102016
 20
104.806497
 30
0.0
 10
-172.729991
 20
104.520465
 30
0.0
 10
-172.296723
 20
104.340605
 30
0.0
 10
-171.831790
 20
104.279306
 30
0.0
 10
-171.366829
 20
104.340605
 30
0.0
 10
-170.933590
 20
104.520465
 30
0.0
 10
-170.561536
 20
104.806497
 30
0.0
 10
-170.276068
 20
105.179313
 30
0.0
 10
-170.096575
 20
105.613399
 30
0.0
  0
LWPOLYLINE
  5
1c4
100
AcDbEntity
  8
Layer_1
 62
7
100
AcDbPolyline
 90
25
 70
0
 10
-173.540928
 20
315.583656
 30
0.0
 10
-173.607335
 20
315.118469
 30
0.0
 10
-173.551342
 20
314.652012
 30
0.0
 10
-173.376731
 20
314.215838
 30
0.0
 10
-173.095440
 20
313.839890
 30
0.0
 10
-172.726604
 20
313.549709
 30
0.0
 10
-172.295368
 20
313.365051
 30
0.0
 10
-171.831141
 20
313.298503
 30
0.0
 10
-171.365559
 20
313.354637
 30
0.0
 10
-170.930288
 20
313.529614
 30
0.0
 10
-170.555073
 20
313.811470
 30
0.0
 10
-170.265457
 20
314.181012
 30
0.0
 10
-170.081194
 20
314.613122
 30
0.0
 10
-170.014759
 20
315.078252
 30
0.0
 10
-170.070780
 20
315.544794
 30
0.0
 10
-170.245391
 20
315.980940
 30
0.0
 10
-170.526710
 20
316.356888
 30
0.0
 10
-170.895518
 20
316.647098
 30
0.0
 10
-171.326754
 20
316.831671
 30
0.0
 10
-171.790981
 20
316.898275
 30
0.0
 10
-172.256563
 20
316.842141
 30
0.0
 10
-172.691806
 20
316.667192
 30
0.0
 10
-173.067020
 20
316.385308
 30
0.0
 10
-173.356665
 20
316.015766
 30
0.0
 10
-173.540928
 20
315.583656
 30
0.0
  0
LWPOLYLINE
  5
1c5
100
AcDbEntity
  8
Layer_1
 62
7
100
AcDbPolyline
 90
25
 70
0
 10
-66.614774
 20
107.627958
 30
0.0
 10
-67.045981
 20
107.812616
 30
0.0
 10
-67.510208
 20
107.879164
 30
0.0
 10
-67.975819
 20
107.823030
 30
0.0
 10
-68.411062
 20
107.648080
 30
0.0
 10
-68.786276
 20
107.366225
 30
0.0
 10
-69.075893
 20
106.996655
 30
0.0
 10
-69.260212
 20
106.564572
 30
0.0
 10
-69.326591
 20
106.099414
 30
0.0
 10
-69.270598
 20
105.632900
 30
0.0
 10
-69.095987
 20
105.196782
 30
0.0
 10
-68.814668
 20
104.820834
 30
0.0
 10
-68.445832
 20
104.530625
 30
0.0
 10
-68.014624
 20
104.345967
 30
0.0
 10
-67.550397
 20
104.279419
 30
0.0
 10
-67.084787
 20
104.335525
 30
0.0
 10
-66.649572
 20
104.510474
 30
0.0
 10
-66.274357
 20
104.792358
 30
0.0
 10
-65.984713
 20
105.161928
 30
0.0
 10
-65.800422
 20
105.593982
 30
0.0
 10
-65.734015
 20
106.059169
 30
0.0
 10
-65.790036
 20
106.525682
 30
0.0
 10
-65.964647
 20
106.961800
 30
0.0
 10
-66.245938
 20
107.337748
 30
0.0
 10
-66.614774
 20
107.627958
 30
0.0
  0
LWPOLYLINE
  5
1c6
100
AcDbEntity
  8
Layer_1
 62
7
100
AcDbPolyline
 90
25
 70
0
 10
-67.975819
 20
316.842141
 30
0.0
 10
-68.411062
 20
316.667192
 30
0.0
 10
-68.786276
 20
316.385308
 30
0.0
 10
-69.075893
 20
316.015766
 30
0.0
 10
-69.260212
 20
315.583656
 30
0.0
 10
-69.326591
 20
315.118469
 30
0.0
 10
-69.270598
 20
314.651984
 30
0.0
 10
-69.095987
 20
314.215838
 30
0.0
 10
-68.814668
 20
313.839890
 30
0.0
 10
-68.445832
 20
313.549709
 30
0.0
 10
-68.014624
 20
313.365051
 30
0.0
 10
-67.550397
 20
313.298503
 30
0.0
 10
-67.084787
 20
313.354637
 30
0.0
 10
-66.649572
 20
313.529614
 30
0.0
 10
-66.274357
 20
313.811470
 30
0.0
 10
-65.984713
 20
314.181012
 30
0.0
 10
-65.800422
 20
314.613122
 30
0.0
 10
-65.734015
 20
315.078252
 30
0.0
 10
-65.790036
 20
315.544794
 30
0.0
 10
-65.964647
 20
315.980940
 30
0.0
 10
-66.245938
 20
316.356888
 30
0.0
 10
-66.614774
 20
316.647098
 30
0.0
 10
-67.045981
 20
316.831671
 30
0.0
 10
-67.510208
 20
316.898275
 30
0.0
 10
-67.975819
 20
316.842141
 30
0.0
  0
LWPOLYLINE
  5
1c7
100
AcDbEntity
  8
Layer_1
 62
6
100
AcDbPolyline
 90
2
 70
0
 10
-42.580279
 20
250.588499
 30
0.0
 10
-62.540304
 20
230.588708
 30
0.0
  0
LWPOLYLINE
  5
1c8
100
AcDbEntity
  8
Layer_1
 62
6
100
AcDbPolyline
 90
2
 70
0
 10
-42.580279
 20
270.588403
 30
0.0
 10
-42.580279
 20
250.588499
 30
0.0
  0
LWPOLYLINE
  5
1c9
100
AcDbEntity
  8
Layer_1
 62
6
100
AcDbPolyline
 90
2
 70
0
 10
-62.540304
 20
290.588193
 30
0.0
 10
-42.580279
 20
270.588403
 30
0.0
  0
LWPOLYLINE
  5
1ca
100
AcDbEntity
  8
Layer_1
 62
6
100
AcDbPolyline
 90
2
 70
0
 10
-72.520330
 20
290.588193
 30
0.0
 10
-62.540304
 20
290.588193
 30
0.0
  0
LWPOLYLINE
  5
1cb
100
AcDbEntity
  8
Layer_1
 62
6
100
AcDbPolyline
 90
2
 70
0
 10
-92.480328
 20
270.588403
 30
0.0
 10
-72.520330
 20
290.588193
 30
0.0
  0
LWPOLYLINE
  5
1cc
100
AcDbEntity
  8
Layer_1
 62
6
100
AcDbPolyline
 90
2
 70
0
 10
-92.480328
 20
250.588499
 30
0.0
 10
-92.480328
 20
270.588403
 30
0.0
  0
LWPOLYLINE
  5
1cd
100
AcDbEntity
  8
Layer_1
 62
6
100
AcDbPolyline
 90
2
 70
0
 10
-72.520330
 20
230.588708
 30
0.0
 10
-92.480328
 20
250.588499
 30
0.0
  0
LWPOLYLINE
  5
1ce
100
AcDbEntity
  8
Layer_1
 62
6
100
AcDbPolyline
 90
2
 70
0
 10
-62.540304
 20
230.588708
 30
0.0
 10
-72.520330
 20
230.588708
 30
0.0
  0
LWPOLYLINE
  5
1cf
100
AcDbEntity
  8
Layer_1
 62
6
100
AcDbPolyline
 90
5
 70
0
 10
-137.390378
 20
268.588407
 30
0.0
 10
-137.390378
 20
152.589316
 30
0.0
 10
-102.460354
 20
187.589048
 30
0.0
 10
-102.460354
 20
233.588674
 30
0.0
 10
-137.390378
 20
268.588407
 30
0.0
  0
LWPOLYLINE
  5
1d0
100
AcDbEntity
  8
Layer_1
 62
7
100
AcDbPolyline
 90
2
 70
0
 10
-60.211378
 20
214.990681
 30
0.0
 10
-51.029786
 20
214.990681
 30
0.0
  0
LWPOLYLINE
  5
1d1
100
AcDbEntity
  8
Layer_1
 62
7
100
AcDbPolyline
 90
2
 70
0
 10
-60.211378
 20
221.790600
 30
0.0
 10
-60.211378
 20
214.990681
 30
0.0
  0
LWPOLYLINE
  5
1d2
100
AcDbEntity
  8
Layer_1
 62
7
100
AcDbPolyline
 90
3
 70
0
 10
-51.029786
 20
214.990681
 30
0.0
 10
-51.029786
 20
221.790600
 30
0.0
 10
-60.211378
 20
221.790600
 30
0.0
  0
LWPOLYLINE
  5
1d3
100
AcDbEntity
  8
Layer_1
 62
7
100
AcDbPolyline
 90
2
 70
0
 10
-83.963820
 20
221.790600
 30
0.0
 10
-83.963820
 20
214.990681
 30
0.0
  0
LWPOLYLINE
  5
1d4
100
AcDbEntity
  8
Layer_1
 62
7
100
AcDbPolyline
 90
2
 70
0
 10
-74.782200
 20
214.990681
 30
0.0
 10
-74.782200
 20
221.790600
 30
0.0
  0
LWPOLYLINE
  5
1d5
100
AcDbEntity
  8
Layer_1
 62
7
100
AcDbPolyline
 90
2
 70
0
 10
-83.963820
 20
214.990681
 30
0.0
 10
-74.782200
 20
214.990681
 30
0.0
  0
LWPOLYLINE
  5
1d6
100
AcDbEntity
  8
Layer_1
 62
7
100
AcDbPolyline
 90
2
 70
0
 10
-74.782200
 20
221.790600
 30
0.0
 10
-83.963820
 20
221.790600
 30
0.0
  0
LWPOLYLINE
  5
1d7
100
AcDbEntity
  8
Layer_1
 62
7
100
AcDbPolyline
 90
5
 70
0
 10
-60.226421
 20
206.293213
 30
0.0
 10
-60.226421
 20
199.493266
 30
0.0
 10
-51.044829
 20
199.493266
 30
0.0
 10
-51.044829
 20
206.293213
 30
0.0
 10
-60.226421
 20
206.293213
 30
0.0
  0
LWPOLYLINE
  5
1d8
100
AcDbEntity
  8
Layer_1
 62
7
100
AcDbPolyline
 90
2
 70
0
 10
-74.797243
 20
206.293213
 30
0.0
 10
-83.978835
 20
206.293213
 30
0.0
  0
LWPOLYLINE
  5
1d9
100
AcDbEntity
  8
Layer_1
 62
7
100
AcDbPolyline
 90
2
 70
0
 10
-74.797243
 20
199.493266
 30
0.0
 10
-74.797243
 20
206.293213
 30
0.0
  0
LWPOLYLINE
  5
1da
100
AcDbEntity
  8
Layer_1
 62
7
100
AcDbPolyline
 90
3
 70
0
 10
-83.978835
 20
206.293213
 30
0.0
 10
-83.978835
 20
199.493266
 30
0.0
 10
-74.797243
 20
199.493266
 30
0.0
  0
LWPOLYLINE
  5
1db
100
AcDbEntity
  8
Layer_1
 62
7
100
AcDbPolyline
 90
2
 70
0
 10
38.326907
 20
211.488840
 30
0.0
 10
38.506372
 20
211.054726
 30
0.0
  0
LWPOLYLINE
  5
1dc
100
AcDbEntity
  8
Layer_1
 62
7
100
AcDbPolyline
 90
10
 70
0
 10
36.306224
 20
208.850203
 30
0.0
 10
36.771157
 20
208.788876
 30
0.0
 10
37.236090
 20
208.850203
 30
0.0
 10
37.669357
 20
209.030035
 30
0.0
 10
38.041411
 20
209.316067
 30
0.0
 10
38.294677
 20
209.655242
 30
0.0
 10
38.326907
 20
209.688855
 30
0.0
 10
38.506372
 20
210.122969
 30
0.0
 10
38.567558
 20
210.588861
 30
0.0
 10
38.506372
 20
211.054726
 30
0.0
  0
LWPOLYLINE
  5
1dd
100
AcDbEntity
  8
Layer_1
 62
7
100
AcDbPolyline
 90
16
 70
0
 10
38.326907
 20
211.488840
 30
0.0
 10
38.041411
 20
211.861627
 30
0.0
 10
37.669357
 20
212.147688
 30
0.0
 10
37.236090
 20
212.327520
 30
0.0
 10
36.771157
 20
212.388846
 30
0.0
 10
36.306224
 20
212.327520
 30
0.0
 10
35.872984
 20
212.147688
 30
0.0
 10
35.500903
 20
211.861627
 30
0.0
 10
35.215435
 20
211.488840
 30
0.0
 10
35.035970
 20
211.054726
 30
0.0
 10
34.974756
 20
210.588861
 30
0.0
 10
35.035970
 20
210.122969
 30
0.0
 10
35.215435
 20
209.688855
 30
0.0
 10
35.500903
 20
209.316067
 30
0.0
 10
35.872984
 20
209.030035
 30
0.0
 10
36.306224
 20
208.850203
 30
0.0
  0
LWPOLYLINE
  5
1de
100
AcDbEntity
  8
Layer_1
 62
7
100
AcDbPolyline
 90
2
 70
0
 10
-173.387512
 20
209.688855
 30
0.0
 10
-173.566977
 20
210.122969
 30
0.0
  0
LWPOLYLINE
  5
1df
100
AcDbEntity
  8
Layer_1
 62
7
100
AcDbPolyline
 90
12
 70
0
 10
-170.561536
 20
211.861627
 30
0.0
 10
-170.933590
 20
212.147659
 30
0.0
 10
-171.366829
 20
212.327520
 30
0.0
 10
-171.831790
 20
212.388818
 30
0.0
 10
-172.296723
 20
212.327520
 30
0.0
 10
-172.729991
 20
212.147659
 30
0.0
 10
-173.102016
 20
211.861627
 30
0.0
 10
-173.355282
 20
211.522481
 30
0.0
 10
-173.387512
 20
211.488840
 30
0.0
 10
-173.566977
 20
211.054726
 30
0.0
 10
-173.628191
 20
210.588861
 30
0.0
 10
-173.566977
 20
210.122969
 30
0.0
  0
LWPOLYLINE
  5
1e0
100
AcDbEntity
  8
Layer_1
 62
7
100
AcDbPolyline
 90
14
 70
0
 10
-173.387512
 20
209.688855
 30
0.0
 10
-173.102016
 20
209.316039
 30
0.0
 10
-172.729991
 20
209.030007
 30
0.0
 10
-172.296723
 20
208.850203
 30
0.0
 10
-171.831790
 20
208.788876
 30
0.0
 10
-171.366829
 20
208.850203
 30
0.0
 10
-170.933590
 20
209.030007
 30
0.0
 10
-170.561536
 20
209.316039
 30
0.0
 10
-170.276068
 20
209.688855
 30
0.0
 10
-170.096575
 20
210.122969
 30
0.0
 10
-170.035361
 20
210.588833
 30
0.0
 10
-170.096575
 20
211.054726
 30
0.0
 10
-170.276068
 20
211.488840
 30
0.0
 10
-170.561536
 20
211.861627
 30
0.0
  0
LWPOLYLINE
  5
1e1
100
AcDbEntity
  8
Layer_1
 62
7
100
AcDbPolyline
 90
2
 70
0
 10
37.236090
 20
316.837061
 30
0.0
 10
37.669357
 20
316.657229
 30
0.0
  0
LWPOLYLINE
  5
1e2
100
AcDbEntity
  8
Layer_1
 62
7
100
AcDbPolyline
 90
17
 70
0
 10
35.215435
 20
315.998382
 30
0.0
 10
35.035970
 20
315.564211
 30
0.0
 10
34.974756
 20
315.098403
 30
0.0
 10
35.035970
 20
314.632567
 30
0.0
 10
35.215435
 20
314.198396
 30
0.0
 10
35.500903
 20
313.825609
 30
0.0
 10
35.872984
 20
313.539577
 30
0.0
 10
36.306224
 20
313.359745
 30
0.0
 10
36.771157
 20
313.298418
 30
0.0
 10
37.236090
 20
313.359745
 30
0.0
 10
37.669357
 20
313.539577
 30
0.0
 10
38.041411
 20
313.825609
 30
0.0
 10
38.326907
 20
314.198396
 30
0.0
 10
38.506372
 20
314.632567
 30
0.0
 10
38.567558
 20
315.098403
 30
0.0
 10
38.507275
 20
315.517672
 30
0.0
 10
38.507275
 20
315.564211
 30
0.0
  0
LWPOLYLINE
  5
1e3
100
AcDbEntity
  8
Layer_1
 62
7
100
AcDbPolyline
 90
4
 70
0
 10
38.506372
 20
315.564211
 30
0.0
 10
38.326907
 20
315.998382
 30
0.0
 10
38.041411
 20
316.371169
 30
0.0
 10
37.669357
 20
316.657229
 30
0.0
  0
LWPOLYLINE
  5
1e4
100
AcDbEntity
  8
Layer_1
 62
7
100
AcDbPolyline
 90
6
 70
0
 10
37.236090
 20
316.837061
 30
0.0
 10
36.771157
 20
316.898360
 30
0.0
 10
36.306224
 20
316.837061
 30
0.0
 10
35.872984
 20
316.657229
 30
0.0
 10
35.500903
 20
316.371169
 30
0.0
 10
35.215435
 20
315.998382
 30
0.0
  0
LWPOLYLINE
  5
1e5
100
AcDbEntity
  8
Layer_1
 62
7
100
AcDbPolyline
 90
2
 70
0
 10
-66.598546
 20
219.951330
 30
0.0
 10
-67.031842
 20
220.131105
 30
0.0
  0
LWPOLYLINE
  5
1e6
100
AcDbEntity
  8
Layer_1
 62
7
100
AcDbPolyline
 90
2
 70
0
 10
-65.700120
 20
218.392644
 30
0.0
 10
-65.761418
 20
218.858480
 30
0.0
  0
LWPOLYLINE
  5
1e7
100
AcDbEntity
  8
Layer_1
 62
7
100
AcDbPolyline
 90
2
 70
0
 10
-69.231792
 20
218.857972
 30
0.0
 10
-69.292922
 20
218.392080
 30
0.0
  0
LWPOLYLINE
  5
1e8
100
AcDbEntity
  8
Layer_1
 62
7
100
AcDbPolyline
 90
2
 70
0
 10
-67.961228
 20
216.653619
 30
0.0
 10
-67.496267
 20
216.592377
 30
0.0
  0
LWPOLYLINE
  5
1e9
100
AcDbEntity
  8
Layer_1
 62
7
100
AcDbPolyline
 90
2
 70
0
 10
-67.961736
 20
220.130964
 30
0.0
 10
-68.394947
 20
219.951076
 30
0.0
  0
LWPOLYLINE
  5
1ea
100
AcDbEntity
  8
Layer_1
 62
7
100
AcDbPolyline
 90
3
 70
0
 10
-66.226097
 20
217.119766
 30
0.0
 10
-65.940686
 20
217.492553
 30
0.0
 10
-65.761249
 20
217.926752
 30
0.0
  0
LWPOLYLINE
  5
1eb
100
AcDbEntity
  8
Layer_1
 62
7
100
AcDbPolyline
 90
2
 70
0
 10
-68.394947
 20
219.951076
 30
0.0
 10
-68.766944
 20
219.664930
 30
0.0
  0
LWPOLYLINE
  5
1ec
100
AcDbEntity
  8
Layer_1
 62
7
100
AcDbPolyline
 90
2
 70
0
 10
-69.231651
 20
217.926244
 30
0.0
 10
-69.052130
 20
217.492158
 30
0.0
  0
LWPOLYLINE
  5
1ed
100
AcDbEntity
  8
Layer_1
 62
7
100
AcDbPolyline
 90
2
 70
0
 10
-65.761418
 20
218.858480
 30
0.0
 10
-65.940940
 20
219.292595
 30
0.0
  0
LWPOLYLINE
  5
1ee
100
AcDbEntity
  8
Layer_1
 62
7
100
AcDbPolyline
 90
2
 70
0
 10
-67.496775
 20
220.192319
 30
0.0
 10
-67.961736
 20
220.130964
 30
0.0
  0
LWPOLYLINE
  5
1ef
100
AcDbEntity
  8
Layer_1
 62
7
100
AcDbPolyline
 90
2
 70
0
 10
-68.394495
 20
216.833395
 30
0.0
 10
-67.961228
 20
216.653619
 30
0.0
  0
LWPOLYLINE
  5
1f0
100
AcDbEntity
  8
Layer_1
 62
7
100
AcDbPolyline
 90
2
 70
0
 10
-65.761249
 20
217.926752
 30
0.0
 10
-65.700120
 20
218.392588
 30
0.0
  0
LWPOLYLINE
  5
1f1
100
AcDbEntity
  8
Layer_1
 62
7
100
AcDbPolyline
 90
2
 70
0
 10
-66.226464
 20
219.665297
 30
0.0
 10
-66.598546
 20
219.951330
 30
0.0
  0
LWPOLYLINE
  5
1f2
100
AcDbEntity
  8
Layer_1
 62
7
100
AcDbPolyline
 90
2
 70
0
 10
-68.766577
 20
217.119399
 30
0.0
 10
-68.394495
 20
216.833395
 30
0.0
  0
LWPOLYLINE
  5
1f3
100
AcDbEntity
  8
Layer_1
 62
7
100
AcDbPolyline
 90
2
 70
0
 10
-69.292922
 20
218.392080
 30
0.0
 10
-69.231651
 20
217.926244
 30
0.0
  0
LWPOLYLINE
  5
1f4
100
AcDbEntity
  8
Layer_1
 62
7
100
AcDbPolyline
 90
2
 70
0
 10
-66.598123
 20
216.833649
 30
0.0
 10
-66.226097
 20
217.119766
 30
0.0
  0
LWPOLYLINE
  5
1f5
100
AcDbEntity
  8
Layer_1
 62
7
100
AcDbPolyline
 90
2
 70
0
 10
-68.766944
 20
219.664930
 30
0.0
 10
-69.052384
 20
219.292143
 30
0.0
  0
LWPOLYLINE
  5
1f6
100
AcDbEntity
  8
Layer_1
 62
7
100
AcDbPolyline
 90
2
 70
0
 10
-67.031362
 20
216.653760
 30
0.0
 10
-66.598123
 20
216.833649
 30
0.0
  0
LWPOLYLINE
  5
1f7
100
AcDbEntity
  8
Layer_1
 62
7
100
AcDbPolyline
 90
2
 70
0
 10
-65.940940
 20
219.292595
 30
0.0
 10
-66.226464
 20
219.665297
 30
0.0
  0
LWPOLYLINE
  5
1f8
100
AcDbEntity
  8
Layer_1
 62
7
100
AcDbPolyline
 90
2
 70
0
 10
-67.031842
 20
220.131077
 30
0.0
 10
-67.496775
 20
220.192319
 30
0.0
  0
LWPOLYLINE
  5
1f9
100
AcDbEntity
  8
Layer_1
 62
7
100
AcDbPolyline
 90
2
 70
0
 10
-67.496267
 20
216.592377
 30
0.0
 10
-67.031362
 20
216.653760
 30
0.0
  0
LWPOLYLINE
  5
1fa
100
AcDbEntity
  8
Layer_1
 62
7
100
AcDbPolyline
 90
2
 70
0
 10
-69.052130
 20
217.492158
 30
0.0
 10
-68.766577
 20
217.119399
 30
0.0
  0
LWPOLYLINE
  5
1fb
100
AcDbEntity
  8
Layer_1
 62
7
100
AcDbPolyline
 90
2
 70
0
 10
-69.052384
 20
219.292143
 30
0.0
 10
-69.231792
 20
218.857972
 30
0.0
  0
LWPOLYLINE
  5
1fc
100
AcDbEntity
  8
Layer_1
 62
7
100
AcDbPolyline
 90
2
 70
0
 10
-66.613588
 20
204.453915
 30
0.0
 10
-67.046884
 20
204.633662
 30
0.0
  0
LWPOLYLINE
  5
1fd
100
AcDbEntity
  8
Layer_1
 62
7
100
AcDbPolyline
 90
2
 70
0
 10
-69.246835
 20
203.360586
 30
0.0
 10
-69.307992
 20
202.894722
 30
0.0
  0
LWPOLYLINE
  5
1fe
100
AcDbEntity
  8
Layer_1
 62
7
100
AcDbPolyline
 90
2
 70
0
 10
-65.715162
 20
202.895230
 30
0.0
 10
-65.776433
 20
203.361094
 30
0.0
  0
LWPOLYLINE
  5
1ff
100
AcDbEntity
  8
Layer_1
 62
7
100
AcDbPolyline
 90
2
 70
0
 10
-68.409538
 20
201.336008
 30
0.0
 10
-67.976270
 20
201.156233
 30
0.0
  0
LWPOLYLINE
  5
200
100
AcDbEntity
  8
Layer_1
 62
7
100
AcDbPolyline
 90
2
 70
0
 10
-67.046884
 20
204.633662
 30
0.0
 10
-67.511845
 20
204.694961
 30
0.0
  0
LWPOLYLINE
  5
201
100
AcDbEntity
  8
Layer_1
 62
7
100
AcDbPolyline
 90
2
 70
0
 10
-66.241140
 20
201.622351
 30
0.0
 10
-65.955728
 20
201.995195
 30
0.0
  0
LWPOLYLINE
  5
202
100
AcDbEntity
  8
Layer_1
 62
7
100
AcDbPolyline
 90
2
 70
0
 10
-67.046376
 20
201.156346
 30
0.0
 10
-66.613137
 20
201.336262
 30
0.0
  0
LWPOLYLINE
  5
203
100
AcDbEntity
  8
Layer_1
 62
7
100
AcDbPolyline
 90
2
 70
0
 10
-67.511845
 20
204.694961
 30
0.0
 10
-67.976750
 20
204.633549
 30
0.0
  0
LWPOLYLINE
  5
204
100
AcDbEntity
  8
Layer_1
 62
7
100
AcDbPolyline
 90
2
 70
0
 10
-67.511309
 20
201.094990
 30
0.0
 10
-67.046376
 20
201.156346
 30
0.0
  0
LWPOLYLINE
  5
205
100
AcDbEntity
  8
Layer_1
 62
7
100
AcDbPolyline
 90
2
 70
0
 10
-69.067426
 20
203.794728
 30
0.0
 10
-69.246835
 20
203.360586
 30
0.0
  0
LWPOLYLINE
  5
206
100
AcDbEntity
  8
Layer_1
 62
7
100
AcDbPolyline
 90
2
 70
0
 10
-69.067172
 20
201.994743
 30
0.0
 10
-68.781648
 20
201.621984
 30
0.0
  0
LWPOLYLINE
  5
207
100
AcDbEntity
  8
Layer_1
 62
7
100
AcDbPolyline
 90
2
 70
0
 10
-66.241507
 20
204.167939
 30
0.0
 10
-66.613588
 20
204.453915
 30
0.0
  0
LWPOLYLINE
  5
208
100
AcDbEntity
  8
Layer_1
 62
7
100
AcDbPolyline
 90
2
 70
0
 10
-68.781648
 20
201.621984
 30
0.0
 10
-68.409538
 20
201.336008
 30
0.0
  0
LWPOLYLINE
  5
209
100
AcDbEntity
  8
Layer_1
 62
7
100
AcDbPolyline
 90
2
 70
0
 10
-65.955728
 20
201.995195
 30
0.0
 10
-65.776320
 20
202.429337
 30
0.0
  0
LWPOLYLINE
  5
20a
100
AcDbEntity
  8
Layer_1
 62
7
100
AcDbPolyline
 90
2
 70
0
 10
-65.776433
 20
203.361094
 30
0.0
 10
-65.955982
 20
203.795180
 30
0.0
  0
LWPOLYLINE
  5
20b
100
AcDbEntity
  8
Layer_1
 62
7
100
AcDbPolyline
 90
2
 70
0
 10
-68.781986
 20
204.167572
 30
0.0
 10
-69.067426
 20
203.794728
 30
0.0
  0
LWPOLYLINE
  5
20c
100
AcDbEntity
  8
Layer_1
 62
7
100
AcDbPolyline
 90
2
 70
0
 10
-66.613137
 20
201.336262
 30
0.0
 10
-66.241140
 20
201.622351
 30
0.0
  0
LWPOLYLINE
  5
20d
100
AcDbEntity
  8
Layer_1
 62
7
100
AcDbPolyline
 90
2
 70
0
 10
-65.955982
 20
203.795180
 30
0.0
 10
-66.241507
 20
204.167939
 30
0.0
  0
LWPOLYLINE
  5
20e
100
AcDbEntity
  8
Layer_1
 62
7
100
AcDbPolyline
 90
2
 70
0
 10
-65.776320
 20
202.429309
 30
0.0
 10
-65.715162
 20
202.895230
 30
0.0
  0
LWPOLYLINE
  5
20f
100
AcDbEntity
  8
Layer_1
 62
7
100
AcDbPolyline
 90
2
 70
0
 10
-68.409989
 20
204.453661
 30
0.0
 10
-68.781986
 20
204.167572
 30
0.0
  0
LWPOLYLINE
  5
210
100
AcDbEntity
  8
Layer_1
 62
7
100
AcDbPolyline
 90
2
 70
0
 10
-69.246722
 20
202.428857
 30
0.0
 10
-69.067172
 20
201.994743
 30
0.0
  0
LWPOLYLINE
  5
211
100
AcDbEntity
  8
Layer_1
 62
7
100
AcDbPolyline
 90
2
 70
0
 10
-67.976270
 20
201.156233
 30
0.0
 10
-67.511309
 20
201.094990
 30
0.0
  0
LWPOLYLINE
  5
212
100
AcDbEntity
  8
Layer_1
 62
7
100
AcDbPolyline
 90
2
 70
0
 10
-67.976750
 20
204.633549
 30
0.0
 10
-68.409989
 20
204.453661
 30
0.0
  0
LWPOLYLINE
  5
213
100
AcDbEntity
  8
Layer_1
 62
7
100
AcDbPolyline
 90
2
 70
0
 10
-69.307992
 20
202.894722
 30
0.0
 10
-69.246722
 20
202.428857
 30
0.0
  0
LWPOLYLINE
  5
214
100
AcDbEntity
  8
Layer_1
 62
7
100
AcDbPolyline
 90
2
 70
0
 10
-102.460354
 20
238.518278
 30
0.0
 10
-102.460354
 20
238.588608
 30
0.0
  0
LWPOLYLINE
  5
215
100
AcDbEntity
  8
Layer_1
 62
5
100
AcDbPolyline
 90
2
 70
0
 10
-42.580279
 20
250.588499
 30
0.0
 10
-42.580279
 20
250.518198
 30
0.0
  0
LWPOLYLINE
  5
216
100
AcDbEntity
  8
Layer_1
 62
6
100
AcDbPolyline
 90
2
 70
0
 10
-52.560277
 20
150.518962
 30
0.0
 10
-52.630522
 20
150.518962
 30
0.0
  0
LWPOLYLINE
  5
217
100
AcDbEntity
  8
Layer_1
 62
6
100
AcDbPolyline
 90
2
 70
0
 10
-82.430112
 20
150.518962
 30
0.0
 10
-82.500301
 20
150.518962
 30
0.0
  0
LWPOLYLINE
  5
218
100
AcDbEntity
  8
Layer_1
 62
6
100
AcDbPolyline
 90
2
 70
0
 10
-42.580279
 20
160.589244
 30
0.0
 10
-62.540304
 20
140.589396
 30
0.0
  0
LWPOLYLINE
  5
219
100
AcDbEntity
  8
Layer_1
 62
6
100
AcDbPolyline
 90
2
 70
0
 10
-72.520330
 20
140.589396
 30
0.0
 10
-92.480328
 20
160.589244
 30
0.0
  0
LWPOLYLINE
  5
21a
100
AcDbEntity
  8
Layer_1
 62
6
100
AcDbPolyline
 90
2
 70
0
 10
-42.580279
 20
170.589167
 30
0.0
 10
-42.580279
 20
160.589244
 30
0.0
  0
LWPOLYLINE
  5
21b
100
AcDbEntity
  8
Layer_1
 62
6
100
AcDbPolyline
 90
2
 70
0
 10
-62.540304
 20
190.589014
 30
0.0
 10
-42.580279
 20
170.589167
 30
0.0
  0
LWPOLYLINE
  5
21c
100
AcDbEntity
  8
Layer_1
 62
6
100
AcDbPolyline
 90
2
 70
0
 10
-72.520330
 20
190.589014
 30
0.0
 10
-62.540304
 20
190.589014
 30
0.0
  0
LWPOLYLINE
  5
21d
100
AcDbEntity
  8
Layer_1
 62
6
100
AcDbPolyline
 90
2
 70
0
 10
-92.480328
 20
170.589167
 30
0.0
 10
-72.520330
 20
190.589014
 30
0.0
  0
LWPOLYLINE
  5
21e
100
AcDbEntity
  8
Layer_1
 62
6
100
AcDbPolyline
 90
2
 70
0
 10
-92.480328
 20
160.589244
 30
0.0
 10
-92.480328
 20
170.589167
 30
0.0
  0
LWPOLYLINE
  5
21f
100
AcDbEntity
  8
Layer_1
 62
6
100
AcDbPolyline
 90
2
 70
0
 10
-62.540304
 20
140.589396
 30
0.0
 10
-72.520330
 20
140.589396
 30
0.0
  0
LWPOLYLINE
  5
220
100
AcDbEntity
  8
Layer_1
 62
7
100
AcDbPolyline
 90
2
 70
0
 10
-66.011425
 20
134.063008
 30
0.0
 10
-66.011425
 20
136.197652
 30
0.0
  0
LWPOLYLINE
  5
221
100
AcDbEntity
  8
Layer_1
 62
7
100
AcDbPolyline
 90
2
 70
0
 10
-69.036923
 20
134.063008
 30
0.0
 10
-66.011425
 20
134.063008
 30
0.0
  0
LWPOLYLINE
  5
222
100
AcDbEntity
  8
Layer_1
 62
7
100
AcDbPolyline
 90
2
 70
0
 10
-69.036923
 20
136.197652
 30
0.0
 10
-69.036923
 20
134.063008
 30
0.0
  0
LWPOLYLINE
  5
223
100
AcDbEntity
  8
Layer_1
 62
7
100
AcDbPolyline
 90
2
 70
0
 10
-66.011425
 20
136.197652
 30
0.0
 10
-69.036923
 20
136.197652
 30
0.0
  0
LWPOLYLINE
  5
224
100
AcDbEntity
  8
Layer_1
 62
7
100
AcDbPolyline
 90
2
 70
0
 10
-66.005569
 20
114.842574
 30
0.0
 10
-66.005569
 20
116.977218
 30
0.0
  0
LWPOLYLINE
  5
225
100
AcDbEntity
  8
Layer_1
 62
7
100
AcDbPolyline
 90
2
 70
0
 10
-69.031067
 20
114.842574
 30
0.0
 10
-66.005569
 20
114.842574
 30
0.0
  0
LWPOLYLINE
  5
226
100
AcDbEntity
  8
Layer_1
 62
7
100
AcDbPolyline
 90
2
 70
0
 10
-69.031067
 20
116.977218
 30
0.0
 10
-69.031067
 20
114.842574
 30
0.0
  0
LWPOLYLINE
  5
227
100
AcDbEntity
  8
Layer_1
 62
7
100
AcDbPolyline
 90
2
 70
0
 10
-66.005569
 20
116.977218
 30
0.0
 10
-69.031067
 20
116.977218
 30
0.0
  0
LWPOLYLINE
  5
228
100
AcDbEntity
  8
Layer_1
 62
7
100
AcDbPolyline
 90
2
 70
0
 10
-31.098290
 20
304.153600
 30
0.0
 10
-31.098290
 20
306.288244
 30
0.0
  0
LWPOLYLINE
  5
229
100
AcDbEntity
  8
Layer_1
 62
7
100
AcDbPolyline
 90
2
 70
0
 10
-34.123788
 20
304.153600
 30
0.0
 10
-31.098290
 20
304.153600
 30
0.0
  0
LWPOLYLINE
  5
22a
100
AcDbEntity
  8
Layer_1
 62
7
100
AcDbPolyline
 90
2
 70
0
 10
-34.123788
 20
306.288244
 30
0.0
 10
-34.123788
 20
304.153600
 30
0.0
  0
LWPOLYLINE
  5
22b
100
AcDbEntity
  8
Layer_1
 62
7
100
AcDbPolyline
 90
2
 70
0
 10
-31.098290
 20
306.288244
 30
0.0
 10
-34.123788
 20
306.288244
 30
0.0
  0
LWPOLYLINE
  5
22c
100
AcDbEntity
  8
Layer_1
 62
7
100
AcDbPolyline
 90
2
 70
0
 10
-31.092434
 20
284.933166
 30
0.0
 10
-31.092434
 20
287.067810
 30
0.0
  0
LWPOLYLINE
  5
22d
100
AcDbEntity
  8
Layer_1
 62
7
100
AcDbPolyline
 90
2
 70
0
 10
-34.117932
 20
284.933166
 30
0.0
 10
-31.092434
 20
284.933166
 30
0.0
  0
LWPOLYLINE
  5
22e
100
AcDbEntity
  8
Layer_1
 62
7
100
AcDbPolyline
 90
2
 70
0
 10
-34.117932
 20
287.067810
 30
0.0
 10
-34.117932
 20
284.933166
 30
0.0
  0
LWPOLYLINE
  5
22f
100
AcDbEntity
  8
Layer_1
 62
7
100
AcDbPolyline
 90
2
 70
0
 10
-31.092434
 20
287.067810
 30
0.0
 10
-34.117932
 20
287.067810
 30
0.0
  0
LWPOLYLINE
  5
230
100
AcDbEntity
  8
Layer_1
 62
7
100
AcDbPolyline
 90
2
 70
0
 10
-100.943266
 20
304.135453
 30
0.0
 10
-100.943266
 20
306.270097
 30
0.0
  0
LWPOLYLINE
  5
231
100
AcDbEntity
  8
Layer_1
 62
7
100
AcDbPolyline
 90
2
 70
0
 10
-103.968764
 20
304.135453
 30
0.0
 10
-100.943266
 20
304.135453
 30
0.0
  0
LWPOLYLINE
  5
232
100
AcDbEntity
  8
Layer_1
 62
7
100
AcDbPolyline
 90
2
 70
0
 10
-103.968764
 20
306.270097
 30
0.0
 10
-103.968764
 20
304.135453
 30
0.0
  0
LWPOLYLINE
  5
233
100
AcDbEntity
  8
Layer_1
 62
7
100
AcDbPolyline
 90
2
 70
0
 10
-100.943266
 20
306.270097
 30
0.0
 10
-103.968764
 20
306.270097
 30
0.0
  0
LWPOLYLINE
  5
234
100
AcDbEntity
  8
Layer_1
 62
7
100
AcDbPolyline
 90
2
 70
0
 10
-100.937410
 20
284.915019
 30
0.0
 10
-100.937410
 20
287.049663
 30
0.0
  0
LWPOLYLINE
  5
235
100
AcDbEntity
  8
Layer_1
 62
7
100
AcDbPolyline
 90
2
 70
0
 10
-103.962908
 20
284.915019
 30
0.0
 10
-100.937410
 20
284.915019
 30
0.0
  0
LWPOLYLINE
  5
236
100
AcDbEntity
  8
Layer_1
 62
7
100
AcDbPolyline
 90
2
 70
0
 10
-103.962908
 20
287.049663
 30
0.0
 10
-103.962908
 20
284.915019
 30
0.0
  0
LWPOLYLINE
  5
237
100
AcDbEntity
  8
Layer_1
 62
7
100
AcDbPolyline
 90
2
 70
0
 10
-100.937410
 20
287.049663
 30
0.0
 10
-103.962908
 20
287.049663
 30
0.0
  0
LWPOLYLINE
  5
238
100
AcDbEntity
  8
Layer_1
 62
7
100
AcDbPolyline
 90
2
 70
0
 10
-88.031599
 20
118.468508
 30
0.0
 10
-88.031599
 20
120.603152
 30
0.0
  0
LWPOLYLINE
  5
239
100
AcDbEntity
  8
Layer_1
 62
7
100
AcDbPolyline
 90
2
 70
0
 10
-91.057098
 20
118.468508
 30
0.0
 10
-88.031599
 20
118.468508
 30
0.0
  0
LWPOLYLINE
  5
23a
100
AcDbEntity
  8
Layer_1
 62
7
100
AcDbPolyline
 90
2
 70
0
 10
-91.057098
 20
120.603152
 30
0.0
 10
-91.057098
 20
118.468508
 30
0.0
  0
LWPOLYLINE
  5
23b
100
AcDbEntity
  8
Layer_1
 62
7
100
AcDbPolyline
 90
2
 70
0
 10
-88.031599
 20
120.603152
 30
0.0
 10
-91.057098
 20
120.603152
 30
0.0
  0
LWPOLYLINE
  5
23c
100
AcDbEntity
  8
Layer_1
 62
7
100
AcDbPolyline
 90
2
 70
0
 10
-87.919910
 20
106.197796
 30
0.0
 10
-87.919910
 20
108.332441
 30
0.0
  0
LWPOLYLINE
  5
23d
100
AcDbEntity
  8
Layer_1
 62
7
100
AcDbPolyline
 90
2
 70
0
 10
-90.945408
 20
106.197796
 30
0.0
 10
-87.919910
 20
106.197796
 30
0.0
  0
LWPOLYLINE
  5
23e
100
AcDbEntity
  8
Layer_1
 62
7
100
AcDbPolyline
 90
2
 70
0
 10
-90.945408
 20
108.332441
 30
0.0
 10
-90.945408
 20
106.197796
 30
0.0
  0
LWPOLYLINE
  5
23f
100
AcDbEntity
  8
Layer_1
 62
7
100
AcDbPolyline
 90
2
 70
0
 10
-87.919910
 20
108.332441
 30
0.0
 10
-90.945408
 20
108.332441
 30
0.0
  0
LWPOLYLINE
  5
240
100
AcDbEntity
  8
Layer_1
 62
4
100
AcDbPolyline
 90
43
 70
0
 10
-60.434687
 20
100.396465
 30
0.0
 10
-97.231646
 20
100.422429
 30
0.0
 10
-97.200506
 20
123.100001
 30
0.0
 10
-140.067891
 20
123.143181
 30
0.0
 10
-162.512208
 20
100.589505
 30
0.0
 10
-173.187546
 20
100.589476
 30
0.0
 10
-177.310446
 20
104.718388
 30
0.0
 10
-177.310446
 20
118.233869
 30
0.0
 10
-165.760067
 20
129.782854
 30
0.0
 10
-165.817087
 20
183.314990
 30
0.0
 10
-177.462705
 20
203.467379
 30
0.0
 10
-177.462705
 20
217.709921
 30
0.0
 10
-165.817087
 20
237.862309
 30
0.0
 10
-165.817087
 20
294.232472
 30
0.0
 10
-177.258641
 20
305.753207
 30
0.0
 10
-177.275067
 20
318.467346
 30
0.0
 10
-175.015220
 20
320.754080
 30
0.0
 10
-162.508652
 20
320.754080
 30
0.0
 10
-152.393952
 20
310.544494
 30
0.0
 10
-84.798972
 20
310.588069
 30
0.0
 10
-74.652039
 20
320.755181
 30
0.0
 10
-60.437862
 20
320.755181
 30
0.0
 10
-50.290957
 20
310.588069
 30
0.0
 10
17.528467
 20
310.601333
 30
0.0
 10
27.451558
 20
320.587908
 30
0.0
 10
39.255785
 20
320.587908
 30
0.0
 10
42.249796
 20
317.587970
 30
0.0
 10
42.249796
 20
305.765794
 30
0.0
 10
27.952048
 20
291.433788
 30
0.0
 10
27.934212
 20
237.862422
 30
0.0
 10
42.402052
 20
217.710034
 30
0.0
 10
42.330624
 20
203.396005
 30
0.0
 10
-0.686824
 20
160.900478
 30
0.0
 10
-0.695714
 20
117.249478
 30
0.0
 10
1.560189
 20
114.968247
 30
0.0
 10
39.199033
 20
114.968247
 30
0.0
 10
42.406765
 20
112.133833
 30
0.0
 10
42.406765
 20
103.372724
 30
0.0
 10
39.263676
 20
100.229643
 30
0.0
 10
-15.956090
 20
100.229643
 30
0.0
 10
-26.308330
 20
110.581865
 30
0.0
 10
-49.558504
 20
110.515147
 30
0.0
 10
-60.434687
 20
100.396465
 30
0.0
  0
LWPOLYLINE
  5
241
100
AcDbEntity
  8
Layer_1
 62
7
100
AcDbPolyline
 90
2
 70
0
 10
37.220141
 20
107.834911
 30
0.0
 10
37.653409
 20
107.655079
 30
0.0
  0
LWPOLYLINE
  5
242
100
AcDbEntity
  8
Layer_1
 62
7
100
AcDbPolyline
 90
17
 70
0
 10
35.199487
 20
106.996231
 30
0.0
 10
35.020021
 20
106.562061
 30
0.0
 10
34.958807
 20
106.096253
 30
0.0
 10
35.020021
 20
105.630417
 30
0.0
 10
35.199487
 20
105.196246
 30
0.0
 10
35.484954
 20
104.823459
 30
0.0
 10
35.857036
 20
104.537427
 30
0.0
 10
36.290275
 20
104.357595
 30
0.0
 10
36.755208
 20
104.296268
 30
0.0
 10
37.220141
 20
104.357595
 30
0.0
 10
37.653409
 20
104.537427
 30
0.0
 10
38.025459
 20
104.823459
 30
0.0
 10
38.310955
 20
105.196246
 30
0.0
 10
38.490421
 20
105.630417
 30
0.0
 10
38.551606
 20
106.096253
 30
0.0
 10
38.491324
 20
106.515522
 30
0.0
 10
38.491324
 20
106.562061
 30
0.0
  0
LWPOLYLINE
  5
243
100
AcDbEntity
  8
Layer_1
 62
7
100
AcDbPolyline
 90
4
 70
0
 10
38.490421
 20
106.562061
 30
0.0
 10
38.310955
 20
106.996231
 30
0.0
 10
38.025459
 20
107.369019
 30
0.0
 10
37.653409
 20
107.655079
 30
0.0
  0
LWPOLYLINE
  5
244
100
AcDbEntity
  8
Layer_1
 62
7
100
AcDbPolyline
 90
6
 70
0
 10
37.220141
 20
107.834911
 30
0.0
 10
36.755208
 20
107.896210
 30
0.0
 10
36.290275
 20
107.834911
 30
0.0
 10
35.857036
 20
107.655079
 30
0.0
 10
35.484954
 20
107.369019
 30
0.0
 10
35.199487
 20
106.996231
 30
0.0
  0
ENDSEC
  0
SECTION
  2
OBJECTS
  0
DICTIONARY
  5
C
330
0
100
AcDbDictionary
  3
ACAD_GROUP
350
D
  3
ACAD_MLINESTYLE
350
17
  0
DICTIONARY
  5
D
330
C
100
AcDbDictionary
  0
DICTIONARY
  5
1A
330
C
100
AcDbDictionary
  0
DICTIONARY
  5
17
330
C
100
AcDbDictionary
  3
STANDARD
350
18
  0
DICTIONARY
  5
19
330
C
100
AcDbDictionary
  0
ENDSEC
  0
EOF
