  0
SECTION
  2
HEADER
  9
$ACADVER
  1
AC1014
  9
$HANDSEED
  5
FFFF
  9
$MEASUREMENT
 70
     1
  0
ENDSEC
  0
SECTION
  2
TABLES
  0
TABLE
  2
VPORT
  5
8
330
0
100
AcDbSymbolTable
 70
     4
  0
VPORT
  5
2E
330
8
100
AcDbSymbolTableRecord
100
AcDbViewportTableRecord
  2
*ACTIVE
 70
     0
 10
0.0
 20
0.0
 11
1.0
 21
1.0
 12
210.0
 22
148.5
 13
0.0
 23
0.0
 14
10.0
 24
10.0
 15
10.0
 25
10.0
 16
0.0
 26
0.0
 36
1.0
 17
0.0
 27
0.0
 37
0.0
 40
341.0
 41
1.24
 42
50.0
 43
0.0
 44
0.0
 50
0.0
 51
0.0
 71
     0
 72
   100
 73
     1
 74
     3
 75
     0
 76
     0
 77
     0
 78
     0
  0
ENDTAB
  0
TABLE
  2
LTYPE
  5
5
330
0
100
AcDbSymbolTable
 70
     1
  0
LTYPE
  5
14
330
5
100
AcDbSymbolTableRecord
100
AcDbLinetypeTableRecord
  2
BYBLOCK
 70
     0
  3

 72
    65
 73
     0
 40
0.0
  0
LTYPE
  5
15
330
5
100
AcDbSymbolTableRecord
100
AcDbLinetypeTableRecord
  2
BYLAYER
 70
     0
  3

 72
    65
 73
     0
 40
0.0
  0
LTYPE
  5
16
330
5
100
AcDbSymbolTableRecord
100
AcDbLinetypeTableRecord
  2
CONTINUOUS
 70
     0
  3
Solid line
 72
    65
 73
     0
 40
0.0
  0
ENDTAB
  0
TABLE
  2
LAYER
  5
2
100
AcDbSymbolTable
 70
2
  0
LAYER
  5
50
100
AcDbSymbolTableRecord
100
AcDbLayerTableRecord
  2
0
 70
0
  6
CONTINUOUS
  0
LAYER
  5
51
100
AcDbSymbolTableRecord
100
AcDbLayerTableRecord
  2
Layer_1
 70
0
  6
CONTINUOUS
  0
ENDTAB
  0
TABLE
  2
STYLE
  5
3
330
0
100
AcDbSymbolTable
 70
     1
  0
STYLE
  5
11
330
3
100
AcDbSymbolTableRecord
100
AcDbTextStyleTableRecord
  2
STANDARD
 70
     0
 40
0.0
 41
1.0
 50
0.0
 71
     0
 42
2.5
  3
txt
  4

  0
ENDTAB
  0
TABLE
  2
VIEW
  5
6
330
0
100
AcDbSymbolTable
 70
     0
  0
ENDTAB
  0
TABLE
  2
UCS
  5
7
330
0
100
AcDbSymbolTable
 70
     0
  0
ENDTAB
  0
TABLE
  2
APPID
  5
9
330
0
100
AcDbSymbolTable
 70
     2
  0
APPID
  5
12
330
9
100
AcDbSymbolTableRecord
100
AcDbRegAppTableRecord
  2
ACAD
 70
     0
  0
ENDTAB
  0
TABLE
  2
DIMSTYLE
  5
A
330
0
100
AcDbSymbolTable
 70
     1
  0
DIMSTYLE
105
27
330
A
100
AcDbSymbolTableRecord
100
AcDbDimStyleTableRecord
  2
ISO-25
 70
     0
  3

  4

  5

  6

  7

 40
1.0
 41
2.5
 42
0.625
 43
3.75
 44
1.25
 45
0.0
 46
0.0
 47
0.0
 48
0.0
140
2.5
141
2.5
142
0.0
143
0.03937007874016
144
1.0
145
0.0
146
1.0
147
0.625
 71
     0
 72
     0
 73
     0
 74
     0
 75
     0
 76
     0
 77
     1
 78
     8
170
     0
171
     3
172
     1
173
     0
174
     0
175
     0
176
     0
177
     0
178
     0
270
     2
271
     2
272
     2
273
     2
274
     3
340
11
275
     0
280
     0
281
     0
282
     0
283
     0
284
     8
285
     0
286
     0
287
     3
288
     0
  0
ENDTAB
  0
TABLE
  2
BLOCK_RECORD
  5
1
330
0
100
AcDbSymbolTable
 70
     1
  0
BLOCK_RECORD
  5
1F
330
1
100
AcDbSymbolTableRecord
100
AcDbBlockTableRecord
  2
*MODEL_SPACE
  0
BLOCK_RECORD
  5
1B
330
1
100
AcDbSymbolTableRecord
100
AcDbBlockTableRecord
  2
*PAPER_SPACE
  0
ENDTAB
  0
ENDSEC
  0
SECTION
  2
BLOCKS
  0
BLOCK
  5
20
330
1F
100
AcDbEntity
  8
0
100
AcDbBlockBegin
  2
*MODEL_SPACE
 70
     0
 10
0.0
 20
0.0
 30
0.0
  3
*MODEL_SPACE
  1

  0
ENDBLK
  5
21
330
1F
100
AcDbEntity
  8
0
100
AcDbBlockEnd
  0
BLOCK
  5
1C
330
1B
100
AcDbEntity
 67
     1
  8
0
100
AcDbBlockBegin
  2
*PAPER_SPACE
  1

  0
ENDBLK
  5
1D
330
1B
100
AcDbEntity
 67
     1
  8
0
100
AcDbBlockEnd
  0
ENDSEC
  0
SECTION
  2
ENTITIES
  0
LWPOLYLINE
  5
100
100
AcDbEntity
  8
Layer_1
 62
7
100
AcDbPolyline
 90
2
 70
0
 10
-43.573110
 20
3.645793
 30
0.0
 10
-43.286429
 20
4.018665
 30
0.0
  0
LWPOLYLINE
  5
101
100
AcDbEntity
  8
Layer_1
 62
7
100
AcDbPolyline
 90
2
 70
0
 10
-43.753337
 20
3.211538
 30
0.0
 10
-43.573110
 20
3.645793
 30
0.0
  0
LWPOLYLINE
  5
102
100
AcDbEntity
  8
Layer_1
 62
7
100
AcDbPolyline
 90
2
 70
0
 10
-43.814805
 20
2.745561
 30
0.0
 10
-43.753337
 20
3.211538
 30
0.0
  0
LWPOLYLINE
  5
103
100
AcDbEntity
  8
Layer_1
 62
7
100
AcDbPolyline
 90
2
 70
0
 10
-43.753337
 20
2.279555
 30
0.0
 10
-43.814805
 20
2.745561
 30
0.0
  0
LWPOLYLINE
  5
104
100
AcDbEntity
  8
Layer_1
 62
7
100
AcDbPolyline
 90
2
 70
0
 10
-43.573110
 20
1.845328
 30
0.0
 10
-43.753337
 20
2.279555
 30
0.0
  0
LWPOLYLINE
  5
105
100
AcDbEntity
  8
Layer_1
 62
7
100
AcDbPolyline
 90
2
 70
0
 10
-43.286429
 20
1.472456
 30
0.0
 10
-43.573110
 20
1.845328
 30
0.0
  0
LWPOLYLINE
  5
106
100
AcDbEntity
  8
Layer_1
 62
7
100
AcDbPolyline
 90
2
 70
0
 10
-42.912795
 20
1.186339
 30
0.0
 10
-43.286429
 20
1.472456
 30
0.0
  0
LWPOLYLINE
  5
107
100
AcDbEntity
  8
Layer_1
 62
7
100
AcDbPolyline
 90
2
 70
0
 10
-42.477693
 20
1.006479
 30
0.0
 10
-42.912795
 20
1.186339
 30
0.0
  0
LWPOLYLINE
  5
108
100
AcDbEntity
  8
Layer_1
 62
7
100
AcDbPolyline
 90
2
 70
0
 10
-42.010784
 20
0.945096
 30
0.0
 10
-42.477693
 20
1.006479
 30
0.0
  0
LWPOLYLINE
  5
109
100
AcDbEntity
  8
Layer_1
 62
7
100
AcDbPolyline
 90
2
 70
0
 10
-41.543848
 20
1.006479
 30
0.0
 10
-42.010784
 20
0.945096
 30
0.0
  0
LWPOLYLINE
  5
10a
100
AcDbEntity
  8
Layer_1
 62
7
100
AcDbPolyline
 90
2
 70
0
 10
-41.108774
 20
1.186339
 30
0.0
 10
-41.543848
 20
1.006479
 30
0.0
  0
LWPOLYLINE
  5
10b
100
AcDbEntity
  8
Layer_1
 62
7
100
AcDbPolyline
 90
2
 70
0
 10
-40.735140
 20
1.472456
 30
0.0
 10
-41.108774
 20
1.186339
 30
0.0
  0
LWPOLYLINE
  5
10c
100
AcDbEntity
  8
Layer_1
 62
7
100
AcDbPolyline
 90
2
 70
0
 10
-40.448459
 20
1.845328
 30
0.0
 10
-40.735140
 20
1.472456
 30
0.0
  0
LWPOLYLINE
  5
10d
100
AcDbEntity
  8
Layer_1
 62
7
100
AcDbPolyline
 90
2
 70
0
 10
-40.268231
 20
2.279555
 30
0.0
 10
-40.448459
 20
1.845328
 30
0.0
  0
LWPOLYLINE
  5
10e
100
AcDbEntity
  8
Layer_1
 62
7
100
AcDbPolyline
 90
2
 70
0
 10
-40.206763
 20
2.745561
 30
0.0
 10
-40.268231
 20
2.279555
 30
0.0
  0
LWPOLYLINE
  5
10f
100
AcDbEntity
  8
Layer_1
 62
7
100
AcDbPolyline
 90
2
 70
0
 10
-40.268231
 20
3.211538
 30
0.0
 10
-40.206763
 20
2.745561
 30
0.0
  0
LWPOLYLINE
  5
110
100
AcDbEntity
  8
Layer_1
 62
7
100
AcDbPolyline
 90
2
 70
0
 10
-40.448459
 20
3.645793
 30
0.0
 10
-40.268231
 20
3.211538
 30
0.0
  0
LWPOLYLINE
  5
111
100
AcDbEntity
  8
Layer_1
 62
7
100
AcDbPolyline
 90
2
 70
0
 10
-40.735140
 20
4.018665
 30
0.0
 10
-40.448459
 20
3.645793
 30
0.0
  0
LWPOLYLINE
  5
112
100
AcDbEntity
  8
Layer_1
 62
7
100
AcDbPolyline
 90
2
 70
0
 10
-41.108774
 20
4.304782
 30
0.0
 10
-40.735140
 20
4.018665
 30
0.0
  0
LWPOLYLINE
  5
113
100
AcDbEntity
  8
Layer_1
 62
7
100
AcDbPolyline
 90
2
 70
0
 10
-41.543848
 20
4.484642
 30
0.0
 10
-41.108774
 20
4.304782
 30
0.0
  0
LWPOLYLINE
  5
114
100
AcDbEntity
  8
Layer_1
 62
7
100
AcDbPolyline
 90
2
 70
0
 10
-42.010784
 20
4.545969
 30
0.0
 10
-41.543848
 20
4.484642
 30
0.0
  0
LWPOLYLINE
  5
115
100
AcDbEntity
  8
Layer_1
 62
7
100
AcDbPolyline
 90
2
 70
0
 10
-42.477693
 20
4.484642
 30
0.0
 10
-42.010784
 20
4.545969
 30
0.0
  0
LWPOLYLINE
  5
116
100
AcDbEntity
  8
Layer_1
 62
7
100
AcDbPolyline
 90
2
 70
0
 10
-42.912795
 20
4.304782
 30
0.0
 10
-42.477693
 20
4.484642
 30
0.0
  0
LWPOLYLINE
  5
117
100
AcDbEntity
  8
Layer_1
 62
7
100
AcDbPolyline
 90
2
 70
0
 10
-43.286429
 20
4.018665
 30
0.0
 10
-42.912795
 20
4.304782
 30
0.0
  0
LWPOLYLINE
  5
118
100
AcDbEntity
  8
Layer_1
 62
7
100
AcDbPolyline
 90
25
 70
0
 10
-87.921567
 20
34.419843
 30
0.0
 10
-87.741339
 20
33.985644
 30
0.0
 10
-87.454658
 20
33.612772
 30
0.0
 10
-87.081024
 20
33.326627
 30
0.0
 10
-86.645922
 20
33.146767
 30
0.0
 10
-86.179014
 20
33.085412
 30
0.0
 10
-85.712105
 20
33.146767
 30
0.0
 10
-85.277003
 20
33.326627
 30
0.0
 10
-84.903369
 20
33.612772
 30
0.0
 10
-84.616688
 20
33.985644
 30
0.0
 10
-84.436461
 20
34.419843
 30
0.0
 10
-84.374993
 20
34.885846
 30
0.0
 10
-84.436461
 20
35.351854
 30
0.0
 10
-84.616688
 20
35.786081
 30
0.0
 10
-84.903369
 20
36.158953
 30
0.0
 10
-85.277003
 20
36.445070
 30
0.0
 10
-85.712105
 20
36.624930
 30
0.0
 10
-86.179014
 20
36.686314
 30
0.0
 10
-86.645922
 20
36.624930
 30
0.0
 10
-87.081024
 20
36.445070
 30
0.0
 10
-87.454658
 20
36.158953
 30
0.0
 10
-87.741339
 20
35.786081
 30
0.0
 10
-87.921567
 20
35.351854
 30
0.0
 10
-87.983035
 20
34.885846
 30
0.0
 10
-87.921567
 20
34.419843
 30
0.0
  0
LWPOLYLINE
  5
119
100
AcDbEntity
  8
Layer_1
 62
7
100
AcDbPolyline
 90
25
 70
0
 10
-67.350727
 20
20.152999
 30
0.0
 10
-67.785829
 20
20.332859
 30
0.0
 10
-68.252738
 20
20.394186
 30
0.0
 10
-68.719646
 20
20.332859
 30
0.0
 10
-69.154748
 20
20.152999
 30
0.0
 10
-69.528382
 20
19.866854
 30
0.0
 10
-69.815064
 20
19.493982
 30
0.0
 10
-69.995291
 20
19.059755
 30
0.0
 10
-70.056759
 20
18.593775
 30
0.0
 10
-69.995291
 20
18.127772
 30
0.0
 10
-69.815064
 20
17.693545
 30
0.0
 10
-69.528382
 20
17.320673
 30
0.0
 10
-69.154748
 20
17.034556
 30
0.0
 10
-68.719646
 20
16.854668
 30
0.0
 10
-68.252738
 20
16.793313
 30
0.0
 10
-67.785829
 20
16.854668
 30
0.0
 10
-67.350727
 20
17.034556
 30
0.0
 10
-66.977093
 20
17.320673
 30
0.0
 10
-66.690412
 20
17.693545
 30
0.0
 10
-66.510185
 20
18.127772
 30
0.0
 10
-66.448717
 20
18.593775
 30
0.0
 10
-66.510185
 20
19.059755
 30
0.0
 10
-66.690412
 20
19.493982
 30
0.0
 10
-66.977093
 20
19.866854
 30
0.0
 10
-67.350727
 20
20.152999
 30
0.0
  0
LWPOLYLINE
  5
11a
100
AcDbEntity
  8
Layer_1
 62
7
100
AcDbPolyline
 90
25
 70
0
 10
-87.948999
 20
47.486673
 30
0.0
 10
-86.982105
 20
47.086962
 30
0.0
 10
-85.944515
 20
46.950648
 30
0.0
 10
-84.906925
 20
47.086962
 30
0.0
 10
-83.940032
 20
47.486673
 30
0.0
 10
-83.109762
 20
48.122491
 30
0.0
 10
-82.472674
 20
48.951124
 30
0.0
 10
-82.072172
 20
49.916070
 30
0.0
 10
-81.935577
 20
50.951600
 30
0.0
 10
-82.072172
 20
51.987130
 30
0.0
 10
-82.472674
 20
52.952076
 30
0.0
 10
-83.109762
 20
53.780736
 30
0.0
 10
-83.940032
 20
54.416527
 30
0.0
 10
-84.906925
 20
54.816238
 30
0.0
 10
-85.944515
 20
54.952551
 30
0.0
 10
-86.982105
 20
54.816238
 30
0.0
 10
-87.948999
 20
54.416527
 30
0.0
 10
-88.779268
 20
53.780736
 30
0.0
 10
-89.416385
 20
52.952076
 30
0.0
 10
-89.816886
 20
51.987130
 30
0.0
 10
-89.953482
 20
50.951600
 30
0.0
 10
-89.816886
 20
49.916070
 30
0.0
 10
-89.416385
 20
48.951124
 30
0.0
 10
-88.779268
 20
48.122491
 30
0.0
 10
-87.948999
 20
47.486673
 30
0.0
  0
LWPOLYLINE
  5
11b
100
AcDbEntity
  8
Layer_1
 62
5
100
AcDbPolyline
 90
43
 70
0
 10
301.350748
 20
10.481162
 30
0.0
 10
301.350748
 20
15.182532
 30
0.0
 10
289.127957
 20
15.182532
 30
0.0
 10
289.127957
 20
21.883702
 30
0.0
 10
301.350748
 20
21.883702
 30
0.0
 10
301.350748
 20
60.093176
 30
0.0
 10
296.339582
 20
65.094379
 30
0.0
 10
279.005352
 20
65.094379
 30
0.0
 10
273.994158
 20
60.093176
 30
0.0
 10
273.994158
 20
38.318543
 30
0.0
 10
237.836693
 20
26.585072
 30
0.0
 10
237.836693
 20
21.883702
 30
0.0
 10
246.702055
 20
21.883702
 30
0.0
 10
246.702055
 20
15.295557
 30
0.0
 10
101.184129
 20
15.442549
 30
0.0
 10
101.204166
 20
10.155678
 30
0.0
 10
103.004123
 20
10.155678
 30
0.0
 10
103.004123
 20
5.065885
 30
0.0
 10
101.204166
 20
5.065885
 30
0.0
 10
101.204166
 20
1.123776
 30
0.0
 10
96.804209
 20
1.123776
 30
0.0
 10
96.804209
 20
5.065885
 30
0.0
 10
95.004224
 20
5.065885
 30
0.0
 10
95.004224
 20
10.155678
 30
0.0
 10
96.804209
 20
10.155678
 30
0.0
 10
96.814651
 20
15.442549
 30
0.0
 10
-47.116325
 20
15.324953
 30
0.0
 10
-47.105601
 20
21.881991
 30
0.0
 10
-38.947234
 20
21.881991
 30
0.0
 10
-38.947177
 20
26.583348
 30
0.0
 10
-74.421579
 20
38.332341
 30
0.0
 10
-74.418757
 20
60.153681
 30
0.0
 10
-79.429951
 20
65.154885
 30
0.0
 10
-96.764181
 20
65.154885
 30
0.0
 10
-101.775347
 20
60.153681
 30
0.0
 10
-101.775347
 20
21.944207
 30
0.0
 10
-89.552557
 20
21.944207
 30
0.0
 10
-89.552557
 20
15.243038
 30
0.0
 10
-101.775347
 20
15.243038
 30
0.0
 10
-101.789402
 20
10.480880
 30
0.0
 10
-45.231956
 20
-11.672758
 30
0.0
 10
244.567608
 20
-11.660199
 30
0.0
 10
301.350776
 20
10.480882
 30
0.0
  0
LWPOLYLINE
  5
11c
100
AcDbEntity
  8
Layer_1
 62
7
100
AcDbPolyline
 90
2
 70
0
 10
243.148482
 20
3.585144
 30
0.0
 10
242.861801
 20
3.958016
 30
0.0
  0
LWPOLYLINE
  5
11d
100
AcDbEntity
  8
Layer_1
 62
7
100
AcDbPolyline
 90
2
 70
0
 10
243.328709
 20
3.150888
 30
0.0
 10
243.148482
 20
3.585144
 30
0.0
  0
LWPOLYLINE
  5
11e
100
AcDbEntity
  8
Layer_1
 62
7
100
AcDbPolyline
 90
2
 70
0
 10
243.390177
 20
2.684911
 30
0.0
 10
243.328709
 20
3.150888
 30
0.0
  0
LWPOLYLINE
  5
11f
100
AcDbEntity
  8
Layer_1
 62
7
100
AcDbPolyline
 90
2
 70
0
 10
243.328709
 20
2.218906
 30
0.0
 10
243.390177
 20
2.684911
 30
0.0
  0
LWPOLYLINE
  5
120
100
AcDbEntity
  8
Layer_1
 62
7
100
AcDbPolyline
 90
2
 70
0
 10
243.148482
 20
1.784676
 30
0.0
 10
243.328709
 20
2.218906
 30
0.0
  0
LWPOLYLINE
  5
121
100
AcDbEntity
  8
Layer_1
 62
7
100
AcDbPolyline
 90
2
 70
0
 10
242.861801
 20
1.411804
 30
0.0
 10
243.148482
 20
1.784676
 30
0.0
  0
LWPOLYLINE
  5
122
100
AcDbEntity
  8
Layer_1
 62
7
100
AcDbPolyline
 90
2
 70
0
 10
242.488167
 20
1.125690
 30
0.0
 10
242.861801
 20
1.411804
 30
0.0
  0
LWPOLYLINE
  5
123
100
AcDbEntity
  8
Layer_1
 62
7
100
AcDbPolyline
 90
2
 70
0
 10
242.053065
 20
0.945830
 30
0.0
 10
242.488167
 20
1.125690
 30
0.0
  0
LWPOLYLINE
  5
124
100
AcDbEntity
  8
Layer_1
 62
7
100
AcDbPolyline
 90
2
 70
0
 10
241.586156
 20
0.884446
 30
0.0
 10
242.053065
 20
0.945830
 30
0.0
  0
LWPOLYLINE
  5
125
100
AcDbEntity
  8
Layer_1
 62
7
100
AcDbPolyline
 90
2
 70
0
 10
241.119220
 20
0.945830
 30
0.0
 10
241.586156
 20
0.884446
 30
0.0
  0
LWPOLYLINE
  5
126
100
AcDbEntity
  8
Layer_1
 62
7
100
AcDbPolyline
 90
2
 70
0
 10
240.684146
 20
1.125690
 30
0.0
 10
241.119220
 20
0.945830
 30
0.0
  0
LWPOLYLINE
  5
127
100
AcDbEntity
  8
Layer_1
 62
7
100
AcDbPolyline
 90
2
 70
0
 10
240.310512
 20
1.411804
 30
0.0
 10
240.684146
 20
1.125690
 30
0.0
  0
LWPOLYLINE
  5
128
100
AcDbEntity
  8
Layer_1
 62
7
100
AcDbPolyline
 90
2
 70
0
 10
240.023831
 20
1.784676
 30
0.0
 10
240.310512
 20
1.411804
 30
0.0
  0
LWPOLYLINE
  5
129
100
AcDbEntity
  8
Layer_1
 62
7
100
AcDbPolyline
 90
2
 70
0
 10
239.843604
 20
2.218906
 30
0.0
 10
240.023831
 20
1.784676
 30
0.0
  0
LWPOLYLINE
  5
12a
100
AcDbEntity
  8
Layer_1
 62
7
100
AcDbPolyline
 90
2
 70
0
 10
239.782136
 20
2.684911
 30
0.0
 10
239.843604
 20
2.218906
 30
0.0
  0
LWPOLYLINE
  5
12b
100
AcDbEntity
  8
Layer_1
 62
7
100
AcDbPolyline
 90
2
 70
0
 10
239.843604
 20
3.150888
 30
0.0
 10
239.782136
 20
2.684911
 30
0.0
  0
LWPOLYLINE
  5
12c
100
AcDbEntity
  8
Layer_1
 62
7
100
AcDbPolyline
 90
2
 70
0
 10
240.023831
 20
3.585144
 30
0.0
 10
239.843604
 20
3.150888
 30
0.0
  0
LWPOLYLINE
  5
12d
100
AcDbEntity
  8
Layer_1
 62
7
100
AcDbPolyline
 90
2
 70
0
 10
240.310512
 20
3.958016
 30
0.0
 10
240.023831
 20
3.585144
 30
0.0
  0
LWPOLYLINE
  5
12e
100
AcDbEntity
  8
Layer_1
 62
7
100
AcDbPolyline
 90
2
 70
0
 10
240.684146
 20
4.244132
 30
0.0
 10
240.310512
 20
3.958016
 30
0.0
  0
LWPOLYLINE
  5
12f
100
AcDbEntity
  8
Layer_1
 62
7
100
AcDbPolyline
 90
2
 70
0
 10
241.119220
 20
4.423990
 30
0.0
 10
240.684146
 20
4.244132
 30
0.0
  0
LWPOLYLINE
  5
130
100
AcDbEntity
  8
Layer_1
 62
7
100
AcDbPolyline
 90
2
 70
0
 10
241.586156
 20
4.485320
 30
0.0
 10
241.119220
 20
4.423990
 30
0.0
  0
LWPOLYLINE
  5
131
100
AcDbEntity
  8
Layer_1
 62
7
100
AcDbPolyline
 90
2
 70
0
 10
242.053065
 20
4.423990
 30
0.0
 10
241.586156
 20
4.485320
 30
0.0
  0
LWPOLYLINE
  5
132
100
AcDbEntity
  8
Layer_1
 62
7
100
AcDbPolyline
 90
2
 70
0
 10
242.488167
 20
4.244132
 30
0.0
 10
242.053065
 20
4.423990
 30
0.0
  0
LWPOLYLINE
  5
133
100
AcDbEntity
  8
Layer_1
 62
7
100
AcDbPolyline
 90
2
 70
0
 10
242.861801
 20
3.958016
 30
0.0
 10
242.488167
 20
4.244132
 30
0.0
  0
LWPOLYLINE
  5
134
100
AcDbEntity
  8
Layer_1
 62
7
100
AcDbPolyline
 90
25
 70
0
 10
287.496939
 20
34.359191
 30
0.0
 10
287.316712
 20
33.924992
 30
0.0
 10
287.030030
 20
33.552120
 30
0.0
 10
286.656396
 20
33.265975
 30
0.0
 10
286.221294
 20
33.086115
 30
0.0
 10
285.754386
 20
33.024760
 30
0.0
 10
285.287477
 20
33.086115
 30
0.0
 10
284.852375
 20
33.265975
 30
0.0
 10
284.478741
 20
33.552120
 30
0.0
 10
284.192060
 20
33.924992
 30
0.0
 10
284.011833
 20
34.359191
 30
0.0
 10
283.950365
 20
34.825196
 30
0.0
 10
284.011833
 20
35.291202
 30
0.0
 10
284.192060
 20
35.725429
 30
0.0
 10
284.478741
 20
36.098298
 30
0.0
 10
284.852375
 20
36.384418
 30
0.0
 10
285.287477
 20
36.564278
 30
0.0
 10
285.754386
 20
36.625661
 30
0.0
 10
286.221294
 20
36.564278
 30
0.0
 10
286.656396
 20
36.384418
 30
0.0
 10
287.030030
 20
36.098298
 30
0.0
 10
287.316712
 20
35.725429
 30
0.0
 10
287.496939
 20
35.291202
 30
0.0
 10
287.558407
 20
34.825196
 30
0.0
 10
287.496939
 20
34.359191
 30
0.0
  0
LWPOLYLINE
  5
135
100
AcDbEntity
  8
Layer_1
 62
7
100
AcDbPolyline
 90
25
 70
0
 10
266.926100
 20
20.092350
 30
0.0
 10
267.361202
 20
20.272210
 30
0.0
 10
267.828110
 20
20.333537
 30
0.0
 10
268.295018
 20
20.272210
 30
0.0
 10
268.730120
 20
20.092350
 30
0.0
 10
269.103754
 20
19.806204
 30
0.0
 10
269.390436
 20
19.433332
 30
0.0
 10
269.570663
 20
18.999105
 30
0.0
 10
269.632131
 20
18.533128
 30
0.0
 10
269.570663
 20
18.067123
 30
0.0
 10
269.390436
 20
17.632896
 30
0.0
 10
269.103754
 20
17.260024
 30
0.0
 10
268.730120
 20
16.973907
 30
0.0
 10
268.295018
 20
16.794018
 30
0.0
 10
267.828110
 20
16.732663
 30
0.0
 10
267.361202
 20
16.794018
 30
0.0
 10
266.926100
 20
16.973907
 30
0.0
 10
266.552466
 20
17.260024
 30
0.0
 10
266.265784
 20
17.632896
 30
0.0
 10
266.085557
 20
18.067123
 30
0.0
 10
266.024089
 20
18.533128
 30
0.0
 10
266.085557
 20
18.999105
 30
0.0
 10
266.265784
 20
19.433332
 30
0.0
 10
266.552466
 20
19.806204
 30
0.0
 10
266.926100
 20
20.092350
 30
0.0
  0
LWPOLYLINE
  5
136
100
AcDbEntity
  8
Layer_1
 62
7
100
AcDbPolyline
 90
25
 70
0
 10
287.524371
 20
47.426023
 30
0.0
 10
286.557477
 20
47.026312
 30
0.0
 10
285.519887
 20
46.889999
 30
0.0
 10
284.482297
 20
47.026312
 30
0.0
 10
283.515404
 20
47.426023
 30
0.0
 10
282.685134
 20
48.061842
 30
0.0
 10
282.048046
 20
48.890474
 30
0.0
 10
281.647544
 20
49.855420
 30
0.0
 10
281.510949
 20
50.890950
 30
0.0
 10
281.647544
 20
51.926480
 30
0.0
 10
282.048046
 20
52.891426
 30
0.0
 10
282.685134
 20
53.720087
 30
0.0
 10
283.515404
 20
54.355877
 30
0.0
 10
284.482297
 20
54.755588
 30
0.0
 10
285.519887
 20
54.891899
 30
0.0
 10
286.557477
 20
54.755588
 30
0.0
 10
287.524371
 20
54.355877
 30
0.0
 10
288.354640
 20
53.720087
 30
0.0
 10
288.991757
 20
52.891426
 30
0.0
 10
289.392258
 20
51.926480
 30
0.0
 10
289.528854
 20
50.890950
 30
0.0
 10
289.392258
 20
49.855420
 30
0.0
 10
288.991757
 20
48.890474
 30
0.0
 10
288.354640
 20
48.061842
 30
0.0
 10
287.524371
 20
47.426023
 30
0.0
  0
ENDSEC
  0
SECTION
  2
OBJECTS
  0
DICTIONARY
  5
C
330
0
100
AcDbDictionary
  3
ACAD_GROUP
350
D
  3
ACAD_MLINESTYLE
350
17
  0
DICTIONARY
  5
D
330
C
100
AcDbDictionary
  0
DICTIONARY
  5
1A
330
C
100
AcDbDictionary
  0
DICTIONARY
  5
17
330
C
100
AcDbDictionary
  3
STANDARD
350
18
  0
DICTIONARY
  5
19
330
C
100
AcDbDictionary
  0
ENDSEC
  0
EOF
