solid OpenSCAD_Model
  facet normal -0.0871546 -0.996195 0
    outer loop
      vertex 39.6614 -14.607 24.2
      vertex 39.1633 -14.5635 24.2433
      vertex 39.1633 -14.5635 24.2
    endloop
  endfacet
  facet normal -0.0871557 -0.996195 2.96751e-09
    outer loop
      vertex 46.8613 -15.2369 30.4575
      vertex 71.1411 -17.3612 32.1
      vertex 47.0333 -15.252 32.1
    endloop
  endfacet
  facet normal -0.0871557 -0.996195 1.45204e-07
    outer loop
      vertex 70.4424 -17.3 25.426
      vertex 46.8613 -15.2369 30.4575
      vertex 46.3529 -15.1925 28.8868
    endloop
  endfacet
  facet normal -0.087156 -0.996195 -5.11284e-07
    outer loop
      vertex 68.3765 -17.1193 19.0438
      vertex 46.3529 -15.1925 28.8868
      vertex 45.5302 -15.1205 27.4565
    endloop
  endfacet
  facet normal -0.0871555 -0.996195 3.87078e-07
    outer loop
      vertex 65.0339 -16.8268 13.2321
      vertex 45.5302 -15.1205 27.4565
      vertex 44.4293 -15.0242 26.2291
    endloop
  endfacet
  facet normal -0.0871557 -0.996195 1.30483e-08
    outer loop
      vertex 46.8613 -15.2369 30.4575
      vertex 70.4424 -17.3 25.426
      vertex 71.1411 -17.3612 32.1
    endloop
  endfacet
  facet normal -0.0871559 -0.996195 -1.47149e-07
    outer loop
      vertex 60.5607 -16.4355 8.24506
      vertex 44.4293 -15.0242 26.2291
      vertex 43.0983 -14.9077 25.2584
    endloop
  endfacet
  facet normal -0.0871556 -0.996195 7.42586e-08
    outer loop
      vertex 55.1522 -15.9623 4.30059
      vertex 43.0983 -14.9077 25.2584
      vertex 41.5953 -14.7762 24.5866
    endloop
  endfacet
  facet normal -0.0871557 -0.996195 1.65876e-08
    outer loop
      vertex 49.045 -15.428 1.5711
      vertex 41.5953 -14.7762 24.5866
      vertex 39.9859 -14.6354 24.2433
    endloop
  endfacet
  facet normal -0.0871557 -0.996195 -1.35296e-05
    outer loop
      vertex 39.1633 -14.5635 24.2433
      vertex 39.6614 -14.607 24.2
      vertex 39.9859 -14.6354 24.2433
    endloop
  endfacet
  facet normal -0.0871575 -0.996195 -2.0689e-07
    outer loop
      vertex 42.5059 -14.8559 0.175857
      vertex 39.9859 -14.6354 24.2433
      vertex 39.6614 -14.607 24.2
    endloop
  endfacet
  facet normal -0.0871557 -0.996195 7.42713e-08
    outer loop
      vertex 46.3529 -15.1925 28.8868
      vertex 68.3765 -17.1193 19.0438
      vertex 70.4424 -17.3 25.426
    endloop
  endfacet
  facet normal -0.0871558 -0.996195 -1.14273e-07
    outer loop
      vertex 45.5302 -15.1205 27.4565
      vertex 65.0339 -16.8268 13.2321
      vertex 68.3765 -17.1193 19.0438
    endloop
  endfacet
  facet normal -0.0871557 -0.996195 4.28113e-08
    outer loop
      vertex 44.4293 -15.0242 26.2291
      vertex 60.5607 -16.4355 8.24506
      vertex 65.0339 -16.8268 13.2321
    endloop
  endfacet
  facet normal -0.0871558 -0.996195 -4.17356e-08
    outer loop
      vertex 43.0983 -14.9077 25.2584
      vertex 55.1522 -15.9623 4.30059
      vertex 60.5607 -16.4355 8.24506
    endloop
  endfacet
  facet normal -0.0871557 -0.996195 3.03369e-08
    outer loop
      vertex 41.5953 -14.7762 24.5866
      vertex 49.045 -15.428 1.5711
      vertex 55.1522 -15.9623 4.30059
    endloop
  endfacet
  facet normal -0.0871557 -0.996195 0
    outer loop
      vertex 42.5059 -14.8559 0.175857
      vertex 39.6614 -14.607 24.2
      vertex 39.6614 -14.607 0.175857
    endloop
  endfacet
  facet normal -0.0871558 -0.996195 -3.23606e-08
    outer loop
      vertex 39.9859 -14.6354 24.2433
      vertex 42.5059 -14.8559 0.175857
      vertex 49.045 -15.428 1.5711
    endloop
  endfacet
  facet normal 0 0 1
    outer loop
      vertex 40.8367 4.56346 24.2433
      vertex 39.9859 -14.6354 24.2433
      vertex 41.6593 4.49149 24.2433
    endloop
  endfacet
  facet normal 0 -0 1
    outer loop
      vertex 39.9859 -14.6354 24.2433
      vertex 40.8367 4.56346 24.2433
      vertex 39.1633 -14.5635 24.2433
    endloop
  endfacet
  facet normal 0 0 -1
    outer loop
      vertex 42.5059 -14.8559 0.175857
      vertex 41.3348 4.51988 0.175857
      vertex 44.1793 4.27102 0.175857
    endloop
  endfacet
  facet normal 0 -0 -1
    outer loop
      vertex 41.3348 4.51988 0.175857
      vertex 42.5059 -14.8559 0.175857
      vertex 39.6614 -14.607 0.175857
    endloop
  endfacet
  facet normal -0.20712 0.0181207 0.978148
    outer loop
      vertex 41.6593 4.49149 24.2433
      vertex 41.5953 -14.7762 24.5866
      vertex 43.2686 4.35069 24.5866
    endloop
  endfacet
  facet normal -0.20712 0.0181207 0.978148
    outer loop
      vertex 41.5953 -14.7762 24.5866
      vertex 41.6593 4.49149 24.2433
      vertex 39.9859 -14.6354 24.2433
    endloop
  endfacet
  facet normal 0.20712 -0.0181207 -0.978148
    outer loop
      vertex 49.045 -15.428 1.5711
      vertex 44.1793 4.27102 0.175857
      vertex 50.7184 3.69892 1.5711
    endloop
  endfacet
  facet normal 0.207121 -0.0181207 -0.978148
    outer loop
      vertex 44.1793 4.27102 0.175857
      vertex 49.045 -15.428 1.5711
      vertex 42.5059 -14.8559 0.175857
    endloop
  endfacet
  facet normal -0.405189 0.0354495 0.913545
    outer loop
      vertex 43.2686 4.35069 24.5866
      vertex 43.0983 -14.9077 25.2584
      vertex 44.7717 4.21919 25.2584
    endloop
  endfacet
  facet normal -0.405189 0.0354495 0.913545
    outer loop
      vertex 43.0983 -14.9077 25.2584
      vertex 43.2686 4.35069 24.5866
      vertex 41.5953 -14.7762 24.5866
    endloop
  endfacet
  facet normal 0.405189 -0.0354495 -0.913545
    outer loop
      vertex 55.1522 -15.9623 4.30059
      vertex 50.7184 3.69892 1.5711
      vertex 56.8256 3.16461 4.30059
    endloop
  endfacet
  facet normal 0.405189 -0.0354495 -0.913545
    outer loop
      vertex 50.7184 3.69892 1.5711
      vertex 55.1522 -15.9623 4.30059
      vertex 49.045 -15.428 1.5711
    endloop
  endfacet
  facet normal -0.585548 0.0512288 0.809018
    outer loop
      vertex 44.7717 4.21919 25.2584
      vertex 44.4293 -15.0242 26.2291
      vertex 46.1027 4.10274 26.2291
    endloop
  endfacet
  facet normal -0.585548 0.0512288 0.809018
    outer loop
      vertex 44.4293 -15.0242 26.2291
      vertex 44.7717 4.21919 25.2584
      vertex 43.0983 -14.9077 25.2584
    endloop
  endfacet
  facet normal 0.585549 -0.0512289 -0.809017
    outer loop
      vertex 60.5607 -16.4355 8.24506
      vertex 56.8256 3.16461 4.30059
      vertex 62.234 2.69143 8.24506
    endloop
  endfacet
  facet normal 0.585549 -0.0512289 -0.809017
    outer loop
      vertex 56.8256 3.16461 4.30059
      vertex 60.5607 -16.4355 8.24506
      vertex 55.1522 -15.9623 4.30059
    endloop
  endfacet
  facet normal -0.740318 0.0647695 0.669129
    outer loop
      vertex 44.4293 -15.0242 26.2291
      vertex 47.2036 4.00643 27.4565
      vertex 46.1027 4.10274 26.2291
    endloop
  endfacet
  facet normal -0.740317 0.0647692 0.669131
    outer loop
      vertex 47.2036 4.00643 27.4565
      vertex 44.4293 -15.0242 26.2291
      vertex 45.5302 -15.1205 27.4565
    endloop
  endfacet
  facet normal 0.740317 -0.0647694 -0.669131
    outer loop
      vertex 66.7073 2.30007 13.2321
      vertex 60.5607 -16.4355 8.24506
      vertex 62.234 2.69143 8.24506
    endloop
  endfacet
  facet normal 0.740317 -0.0647695 -0.66913
    outer loop
      vertex 60.5607 -16.4355 8.24506
      vertex 66.7073 2.30007 13.2321
      vertex 65.0339 -16.8268 13.2321
    endloop
  endfacet
  facet normal -0.862729 0.0754789 0.500001
    outer loop
      vertex 45.5302 -15.1205 27.4565
      vertex 48.0262 3.93446 28.8868
      vertex 47.2036 4.00643 27.4565
    endloop
  endfacet
  facet normal -0.86273 0.0754792 0.499999
    outer loop
      vertex 48.0262 3.93446 28.8868
      vertex 45.5302 -15.1205 27.4565
      vertex 46.3529 -15.1925 28.8868
    endloop
  endfacet
  facet normal 0.86273 -0.0754793 -0.5
    outer loop
      vertex 70.0499 2.00764 19.0438
      vertex 65.0339 -16.8268 13.2321
      vertex 66.7073 2.30007 13.2321
    endloop
  endfacet
  facet normal 0.86273 -0.0754789 -0.5
    outer loop
      vertex 65.0339 -16.8268 13.2321
      vertex 70.0499 2.00764 19.0438
      vertex 68.3765 -17.1193 19.0438
    endloop
  endfacet
  facet normal -0.947437 0.0828901 0.309017
    outer loop
      vertex 46.3529 -15.1925 28.8868
      vertex 48.5347 3.88998 30.4575
      vertex 48.0262 3.93446 28.8868
    endloop
  endfacet
  facet normal -0.947437 0.0828901 0.309017
    outer loop
      vertex 48.5347 3.88998 30.4575
      vertex 46.3529 -15.1925 28.8868
      vertex 46.8613 -15.2369 30.4575
    endloop
  endfacet
  facet normal 0.947438 -0.0828899 -0.309017
    outer loop
      vertex 72.1157 1.8269 25.426
      vertex 68.3765 -17.1193 19.0438
      vertex 70.0499 2.00764 19.0438
    endloop
  endfacet
  facet normal 0.947438 -0.0828899 -0.309017
    outer loop
      vertex 68.3765 -17.1193 19.0438
      vertex 72.1157 1.8269 25.426
      vertex 70.4424 -17.3 25.426
    endloop
  endfacet
  facet normal -0.990737 0.0866783 0.104529
    outer loop
      vertex 46.8613 -15.2369 30.4575
      vertex 48.7066 3.87493 32.1
      vertex 48.5347 3.88998 30.4575
    endloop
  endfacet
  facet normal -0.990737 0.0866783 0.104529
    outer loop
      vertex 48.7066 3.87493 32.1
      vertex 46.8613 -15.2369 30.4575
      vertex 47.0333 -15.252 32.1
    endloop
  endfacet
  facet normal 0.990737 -0.0866781 -0.104529
    outer loop
      vertex 72.8145 1.76576 32.1
      vertex 70.4424 -17.3 25.426
      vertex 72.1157 1.8269 25.426
    endloop
  endfacet
  facet normal 0.990737 -0.0866785 -0.104528
    outer loop
      vertex 70.4424 -17.3 25.426
      vertex 72.8145 1.76576 32.1
      vertex 71.1411 -17.3612 32.1
    endloop
  endfacet
  facet normal 0.0871557 0.996195 1.42564e-07
    outer loop
      vertex 72.8145 1.76576 32.1
      vertex 48.5347 3.88998 30.4575
      vertex 48.7066 3.87493 32.1
    endloop
  endfacet
  facet normal 0.0871557 0.996195 -7.76535e-08
    outer loop
      vertex 72.1157 1.8269 25.426
      vertex 48.5347 3.88998 30.4575
      vertex 72.8145 1.76576 32.1
    endloop
  endfacet
  facet normal 0.0871557 0.996195 -1.50997e-07
    outer loop
      vertex 48.5347 3.88998 30.4575
      vertex 72.1157 1.8269 25.426
      vertex 48.0262 3.93446 28.8868
    endloop
  endfacet
  facet normal 0.0871558 0.996195 8.83659e-09
    outer loop
      vertex 70.0499 2.00764 19.0438
      vertex 48.0262 3.93446 28.8868
      vertex 72.1157 1.8269 25.426
    endloop
  endfacet
  facet normal 0.0871558 0.996195 6.51244e-08
    outer loop
      vertex 48.0262 3.93446 28.8868
      vertex 70.0499 2.00764 19.0438
      vertex 47.2036 4.00643 27.4565
    endloop
  endfacet
  facet normal 0.0871558 0.996195 5.98024e-08
    outer loop
      vertex 66.7073 2.30007 13.2321
      vertex 47.2036 4.00643 27.4565
      vertex 70.0499 2.00764 19.0438
    endloop
  endfacet
  facet normal 0.0871557 0.996195 2.25382e-08
    outer loop
      vertex 47.2036 4.00643 27.4565
      vertex 66.7073 2.30007 13.2321
      vertex 46.1027 4.10274 26.2291
    endloop
  endfacet
  facet normal 0.0871557 0.996195 -4.70637e-09
    outer loop
      vertex 62.234 2.69143 8.24506
      vertex 46.1027 4.10274 26.2291
      vertex 66.7073 2.30007 13.2321
    endloop
  endfacet
  facet normal 0.0871553 0.996195 5.58247e-06
    outer loop
      vertex 41.6593 4.49149 24.2433
      vertex 41.3348 4.51988 24.2
      vertex 40.8367 4.56346 24.2433
    endloop
  endfacet
  facet normal 0.0871557 0.996195 -4.63678e-08
    outer loop
      vertex 46.1027 4.10274 26.2291
      vertex 62.234 2.69143 8.24506
      vertex 44.7717 4.21919 25.2584
    endloop
  endfacet
  facet normal 0.0871557 0.996195 6.14786e-09
    outer loop
      vertex 56.8256 3.16461 4.30059
      vertex 44.7717 4.21919 25.2584
      vertex 62.234 2.69143 8.24506
    endloop
  endfacet
  facet normal 0.0871558 0.996195 7.03447e-08
    outer loop
      vertex 44.7717 4.21919 25.2584
      vertex 56.8256 3.16461 4.30059
      vertex 43.2686 4.35069 24.5866
    endloop
  endfacet
  facet normal 0.0871557 0.996195 -8.34242e-09
    outer loop
      vertex 50.7184 3.69892 1.5711
      vertex 43.2686 4.35069 24.5866
      vertex 56.8256 3.16461 4.30059
    endloop
  endfacet
  facet normal 0.0871557 0.996195 -1.65876e-08
    outer loop
      vertex 43.2686 4.35069 24.5866
      vertex 50.7184 3.69892 1.5711
      vertex 41.6593 4.49149 24.2433
    endloop
  endfacet
  facet normal 0.0871557 0.996195 -1.31048e-08
    outer loop
      vertex 44.1793 4.27102 0.175857
      vertex 41.6593 4.49149 24.2433
      vertex 50.7184 3.69892 1.5711
    endloop
  endfacet
  facet normal 0.0871561 0.996195 2.2655e-08
    outer loop
      vertex 41.6593 4.49149 24.2433
      vertex 44.1793 4.27102 0.175857
      vertex 41.3348 4.51988 24.2
    endloop
  endfacet
  facet normal 0.0871559 0.996195 0
    outer loop
      vertex 41.3348 4.51988 24.2
      vertex 44.1793 4.27102 0.175857
      vertex 41.3348 4.51988 0.175857
    endloop
  endfacet
  facet normal 0.0871548 0.996195 0
    outer loop
      vertex 40.8367 4.56346 24.2433
      vertex 41.3348 4.51988 24.2
      vertex 40.8367 4.56346 24.2
    endloop
  endfacet
  facet normal -0.0871551 -0.996195 0
    outer loop
      vertex 41.2601 2.51878 22.2
      vertex 41.1605 2.52749 22.2542
      vertex 41.1605 2.52749 22.2
    endloop
  endfacet
  facet normal -0.0871557 -0.996195 1.74967e-08
    outer loop
      vertex 50.3092 1.72708 30.0417
      vertex 70.6478 -0.0523165 32.1
      vertex 50.5247 1.70823 32.1
    endloop
  endfacet
  facet normal -0.0871558 -0.996195 -7.46903e-08
    outer loop
      vertex 69.9926 0.00501089 25.8419
      vertex 50.3092 1.72708 30.0417
      vertex 49.6721 1.78282 28.0733
    endloop
  endfacet
  facet normal -0.0871557 -0.996195 1.68103e-08
    outer loop
      vertex 68.0555 0.174487 19.8572
      vertex 49.6721 1.78282 28.0733
      vertex 48.6412 1.87302 26.2809
    endloop
  endfacet
  facet normal -0.0871557 -0.996195 4.76843e-08
    outer loop
      vertex 50.3092 1.72708 30.0417
      vertex 69.9926 0.00501089 25.8419
      vertex 70.6478 -0.0523165 32.1
    endloop
  endfacet
  facet normal -0.0871557 -0.996195 3.81453e-08
    outer loop
      vertex 64.9211 0.448706 14.4077
      vertex 48.6412 1.87302 26.2809
      vertex 47.2616 1.99372 24.7429
    endloop
  endfacet
  facet normal -0.0871558 -0.996195 -4.01004e-08
    outer loop
      vertex 60.7266 0.815682 9.73135
      vertex 47.2616 1.99372 24.7429
      vertex 45.5936 2.13965 23.5263
    endloop
  endfacet
  facet normal -0.0871556 -0.996195 6.12381e-08
    outer loop
      vertex 55.6551 1.25938 6.03264
      vertex 45.5936 2.13965 23.5263
      vertex 43.71 2.30444 22.6845
    endloop
  endfacet
  facet normal -0.0871557 -0.996195 8.15966e-09
    outer loop
      vertex 49.9284 1.7604 3.47321
      vertex 43.71 2.30444 22.6845
      vertex 41.6933 2.48088 22.2542
    endloop
  endfacet
  facet normal -0.0871561 -0.996195 -1.75359e-06
    outer loop
      vertex 41.1605 2.52749 22.2542
      vertex 41.2601 2.51878 22.2
      vertex 41.6933 2.48088 22.2542
    endloop
  endfacet
  facet normal -0.0871558 -0.996195 -7.48115e-08
    outer loop
      vertex 49.6721 1.78282 28.0733
      vertex 68.0555 0.174487 19.8572
      vertex 69.9926 0.00501089 25.8419
    endloop
  endfacet
  facet normal -0.0871563 -0.996195 -6.3307e-08
    outer loop
      vertex 43.7967 2.29685 2.1649
      vertex 41.6933 2.48088 22.2542
      vertex 41.2601 2.51878 22.2
    endloop
  endfacet
  facet normal -0.0871557 -0.996195 6.4396e-08
    outer loop
      vertex 48.6412 1.87302 26.2809
      vertex 64.9211 0.448706 14.4077
      vertex 68.0555 0.174487 19.8572
    endloop
  endfacet
  facet normal -0.0871558 -0.996195 -2.6369e-08
    outer loop
      vertex 47.2616 1.99372 24.7429
      vertex 60.7266 0.815682 9.73135
      vertex 64.9211 0.448706 14.4077
    endloop
  endfacet
  facet normal -0.0871558 -0.996195 -5.38405e-09
    outer loop
      vertex 45.5936 2.13965 23.5263
      vertex 55.6551 1.25938 6.03264
      vertex 60.7266 0.815682 9.73135
    endloop
  endfacet
  facet normal -0.0871557 -0.996195 1.93332e-08
    outer loop
      vertex 43.71 2.30444 22.6845
      vertex 49.9284 1.7604 3.47321
      vertex 55.6551 1.25938 6.03264
    endloop
  endfacet
  facet normal -0.0871558 -0.996195 0
    outer loop
      vertex 43.7967 2.29685 2.1649
      vertex 41.2601 2.51878 22.2
      vertex 41.2601 2.51878 2.1649
    endloop
  endfacet
  facet normal -0.0871558 -0.996195 -1.01414e-08
    outer loop
      vertex 41.6933 2.48088 22.2542
      vertex 43.7967 2.29685 2.1649
      vertex 49.9284 1.7604 3.47321
    endloop
  endfacet
  facet normal 0.0871558 0.996195 -1.82375e-07
    outer loop
      vertex 69.3231 -15.1945 32.1
      vertex 48.9844 -13.4151 30.0417
      vertex 49.2 -13.4339 32.1
    endloop
  endfacet
  facet normal 0.0871558 0.996195 4.30257e-08
    outer loop
      vertex 68.6678 -15.1371 25.8419
      vertex 48.9844 -13.4151 30.0417
      vertex 69.3231 -15.1945 32.1
    endloop
  endfacet
  facet normal 0.0871557 0.996195 -3.41796e-08
    outer loop
      vertex 48.9844 -13.4151 30.0417
      vertex 68.6678 -15.1371 25.8419
      vertex 48.3473 -13.3593 28.0733
    endloop
  endfacet
  facet normal 0.0871557 0.996195 -9.78595e-09
    outer loop
      vertex 66.7307 -14.9677 19.8572
      vertex 48.3473 -13.3593 28.0733
      vertex 68.6678 -15.1371 25.8419
    endloop
  endfacet
  facet normal 0.0871558 0.996195 8.67569e-08
    outer loop
      vertex 48.3473 -13.3593 28.0733
      vertex 66.7307 -14.9677 19.8572
      vertex 47.3164 -13.2691 26.2809
    endloop
  endfacet
  facet normal 0.0871557 0.996195 -3.2342e-08
    outer loop
      vertex 63.5964 -14.6934 14.4077
      vertex 47.3164 -13.2691 26.2809
      vertex 66.7307 -14.9677 19.8572
    endloop
  endfacet
  facet normal 0.0871557 0.996195 -8.66031e-08
    outer loop
      vertex 47.3164 -13.2691 26.2809
      vertex 63.5964 -14.6934 14.4077
      vertex 45.9368 -13.1484 24.7429
    endloop
  endfacet
  facet normal 0.0871558 0.996195 6.93491e-08
    outer loop
      vertex 59.4018 -14.3265 9.73135
      vertex 45.9368 -13.1484 24.7429
      vertex 63.5964 -14.6934 14.4077
    endloop
  endfacet
  facet normal 0.0871554 0.996195 1.81279e-05
    outer loop
      vertex 40.3685 -12.6613 22.2542
      vertex 39.9353 -12.6234 22.2
      vertex 39.8357 -12.6146 22.2542
    endloop
  endfacet
  facet normal 0.0871558 0.996195 5.44477e-08
    outer loop
      vertex 45.9368 -13.1484 24.7429
      vertex 59.4018 -14.3265 9.73135
      vertex 44.2688 -13.0025 23.5263
    endloop
  endfacet
  facet normal 0.0871557 0.996195 1.97313e-08
    outer loop
      vertex 54.3303 -13.8828 6.03264
      vertex 44.2688 -13.0025 23.5263
      vertex 59.4018 -14.3265 9.73135
    endloop
  endfacet
  facet normal 0.0871558 0.996195 3.57256e-08
    outer loop
      vertex 44.2688 -13.0025 23.5263
      vertex 54.3303 -13.8828 6.03264
      vertex 42.3852 -12.8377 22.6845
    endloop
  endfacet
  facet normal 0.0871557 0.996195 1.32847e-08
    outer loop
      vertex 48.6036 -13.3817 3.47321
      vertex 42.3852 -12.8377 22.6845
      vertex 54.3303 -13.8828 6.03264
    endloop
  endfacet
  facet normal 0.0871556 0.996195 -2.64706e-08
    outer loop
      vertex 42.3852 -12.8377 22.6845
      vertex 48.6036 -13.3817 3.47321
      vertex 40.3685 -12.6613 22.2542
    endloop
  endfacet
  facet normal 0.0871557 0.996195 1.57551e-08
    outer loop
      vertex 42.472 -12.8453 2.1649
      vertex 40.3685 -12.6613 22.2542
      vertex 48.6036 -13.3817 3.47321
    endloop
  endfacet
  facet normal 0.0871577 0.996195 2.2232e-07
    outer loop
      vertex 40.3685 -12.6613 22.2542
      vertex 42.472 -12.8453 2.1649
      vertex 39.9353 -12.6234 22.2
    endloop
  endfacet
  facet normal 0.0871559 0.996195 0
    outer loop
      vertex 39.9353 -12.6234 22.2
      vertex 42.472 -12.8453 2.1649
      vertex 39.9353 -12.6234 2.1649
    endloop
  endfacet
  facet normal 0.0871457 0.996196 0
    outer loop
      vertex 39.8357 -12.6146 22.2542
      vertex 39.9353 -12.6234 22.2
      vertex 39.8357 -12.6146 22.2
    endloop
  endfacet
  facet normal 0 0 -1
    outer loop
      vertex 40.3685 -12.6613 22.2542
      vertex 41.1605 2.52749 22.2542
      vertex 41.6933 2.48088 22.2542
    endloop
  endfacet
  facet normal 0 0 -1
    outer loop
      vertex 41.1605 2.52749 22.2542
      vertex 40.3685 -12.6613 22.2542
      vertex 39.8357 -12.6146 22.2542
    endloop
  endfacet
  facet normal 0 0 1
    outer loop
      vertex 41.2601 2.51878 2.1649
      vertex 42.472 -12.8453 2.1649
      vertex 43.7967 2.29685 2.1649
    endloop
  endfacet
  facet normal 0 0 1
    outer loop
      vertex 42.472 -12.8453 2.1649
      vertex 41.2601 2.51878 2.1649
      vertex 39.9353 -12.6234 2.1649
    endloop
  endfacet
  facet normal 0.20712 -0.0181207 -0.978148
    outer loop
      vertex 42.3852 -12.8377 22.6845
      vertex 41.6933 2.48088 22.2542
      vertex 43.71 2.30444 22.6845
    endloop
  endfacet
  facet normal 0.20712 -0.0181207 -0.978148
    outer loop
      vertex 41.6933 2.48088 22.2542
      vertex 42.3852 -12.8377 22.6845
      vertex 40.3685 -12.6613 22.2542
    endloop
  endfacet
  facet normal -0.207121 0.0181207 0.978148
    outer loop
      vertex 43.7967 2.29685 2.1649
      vertex 48.6036 -13.3817 3.47321
      vertex 49.9284 1.7604 3.47321
    endloop
  endfacet
  facet normal -0.207121 0.0181207 0.978148
    outer loop
      vertex 48.6036 -13.3817 3.47321
      vertex 43.7967 2.29685 2.1649
      vertex 42.472 -12.8453 2.1649
    endloop
  endfacet
  facet normal 0.405188 -0.0354494 -0.913546
    outer loop
      vertex 44.2688 -13.0025 23.5263
      vertex 43.71 2.30444 22.6845
      vertex 45.5936 2.13965 23.5263
    endloop
  endfacet
  facet normal 0.405189 -0.0354494 -0.913545
    outer loop
      vertex 43.71 2.30444 22.6845
      vertex 44.2688 -13.0025 23.5263
      vertex 42.3852 -12.8377 22.6845
    endloop
  endfacet
  facet normal -0.405189 0.0354495 0.913546
    outer loop
      vertex 49.9284 1.7604 3.47321
      vertex 54.3303 -13.8828 6.03264
      vertex 55.6551 1.25938 6.03264
    endloop
  endfacet
  facet normal -0.405189 0.0354494 0.913545
    outer loop
      vertex 54.3303 -13.8828 6.03264
      vertex 49.9284 1.7604 3.47321
      vertex 48.6036 -13.3817 3.47321
    endloop
  endfacet
  facet normal 0.585549 -0.051229 -0.809017
    outer loop
      vertex 45.9368 -13.1484 24.7429
      vertex 45.5936 2.13965 23.5263
      vertex 47.2616 1.99372 24.7429
    endloop
  endfacet
  facet normal 0.585549 -0.051229 -0.809017
    outer loop
      vertex 45.5936 2.13965 23.5263
      vertex 45.9368 -13.1484 24.7429
      vertex 44.2688 -13.0025 23.5263
    endloop
  endfacet
  facet normal -0.585549 0.051229 0.809017
    outer loop
      vertex 55.6551 1.25938 6.03264
      vertex 59.4018 -14.3265 9.73135
      vertex 60.7266 0.815682 9.73135
    endloop
  endfacet
  facet normal -0.585549 0.051229 0.809017
    outer loop
      vertex 59.4018 -14.3265 9.73135
      vertex 55.6551 1.25938 6.03264
      vertex 54.3303 -13.8828 6.03264
    endloop
  endfacet
  facet normal 0.740317 -0.0647695 -0.669131
    outer loop
      vertex 48.6412 1.87302 26.2809
      vertex 45.9368 -13.1484 24.7429
      vertex 47.2616 1.99372 24.7429
    endloop
  endfacet
  facet normal 0.740317 -0.0647695 -0.669131
    outer loop
      vertex 45.9368 -13.1484 24.7429
      vertex 48.6412 1.87302 26.2809
      vertex 47.3164 -13.2691 26.2809
    endloop
  endfacet
  facet normal -0.740317 0.0647695 0.66913
    outer loop
      vertex 59.4018 -14.3265 9.73135
      vertex 64.9211 0.448706 14.4077
      vertex 60.7266 0.815682 9.73135
    endloop
  endfacet
  facet normal -0.740317 0.0647693 0.669131
    outer loop
      vertex 64.9211 0.448706 14.4077
      vertex 59.4018 -14.3265 9.73135
      vertex 63.5964 -14.6934 14.4077
    endloop
  endfacet
  facet normal 0.86273 -0.0754792 -0.5
    outer loop
      vertex 49.6721 1.78282 28.0733
      vertex 47.3164 -13.2691 26.2809
      vertex 48.6412 1.87302 26.2809
    endloop
  endfacet
  facet normal 0.86273 -0.0754792 -0.5
    outer loop
      vertex 47.3164 -13.2691 26.2809
      vertex 49.6721 1.78282 28.0733
      vertex 48.3473 -13.3593 28.0733
    endloop
  endfacet
  facet normal -0.86273 0.075479 0.500001
    outer loop
      vertex 63.5964 -14.6934 14.4077
      vertex 68.0555 0.174487 19.8572
      vertex 64.9211 0.448706 14.4077
    endloop
  endfacet
  facet normal -0.86273 0.0754792 0.5
    outer loop
      vertex 68.0555 0.174487 19.8572
      vertex 63.5964 -14.6934 14.4077
      vertex 66.7307 -14.9677 19.8572
    endloop
  endfacet
  facet normal 0.947438 -0.0828902 -0.309016
    outer loop
      vertex 50.3092 1.72708 30.0417
      vertex 48.3473 -13.3593 28.0733
      vertex 49.6721 1.78282 28.0733
    endloop
  endfacet
  facet normal 0.947438 -0.0828902 -0.309016
    outer loop
      vertex 48.3473 -13.3593 28.0733
      vertex 50.3092 1.72708 30.0417
      vertex 48.9844 -13.4151 30.0417
    endloop
  endfacet
  facet normal -0.947438 0.0828902 0.309016
    outer loop
      vertex 66.7307 -14.9677 19.8572
      vertex 69.9926 0.00501089 25.8419
      vertex 68.0555 0.174487 19.8572
    endloop
  endfacet
  facet normal -0.947437 0.0828897 0.309017
    outer loop
      vertex 69.9926 0.00501089 25.8419
      vertex 66.7307 -14.9677 19.8572
      vertex 68.6678 -15.1371 25.8419
    endloop
  endfacet
  facet normal 0.990737 -0.0866784 -0.104528
    outer loop
      vertex 50.5247 1.70823 32.1
      vertex 48.9844 -13.4151 30.0417
      vertex 50.3092 1.72708 30.0417
    endloop
  endfacet
  facet normal 0.990737 -0.0866782 -0.10453
    outer loop
      vertex 48.9844 -13.4151 30.0417
      vertex 50.5247 1.70823 32.1
      vertex 49.2 -13.4339 32.1
    endloop
  endfacet
  facet normal -0.990737 0.0866779 0.104529
    outer loop
      vertex 68.6678 -15.1371 25.8419
      vertex 70.6478 -0.0523165 32.1
      vertex 69.9926 0.00501089 25.8419
    endloop
  endfacet
  facet normal -0.990737 0.0866785 0.104528
    outer loop
      vertex 70.6478 -0.0523165 32.1
      vertex 68.6678 -15.1371 25.8419
      vertex 69.3231 -15.1945 32.1
    endloop
  endfacet
  facet normal -0.996195 0.0871556 0
    outer loop
      vertex 39.1633 -14.5635 24.2
      vertex 40.8367 4.56346 24.2433
      vertex 40.8367 4.56346 24.2
    endloop
  endfacet
  facet normal -0.996195 0.0871556 0
    outer loop
      vertex 40.8367 4.56346 24.2433
      vertex 39.1633 -14.5635 24.2
      vertex 39.1633 -14.5635 24.2433
    endloop
  endfacet
  facet normal 0 0 1
    outer loop
      vertex 72.8145 1.76576 32.1
      vertex 70.6478 -0.0523165 32.1
      vertex 71.1411 -17.3612 32.1
    endloop
  endfacet
  facet normal 0 0 1
    outer loop
      vertex 72.8145 1.76576 32.1
      vertex 50.5247 1.70823 32.1
      vertex 70.6478 -0.0523165 32.1
    endloop
  endfacet
  facet normal 0 0 1
    outer loop
      vertex 50.5247 1.70823 32.1
      vertex 48.7066 3.87493 32.1
      vertex 49.2 -13.4339 32.1
    endloop
  endfacet
  facet normal 0 0 1
    outer loop
      vertex 48.7066 3.87493 32.1
      vertex 50.5247 1.70823 32.1
      vertex 72.8145 1.76576 32.1
    endloop
  endfacet
  facet normal -0 0 1
    outer loop
      vertex 69.3231 -15.1945 32.1
      vertex 71.1411 -17.3612 32.1
      vertex 70.6478 -0.0523165 32.1
    endloop
  endfacet
  facet normal 0 0 1
    outer loop
      vertex 49.2 -13.4339 32.1
      vertex 71.1411 -17.3612 32.1
      vertex 69.3231 -15.1945 32.1
    endloop
  endfacet
  facet normal 0 0 1
    outer loop
      vertex 49.2 -13.4339 32.1
      vertex 47.0333 -15.252 32.1
      vertex 71.1411 -17.3612 32.1
    endloop
  endfacet
  facet normal 0 0 1
    outer loop
      vertex 47.0333 -15.252 32.1
      vertex 49.2 -13.4339 32.1
      vertex 48.7066 3.87493 32.1
    endloop
  endfacet
  facet normal 0.702247 0.405442 -0.585206
    outer loop
      vertex 20.8205 19.0492 2.99766
      vertex 20.8205 14.7224 0
      vertex 14.6603 25.3923 0
    endloop
  endfacet
  facet normal 0 -0.810885 -0.585206
    outer loop
      vertex -34.6603 -25.3923 0
      vertex 19.6603 -34.0526 12
      vertex -39.6603 -34.0526 12
    endloop
  endfacet
  facet normal 0 -0.810885 -0.585206
    outer loop
      vertex 19.6603 -34.0526 12
      vertex -34.6603 -25.3923 0
      vertex 14.6603 -25.3923 0
    endloop
  endfacet
  facet normal 0 0 1
    outer loop
      vertex 11.5833 20.0629 12
      vertex 20.8205 32.0429 12
      vertex 19.6603 34.0526 12
    endloop
  endfacet
  facet normal 0 0 1
    outer loop
      vertex 20.8205 32.0429 12
      vertex 11.9549 19.4194 12
      vertex 20.8205 4.06366 12
    endloop
  endfacet
  facet normal 0 0 1
    outer loop
      vertex 20.8205 32.0429 12
      vertex 11.5833 20.0629 12
      vertex 11.9549 19.4194 12
    endloop
  endfacet
  facet normal -0 0 1
    outer loop
      vertex -39.6603 34.0526 12
      vertex 11.5833 20.0629 12
      vertex 19.6603 34.0526 12
    endloop
  endfacet
  facet normal 0 0 1
    outer loop
      vertex 11.5833 20.0629 12
      vertex -39.6603 34.0526 12
      vertex -47.7372 20.0629 12
    endloop
  endfacet
  facet normal -0 0 1
    outer loop
      vertex 11.9549 -19.4194 12
      vertex 20.8205 -32.0429 12
      vertex 20.8205 -4.06366 12
    endloop
  endfacet
  facet normal -0 0 1
    outer loop
      vertex 11.5833 -20.0629 12
      vertex 20.8205 -32.0429 12
      vertex 11.9549 -19.4194 12
    endloop
  endfacet
  facet normal 0 0 1
    outer loop
      vertex 20.8205 -32.0429 12
      vertex 11.5833 -20.0629 12
      vertex 19.6603 -34.0526 12
    endloop
  endfacet
  facet normal 0 0 1
    outer loop
      vertex 11.5833 -20.0629 12
      vertex -39.6603 -34.0526 12
      vertex 19.6603 -34.0526 12
    endloop
  endfacet
  facet normal 0 -0 1
    outer loop
      vertex -39.6603 -34.0526 12
      vertex 11.5833 -20.0629 12
      vertex -47.7372 -20.0629 12
    endloop
  endfacet
  facet normal 0 0.810885 -0.585206
    outer loop
      vertex 14.6603 25.3923 0
      vertex -39.6603 34.0526 12
      vertex 19.6603 34.0526 12
    endloop
  endfacet
  facet normal 0 0.810885 -0.585206
    outer loop
      vertex -39.6603 34.0526 12
      vertex 14.6603 25.3923 0
      vertex -34.6603 25.3923 0
    endloop
  endfacet
  facet normal 0.702247 -0.405443 -0.585206
    outer loop
      vertex 20.8205 -32.0429 12
      vertex 14.6603 -25.3923 0
      vertex 20.8205 -19.0492 2.99766
    endloop
  endfacet
  facet normal 0.702247 -0.405443 -0.585206
    outer loop
      vertex 14.6603 -25.3923 0
      vertex 20.8205 -32.0429 12
      vertex 19.6603 -34.0526 12
    endloop
  endfacet
  facet normal -0.702247 0.405442 -0.585206
    outer loop
      vertex -39.5833 16.8653 0
      vertex -42.0152 17.819 3.57903
      vertex -34.6603 25.3923 0
    endloop
  endfacet
  facet normal 0.702247 0.405443 -0.585206
    outer loop
      vertex 20.8205 32.0429 12
      vertex 14.6603 25.3923 0
      vertex 19.6603 34.0526 12
    endloop
  endfacet
  facet normal 0.702247 0.405443 -0.585206
    outer loop
      vertex 14.6603 25.3923 0
      vertex 20.8205 32.0429 12
      vertex 20.8205 19.0492 2.99766
    endloop
  endfacet
  facet normal -0.702247 -0.405442 -0.585206
    outer loop
      vertex -34.6603 -25.3923 0
      vertex -47.7372 -20.0629 12
      vertex -42.0152 -17.819 3.57903
    endloop
  endfacet
  facet normal -0.702247 -0.405442 -0.585206
    outer loop
      vertex -47.7372 -20.0629 12
      vertex -34.6603 -25.3923 0
      vertex -39.6603 -34.0526 12
    endloop
  endfacet
  facet normal -0.702247 -0.405442 -0.585206
    outer loop
      vertex -34.6603 -25.3923 0
      vertex -42.0152 -17.819 3.57903
      vertex -39.5833 -16.8653 0
    endloop
  endfacet
  facet normal 0 0 -1
    outer loop
      vertex 20.8205 14.7224 0
      vertex 9.73718 16.8653 0
      vertex 16.6403 18.6373 0
    endloop
  endfacet
  facet normal 0 0 -1
    outer loop
      vertex 9.73718 16.8653 0
      vertex -0.760254 18.6373 0
      vertex 16.6403 18.6373 0
    endloop
  endfacet
  facet normal 0 0 -1
    outer loop
      vertex 9.73718 16.8653 0
      vertex -0.783331 18.5973 0
      vertex -0.760254 18.6373 0
    endloop
  endfacet
  facet normal 0 0 -1
    outer loop
      vertex -39.5833 16.8653 0
      vertex -0.783331 18.5973 0
      vertex 9.73718 16.8653 0
    endloop
  endfacet
  facet normal -0 0 -1
    outer loop
      vertex -0.783331 18.5973 0
      vertex -39.5833 16.8653 0
      vertex -34.6633 18.5973 0
    endloop
  endfacet
  facet normal 0 0 -1
    outer loop
      vertex 19.4744 0 0
      vertex 39.6614 -14.607 0
      vertex 20.8205 -14.7224 0
    endloop
  endfacet
  facet normal 0 0 -1
    outer loop
      vertex 39.6614 -14.607 0
      vertex 19.4744 0 0
      vertex 41.3348 4.51989 0
    endloop
  endfacet
  facet normal 0 0 -1
    outer loop
      vertex 19.0259 0.776775 0
      vertex 41.3348 4.51989 0
      vertex 19.4744 0 0
    endloop
  endfacet
  facet normal 0 0 -1
    outer loop
      vertex 20.8205 -14.7224 0
      vertex 19.0259 -0.776775 0
      vertex 19.4744 0 0
    endloop
  endfacet
  facet normal 0 0 -1
    outer loop
      vertex 9.73718 -16.8653 0
      vertex 20.8205 -14.7224 0
      vertex 16.6403 -18.6373 0
    endloop
  endfacet
  facet normal 0 0 -1
    outer loop
      vertex 14.6603 -25.3923 0
      vertex 16.6403 -18.6373 0
      vertex 20.8205 -14.7224 0
    endloop
  endfacet
  facet normal 0 0 -1
    outer loop
      vertex 14.6603 -25.3923 0
      vertex 13.7003 -23.7295 0
      vertex 16.6403 -18.6373 0
    endloop
  endfacet
  facet normal 0 0 -1
    outer loop
      vertex 14.6603 -25.3923 0
      vertex -31.7003 -23.7295 0
      vertex 13.7003 -23.7295 0
    endloop
  endfacet
  facet normal 0 0 -1
    outer loop
      vertex -34.6603 -25.3923 0
      vertex -31.7003 -23.7295 0
      vertex 14.6603 -25.3923 0
    endloop
  endfacet
  facet normal 0 0 -1
    outer loop
      vertex -34.6603 -25.3923 0
      vertex -34.6633 -18.5973 0
      vertex -31.7003 -23.7295 0
    endloop
  endfacet
  facet normal -0 -0 -1
    outer loop
      vertex -34.6633 -18.5973 0
      vertex -34.6603 -25.3923 0
      vertex -39.5833 -16.8653 0
    endloop
  endfacet
  facet normal -0 0 -1
    outer loop
      vertex 41.3348 4.51989 0
      vertex 19.0259 0.776775 0
      vertex 20.8205 14.7224 0
    endloop
  endfacet
  facet normal 0 0 -1
    outer loop
      vertex 9.73718 16.8653 0
      vertex 20.8205 14.7224 0
      vertex 19.0259 0.776775 0
    endloop
  endfacet
  facet normal 0 0 -1
    outer loop
      vertex 16.6403 18.6373 0
      vertex 14.6603 25.3923 0
      vertex 20.8205 14.7224 0
    endloop
  endfacet
  facet normal 0 0 -1
    outer loop
      vertex 13.7003 23.7295 0
      vertex 14.6603 25.3923 0
      vertex 16.6403 18.6373 0
    endloop
  endfacet
  facet normal 0 0 -1
    outer loop
      vertex -31.7003 23.7295 0
      vertex 14.6603 25.3923 0
      vertex 13.7003 23.7295 0
    endloop
  endfacet
  facet normal 0 0 -1
    outer loop
      vertex -31.7003 23.7295 0
      vertex -34.6603 25.3923 0
      vertex 14.6603 25.3923 0
    endloop
  endfacet
  facet normal 0 0 -1
    outer loop
      vertex -34.6633 18.5973 0
      vertex -34.6603 25.3923 0
      vertex -31.7003 23.7295 0
    endloop
  endfacet
  facet normal 0 0 -1
    outer loop
      vertex -34.6603 25.3923 0
      vertex -34.6633 18.5973 0
      vertex -39.5833 16.8653 0
    endloop
  endfacet
  facet normal -0 0 -1
    outer loop
      vertex 20.8205 -14.7224 0
      vertex 9.73718 -16.8653 0
      vertex 19.0259 -0.776775 0
    endloop
  endfacet
  facet normal 0 0 -1
    outer loop
      vertex -0.760254 -18.6373 0
      vertex 9.73718 -16.8653 0
      vertex 16.6403 -18.6373 0
    endloop
  endfacet
  facet normal 0 0 -1
    outer loop
      vertex -0.783331 -18.5973 0
      vertex 9.73718 -16.8653 0
      vertex -0.760254 -18.6373 0
    endloop
  endfacet
  facet normal 0 0 -1
    outer loop
      vertex -39.5833 -16.8653 0
      vertex -0.783331 -18.5973 0
      vertex -34.6633 -18.5973 0
    endloop
  endfacet
  facet normal 0 0 -1
    outer loop
      vertex -0.783331 -18.5973 0
      vertex -39.5833 -16.8653 0
      vertex 9.73718 -16.8653 0
    endloop
  endfacet
  facet normal -0.702247 0.405442 -0.585206
    outer loop
      vertex -34.6603 25.3923 0
      vertex -47.7372 20.0629 12
      vertex -39.6603 34.0526 12
    endloop
  endfacet
  facet normal -0.702247 0.405442 -0.585206
    outer loop
      vertex -47.7372 20.0629 12
      vertex -34.6603 25.3923 0
      vertex -42.0152 17.819 3.57903
    endloop
  endfacet
  facet normal 0.702247 -0.405442 -0.585206
    outer loop
      vertex 20.8205 -14.7224 0
      vertex 20.8205 -19.0492 2.99766
      vertex 14.6603 -25.3923 0
    endloop
  endfacet
  facet normal 0.00348764 -0.569491 -0.82199
    outer loop
      vertex 39.6614 -14.607 0
      vertex 20.8205 -19.0492 2.99766
      vertex 20.8205 -14.7224 0
    endloop
  endfacet
  facet normal 0.0034877 -0.569491 -0.82199
    outer loop
      vertex 20.8205 -19.0492 2.99766
      vertex 39.6614 -14.607 0
      vertex 20.8205 -32.0429 12
    endloop
  endfacet
  facet normal 0.272512 0.547941 -0.790884
    outer loop
      vertex 41.3348 4.51989 0
      vertex 20.8205 19.0492 2.99766
      vertex 20.8205 32.0429 12
    endloop
  endfacet
  facet normal 0.679211 -0.733943 0
    outer loop
      vertex 39.6614 -14.607 24.2
      vertex 20.8205 -32.0429 12
      vertex 39.6614 -14.607 0
    endloop
  endfacet
  facet normal -0.0470706 -0.538021 0.841616
    outer loop
      vertex 38.6652 -14.5199 24.2
      vertex 20.8205 -32.0429 12
      vertex 39.6614 -14.607 24.2
    endloop
  endfacet
  facet normal 1 0 0
    outer loop
      vertex 41.3348 4.51988 0.175857
      vertex 41.3348 4.51989 24.2
      vertex 41.3348 4.51988 24.2
    endloop
  endfacet
  facet normal 1 0 0
    outer loop
      vertex 41.3348 4.51989 24.2
      vertex 41.3348 4.51988 0.175857
      vertex 41.3348 4.51989 0
    endloop
  endfacet
  facet normal 0.996195 -0.0871558 -4.25382e-06
    outer loop
      vertex 39.6614 -14.607 0.175857
      vertex 41.3348 4.51989 0
      vertex 41.3348 4.51988 0.175857
    endloop
  endfacet
  facet normal 0.996195 -0.0871559 -1.73557e-05
    outer loop
      vertex 39.6614 -14.607 0.175857
      vertex 39.6614 -14.607 0
      vertex 41.3348 4.51989 0
    endloop
  endfacet
  facet normal 0.913812 -0.406138 0
    outer loop
      vertex 39.6614 -14.607 0
      vertex 39.6614 -14.607 0.175857
      vertex 39.6614 -14.607 24.2
    endloop
  endfacet
  facet normal 0.996195 -0.0871559 0
    outer loop
      vertex 39.8357 -12.6146 22.2542
      vertex 41.1605 2.52749 22.2
      vertex 41.1605 2.52749 22.2542
    endloop
  endfacet
  facet normal 0.996195 -0.0871559 0
    outer loop
      vertex 41.1605 2.52749 22.2
      vertex 39.8357 -12.6146 22.2542
      vertex 39.8357 -12.6146 22.2
    endloop
  endfacet
  facet normal -0.564384 -6.16852e-09 0.825513
    outer loop
      vertex 20.8205 32.0429 12
      vertex 21.5518 3.06341 12.5
      vertex 38.6652 -14.5199 24.2
    endloop
  endfacet
  facet normal -0.564383 0 0.825513
    outer loop
      vertex 21.5518 3.06341 12.5
      vertex 20.8205 32.0429 12
      vertex 20.8205 4.06366 12
    endloop
  endfacet
  facet normal -0.564384 0 0.825513
    outer loop
      vertex 21.5518 -3.06341 12.5
      vertex 38.6652 -14.5199 24.2
      vertex 21.5518 3.06341 12.5
    endloop
  endfacet
  facet normal -0.564384 1.16875e-07 0.825513
    outer loop
      vertex 20.8205 -4.06366 12
      vertex 38.6652 -14.5199 24.2
      vertex 21.5518 -3.06341 12.5
    endloop
  endfacet
  facet normal -0.564384 0 0.825513
    outer loop
      vertex 38.6652 -14.5199 24.2
      vertex 20.8205 -4.06366 12
      vertex 20.8205 -32.0429 12
    endloop
  endfacet
  facet normal 0.272512 0.547941 -0.790884
    outer loop
      vertex 20.8205 14.7224 0
      vertex 20.8205 19.0492 2.99766
      vertex 41.3348 4.51989 0
    endloop
  endfacet
  facet normal 0.801786 0.597611 0
    outer loop
      vertex 20.8205 32.0429 12
      vertex 41.3348 4.51989 24.2
      vertex 41.3348 4.51989 0
    endloop
  endfacet
  facet normal -0.485907 0.0425113 0.872976
    outer loop
      vertex 40.3386 4.60705 24.2
      vertex 20.8205 32.0429 12
      vertex 38.6652 -14.5199 24.2
    endloop
  endfacet
  facet normal 0 0 1
    outer loop
      vertex 41.3348 4.51989 24.2
      vertex 40.8367 4.56346 24.2
      vertex 41.3348 4.51988 24.2
    endloop
  endfacet
  facet normal 0 0 1
    outer loop
      vertex 40.3386 4.60705 24.2
      vertex 40.8367 4.56346 24.2
      vertex 41.3348 4.51989 24.2
    endloop
  endfacet
  facet normal 0 0 1
    outer loop
      vertex 40.3386 4.60705 24.2
      vertex 39.1633 -14.5635 24.2
      vertex 40.8367 4.56346 24.2
    endloop
  endfacet
  facet normal 0 -0 1
    outer loop
      vertex 39.1633 -14.5635 24.2
      vertex 40.3386 4.60705 24.2
      vertex 38.6652 -14.5199 24.2
    endloop
  endfacet
  facet normal 0 0 1
    outer loop
      vertex 39.6614 -14.607 24.2
      vertex 39.1633 -14.5635 24.2
      vertex 38.6652 -14.5199 24.2
    endloop
  endfacet
  facet normal 0.0374586 0.428156 0.902928
    outer loop
      vertex 41.3348 4.51989 24.2
      vertex 20.8205 32.0429 12
      vertex 40.3386 4.60705 24.2
    endloop
  endfacet
  facet normal 0 0.821995 0.569495
    outer loop
      vertex 13.7003 -23.7295 0
      vertex -35.6603 -30.5885 9.9
      vertex 17.6603 -30.5885 9.9
    endloop
  endfacet
  facet normal 0 0.821995 0.569495
    outer loop
      vertex -35.6603 -30.5885 9.9
      vertex 13.7003 -23.7295 0
      vertex -31.7003 -23.7295 0
    endloop
  endfacet
  facet normal 0.711869 0.410997 0.569495
    outer loop
      vertex -35.6603 -30.5885 9.9
      vertex -38.896 -20.3428 6.5505
      vertex -41.0603 -21.2354 9.9
    endloop
  endfacet
  facet normal 0.711869 -0.410997 0.569495
    outer loop
      vertex -38.896 20.3428 6.5505
      vertex -35.6603 30.5885 9.9
      vertex -41.0603 21.2354 9.9
    endloop
  endfacet
  facet normal 0 0 -1
    outer loop
      vertex 12.2603 -21.2354 9.9
      vertex 22.8205 -21.6506 9.9
      vertex 17.6603 -30.5885 9.9
    endloop
  endfacet
  facet normal 0 0 -1
    outer loop
      vertex 22.8205 -21.6506 9.9
      vertex 14.3923 -17.5426 9.9
      vertex 22.8205 -2.94449 9.9
    endloop
  endfacet
  facet normal 0 0 -1
    outer loop
      vertex 22.8205 -21.6506 9.9
      vertex 12.2603 -21.2354 9.9
      vertex 14.3923 -17.5426 9.9
    endloop
  endfacet
  facet normal 0 0 -1
    outer loop
      vertex -35.6603 -30.5885 9.9
      vertex 12.2603 -21.2354 9.9
      vertex 17.6603 -30.5885 9.9
    endloop
  endfacet
  facet normal -0 0 -1
    outer loop
      vertex 12.2603 -21.2354 9.9
      vertex -35.6603 -30.5885 9.9
      vertex -41.0603 -21.2354 9.9
    endloop
  endfacet
  facet normal 0 0 -1
    outer loop
      vertex 14.3923 17.5426 9.9
      vertex 22.8205 21.6506 9.9
      vertex 22.8205 2.94449 9.9
    endloop
  endfacet
  facet normal 0 0 -1
    outer loop
      vertex 12.2603 21.2354 9.9
      vertex 22.8205 21.6506 9.9
      vertex 14.3923 17.5426 9.9
    endloop
  endfacet
  facet normal -0 0 -1
    outer loop
      vertex 22.8205 21.6506 9.9
      vertex 12.2603 21.2354 9.9
      vertex 17.6603 30.5885 9.9
    endloop
  endfacet
  facet normal 0 0 -1
    outer loop
      vertex 12.2603 21.2354 9.9
      vertex -35.6603 30.5885 9.9
      vertex 17.6603 30.5885 9.9
    endloop
  endfacet
  facet normal 0 -0 -1
    outer loop
      vertex -35.6603 30.5885 9.9
      vertex 12.2603 21.2354 9.9
      vertex -41.0603 21.2354 9.9
    endloop
  endfacet
  facet normal 0 -0.821995 0.569495
    outer loop
      vertex -31.7003 23.7295 0
      vertex 17.6603 30.5885 9.9
      vertex -35.6603 30.5885 9.9
    endloop
  endfacet
  facet normal 0 -0.821995 0.569495
    outer loop
      vertex 17.6603 30.5885 9.9
      vertex -31.7003 23.7295 0
      vertex 13.7003 23.7295 0
    endloop
  endfacet
  facet normal 0.711869 -0.410997 0.569495
    outer loop
      vertex -38.896 20.3428 6.5505
      vertex -31.7003 23.7295 0
      vertex -35.6603 30.5885 9.9
    endloop
  endfacet
  facet normal 0.711868 -0.410998 0.569495
    outer loop
      vertex -31.7003 23.7295 0
      vertex -38.896 20.3428 6.5505
      vertex -34.6633 18.5973 0
    endloop
  endfacet
  facet normal -0.711868 -0.410997 0.569495
    outer loop
      vertex 13.7003 23.7295 0
      vertex 16.6403 18.6373 0
      vertex 17.8403 19.3301 2
    endloop
  endfacet
  facet normal -0.711868 -0.410998 0.569495
    outer loop
      vertex 17.8403 19.3301 2
      vertex 17.6603 30.5885 9.9
      vertex 13.7003 23.7295 0
    endloop
  endfacet
  facet normal -0.711868 -0.410997 0.569495
    outer loop
      vertex 17.8403 19.3301 2
      vertex 24.2535 9.71135 3.07484
      vertex 17.6603 30.5885 9.9
    endloop
  endfacet
  facet normal -0.711868 -0.410997 0.569495
    outer loop
      vertex 24.2535 9.71135 3.07484
      vertex 17.8403 19.3301 2
      vertex 24.8329 7.21849 2
    endloop
  endfacet
  facet normal -0.711868 -0.410997 0.569495
    outer loop
      vertex 17.6603 30.5885 9.9
      vertex 22.8205 15.8771 5.73333
      vertex 22.8205 21.6506 9.9
    endloop
  endfacet
  facet normal -0.71187 -0.410997 0.569494
    outer loop
      vertex 22.8205 15.8771 5.73333
      vertex 17.6603 30.5885 9.9
      vertex 24.2535 9.71135 3.07484
    endloop
  endfacet
  facet normal -0.711868 0.410997 0.569495
    outer loop
      vertex 16.6403 -18.6373 0
      vertex 13.7003 -23.7295 0
      vertex 17.8403 -19.3301 2
    endloop
  endfacet
  facet normal -0.711869 0.410997 0.569495
    outer loop
      vertex 17.8403 -19.3301 2
      vertex 23.57 -11.8757 3.78241
      vertex 24.2548 -8.21988 2
    endloop
  endfacet
  facet normal -0.711869 0.410997 0.569495
    outer loop
      vertex 17.8403 -19.3301 2
      vertex 17.6603 -30.5885 9.9
      vertex 23.57 -11.8757 3.78241
    endloop
  endfacet
  facet normal -0.711868 0.410998 0.569495
    outer loop
      vertex 17.6603 -30.5885 9.9
      vertex 17.8403 -19.3301 2
      vertex 13.7003 -23.7295 0
    endloop
  endfacet
  facet normal 0.711868 0.410998 0.569495
    outer loop
      vertex -38.896 -20.3428 6.5505
      vertex -31.7003 -23.7295 0
      vertex -34.6633 -18.5973 0
    endloop
  endfacet
  facet normal 0.711869 0.410997 0.569495
    outer loop
      vertex -31.7003 -23.7295 0
      vertex -38.896 -20.3428 6.5505
      vertex -35.6603 -30.5885 9.9
    endloop
  endfacet
  facet normal -0.711868 0.410997 0.569495
    outer loop
      vertex 22.8205 -15.8771 5.73333
      vertex 17.6603 -30.5885 9.9
      vertex 22.8205 -21.6506 9.9
    endloop
  endfacet
  facet normal -0.711869 0.410997 0.569494
    outer loop
      vertex 17.6603 -30.5885 9.9
      vertex 22.8205 -15.8771 5.73333
      vertex 23.57 -11.8757 3.78241
    endloop
  endfacet
  facet normal 1.81149e-08 -0.966282 -0.257485
    outer loop
      vertex -34.6633 -18.5973 0
      vertex -1.27564 -19.1303 2
      vertex -38.896 -20.3428 6.5505
    endloop
  endfacet
  facet normal 3.01772e-07 -0.966281 -0.257489
    outer loop
      vertex -1.27564 -19.1303 2
      vertex -34.6633 -18.5973 0
      vertex -1.26905 -19.1231 1.97323
    endloop
  endfacet
  facet normal 0 -0.966282 -0.257484
    outer loop
      vertex -1.26905 -19.1231 1.97323
      vertex -34.6633 -18.5973 0
      vertex -0.783331 -18.5973 0
    endloop
  endfacet
  facet normal 1.69583e-08 -0.966282 -0.257485
    outer loop
      vertex -1.27564 -19.1303 2
      vertex -41.0603 -21.2354 9.9
      vertex -38.896 -20.3428 6.5505
    endloop
  endfacet
  facet normal 0 -0.966282 -0.257485
    outer loop
      vertex -41.0603 -21.2354 9.9
      vertex -1.27564 -19.1303 2
      vertex 12.2603 -21.2354 9.9
    endloop
  endfacet
  facet normal 0 -0.966282 -0.257485
    outer loop
      vertex 12.2603 -21.2354 9.9
      vertex -1.27564 -19.1303 2
      vertex 11.0449 -19.1303 2
    endloop
  endfacet
  facet normal 0 0.966282 -0.257485
    outer loop
      vertex -1.27564 19.1303 2
      vertex -41.0603 21.2354 9.9
      vertex 12.2603 21.2354 9.9
    endloop
  endfacet
  facet normal 0 0.966282 -0.257485
    outer loop
      vertex -1.27564 19.1303 2
      vertex 12.2603 21.2354 9.9
      vertex 11.0449 19.1303 2
    endloop
  endfacet
  facet normal 1.69583e-08 0.966282 -0.257485
    outer loop
      vertex -41.0603 21.2354 9.9
      vertex -1.27564 19.1303 2
      vertex -38.896 20.3428 6.5505
    endloop
  endfacet
  facet normal 3.01772e-07 0.966281 -0.257489
    outer loop
      vertex -34.6633 18.5973 0
      vertex -1.27564 19.1303 2
      vertex -1.26905 19.1231 1.97323
    endloop
  endfacet
  facet normal 0 0.966282 -0.257484
    outer loop
      vertex -34.6633 18.5973 0
      vertex -1.26905 19.1231 1.97323
      vertex -0.783331 18.5973 0
    endloop
  endfacet
  facet normal 1.81149e-08 0.966282 -0.257485
    outer loop
      vertex -1.27564 19.1303 2
      vertex -34.6633 18.5973 0
      vertex -38.896 20.3428 6.5505
    endloop
  endfacet
  facet normal 0.836825 0.483141 -0.257484
    outer loop
      vertex 22.8205 2.94449 9.9
      vertex 19.6551 4.21696 2
      vertex 14.3923 17.5426 9.9
    endloop
  endfacet
  facet normal 0.836825 0.483141 -0.257485
    outer loop
      vertex 22.8205 0 4.375
      vertex 19.6551 4.21696 2
      vertex 22.8205 2.94449 9.9
    endloop
  endfacet
  facet normal 0.836825 0.483141 -0.257484
    outer loop
      vertex 19.6551 4.21696 2
      vertex 22.8205 0 4.375
      vertex 22.0897 0 2
    endloop
  endfacet
  facet normal 0.836825 -0.483141 -0.257485
    outer loop
      vertex 19.6551 -4.21696 2
      vertex 22.8205 0 4.375
      vertex 22.8205 -2.94449 9.9
    endloop
  endfacet
  facet normal 0.836825 -0.483141 -0.257484
    outer loop
      vertex 22.8205 0 4.375
      vertex 19.6551 -4.21696 2
      vertex 22.0897 0 2
    endloop
  endfacet
  facet normal 0.836825 -0.483141 -0.257484
    outer loop
      vertex 19.6551 -4.21696 2
      vertex 22.8205 -2.94449 9.9
      vertex 14.3923 -17.5426 9.9
    endloop
  endfacet
  facet normal 0.836825 -0.483141 -0.257485
    outer loop
      vertex 14.3923 -17.5426 9.9
      vertex 11.0449 -19.1303 2
      vertex 19.6551 -4.21696 2
    endloop
  endfacet
  facet normal 0.836825 -0.483141 -0.257485
    outer loop
      vertex 11.0449 -19.1303 2
      vertex 14.3923 -17.5426 9.9
      vertex 12.2603 -21.2354 9.9
    endloop
  endfacet
  facet normal 0.836825 0.483141 -0.257485
    outer loop
      vertex 14.3923 17.5426 9.9
      vertex 11.0449 19.1303 2
      vertex 12.2603 21.2354 9.9
    endloop
  endfacet
  facet normal 0.836825 0.483141 -0.257485
    outer loop
      vertex 11.0449 19.1303 2
      vertex 14.3923 17.5426 9.9
      vertex 19.6551 4.21696 2
    endloop
  endfacet
  facet normal -0 -0.944911 -0.327327
    outer loop
      vertex 16.6403 -18.6373 0
      vertex -1.16025 -19.3301 2
      vertex -0.760254 -18.6373 0
    endloop
  endfacet
  facet normal 0 -0.944911 -0.327327
    outer loop
      vertex -1.16025 -19.3301 2
      vertex 16.6403 -18.6373 0
      vertex 17.8403 -19.3301 2
    endloop
  endfacet
  facet normal -0.818317 -0.472456 -0.327327
    outer loop
      vertex -0.760254 -18.6373 0
      vertex -1.26905 -19.1231 1.97323
      vertex -0.783331 -18.5973 0
    endloop
  endfacet
  facet normal -0.818319 -0.472453 -0.327327
    outer loop
      vertex -1.26905 -19.1231 1.97323
      vertex -0.760254 -18.6373 0
      vertex -1.16025 -19.3301 2
    endloop
  endfacet
  facet normal -0.818318 -0.472453 -0.327329
    outer loop
      vertex -1.16025 -19.3301 2
      vertex -1.27564 -19.1303 2
      vertex -1.26905 -19.1231 1.97323
    endloop
  endfacet
  facet normal -0.818318 0.472453 -0.327329
    outer loop
      vertex -1.26905 19.1231 1.97323
      vertex -1.27564 19.1303 2
      vertex -1.16025 19.3301 2
    endloop
  endfacet
  facet normal 0 0 1
    outer loop
      vertex 41.2601 2.51879 2
      vertex 38.7399 -12.5188 2
      vertex 39.9353 -12.6234 2
    endloop
  endfacet
  facet normal 0 0 1
    outer loop
      vertex 24.2548 -8.21988 2
      vertex 41.2601 2.51879 2
      vertex 24.8329 7.21849 2
    endloop
  endfacet
  facet normal 0 0 1
    outer loop
      vertex 41.2601 2.51879 2
      vertex 24.2548 -8.21988 2
      vertex 38.7399 -12.5188 2
    endloop
  endfacet
  facet normal 0 0 1
    outer loop
      vertex 22.8205 -7.79423 2
      vertex 24.8329 7.21849 2
      vertex 22.8205 7.79423 2
    endloop
  endfacet
  facet normal 0 0 1
    outer loop
      vertex 24.8329 7.21849 2
      vertex 22.8205 -7.79423 2
      vertex 24.2548 -8.21988 2
    endloop
  endfacet
  facet normal 0 0 1
    outer loop
      vertex 22.8205 7.79423 2
      vertex 22.0897 0 2
      vertex 22.8205 -7.79423 2
    endloop
  endfacet
  facet normal 0 0 1
    outer loop
      vertex 22.8205 7.79423 2
      vertex 19.6551 4.21696 2
      vertex 22.0897 0 2
    endloop
  endfacet
  facet normal 0 0 1
    outer loop
      vertex 17.8403 19.3301 2
      vertex 22.8205 7.79423 2
      vertex 24.8329 7.21849 2
    endloop
  endfacet
  facet normal 0 0 1
    outer loop
      vertex 17.8403 19.3301 2
      vertex 19.6551 4.21696 2
      vertex 22.8205 7.79423 2
    endloop
  endfacet
  facet normal 0 0 1
    outer loop
      vertex 17.8403 19.3301 2
      vertex 11.0449 19.1303 2
      vertex 19.6551 4.21696 2
    endloop
  endfacet
  facet normal -0 0 1
    outer loop
      vertex -1.16025 19.3301 2
      vertex 11.0449 19.1303 2
      vertex 17.8403 19.3301 2
    endloop
  endfacet
  facet normal 0 0 1
    outer loop
      vertex 11.0449 19.1303 2
      vertex -1.16025 19.3301 2
      vertex -1.27564 19.1303 2
    endloop
  endfacet
  facet normal -0 0 1
    outer loop
      vertex 19.6551 -4.21696 2
      vertex 22.8205 -7.79423 2
      vertex 22.0897 0 2
    endloop
  endfacet
  facet normal 0 0 1
    outer loop
      vertex 22.8205 -7.79423 2
      vertex 17.8403 -19.3301 2
      vertex 24.2548 -8.21988 2
    endloop
  endfacet
  facet normal 0 0 1
    outer loop
      vertex 19.6551 -4.21696 2
      vertex 17.8403 -19.3301 2
      vertex 22.8205 -7.79423 2
    endloop
  endfacet
  facet normal -0 0 1
    outer loop
      vertex 11.0449 -19.1303 2
      vertex 17.8403 -19.3301 2
      vertex 19.6551 -4.21696 2
    endloop
  endfacet
  facet normal 0 0 1
    outer loop
      vertex 11.0449 -19.1303 2
      vertex -1.16025 -19.3301 2
      vertex 17.8403 -19.3301 2
    endloop
  endfacet
  facet normal 0 -0 1
    outer loop
      vertex -1.16025 -19.3301 2
      vertex 11.0449 -19.1303 2
      vertex -1.27564 -19.1303 2
    endloop
  endfacet
  facet normal 0 0.944911 -0.327327
    outer loop
      vertex 16.6403 18.6373 0
      vertex -1.16025 19.3301 2
      vertex 17.8403 19.3301 2
    endloop
  endfacet
  facet normal 0 0.944911 -0.327327
    outer loop
      vertex -1.16025 19.3301 2
      vertex 16.6403 18.6373 0
      vertex -0.760254 18.6373 0
    endloop
  endfacet
  facet normal -0.818319 0.472453 -0.327327
    outer loop
      vertex -0.760254 18.6373 0
      vertex -1.26905 19.1231 1.97323
      vertex -1.16025 19.3301 2
    endloop
  endfacet
  facet normal -0.818317 0.472456 -0.327327
    outer loop
      vertex -1.26905 19.1231 1.97323
      vertex -0.760254 18.6373 0
      vertex -0.783331 18.5973 0
    endloop
  endfacet
  facet normal -1 0 0
    outer loop
      vertex 41.2601 2.51879 2
      vertex 41.2601 2.51878 2.1649
      vertex 41.2601 2.51879 22.2
    endloop
  endfacet
  facet normal -0.996195 0.0871559 4.41046e-06
    outer loop
      vertex 41.2601 2.51879 2
      vertex 39.9353 -12.6234 2.1649
      vertex 41.2601 2.51878 2.1649
    endloop
  endfacet
  facet normal -0.996195 0.0871558 -5.04052e-06
    outer loop
      vertex 39.9353 -12.6234 2
      vertex 39.9353 -12.6234 2.1649
      vertex 41.2601 2.51879 2
    endloop
  endfacet
  facet normal -1 0 0
    outer loop
      vertex 39.9353 -12.6234 22.2
      vertex 39.9353 -12.6234 2.1649
      vertex 39.9353 -12.6234 2
    endloop
  endfacet
  facet normal -1 -0 0
    outer loop
      vertex 41.2601 2.51879 22.2
      vertex 41.2601 2.51878 2.1649
      vertex 41.2601 2.51878 22.2
    endloop
  endfacet
  facet normal -0.0439334 -0.502159 -0.863659
    outer loop
      vertex 41.2601 2.51879 22.2
      vertex 40.0647 2.62337 22.2
      vertex 22.8205 25.1147 10
    endloop
  endfacet
  facet normal -0.774763 -0.632251 0
    outer loop
      vertex 41.2601 2.51879 2
      vertex 41.2601 2.51879 22.2
      vertex 22.8205 25.1147 10
    endloop
  endfacet
  facet normal -0 -0 -1
    outer loop
      vertex 39.8357 -12.6146 22.2
      vertex 39.9353 -12.6234 22.2
      vertex 38.7399 -12.5188 22.2
    endloop
  endfacet
  facet normal 0 0 -1
    outer loop
      vertex 41.1605 2.52749 22.2
      vertex 41.2601 2.51879 22.2
      vertex 41.2601 2.51878 22.2
    endloop
  endfacet
  facet normal 0 0 -1
    outer loop
      vertex 41.1605 2.52749 22.2
      vertex 40.0647 2.62337 22.2
      vertex 41.2601 2.51879 22.2
    endloop
  endfacet
  facet normal 0 0 -1
    outer loop
      vertex 39.8357 -12.6146 22.2
      vertex 40.0647 2.62337 22.2
      vertex 41.1605 2.52749 22.2
    endloop
  endfacet
  facet normal 0 0 -1
    outer loop
      vertex 40.0647 2.62337 22.2
      vertex 39.8357 -12.6146 22.2
      vertex 38.7399 -12.5188 22.2
    endloop
  endfacet
  facet normal 0.05741 0.656195 -0.752404
    outer loop
      vertex 38.7399 -12.5188 22.2
      vertex 39.9353 -12.6234 22.2
      vertex 22.8205 -25.1147 10
    endloop
  endfacet
  facet normal -0.119109 -0.416329 0.901379
    outer loop
      vertex 41.2601 2.51879 2
      vertex 22.8205 25.1147 10
      vertex 22.8205 16.7942 6.15692
    endloop
  endfacet
  facet normal -0.119109 -0.416329 0.901379
    outer loop
      vertex 41.2601 2.51879 2
      vertex 24.2535 9.71135 3.07484
      vertex 24.8329 7.21849 2
    endloop
  endfacet
  facet normal -0.119109 -0.416329 0.901379
    outer loop
      vertex 22.8205 15.8771 5.73333
      vertex 41.2601 2.51879 2
      vertex 22.8205 16.7942 6.15692
    endloop
  endfacet
  facet normal -0.119109 -0.416329 0.901379
    outer loop
      vertex 41.2601 2.51879 2
      vertex 22.8205 15.8771 5.73333
      vertex 24.2535 9.71135 3.07484
    endloop
  endfacet
  facet normal -0.589536 0.807742 0
    outer loop
      vertex 39.9353 -12.6234 22.2
      vertex 39.9353 -12.6234 2
      vertex 22.8205 -25.1147 10
    endloop
  endfacet
  facet normal 0.0433922 0.495973 0.867253
    outer loop
      vertex 39.9353 -12.6234 2
      vertex 38.7399 -12.5188 2
      vertex 22.8205 -25.1147 10
    endloop
  endfacet
  facet normal 0.123491 0.416104 0.900892
    outer loop
      vertex 23.57 -11.8757 3.78241
      vertex 38.7399 -12.5188 2
      vertex 24.2548 -8.21988 2
    endloop
  endfacet
  facet normal 0.123491 0.416104 0.900892
    outer loop
      vertex 22.8205 -15.8771 5.73333
      vertex 38.7399 -12.5188 2
      vertex 23.57 -11.8757 3.78241
    endloop
  endfacet
  facet normal 0.123492 0.416104 0.900892
    outer loop
      vertex 38.7399 -12.5188 2
      vertex 22.8205 -15.8771 5.73333
      vertex 22.8205 -16.7942 6.15692
    endloop
  endfacet
  facet normal 0.535481 -0.0468486 -0.843247
    outer loop
      vertex 40.0647 2.62337 22.2
      vertex 38.7399 -12.5188 22.2
      vertex 22.8205 25.1147 10
    endloop
  endfacet
  facet normal 0.608279 0 -0.793723
    outer loop
      vertex 22.8205 25.1147 10
      vertex 38.7399 -12.5188 22.2
      vertex 22.8205 -25.1147 10
    endloop
  endfacet
  facet normal 0.123491 0.416104 0.900892
    outer loop
      vertex 38.7399 -12.5188 2
      vertex 22.8205 -16.7942 6.15692
      vertex 22.8205 -25.1147 10
    endloop
  endfacet
  facet normal 1 0 0
    outer loop
      vertex 22.8205 25.1147 10
      vertex 22.8205 2.94449 9.9
      vertex 22.8205 21.6506 9.9
    endloop
  endfacet
  facet normal 1 0 0
    outer loop
      vertex 22.8205 2.94449 9.9
      vertex 22.8205 -2.94449 9.9
      vertex 22.8205 0 4.375
    endloop
  endfacet
  facet normal 1 0 0
    outer loop
      vertex 22.8205 25.1147 10
      vertex 22.8205 -2.94449 9.9
      vertex 22.8205 2.94449 9.9
    endloop
  endfacet
  facet normal 1 -0 0
    outer loop
      vertex 22.8205 -25.1147 10
      vertex 22.8205 -2.94449 9.9
      vertex 22.8205 25.1147 10
    endloop
  endfacet
  facet normal 1 0 0
    outer loop
      vertex 22.8205 -2.94449 9.9
      vertex 22.8205 -25.1147 10
      vertex 22.8205 -21.6506 9.9
    endloop
  endfacet
  facet normal 1 -0 0
    outer loop
      vertex 22.8205 21.6506 9.9
      vertex 22.8205 16.7942 6.15692
      vertex 22.8205 25.1147 10
    endloop
  endfacet
  facet normal 1 0 -0
    outer loop
      vertex 22.8205 16.7942 6.15692
      vertex 22.8205 21.6506 9.9
      vertex 22.8205 15.8771 5.73333
    endloop
  endfacet
  facet normal 1 0 0
    outer loop
      vertex 22.8205 -21.6506 9.9
      vertex 22.8205 -16.7942 6.15692
      vertex 22.8205 -15.8771 5.73333
    endloop
  endfacet
  facet normal 1 0 0
    outer loop
      vertex 22.8205 -16.7942 6.15692
      vertex 22.8205 -21.6506 9.9
      vertex 22.8205 -25.1147 10
    endloop
  endfacet
  facet normal 0 0.966282 0.257485
    outer loop
      vertex 11.5833 -20.0629 12
      vertex -42.0152 -17.819 3.57903
      vertex -47.7372 -20.0629 12
    endloop
  endfacet
  facet normal -0 0.966282 0.257485
    outer loop
      vertex -39.5833 -16.8653 0
      vertex 11.5833 -20.0629 12
      vertex 9.73718 -16.8653 0
    endloop
  endfacet
  facet normal -3.94491e-08 0.966282 0.257485
    outer loop
      vertex 11.5833 -20.0629 12
      vertex -39.5833 -16.8653 0
      vertex -42.0152 -17.819 3.57903
    endloop
  endfacet
  facet normal -0.836825 -0.483141 0.257485
    outer loop
      vertex 19.0259 0.776775 0
      vertex 20.8205 4.06366 12
      vertex 11.9549 19.4194 12
    endloop
  endfacet
  facet normal -0.836825 -0.483141 0.257485
    outer loop
      vertex 23.3205 0 12.5
      vertex 20.8205 4.06366 12
      vertex 19.0259 0.776775 0
    endloop
  endfacet
  facet normal -0.836825 -0.483141 0.257485
    outer loop
      vertex 23.3205 0 12.5
      vertex 19.0259 0.776775 0
      vertex 19.4744 0 0
    endloop
  endfacet
  facet normal -0.836825 -0.483141 0.257485
    outer loop
      vertex 20.8205 4.06366 12
      vertex 23.3205 0 12.5
      vertex 21.5518 3.06341 12.5
    endloop
  endfacet
  facet normal -0.836825 -0.483141 0.257485
    outer loop
      vertex 9.73718 16.8653 0
      vertex 11.9549 19.4194 12
      vertex 11.5833 20.0629 12
    endloop
  endfacet
  facet normal -0.836825 -0.483141 0.257485
    outer loop
      vertex 11.9549 19.4194 12
      vertex 9.73718 16.8653 0
      vertex 19.0259 0.776775 0
    endloop
  endfacet
  facet normal -0.836825 0.483141 0.257485
    outer loop
      vertex 9.73718 -16.8653 0
      vertex 11.9549 -19.4194 12
      vertex 19.0259 -0.776775 0
    endloop
  endfacet
  facet normal -0.836825 0.483141 0.257485
    outer loop
      vertex 11.9549 -19.4194 12
      vertex 9.73718 -16.8653 0
      vertex 11.5833 -20.0629 12
    endloop
  endfacet
  facet normal -0.836825 0.483141 0.257485
    outer loop
      vertex 19.0259 -0.776775 0
      vertex 23.3205 0 12.5
      vertex 19.4744 0 0
    endloop
  endfacet
  facet normal -0.836825 0.483141 0.257485
    outer loop
      vertex 20.8205 -4.06366 12
      vertex 23.3205 0 12.5
      vertex 19.0259 -0.776775 0
    endloop
  endfacet
  facet normal -0.836825 0.483141 0.257485
    outer loop
      vertex 23.3205 0 12.5
      vertex 20.8205 -4.06366 12
      vertex 21.5518 -3.06341 12.5
    endloop
  endfacet
  facet normal -0.836825 0.483141 0.257485
    outer loop
      vertex 20.8205 -4.06366 12
      vertex 19.0259 -0.776775 0
      vertex 11.9549 -19.4194 12
    endloop
  endfacet
  facet normal 0 0 -1
    outer loop
      vertex 21.5518 3.06341 12.5
      vertex 23.3205 0 12.5
      vertex 21.5518 -3.06341 12.5
    endloop
  endfacet
  facet normal 0 -0.966282 0.257485
    outer loop
      vertex -42.0152 17.819 3.57903
      vertex 11.5833 20.0629 12
      vertex -47.7372 20.0629 12
    endloop
  endfacet
  facet normal -3.94491e-08 -0.966282 0.257485
    outer loop
      vertex -39.5833 16.8653 0
      vertex 11.5833 20.0629 12
      vertex -42.0152 17.819 3.57903
    endloop
  endfacet
  facet normal 0 -0.966282 0.257485
    outer loop
      vertex 11.5833 20.0629 12
      vertex -39.5833 16.8653 0
      vertex 9.73718 16.8653 0
    endloop
  endfacet
endsolid OpenSCAD_Model
