solid OpenSCAD_Model
  facet normal 0.923879 0.382684 0
    outer loop
      vertex 12.15 4.5 35
      vertex 11.5642 5.91421 0
      vertex 11.5642 5.91421 35
    endloop
  endfacet
  facet normal 0.923879 0.382684 0
    outer loop
      vertex 11.5642 5.91421 0
      vertex 12.15 4.5 35
      vertex 12.15 4.5 0
    endloop
  endfacet
  facet normal 0.382684 0.923879 -0
    outer loop
      vertex 11.5642 5.91421 0
      vertex 10.15 6.5 35
      vertex 11.5642 5.91421 35
    endloop
  endfacet
  facet normal 0.382684 0.923879 0
    outer loop
      vertex 10.15 6.5 35
      vertex 11.5642 5.91421 0
      vertex 10.15 6.5 0
    endloop
  endfacet
  facet normal -0.382684 0.923879 0
    outer loop
      vertex 9.15 6.5 0
      vertex 7.73579 5.91421 35
      vertex 9.15 6.5 35
    endloop
  endfacet
  facet normal -0.382684 0.923879 0
    outer loop
      vertex 7.73579 5.91421 35
      vertex 9.15 6.5 0
      vertex 7.73579 5.91421 0
    endloop
  endfacet
  facet normal -0.923879 0.382684 0
    outer loop
      vertex 7.15 4.5 0
      vertex 7.73579 5.91421 35
      vertex 7.73579 5.91421 0
    endloop
  endfacet
  facet normal -0.923879 0.382684 0
    outer loop
      vertex 7.73579 5.91421 35
      vertex 7.15 4.5 0
      vertex 7.15 4.5 35
    endloop
  endfacet
  facet normal 0 0 1
    outer loop
      vertex 10.15 6.5 35
      vertex 12.15 4.5 35
      vertex 11.5642 5.91421 35
    endloop
  endfacet
  facet normal 0 0 1
    outer loop
      vertex 16 7 35
      vertex 18 5 35
      vertex 17.4142 6.41421 35
    endloop
  endfacet
  facet normal 0 0 1
    outer loop
      vertex 18 5 35
      vertex 16 7 35
      vertex 13 4.5 35
    endloop
  endfacet
  facet normal 0 0 1
    outer loop
      vertex 13 4.5 35
      vertex 16 7 35
      vertex 15 7 35
    endloop
  endfacet
  facet normal 0 0 1
    outer loop
      vertex 13 5 35
      vertex 15 7 35
      vertex 13.5858 6.41421 35
    endloop
  endfacet
  facet normal 0 0 1
    outer loop
      vertex 15 7 35
      vertex 13 5 35
      vertex 13 4.5 35
    endloop
  endfacet
  facet normal 0 0 1
    outer loop
      vertex 18 5 35
      vertex 13 4.5 35
      vertex 13 -4.5 35
    endloop
  endfacet
  facet normal 0 0 1
    outer loop
      vertex 18 5 35
      vertex 13 -4.5 35
      vertex 18 -8 35
    endloop
  endfacet
  facet normal -0 0 1
    outer loop
      vertex 12.15 -4.5 35
      vertex 18 -8 35
      vertex 13 -4.5 35
    endloop
  endfacet
  facet normal 0 0 1
    outer loop
      vertex 12.15 4.5 35
      vertex 7.15 4.5 35
      vertex 12.15 0 35
    endloop
  endfacet
  facet normal 0 0 1
    outer loop
      vertex 12.15 4.5 35
      vertex 10.15 6.5 35
      vertex 7.15 4.5 35
    endloop
  endfacet
  facet normal 0 0 1
    outer loop
      vertex 7.15 4.5 35
      vertex 10.15 6.5 35
      vertex 9.15 6.5 35
    endloop
  endfacet
  facet normal 0 0 1
    outer loop
      vertex 7.15 4.5 35
      vertex 9.15 6.5 35
      vertex 7.73579 5.91421 35
    endloop
  endfacet
  facet normal 0 0 1
    outer loop
      vertex 12.15 0 35
      vertex 7.15 4.5 35
      vertex 12.15 -4.5 35
    endloop
  endfacet
  facet normal 0 0 1
    outer loop
      vertex -5 -8 35
      vertex 7.15 4.5 35
      vertex -5 4.5 35
    endloop
  endfacet
  facet normal 0 0 1
    outer loop
      vertex 7.15 4.5 35
      vertex -5 -8 35
      vertex 12.15 -4.5 35
    endloop
  endfacet
  facet normal 0 0 1
    outer loop
      vertex 12.15 -4.5 35
      vertex -5 -8 35
      vertex 18 -8 35
    endloop
  endfacet
  facet normal 1 -0 0
    outer loop
      vertex 12.15 -5.5 21
      vertex 12.15 0 11
      vertex 12.15 0 21
    endloop
  endfacet
  facet normal 1 0 0
    outer loop
      vertex 12.15 0 11
      vertex 12.15 -5.5 21
      vertex 12.15 -5.5 11
    endloop
  endfacet
  facet normal 1 0 0
    outer loop
      vertex 12.15 0 21
      vertex 12.15 4.5 35
      vertex 12.15 0 35
    endloop
  endfacet
  facet normal 1 0 0
    outer loop
      vertex 12.15 4.5 35
      vertex 12.15 0 21
      vertex 12.15 4.5 0
    endloop
  endfacet
  facet normal 1 -0 0
    outer loop
      vertex 12.15 0 11
      vertex 12.15 4.5 0
      vertex 12.15 0 21
    endloop
  endfacet
  facet normal 1 0 0
    outer loop
      vertex 12.15 4.5 0
      vertex 12.15 0 11
      vertex 12.15 0 0
    endloop
  endfacet
  facet normal 0 1 -0
    outer loop
      vertex 10.15 6.5 0
      vertex 9.15 6.5 35
      vertex 10.15 6.5 35
    endloop
  endfacet
  facet normal 0 1 0
    outer loop
      vertex 9.15 6.5 35
      vertex 10.15 6.5 0
      vertex 9.15 6.5 0
    endloop
  endfacet
  facet normal 0 0 -1
    outer loop
      vertex 14.5 -4.5 0
      vertex 18 5 0
      vertex 18 -8 0
    endloop
  endfacet
  facet normal 0 0 -1
    outer loop
      vertex 14.5 4.5 0
      vertex 18 5 0
      vertex 14.5 -4.5 0
    endloop
  endfacet
  facet normal -0 0 -1
    outer loop
      vertex 17.4142 6.41421 0
      vertex 14.5 4.5 0
      vertex 16 7 0
    endloop
  endfacet
  facet normal -0 0 -1
    outer loop
      vertex 18 5 0
      vertex 14.5 4.5 0
      vertex 17.4142 6.41421 0
    endloop
  endfacet
  facet normal 0 0 -1
    outer loop
      vertex 18 -8 0
      vertex 12.15 -4.5 0
      vertex 14.5 -4.5 0
    endloop
  endfacet
  facet normal 0 0 -1
    outer loop
      vertex 7.15 4.5 0
      vertex 12.15 4.5 0
      vertex 12.15 0 0
    endloop
  endfacet
  facet normal 0 0 -1
    outer loop
      vertex 7.15 4.5 0
      vertex 12.15 0 0
      vertex 12.15 -4.5 0
    endloop
  endfacet
  facet normal 0 -0 -1
    outer loop
      vertex 10.15 6.5 0
      vertex 12.15 4.5 0
      vertex 7.15 4.5 0
    endloop
  endfacet
  facet normal 0 0 -1
    outer loop
      vertex 12.15 4.5 0
      vertex 10.15 6.5 0
      vertex 11.5642 5.91421 0
    endloop
  endfacet
  facet normal -0 0 -1
    outer loop
      vertex 10.15 6.5 0
      vertex 7.15 4.5 0
      vertex 9.15 6.5 0
    endloop
  endfacet
  facet normal 0 0 -1
    outer loop
      vertex 9.15 6.5 0
      vertex 7.15 4.5 0
      vertex 7.73579 5.91421 0
    endloop
  endfacet
  facet normal 0 0 -1
    outer loop
      vertex -5 -8 0
      vertex 12.15 -4.5 0
      vertex 18 -8 0
    endloop
  endfacet
  facet normal 0 0 -1
    outer loop
      vertex -5 -8 0
      vertex 7.15 4.5 0
      vertex 12.15 -4.5 0
    endloop
  endfacet
  facet normal -0 0 -1
    outer loop
      vertex 7.15 4.5 0
      vertex -5 -8 0
      vertex -5 4.5 0
    endloop
  endfacet
  facet normal -0 0 -1
    outer loop
      vertex 16 7 0
      vertex 14.5 4.5 0
      vertex 15 7 0
    endloop
  endfacet
  facet normal 0 0 -1
    outer loop
      vertex 14.5 4.5 0
      vertex 13.5858 6.41421 0
      vertex 15 7 0
    endloop
  endfacet
  facet normal 0 0 -1
    outer loop
      vertex 13 5 0
      vertex 14.5 4.5 0
      vertex 13 4.5 0
    endloop
  endfacet
  facet normal 0 0 -1
    outer loop
      vertex 14.5 4.5 0
      vertex 13 5 0
      vertex 13.5858 6.41421 0
    endloop
  endfacet
  facet normal 0.92388 0.382683 0
    outer loop
      vertex 17.4142 6.41421 35
      vertex 17.7929 5.5 21
      vertex 17.4142 6.41421 0
    endloop
  endfacet
  facet normal 0.923879 0.382684 -3.77367e-08
    outer loop
      vertex 18 5 35
      vertex 17.7929 5.5 21
      vertex 17.4142 6.41421 35
    endloop
  endfacet
  facet normal 0.923879 0.382685 0
    outer loop
      vertex 17.7929 5.5 21
      vertex 18 5 35
      vertex 18 5 21
    endloop
  endfacet
  facet normal 0.92388 0.382683 -0
    outer loop
      vertex 17.7929 5.5 11
      vertex 17.4142 6.41421 0
      vertex 17.7929 5.5 21
    endloop
  endfacet
  facet normal 0.923879 0.382685 -0
    outer loop
      vertex 18 5 0
      vertex 17.7929 5.5 11
      vertex 18 5 11
    endloop
  endfacet
  facet normal 0.923879 0.382684 4.80286e-08
    outer loop
      vertex 17.7929 5.5 11
      vertex 18 5 0
      vertex 17.4142 6.41421 0
    endloop
  endfacet
  facet normal 0.382684 0.923879 -0
    outer loop
      vertex 17.4142 6.41421 0
      vertex 16 7 35
      vertex 17.4142 6.41421 35
    endloop
  endfacet
  facet normal 0.382684 0.923879 0
    outer loop
      vertex 16 7 35
      vertex 17.4142 6.41421 0
      vertex 16 7 0
    endloop
  endfacet
  facet normal -0.382684 0.923879 0
    outer loop
      vertex 15 7 0
      vertex 13.5858 6.41421 35
      vertex 15 7 35
    endloop
  endfacet
  facet normal -0.382684 0.923879 0
    outer loop
      vertex 13.5858 6.41421 35
      vertex 15 7 0
      vertex 13.5858 6.41421 0
    endloop
  endfacet
  facet normal -0.923879 0.382684 0
    outer loop
      vertex 13.2071 5.5 21
      vertex 13.5858 6.41421 0
      vertex 13.2071 5.5 11
    endloop
  endfacet
  facet normal -0.923879 0.382684 -3.20696e-08
    outer loop
      vertex 13 5 0
      vertex 13.2071 5.5 11
      vertex 13.5858 6.41421 0
    endloop
  endfacet
  facet normal -0.92388 0.382683 0
    outer loop
      vertex 13.2071 5.5 11
      vertex 13 5 0
      vertex 13 5 11
    endloop
  endfacet
  facet normal -0.923879 0.382684 0
    outer loop
      vertex 13.5858 6.41421 0
      vertex 13.2071 5.5 21
      vertex 13.5858 6.41421 35
    endloop
  endfacet
  facet normal -0.92388 0.382683 0
    outer loop
      vertex 13 5 35
      vertex 13.2071 5.5 21
      vertex 13 5 21
    endloop
  endfacet
  facet normal -0.923879 0.382684 2.51976e-08
    outer loop
      vertex 13.2071 5.5 21
      vertex 13 5 35
      vertex 13.5858 6.41421 35
    endloop
  endfacet
  facet normal -1 0 0
    outer loop
      vertex 13 4.5 21.5
      vertex 13 5 21
      vertex 13 4.5 21
    endloop
  endfacet
  facet normal -1 0 0
    outer loop
      vertex 13 4.5 22.5
      vertex 13 5 21
      vertex 13 4.5 21.5
    endloop
  endfacet
  facet normal -1 0 0
    outer loop
      vertex 13 4.5 23.5
      vertex 13 5 21
      vertex 13 4.5 22.5
    endloop
  endfacet
  facet normal -1 0 0
    outer loop
      vertex 13 4.5 24.5
      vertex 13 5 21
      vertex 13 4.5 23.5
    endloop
  endfacet
  facet normal -1 0 0
    outer loop
      vertex 13 4.5 25.5
      vertex 13 5 21
      vertex 13 4.5 24.5
    endloop
  endfacet
  facet normal -1 0 0
    outer loop
      vertex 13 4.5 26.5
      vertex 13 5 21
      vertex 13 4.5 25.5
    endloop
  endfacet
  facet normal -1 0 0
    outer loop
      vertex 13 4.5 27.5
      vertex 13 5 21
      vertex 13 4.5 26.5
    endloop
  endfacet
  facet normal -1 0 0
    outer loop
      vertex 13 5 21
      vertex 13 4.5 27.5
      vertex 13 5 35
    endloop
  endfacet
  facet normal -1 0 0
    outer loop
      vertex 13 4.5 28.5
      vertex 13 5 35
      vertex 13 4.5 27.5
    endloop
  endfacet
  facet normal -1 0 0
    outer loop
      vertex 13 4.5 29.5
      vertex 13 5 35
      vertex 13 4.5 28.5
    endloop
  endfacet
  facet normal -1 0 0
    outer loop
      vertex 13 4.5 30.5
      vertex 13 5 35
      vertex 13 4.5 29.5
    endloop
  endfacet
  facet normal -1 0 0
    outer loop
      vertex 13 4.5 31.5
      vertex 13 5 35
      vertex 13 4.5 30.5
    endloop
  endfacet
  facet normal -1 0 0
    outer loop
      vertex 13 4.5 32.5
      vertex 13 5 35
      vertex 13 4.5 31.5
    endloop
  endfacet
  facet normal -1 0 0
    outer loop
      vertex 13 4.5 33.5
      vertex 13 5 35
      vertex 13 4.5 32.5
    endloop
  endfacet
  facet normal -1 0 0
    outer loop
      vertex 13 4.5 34.5
      vertex 13 5 35
      vertex 13 4.5 33.5
    endloop
  endfacet
  facet normal -1 -0 0
    outer loop
      vertex 13 5 35
      vertex 13 4.5 34.5
      vertex 13 4.5 35
    endloop
  endfacet
  facet normal -1 0 0
    outer loop
      vertex 13 4.5 0.5
      vertex 13 5 0
      vertex 13 4.5 0
    endloop
  endfacet
  facet normal -1 0 0
    outer loop
      vertex 13 4.5 1.5
      vertex 13 5 0
      vertex 13 4.5 0.5
    endloop
  endfacet
  facet normal -1 0 0
    outer loop
      vertex 13 4.5 2.5
      vertex 13 5 0
      vertex 13 4.5 1.5
    endloop
  endfacet
  facet normal -1 0 0
    outer loop
      vertex 13 4.5 3.5
      vertex 13 5 0
      vertex 13 4.5 2.5
    endloop
  endfacet
  facet normal -1 0 0
    outer loop
      vertex 13 4.5 4.5
      vertex 13 5 0
      vertex 13 4.5 3.5
    endloop
  endfacet
  facet normal -1 0 0
    outer loop
      vertex 13 4.5 5.5
      vertex 13 5 0
      vertex 13 4.5 4.5
    endloop
  endfacet
  facet normal -1 0 0
    outer loop
      vertex 13 5 0
      vertex 13 4.5 5.5
      vertex 13 5 11
    endloop
  endfacet
  facet normal -1 0 0
    outer loop
      vertex 13 4.5 6.5
      vertex 13 5 11
      vertex 13 4.5 5.5
    endloop
  endfacet
  facet normal -1 0 0
    outer loop
      vertex 13 4.5 7.5
      vertex 13 5 11
      vertex 13 4.5 6.5
    endloop
  endfacet
  facet normal -1 0 0
    outer loop
      vertex 13 4.5 8.5
      vertex 13 5 11
      vertex 13 4.5 7.5
    endloop
  endfacet
  facet normal -1 0 0
    outer loop
      vertex 13 4.5 9.5
      vertex 13 5 11
      vertex 13 4.5 8.5
    endloop
  endfacet
  facet normal -1 0 0
    outer loop
      vertex 13 4.5 10.5
      vertex 13 5 11
      vertex 13 4.5 9.5
    endloop
  endfacet
  facet normal -1 -0 0
    outer loop
      vertex 13 5 11
      vertex 13 4.5 10.5
      vertex 13 4.5 11
    endloop
  endfacet
  facet normal -1 0 0
    outer loop
      vertex 13 -4.5 10.5
      vertex 13 4.5 11
      vertex 13 4.5 10.5
    endloop
  endfacet
  facet normal -1 -0 0
    outer loop
      vertex 13 4.5 11
      vertex 13 -4.5 10.5
      vertex 13 -4.5 11
    endloop
  endfacet
  facet normal -1 0 0
    outer loop
      vertex 13 -4.5 8.5
      vertex 13 4.5 9.5
      vertex 13 4.5 8.5
    endloop
  endfacet
  facet normal -1 -0 0
    outer loop
      vertex 13 4.5 9.5
      vertex 13 -4.5 8.5
      vertex 13 -4.5 9.5
    endloop
  endfacet
  facet normal -1 0 0
    outer loop
      vertex 13 -4.5 6.5
      vertex 13 4.5 7.5
      vertex 13 4.5 6.5
    endloop
  endfacet
  facet normal -1 -0 0
    outer loop
      vertex 13 4.5 7.5
      vertex 13 -4.5 6.5
      vertex 13 -4.5 7.5
    endloop
  endfacet
  facet normal -1 0 0
    outer loop
      vertex 13 -4.5 4.5
      vertex 13 4.5 5.5
      vertex 13 4.5 4.5
    endloop
  endfacet
  facet normal -1 -0 0
    outer loop
      vertex 13 4.5 5.5
      vertex 13 -4.5 4.5
      vertex 13 -4.5 5.5
    endloop
  endfacet
  facet normal -1 0 0
    outer loop
      vertex 13 -4.5 2.5
      vertex 13 4.5 3.5
      vertex 13 4.5 2.5
    endloop
  endfacet
  facet normal -1 -0 0
    outer loop
      vertex 13 4.5 3.5
      vertex 13 -4.5 2.5
      vertex 13 -4.5 3.5
    endloop
  endfacet
  facet normal -1 0 0
    outer loop
      vertex 13 -4.5 0.5
      vertex 13 4.5 1.5
      vertex 13 4.5 0.5
    endloop
  endfacet
  facet normal -1 -0 0
    outer loop
      vertex 13 4.5 1.5
      vertex 13 -4.5 0.5
      vertex 13 -4.5 1.5
    endloop
  endfacet
  facet normal -1 0 0
    outer loop
      vertex 13 -4.5 34.5
      vertex 13 4.5 35
      vertex 13 4.5 34.5
    endloop
  endfacet
  facet normal -1 -0 0
    outer loop
      vertex 13 4.5 35
      vertex 13 -4.5 34.5
      vertex 13 -4.5 35
    endloop
  endfacet
  facet normal -1 0 0
    outer loop
      vertex 13 -4.5 32.5
      vertex 13 4.5 33.5
      vertex 13 4.5 32.5
    endloop
  endfacet
  facet normal -1 -0 0
    outer loop
      vertex 13 4.5 33.5
      vertex 13 -4.5 32.5
      vertex 13 -4.5 33.5
    endloop
  endfacet
  facet normal -1 0 0
    outer loop
      vertex 13 -4.5 30.5
      vertex 13 4.5 31.5
      vertex 13 4.5 30.5
    endloop
  endfacet
  facet normal -1 -0 0
    outer loop
      vertex 13 4.5 31.5
      vertex 13 -4.5 30.5
      vertex 13 -4.5 31.5
    endloop
  endfacet
  facet normal -1 0 0
    outer loop
      vertex 13 -4.5 28.5
      vertex 13 4.5 29.5
      vertex 13 4.5 28.5
    endloop
  endfacet
  facet normal -1 -0 0
    outer loop
      vertex 13 4.5 29.5
      vertex 13 -4.5 28.5
      vertex 13 -4.5 29.5
    endloop
  endfacet
  facet normal -1 0 0
    outer loop
      vertex 13 -4.5 26.5
      vertex 13 4.5 27.5
      vertex 13 4.5 26.5
    endloop
  endfacet
  facet normal -1 -0 0
    outer loop
      vertex 13 4.5 27.5
      vertex 13 -4.5 26.5
      vertex 13 -4.5 27.5
    endloop
  endfacet
  facet normal -1 0 0
    outer loop
      vertex 13 -4.5 24.5
      vertex 13 4.5 25.5
      vertex 13 4.5 24.5
    endloop
  endfacet
  facet normal -1 -0 0
    outer loop
      vertex 13 4.5 25.5
      vertex 13 -4.5 24.5
      vertex 13 -4.5 25.5
    endloop
  endfacet
  facet normal -1 0 0
    outer loop
      vertex 13 -4.5 22.5
      vertex 13 4.5 23.5
      vertex 13 4.5 22.5
    endloop
  endfacet
  facet normal -1 -0 0
    outer loop
      vertex 13 4.5 23.5
      vertex 13 -4.5 22.5
      vertex 13 -4.5 23.5
    endloop
  endfacet
  facet normal -1 0 0
    outer loop
      vertex 13 -4.5 21
      vertex 13 4.5 21.5
      vertex 13 4.5 21
    endloop
  endfacet
  facet normal -1 -0 0
    outer loop
      vertex 13 4.5 21.5
      vertex 13 -4.5 21
      vertex 13 -4.5 21.5
    endloop
  endfacet
  facet normal 1 0 0
    outer loop
      vertex 18 5 35
      vertex 18 -5.5 21
      vertex 18 5 21
    endloop
  endfacet
  facet normal 1 0 0
    outer loop
      vertex 18 -8 0
      vertex 18 -5.5 21
      vertex 18 -8 35
    endloop
  endfacet
  facet normal 1 -0 0
    outer loop
      vertex 18 -8 35
      vertex 18 -5.5 21
      vertex 18 5 35
    endloop
  endfacet
  facet normal 1 -0 0
    outer loop
      vertex 18 -5.5 11
      vertex 18 5 0
      vertex 18 5 11
    endloop
  endfacet
  facet normal 1 0 0
    outer loop
      vertex 18 -5.5 11
      vertex 18 -8 0
      vertex 18 5 0
    endloop
  endfacet
  facet normal 1 0 0
    outer loop
      vertex 18 -5.5 21
      vertex 18 -8 0
      vertex 18 -5.5 11
    endloop
  endfacet
  facet normal 0 1 -0
    outer loop
      vertex 16 7 0
      vertex 15 7 35
      vertex 16 7 35
    endloop
  endfacet
  facet normal 0 1 0
    outer loop
      vertex 15 7 35
      vertex 16 7 0
      vertex 15 7 0
    endloop
  endfacet
  facet normal 0 0 -1
    outer loop
      vertex 13 -4.5 21
      vertex 18 5 21
      vertex 18 -5.5 21
    endloop
  endfacet
  facet normal 0 0 -1
    outer loop
      vertex 13 4.5 21
      vertex 18 5 21
      vertex 13 -4.5 21
    endloop
  endfacet
  facet normal -0 0 -1
    outer loop
      vertex 18 5 21
      vertex 13 4.5 21
      vertex 17.7929 5.5 21
    endloop
  endfacet
  facet normal 0 0 -1
    outer loop
      vertex 12.15 -5.5 21
      vertex 13 -4.5 21
      vertex 18 -5.5 21
    endloop
  endfacet
  facet normal -0 0 -1
    outer loop
      vertex 13 -4.5 21
      vertex 12.15 -5.5 21
      vertex 12.15 -4.5 21
    endloop
  endfacet
  facet normal 0 0 -1
    outer loop
      vertex 12.15 0 21
      vertex 12.15 -4.5 21
      vertex 12.15 -5.5 21
    endloop
  endfacet
  facet normal -0 0 -1
    outer loop
      vertex 17.7929 5.5 21
      vertex 13 4.5 21
      vertex 13.2071 5.5 21
    endloop
  endfacet
  facet normal 0 0 -1
    outer loop
      vertex 13.2071 5.5 21
      vertex 13 4.5 21
      vertex 13 5 21
    endloop
  endfacet
  facet normal 0 -1 0
    outer loop
      vertex 13.2071 5.5 11
      vertex 17.7929 5.5 21
      vertex 13.2071 5.5 21
    endloop
  endfacet
  facet normal 0 -1 -0
    outer loop
      vertex 17.7929 5.5 21
      vertex 13.2071 5.5 11
      vertex 17.7929 5.5 11
    endloop
  endfacet
  facet normal 0 0 1
    outer loop
      vertex 13 4.5 11
      vertex 18 5 11
      vertex 17.7929 5.5 11
    endloop
  endfacet
  facet normal 0 0 1
    outer loop
      vertex 13 4.5 11
      vertex 17.7929 5.5 11
      vertex 13.2071 5.5 11
    endloop
  endfacet
  facet normal 0 0 1
    outer loop
      vertex 13 4.5 11
      vertex 13.2071 5.5 11
      vertex 13 5 11
    endloop
  endfacet
  facet normal 0 0 1
    outer loop
      vertex 18 5 11
      vertex 13 4.5 11
      vertex 13 -4.5 11
    endloop
  endfacet
  facet normal 0 0 1
    outer loop
      vertex 18 5 11
      vertex 13 -4.5 11
      vertex 18 -5.5 11
    endloop
  endfacet
  facet normal 0 0 1
    outer loop
      vertex 12.15 -5.5 11
      vertex 13 -4.5 11
      vertex 12.15 -4.5 11
    endloop
  endfacet
  facet normal 0 0 1
    outer loop
      vertex 13 -4.5 11
      vertex 12.15 -5.5 11
      vertex 18 -5.5 11
    endloop
  endfacet
  facet normal 0 0 1
    outer loop
      vertex 12.15 -5.5 11
      vertex 12.15 -4.5 11
      vertex 12.15 0 11
    endloop
  endfacet
  facet normal 0 1 -0
    outer loop
      vertex 18 -5.5 11
      vertex 12.15 -5.5 21
      vertex 18 -5.5 21
    endloop
  endfacet
  facet normal 0 1 0
    outer loop
      vertex 12.15 -5.5 21
      vertex 18 -5.5 11
      vertex 12.15 -5.5 11
    endloop
  endfacet
  facet normal -1 0 0
    outer loop
      vertex 14.5 -4.5 0
      vertex 14.5 4.5 0.5
      vertex 14.5 4.5 0
    endloop
  endfacet
  facet normal -1 -0 0
    outer loop
      vertex 14.5 4.5 0.5
      vertex 14.5 -4.5 0
      vertex 14.5 -4.5 0.5
    endloop
  endfacet
  facet normal 0 0 -1
    outer loop
      vertex 13 -4.5 0.5
      vertex 14.5 4.5 0.5
      vertex 14.5 -4.5 0.5
    endloop
  endfacet
  facet normal -0 0 -1
    outer loop
      vertex 14.5 4.5 0.5
      vertex 13 -4.5 0.5
      vertex 13 4.5 0.5
    endloop
  endfacet
  facet normal 0 1 0
    outer loop
      vertex 14.5 -4.5 22.5
      vertex 14.5 -4.5 21.5
      vertex 13 -4.5 22.5
    endloop
  endfacet
  facet normal 0 1 0
    outer loop
      vertex 14.5 -4.5 24.5
      vertex 14.5 -4.5 23.5
      vertex 13 -4.5 24.5
    endloop
  endfacet
  facet normal 0 1 0
    outer loop
      vertex 14.5 -4.5 26.5
      vertex 14.5 -4.5 25.5
      vertex 13 -4.5 26.5
    endloop
  endfacet
  facet normal 0 1 0
    outer loop
      vertex 14.5 -4.5 28.5
      vertex 14.5 -4.5 27.5
      vertex 13 -4.5 28.5
    endloop
  endfacet
  facet normal 0 1 0
    outer loop
      vertex 14.5 -4.5 30.5
      vertex 14.5 -4.5 29.5
      vertex 13 -4.5 30.5
    endloop
  endfacet
  facet normal 0 1 0
    outer loop
      vertex 14.5 -4.5 32.5
      vertex 14.5 -4.5 31.5
      vertex 13 -4.5 32.5
    endloop
  endfacet
  facet normal 0 1 0
    outer loop
      vertex 14.5 -4.5 34.5
      vertex 14.5 -4.5 33.5
      vertex 13 -4.5 34.5
    endloop
  endfacet
  facet normal 0 1 -0
    outer loop
      vertex 13 -4.5 34.5
      vertex 12.15 -4.5 35
      vertex 13 -4.5 35
    endloop
  endfacet
  facet normal 0 1 0
    outer loop
      vertex 13 -4.5 33.5
      vertex 13 -4.5 34.5
      vertex 14.5 -4.5 33.5
    endloop
  endfacet
  facet normal 0 1 0
    outer loop
      vertex 13 -4.5 34.5
      vertex 13 -4.5 33.5
      vertex 12.15 -4.5 35
    endloop
  endfacet
  facet normal 0 1 -0
    outer loop
      vertex 13 -4.5 32.5
      vertex 12.15 -4.5 35
      vertex 13 -4.5 33.5
    endloop
  endfacet
  facet normal 0 1 0
    outer loop
      vertex 13 -4.5 31.5
      vertex 13 -4.5 32.5
      vertex 14.5 -4.5 31.5
    endloop
  endfacet
  facet normal 0 1 -0
    outer loop
      vertex 13 -4.5 31.5
      vertex 12.15 -4.5 35
      vertex 13 -4.5 32.5
    endloop
  endfacet
  facet normal 0 1 -0
    outer loop
      vertex 13 -4.5 30.5
      vertex 12.15 -4.5 35
      vertex 13 -4.5 31.5
    endloop
  endfacet
  facet normal 0 1 0
    outer loop
      vertex 13 -4.5 29.5
      vertex 13 -4.5 30.5
      vertex 14.5 -4.5 29.5
    endloop
  endfacet
  facet normal 0 1 -0
    outer loop
      vertex 13 -4.5 29.5
      vertex 12.15 -4.5 35
      vertex 13 -4.5 30.5
    endloop
  endfacet
  facet normal 0 1 -0
    outer loop
      vertex 13 -4.5 28.5
      vertex 12.15 -4.5 35
      vertex 13 -4.5 29.5
    endloop
  endfacet
  facet normal 0 1 0
    outer loop
      vertex 13 -4.5 27.5
      vertex 13 -4.5 28.5
      vertex 14.5 -4.5 27.5
    endloop
  endfacet
  facet normal 0 1 -0
    outer loop
      vertex 13 -4.5 27.5
      vertex 12.15 -4.5 35
      vertex 13 -4.5 28.5
    endloop
  endfacet
  facet normal 0 1 0
    outer loop
      vertex 12.15 -4.5 21
      vertex 13 -4.5 27.5
      vertex 13 -4.5 26.5
    endloop
  endfacet
  facet normal 0 1 0
    outer loop
      vertex 13 -4.5 25.5
      vertex 13 -4.5 26.5
      vertex 14.5 -4.5 25.5
    endloop
  endfacet
  facet normal 0 1 0
    outer loop
      vertex 12.15 -4.5 21
      vertex 13 -4.5 26.5
      vertex 13 -4.5 25.5
    endloop
  endfacet
  facet normal 0 1 0
    outer loop
      vertex 12.15 -4.5 21
      vertex 13 -4.5 25.5
      vertex 13 -4.5 24.5
    endloop
  endfacet
  facet normal 0 1 0
    outer loop
      vertex 13 -4.5 23.5
      vertex 13 -4.5 24.5
      vertex 14.5 -4.5 23.5
    endloop
  endfacet
  facet normal 0 1 0
    outer loop
      vertex 12.15 -4.5 21
      vertex 13 -4.5 24.5
      vertex 13 -4.5 23.5
    endloop
  endfacet
  facet normal 0 1 0
    outer loop
      vertex 12.15 -4.5 21
      vertex 13 -4.5 23.5
      vertex 13 -4.5 22.5
    endloop
  endfacet
  facet normal 0 1 0
    outer loop
      vertex 13 -4.5 21.5
      vertex 13 -4.5 22.5
      vertex 14.5 -4.5 21.5
    endloop
  endfacet
  facet normal 0 1 0
    outer loop
      vertex 12.15 -4.5 21
      vertex 13 -4.5 22.5
      vertex 13 -4.5 21.5
    endloop
  endfacet
  facet normal 0 1 0
    outer loop
      vertex 12.15 -4.5 21
      vertex 13 -4.5 21.5
      vertex 13 -4.5 21
    endloop
  endfacet
  facet normal 0 1 0
    outer loop
      vertex 13 -4.5 27.5
      vertex 12.15 -4.5 21
      vertex 12.15 -4.5 35
    endloop
  endfacet
  facet normal 0 1 0
    outer loop
      vertex 14.5 -4.5 0.5
      vertex 14.5 -4.5 0
      vertex 13 -4.5 0.5
    endloop
  endfacet
  facet normal 0 1 0
    outer loop
      vertex 14.5 -4.5 2.5
      vertex 14.5 -4.5 1.5
      vertex 13 -4.5 2.5
    endloop
  endfacet
  facet normal 0 1 0
    outer loop
      vertex 14.5 -4.5 4.5
      vertex 14.5 -4.5 3.5
      vertex 13 -4.5 4.5
    endloop
  endfacet
  facet normal 0 1 0
    outer loop
      vertex 14.5 -4.5 6.5
      vertex 14.5 -4.5 5.5
      vertex 13 -4.5 6.5
    endloop
  endfacet
  facet normal 0 1 0
    outer loop
      vertex 14.5 -4.5 8.5
      vertex 14.5 -4.5 7.5
      vertex 13 -4.5 8.5
    endloop
  endfacet
  facet normal 0 1 0
    outer loop
      vertex 14.5 -4.5 10.5
      vertex 14.5 -4.5 9.5
      vertex 13 -4.5 10.5
    endloop
  endfacet
  facet normal 0 1 -0
    outer loop
      vertex 13 -4.5 10.5
      vertex 12.15 -4.5 11
      vertex 13 -4.5 11
    endloop
  endfacet
  facet normal 0 1 0
    outer loop
      vertex 13 -4.5 9.5
      vertex 13 -4.5 10.5
      vertex 14.5 -4.5 9.5
    endloop
  endfacet
  facet normal 0 1 0
    outer loop
      vertex 13 -4.5 10.5
      vertex 13 -4.5 9.5
      vertex 12.15 -4.5 11
    endloop
  endfacet
  facet normal 0 1 -0
    outer loop
      vertex 13 -4.5 8.5
      vertex 12.15 -4.5 11
      vertex 13 -4.5 9.5
    endloop
  endfacet
  facet normal 0 1 0
    outer loop
      vertex 13 -4.5 7.5
      vertex 13 -4.5 8.5
      vertex 14.5 -4.5 7.5
    endloop
  endfacet
  facet normal 0 1 -0
    outer loop
      vertex 13 -4.5 7.5
      vertex 12.15 -4.5 11
      vertex 13 -4.5 8.5
    endloop
  endfacet
  facet normal 0 1 -0
    outer loop
      vertex 13 -4.5 6.5
      vertex 12.15 -4.5 11
      vertex 13 -4.5 7.5
    endloop
  endfacet
  facet normal 0 1 0
    outer loop
      vertex 13 -4.5 5.5
      vertex 13 -4.5 6.5
      vertex 14.5 -4.5 5.5
    endloop
  endfacet
  facet normal 0 1 -0
    outer loop
      vertex 13 -4.5 5.5
      vertex 12.15 -4.5 11
      vertex 13 -4.5 6.5
    endloop
  endfacet
  facet normal 0 1 0
    outer loop
      vertex 12.15 -4.5 0
      vertex 13 -4.5 5.5
      vertex 13 -4.5 4.5
    endloop
  endfacet
  facet normal 0 1 0
    outer loop
      vertex 13 -4.5 3.5
      vertex 13 -4.5 4.5
      vertex 14.5 -4.5 3.5
    endloop
  endfacet
  facet normal 0 1 0
    outer loop
      vertex 12.15 -4.5 0
      vertex 13 -4.5 4.5
      vertex 13 -4.5 3.5
    endloop
  endfacet
  facet normal 0 1 0
    outer loop
      vertex 12.15 -4.5 0
      vertex 13 -4.5 3.5
      vertex 13 -4.5 2.5
    endloop
  endfacet
  facet normal 0 1 0
    outer loop
      vertex 13 -4.5 1.5
      vertex 13 -4.5 2.5
      vertex 14.5 -4.5 1.5
    endloop
  endfacet
  facet normal 0 1 0
    outer loop
      vertex 12.15 -4.5 0
      vertex 13 -4.5 2.5
      vertex 13 -4.5 1.5
    endloop
  endfacet
  facet normal 0 1 0
    outer loop
      vertex 12.15 -4.5 0
      vertex 13 -4.5 1.5
      vertex 13 -4.5 0.5
    endloop
  endfacet
  facet normal 0 1 0
    outer loop
      vertex 13 -4.5 5.5
      vertex 12.15 -4.5 0
      vertex 12.15 -4.5 11
    endloop
  endfacet
  facet normal 0 1 0
    outer loop
      vertex 12.15 -4.5 0
      vertex 13 -4.5 0.5
      vertex 14.5 -4.5 0
    endloop
  endfacet
  facet normal 0 -1 0
    outer loop
      vertex 13 4.5 33.5
      vertex 14.5 4.5 34.5
      vertex 13 4.5 34.5
    endloop
  endfacet
  facet normal 0 -1 -0
    outer loop
      vertex 14.5 4.5 34.5
      vertex 13 4.5 33.5
      vertex 14.5 4.5 33.5
    endloop
  endfacet
  facet normal 0 -1 0
    outer loop
      vertex 13 4.5 31.5
      vertex 14.5 4.5 32.5
      vertex 13 4.5 32.5
    endloop
  endfacet
  facet normal 0 -1 -0
    outer loop
      vertex 14.5 4.5 32.5
      vertex 13 4.5 31.5
      vertex 14.5 4.5 31.5
    endloop
  endfacet
  facet normal 0 -1 0
    outer loop
      vertex 13 4.5 29.5
      vertex 14.5 4.5 30.5
      vertex 13 4.5 30.5
    endloop
  endfacet
  facet normal 0 -1 -0
    outer loop
      vertex 14.5 4.5 30.5
      vertex 13 4.5 29.5
      vertex 14.5 4.5 29.5
    endloop
  endfacet
  facet normal 0 -1 0
    outer loop
      vertex 13 4.5 27.5
      vertex 14.5 4.5 28.5
      vertex 13 4.5 28.5
    endloop
  endfacet
  facet normal 0 -1 -0
    outer loop
      vertex 14.5 4.5 28.5
      vertex 13 4.5 27.5
      vertex 14.5 4.5 27.5
    endloop
  endfacet
  facet normal 0 -1 0
    outer loop
      vertex 13 4.5 25.5
      vertex 14.5 4.5 26.5
      vertex 13 4.5 26.5
    endloop
  endfacet
  facet normal 0 -1 -0
    outer loop
      vertex 14.5 4.5 26.5
      vertex 13 4.5 25.5
      vertex 14.5 4.5 25.5
    endloop
  endfacet
  facet normal 0 -1 0
    outer loop
      vertex 13 4.5 23.5
      vertex 14.5 4.5 24.5
      vertex 13 4.5 24.5
    endloop
  endfacet
  facet normal 0 -1 -0
    outer loop
      vertex 14.5 4.5 24.5
      vertex 13 4.5 23.5
      vertex 14.5 4.5 23.5
    endloop
  endfacet
  facet normal 0 -1 0
    outer loop
      vertex 13 4.5 21.5
      vertex 14.5 4.5 22.5
      vertex 13 4.5 22.5
    endloop
  endfacet
  facet normal 0 -1 -0
    outer loop
      vertex 14.5 4.5 22.5
      vertex 13 4.5 21.5
      vertex 14.5 4.5 21.5
    endloop
  endfacet
  facet normal 0 -1 0
    outer loop
      vertex 13 4.5 9.5
      vertex 14.5 4.5 10.5
      vertex 13 4.5 10.5
    endloop
  endfacet
  facet normal 0 -1 -0
    outer loop
      vertex 14.5 4.5 10.5
      vertex 13 4.5 9.5
      vertex 14.5 4.5 9.5
    endloop
  endfacet
  facet normal 0 -1 0
    outer loop
      vertex 13 4.5 7.5
      vertex 14.5 4.5 8.5
      vertex 13 4.5 8.5
    endloop
  endfacet
  facet normal 0 -1 -0
    outer loop
      vertex 14.5 4.5 8.5
      vertex 13 4.5 7.5
      vertex 14.5 4.5 7.5
    endloop
  endfacet
  facet normal 0 -1 0
    outer loop
      vertex 13 4.5 5.5
      vertex 14.5 4.5 6.5
      vertex 13 4.5 6.5
    endloop
  endfacet
  facet normal 0 -1 -0
    outer loop
      vertex 14.5 4.5 6.5
      vertex 13 4.5 5.5
      vertex 14.5 4.5 5.5
    endloop
  endfacet
  facet normal 0 -1 0
    outer loop
      vertex 13 4.5 3.5
      vertex 14.5 4.5 4.5
      vertex 13 4.5 4.5
    endloop
  endfacet
  facet normal 0 -1 -0
    outer loop
      vertex 14.5 4.5 4.5
      vertex 13 4.5 3.5
      vertex 14.5 4.5 3.5
    endloop
  endfacet
  facet normal 0 -1 0
    outer loop
      vertex 13 4.5 1.5
      vertex 14.5 4.5 2.5
      vertex 13 4.5 2.5
    endloop
  endfacet
  facet normal 0 -1 -0
    outer loop
      vertex 14.5 4.5 2.5
      vertex 13 4.5 1.5
      vertex 14.5 4.5 1.5
    endloop
  endfacet
  facet normal 0 -1 0
    outer loop
      vertex 13 4.5 0
      vertex 14.5 4.5 0.5
      vertex 13 4.5 0.5
    endloop
  endfacet
  facet normal 0 -1 -0
    outer loop
      vertex 14.5 4.5 0.5
      vertex 13 4.5 0
      vertex 14.5 4.5 0
    endloop
  endfacet
  facet normal -1 0 0
    outer loop
      vertex 14.5 -4.5 1.5
      vertex 14.5 4.5 2.5
      vertex 14.5 4.5 1.5
    endloop
  endfacet
  facet normal -1 -0 0
    outer loop
      vertex 14.5 4.5 2.5
      vertex 14.5 -4.5 1.5
      vertex 14.5 -4.5 2.5
    endloop
  endfacet
  facet normal 0 0 -1
    outer loop
      vertex 13 -4.5 2.5
      vertex 14.5 4.5 2.5
      vertex 14.5 -4.5 2.5
    endloop
  endfacet
  facet normal -0 0 -1
    outer loop
      vertex 14.5 4.5 2.5
      vertex 13 -4.5 2.5
      vertex 13 4.5 2.5
    endloop
  endfacet
  facet normal -0 0 1
    outer loop
      vertex 13 4.5 1.5
      vertex 14.5 -4.5 1.5
      vertex 14.5 4.5 1.5
    endloop
  endfacet
  facet normal 0 0 1
    outer loop
      vertex 14.5 -4.5 1.5
      vertex 13 4.5 1.5
      vertex 13 -4.5 1.5
    endloop
  endfacet
  facet normal -1 0 0
    outer loop
      vertex 14.5 -4.5 3.5
      vertex 14.5 4.5 4.5
      vertex 14.5 4.5 3.5
    endloop
  endfacet
  facet normal -1 -0 0
    outer loop
      vertex 14.5 4.5 4.5
      vertex 14.5 -4.5 3.5
      vertex 14.5 -4.5 4.5
    endloop
  endfacet
  facet normal 0 0 -1
    outer loop
      vertex 13 -4.5 4.5
      vertex 14.5 4.5 4.5
      vertex 14.5 -4.5 4.5
    endloop
  endfacet
  facet normal -0 0 -1
    outer loop
      vertex 14.5 4.5 4.5
      vertex 13 -4.5 4.5
      vertex 13 4.5 4.5
    endloop
  endfacet
  facet normal -0 0 1
    outer loop
      vertex 13 4.5 3.5
      vertex 14.5 -4.5 3.5
      vertex 14.5 4.5 3.5
    endloop
  endfacet
  facet normal 0 0 1
    outer loop
      vertex 14.5 -4.5 3.5
      vertex 13 4.5 3.5
      vertex 13 -4.5 3.5
    endloop
  endfacet
  facet normal -1 0 0
    outer loop
      vertex 14.5 -4.5 5.5
      vertex 14.5 4.5 6.5
      vertex 14.5 4.5 5.5
    endloop
  endfacet
  facet normal -1 -0 0
    outer loop
      vertex 14.5 4.5 6.5
      vertex 14.5 -4.5 5.5
      vertex 14.5 -4.5 6.5
    endloop
  endfacet
  facet normal 0 0 -1
    outer loop
      vertex 13 -4.5 6.5
      vertex 14.5 4.5 6.5
      vertex 14.5 -4.5 6.5
    endloop
  endfacet
  facet normal -0 0 -1
    outer loop
      vertex 14.5 4.5 6.5
      vertex 13 -4.5 6.5
      vertex 13 4.5 6.5
    endloop
  endfacet
  facet normal -0 0 1
    outer loop
      vertex 13 4.5 5.5
      vertex 14.5 -4.5 5.5
      vertex 14.5 4.5 5.5
    endloop
  endfacet
  facet normal 0 0 1
    outer loop
      vertex 14.5 -4.5 5.5
      vertex 13 4.5 5.5
      vertex 13 -4.5 5.5
    endloop
  endfacet
  facet normal -1 0 0
    outer loop
      vertex 14.5 -4.5 7.5
      vertex 14.5 4.5 8.5
      vertex 14.5 4.5 7.5
    endloop
  endfacet
  facet normal -1 -0 0
    outer loop
      vertex 14.5 4.5 8.5
      vertex 14.5 -4.5 7.5
      vertex 14.5 -4.5 8.5
    endloop
  endfacet
  facet normal 0 0 -1
    outer loop
      vertex 13 -4.5 8.5
      vertex 14.5 4.5 8.5
      vertex 14.5 -4.5 8.5
    endloop
  endfacet
  facet normal -0 0 -1
    outer loop
      vertex 14.5 4.5 8.5
      vertex 13 -4.5 8.5
      vertex 13 4.5 8.5
    endloop
  endfacet
  facet normal -0 0 1
    outer loop
      vertex 13 4.5 7.5
      vertex 14.5 -4.5 7.5
      vertex 14.5 4.5 7.5
    endloop
  endfacet
  facet normal 0 0 1
    outer loop
      vertex 14.5 -4.5 7.5
      vertex 13 4.5 7.5
      vertex 13 -4.5 7.5
    endloop
  endfacet
  facet normal -1 0 0
    outer loop
      vertex 14.5 -4.5 9.5
      vertex 14.5 4.5 10.5
      vertex 14.5 4.5 9.5
    endloop
  endfacet
  facet normal -1 -0 0
    outer loop
      vertex 14.5 4.5 10.5
      vertex 14.5 -4.5 9.5
      vertex 14.5 -4.5 10.5
    endloop
  endfacet
  facet normal 0 0 -1
    outer loop
      vertex 13 -4.5 10.5
      vertex 14.5 4.5 10.5
      vertex 14.5 -4.5 10.5
    endloop
  endfacet
  facet normal -0 0 -1
    outer loop
      vertex 14.5 4.5 10.5
      vertex 13 -4.5 10.5
      vertex 13 4.5 10.5
    endloop
  endfacet
  facet normal -0 0 1
    outer loop
      vertex 13 4.5 9.5
      vertex 14.5 -4.5 9.5
      vertex 14.5 4.5 9.5
    endloop
  endfacet
  facet normal 0 0 1
    outer loop
      vertex 14.5 -4.5 9.5
      vertex 13 4.5 9.5
      vertex 13 -4.5 9.5
    endloop
  endfacet
  facet normal -1 0 0
    outer loop
      vertex 14.5 -4.5 21.5
      vertex 14.5 4.5 22.5
      vertex 14.5 4.5 21.5
    endloop
  endfacet
  facet normal -1 -0 0
    outer loop
      vertex 14.5 4.5 22.5
      vertex 14.5 -4.5 21.5
      vertex 14.5 -4.5 22.5
    endloop
  endfacet
  facet normal 0 0 -1
    outer loop
      vertex 13 -4.5 22.5
      vertex 14.5 4.5 22.5
      vertex 14.5 -4.5 22.5
    endloop
  endfacet
  facet normal -0 0 -1
    outer loop
      vertex 14.5 4.5 22.5
      vertex 13 -4.5 22.5
      vertex 13 4.5 22.5
    endloop
  endfacet
  facet normal -0 0 1
    outer loop
      vertex 13 4.5 21.5
      vertex 14.5 -4.5 21.5
      vertex 14.5 4.5 21.5
    endloop
  endfacet
  facet normal 0 0 1
    outer loop
      vertex 14.5 -4.5 21.5
      vertex 13 4.5 21.5
      vertex 13 -4.5 21.5
    endloop
  endfacet
  facet normal -1 0 0
    outer loop
      vertex 14.5 -4.5 23.5
      vertex 14.5 4.5 24.5
      vertex 14.5 4.5 23.5
    endloop
  endfacet
  facet normal -1 -0 0
    outer loop
      vertex 14.5 4.5 24.5
      vertex 14.5 -4.5 23.5
      vertex 14.5 -4.5 24.5
    endloop
  endfacet
  facet normal 0 0 -1
    outer loop
      vertex 13 -4.5 24.5
      vertex 14.5 4.5 24.5
      vertex 14.5 -4.5 24.5
    endloop
  endfacet
  facet normal -0 0 -1
    outer loop
      vertex 14.5 4.5 24.5
      vertex 13 -4.5 24.5
      vertex 13 4.5 24.5
    endloop
  endfacet
  facet normal -0 0 1
    outer loop
      vertex 13 4.5 23.5
      vertex 14.5 -4.5 23.5
      vertex 14.5 4.5 23.5
    endloop
  endfacet
  facet normal 0 0 1
    outer loop
      vertex 14.5 -4.5 23.5
      vertex 13 4.5 23.5
      vertex 13 -4.5 23.5
    endloop
  endfacet
  facet normal -1 0 0
    outer loop
      vertex 14.5 -4.5 25.5
      vertex 14.5 4.5 26.5
      vertex 14.5 4.5 25.5
    endloop
  endfacet
  facet normal -1 -0 0
    outer loop
      vertex 14.5 4.5 26.5
      vertex 14.5 -4.5 25.5
      vertex 14.5 -4.5 26.5
    endloop
  endfacet
  facet normal 0 0 -1
    outer loop
      vertex 13 -4.5 26.5
      vertex 14.5 4.5 26.5
      vertex 14.5 -4.5 26.5
    endloop
  endfacet
  facet normal -0 0 -1
    outer loop
      vertex 14.5 4.5 26.5
      vertex 13 -4.5 26.5
      vertex 13 4.5 26.5
    endloop
  endfacet
  facet normal -0 0 1
    outer loop
      vertex 13 4.5 25.5
      vertex 14.5 -4.5 25.5
      vertex 14.5 4.5 25.5
    endloop
  endfacet
  facet normal 0 0 1
    outer loop
      vertex 14.5 -4.5 25.5
      vertex 13 4.5 25.5
      vertex 13 -4.5 25.5
    endloop
  endfacet
  facet normal -1 0 0
    outer loop
      vertex 14.5 -4.5 27.5
      vertex 14.5 4.5 28.5
      vertex 14.5 4.5 27.5
    endloop
  endfacet
  facet normal -1 -0 0
    outer loop
      vertex 14.5 4.5 28.5
      vertex 14.5 -4.5 27.5
      vertex 14.5 -4.5 28.5
    endloop
  endfacet
  facet normal 0 0 -1
    outer loop
      vertex 13 -4.5 28.5
      vertex 14.5 4.5 28.5
      vertex 14.5 -4.5 28.5
    endloop
  endfacet
  facet normal -0 0 -1
    outer loop
      vertex 14.5 4.5 28.5
      vertex 13 -4.5 28.5
      vertex 13 4.5 28.5
    endloop
  endfacet
  facet normal -0 0 1
    outer loop
      vertex 13 4.5 27.5
      vertex 14.5 -4.5 27.5
      vertex 14.5 4.5 27.5
    endloop
  endfacet
  facet normal 0 0 1
    outer loop
      vertex 14.5 -4.5 27.5
      vertex 13 4.5 27.5
      vertex 13 -4.5 27.5
    endloop
  endfacet
  facet normal -1 0 0
    outer loop
      vertex 14.5 -4.5 29.5
      vertex 14.5 4.5 30.5
      vertex 14.5 4.5 29.5
    endloop
  endfacet
  facet normal -1 -0 0
    outer loop
      vertex 14.5 4.5 30.5
      vertex 14.5 -4.5 29.5
      vertex 14.5 -4.5 30.5
    endloop
  endfacet
  facet normal 0 0 -1
    outer loop
      vertex 13 -4.5 30.5
      vertex 14.5 4.5 30.5
      vertex 14.5 -4.5 30.5
    endloop
  endfacet
  facet normal -0 0 -1
    outer loop
      vertex 14.5 4.5 30.5
      vertex 13 -4.5 30.5
      vertex 13 4.5 30.5
    endloop
  endfacet
  facet normal -0 0 1
    outer loop
      vertex 13 4.5 29.5
      vertex 14.5 -4.5 29.5
      vertex 14.5 4.5 29.5
    endloop
  endfacet
  facet normal 0 0 1
    outer loop
      vertex 14.5 -4.5 29.5
      vertex 13 4.5 29.5
      vertex 13 -4.5 29.5
    endloop
  endfacet
  facet normal -1 0 0
    outer loop
      vertex 14.5 -4.5 31.5
      vertex 14.5 4.5 32.5
      vertex 14.5 4.5 31.5
    endloop
  endfacet
  facet normal -1 -0 0
    outer loop
      vertex 14.5 4.5 32.5
      vertex 14.5 -4.5 31.5
      vertex 14.5 -4.5 32.5
    endloop
  endfacet
  facet normal 0 0 -1
    outer loop
      vertex 13 -4.5 32.5
      vertex 14.5 4.5 32.5
      vertex 14.5 -4.5 32.5
    endloop
  endfacet
  facet normal -0 0 -1
    outer loop
      vertex 14.5 4.5 32.5
      vertex 13 -4.5 32.5
      vertex 13 4.5 32.5
    endloop
  endfacet
  facet normal -0 0 1
    outer loop
      vertex 13 4.5 31.5
      vertex 14.5 -4.5 31.5
      vertex 14.5 4.5 31.5
    endloop
  endfacet
  facet normal 0 0 1
    outer loop
      vertex 14.5 -4.5 31.5
      vertex 13 4.5 31.5
      vertex 13 -4.5 31.5
    endloop
  endfacet
  facet normal -1 0 0
    outer loop
      vertex 14.5 -4.5 33.5
      vertex 14.5 4.5 34.5
      vertex 14.5 4.5 33.5
    endloop
  endfacet
  facet normal -1 -0 0
    outer loop
      vertex 14.5 4.5 34.5
      vertex 14.5 -4.5 33.5
      vertex 14.5 -4.5 34.5
    endloop
  endfacet
  facet normal 0 0 -1
    outer loop
      vertex 13 -4.5 34.5
      vertex 14.5 4.5 34.5
      vertex 14.5 -4.5 34.5
    endloop
  endfacet
  facet normal -0 0 -1
    outer loop
      vertex 14.5 4.5 34.5
      vertex 13 -4.5 34.5
      vertex 13 4.5 34.5
    endloop
  endfacet
  facet normal -0 0 1
    outer loop
      vertex 13 4.5 33.5
      vertex 14.5 -4.5 33.5
      vertex 14.5 4.5 33.5
    endloop
  endfacet
  facet normal 0 0 1
    outer loop
      vertex 14.5 -4.5 33.5
      vertex 13 4.5 33.5
      vertex 13 -4.5 33.5
    endloop
  endfacet
  facet normal 1 -0 0
    outer loop
      vertex 12.15 -4.5 11
      vertex 12.15 0 0
      vertex 12.15 0 11
    endloop
  endfacet
  facet normal 1 0 0
    outer loop
      vertex 12.15 0 0
      vertex 12.15 -4.5 11
      vertex 12.15 -4.5 0
    endloop
  endfacet
  facet normal 1 -0 0
    outer loop
      vertex 12.15 -4.5 35
      vertex 12.15 0 21
      vertex 12.15 0 35
    endloop
  endfacet
  facet normal 1 0 0
    outer loop
      vertex 12.15 0 21
      vertex 12.15 -4.5 35
      vertex 12.15 -4.5 21
    endloop
  endfacet
  facet normal -1 0 0
    outer loop
      vertex -5 0.347319 6.19362
      vertex -5 0.747695 29.5692
      vertex -5 0.747695 5.43077
    endloop
  endfacet
  facet normal -1 0 0
    outer loop
      vertex -5 0.347319 6.19362
      vertex -5 0.347319 28.8064
      vertex -5 0.747695 29.5692
    endloop
  endfacet
  facet normal -1 0 0
    outer loop
      vertex -5 -0.361712 6.68303
      vertex -5 0.347319 28.8064
      vertex -5 0.347319 6.19362
    endloop
  endfacet
  facet normal -1 0 0
    outer loop
      vertex -5 -0.361712 6.68303
      vertex -5 -0.361712 28.317
      vertex -5 0.347319 28.8064
    endloop
  endfacet
  facet normal -1 0 0
    outer loop
      vertex -5 -1.21697 6.78688
      vertex -5 -0.361712 28.317
      vertex -5 -0.361712 6.68303
    endloop
  endfacet
  facet normal -1 0 0
    outer loop
      vertex -5 -1.21697 6.78688
      vertex -5 -1.21697 28.2131
      vertex -5 -0.361712 28.317
    endloop
  endfacet
  facet normal -1 0 0
    outer loop
      vertex -5 -2.02252 6.48137
      vertex -5 -1.21697 28.2131
      vertex -5 -1.21697 6.78688
    endloop
  endfacet
  facet normal -1 0 0
    outer loop
      vertex -5 -2.02252 6.48137
      vertex -5 -2.02252 28.5186
      vertex -5 -1.21697 28.2131
    endloop
  endfacet
  facet normal -1 0 0
    outer loop
      vertex -5 -2.59382 5.8365
      vertex -5 -2.02252 28.5186
      vertex -5 -2.02252 6.48137
    endloop
  endfacet
  facet normal -1 0 0
    outer loop
      vertex -5 -2.59382 5.8365
      vertex -5 -2.59382 29.1635
      vertex -5 -2.02252 28.5186
    endloop
  endfacet
  facet normal -1 0 0
    outer loop
      vertex -5 -8 0
      vertex -5 -2.59382 5.8365
      vertex -5 -2.8 5
    endloop
  endfacet
  facet normal -1 -0 0
    outer loop
      vertex -5 -2.59382 5.8365
      vertex -5 -8 0
      vertex -5 -2.59382 29.1635
    endloop
  endfacet
  facet normal -1 0 0
    outer loop
      vertex -5 0.747695 5.43077
      vertex -5 4.5 0
      vertex -5 0.747695 4.56923
    endloop
  endfacet
  facet normal -1 0 0
    outer loop
      vertex -5 4.5 0
      vertex -5 0.347319 3.80638
      vertex -5 0.747695 4.56923
    endloop
  endfacet
  facet normal -1 0 0
    outer loop
      vertex -5 4.5 0
      vertex -5 -0.361712 3.31697
      vertex -5 0.347319 3.80638
    endloop
  endfacet
  facet normal -1 0 0
    outer loop
      vertex -5 4.5 0
      vertex -5 -1.21697 3.21312
      vertex -5 -0.361712 3.31697
    endloop
  endfacet
  facet normal -1 0 0
    outer loop
      vertex -5 -8 0
      vertex -5 -1.21697 3.21312
      vertex -5 4.5 0
    endloop
  endfacet
  facet normal -1 0 0
    outer loop
      vertex -5 -8 35
      vertex -5 -2.59382 29.1635
      vertex -5 -8 0
    endloop
  endfacet
  facet normal -1 -0 0
    outer loop
      vertex -5 -2.59382 4.1635
      vertex -5 -8 0
      vertex -5 -2.8 5
    endloop
  endfacet
  facet normal -1 -0 0
    outer loop
      vertex -5 -2.02252 3.51863
      vertex -5 -8 0
      vertex -5 -2.59382 4.1635
    endloop
  endfacet
  facet normal -1 -0 0
    outer loop
      vertex -5 -1.21697 3.21312
      vertex -5 -8 0
      vertex -5 -2.02252 3.51863
    endloop
  endfacet
  facet normal -1 0 0
    outer loop
      vertex -5 4.5 0
      vertex -5 0.747695 5.43077
      vertex -5 4.5 35
    endloop
  endfacet
  facet normal -1 0 0
    outer loop
      vertex -5 0.747695 29.5692
      vertex -5 4.5 35
      vertex -5 0.747695 5.43077
    endloop
  endfacet
  facet normal -1 0 0
    outer loop
      vertex -5 0.747695 30.4308
      vertex -5 4.5 35
      vertex -5 0.747695 29.5692
    endloop
  endfacet
  facet normal -1 0 0
    outer loop
      vertex -5 0.347319 31.1936
      vertex -5 4.5 35
      vertex -5 0.747695 30.4308
    endloop
  endfacet
  facet normal -1 0 0
    outer loop
      vertex -5 -0.361712 31.683
      vertex -5 4.5 35
      vertex -5 0.347319 31.1936
    endloop
  endfacet
  facet normal -1 0 0
    outer loop
      vertex -5 -1.21697 31.7869
      vertex -5 4.5 35
      vertex -5 -0.361712 31.683
    endloop
  endfacet
  facet normal -1 0 0
    outer loop
      vertex -5 -8 35
      vertex -5 -1.21697 31.7869
      vertex -5 -2.02252 31.4814
    endloop
  endfacet
  facet normal -1 0 0
    outer loop
      vertex -5 -1.21697 31.7869
      vertex -5 -8 35
      vertex -5 4.5 35
    endloop
  endfacet
  facet normal -1 0 0
    outer loop
      vertex -5 -2.59382 30.8365
      vertex -5 -8 35
      vertex -5 -2.02252 31.4814
    endloop
  endfacet
  facet normal -1 0 0
    outer loop
      vertex -5 -2.8 30
      vertex -5 -8 35
      vertex -5 -2.59382 30.8365
    endloop
  endfacet
  facet normal -1 0 0
    outer loop
      vertex -5 -2.59382 29.1635
      vertex -5 -8 35
      vertex -5 -2.8 30
    endloop
  endfacet
  facet normal 0 1 -0
    outer loop
      vertex 7.15 4.5 0
      vertex -5 4.5 35
      vertex 7.15 4.5 35
    endloop
  endfacet
  facet normal 0 1 0
    outer loop
      vertex -5 4.5 35
      vertex 7.15 4.5 0
      vertex -5 4.5 0
    endloop
  endfacet
  facet normal 0 -1 0
    outer loop
      vertex -5 -8 35
      vertex 5.5 -8 33.4641
      vertex 18 -8 35
    endloop
  endfacet
  facet normal 0 -1 0
    outer loop
      vertex -5 -8 35
      vertex 0.5 -8 32.8579
      vertex 5.5 -8 33.4641
    endloop
  endfacet
  facet normal 0 -1 0
    outer loop
      vertex -5 -8 35
      vertex 0.5 -8 27.1421
      vertex 0.5 -8 32.8579
    endloop
  endfacet
  facet normal 0 -1 0
    outer loop
      vertex 0.5 -8 27.1421
      vertex 5.5 -8 8.4641
      vertex 5.5 -8 26.5359
    endloop
  endfacet
  facet normal 0 -1 0
    outer loop
      vertex 0.5 -8 7.85788
      vertex 0.5 -8 27.1421
      vertex -5 -8 35
    endloop
  endfacet
  facet normal 0 -1 0
    outer loop
      vertex 0.5 -8 27.1421
      vertex 0.5 -8 7.85788
      vertex 5.5 -8 8.4641
    endloop
  endfacet
  facet normal 0 -1 0
    outer loop
      vertex -5 -8 0
      vertex 0.5 -8 7.85788
      vertex -5 -8 35
    endloop
  endfacet
  facet normal 0 -1 -0
    outer loop
      vertex 0.5 -8 2.14212
      vertex -5 -8 0
      vertex 5.5 -8 1.5359
    endloop
  endfacet
  facet normal 0 -1 -0
    outer loop
      vertex 0.5 -8 7.85788
      vertex -5 -8 0
      vertex 0.5 -8 2.14212
    endloop
  endfacet
  facet normal 0 -1 0
    outer loop
      vertex 5.5 -8 26.5359
      vertex 18 -8 35
      vertex 5.5 -8 33.4641
    endloop
  endfacet
  facet normal 0 -1 0
    outer loop
      vertex 5.5 -8 8.4641
      vertex 18 -8 35
      vertex 5.5 -8 26.5359
    endloop
  endfacet
  facet normal 0 -1 0
    outer loop
      vertex 18 -8 0
      vertex 5.5 -8 8.4641
      vertex 5.5 -8 1.5359
    endloop
  endfacet
  facet normal 0 -1 0
    outer loop
      vertex 5.5 -8 8.4641
      vertex 18 -8 0
      vertex 18 -8 35
    endloop
  endfacet
  facet normal 0 -1 0
    outer loop
      vertex 18 -8 0
      vertex 5.5 -8 1.5359
      vertex -5 -8 0
    endloop
  endfacet
  facet normal 0.120362 0 -0.99273
    outer loop
      vertex 0.5 0.65 7.85788
      vertex 5.5 -8 8.4641
      vertex 0.5 -8 7.85788
    endloop
  endfacet
  facet normal 0.120362 0 -0.99273
    outer loop
      vertex 5.5 -8 8.4641
      vertex 0.5 0.65 7.85788
      vertex 5.5 0.999999 8.4641
    endloop
  endfacet
  facet normal 0.120362 -0.859729 0.496365
    outer loop
      vertex 5.5 1 1.5359
      vertex 5.5 3 5
      vertex 0.5 0.65 2.14212
    endloop
  endfacet
  facet normal 0.120362 -0.859729 -0.496365
    outer loop
      vertex 5.5 3 5
      vertex 0.5 0.65 7.85788
      vertex 0.5 2.3 5
    endloop
  endfacet
  facet normal 0.120362 -0.859729 -0.496365
    outer loop
      vertex 5.5 3 5
      vertex 5.5 0.999999 8.4641
      vertex 0.5 0.65 7.85788
    endloop
  endfacet
  facet normal 0.120362 -0.859729 0.496365
    outer loop
      vertex 5.5 3 5
      vertex 0.5 2.3 5
      vertex 0.5 0.65 2.14212
    endloop
  endfacet
  facet normal 1 0 0
    outer loop
      vertex 0.5 2.3 5
      vertex 0.5 0.682143 7.78984
      vertex 0.5 2.29286 5
    endloop
  endfacet
  facet normal 1 0 0
    outer loop
      vertex 0.5 0.65 7.85788
      vertex 0.5 0.682143 7.78984
      vertex 0.5 2.3 5
    endloop
  endfacet
  facet normal 1 0 0
    outer loop
      vertex 0.5 0.65 7.85788
      vertex 0.5 0.646428 7.8517
      vertex 0.5 0.682143 7.78984
    endloop
  endfacet
  facet normal 1 0 0
    outer loop
      vertex 0.5 0.65 7.85788
      vertex 0.5 -2.64643 7.8517
      vertex 0.5 0.646428 7.8517
    endloop
  endfacet
  facet normal 1 0 0
    outer loop
      vertex 0.5 -2.68214 7.78984
      vertex 0.5 -8 7.85788
      vertex 0.5 -4.29286 5
    endloop
  endfacet
  facet normal 1 0 0
    outer loop
      vertex 0.5 -2.64643 7.8517
      vertex 0.5 -8 7.85788
      vertex 0.5 -2.68214 7.78984
    endloop
  endfacet
  facet normal 1 -0 0
    outer loop
      vertex 0.5 -8 7.85788
      vertex 0.5 -2.64643 7.8517
      vertex 0.5 0.65 7.85788
    endloop
  endfacet
  facet normal 1 0 0
    outer loop
      vertex 0.5 0.682143 2.21016
      vertex 0.5 2.3 5
      vertex 0.5 2.29286 5
    endloop
  endfacet
  facet normal 1 -0 0
    outer loop
      vertex 0.5 0.682143 2.21016
      vertex 0.5 0.65 2.14212
      vertex 0.5 2.3 5
    endloop
  endfacet
  facet normal 1 -0 0
    outer loop
      vertex 0.5 0.646428 2.1483
      vertex 0.5 0.65 2.14212
      vertex 0.5 0.682143 2.21016
    endloop
  endfacet
  facet normal 1 -0 0
    outer loop
      vertex 0.5 -2.64643 2.1483
      vertex 0.5 0.65 2.14212
      vertex 0.5 0.646428 2.1483
    endloop
  endfacet
  facet normal 1 0 0
    outer loop
      vertex 0.5 -8 2.14212
      vertex 0.5 -4.29286 5
      vertex 0.5 -8 7.85788
    endloop
  endfacet
  facet normal 1 0 0
    outer loop
      vertex 0.5 -4.29286 5
      vertex 0.5 -8 2.14212
      vertex 0.5 -2.68214 2.21016
    endloop
  endfacet
  facet normal 1 0 0
    outer loop
      vertex 0.5 -2.64643 2.1483
      vertex 0.5 -8 2.14212
      vertex 0.5 0.65 2.14212
    endloop
  endfacet
  facet normal 1 0 0
    outer loop
      vertex 0.5 -2.68214 2.21016
      vertex 0.5 -8 2.14212
      vertex 0.5 -2.64643 2.1483
    endloop
  endfacet
  facet normal -1 0 0
    outer loop
      vertex 5.5 0.347319 3.80638
      vertex 5.5 3 5
      vertex 5.5 1 1.5359
    endloop
  endfacet
  facet normal -1 0 0
    outer loop
      vertex 5.5 0.747695 5.43077
      vertex 5.5 3 5
      vertex 5.5 0.747695 4.56923
    endloop
  endfacet
  facet normal -1 0 0
    outer loop
      vertex 5.5 3 5
      vertex 5.5 0.347319 3.80638
      vertex 5.5 0.747695 4.56923
    endloop
  endfacet
  facet normal -1 0 0
    outer loop
      vertex 5.5 1 1.5359
      vertex 5.5 -0.361712 3.31697
      vertex 5.5 0.347319 3.80638
    endloop
  endfacet
  facet normal -1 0 0
    outer loop
      vertex 5.5 1 1.5359
      vertex 5.5 -1.21697 3.21312
      vertex 5.5 -0.361712 3.31697
    endloop
  endfacet
  facet normal -1 0 0
    outer loop
      vertex 5.5 -8 1.5359
      vertex 5.5 -1.21697 3.21312
      vertex 5.5 1 1.5359
    endloop
  endfacet
  facet normal -1 -0 0
    outer loop
      vertex 5.5 -2.59382 4.1635
      vertex 5.5 -8 1.5359
      vertex 5.5 -2.8 5
    endloop
  endfacet
  facet normal -1 -0 0
    outer loop
      vertex 5.5 -2.02252 3.51863
      vertex 5.5 -8 1.5359
      vertex 5.5 -2.59382 4.1635
    endloop
  endfacet
  facet normal -1 -0 0
    outer loop
      vertex 5.5 -1.21697 3.21312
      vertex 5.5 -8 1.5359
      vertex 5.5 -2.02252 3.51863
    endloop
  endfacet
  facet normal -1 0 0
    outer loop
      vertex 5.5 0.347319 6.19362
      vertex 5.5 3 5
      vertex 5.5 0.747695 5.43077
    endloop
  endfacet
  facet normal -1 0 0
    outer loop
      vertex 5.5 3 5
      vertex 5.5 0.347319 6.19362
      vertex 5.5 0.999999 8.4641
    endloop
  endfacet
  facet normal -1 0 0
    outer loop
      vertex 5.5 -0.361712 6.68303
      vertex 5.5 0.999999 8.4641
      vertex 5.5 0.347319 6.19362
    endloop
  endfacet
  facet normal -1 0 0
    outer loop
      vertex 5.5 -1.21697 6.78688
      vertex 5.5 0.999999 8.4641
      vertex 5.5 -0.361712 6.68303
    endloop
  endfacet
  facet normal -1 0 0
    outer loop
      vertex 5.5 -8 8.4641
      vertex 5.5 -1.21697 6.78688
      vertex 5.5 -2.02252 6.48137
    endloop
  endfacet
  facet normal -1 0 0
    outer loop
      vertex 5.5 -8 8.4641
      vertex 5.5 -2.8 5
      vertex 5.5 -8 1.5359
    endloop
  endfacet
  facet normal -1 0 0
    outer loop
      vertex 5.5 -2.8 5
      vertex 5.5 -8 8.4641
      vertex 5.5 -2.59382 5.8365
    endloop
  endfacet
  facet normal -1 0 0
    outer loop
      vertex 5.5 -1.21697 6.78688
      vertex 5.5 -8 8.4641
      vertex 5.5 0.999999 8.4641
    endloop
  endfacet
  facet normal -1 0 0
    outer loop
      vertex 5.5 -2.59382 5.8365
      vertex 5.5 -8 8.4641
      vertex 5.5 -2.02252 6.48137
    endloop
  endfacet
  facet normal 0.120362 0 0.99273
    outer loop
      vertex 0.5 0.65 2.14212
      vertex 5.5 -8 1.5359
      vertex 5.5 1 1.5359
    endloop
  endfacet
  facet normal 0.120362 0 0.99273
    outer loop
      vertex 5.5 -8 1.5359
      vertex 0.5 0.65 2.14212
      vertex 0.5 -8 2.14212
    endloop
  endfacet
  facet normal 0.122781 0.859473 -0.496217
    outer loop
      vertex 0.5 -2.68214 7.78984
      vertex 0.5 -4.29286 5
      vertex -1.55 -4 5
    endloop
  endfacet
  facet normal 0.122782 -0.859473 0.496217
    outer loop
      vertex 0.5 0.682143 2.21016
      vertex 0.5 2.29286 5
      vertex -1.55 2 5
    endloop
  endfacet
  facet normal 1 -0 0
    outer loop
      vertex -1.55 0.347319 6.19362
      vertex -1.55 2 5
      vertex -1.55 0.499999 7.59808
    endloop
  endfacet
  facet normal 1 0 0
    outer loop
      vertex -1.55 2 5
      vertex -1.55 0.347319 6.19362
      vertex -1.55 0.747695 5.43077
    endloop
  endfacet
  facet normal 1 0 0
    outer loop
      vertex -1.55 0.499999 7.59808
      vertex -1.55 -0.361712 6.68303
      vertex -1.55 0.347319 6.19362
    endloop
  endfacet
  facet normal 1 0 0
    outer loop
      vertex -1.55 0.499999 7.59808
      vertex -1.55 -1.21697 6.78688
      vertex -1.55 -0.361712 6.68303
    endloop
  endfacet
  facet normal 1 -0 0
    outer loop
      vertex -1.55 -2.5 7.59808
      vertex -1.55 -1.21697 6.78688
      vertex -1.55 0.499999 7.59808
    endloop
  endfacet
  facet normal 1 0 0
    outer loop
      vertex -1.55 -1.21697 6.78688
      vertex -1.55 -2.5 7.59808
      vertex -1.55 -2.02252 6.48137
    endloop
  endfacet
  facet normal 1 0 0
    outer loop
      vertex -1.55 -2.5 7.59808
      vertex -1.55 -2.59382 5.8365
      vertex -1.55 -2.02252 6.48137
    endloop
  endfacet
  facet normal 1 0 0
    outer loop
      vertex -1.55 -4 5
      vertex -1.55 -2.59382 5.8365
      vertex -1.55 -2.5 7.59808
    endloop
  endfacet
  facet normal 1 0 0
    outer loop
      vertex -1.55 -2.59382 5.8365
      vertex -1.55 -4 5
      vertex -1.55 -2.8 5
    endloop
  endfacet
  facet normal 1 0 0
    outer loop
      vertex -1.55 0.747695 4.56923
      vertex -1.55 2 5
      vertex -1.55 0.747695 5.43077
    endloop
  endfacet
  facet normal 1 0 0
    outer loop
      vertex -1.55 0.347319 3.80638
      vertex -1.55 2 5
      vertex -1.55 0.747695 4.56923
    endloop
  endfacet
  facet normal 1 0 0
    outer loop
      vertex -1.55 2 5
      vertex -1.55 0.347319 3.80638
      vertex -1.55 0.5 2.40192
    endloop
  endfacet
  facet normal 1 -0 0
    outer loop
      vertex -1.55 -0.361712 3.31697
      vertex -1.55 0.5 2.40192
      vertex -1.55 0.347319 3.80638
    endloop
  endfacet
  facet normal 1 -0 0
    outer loop
      vertex -1.55 -1.21697 3.21312
      vertex -1.55 0.5 2.40192
      vertex -1.55 -0.361712 3.31697
    endloop
  endfacet
  facet normal 1 0 0
    outer loop
      vertex -1.55 -2.5 2.40192
      vertex -1.55 -1.21697 3.21312
      vertex -1.55 -2.02252 3.51863
    endloop
  endfacet
  facet normal 1 0 0
    outer loop
      vertex -1.55 -1.21697 3.21312
      vertex -1.55 -2.5 2.40192
      vertex -1.55 0.5 2.40192
    endloop
  endfacet
  facet normal 1 0 0
    outer loop
      vertex -1.55 -2.59382 4.1635
      vertex -1.55 -2.5 2.40192
      vertex -1.55 -2.02252 3.51863
    endloop
  endfacet
  facet normal 1 -0 0
    outer loop
      vertex -1.55 -4 5
      vertex -1.55 -2.59382 4.1635
      vertex -1.55 -2.8 5
    endloop
  endfacet
  facet normal 1 0 0
    outer loop
      vertex -1.55 -2.59382 4.1635
      vertex -1.55 -4 5
      vertex -1.55 -2.5 2.40192
    endloop
  endfacet
  facet normal 0.122782 0 -0.992434
    outer loop
      vertex -1.55 -2.5 7.59808
      vertex 0.5 0.646428 7.8517
      vertex 0.5 -2.64643 7.8517
    endloop
  endfacet
  facet normal 0.122782 0 -0.992434
    outer loop
      vertex 0.5 0.646428 7.8517
      vertex -1.55 -2.5 7.59808
      vertex -1.55 0.499999 7.59808
    endloop
  endfacet
  facet normal 0.122782 0.859471 -0.496219
    outer loop
      vertex 0.5 -2.68214 7.78984
      vertex -1.55 -2.5 7.59808
      vertex 0.5 -2.64643 7.8517
    endloop
  endfacet
  facet normal 0.122782 0.859473 -0.496217
    outer loop
      vertex -1.55 -2.5 7.59808
      vertex 0.5 -2.68214 7.78984
      vertex -1.55 -4 5
    endloop
  endfacet
  facet normal 0.122782 -0.859473 0.496217
    outer loop
      vertex -1.55 0.5 2.40192
      vertex 0.5 0.682143 2.21016
      vertex -1.55 2 5
    endloop
  endfacet
  facet normal 0.122782 -0.859472 0.496217
    outer loop
      vertex 0.5 0.682143 2.21016
      vertex -1.55 0.5 2.40192
      vertex 0.5 0.646428 2.1483
    endloop
  endfacet
  facet normal 0.122782 0 0.992434
    outer loop
      vertex -1.55 0.5 2.40192
      vertex 0.5 -2.64643 2.1483
      vertex 0.5 0.646428 2.1483
    endloop
  endfacet
  facet normal 0.122782 0 0.992434
    outer loop
      vertex 0.5 -2.64643 2.1483
      vertex -1.55 0.5 2.40192
      vertex -1.55 -2.5 2.40192
    endloop
  endfacet
  facet normal 0.122781 0.859473 0.496217
    outer loop
      vertex 0.5 -4.29286 5
      vertex 0.5 -2.68214 2.21016
      vertex -1.55 -4 5
    endloop
  endfacet
  facet normal 0.122782 -0.859472 -0.496217
    outer loop
      vertex -1.55 0.499999 7.59808
      vertex 0.5 0.682143 7.78984
      vertex 0.5 0.646428 7.8517
    endloop
  endfacet
  facet normal 0.122782 -0.859473 -0.496217
    outer loop
      vertex 0.5 0.682143 7.78984
      vertex -1.55 0.499999 7.59808
      vertex -1.55 2 5
    endloop
  endfacet
  facet normal 0.122782 -0.859473 -0.496217
    outer loop
      vertex 0.5 2.29286 5
      vertex 0.5 0.682143 7.78984
      vertex -1.55 2 5
    endloop
  endfacet
  facet normal 0.122782 0.859473 0.496217
    outer loop
      vertex 0.5 -2.68214 2.21016
      vertex -1.55 -2.5 2.40192
      vertex -1.55 -4 5
    endloop
  endfacet
  facet normal 0.122782 0.859471 0.496219
    outer loop
      vertex -1.55 -2.5 2.40192
      vertex 0.5 -2.68214 2.21016
      vertex 0.5 -2.64643 2.1483
    endloop
  endfacet
  facet normal 0 0.970942 -0.239315
    outer loop
      vertex 10 -2.8 5
      vertex 5.5 -2.59382 5.8365
      vertex 10 -2.59382 5.8365
    endloop
  endfacet
  facet normal 0 0.970942 -0.239315
    outer loop
      vertex 5.5 -2.59382 5.8365
      vertex 10 -2.8 5
      vertex 5.5 -2.8 5
    endloop
  endfacet
  facet normal 0 0.970942 -0.239315
    outer loop
      vertex -1.55 -2.8 5
      vertex -5 -2.59382 5.8365
      vertex -1.55 -2.59382 5.8365
    endloop
  endfacet
  facet normal 0 0.970942 -0.239315
    outer loop
      vertex -5 -2.59382 5.8365
      vertex -1.55 -2.8 5
      vertex -5 -2.8 5
    endloop
  endfacet
  facet normal -1 -7.6116e-07 3.99488e-07
    outer loop
      vertex 10 0.347319 3.80638
      vertex 10 0.347319 6.19362
      vertex 10 0.747695 4.56923
    endloop
  endfacet
  facet normal -1 0 0
    outer loop
      vertex 10 0.347319 6.19362
      vertex 10 -1.21697 6.78688
      vertex 10 -0.361712 6.68303
    endloop
  endfacet
  facet normal -1 0 -0
    outer loop
      vertex 10 -1.21697 6.78688
      vertex 10 0.347319 6.19362
      vertex 10 -2.02252 6.48137
    endloop
  endfacet
  facet normal 0 -1 0
    outer loop
      vertex 5.5 0.747695 4.56923
      vertex 10 0.747695 5.43077
      vertex 5.5 0.747695 5.43077
    endloop
  endfacet
  facet normal 0 -1 -0
    outer loop
      vertex 10 0.747695 5.43077
      vertex 5.5 0.747695 4.56923
      vertex 10 0.747695 4.56923
    endloop
  endfacet
  facet normal 0 -1 0
    outer loop
      vertex -5 0.747695 4.56923
      vertex -1.55 0.747695 5.43077
      vertex -5 0.747695 5.43077
    endloop
  endfacet
  facet normal 0 -1 -0
    outer loop
      vertex -1.55 0.747695 5.43077
      vertex -5 0.747695 4.56923
      vertex -1.55 0.747695 4.56923
    endloop
  endfacet
  facet normal 0 -0.120537 -0.992709
    outer loop
      vertex 5.5 -1.21697 6.78688
      vertex 10 -0.361712 6.68303
      vertex 10 -1.21697 6.78688
    endloop
  endfacet
  facet normal -0 -0.120537 -0.992709
    outer loop
      vertex 10 -0.361712 6.68303
      vertex 5.5 -1.21697 6.78688
      vertex 5.5 -0.361712 6.68303
    endloop
  endfacet
  facet normal 0 -0.120537 -0.992709
    outer loop
      vertex -5 -1.21697 6.78688
      vertex -1.55 -0.361712 6.68303
      vertex -1.55 -1.21697 6.78688
    endloop
  endfacet
  facet normal -0 -0.120537 -0.992709
    outer loop
      vertex -1.55 -0.361712 6.68303
      vertex -5 -1.21697 6.78688
      vertex -5 -0.361712 6.68303
    endloop
  endfacet
  facet normal -1 -2.38194e-06 0
    outer loop
      vertex 10 0.347319 6.19362
      vertex 10 0.747695 5.43077
      vertex 10 0.747695 4.56923
    endloop
  endfacet
  facet normal 0 -0.568065 -0.822984
    outer loop
      vertex 5.5 -0.361712 6.68303
      vertex 10 0.347319 6.19362
      vertex 10 -0.361712 6.68303
    endloop
  endfacet
  facet normal -0 -0.568065 -0.822984
    outer loop
      vertex 10 0.347319 6.19362
      vertex 5.5 -0.361712 6.68303
      vertex 5.5 0.347319 6.19362
    endloop
  endfacet
  facet normal 0 -0.568065 -0.822984
    outer loop
      vertex -5 -0.361712 6.68303
      vertex -1.55 0.347319 6.19362
      vertex -1.55 -0.361712 6.68303
    endloop
  endfacet
  facet normal -0 -0.568065 -0.822984
    outer loop
      vertex -1.55 0.347319 6.19362
      vertex -5 -0.361712 6.68303
      vertex -5 0.347319 6.19362
    endloop
  endfacet
  facet normal -1 2.31273e-06 -5.70036e-07
    outer loop
      vertex 10 -2.02252 6.48137
      vertex 10 -2.8 5
      vertex 10 -2.59382 5.8365
    endloop
  endfacet
  facet normal 0 0.748511 0.663122
    outer loop
      vertex -1.55 -2.02252 3.51863
      vertex -5 -2.59382 4.1635
      vertex -1.55 -2.59382 4.1635
    endloop
  endfacet
  facet normal 0 0.748511 0.663122
    outer loop
      vertex -5 -2.59382 4.1635
      vertex -1.55 -2.02252 3.51863
      vertex -5 -2.02252 3.51863
    endloop
  endfacet
  facet normal 0 0.748511 0.663122
    outer loop
      vertex 10 -2.02252 3.51863
      vertex 5.5 -2.59382 4.1635
      vertex 10 -2.59382 4.1635
    endloop
  endfacet
  facet normal 0 0.748511 0.663122
    outer loop
      vertex 5.5 -2.59382 4.1635
      vertex 10 -2.02252 3.51863
      vertex 5.5 -2.02252 3.51863
    endloop
  endfacet
  facet normal -1 3.63338e-07 3.21889e-07
    outer loop
      vertex 10 -2.59382 4.1635
      vertex 10 -2.02252 6.48137
      vertex 10 -2.02252 3.51863
    endloop
  endfacet
  facet normal 0 0.748511 -0.663122
    outer loop
      vertex 10 -2.59382 5.8365
      vertex 5.5 -2.02252 6.48137
      vertex 10 -2.02252 6.48137
    endloop
  endfacet
  facet normal 0 0.748511 -0.663122
    outer loop
      vertex 5.5 -2.02252 6.48137
      vertex 10 -2.59382 5.8365
      vertex 5.5 -2.59382 5.8365
    endloop
  endfacet
  facet normal 0 0.748511 -0.663122
    outer loop
      vertex -1.55 -2.59382 5.8365
      vertex -5 -2.02252 6.48137
      vertex -1.55 -2.02252 6.48137
    endloop
  endfacet
  facet normal 0 0.748511 -0.663122
    outer loop
      vertex -5 -2.02252 6.48137
      vertex -1.55 -2.59382 5.8365
      vertex -5 -2.59382 5.8365
    endloop
  endfacet
  facet normal 0 -0.885456 -0.464723
    outer loop
      vertex 5.5 0.747695 5.43077
      vertex 10 0.347319 6.19362
      vertex 5.5 0.347319 6.19362
    endloop
  endfacet
  facet normal 0 -0.885456 -0.464723
    outer loop
      vertex 10 0.347319 6.19362
      vertex 5.5 0.747695 5.43077
      vertex 10 0.747695 5.43077
    endloop
  endfacet
  facet normal 0 -0.885456 -0.464723
    outer loop
      vertex -5 0.747695 5.43077
      vertex -1.55 0.347319 6.19362
      vertex -5 0.347319 6.19362
    endloop
  endfacet
  facet normal 0 -0.885456 -0.464723
    outer loop
      vertex -1.55 0.347319 6.19362
      vertex -5 0.747695 5.43077
      vertex -1.55 0.747695 5.43077
    endloop
  endfacet
  facet normal -1 8.34647e-07 2.05722e-07
    outer loop
      vertex 10 -2.8 5
      vertex 10 -2.02252 6.48137
      vertex 10 -2.59382 4.1635
    endloop
  endfacet
  facet normal -1 -4.1496e-08 3.4175e-07
    outer loop
      vertex 10 -1.21697 3.21312
      vertex 10 0.347319 6.19362
      vertex 10 -0.361712 3.31697
    endloop
  endfacet
  facet normal 0 0.970942 0.239315
    outer loop
      vertex -1.55 -2.59382 4.1635
      vertex -5 -2.8 5
      vertex -1.55 -2.8 5
    endloop
  endfacet
  facet normal 0 0.970942 0.239315
    outer loop
      vertex -5 -2.8 5
      vertex -1.55 -2.59382 4.1635
      vertex -5 -2.59382 4.1635
    endloop
  endfacet
  facet normal 0 0.970942 0.239315
    outer loop
      vertex 10 -2.59382 4.1635
      vertex 5.5 -2.8 5
      vertex 10 -2.8 5
    endloop
  endfacet
  facet normal 0 0.970942 0.239315
    outer loop
      vertex 5.5 -2.8 5
      vertex 10 -2.59382 4.1635
      vertex 5.5 -2.59382 4.1635
    endloop
  endfacet
  facet normal 0 -0.885456 0.464723
    outer loop
      vertex 5.5 0.347319 3.80638
      vertex 10 0.747695 4.56923
      vertex 5.5 0.747695 4.56923
    endloop
  endfacet
  facet normal 0 -0.885456 0.464723
    outer loop
      vertex 10 0.747695 4.56923
      vertex 5.5 0.347319 3.80638
      vertex 10 0.347319 3.80638
    endloop
  endfacet
  facet normal 0 -0.885456 0.464723
    outer loop
      vertex -5 0.347319 3.80638
      vertex -1.55 0.747695 4.56923
      vertex -5 0.747695 4.56923
    endloop
  endfacet
  facet normal 0 -0.885456 0.464723
    outer loop
      vertex -1.55 0.747695 4.56923
      vertex -5 0.347319 3.80638
      vertex -1.55 0.347319 3.80638
    endloop
  endfacet
  facet normal -1 -2.75747e-07 3.99488e-07
    outer loop
      vertex 10 -0.361712 3.31697
      vertex 10 0.347319 6.19362
      vertex 10 0.347319 3.80638
    endloop
  endfacet
  facet normal -0 0.354605 0.935016
    outer loop
      vertex -5 -1.21697 3.21312
      vertex -1.55 -2.02252 3.51863
      vertex -1.55 -1.21697 3.21312
    endloop
  endfacet
  facet normal 0 0.354605 0.935016
    outer loop
      vertex -1.55 -2.02252 3.51863
      vertex -5 -1.21697 3.21312
      vertex -5 -2.02252 3.51863
    endloop
  endfacet
  facet normal -0 0.354605 0.935016
    outer loop
      vertex 5.5 -1.21697 3.21312
      vertex 10 -2.02252 3.51863
      vertex 10 -1.21697 3.21312
    endloop
  endfacet
  facet normal 0 0.354605 0.935016
    outer loop
      vertex 10 -2.02252 3.51863
      vertex 5.5 -1.21697 3.21312
      vertex 5.5 -2.02252 3.51863
    endloop
  endfacet
  facet normal -1 3.6524e-08 3.00802e-07
    outer loop
      vertex 10 -2.02252 6.48137
      vertex 10 0.347319 6.19362
      vertex 10 -1.21697 3.21312
    endloop
  endfacet
  facet normal -1 1.22076e-07 3.21889e-07
    outer loop
      vertex 10 -2.02252 3.51863
      vertex 10 -2.02252 6.48137
      vertex 10 -1.21697 3.21312
    endloop
  endfacet
  facet normal 0 -0.120537 0.992709
    outer loop
      vertex -5 -0.361712 3.31697
      vertex -1.55 -1.21697 3.21312
      vertex -1.55 -0.361712 3.31697
    endloop
  endfacet
  facet normal 0 -0.120537 0.992709
    outer loop
      vertex -1.55 -1.21697 3.21312
      vertex -5 -0.361712 3.31697
      vertex -5 -1.21697 3.21312
    endloop
  endfacet
  facet normal 0 -0.120537 0.992709
    outer loop
      vertex 5.5 -0.361712 3.31697
      vertex 10 -1.21697 3.21312
      vertex 10 -0.361712 3.31697
    endloop
  endfacet
  facet normal 0 -0.120537 0.992709
    outer loop
      vertex 10 -1.21697 3.21312
      vertex 5.5 -0.361712 3.31697
      vertex 5.5 -1.21697 3.21312
    endloop
  endfacet
  facet normal 0 0.354605 -0.935016
    outer loop
      vertex 5.5 -2.02252 6.48137
      vertex 10 -1.21697 6.78688
      vertex 10 -2.02252 6.48137
    endloop
  endfacet
  facet normal 0 0.354605 -0.935016
    outer loop
      vertex 10 -1.21697 6.78688
      vertex 5.5 -2.02252 6.48137
      vertex 5.5 -1.21697 6.78688
    endloop
  endfacet
  facet normal 0 0.354605 -0.935016
    outer loop
      vertex -5 -2.02252 6.48137
      vertex -1.55 -1.21697 6.78688
      vertex -1.55 -2.02252 6.48137
    endloop
  endfacet
  facet normal 0 0.354605 -0.935016
    outer loop
      vertex -1.55 -1.21697 6.78688
      vertex -5 -2.02252 6.48137
      vertex -5 -1.21697 6.78688
    endloop
  endfacet
  facet normal 0 -0.568065 0.822984
    outer loop
      vertex 5.5 0.347319 3.80638
      vertex 10 -0.361712 3.31697
      vertex 10 0.347319 3.80638
    endloop
  endfacet
  facet normal 0 -0.568065 0.822984
    outer loop
      vertex 10 -0.361712 3.31697
      vertex 5.5 0.347319 3.80638
      vertex 5.5 -0.361712 3.31697
    endloop
  endfacet
  facet normal 0 -0.568065 0.822984
    outer loop
      vertex -5 0.347319 3.80638
      vertex -1.55 -0.361712 3.31697
      vertex -1.55 0.347319 3.80638
    endloop
  endfacet
  facet normal 0 -0.568065 0.822984
    outer loop
      vertex -1.55 -0.361712 3.31697
      vertex -5 0.347319 3.80638
      vertex -5 -0.361712 3.31697
    endloop
  endfacet
  facet normal 0.120362 0 -0.99273
    outer loop
      vertex 0.5 0.65 32.8579
      vertex 5.5 -8 33.4641
      vertex 0.5 -8 32.8579
    endloop
  endfacet
  facet normal 0.120362 0 -0.99273
    outer loop
      vertex 5.5 -8 33.4641
      vertex 0.5 0.65 32.8579
      vertex 5.5 0.999999 33.4641
    endloop
  endfacet
  facet normal 0.120362 -0.859729 0.496365
    outer loop
      vertex 5.5 1 26.5359
      vertex 5.5 3 30
      vertex 0.5 0.65 27.1421
    endloop
  endfacet
  facet normal 0.120362 -0.859729 -0.496365
    outer loop
      vertex 5.5 3 30
      vertex 0.5 0.65 32.8579
      vertex 0.5 2.3 30
    endloop
  endfacet
  facet normal 0.120362 -0.859729 -0.496365
    outer loop
      vertex 5.5 3 30
      vertex 5.5 0.999999 33.4641
      vertex 0.5 0.65 32.8579
    endloop
  endfacet
  facet normal 0.120362 -0.859729 0.496365
    outer loop
      vertex 5.5 3 30
      vertex 0.5 2.3 30
      vertex 0.5 0.65 27.1421
    endloop
  endfacet
  facet normal 1 0 0
    outer loop
      vertex 0.5 2.3 30
      vertex 0.5 0.682143 32.7898
      vertex 0.5 2.29286 30
    endloop
  endfacet
  facet normal 1 0 0
    outer loop
      vertex 0.5 0.65 32.8579
      vertex 0.5 0.682143 32.7898
      vertex 0.5 2.3 30
    endloop
  endfacet
  facet normal 1 0 0
    outer loop
      vertex 0.5 0.65 32.8579
      vertex 0.5 0.646428 32.8517
      vertex 0.5 0.682143 32.7898
    endloop
  endfacet
  facet normal 1 0 0
    outer loop
      vertex 0.5 0.65 32.8579
      vertex 0.5 -2.64643 32.8517
      vertex 0.5 0.646428 32.8517
    endloop
  endfacet
  facet normal 1 0 0
    outer loop
      vertex 0.5 -2.68214 32.7898
      vertex 0.5 -8 32.8579
      vertex 0.5 -4.29286 30
    endloop
  endfacet
  facet normal 1 0 0
    outer loop
      vertex 0.5 -2.64643 32.8517
      vertex 0.5 -8 32.8579
      vertex 0.5 -2.68214 32.7898
    endloop
  endfacet
  facet normal 1 -0 0
    outer loop
      vertex 0.5 -8 32.8579
      vertex 0.5 -2.64643 32.8517
      vertex 0.5 0.65 32.8579
    endloop
  endfacet
  facet normal 1 0 0
    outer loop
      vertex 0.5 0.682143 27.2102
      vertex 0.5 2.3 30
      vertex 0.5 2.29286 30
    endloop
  endfacet
  facet normal 1 -0 0
    outer loop
      vertex 0.5 0.682143 27.2102
      vertex 0.5 0.65 27.1421
      vertex 0.5 2.3 30
    endloop
  endfacet
  facet normal 1 -0 0
    outer loop
      vertex 0.5 0.646428 27.1483
      vertex 0.5 0.65 27.1421
      vertex 0.5 0.682143 27.2102
    endloop
  endfacet
  facet normal 1 -0 0
    outer loop
      vertex 0.5 -2.64643 27.1483
      vertex 0.5 0.65 27.1421
      vertex 0.5 0.646428 27.1483
    endloop
  endfacet
  facet normal 1 0 0
    outer loop
      vertex 0.5 -8 27.1421
      vertex 0.5 -4.29286 30
      vertex 0.5 -8 32.8579
    endloop
  endfacet
  facet normal 1 0 0
    outer loop
      vertex 0.5 -4.29286 30
      vertex 0.5 -8 27.1421
      vertex 0.5 -2.68214 27.2102
    endloop
  endfacet
  facet normal 1 0 0
    outer loop
      vertex 0.5 -2.64643 27.1483
      vertex 0.5 -8 27.1421
      vertex 0.5 0.65 27.1421
    endloop
  endfacet
  facet normal 1 0 0
    outer loop
      vertex 0.5 -2.68214 27.2102
      vertex 0.5 -8 27.1421
      vertex 0.5 -2.64643 27.1483
    endloop
  endfacet
  facet normal -1 0 0
    outer loop
      vertex 5.5 0.347319 28.8064
      vertex 5.5 3 30
      vertex 5.5 1 26.5359
    endloop
  endfacet
  facet normal -1 0 0
    outer loop
      vertex 5.5 0.747695 30.4308
      vertex 5.5 3 30
      vertex 5.5 0.747695 29.5692
    endloop
  endfacet
  facet normal -1 0 0
    outer loop
      vertex 5.5 3 30
      vertex 5.5 0.347319 28.8064
      vertex 5.5 0.747695 29.5692
    endloop
  endfacet
  facet normal -1 0 0
    outer loop
      vertex 5.5 1 26.5359
      vertex 5.5 -0.361712 28.317
      vertex 5.5 0.347319 28.8064
    endloop
  endfacet
  facet normal -1 0 0
    outer loop
      vertex 5.5 1 26.5359
      vertex 5.5 -1.21697 28.2131
      vertex 5.5 -0.361712 28.317
    endloop
  endfacet
  facet normal -1 0 0
    outer loop
      vertex 5.5 -8 26.5359
      vertex 5.5 -1.21697 28.2131
      vertex 5.5 1 26.5359
    endloop
  endfacet
  facet normal -1 -0 0
    outer loop
      vertex 5.5 -2.59382 29.1635
      vertex 5.5 -8 26.5359
      vertex 5.5 -2.8 30
    endloop
  endfacet
  facet normal -1 -0 0
    outer loop
      vertex 5.5 -2.02252 28.5186
      vertex 5.5 -8 26.5359
      vertex 5.5 -2.59382 29.1635
    endloop
  endfacet
  facet normal -1 -0 0
    outer loop
      vertex 5.5 -1.21697 28.2131
      vertex 5.5 -8 26.5359
      vertex 5.5 -2.02252 28.5186
    endloop
  endfacet
  facet normal -1 0 0
    outer loop
      vertex 5.5 0.347319 31.1936
      vertex 5.5 3 30
      vertex 5.5 0.747695 30.4308
    endloop
  endfacet
  facet normal -1 0 0
    outer loop
      vertex 5.5 3 30
      vertex 5.5 0.347319 31.1936
      vertex 5.5 0.999999 33.4641
    endloop
  endfacet
  facet normal -1 0 0
    outer loop
      vertex 5.5 -0.361712 31.683
      vertex 5.5 0.999999 33.4641
      vertex 5.5 0.347319 31.1936
    endloop
  endfacet
  facet normal -1 0 0
    outer loop
      vertex 5.5 -1.21697 31.7869
      vertex 5.5 0.999999 33.4641
      vertex 5.5 -0.361712 31.683
    endloop
  endfacet
  facet normal -1 0 0
    outer loop
      vertex 5.5 -8 33.4641
      vertex 5.5 -1.21697 31.7869
      vertex 5.5 -2.02252 31.4814
    endloop
  endfacet
  facet normal -1 0 0
    outer loop
      vertex 5.5 -8 33.4641
      vertex 5.5 -2.8 30
      vertex 5.5 -8 26.5359
    endloop
  endfacet
  facet normal -1 0 0
    outer loop
      vertex 5.5 -2.8 30
      vertex 5.5 -8 33.4641
      vertex 5.5 -2.59382 30.8365
    endloop
  endfacet
  facet normal -1 0 0
    outer loop
      vertex 5.5 -1.21697 31.7869
      vertex 5.5 -8 33.4641
      vertex 5.5 0.999999 33.4641
    endloop
  endfacet
  facet normal -1 0 0
    outer loop
      vertex 5.5 -2.59382 30.8365
      vertex 5.5 -8 33.4641
      vertex 5.5 -2.02252 31.4814
    endloop
  endfacet
  facet normal 0.120362 0 0.99273
    outer loop
      vertex 0.5 0.65 27.1421
      vertex 5.5 -8 26.5359
      vertex 5.5 1 26.5359
    endloop
  endfacet
  facet normal 0.120362 0 0.99273
    outer loop
      vertex 5.5 -8 26.5359
      vertex 0.5 0.65 27.1421
      vertex 0.5 -8 27.1421
    endloop
  endfacet
  facet normal 0.122781 0.859473 -0.496217
    outer loop
      vertex 0.5 -2.68214 32.7898
      vertex 0.5 -4.29286 30
      vertex -1.55 -4 30
    endloop
  endfacet
  facet normal 0.122782 -0.859473 0.496217
    outer loop
      vertex 0.5 0.682143 27.2102
      vertex 0.5 2.29286 30
      vertex -1.55 2 30
    endloop
  endfacet
  facet normal 1 -0 0
    outer loop
      vertex -1.55 0.347319 31.1936
      vertex -1.55 2 30
      vertex -1.55 0.499999 32.5981
    endloop
  endfacet
  facet normal 1 0 0
    outer loop
      vertex -1.55 2 30
      vertex -1.55 0.347319 31.1936
      vertex -1.55 0.747695 30.4308
    endloop
  endfacet
  facet normal 1 0 0
    outer loop
      vertex -1.55 0.499999 32.5981
      vertex -1.55 -0.361712 31.683
      vertex -1.55 0.347319 31.1936
    endloop
  endfacet
  facet normal 1 0 0
    outer loop
      vertex -1.55 0.499999 32.5981
      vertex -1.55 -1.21697 31.7869
      vertex -1.55 -0.361712 31.683
    endloop
  endfacet
  facet normal 1 -0 0
    outer loop
      vertex -1.55 -2.5 32.5981
      vertex -1.55 -1.21697 31.7869
      vertex -1.55 0.499999 32.5981
    endloop
  endfacet
  facet normal 1 0 0
    outer loop
      vertex -1.55 -1.21697 31.7869
      vertex -1.55 -2.5 32.5981
      vertex -1.55 -2.02252 31.4814
    endloop
  endfacet
  facet normal 1 0 0
    outer loop
      vertex -1.55 -2.5 32.5981
      vertex -1.55 -2.59382 30.8365
      vertex -1.55 -2.02252 31.4814
    endloop
  endfacet
  facet normal 1 0 0
    outer loop
      vertex -1.55 -4 30
      vertex -1.55 -2.59382 30.8365
      vertex -1.55 -2.5 32.5981
    endloop
  endfacet
  facet normal 1 0 0
    outer loop
      vertex -1.55 -2.59382 30.8365
      vertex -1.55 -4 30
      vertex -1.55 -2.8 30
    endloop
  endfacet
  facet normal 1 0 0
    outer loop
      vertex -1.55 0.747695 29.5692
      vertex -1.55 2 30
      vertex -1.55 0.747695 30.4308
    endloop
  endfacet
  facet normal 1 0 0
    outer loop
      vertex -1.55 0.347319 28.8064
      vertex -1.55 2 30
      vertex -1.55 0.747695 29.5692
    endloop
  endfacet
  facet normal 1 0 0
    outer loop
      vertex -1.55 2 30
      vertex -1.55 0.347319 28.8064
      vertex -1.55 0.5 27.4019
    endloop
  endfacet
  facet normal 1 -0 0
    outer loop
      vertex -1.55 -0.361712 28.317
      vertex -1.55 0.5 27.4019
      vertex -1.55 0.347319 28.8064
    endloop
  endfacet
  facet normal 1 -0 0
    outer loop
      vertex -1.55 -1.21697 28.2131
      vertex -1.55 0.5 27.4019
      vertex -1.55 -0.361712 28.317
    endloop
  endfacet
  facet normal 1 0 0
    outer loop
      vertex -1.55 -2.5 27.4019
      vertex -1.55 -1.21697 28.2131
      vertex -1.55 -2.02252 28.5186
    endloop
  endfacet
  facet normal 1 0 0
    outer loop
      vertex -1.55 -1.21697 28.2131
      vertex -1.55 -2.5 27.4019
      vertex -1.55 0.5 27.4019
    endloop
  endfacet
  facet normal 1 0 0
    outer loop
      vertex -1.55 -2.59382 29.1635
      vertex -1.55 -2.5 27.4019
      vertex -1.55 -2.02252 28.5186
    endloop
  endfacet
  facet normal 1 -0 0
    outer loop
      vertex -1.55 -4 30
      vertex -1.55 -2.59382 29.1635
      vertex -1.55 -2.8 30
    endloop
  endfacet
  facet normal 1 0 0
    outer loop
      vertex -1.55 -2.59382 29.1635
      vertex -1.55 -4 30
      vertex -1.55 -2.5 27.4019
    endloop
  endfacet
  facet normal 0.122781 0 -0.992434
    outer loop
      vertex -1.55 -2.5 32.5981
      vertex 0.5 0.646428 32.8517
      vertex 0.5 -2.64643 32.8517
    endloop
  endfacet
  facet normal 0.122781 0 -0.992434
    outer loop
      vertex 0.5 0.646428 32.8517
      vertex -1.55 -2.5 32.5981
      vertex -1.55 0.499999 32.5981
    endloop
  endfacet
  facet normal 0.122782 0.859471 -0.496219
    outer loop
      vertex 0.5 -2.68214 32.7898
      vertex -1.55 -2.5 32.5981
      vertex 0.5 -2.64643 32.8517
    endloop
  endfacet
  facet normal 0.122781 0.859473 -0.496217
    outer loop
      vertex -1.55 -2.5 32.5981
      vertex 0.5 -2.68214 32.7898
      vertex -1.55 -4 30
    endloop
  endfacet
  facet normal 0.122782 -0.859473 0.496217
    outer loop
      vertex -1.55 0.5 27.4019
      vertex 0.5 0.682143 27.2102
      vertex -1.55 2 30
    endloop
  endfacet
  facet normal 0.122782 -0.859472 0.496217
    outer loop
      vertex 0.5 0.682143 27.2102
      vertex -1.55 0.5 27.4019
      vertex 0.5 0.646428 27.1483
    endloop
  endfacet
  facet normal 0.122782 0 0.992434
    outer loop
      vertex -1.55 0.5 27.4019
      vertex 0.5 -2.64643 27.1483
      vertex 0.5 0.646428 27.1483
    endloop
  endfacet
  facet normal 0.122782 0 0.992434
    outer loop
      vertex 0.5 -2.64643 27.1483
      vertex -1.55 0.5 27.4019
      vertex -1.55 -2.5 27.4019
    endloop
  endfacet
  facet normal 0.122782 0.859473 0.496217
    outer loop
      vertex 0.5 -4.29286 30
      vertex 0.5 -2.68214 27.2102
      vertex -1.55 -4 30
    endloop
  endfacet
  facet normal 0.122782 -0.859472 -0.496217
    outer loop
      vertex -1.55 0.499999 32.5981
      vertex 0.5 0.682143 32.7898
      vertex 0.5 0.646428 32.8517
    endloop
  endfacet
  facet normal 0.122782 -0.859473 -0.496217
    outer loop
      vertex 0.5 0.682143 32.7898
      vertex -1.55 0.499999 32.5981
      vertex -1.55 2 30
    endloop
  endfacet
  facet normal 0.122782 -0.859473 -0.496217
    outer loop
      vertex 0.5 2.29286 30
      vertex 0.5 0.682143 32.7898
      vertex -1.55 2 30
    endloop
  endfacet
  facet normal 0.122782 0.859473 0.496217
    outer loop
      vertex 0.5 -2.68214 27.2102
      vertex -1.55 -2.5 27.4019
      vertex -1.55 -4 30
    endloop
  endfacet
  facet normal 0.122782 0.859471 0.496219
    outer loop
      vertex -1.55 -2.5 27.4019
      vertex 0.5 -2.68214 27.2102
      vertex 0.5 -2.64643 27.1483
    endloop
  endfacet
  facet normal 0 0.970942 -0.239315
    outer loop
      vertex 10 -2.8 30
      vertex 5.5 -2.59382 30.8365
      vertex 10 -2.59382 30.8365
    endloop
  endfacet
  facet normal 0 0.970942 -0.239315
    outer loop
      vertex 5.5 -2.59382 30.8365
      vertex 10 -2.8 30
      vertex 5.5 -2.8 30
    endloop
  endfacet
  facet normal 0 0.970942 -0.239315
    outer loop
      vertex -1.55 -2.8 30
      vertex -5 -2.59382 30.8365
      vertex -1.55 -2.59382 30.8365
    endloop
  endfacet
  facet normal 0 0.970942 -0.239315
    outer loop
      vertex -5 -2.59382 30.8365
      vertex -1.55 -2.8 30
      vertex -5 -2.8 30
    endloop
  endfacet
  facet normal -1 -7.61161e-07 3.99488e-07
    outer loop
      vertex 10 0.347319 28.8064
      vertex 10 0.347319 31.1936
      vertex 10 0.747695 29.5692
    endloop
  endfacet
  facet normal -1 0 0
    outer loop
      vertex 10 0.347319 31.1936
      vertex 10 -1.21697 31.7869
      vertex 10 -0.361712 31.683
    endloop
  endfacet
  facet normal -1 0 -0
    outer loop
      vertex 10 -1.21697 31.7869
      vertex 10 0.347319 31.1936
      vertex 10 -2.02252 31.4814
    endloop
  endfacet
  facet normal 0 -1 0
    outer loop
      vertex 5.5 0.747695 29.5692
      vertex 10 0.747695 30.4308
      vertex 5.5 0.747695 30.4308
    endloop
  endfacet
  facet normal 0 -1 -0
    outer loop
      vertex 10 0.747695 30.4308
      vertex 5.5 0.747695 29.5692
      vertex 10 0.747695 29.5692
    endloop
  endfacet
  facet normal 0 -1 0
    outer loop
      vertex -5 0.747695 29.5692
      vertex -1.55 0.747695 30.4308
      vertex -5 0.747695 30.4308
    endloop
  endfacet
  facet normal 0 -1 -0
    outer loop
      vertex -1.55 0.747695 30.4308
      vertex -5 0.747695 29.5692
      vertex -1.55 0.747695 29.5692
    endloop
  endfacet
  facet normal 0 -0.120538 -0.992709
    outer loop
      vertex 5.5 -1.21697 31.7869
      vertex 10 -0.361712 31.683
      vertex 10 -1.21697 31.7869
    endloop
  endfacet
  facet normal -0 -0.120538 -0.992709
    outer loop
      vertex 10 -0.361712 31.683
      vertex 5.5 -1.21697 31.7869
      vertex 5.5 -0.361712 31.683
    endloop
  endfacet
  facet normal 0 -0.120538 -0.992709
    outer loop
      vertex -5 -1.21697 31.7869
      vertex -1.55 -0.361712 31.683
      vertex -1.55 -1.21697 31.7869
    endloop
  endfacet
  facet normal -0 -0.120538 -0.992709
    outer loop
      vertex -1.55 -0.361712 31.683
      vertex -5 -1.21697 31.7869
      vertex -5 -0.361712 31.683
    endloop
  endfacet
  facet normal -1 -2.38194e-06 0
    outer loop
      vertex 10 0.347319 31.1936
      vertex 10 0.747695 30.4308
      vertex 10 0.747695 29.5692
    endloop
  endfacet
  facet normal 0 -0.568065 -0.822984
    outer loop
      vertex 5.5 -0.361712 31.683
      vertex 10 0.347319 31.1936
      vertex 10 -0.361712 31.683
    endloop
  endfacet
  facet normal -0 -0.568065 -0.822984
    outer loop
      vertex 10 0.347319 31.1936
      vertex 5.5 -0.361712 31.683
      vertex 5.5 0.347319 31.1936
    endloop
  endfacet
  facet normal 0 -0.568065 -0.822984
    outer loop
      vertex -5 -0.361712 31.683
      vertex -1.55 0.347319 31.1936
      vertex -1.55 -0.361712 31.683
    endloop
  endfacet
  facet normal -0 -0.568065 -0.822984
    outer loop
      vertex -1.55 0.347319 31.1936
      vertex -5 -0.361712 31.683
      vertex -5 0.347319 31.1936
    endloop
  endfacet
  facet normal -1 2.31273e-06 -5.70035e-07
    outer loop
      vertex 10 -2.02252 31.4814
      vertex 10 -2.8 30
      vertex 10 -2.59382 30.8365
    endloop
  endfacet
  facet normal 0 0.748511 0.663123
    outer loop
      vertex -1.55 -2.02252 28.5186
      vertex -5 -2.59382 29.1635
      vertex -1.55 -2.59382 29.1635
    endloop
  endfacet
  facet normal 0 0.748511 0.663123
    outer loop
      vertex -5 -2.59382 29.1635
      vertex -1.55 -2.02252 28.5186
      vertex -5 -2.02252 28.5186
    endloop
  endfacet
  facet normal 0 0.748511 0.663123
    outer loop
      vertex 10 -2.02252 28.5186
      vertex 5.5 -2.59382 29.1635
      vertex 10 -2.59382 29.1635
    endloop
  endfacet
  facet normal 0 0.748511 0.663123
    outer loop
      vertex 5.5 -2.59382 29.1635
      vertex 10 -2.02252 28.5186
      vertex 5.5 -2.02252 28.5186
    endloop
  endfacet
  facet normal -1 3.63337e-07 3.21889e-07
    outer loop
      vertex 10 -2.59382 29.1635
      vertex 10 -2.02252 31.4814
      vertex 10 -2.02252 28.5186
    endloop
  endfacet
  facet normal 0 0.748511 -0.663123
    outer loop
      vertex 10 -2.59382 30.8365
      vertex 5.5 -2.02252 31.4814
      vertex 10 -2.02252 31.4814
    endloop
  endfacet
  facet normal 0 0.748511 -0.663123
    outer loop
      vertex 5.5 -2.02252 31.4814
      vertex 10 -2.59382 30.8365
      vertex 5.5 -2.59382 30.8365
    endloop
  endfacet
  facet normal 0 0.748511 -0.663123
    outer loop
      vertex -1.55 -2.59382 30.8365
      vertex -5 -2.02252 31.4814
      vertex -1.55 -2.02252 31.4814
    endloop
  endfacet
  facet normal 0 0.748511 -0.663123
    outer loop
      vertex -5 -2.02252 31.4814
      vertex -1.55 -2.59382 30.8365
      vertex -5 -2.59382 30.8365
    endloop
  endfacet
  facet normal 0 -0.885456 -0.464723
    outer loop
      vertex 5.5 0.747695 30.4308
      vertex 10 0.347319 31.1936
      vertex 5.5 0.347319 31.1936
    endloop
  endfacet
  facet normal 0 -0.885456 -0.464723
    outer loop
      vertex 10 0.347319 31.1936
      vertex 5.5 0.747695 30.4308
      vertex 10 0.747695 30.4308
    endloop
  endfacet
  facet normal 0 -0.885456 -0.464723
    outer loop
      vertex -5 0.747695 30.4308
      vertex -1.55 0.347319 31.1936
      vertex -5 0.347319 31.1936
    endloop
  endfacet
  facet normal 0 -0.885456 -0.464723
    outer loop
      vertex -1.55 0.347319 31.1936
      vertex -5 0.747695 30.4308
      vertex -1.55 0.747695 30.4308
    endloop
  endfacet
  facet normal -1 8.34648e-07 2.05722e-07
    outer loop
      vertex 10 -2.8 30
      vertex 10 -2.02252 31.4814
      vertex 10 -2.59382 29.1635
    endloop
  endfacet
  facet normal -1 -4.14964e-08 3.4175e-07
    outer loop
      vertex 10 -1.21697 28.2131
      vertex 10 0.347319 31.1936
      vertex 10 -0.361712 28.317
    endloop
  endfacet
  facet normal 0 0.970942 0.239315
    outer loop
      vertex -1.55 -2.59382 29.1635
      vertex -5 -2.8 30
      vertex -1.55 -2.8 30
    endloop
  endfacet
  facet normal 0 0.970942 0.239315
    outer loop
      vertex -5 -2.8 30
      vertex -1.55 -2.59382 29.1635
      vertex -5 -2.59382 29.1635
    endloop
  endfacet
  facet normal 0 0.970942 0.239315
    outer loop
      vertex 10 -2.59382 29.1635
      vertex 5.5 -2.8 30
      vertex 10 -2.8 30
    endloop
  endfacet
  facet normal 0 0.970942 0.239315
    outer loop
      vertex 5.5 -2.8 30
      vertex 10 -2.59382 29.1635
      vertex 5.5 -2.59382 29.1635
    endloop
  endfacet
  facet normal 0 -0.885456 0.464723
    outer loop
      vertex 5.5 0.347319 28.8064
      vertex 10 0.747695 29.5692
      vertex 5.5 0.747695 29.5692
    endloop
  endfacet
  facet normal 0 -0.885456 0.464723
    outer loop
      vertex 10 0.747695 29.5692
      vertex 5.5 0.347319 28.8064
      vertex 10 0.347319 28.8064
    endloop
  endfacet
  facet normal 0 -0.885456 0.464723
    outer loop
      vertex -5 0.347319 28.8064
      vertex -1.55 0.747695 29.5692
      vertex -5 0.747695 29.5692
    endloop
  endfacet
  facet normal 0 -0.885456 0.464723
    outer loop
      vertex -1.55 0.747695 29.5692
      vertex -5 0.347319 28.8064
      vertex -1.55 0.347319 28.8064
    endloop
  endfacet
  facet normal -1 -2.75747e-07 3.99488e-07
    outer loop
      vertex 10 -0.361712 28.317
      vertex 10 0.347319 31.1936
      vertex 10 0.347319 28.8064
    endloop
  endfacet
  facet normal -0 0.354606 0.935016
    outer loop
      vertex -5 -1.21697 28.2131
      vertex -1.55 -2.02252 28.5186
      vertex -1.55 -1.21697 28.2131
    endloop
  endfacet
  facet normal 0 0.354606 0.935016
    outer loop
      vertex -1.55 -2.02252 28.5186
      vertex -5 -1.21697 28.2131
      vertex -5 -2.02252 28.5186
    endloop
  endfacet
  facet normal -0 0.354606 0.935016
    outer loop
      vertex 5.5 -1.21697 28.2131
      vertex 10 -2.02252 28.5186
      vertex 10 -1.21697 28.2131
    endloop
  endfacet
  facet normal 0 0.354606 0.935016
    outer loop
      vertex 10 -2.02252 28.5186
      vertex 5.5 -1.21697 28.2131
      vertex 5.5 -2.02252 28.5186
    endloop
  endfacet
  facet normal -1 3.6524e-08 3.00802e-07
    outer loop
      vertex 10 -2.02252 31.4814
      vertex 10 0.347319 31.1936
      vertex 10 -1.21697 28.2131
    endloop
  endfacet
  facet normal -1 1.22077e-07 3.21889e-07
    outer loop
      vertex 10 -2.02252 28.5186
      vertex 10 -2.02252 31.4814
      vertex 10 -1.21697 28.2131
    endloop
  endfacet
  facet normal 0 -0.120538 0.992709
    outer loop
      vertex -5 -0.361712 28.317
      vertex -1.55 -1.21697 28.2131
      vertex -1.55 -0.361712 28.317
    endloop
  endfacet
  facet normal 0 -0.120538 0.992709
    outer loop
      vertex -1.55 -1.21697 28.2131
      vertex -5 -0.361712 28.317
      vertex -5 -1.21697 28.2131
    endloop
  endfacet
  facet normal 0 -0.120538 0.992709
    outer loop
      vertex 5.5 -0.361712 28.317
      vertex 10 -1.21697 28.2131
      vertex 10 -0.361712 28.317
    endloop
  endfacet
  facet normal 0 -0.120538 0.992709
    outer loop
      vertex 10 -1.21697 28.2131
      vertex 5.5 -0.361712 28.317
      vertex 5.5 -1.21697 28.2131
    endloop
  endfacet
  facet normal 0 0.354606 -0.935016
    outer loop
      vertex 5.5 -2.02252 31.4814
      vertex 10 -1.21697 31.7869
      vertex 10 -2.02252 31.4814
    endloop
  endfacet
  facet normal 0 0.354606 -0.935016
    outer loop
      vertex 10 -1.21697 31.7869
      vertex 5.5 -2.02252 31.4814
      vertex 5.5 -1.21697 31.7869
    endloop
  endfacet
  facet normal 0 0.354606 -0.935016
    outer loop
      vertex -5 -2.02252 31.4814
      vertex -1.55 -1.21697 31.7869
      vertex -1.55 -2.02252 31.4814
    endloop
  endfacet
  facet normal 0 0.354606 -0.935016
    outer loop
      vertex -1.55 -1.21697 31.7869
      vertex -5 -2.02252 31.4814
      vertex -5 -1.21697 31.7869
    endloop
  endfacet
  facet normal 0 -0.568065 0.822984
    outer loop
      vertex 5.5 0.347319 28.8064
      vertex 10 -0.361712 28.317
      vertex 10 0.347319 28.8064
    endloop
  endfacet
  facet normal 0 -0.568065 0.822984
    outer loop
      vertex 10 -0.361712 28.317
      vertex 5.5 0.347319 28.8064
      vertex 5.5 -0.361712 28.317
    endloop
  endfacet
  facet normal 0 -0.568065 0.822984
    outer loop
      vertex -5 0.347319 28.8064
      vertex -1.55 -0.361712 28.317
      vertex -1.55 0.347319 28.8064
    endloop
  endfacet
  facet normal 0 -0.568065 0.822984
    outer loop
      vertex -1.55 -0.361712 28.317
      vertex -5 0.347319 28.8064
      vertex -5 -0.361712 28.317
    endloop
  endfacet
endsolid OpenSCAD_Model
