  0
SECTION
  2
BLOCKS
  0
ENDSEC
  0
SECTION
  2
ENTITIES
  0
LINE
  8
0
 10
-7.02905
 20
6.10353
 11
-5.55005
 21
8.29927
  0
LINE
  8
0
 10
-5.55005
 20
8.29927
 11
-0.386475
 21
17.1254
  0
LINE
  8
0
 10
-0.386475
 20
17.1254
 11
0.563507
 21
18.7708
  0
LINE
  8
0
 10
0.563507
 20
18.7708
 11
0.677826
 21
18.9994
  0
LINE
  8
0
 10
0.677826
 20
18.9994
 11
0.783585
 21
19.2581
  0
LINE
  8
0
 10
0.783585
 20
19.2581
 11
3.25726
 21
26.5222
  0
LINE
  8
0
 10
3.25726
 20
26.5222
 11
3.30977
 21
26.6874
  0
LINE
  8
0
 10
3.30977
 20
26.6874
 11
3.33575
 21
26.8623
  0
LINE
  8
0
 10
3.33575
 20
26.8623
 11
3.52333
 21
29.7144
  0
LINE
  8
0
 10
3.52333
 20
29.7144
 11
3.52054
 21
29.8907
  0
LINE
  8
0
 10
3.52054
 20
29.8907
 11
3.49031
 21
30.0606
  0
LINE
  8
0
 10
3.49031
 20
30.0606
 11
1.95195
 21
37.7508
  0
LINE
  8
0
 10
1.95195
 20
37.7508
 11
1.91446
 21
37.9193
  0
LINE
  8
0
 10
1.91446
 20
37.9193
 11
1.84935
 21
38.0829
  0
LINE
  8
0
 10
1.84935
 20
38.0829
 11
0.58577
 21
40.6433
  0
LINE
  8
0
 10
0.58577
 20
40.6433
 11
-0.364212
 21
42.2887
  0
LINE
  8
0
 10
-0.364212
 20
42.2887
 11
-0.454926
 21
42.4407
  0
LINE
  8
0
 10
-0.454926
 20
42.4407
 11
-0.566833
 21
42.5732
  0
LINE
  8
0
 10
-0.566833
 20
42.5732
 11
-5.78404
 21
48.4622
  0
LINE
  8
0
 10
-5.78404
 20
48.4622
 11
-5.90187
 21
48.5895
  0
LINE
  8
0
 10
-5.90187
 20
48.5895
 11
-6.0414
 21
48.6983
  0
LINE
  8
0
 10
-6.0414
 20
48.6983
 11
-8.4342
 21
50.2736
  0
LINE
  8
0
 10
-8.4342
 20
50.2736
 11
-8.58931
 21
50.3589
  0
LINE
  8
0
 10
-8.58931
 20
50.3589
 11
-8.75279
 21
50.4172
  0
LINE
  8
0
 10
-8.75279
 20
50.4172
 11
-15.9565
 21
52.8343
  0
LINE
  8
0
 10
-15.9565
 20
52.8343
 11
-16.1216
 21
52.8868
  0
LINE
  8
0
 10
-16.1216
 20
52.8868
 11
-16.2966
 21
52.9128
  0
LINE
  8
0
 10
-16.2966
 20
52.9128
 11
-19.0699
 21
53.0954
  0
LINE
  8
0
 10
-19.0699
 20
53.0954
 11
-19.2308
 21
53.102
  0
LINE
  8
0
 10
-19.2308
 20
53.102
 11
-21.1308
 21
53.102
  0
LINE
  8
0
 10
-21.1308
 20
53.102
 11
-21.2956
 21
53.0881
  0
LINE
  8
0
 10
-21.2956
 20
53.0881
 11
-29.0848
 21
51.529
  0
LINE
  8
0
 10
-29.0848
 20
51.529
 11
-29.2535
 21
51.4917
  0
LINE
  8
0
 10
-29.2535
 20
51.4917
 11
-29.4171
 21
51.4264
  0
LINE
  8
0
 10
-29.4171
 20
51.4264
 11
-31.9775
 21
50.163
  0
LINE
  8
0
 10
-31.9775
 20
50.163
 11
-32.1295
 21
50.0721
  0
LINE
  8
0
 10
-32.1295
 20
50.0721
 11
-32.262
 21
49.9602
  0
LINE
  8
0
 10
-32.262
 20
49.9602
 11
-38.1519
 21
44.7359
  0
LINE
  8
0
 10
-38.1519
 20
44.7359
 11
-38.2777
 21
44.6198
  0
LINE
  8
0
 10
-38.2777
 20
44.6198
 11
-38.3853
 21
44.4823
  0
LINE
  8
0
 10
-38.3853
 20
44.4823
 11
-39.9605
 21
42.1028
  0
LINE
  8
0
 10
-39.9605
 20
42.1028
 11
-40.9105
 21
40.4574
  0
LINE
  8
0
 10
-40.9105
 20
40.4574
 11
-40.9967
 21
40.3023
  0
LINE
  8
0
 10
-40.9967
 20
40.3023
 11
-41.0556
 21
40.1384
  0
LINE
  8
0
 10
-41.0556
 20
40.1384
 11
-43.4733
 21
32.9249
  0
LINE
  8
0
 10
-43.4733
 20
32.9249
 11
-43.5258
 21
32.7598
  0
LINE
  8
0
 10
-43.5258
 20
32.7598
 11
-43.5514
 21
32.585
  0
LINE
  8
0
 10
-43.5514
 20
32.585
 11
-43.7408
 21
29.733
  0
LINE
  8
0
 10
-43.7408
 20
29.733
 11
-43.738
 21
29.5569
  0
LINE
  8
0
 10
-43.738
 20
29.5569
 11
-43.7078
 21
29.3867
  0
LINE
  8
0
 10
-43.7078
 20
29.3867
 11
-42.1677
 21
21.6967
  0
LINE
  8
0
 10
-42.1677
 20
21.6967
 11
-42.1303
 21
21.5281
  0
LINE
  8
0
 10
-42.1303
 20
21.5281
 11
-42.0651
 21
21.3646
  0
LINE
  8
0
 10
-42.0651
 20
21.3646
 11
-40.8015
 21
18.804
  0
LINE
  8
0
 10
-40.8015
 20
18.804
 11
-39.8515
 21
17.1586
  0
LINE
  8
0
 10
-39.8515
 20
17.1586
 11
-39.7608
 21
17.0068
  0
LINE
  8
0
 10
-39.7608
 20
17.0068
 11
-39.6489
 21
16.8742
  0
LINE
  8
0
 10
-39.6489
 20
16.8742
 11
-34.4329
 21
10.9854
  0
LINE
  8
0
 10
-34.4329
 20
10.9854
 11
-34.3154
 21
10.858
  0
LINE
  8
0
 10
-34.3154
 20
10.858
 11
-34.176
 21
10.7491
  0
LINE
  8
0
 10
-34.176
 20
10.7491
 11
-31.7832
 21
9.17395
  0
LINE
  8
0
 10
-31.7832
 20
9.17395
 11
-31.6281
 21
9.08842
  0
LINE
  8
0
 10
-31.6281
 20
9.08842
 11
-31.4647
 21
9.03033
  0
LINE
  8
0
 10
-31.4647
 20
9.03033
 11
-24.2593
 21
6.61324
  0
LINE
  8
0
 10
-24.2593
 20
6.61324
 11
-24.0942
 21
6.56053
  0
LINE
  8
0
 10
-24.0942
 20
6.56053
 11
-23.9192
 21
6.53473
  0
LINE
  8
0
 10
-23.9192
 20
6.53473
 11
-10.5518
 21
5.28658
  0
LINE
  8
0
 10
-10.5518
 20
5.28658
 11
-8.65184
 21
5.28658
  0
LINE
  8
0
 10
-8.65184
 20
5.28658
 11
-7.02905
 21
6.10353
  0
ENDSEC
  0
SECTION
  2
OBJECTS
  0
DICTIONARY
  0
ENDSEC
  0
EOF
