999
DXF created by Inkscape
  0
SECTION
  2
HEADER
  9
$ACADVER
  1
AC1014
  9
$HANDSEED
  5
FFFF
  9
$MEASUREMENT
 70
     1
  0
ENDSEC
  0
SECTION
  2
TABLES
  0
TABLE
  2
VPORT
  5
8
330
0
100
AcDbSymbolTable
 70
     4
  0
VPORT
  5
2E
330
8
100
AcDbSymbolTableRecord
100
AcDbViewportTableRecord
  2
*ACTIVE
 70
     0
 10
0.0
 20
0.0
 11
1.0
 21
1.0
 12
210.0
 22
148.5
 13
0.0
 23
0.0
 14
10.0
 24
10.0
 15
10.0
 25
10.0
 16
0.0
 26
0.0
 36
1.0
 17
0.0
 27
0.0
 37
0.0
 40
341.0
 41
1.24
 42
50.0
 43
0.0
 44
0.0
 50
0.0
 51
0.0
 71
     0
 72
   100
 73
     1
 74
     3
 75
     0
 76
     0
 77
     0
 78
     0
  0
ENDTAB
  0
TABLE
  2
LTYPE
  5
5
330
0
100
AcDbSymbolTable
 70
     1
  0
LTYPE
  5
14
330
5
100
AcDbSymbolTableRecord
100
AcDbLinetypeTableRecord
  2
BYBLOCK
 70
     0
  3

 72
    65
 73
     0
 40
0.0
  0
LTYPE
  5
15
330
5
100
AcDbSymbolTableRecord
100
AcDbLinetypeTableRecord
  2
BYLAYER
 70
     0
  3

 72
    65
 73
     0
 40
0.0
  0
LTYPE
  5
16
330
5
100
AcDbSymbolTableRecord
100
AcDbLinetypeTableRecord
  2
CONTINUOUS
 70
     0
  3
Solid line
 72
    65
 73
     0
 40
0.0
  0
ENDTAB
  0
TABLE
  2
LAYER
  5
2
100
AcDbSymbolTable
 70
5
  0
LAYER
  5
50
100
AcDbSymbolTableRecord
100
AcDbLayerTableRecord
  2
0
 70
0
  6
CONTINUOUS
  0
LAYER
  5
51
100
AcDbSymbolTableRecord
100
AcDbLayerTableRecord
  2
bulb
 70
0
  6
CONTINUOUS
  0
LAYER
  5
52
100
AcDbSymbolTableRecord
100
AcDbLayerTableRecord
  2
arc
 70
0
  6
CONTINUOUS
  0
LAYER
  5
53
100
AcDbSymbolTableRecord
100
AcDbLayerTableRecord
  2
text
 70
0
  6
CONTINUOUS
  0
LAYER
  5
54
100
AcDbSymbolTableRecord
100
AcDbLayerTableRecord
  2
border
 70
0
  6
CONTINUOUS
  0
ENDTAB
  0
TABLE
  2
STYLE
  5
3
330
0
100
AcDbSymbolTable
 70
     1
  0
STYLE
  5
11
330
3
100
AcDbSymbolTableRecord
100
AcDbTextStyleTableRecord
  2
STANDARD
 70
     0
 40
0.0
 41
1.0
 50
0.0
 71
     0
 42
2.5
  3
txt
  4

  0
ENDTAB
  0
TABLE
  2
VIEW
  5
6
330
0
100
AcDbSymbolTable
 70
     0
  0
ENDTAB
  0
TABLE
  2
UCS
  5
7
330
0
100
AcDbSymbolTable
 70
     0
  0
ENDTAB
  0
TABLE
  2
APPID
  5
9
330
0
100
AcDbSymbolTable
 70
     2
  0
APPID
  5
12
330
9
100
AcDbSymbolTableRecord
100
AcDbRegAppTableRecord
  2
ACAD
 70
     0
  0
ENDTAB
  0
TABLE
  2
DIMSTYLE
  5
A
330
0
100
AcDbSymbolTable
 70
     1
  0
DIMSTYLE
105
27
330
A
100
AcDbSymbolTableRecord
100
AcDbDimStyleTableRecord
  2
ISO-25
 70
     0
  3

  4

  5

  6

  7

 40
1.0
 41
2.5
 42
0.625
 43
3.75
 44
1.25
 45
0.0
 46
0.0
 47
0.0
 48
0.0
140
2.5
141
2.5
142
0.0
143
0.03937007874016
144
1.0
145
0.0
146
1.0
147
0.625
 71
     0
 72
     0
 73
     0
 74
     0
 75
     0
 76
     0
 77
     1
 78
     8
170
     0
171
     3
172
     1
173
     0
174
     0
175
     0
176
     0
177
     0
178
     0
270
     2
271
     2
272
     2
273
     2
274
     3
340
11
275
     0
280
     0
281
     0
282
     0
283
     0
284
     8
285
     0
286
     0
287
     3
288
     0
  0
ENDTAB
  0
TABLE
  2
BLOCK_RECORD
  5
1
330
0
100
AcDbSymbolTable
 70
     1
  0
BLOCK_RECORD
  5
1F
330
1
100
AcDbSymbolTableRecord
100
AcDbBlockTableRecord
  2
*MODEL_SPACE
  0
BLOCK_RECORD
  5
1B
330
1
100
AcDbSymbolTableRecord
100
AcDbBlockTableRecord
  2
*PAPER_SPACE
  0
ENDTAB
  0
ENDSEC
  0
SECTION
  2
BLOCKS
  0
BLOCK
  5
20
330
1F
100
AcDbEntity
  8
0
100
AcDbBlockBegin
  2
*MODEL_SPACE
 70
     0
 10
0.0
 20
0.0
 30
0.0
  3
*MODEL_SPACE
  1

  0
ENDBLK
  5
21
330
1F
100
AcDbEntity
  8
0
100
AcDbBlockEnd
  0
BLOCK
  5
1C
330
1B
100
AcDbEntity
 67
     1
  8
0
100
AcDbBlockBegin
  2
*PAPER_SPACE
  1

  0
ENDBLK
  5
1D
330
1B
100
AcDbEntity
 67
     1
  8
0
100
AcDbBlockEnd
  0
ENDSEC
  0
SECTION
  2
ENTITIES
  0
SPLINE
  5
100
100
AcDbEntity
  8
bulb
 62
7
100
AcDbSpline
 70
8
 71
3
 72
8
 73
4
 74
0
 40
0
 40
0
 40
0
 40
0
 40
1
 40
1
 40
1
 40
1
 10
47.946214
 20
78.132270
 30
0.0
 10
47.946214
 20
78.132270
 30
0.0
 10
47.976973
 20
78.184537
 30
0.0
 10
48.015006
 20
78.261584
 30
0.0
  0
SPLINE
  5
101
100
AcDbEntity
  8
bulb
 62
7
100
AcDbSpline
 70
8
 71
3
 72
8
 73
4
 74
0
 40
0
 40
0
 40
0
 40
0
 40
1
 40
1
 40
1
 40
1
 10
41.511085
 20
67.195397
 30
0.0
 10
41.511085
 20
67.195397
 30
0.0
 10
41.539857
 20
67.243346
 30
0.0
 10
41.577562
 20
67.319066
 30
0.0
  0
LINE
  5
102
100
AcDbEntity
  8
bulb
 62
7
100
AcDbLine
 10
48.015006
 20
78.261584
 30
0.0
 11
47.946214
 21
78.132270
 31
0.0
  0
SPLINE
  5
103
100
AcDbEntity
  8
bulb
 62
7
100
AcDbSpline
 70
8
 71
3
 72
8
 73
4
 74
0
 40
0
 40
0
 40
0
 40
0
 40
1
 40
1
 40
1
 40
1
 10
36.060801
 20
56.118118
 30
0.0
 10
36.060801
 20
56.118118
 30
0.0
 10
36.091890
 20
56.170357
 30
0.0
 10
36.128932
 20
56.247432
 30
0.0
  0
LINE
  5
104
100
AcDbEntity
  8
bulb
 62
7
100
AcDbLine
 10
41.577562
 20
67.319066
 30
0.0
 11
41.511085
 21
67.195397
 31
0.0
  0
SPLINE
  5
105
100
AcDbEntity
  8
bulb
 62
7
100
AcDbSpline
 70
8
 71
3
 72
8
 73
4
 74
0
 40
0
 40
0
 40
0
 40
0
 40
1
 40
1
 40
1
 40
1
 10
29.391514
 20
44.754863
 30
0.0
 10
29.391514
 20
44.754863
 30
0.0
 10
29.419956
 20
44.805127
 30
0.0
 10
29.457991
 20
44.881186
 30
0.0
  0
LINE
  5
106
100
AcDbEntity
  8
bulb
 62
7
100
AcDbLine
 10
36.128932
 20
56.247432
 30
0.0
 11
36.060801
 21
56.118118
 31
0.0
  0
LINE
  5
107
100
AcDbEntity
  8
bulb
 62
7
100
AcDbLine
 10
29.457991
 20
44.881186
 30
0.0
 11
29.391514
 21
44.754863
 31
0.0
  0
LINE
  5
108
100
AcDbEntity
  8
bulb
 62
7
100
AcDbLine
 10
89.046968
 20
76.863358
 30
0.0
 11
86.964849
 21
80.425731
 31
0.0
  0
LINE
  5
109
100
AcDbEntity
  8
bulb
 62
7
100
AcDbLine
 10
86.964849
 20
80.425731
 30
0.0
 11
86.844387
 21
81.282490
 31
0.0
  0
LINE
  5
10a
100
AcDbEntity
  8
bulb
 62
7
100
AcDbLine
 10
86.844387
 20
81.282490
 30
0.0
 11
86.393495
 21
80.499265
 31
0.0
  0
LINE
  5
10b
100
AcDbEntity
  8
bulb
 62
7
100
AcDbLine
 10
86.393495
 20
80.499265
 30
0.0
 11
82.007412
 21
81.615526
 31
0.0
  0
LINE
  5
10c
100
AcDbEntity
  8
bulb
 62
7
100
AcDbLine
 10
82.007412
 20
81.615526
 30
0.0
 11
70.373433
 21
86.186518
 31
0.0
  0
LINE
  5
10d
100
AcDbEntity
  8
bulb
 62
7
100
AcDbLine
 10
70.373433
 20
86.186518
 30
0.0
 11
59.245399
 21
90.219013
 31
0.0
  0
LINE
  5
10e
100
AcDbEntity
  8
bulb
 62
7
100
AcDbLine
 10
59.245399
 20
90.219013
 30
0.0
 11
56.114418
 21
90.927662
 31
0.0
  0
LINE
  5
10f
100
AcDbEntity
  8
bulb
 62
7
100
AcDbLine
 10
56.114418
 20
90.927662
 30
0.0
 11
54.114423
 21
91.031578
 31
0.0
  0
LINE
  5
110
100
AcDbEntity
  8
bulb
 62
7
100
AcDbLine
 10
54.114423
 20
91.031578
 30
0.0
 11
52.034255
 21
90.226101
 31
0.0
  0
LINE
  5
111
100
AcDbEntity
  8
bulb
 62
7
100
AcDbLine
 10
52.034255
 20
90.226101
 30
0.0
 11
50.058659
 21
89.404363
 31
0.0
  0
LINE
  5
112
100
AcDbEntity
  8
bulb
 62
7
100
AcDbLine
 10
50.058659
 20
89.404363
 30
0.0
 11
49.331950
 21
88.048898
 31
0.0
  0
LINE
  5
113
100
AcDbEntity
  8
bulb
 62
7
100
AcDbLine
 10
49.331950
 20
88.048898
 30
0.0
 11
50.744499
 21
86.110327
 31
0.0
  0
LINE
  5
114
100
AcDbEntity
  8
bulb
 62
7
100
AcDbLine
 10
50.744499
 20
86.110327
 30
0.0
 11
51.324936
 21
84.660925
 31
0.0
  0
LINE
  5
115
100
AcDbEntity
  8
bulb
 62
7
100
AcDbLine
 10
51.324936
 20
84.660925
 30
0.0
 11
51.236565
 21
83.159827
 31
0.0
  0
LINE
  5
116
100
AcDbEntity
  8
bulb
 62
7
100
AcDbLine
 10
51.236565
 20
83.159827
 30
0.0
 11
51.864356
 21
84.332710
 31
0.0
  0
LINE
  5
117
100
AcDbEntity
  8
bulb
 62
7
100
AcDbLine
 10
51.864356
 20
84.332710
 30
0.0
 11
53.974420
 21
84.029666
 31
0.0
  0
LINE
  5
118
100
AcDbEntity
  8
bulb
 62
7
100
AcDbLine
 10
53.974420
 20
84.029666
 30
0.0
 11
57.742731
 21
82.743616
 31
0.0
  0
LINE
  5
119
100
AcDbEntity
  8
bulb
 62
7
100
AcDbLine
 10
57.742731
 20
82.743616
 30
0.0
 11
68.908485
 21
78.187399
 31
0.0
  0
LINE
  5
11a
100
AcDbEntity
  8
bulb
 62
7
100
AcDbLine
 10
68.908485
 20
78.187399
 30
0.0
 11
77.432585
 21
75.131785
 31
0.0
  0
LINE
  5
11b
100
AcDbEntity
  8
bulb
 62
7
100
AcDbLine
 10
77.432585
 20
75.131785
 30
0.0
 11
82.684359
 21
74.177521
 31
0.0
  0
LINE
  5
11c
100
AcDbEntity
  8
bulb
 62
7
100
AcDbLine
 10
82.684359
 20
74.177521
 30
0.0
 11
85.818533
 21
74.449297
 31
0.0
  0
LINE
  5
11d
100
AcDbEntity
  8
bulb
 62
7
100
AcDbLine
 10
85.818533
 20
74.449297
 30
0.0
 11
87.989827
 21
75.071853
 31
0.0
  0
LINE
  5
11e
100
AcDbEntity
  8
bulb
 62
7
100
AcDbLine
 10
87.989827
 20
75.071853
 30
0.0
 11
88.099668
 21
75.100542
 31
0.0
  0
LINE
  5
11f
100
AcDbEntity
  8
bulb
 62
7
100
AcDbLine
 10
88.099668
 20
75.100542
 30
0.0
 11
89.046968
 21
76.863358
 31
0.0
  0
LINE
  5
120
100
AcDbEntity
  8
bulb
 62
7
100
AcDbLine
 10
89.046968
 20
76.863358
 30
0.0
 11
89.046968
 21
76.863358
 31
0.0
  0
LINE
  5
121
100
AcDbEntity
  8
bulb
 62
7
100
AcDbLine
 10
80.940053
 20
71.182620
 30
0.0
 11
80.484608
 21
70.391760
 31
0.0
  0
LINE
  5
122
100
AcDbEntity
  8
bulb
 62
7
100
AcDbLine
 10
80.484608
 20
70.391760
 30
0.0
 11
76.100992
 21
71.506770
 31
0.0
  0
LINE
  5
123
100
AcDbEntity
  8
bulb
 62
7
100
AcDbLine
 10
76.100992
 20
71.506770
 30
0.0
 11
64.464243
 21
76.072603
 31
0.0
  0
LINE
  5
124
100
AcDbEntity
  8
bulb
 62
7
100
AcDbLine
 10
64.464243
 20
76.072603
 30
0.0
 11
53.338338
 21
80.110545
 31
0.0
  0
LINE
  5
125
100
AcDbEntity
  8
bulb
 62
7
100
AcDbLine
 10
53.338338
 20
80.110545
 30
0.0
 11
50.207572
 21
80.820888
 31
0.0
  0
LINE
  5
126
100
AcDbEntity
  8
bulb
 62
7
100
AcDbLine
 10
50.207572
 20
80.820888
 30
0.0
 11
48.207468
 21
80.925924
 31
0.0
  0
LINE
  5
127
100
AcDbEntity
  8
bulb
 62
7
100
AcDbLine
 10
48.207468
 20
80.925924
 30
0.0
 11
46.126901
 21
80.121384
 31
0.0
  0
LINE
  5
128
100
AcDbEntity
  8
bulb
 62
7
100
AcDbLine
 10
46.126901
 20
80.121384
 30
0.0
 11
44.151895
 21
79.299621
 31
0.0
  0
LINE
  5
129
100
AcDbEntity
  8
bulb
 62
7
100
AcDbLine
 10
44.151895
 20
79.299621
 30
0.0
 11
43.425187
 21
77.944156
 31
0.0
  0
LINE
  5
12a
100
AcDbEntity
  8
bulb
 62
7
100
AcDbLine
 10
43.425187
 20
77.944156
 30
0.0
 11
44.839059
 21
75.999565
 31
0.0
  0
LINE
  5
12b
100
AcDbEntity
  8
bulb
 62
7
100
AcDbLine
 10
44.839059
 20
75.999565
 30
0.0
 11
45.418745
 21
74.549877
 31
0.0
  0
LINE
  5
12c
100
AcDbEntity
  8
bulb
 62
7
100
AcDbLine
 10
45.418745
 20
74.549877
 30
0.0
 11
45.329801
 21
73.056908
 31
0.0
  0
LINE
  5
12d
100
AcDbEntity
  8
bulb
 62
7
100
AcDbLine
 10
45.329801
 20
73.056908
 30
0.0
 11
45.959110
 21
74.221844
 31
0.0
  0
LINE
  5
12e
100
AcDbEntity
  8
bulb
 62
7
100
AcDbLine
 10
45.959110
 20
74.221844
 30
0.0
 11
48.068472
 21
73.920520
 31
0.0
  0
LINE
  5
12f
100
AcDbEntity
  8
bulb
 62
7
100
AcDbLine
 10
48.068472
 20
73.920520
 30
0.0
 11
51.836426
 21
72.635930
 31
0.0
  0
LINE
  5
130
100
AcDbEntity
  8
bulb
 62
7
100
AcDbLine
 10
51.836426
 20
72.635930
 30
0.0
 11
62.999296
 21
68.084480
 31
0.0
  0
LINE
  5
131
100
AcDbEntity
  8
bulb
 62
7
100
AcDbLine
 10
62.999296
 20
68.084480
 30
0.0
 11
71.524333
 21
65.027902
 31
0.0
  0
LINE
  5
132
100
AcDbEntity
  8
bulb
 62
7
100
AcDbLine
 10
71.524333
 20
65.027902
 30
0.0
 11
76.777899
 21
64.073013
 31
0.0
  0
LINE
  5
133
100
AcDbEntity
  8
bulb
 62
7
100
AcDbLine
 10
76.777899
 20
64.073013
 30
0.0
 11
79.913183
 21
64.345206
 31
0.0
  0
LINE
  5
134
100
AcDbEntity
  8
bulb
 62
7
100
AcDbLine
 10
79.913183
 20
64.345206
 30
0.0
 11
82.083368
 21
64.969821
 31
0.0
  0
LINE
  5
135
100
AcDbEntity
  8
bulb
 62
7
100
AcDbLine
 10
82.083368
 20
64.969821
 30
0.0
 11
82.192298
 21
64.998849
 31
0.0
  0
LINE
  5
136
100
AcDbEntity
  8
bulb
 62
7
100
AcDbLine
 10
82.192298
 20
64.998849
 30
0.0
 11
83.139598
 21
66.760440
 31
0.0
  0
LINE
  5
137
100
AcDbEntity
  8
bulb
 62
7
100
AcDbLine
 10
83.139598
 20
66.760440
 30
0.0
 11
81.061727
 21
70.324924
 31
0.0
  0
LINE
  5
138
100
AcDbEntity
  8
bulb
 62
7
100
AcDbLine
 10
81.061727
 20
70.324924
 30
0.0
 11
80.940053
 21
71.182620
 31
0.0
  0
LINE
  5
139
100
AcDbEntity
  8
bulb
 62
7
100
AcDbLine
 10
80.940053
 20
71.182620
 30
0.0
 11
80.940053
 21
71.182620
 31
0.0
  0
LINE
  5
13a
100
AcDbEntity
  8
bulb
 62
7
100
AcDbLine
 10
75.937048
 20
60.961559
 30
0.0
 11
75.487977
 21
60.172497
 31
0.0
  0
LINE
  5
13b
100
AcDbEntity
  8
bulb
 62
7
100
AcDbLine
 10
75.487977
 20
60.172497
 30
0.0
 11
71.101213
 21
61.287012
 31
0.0
  0
LINE
  5
13c
100
AcDbEntity
  8
bulb
 62
7
100
AcDbLine
 10
71.101213
 20
61.287012
 30
0.0
 11
59.466096
 21
65.856701
 31
0.0
  0
LINE
  5
13d
100
AcDbEntity
  8
bulb
 62
7
100
AcDbLine
 10
59.466096
 20
65.856701
 30
0.0
 11
48.337881
 21
69.887868
 31
0.0
  0
LINE
  5
13e
100
AcDbEntity
  8
bulb
 62
7
100
AcDbLine
 10
48.337881
 20
69.887868
 30
0.0
 11
45.206791
 21
70.597247
 31
0.0
  0
LINE
  5
13f
100
AcDbEntity
  8
bulb
 62
7
100
AcDbLine
 10
45.206791
 20
70.597247
 30
0.0
 11
43.206781
 21
70.702361
 31
0.0
  0
LINE
  5
140
100
AcDbEntity
  8
bulb
 62
7
100
AcDbLine
 10
43.206781
 20
70.702361
 30
0.0
 11
41.127172
 21
69.899176
 31
0.0
  0
LINE
  5
141
100
AcDbEntity
  8
bulb
 62
7
100
AcDbLine
 10
41.127172
 20
69.899176
 30
0.0
 11
39.153443
 21
69.077309
 31
0.0
  0
LINE
  5
142
100
AcDbEntity
  8
bulb
 62
7
100
AcDbLine
 10
39.153443
 20
69.077309
 30
0.0
 11
38.424611
 21
67.721531
 31
0.0
  0
LINE
  5
143
100
AcDbEntity
  8
bulb
 62
7
100
AcDbLine
 10
38.424611
 20
67.721531
 30
0.0
 11
39.835875
 21
65.783871
 31
0.0
  0
LINE
  5
144
100
AcDbEntity
  8
bulb
 62
7
100
AcDbLine
 10
39.835875
 20
65.783871
 30
0.0
 11
40.417332
 21
64.335877
 31
0.0
  0
LINE
  5
145
100
AcDbEntity
  8
bulb
 62
7
100
AcDbLine
 10
40.417332
 20
64.335877
 30
0.0
 11
40.331654
 21
62.834596
 31
0.0
  0
LINE
  5
146
100
AcDbEntity
  8
bulb
 62
7
100
AcDbLine
 10
40.331654
 20
62.834596
 30
0.0
 11
40.957015
 21
64.006255
 31
0.0
  0
LINE
  5
147
100
AcDbEntity
  8
bulb
 62
7
100
AcDbLine
 10
40.957015
 20
64.006255
 30
0.0
 11
43.067078
 21
63.702455
 31
0.0
  0
LINE
  5
148
100
AcDbEntity
  8
bulb
 62
7
100
AcDbLine
 10
43.067078
 20
63.702455
 30
0.0
 11
46.835395
 21
62.415676
 31
0.0
  0
LINE
  5
149
100
AcDbEntity
  8
bulb
 62
7
100
AcDbLine
 10
46.835395
 20
62.415676
 30
0.0
 11
58.001146
 21
57.861856
 31
0.0
  0
LINE
  5
14a
100
AcDbEntity
  8
bulb
 62
7
100
AcDbLine
 10
58.001146
 20
57.861856
 30
0.0
 11
66.529821
 21
54.802854
 31
0.0
  0
LINE
  5
14b
100
AcDbEntity
  8
bulb
 62
7
100
AcDbLine
 10
66.529821
 20
54.802854
 30
0.0
 11
71.784039
 21
53.848929
 31
0.0
  0
LINE
  5
14c
100
AcDbEntity
  8
bulb
 62
7
100
AcDbLine
 10
71.784039
 20
53.848929
 30
0.0
 11
74.919344
 21
54.123337
 31
0.0
  0
LINE
  5
14d
100
AcDbEntity
  8
bulb
 62
7
100
AcDbLine
 10
74.919344
 20
54.123337
 30
0.0
 11
77.091288
 21
54.749359
 31
0.0
  0
LINE
  5
14e
100
AcDbEntity
  8
bulb
 62
7
100
AcDbLine
 10
77.091288
 20
54.749359
 30
0.0
 11
77.194149
 21
54.778074
 31
0.0
  0
LINE
  5
14f
100
AcDbEntity
  8
bulb
 62
7
100
AcDbLine
 10
77.194149
 20
54.778074
 30
0.0
 11
78.139631
 21
56.532943
 31
0.0
  0
LINE
  5
150
100
AcDbEntity
  8
bulb
 62
7
100
AcDbLine
 10
78.139631
 20
56.532943
 30
0.0
 11
76.060014
 21
60.101309
 31
0.0
  0
LINE
  5
151
100
AcDbEntity
  8
bulb
 62
7
100
AcDbLine
 10
76.060014
 20
60.101309
 30
0.0
 11
75.937048
 21
60.961559
 31
0.0
  0
LINE
  5
152
100
AcDbEntity
  8
bulb
 62
7
100
AcDbLine
 10
75.937048
 20
60.961559
 30
0.0
 11
75.937048
 21
60.961559
 31
0.0
  0
LINE
  5
153
100
AcDbEntity
  8
bulb
 62
7
100
AcDbLine
 10
69.820802
 20
50.465490
 30
0.0
 11
69.366873
 21
49.677940
 31
0.0
  0
LINE
  5
154
100
AcDbEntity
  8
bulb
 62
7
100
AcDbLine
 10
69.366873
 20
49.677940
 30
0.0
 11
64.985114
 21
50.793549
 31
0.0
  0
LINE
  5
155
100
AcDbEntity
  8
bulb
 62
7
100
AcDbLine
 10
64.985114
 20
50.793549
 30
0.0
 11
53.351362
 21
55.360633
 31
0.0
  0
LINE
  5
156
100
AcDbEntity
  8
bulb
 62
7
100
AcDbLine
 10
53.351362
 20
55.360633
 30
0.0
 11
42.222732
 21
59.394770
 31
0.0
  0
LINE
  5
157
100
AcDbEntity
  8
bulb
 62
7
100
AcDbLine
 10
42.222732
 20
59.394770
 30
0.0
 11
39.091762
 21
60.103967
 31
0.0
  0
LINE
  5
158
100
AcDbEntity
  8
bulb
 62
7
100
AcDbLine
 10
39.091762
 20
60.103967
 30
0.0
 11
37.091896
 21
60.208221
 31
0.0
  0
LINE
  5
159
100
AcDbEntity
  8
bulb
 62
7
100
AcDbLine
 10
37.091896
 20
60.208221
 30
0.0
 11
35.012101
 21
59.403056
 31
0.0
  0
LINE
  5
15a
100
AcDbEntity
  8
bulb
 62
7
100
AcDbLine
 10
35.012101
 20
59.403056
 30
0.0
 11
33.036588
 21
58.581267
 31
0.0
  0
LINE
  5
15b
100
AcDbEntity
  8
bulb
 62
7
100
AcDbLine
 10
33.036588
 20
58.581267
 30
0.0
 11
32.308362
 21
57.226974
 31
0.0
  0
LINE
  5
15c
100
AcDbEntity
  8
bulb
 62
7
100
AcDbLine
 10
32.308362
 20
57.226974
 30
0.0
 11
33.722203
 21
55.283452
 31
0.0
  0
LINE
  5
15d
100
AcDbEntity
  8
bulb
 62
7
100
AcDbLine
 10
33.722203
 20
55.283452
 30
0.0
 11
34.301653
 21
53.834181
 31
0.0
  0
LINE
  5
15e
100
AcDbEntity
  8
bulb
 62
7
100
AcDbLine
 10
34.301653
 20
53.834181
 30
0.0
 11
34.210853
 21
52.340378
 31
0.0
  0
LINE
  5
15f
100
AcDbEntity
  8
bulb
 62
7
100
AcDbLine
 10
34.210853
 20
52.340378
 30
0.0
 11
34.842591
 21
53.508050
 31
0.0
  0
LINE
  5
160
100
AcDbEntity
  8
bulb
 62
7
100
AcDbLine
 10
34.842591
 20
53.508050
 30
0.0
 11
36.952442
 21
53.204771
 31
0.0
  0
LINE
  5
161
100
AcDbEntity
  8
bulb
 62
7
100
AcDbLine
 10
36.952442
 20
53.204771
 30
0.0
 11
40.720435
 21
51.919061
 31
0.0
  0
LINE
  5
162
100
AcDbEntity
  8
bulb
 62
7
100
AcDbLine
 10
40.720435
 20
51.919061
 30
0.0
 11
51.884291
 21
47.368836
 31
0.0
  0
LINE
  5
163
100
AcDbEntity
  8
bulb
 62
7
100
AcDbLine
 10
51.884291
 20
47.368836
 30
0.0
 11
60.405933
 21
44.314343
 31
0.0
  0
LINE
  5
164
100
AcDbEntity
  8
bulb
 62
7
100
AcDbLine
 10
60.405933
 20
44.314343
 30
0.0
 11
65.657814
 21
43.358020
 31
0.0
  0
LINE
  5
165
100
AcDbEntity
  8
bulb
 62
7
100
AcDbLine
 10
65.657814
 20
43.358020
 30
0.0
 11
68.792888
 21
43.627477
 31
0.0
  0
LINE
  5
166
100
AcDbEntity
  8
bulb
 62
7
100
AcDbLine
 10
68.792888
 20
43.627477
 30
0.0
 11
70.964118
 21
44.250242
 31
0.0
  0
LINE
  5
167
100
AcDbEntity
  8
bulb
 62
7
100
AcDbLine
 10
70.964118
 20
44.250242
 30
0.0
 11
71.077902
 21
44.280468
 31
0.0
  0
LINE
  5
168
100
AcDbEntity
  8
bulb
 62
7
100
AcDbLine
 10
71.077902
 20
44.280468
 30
0.0
 11
72.024899
 21
46.040236
 31
0.0
  0
LINE
  5
169
100
AcDbEntity
  8
bulb
 62
7
100
AcDbLine
 10
72.024899
 20
46.040236
 30
0.0
 11
69.943045
 21
49.606804
 31
0.0
  0
LINE
  5
16a
100
AcDbEntity
  8
bulb
 62
7
100
AcDbLine
 10
69.943045
 20
49.606804
 30
0.0
 11
69.820802
 21
50.465490
 31
0.0
  0
LINE
  5
16b
100
AcDbEntity
  8
bulb
 62
7
100
AcDbLine
 10
69.820802
 20
50.465490
 30
0.0
 11
69.820802
 21
50.465490
 31
0.0
  0
LINE
  5
16c
100
AcDbEntity
  8
bulb
 62
7
100
AcDbLine
 10
53.018001
 20
41.477885
 30
0.0
 11
44.477121
 21
45.777310
 31
0.0
  0
LINE
  5
16d
100
AcDbEntity
  8
bulb
 62
7
100
AcDbLine
 10
44.477121
 20
45.777310
 30
0.0
 11
41.995391
 21
40.784114
 31
0.0
  0
LINE
  5
16e
100
AcDbEntity
  8
bulb
 62
7
100
AcDbLine
 10
41.995391
 20
40.784114
 30
0.0
 11
50.536266
 21
36.484064
 31
0.0
  0
LINE
  5
16f
100
AcDbEntity
  8
bulb
 62
7
100
AcDbLine
 10
50.536266
 20
36.484064
 30
0.0
 11
53.018001
 21
41.477885
 31
0.0
  0
LINE
  5
170
100
AcDbEntity
  8
bulb
 62
7
100
AcDbLine
 10
107.382701
 20
146.837658
 30
0.0
 11
98.845769
 21
151.139534
 31
0.0
  0
LINE
  5
171
100
AcDbEntity
  8
bulb
 62
7
100
AcDbLine
 10
98.845769
 20
151.139534
 30
0.0
 11
69.582614
 21
92.277438
 31
0.0
  0
LINE
  5
172
100
AcDbEntity
  8
bulb
 62
7
100
AcDbLine
 10
69.582614
 20
92.277438
 30
0.0
 11
78.119849
 21
87.979238
 31
0.0
  0
LINE
  5
173
100
AcDbEntity
  8
bulb
 62
7
100
AcDbLine
 10
78.119849
 20
87.979238
 30
0.0
 11
107.382701
 21
146.837658
 31
0.0
  0
LINE
  5
174
100
AcDbEntity
  8
bulb
 62
7
100
AcDbLine
 10
107.382701
 20
146.837658
 30
0.0
 11
107.382701
 21
146.837658
 31
0.0
  0
LINE
  5
175
100
AcDbEntity
  8
bulb
 62
7
100
AcDbLine
 10
156.196202
 20
155.945679
 30
0.0
 11
155.940824
 21
150.856064
 31
0.0
  0
LINE
  5
176
100
AcDbEntity
  8
bulb
 62
7
100
AcDbLine
 10
155.940824
 20
150.856064
 30
0.0
 11
155.191260
 21
145.913490
 31
0.0
  0
LINE
  5
177
100
AcDbEntity
  8
bulb
 62
7
100
AcDbLine
 10
155.191260
 20
145.913490
 30
0.0
 11
153.972379
 21
141.142926
 31
0.0
  0
LINE
  5
178
100
AcDbEntity
  8
bulb
 62
7
100
AcDbLine
 10
153.972379
 20
141.142926
 30
0.0
 11
152.309041
 21
136.569459
 31
0.0
  0
LINE
  5
179
100
AcDbEntity
  8
bulb
 62
7
100
AcDbLine
 10
152.309041
 20
136.569459
 30
0.0
 11
150.226113
 21
132.218076
 31
0.0
  0
LINE
  5
17a
100
AcDbEntity
  8
bulb
 62
7
100
AcDbLine
 10
150.226113
 20
132.218076
 30
0.0
 11
147.748454
 21
128.113794
 31
0.0
  0
LINE
  5
17b
100
AcDbEntity
  8
bulb
 62
7
100
AcDbLine
 10
147.748454
 20
128.113794
 30
0.0
 11
144.900928
 21
124.281625
 31
0.0
  0
LINE
  5
17c
100
AcDbEntity
  8
bulb
 62
7
100
AcDbLine
 10
144.900928
 20
124.281625
 30
0.0
 11
141.708406
 21
120.746638
 31
0.0
  0
LINE
  5
17d
100
AcDbEntity
  8
bulb
 62
7
100
AcDbLine
 10
141.708406
 20
120.746638
 30
0.0
 11
138.195742
 21
117.533821
 31
0.0
  0
LINE
  5
17e
100
AcDbEntity
  8
bulb
 62
7
100
AcDbLine
 10
138.195742
 20
117.533821
 30
0.0
 11
134.387805
 21
114.668164
 31
0.0
  0
LINE
  5
17f
100
AcDbEntity
  8
bulb
 62
7
100
AcDbLine
 10
134.387805
 20
114.668164
 30
0.0
 11
130.309455
 21
112.174784
 31
0.0
  0
LINE
  5
180
100
AcDbEntity
  8
bulb
 62
7
100
AcDbLine
 10
130.309455
 20
112.174784
 30
0.0
 11
125.985559
 21
110.078593
 31
0.0
  0
LINE
  5
181
100
AcDbEntity
  8
bulb
 62
7
100
AcDbLine
 10
125.985559
 20
110.078593
 30
0.0
 11
121.440979
 21
108.404684
 31
0.0
  0
LINE
  5
182
100
AcDbEntity
  8
bulb
 62
7
100
AcDbLine
 10
121.440979
 20
108.404684
 30
0.0
 11
116.700578
 21
107.178071
 31
0.0
  0
LINE
  5
183
100
AcDbEntity
  8
bulb
 62
7
100
AcDbLine
 10
116.700578
 20
107.178071
 30
0.0
 11
111.789220
 21
106.423743
 31
0.0
  0
LINE
  5
184
100
AcDbEntity
  8
bulb
 62
7
100
AcDbLine
 10
111.789220
 20
106.423743
 30
0.0
 11
106.731769
 21
106.166716
 31
0.0
  0
LINE
  5
185
100
AcDbEntity
  8
bulb
 62
7
100
AcDbLine
 10
106.731769
 20
106.166716
 30
0.0
 11
102.249853
 21
106.394898
 31
0.0
  0
LINE
  5
186
100
AcDbEntity
  8
bulb
 62
7
100
AcDbLine
 10
102.249853
 20
106.394898
 30
0.0
 11
103.016258
 21
112.063937
 31
0.0
  0
LINE
  5
187
100
AcDbEntity
  8
bulb
 62
7
100
AcDbLine
 10
103.016258
 20
112.063937
 30
0.0
 11
106.135189
 21
111.950354
 31
0.0
  0
LINE
  5
188
100
AcDbEntity
  8
bulb
 62
7
100
AcDbLine
 10
106.135189
 20
111.950354
 30
0.0
 11
114.864332
 21
112.835931
 31
0.0
  0
LINE
  5
189
100
AcDbEntity
  8
bulb
 62
7
100
AcDbLine
 10
114.864332
 20
112.835931
 30
0.0
 11
122.994660
 21
115.375797
 31
0.0
  0
LINE
  5
18a
100
AcDbEntity
  8
bulb
 62
7
100
AcDbLine
 10
122.994660
 20
115.375797
 30
0.0
 11
130.352009
 21
119.394691
 31
0.0
  0
LINE
  5
18b
100
AcDbEntity
  8
bulb
 62
7
100
AcDbLine
 10
130.352009
 20
119.394691
 30
0.0
 11
136.762212
 21
124.717248
 31
0.0
  0
LINE
  5
18c
100
AcDbEntity
  8
bulb
 62
7
100
AcDbLine
 10
136.762212
 20
124.717248
 30
0.0
 11
142.051106
 21
131.168209
 31
0.0
  0
LINE
  5
18d
100
AcDbEntity
  8
bulb
 62
7
100
AcDbLine
 10
142.051106
 20
131.168209
 30
0.0
 11
146.044522
 21
138.572261
 31
0.0
  0
LINE
  5
18e
100
AcDbEntity
  8
bulb
 62
7
100
AcDbLine
 10
146.044522
 20
138.572261
 30
0.0
 11
148.568290
 21
146.754145
 31
0.0
  0
LINE
  5
18f
100
AcDbEntity
  8
bulb
 62
7
100
AcDbLine
 10
148.568290
 20
146.754145
 30
0.0
 11
149.448251
 21
155.538505
 31
0.0
  0
LINE
  5
190
100
AcDbEntity
  8
bulb
 62
7
100
AcDbLine
 10
149.448251
 20
155.538505
 30
0.0
 11
148.568290
 21
164.323426
 31
0.0
  0
LINE
  5
191
100
AcDbEntity
  8
bulb
 62
7
100
AcDbLine
 10
148.568290
 20
164.323426
 30
0.0
 11
146.044522
 21
172.505572
 31
0.0
  0
LINE
  5
192
100
AcDbEntity
  8
bulb
 62
7
100
AcDbLine
 10
146.044522
 20
172.505572
 30
0.0
 11
142.051106
 21
179.909721
 31
0.0
  0
LINE
  5
193
100
AcDbEntity
  8
bulb
 62
7
100
AcDbLine
 10
142.051106
 20
179.909721
 30
0.0
 11
136.762212
 21
186.360624
 31
0.0
  0
LINE
  5
194
100
AcDbEntity
  8
bulb
 62
7
100
AcDbLine
 10
136.762212
 20
186.360624
 30
0.0
 11
130.352009
 21
191.683044
 31
0.0
  0
LINE
  5
195
100
AcDbEntity
  8
bulb
 62
7
100
AcDbLine
 10
130.352009
 20
191.683044
 30
0.0
 11
122.994660
 21
195.701742
 31
0.0
  0
LINE
  5
196
100
AcDbEntity
  8
bulb
 62
7
100
AcDbLine
 10
122.994660
 20
195.701742
 30
0.0
 11
114.864332
 21
198.241467
 31
0.0
  0
LINE
  5
197
100
AcDbEntity
  8
bulb
 62
7
100
AcDbLine
 10
114.864332
 20
198.241467
 30
0.0
 11
106.135189
 21
199.126984
 31
0.0
  0
LINE
  5
198
100
AcDbEntity
  8
bulb
 62
7
100
AcDbLine
 10
106.135189
 20
199.126984
 30
0.0
 11
97.406210
 21
198.241467
 31
0.0
  0
LINE
  5
199
100
AcDbEntity
  8
bulb
 62
7
100
AcDbLine
 10
97.406210
 20
198.241467
 30
0.0
 11
89.275929
 21
195.701742
 31
0.0
  0
LINE
  5
19a
100
AcDbEntity
  8
bulb
 62
7
100
AcDbLine
 10
89.275929
 20
195.701742
 30
0.0
 11
81.918541
 21
191.683044
 31
0.0
  0
LINE
  5
19b
100
AcDbEntity
  8
bulb
 62
7
100
AcDbLine
 10
81.918541
 20
191.683044
 30
0.0
 11
75.508243
 21
186.360624
 31
0.0
  0
LINE
  5
19c
100
AcDbEntity
  8
bulb
 62
7
100
AcDbLine
 10
75.508243
 20
186.360624
 30
0.0
 11
70.219228
 21
179.909721
 31
0.0
  0
LINE
  5
19d
100
AcDbEntity
  8
bulb
 62
7
100
AcDbLine
 10
70.219228
 20
179.909721
 30
0.0
 11
66.225688
 21
172.505572
 31
0.0
  0
LINE
  5
19e
100
AcDbEntity
  8
bulb
 62
7
100
AcDbLine
 10
66.225688
 20
172.505572
 30
0.0
 11
63.701824
 21
164.323426
 31
0.0
  0
LINE
  5
19f
100
AcDbEntity
  8
bulb
 62
7
100
AcDbLine
 10
63.701824
 20
164.323426
 30
0.0
 11
62.821824
 21
155.538505
 31
0.0
  0
LINE
  5
1a0
100
AcDbEntity
  8
bulb
 62
7
100
AcDbLine
 10
62.821824
 20
155.538505
 30
0.0
 11
63.600310
 21
147.269919
 31
0.0
  0
LINE
  5
1a1
100
AcDbEntity
  8
bulb
 62
7
100
AcDbLine
 10
63.600310
 20
147.269919
 30
0.0
 11
65.839372
 21
139.523919
 31
0.0
  0
LINE
  5
1a2
100
AcDbEntity
  8
bulb
 62
7
100
AcDbLine
 10
65.839372
 20
139.523919
 30
0.0
 11
69.394417
 21
132.445711
 31
0.0
  0
LINE
  5
1a3
100
AcDbEntity
  8
bulb
 62
7
100
AcDbLine
 10
69.394417
 20
132.445711
 30
0.0
 11
74.120857
 21
126.180590
 31
0.0
  0
LINE
  5
1a4
100
AcDbEntity
  8
bulb
 62
7
100
AcDbLine
 10
74.120857
 20
126.180590
 30
0.0
 11
70.131781
 21
122.513024
 31
0.0
  0
LINE
  5
1a5
100
AcDbEntity
  8
bulb
 62
7
100
AcDbLine
 10
70.131781
 20
122.513024
 30
0.0
 11
68.562606
 21
124.281625
 31
0.0
  0
LINE
  5
1a6
100
AcDbEntity
  8
bulb
 62
7
100
AcDbLine
 10
68.562606
 20
124.281625
 30
0.0
 11
65.715083
 21
128.113794
 31
0.0
  0
LINE
  5
1a7
100
AcDbEntity
  8
bulb
 62
7
100
AcDbLine
 10
65.715083
 20
128.113794
 30
0.0
 11
63.237424
 21
132.218076
 31
0.0
  0
LINE
  5
1a8
100
AcDbEntity
  8
bulb
 62
7
100
AcDbLine
 10
63.237424
 20
132.218076
 30
0.0
 11
61.154496
 21
136.569459
 31
0.0
  0
LINE
  5
1a9
100
AcDbEntity
  8
bulb
 62
7
100
AcDbLine
 10
61.154496
 20
136.569459
 30
0.0
 11
59.491157
 21
141.142926
 31
0.0
  0
LINE
  5
1aa
100
AcDbEntity
  8
bulb
 62
7
100
AcDbLine
 10
59.491157
 20
141.142926
 30
0.0
 11
58.272277
 21
145.913490
 31
0.0
  0
LINE
  5
1ab
100
AcDbEntity
  8
bulb
 62
7
100
AcDbLine
 10
58.272277
 20
145.913490
 30
0.0
 11
57.522713
 21
150.856064
 31
0.0
  0
LINE
  5
1ac
100
AcDbEntity
  8
bulb
 62
7
100
AcDbLine
 10
57.522713
 20
150.856064
 30
0.0
 11
57.267335
 21
155.945679
 31
0.0
  0
LINE
  5
1ad
100
AcDbEntity
  8
bulb
 62
7
100
AcDbLine
 10
57.267335
 20
155.945679
 30
0.0
 11
57.522715
 21
161.035293
 31
0.0
  0
LINE
  5
1ae
100
AcDbEntity
  8
bulb
 62
7
100
AcDbLine
 10
57.522715
 20
161.035293
 30
0.0
 11
58.272279
 21
165.977873
 31
0.0
  0
LINE
  5
1af
100
AcDbEntity
  8
bulb
 62
7
100
AcDbLine
 10
58.272279
 20
165.977873
 30
0.0
 11
59.491160
 21
170.748415
 31
0.0
  0
LINE
  5
1b0
100
AcDbEntity
  8
bulb
 62
7
100
AcDbLine
 10
59.491160
 20
170.748415
 30
0.0
 11
61.154498
 21
175.321891
 31
0.0
  0
LINE
  5
1b1
100
AcDbEntity
  8
bulb
 62
7
100
AcDbLine
 10
61.154498
 20
175.321891
 30
0.0
 11
63.237429
 21
179.673281
 31
0.0
  0
LINE
  5
1b2
100
AcDbEntity
  8
bulb
 62
7
100
AcDbLine
 10
63.237429
 20
179.673281
 30
0.0
 11
65.715086
 21
183.777564
 31
0.0
  0
LINE
  5
1b3
100
AcDbEntity
  8
bulb
 62
7
100
AcDbLine
 10
65.715086
 20
183.777564
 30
0.0
 11
68.562609
 21
187.609714
 31
0.0
  0
LINE
  5
1b4
100
AcDbEntity
  8
bulb
 62
7
100
AcDbLine
 10
68.562609
 20
187.609714
 30
0.0
 11
71.755136
 21
191.144709
 31
0.0
  0
LINE
  5
1b5
100
AcDbEntity
  8
bulb
 62
7
100
AcDbLine
 10
71.755136
 20
191.144709
 30
0.0
 11
75.267800
 21
194.357536
 31
0.0
  0
LINE
  5
1b6
100
AcDbEntity
  8
bulb
 62
7
100
AcDbLine
 10
75.267800
 20
194.357536
 30
0.0
 11
79.075737
 21
197.223162
 31
0.0
  0
LINE
  5
1b7
100
AcDbEntity
  8
bulb
 62
7
100
AcDbLine
 10
79.075737
 20
197.223162
 30
0.0
 11
83.154085
 21
199.716576
 31
0.0
  0
LINE
  5
1b8
100
AcDbEntity
  8
bulb
 62
7
100
AcDbLine
 10
83.154085
 20
199.716576
 30
0.0
 11
87.477982
 21
201.812751
 31
0.0
  0
LINE
  5
1b9
100
AcDbEntity
  8
bulb
 62
7
100
AcDbLine
 10
87.477982
 20
201.812751
 30
0.0
 11
92.022561
 21
203.486663
 31
0.0
  0
LINE
  5
1ba
100
AcDbEntity
  8
bulb
 62
7
100
AcDbLine
 10
92.022561
 20
203.486663
 30
0.0
 11
96.762962
 21
204.713294
 31
0.0
  0
LINE
  5
1bb
100
AcDbEntity
  8
bulb
 62
7
100
AcDbLine
 10
96.762962
 20
204.713294
 30
0.0
 11
101.674319
 21
205.467622
 31
0.0
  0
LINE
  5
1bc
100
AcDbEntity
  8
bulb
 62
7
100
AcDbLine
 10
101.674319
 20
205.467622
 30
0.0
 11
106.731769
 21
205.724626
 31
0.0
  0
LINE
  5
1bd
100
AcDbEntity
  8
bulb
 62
7
100
AcDbLine
 10
106.731769
 20
205.724626
 30
0.0
 11
111.789219
 21
205.467622
 31
0.0
  0
LINE
  5
1be
100
AcDbEntity
  8
bulb
 62
7
100
AcDbLine
 10
111.789219
 20
205.467622
 30
0.0
 11
116.700576
 21
204.713294
 31
0.0
  0
LINE
  5
1bf
100
AcDbEntity
  8
bulb
 62
7
100
AcDbLine
 10
116.700576
 20
204.713294
 30
0.0
 11
121.440976
 21
203.486663
 31
0.0
  0
LINE
  5
1c0
100
AcDbEntity
  8
bulb
 62
7
100
AcDbLine
 10
121.440976
 20
203.486663
 30
0.0
 11
125.985556
 21
201.812751
 31
0.0
  0
LINE
  5
1c1
100
AcDbEntity
  8
bulb
 62
7
100
AcDbLine
 10
125.985556
 20
201.812751
 30
0.0
 11
130.309452
 21
199.716576
 31
0.0
  0
LINE
  5
1c2
100
AcDbEntity
  8
bulb
 62
7
100
AcDbLine
 10
130.309452
 20
199.716576
 30
0.0
 11
134.387800
 21
197.223162
 31
0.0
  0
LINE
  5
1c3
100
AcDbEntity
  8
bulb
 62
7
100
AcDbLine
 10
134.387800
 20
197.223162
 30
0.0
 11
138.195737
 21
194.357536
 31
0.0
  0
LINE
  5
1c4
100
AcDbEntity
  8
bulb
 62
7
100
AcDbLine
 10
138.195737
 20
194.357536
 30
0.0
 11
141.708401
 21
191.144709
 31
0.0
  0
LINE
  5
1c5
100
AcDbEntity
  8
bulb
 62
7
100
AcDbLine
 10
141.708401
 20
191.144709
 30
0.0
 11
144.900926
 21
187.609714
 31
0.0
  0
LINE
  5
1c6
100
AcDbEntity
  8
bulb
 62
7
100
AcDbLine
 10
144.900926
 20
187.609714
 30
0.0
 11
147.748451
 21
183.777564
 31
0.0
  0
LINE
  5
1c7
100
AcDbEntity
  8
bulb
 62
7
100
AcDbLine
 10
147.748451
 20
183.777564
 30
0.0
 11
150.226108
 21
179.673281
 31
0.0
  0
LINE
  5
1c8
100
AcDbEntity
  8
bulb
 62
7
100
AcDbLine
 10
150.226108
 20
179.673281
 30
0.0
 11
152.309039
 21
175.321891
 31
0.0
  0
LINE
  5
1c9
100
AcDbEntity
  8
bulb
 62
7
100
AcDbLine
 10
152.309039
 20
175.321891
 30
0.0
 11
153.972377
 21
170.748415
 31
0.0
  0
LINE
  5
1ca
100
AcDbEntity
  8
bulb
 62
7
100
AcDbLine
 10
153.972377
 20
170.748415
 30
0.0
 11
155.191258
 21
165.977873
 31
0.0
  0
LINE
  5
1cb
100
AcDbEntity
  8
bulb
 62
7
100
AcDbLine
 10
155.191258
 20
165.977873
 30
0.0
 11
155.940822
 21
161.035293
 31
0.0
  0
LINE
  5
1cc
100
AcDbEntity
  8
bulb
 62
7
100
AcDbLine
 10
155.940822
 20
161.035293
 30
0.0
 11
156.196202
 21
155.945679
 31
0.0
  0
LINE
  5
1cd
100
AcDbEntity
  8
bulb
 62
7
100
AcDbLine
 10
156.196202
 20
155.945679
 30
0.0
 11
156.196202
 21
155.945679
 31
0.0
  0
LINE
  5
1ce
100
AcDbEntity
  8
bulb
 62
7
100
AcDbLine
 10
156.196202
 20
155.945679
 30
0.0
 11
156.196202
 21
155.945679
 31
0.0
  0
LINE
  5
1cf
100
AcDbEntity
  8
arc
 62
7
100
AcDbLine
 10
383.347468
 20
173.003262
 30
0.0
 11
382.974794
 21
166.470456
 31
0.0
  0
LINE
  5
1d0
100
AcDbEntity
  8
arc
 62
7
100
AcDbLine
 10
382.974794
 20
166.470456
 30
0.0
 11
381.958286
 21
160.130249
 31
0.0
  0
LINE
  5
1d1
100
AcDbEntity
  8
arc
 62
7
100
AcDbLine
 10
381.958286
 20
160.130249
 30
0.0
 11
380.330569
 21
154.014521
 31
0.0
  0
LINE
  5
1d2
100
AcDbEntity
  8
arc
 62
7
100
AcDbLine
 10
380.330569
 20
154.014521
 30
0.0
 11
378.124268
 21
148.155249
 31
0.0
  0
LINE
  5
1d3
100
AcDbEntity
  8
arc
 62
7
100
AcDbLine
 10
378.124268
 20
148.155249
 30
0.0
 11
375.372094
 21
142.584352
 31
0.0
  0
LINE
  5
1d4
100
AcDbEntity
  8
arc
 62
7
100
AcDbLine
 10
375.372094
 20
142.584352
 30
0.0
 11
372.106613
 21
137.333777
 31
0.0
  0
LINE
  5
1d5
100
AcDbEntity
  8
arc
 62
7
100
AcDbLine
 10
372.106613
 20
137.333777
 30
0.0
 11
368.360508
 21
132.435443
 31
0.0
  0
LINE
  5
1d6
100
AcDbEntity
  8
arc
 62
7
100
AcDbLine
 10
368.360508
 20
132.435443
 30
0.0
 11
364.166404
 21
127.921299
 31
0.0
  0
LINE
  5
1d7
100
AcDbEntity
  8
arc
 62
7
100
AcDbLine
 10
364.166404
 20
127.921299
 30
0.0
 11
359.556981
 21
123.823291
 31
0.0
  0
LINE
  5
1d8
100
AcDbEntity
  8
arc
 62
7
100
AcDbLine
 10
359.556981
 20
123.823291
 30
0.0
 11
354.564865
 21
120.173339
 31
0.0
  0
LINE
  5
1d9
100
AcDbEntity
  8
arc
 62
7
100
AcDbLine
 10
354.564865
 20
120.173339
 30
0.0
 11
349.222681
 21
117.003335
 31
0.0
  0
LINE
  5
1da
100
AcDbEntity
  8
arc
 62
7
100
AcDbLine
 10
349.222681
 20
117.003335
 30
0.0
 11
343.563081
 21
114.345281
 31
0.0
  0
LINE
  5
1db
100
AcDbEntity
  8
arc
 62
7
100
AcDbLine
 10
343.563081
 20
114.345281
 30
0.0
 11
337.618747
 21
112.231098
 31
0.0
  0
LINE
  5
1dc
100
AcDbEntity
  8
arc
 62
7
100
AcDbLine
 10
337.618747
 20
112.231098
 30
0.0
 11
331.422276
 21
110.692676
 31
0.0
  0
LINE
  5
1dd
100
AcDbEntity
  8
arc
 62
7
100
AcDbLine
 10
331.422276
 20
110.692676
 30
0.0
 11
325.006321
 21
109.761992
 31
0.0
  0
LINE
  5
1de
100
AcDbEntity
  8
arc
 62
7
100
AcDbLine
 10
325.006321
 20
109.761992
 30
0.0
 11
318.403563
 21
109.470993
 31
0.0
  0
LINE
  5
1df
100
AcDbEntity
  8
arc
 62
7
100
AcDbLine
 10
318.403563
 20
109.470993
 30
0.0
 11
313.148049
 21
109.715172
 31
0.0
  0
LINE
  5
1e0
100
AcDbEntity
  8
arc
 62
7
100
AcDbLine
 10
271.456472
 20
129.956573
 30
0.0
 11
268.605629
 21
133.173511
 31
0.0
  0
LINE
  5
1e1
100
AcDbEntity
  8
arc
 62
7
100
AcDbLine
 10
268.605629
 20
133.173511
 30
0.0
 11
264.862366
 21
138.242194
 31
0.0
  0
LINE
  5
1e2
100
AcDbEntity
  8
arc
 62
7
100
AcDbLine
 10
264.862366
 20
138.242194
 30
0.0
 11
261.653466
 21
143.624313
 31
0.0
  0
LINE
  5
1e3
100
AcDbEntity
  8
arc
 62
7
100
AcDbLine
 10
261.653466
 20
143.624313
 30
0.0
 11
258.996205
 21
149.277788
 31
0.0
  0
LINE
  5
1e4
100
AcDbEntity
  8
arc
 62
7
100
AcDbLine
 10
258.996205
 20
149.277788
 30
0.0
 11
256.907871
 21
155.160654
 31
0.0
  0
LINE
  5
1e5
100
AcDbEntity
  8
arc
 62
7
100
AcDbLine
 10
256.907871
 20
155.160654
 30
0.0
 11
255.405740
 21
161.230887
 31
0.0
  0
LINE
  5
1e6
100
AcDbEntity
  8
arc
 62
7
100
AcDbLine
 10
255.405740
 20
161.230887
 30
0.0
 11
254.507105
 21
167.446456
 31
0.0
  0
LINE
  5
1e7
100
AcDbEntity
  8
arc
 62
7
100
AcDbLine
 10
254.507105
 20
167.446456
 30
0.0
 11
254.229238
 21
173.765372
 31
0.0
  0
LINE
  5
1e8
100
AcDbEntity
  8
arc
 62
7
100
AcDbLine
 10
254.229238
 20
173.765372
 30
0.0
 11
254.583192
 21
180.080557
 31
0.0
  0
LINE
  5
1e9
100
AcDbEntity
  8
arc
 62
7
100
AcDbLine
 10
254.583192
 20
180.080557
 30
0.0
 11
255.556625
 21
186.285083
 31
0.0
  0
LINE
  5
1ea
100
AcDbEntity
  8
arc
 62
7
100
AcDbLine
 10
255.556625
 20
186.285083
 30
0.0
 11
257.131758
 21
192.337147
 31
0.0
  0
LINE
  5
1eb
100
AcDbEntity
  8
arc
 62
7
100
AcDbLine
 10
257.131758
 20
192.337147
 30
0.0
 11
259.290795
 21
198.194943
 31
0.0
  0
LINE
  5
1ec
100
AcDbEntity
  8
arc
 62
7
100
AcDbLine
 10
259.290795
 20
198.194943
 30
0.0
 11
262.015961
 21
203.816663
 31
0.0
  0
LINE
  5
1ed
100
AcDbEntity
  8
arc
 62
7
100
AcDbLine
 10
262.015961
 20
203.816663
 30
0.0
 11
265.289456
 21
209.160501
 31
0.0
  0
LINE
  5
1ee
100
AcDbEntity
  8
arc
 62
7
100
AcDbLine
 10
265.289456
 20
209.160501
 30
0.0
 11
269.093501
 21
214.184657
 31
0.0
  0
LINE
  5
1ef
100
AcDbEntity
  8
arc
 62
7
100
AcDbLine
 10
269.093501
 20
214.184657
 30
0.0
 11
273.410302
 21
218.847319
 31
0.0
  0
LINE
  5
1f0
100
AcDbEntity
  8
arc
 62
7
100
AcDbLine
 10
273.410302
 20
218.847319
 30
0.0
 11
278.171207
 21
223.065048
 31
0.0
  0
LINE
  5
1f1
100
AcDbEntity
  8
arc
 62
7
100
AcDbLine
 10
278.171207
 20
223.065048
 30
0.0
 11
283.291111
 21
226.770874
 31
0.0
  0
LINE
  5
1f2
100
AcDbEntity
  8
arc
 62
7
100
AcDbLine
 10
283.291111
 20
226.770874
 30
0.0
 11
288.727586
 21
229.947683
 31
0.0
  0
LINE
  5
1f3
100
AcDbEntity
  8
arc
 62
7
100
AcDbLine
 10
288.727586
 20
229.947683
 30
0.0
 11
294.438183
 21
232.578367
 31
0.0
  0
LINE
  5
1f4
100
AcDbEntity
  8
arc
 62
7
100
AcDbLine
 10
294.438183
 20
232.578367
 30
0.0
 11
300.380485
 21
234.645814
 31
0.0
  0
LINE
  5
1f5
100
AcDbEntity
  8
arc
 62
7
100
AcDbLine
 10
300.380485
 20
234.645814
 30
0.0
 11
306.512045
 21
236.132919
 31
0.0
  0
LINE
  5
1f6
100
AcDbEntity
  8
arc
 62
7
100
AcDbLine
 10
306.512045
 20
236.132919
 30
0.0
 11
312.790417
 21
237.022568
 31
0.0
  0
LINE
  5
1f7
100
AcDbEntity
  8
arc
 62
7
100
AcDbLine
 10
312.790417
 20
237.022568
 30
0.0
 11
319.173154
 21
237.297656
 31
0.0
  0
LINE
  5
1f8
100
AcDbEntity
  8
arc
 62
7
100
AcDbLine
 10
319.173154
 20
237.297656
 30
0.0
 11
325.771962
 21
236.928718
 31
0.0
  0
LINE
  5
1f9
100
AcDbEntity
  8
arc
 62
7
100
AcDbLine
 10
325.771962
 20
236.928718
 30
0.0
 11
332.176233
 21
235.922367
 31
0.0
  0
LINE
  5
1fa
100
AcDbEntity
  8
arc
 62
7
100
AcDbLine
 10
332.176233
 20
235.922367
 30
0.0
 11
338.353739
 21
234.310923
 31
0.0
  0
LINE
  5
1fb
100
AcDbEntity
  8
arc
 62
7
100
AcDbLine
 10
338.353739
 20
234.310923
 30
0.0
 11
344.272193
 21
232.126707
 31
0.0
  0
LINE
  5
1fc
100
AcDbEntity
  8
arc
 62
7
100
AcDbLine
 10
344.272193
 20
232.126707
 30
0.0
 11
349.899365
 21
229.402026
 31
0.0
  0
LINE
  5
1fd
100
AcDbEntity
  8
arc
 62
7
100
AcDbLine
 10
349.899365
 20
229.402026
 30
0.0
 11
355.202970
 21
226.169210
 31
0.0
  0
LINE
  5
1fe
100
AcDbEntity
  8
arc
 62
7
100
AcDbLine
 10
355.202970
 20
226.169210
 30
0.0
 11
360.150777
 21
222.460570
 31
0.0
  0
LINE
  5
1ff
100
AcDbEntity
  8
arc
 62
7
100
AcDbLine
 10
360.150777
 20
222.460570
 30
0.0
 11
364.710528
 21
218.308427
 31
0.0
  0
LINE
  5
200
100
AcDbEntity
  8
arc
 62
7
100
AcDbLine
 10
364.710528
 20
218.308427
 30
0.0
 11
368.849966
 21
213.745096
 31
0.0
  0
LINE
  5
201
100
AcDbEntity
  8
arc
 62
7
100
AcDbLine
 10
368.849966
 20
213.745096
 30
0.0
 11
372.536805
 21
208.802897
 31
0.0
  0
LINE
  5
202
100
AcDbEntity
  8
arc
 62
7
100
AcDbLine
 10
372.536805
 20
208.802897
 30
0.0
 11
375.738813
 21
203.514146
 31
0.0
  0
LINE
  5
203
100
AcDbEntity
  8
arc
 62
7
100
AcDbLine
 10
375.738813
 20
203.514146
 30
0.0
 11
378.423706
 21
197.911165
 31
0.0
  0
LINE
  5
204
100
AcDbEntity
  8
arc
 62
7
100
AcDbLine
 10
378.423706
 20
197.911165
 30
0.0
 11
380.559282
 21
192.026268
 31
0.0
  0
LINE
  5
205
100
AcDbEntity
  8
arc
 62
7
100
AcDbLine
 10
380.559282
 20
192.026268
 30
0.0
 11
382.113226
 21
185.891775
 31
0.0
  0
LINE
  5
206
100
AcDbEntity
  8
arc
 62
7
100
AcDbLine
 10
382.113226
 20
185.891775
 30
0.0
 11
383.053308
 21
179.540003
 31
0.0
  0
LINE
  5
207
100
AcDbEntity
  8
arc
 62
7
100
AcDbLine
 10
383.053308
 20
179.540003
 30
0.0
 11
383.347270
 21
173.003265
 31
0.0
  0
LINE
  5
208
100
AcDbEntity
  8
arc
 62
7
100
AcDbLine
 10
383.347270
 20
173.003265
 30
0.0
 11
383.347270
 21
173.003265
 31
0.0
  0
LINE
  5
209
100
AcDbEntity
  8
text
 62
7
100
AcDbLine
 10
37.193660
 20
141.268541
 30
0.0
 11
17.082261
 21
141.377312
 31
0.0
  0
LINE
  5
20a
100
AcDbEntity
  8
text
 62
7
100
AcDbLine
 10
17.082261
 20
141.377312
 30
0.0
 11
17.103635
 21
145.328254
 31
0.0
  0
LINE
  5
20b
100
AcDbEntity
  8
text
 62
7
100
AcDbLine
 10
17.103635
 20
145.328254
 30
0.0
 11
30.578611
 21
153.486746
 31
0.0
  0
LINE
  5
20c
100
AcDbEntity
  8
text
 62
7
100
AcDbLine
 10
30.578611
 20
153.486746
 30
0.0
 11
17.148156
 21
153.559384
 31
0.0
  0
LINE
  5
20d
100
AcDbEntity
  8
text
 62
7
100
AcDbLine
 10
17.148156
 20
153.559384
 30
0.0
 11
17.168558
 21
157.331985
 31
0.0
  0
LINE
  5
20e
100
AcDbEntity
  8
text
 62
7
100
AcDbLine
 10
17.168558
 20
157.331985
 30
0.0
 11
37.279956
 21
157.223217
 31
0.0
  0
LINE
  5
20f
100
AcDbEntity
  8
text
 62
7
100
AcDbLine
 10
37.279956
 20
157.223217
 30
0.0
 11
37.257918
 21
153.148807
 31
0.0
  0
LINE
  5
210
100
AcDbEntity
  8
text
 62
7
100
AcDbLine
 10
37.257918
 20
153.148807
 30
0.0
 11
24.099132
 21
145.112072
 31
0.0
  0
LINE
  5
211
100
AcDbEntity
  8
text
 62
7
100
AcDbLine
 10
24.099132
 20
145.112072
 30
0.0
 11
37.214062
 21
145.041142
 31
0.0
  0
LINE
  5
212
100
AcDbEntity
  8
text
 62
7
100
AcDbLine
 10
37.214062
 20
145.041142
 30
0.0
 11
37.193660
 21
141.268541
 31
0.0
  0
LINE
  5
213
100
AcDbEntity
  8
text
 62
7
100
AcDbLine
 10
32.540320
 20
180.562018
 30
0.0
 11
31.257501
 21
181.291789
 31
0.0
  0
LINE
  5
214
100
AcDbEntity
  8
text
 62
7
100
AcDbLine
 10
31.257501
 20
181.291789
 30
0.0
 11
30.137129
 21
182.066728
 31
0.0
  0
LINE
  5
215
100
AcDbEntity
  8
text
 62
7
100
AcDbLine
 10
30.137129
 20
182.066728
 30
0.0
 11
29.179271
 21
182.886849
 31
0.0
  0
LINE
  5
216
100
AcDbEntity
  8
text
 62
7
100
AcDbLine
 10
29.179271
 20
182.886849
 30
0.0
 11
28.383928
 21
183.752147
 31
0.0
  0
LINE
  5
217
100
AcDbEntity
  8
text
 62
7
100
AcDbLine
 10
28.383928
 20
183.752147
 30
0.0
 11
27.463212
 21
185.143121
 31
0.0
  0
LINE
  5
218
100
AcDbEntity
  8
text
 62
7
100
AcDbLine
 10
27.463212
 20
185.143121
 30
0.0
 11
26.797772
 21
186.683768
 31
0.0
  0
LINE
  5
219
100
AcDbEntity
  8
text
 62
7
100
AcDbLine
 10
26.797772
 20
186.683768
 30
0.0
 11
26.426116
 21
188.276858
 31
0.0
  0
LINE
  5
21a
100
AcDbEntity
  8
text
 62
7
100
AcDbLine
 10
26.426116
 20
188.276858
 30
0.0
 11
26.386708
 21
189.825227
 31
0.0
  0
LINE
  5
21b
100
AcDbEntity
  8
text
 62
7
100
AcDbLine
 10
26.386708
 20
189.825227
 30
0.0
 11
26.526747
 21
190.851692
 31
0.0
  0
LINE
  5
21c
100
AcDbEntity
  8
text
 62
7
100
AcDbLine
 10
26.526747
 20
190.851692
 30
0.0
 11
26.788231
 21
191.896325
 31
0.0
  0
LINE
  5
21d
100
AcDbEntity
  8
text
 62
7
100
AcDbLine
 10
26.788231
 20
191.896325
 30
0.0
 11
27.171193
 21
192.959134
 31
0.0
  0
LINE
  5
21e
100
AcDbEntity
  8
text
 62
7
100
AcDbLine
 10
27.171193
 20
192.959134
 30
0.0
 11
27.675565
 21
194.040107
 31
0.0
  0
LINE
  5
21f
100
AcDbEntity
  8
text
 62
7
100
AcDbLine
 10
27.675565
 20
194.040107
 30
0.0
 11
28.800371
 21
195.835250
 31
0.0
  0
LINE
  5
220
100
AcDbEntity
  8
text
 62
7
100
AcDbLine
 10
28.800371
 20
195.835250
 30
0.0
 11
30.128940
 21
197.274599
 31
0.0
  0
LINE
  5
221
100
AcDbEntity
  8
text
 62
7
100
AcDbLine
 10
30.128940
 20
197.274599
 30
0.0
 11
31.661340
 21
198.358166
 31
0.0
  0
LINE
  5
222
100
AcDbEntity
  8
text
 62
7
100
AcDbLine
 10
31.661340
 20
198.358166
 30
0.0
 11
33.397503
 21
199.085944
 31
0.0
  0
LINE
  5
223
100
AcDbEntity
  8
text
 62
7
100
AcDbLine
 10
33.397503
 20
199.085944
 30
0.0
 11
34.327237
 21
199.308366
 31
0.0
  0
LINE
  5
224
100
AcDbEntity
  8
text
 62
7
100
AcDbLine
 10
34.327237
 20
199.308366
 30
0.0
 11
35.278336
 21
199.425792
 31
0.0
  0
LINE
  5
225
100
AcDbEntity
  8
text
 62
7
100
AcDbLine
 10
35.278336
 20
199.425792
 30
0.0
 11
36.250803
 21
199.438204
 31
0.0
  0
LINE
  5
226
100
AcDbEntity
  8
text
 62
7
100
AcDbLine
 10
36.250803
 20
199.438204
 30
0.0
 11
37.244670
 21
199.345619
 31
0.0
  0
LINE
  5
227
100
AcDbEntity
  8
text
 62
7
100
AcDbLine
 10
37.244670
 20
199.345619
 30
0.0
 11
39.296504
 21
198.845426
 31
0.0
  0
LINE
  5
228
100
AcDbEntity
  8
text
 62
7
100
AcDbLine
 10
39.296504
 20
198.845426
 30
0.0
 11
41.433838
 21
197.925221
 31
0.0
  0
LINE
  5
229
100
AcDbEntity
  8
text
 62
7
100
AcDbLine
 10
41.433838
 20
197.925221
 30
0.0
 11
43.401893
 21
196.718506
 31
0.0
  0
LINE
  5
22a
100
AcDbEntity
  8
text
 62
7
100
AcDbLine
 10
43.401893
 20
196.718506
 30
0.0
 11
44.982415
 21
195.339916
 31
0.0
  0
LINE
  5
22b
100
AcDbEntity
  8
text
 62
7
100
AcDbLine
 10
44.982415
 20
195.339916
 30
0.0
 11
45.627337
 21
194.586168
 31
0.0
  0
LINE
  5
22c
100
AcDbEntity
  8
text
 62
7
100
AcDbLine
 10
45.627337
 20
194.586168
 30
0.0
 11
46.175368
 21
193.789448
 31
0.0
  0
LINE
  5
22d
100
AcDbEntity
  8
text
 62
7
100
AcDbLine
 10
46.175368
 20
193.789448
 30
0.0
 11
46.626541
 21
192.949763
 31
0.0
  0
LINE
  5
22e
100
AcDbEntity
  8
text
 62
7
100
AcDbLine
 10
46.626541
 20
192.949763
 30
0.0
 11
46.980822
 21
192.067108
 31
0.0
  0
LINE
  5
22f
100
AcDbEntity
  8
text
 62
7
100
AcDbLine
 10
46.980822
 20
192.067108
 30
0.0
 11
47.388560
 21
190.238969
 31
0.0
  0
LINE
  5
230
100
AcDbEntity
  8
text
 62
7
100
AcDbLine
 10
47.388560
 20
190.238969
 30
0.0
 11
47.388430
 21
188.371171
 31
0.0
  0
LINE
  5
231
100
AcDbEntity
  8
text
 62
7
100
AcDbLine
 10
47.388430
 20
188.371171
 30
0.0
 11
46.980465
 21
186.463710
 31
0.0
  0
LINE
  5
232
100
AcDbEntity
  8
text
 62
7
100
AcDbLine
 10
46.980465
 20
186.463710
 30
0.0
 11
46.164664
 21
184.516594
 31
0.0
  0
LINE
  5
233
100
AcDbEntity
  8
text
 62
7
100
AcDbLine
 10
46.164664
 20
184.516594
 30
0.0
 11
45.033308
 21
182.706002
 31
0.0
  0
LINE
  5
234
100
AcDbEntity
  8
text
 62
7
100
AcDbLine
 10
45.033308
 20
182.706002
 30
0.0
 11
43.704008
 21
181.256878
 31
0.0
  0
LINE
  5
235
100
AcDbEntity
  8
text
 62
7
100
AcDbLine
 10
43.704008
 20
181.256878
 30
0.0
 11
42.176765
 21
180.169220
 31
0.0
  0
LINE
  5
236
100
AcDbEntity
  8
text
 62
7
100
AcDbLine
 10
42.176765
 20
180.169220
 30
0.0
 11
40.451546
 21
179.443021
 31
0.0
  0
LINE
  5
237
100
AcDbEntity
  8
text
 62
7
100
AcDbLine
 10
40.451546
 20
179.443021
 30
0.0
 11
39.529828
 21
179.221858
 31
0.0
  0
LINE
  5
238
100
AcDbEntity
  8
text
 62
7
100
AcDbLine
 10
39.529828
 20
179.221858
 30
0.0
 11
38.588931
 21
179.103864
 31
0.0
  0
LINE
  5
239
100
AcDbEntity
  8
text
 62
7
100
AcDbLine
 10
38.588931
 20
179.103864
 30
0.0
 11
36.649538
 21
179.177313
 31
0.0
  0
LINE
  5
23a
100
AcDbEntity
  8
text
 62
7
100
AcDbLine
 10
36.649538
 20
179.177313
 30
0.0
 11
34.633368
 21
179.663373
 31
0.0
  0
LINE
  5
23b
100
AcDbEntity
  8
text
 62
7
100
AcDbLine
 10
34.633368
 20
179.663373
 30
0.0
 11
32.540386
 21
180.562044
 31
0.0
  0
LINE
  5
23c
100
AcDbEntity
  8
text
 62
7
100
AcDbLine
 10
32.540386
 20
180.562044
 30
0.0
 11
32.540318
 21
180.562035
 31
0.0
  0
LINE
  5
23d
100
AcDbEntity
  8
text
 62
7
100
AcDbLine
 10
34.344325
 20
184.339866
 30
0.0
 11
35.814314
 21
183.688846
 31
0.0
  0
LINE
  5
23e
100
AcDbEntity
  8
text
 62
7
100
AcDbLine
 10
35.814314
 20
183.688846
 30
0.0
 11
37.191601
 21
183.308006
 31
0.0
  0
LINE
  5
23f
100
AcDbEntity
  8
text
 62
7
100
AcDbLine
 10
37.191601
 20
183.308006
 30
0.0
 11
38.476219
 21
183.197361
 31
0.0
  0
LINE
  5
240
100
AcDbEntity
  8
text
 62
7
100
AcDbLine
 10
38.476219
 20
183.197361
 30
0.0
 11
39.668133
 21
183.356913
 31
0.0
  0
LINE
  5
241
100
AcDbEntity
  8
text
 62
7
100
AcDbLine
 10
39.668133
 20
183.356913
 30
0.0
 11
40.740357
 21
183.749436
 31
0.0
  0
LINE
  5
242
100
AcDbEntity
  8
text
 62
7
100
AcDbLine
 10
40.740357
 20
183.749436
 30
0.0
 11
41.665894
 21
184.337777
 31
0.0
  0
LINE
  5
243
100
AcDbEntity
  8
text
 62
7
100
AcDbLine
 10
41.665894
 20
184.337777
 30
0.0
 11
42.444743
 21
185.121935
 31
0.0
  0
LINE
  5
244
100
AcDbEntity
  8
text
 62
7
100
AcDbLine
 10
42.444743
 20
185.121935
 30
0.0
 11
43.076907
 21
186.101906
 31
0.0
  0
LINE
  5
245
100
AcDbEntity
  8
text
 62
7
100
AcDbLine
 10
43.076907
 20
186.101906
 30
0.0
 11
43.513607
 21
187.181750
 31
0.0
  0
LINE
  5
246
100
AcDbEntity
  8
text
 62
7
100
AcDbLine
 10
43.513607
 20
187.181750
 30
0.0
 11
43.706066
 21
188.265553
 31
0.0
  0
LINE
  5
247
100
AcDbEntity
  8
text
 62
7
100
AcDbLine
 10
43.706066
 20
188.265553
 30
0.0
 11
43.654316
 21
189.353322
 31
0.0
  0
LINE
  5
248
100
AcDbEntity
  8
text
 62
7
100
AcDbLine
 10
43.654316
 20
189.353322
 30
0.0
 11
43.358324
 21
190.445054
 31
0.0
  0
LINE
  5
249
100
AcDbEntity
  8
text
 62
7
100
AcDbLine
 10
43.358324
 20
190.445054
 30
0.0
 11
42.798372
 21
191.502666
 31
0.0
  0
LINE
  5
24a
100
AcDbEntity
  8
text
 62
7
100
AcDbLine
 10
42.798372
 20
191.502666
 30
0.0
 11
41.954738
 21
192.488121
 31
0.0
  0
LINE
  5
24b
100
AcDbEntity
  8
text
 62
7
100
AcDbLine
 10
41.954738
 20
192.488121
 30
0.0
 11
40.827389
 21
193.401417
 31
0.0
  0
LINE
  5
24c
100
AcDbEntity
  8
text
 62
7
100
AcDbLine
 10
40.827389
 20
193.401417
 30
0.0
 11
39.416390
 21
194.242565
 31
0.0
  0
LINE
  5
24d
100
AcDbEntity
  8
text
 62
7
100
AcDbLine
 10
39.416390
 20
194.242565
 30
0.0
 11
37.935606
 21
194.903505
 31
0.0
  0
LINE
  5
24e
100
AcDbEntity
  8
text
 62
7
100
AcDbLine
 10
37.935606
 20
194.903505
 30
0.0
 11
36.562494
 21
195.295204
 31
0.0
  0
LINE
  5
24f
100
AcDbEntity
  8
text
 62
7
100
AcDbLine
 10
36.562494
 20
195.295204
 30
0.0
 11
35.297054
 21
195.417657
 31
0.0
  0
LINE
  5
250
100
AcDbEntity
  8
text
 62
7
100
AcDbLine
 10
35.297054
 20
195.417657
 30
0.0
 11
34.139252
 21
195.270875
 31
0.0
  0
LINE
  5
251
100
AcDbEntity
  8
text
 62
7
100
AcDbLine
 10
34.139252
 20
195.270875
 30
0.0
 11
33.101039
 21
194.885310
 31
0.0
  0
LINE
  5
252
100
AcDbEntity
  8
text
 62
7
100
AcDbLine
 10
33.101039
 20
194.885310
 30
0.0
 11
32.194393
 21
194.291510
 31
0.0
  0
LINE
  5
253
100
AcDbEntity
  8
text
 62
7
100
AcDbLine
 10
32.194393
 20
194.291510
 30
0.0
 11
31.419312
 21
193.489470
 31
0.0
  0
LINE
  5
254
100
AcDbEntity
  8
text
 62
7
100
AcDbLine
 10
31.419312
 20
193.489470
 30
0.0
 11
30.775796
 21
192.479199
 31
0.0
  0
LINE
  5
255
100
AcDbEntity
  8
text
 62
7
100
AcDbLine
 10
30.775796
 20
192.479199
 30
0.0
 11
30.321627
 21
191.369304
 31
0.0
  0
LINE
  5
256
100
AcDbEntity
  8
text
 62
7
100
AcDbLine
 10
30.321627
 20
191.369304
 30
0.0
 11
30.114511
 21
190.268447
 31
0.0
  0
LINE
  5
257
100
AcDbEntity
  8
text
 62
7
100
AcDbLine
 10
30.114511
 20
190.268447
 30
0.0
 11
30.154549
 21
189.176644
 31
0.0
  0
LINE
  5
258
100
AcDbEntity
  8
text
 62
7
100
AcDbLine
 10
30.154549
 20
189.176644
 30
0.0
 11
30.441639
 21
188.093879
 31
0.0
  0
LINE
  5
259
100
AcDbEntity
  8
text
 62
7
100
AcDbLine
 10
30.441639
 20
188.093879
 30
0.0
 11
30.993547
 21
187.050556
 31
0.0
  0
LINE
  5
25a
100
AcDbEntity
  8
text
 62
7
100
AcDbLine
 10
30.993547
 20
187.050556
 30
0.0
 11
31.827963
 21
186.077116
 31
0.0
  0
LINE
  5
25b
100
AcDbEntity
  8
text
 62
7
100
AcDbLine
 10
31.827963
 20
186.077116
 30
0.0
 11
32.944888
 21
185.173563
 31
0.0
  0
LINE
  5
25c
100
AcDbEntity
  8
text
 62
7
100
AcDbLine
 10
32.944888
 20
185.173563
 30
0.0
 11
34.344321
 21
184.339890
 31
0.0
  0
LINE
  5
25d
100
AcDbEntity
  8
text
 62
7
100
AcDbLine
 10
34.344321
 20
184.339890
 30
0.0
 11
34.344321
 21
184.339890
 31
0.0
  0
LINE
  5
25e
100
AcDbEntity
  8
text
 62
7
100
AcDbLine
 10
67.175695
 20
210.318806
 30
0.0
 11
49.443027
 21
222.222969
 31
0.0
  0
LINE
  5
25f
100
AcDbEntity
  8
text
 62
7
100
AcDbLine
 10
49.443027
 20
222.222969
 30
0.0
 11
52.984950
 21
224.839767
 31
0.0
  0
LINE
  5
260
100
AcDbEntity
  8
text
 62
7
100
AcDbLine
 10
52.984950
 20
224.839767
 30
0.0
 11
65.923488
 21
215.892293
 31
0.0
  0
LINE
  5
261
100
AcDbEntity
  8
text
 62
7
100
AcDbLine
 10
65.923488
 20
215.892293
 30
0.0
 11
61.039773
 21
230.790738
 31
0.0
  0
LINE
  5
262
100
AcDbEntity
  8
text
 62
7
100
AcDbLine
 10
61.039773
 20
230.790738
 30
0.0
 11
64.504431
 21
233.350469
 31
0.0
  0
LINE
  5
263
100
AcDbEntity
  8
text
 62
7
100
AcDbLine
 10
64.504431
 20
233.350469
 30
0.0
 11
70.662439
 21
212.894842
 31
0.0
  0
LINE
  5
264
100
AcDbEntity
  8
text
 62
7
100
AcDbLine
 10
70.662439
 20
212.894842
 30
0.0
 11
67.175695
 21
210.318806
 31
0.0
  0
LINE
  5
265
100
AcDbEntity
  8
text
 62
7
100
AcDbLine
 10
101.917114
 20
233.747287
 30
0.0
 11
97.796920
 21
240.559030
 31
0.0
  0
LINE
  5
266
100
AcDbEntity
  8
text
 62
7
100
AcDbLine
 10
97.796920
 20
240.559030
 30
0.0
 11
96.526764
 21
232.719296
 31
0.0
  0
LINE
  5
267
100
AcDbEntity
  8
text
 62
7
100
AcDbLine
 10
96.526764
 20
232.719296
 30
0.0
 11
95.935262
 21
229.156889
 31
0.0
  0
LINE
  5
268
100
AcDbEntity
  8
text
 62
7
100
AcDbLine
 10
95.935262
 20
229.156889
 30
0.0
 11
95.160461
 21
224.358450
 31
0.0
  0
LINE
  5
269
100
AcDbEntity
  8
text
 62
7
100
AcDbLine
 10
95.160461
 20
224.358450
 30
0.0
 11
90.929051
 21
223.551477
 31
0.0
  0
LINE
  5
26a
100
AcDbEntity
  8
text
 62
7
100
AcDbLine
 10
90.929051
 20
223.551477
 30
0.0
 11
94.856190
 21
244.774574
 31
0.0
  0
LINE
  5
26b
100
AcDbEntity
  8
text
 62
7
100
AcDbLine
 10
94.856190
 20
244.774574
 30
0.0
 11
99.074132
 21
245.578979
 31
0.0
  0
LINE
  5
26c
100
AcDbEntity
  8
text
 62
7
100
AcDbLine
 10
99.074132
 20
245.578979
 30
0.0
 11
110.752073
 21
227.331920
 31
0.0
  0
LINE
  5
26d
100
AcDbEntity
  8
text
 62
7
100
AcDbLine
 10
110.752073
 20
227.331920
 30
0.0
 11
106.412817
 21
226.504382
 31
0.0
  0
LINE
  5
26e
100
AcDbEntity
  8
text
 62
7
100
AcDbLine
 10
106.412817
 20
226.504382
 30
0.0
 11
103.832113
 21
230.662896
 31
0.0
  0
LINE
  5
26f
100
AcDbEntity
  8
text
 62
7
100
AcDbLine
 10
103.832113
 20
230.662896
 30
0.0
 11
101.917114
 21
233.747287
 31
0.0
  0
LINE
  5
270
100
AcDbEntity
  8
text
 62
7
100
AcDbLine
 10
182.686887
 20
207.166080
 30
0.0
 11
184.383785
 21
203.101458
 31
0.0
  0
LINE
  5
271
100
AcDbEntity
  8
text
 62
7
100
AcDbLine
 10
184.383785
 20
203.101458
 30
0.0
 11
170.681784
 21
196.876992
 31
0.0
  0
LINE
  5
272
100
AcDbEntity
  8
text
 62
7
100
AcDbLine
 10
170.681784
 20
196.876992
 30
0.0
 11
173.154390
 21
190.954246
 31
0.0
  0
LINE
  5
273
100
AcDbEntity
  8
text
 62
7
100
AcDbLine
 10
173.154390
 20
190.954246
 30
0.0
 11
169.278473
 21
189.336128
 31
0.0
  0
LINE
  5
274
100
AcDbEntity
  8
text
 62
7
100
AcDbLine
 10
169.278473
 20
189.336128
 30
0.0
 11
165.108968
 21
199.323499
 31
0.0
  0
LINE
  5
275
100
AcDbEntity
  8
text
 62
7
100
AcDbLine
 10
165.108968
 20
199.323499
 30
0.0
 11
182.686887
 21
207.166080
 31
0.0
  0
LINE
  5
276
100
AcDbEntity
  8
text
 62
7
100
AcDbLine
 10
191.006235
 20
156.316595
 30
0.0
 11
191.008216
 21
152.037813
 31
0.0
  0
LINE
  5
277
100
AcDbEntity
  8
text
 62
7
100
AcDbLine
 10
191.008216
 20
152.037813
 30
0.0
 11
173.893151
 21
152.029790
 31
0.0
  0
LINE
  5
278
100
AcDbEntity
  8
text
 62
7
100
AcDbLine
 10
173.893151
 20
152.029790
 30
0.0
 11
173.891170
 21
156.308572
 31
0.0
  0
LINE
  5
279
100
AcDbEntity
  8
text
 62
7
100
AcDbLine
 10
173.891170
 20
156.308572
 30
0.0
 11
175.700188
 21
156.309411
 31
0.0
  0
LINE
  5
27a
100
AcDbEntity
  8
text
 62
7
100
AcDbLine
 10
175.700188
 20
156.309411
 30
0.0
 11
174.671197
 21
157.569369
 31
0.0
  0
LINE
  5
27b
100
AcDbEntity
  8
text
 62
7
100
AcDbLine
 10
174.671197
 20
157.569369
 30
0.0
 11
173.976542
 21
158.833423
 31
0.0
  0
LINE
  5
27c
100
AcDbEntity
  8
text
 62
7
100
AcDbLine
 10
173.976542
 20
158.833423
 30
0.0
 11
173.580722
 21
160.152680
 31
0.0
  0
LINE
  5
27d
100
AcDbEntity
  8
text
 62
7
100
AcDbLine
 10
173.580722
 20
160.152680
 30
0.0
 11
173.448302
 21
161.578209
 31
0.0
  0
LINE
  5
27e
100
AcDbEntity
  8
text
 62
7
100
AcDbLine
 10
173.448302
 20
161.578209
 30
0.0
 11
173.608295
 21
163.181838
 31
0.0
  0
LINE
  5
27f
100
AcDbEntity
  8
text
 62
7
100
AcDbLine
 10
173.608295
 20
163.181838
 30
0.0
 11
174.089834
 21
164.673532
 31
0.0
  0
LINE
  5
280
100
AcDbEntity
  8
text
 62
7
100
AcDbLine
 10
174.089834
 20
164.673532
 30
0.0
 11
174.892917
 21
166.053293
 31
0.0
  0
LINE
  5
281
100
AcDbEntity
  8
text
 62
7
100
AcDbLine
 10
174.892917
 20
166.053293
 30
0.0
 11
176.017582
 21
167.321136
 31
0.0
  0
LINE
  5
282
100
AcDbEntity
  8
text
 62
7
100
AcDbLine
 10
176.017582
 20
167.321136
 30
0.0
 11
177.381251
 21
168.381645
 31
0.0
  0
LINE
  5
283
100
AcDbEntity
  8
text
 62
7
100
AcDbLine
 10
177.381251
 20
168.381645
 30
0.0
 11
178.901352
 21
169.139393
 31
0.0
  0
LINE
  5
284
100
AcDbEntity
  8
text
 62
7
100
AcDbLine
 10
178.901352
 20
169.139393
 30
0.0
 11
180.577957
 21
169.594413
 31
0.0
  0
LINE
  5
285
100
AcDbEntity
  8
text
 62
7
100
AcDbLine
 10
180.577957
 20
169.594413
 30
0.0
 11
182.410995
 21
169.746672
 31
0.0
  0
LINE
  5
286
100
AcDbEntity
  8
text
 62
7
100
AcDbLine
 10
182.410995
 20
169.746672
 30
0.0
 11
184.303689
 21
169.601078
 31
0.0
  0
LINE
  5
287
100
AcDbEntity
  8
text
 62
7
100
AcDbLine
 10
184.303689
 20
169.601078
 30
0.0
 11
186.017554
 21
169.162402
 31
0.0
  0
LINE
  5
288
100
AcDbEntity
  8
text
 62
7
100
AcDbLine
 10
186.017554
 20
169.162402
 30
0.0
 11
187.552631
 21
168.430652
 31
0.0
  0
LINE
  5
289
100
AcDbEntity
  8
text
 62
7
100
AcDbLine
 10
187.552631
 20
168.430652
 30
0.0
 11
188.908912
 21
167.405838
 31
0.0
  0
LINE
  5
28a
100
AcDbEntity
  8
text
 62
7
100
AcDbLine
 10
188.908912
 20
167.405838
 30
0.0
 11
190.017511
 21
166.171493
 31
0.0
  0
LINE
  5
28b
100
AcDbEntity
  8
text
 62
7
100
AcDbLine
 10
190.017511
 20
166.171493
 30
0.0
 11
190.809582
 21
164.811148
 31
0.0
  0
LINE
  5
28c
100
AcDbEntity
  8
text
 62
7
100
AcDbLine
 10
190.809582
 20
164.811148
 30
0.0
 11
191.285164
 21
163.324818
 31
0.0
  0
LINE
  5
28d
100
AcDbEntity
  8
text
 62
7
100
AcDbLine
 10
191.285164
 20
163.324818
 30
0.0
 11
191.444221
 21
161.712483
 31
0.0
  0
LINE
  5
28e
100
AcDbEntity
  8
text
 62
7
100
AcDbLine
 10
191.444221
 20
161.712483
 30
0.0
 11
191.299392
 21
160.217999
 31
0.0
  0
LINE
  5
28f
100
AcDbEntity
  8
text
 62
7
100
AcDbLine
 10
191.299392
 20
160.217999
 30
0.0
 11
190.863550
 21
158.817753
 31
0.0
  0
LINE
  5
290
100
AcDbEntity
  8
text
 62
7
100
AcDbLine
 10
190.863550
 20
158.817753
 30
0.0
 11
190.136594
 21
157.515697
 31
0.0
  0
LINE
  5
291
100
AcDbEntity
  8
text
 62
7
100
AcDbLine
 10
190.136594
 20
157.515697
 30
0.0
 11
189.118616
 21
156.315749
 31
0.0
  0
LINE
  5
292
100
AcDbEntity
  8
text
 62
7
100
AcDbLine
 10
189.118616
 20
156.315749
 30
0.0
 11
191.006305
 21
156.316632
 31
0.0
  0
LINE
  5
293
100
AcDbEntity
  8
text
 62
7
100
AcDbLine
 10
187.480483
 20
160.829703
 30
0.0
 11
187.392028
 21
161.786290
 31
0.0
  0
LINE
  5
294
100
AcDbEntity
  8
text
 62
7
100
AcDbLine
 10
187.392028
 20
161.786290
 30
0.0
 11
187.127666
 21
162.658260
 31
0.0
  0
LINE
  5
295
100
AcDbEntity
  8
text
 62
7
100
AcDbLine
 10
187.127666
 20
162.658260
 30
0.0
 11
186.687121
 21
163.445463
 31
0.0
  0
LINE
  5
296
100
AcDbEntity
  8
text
 62
7
100
AcDbLine
 10
186.687121
 20
163.445463
 30
0.0
 11
186.070843
 21
164.148137
 31
0.0
  0
LINE
  5
297
100
AcDbEntity
  8
text
 62
7
100
AcDbLine
 10
186.070843
 20
164.148137
 30
0.0
 11
185.316951
 21
164.725886
 31
0.0
  0
LINE
  5
298
100
AcDbEntity
  8
text
 62
7
100
AcDbLine
 10
185.316951
 20
164.725886
 30
0.0
 11
184.463860
 21
165.138422
 31
0.0
  0
LINE
  5
299
100
AcDbEntity
  8
text
 62
7
100
AcDbLine
 10
184.463860
 20
165.138422
 30
0.0
 11
183.511567
 21
165.385748
 31
0.0
  0
LINE
  5
29a
100
AcDbEntity
  8
text
 62
7
100
AcDbLine
 10
183.511567
 20
165.385748
 30
0.0
 11
182.460039
 21
165.467843
 31
0.0
  0
LINE
  5
29b
100
AcDbEntity
  8
text
 62
7
100
AcDbLine
 10
182.460039
 20
165.467843
 30
0.0
 11
181.400201
 21
165.383278
 31
0.0
  0
LINE
  5
29c
100
AcDbEntity
  8
text
 62
7
100
AcDbLine
 10
181.400201
 20
165.383278
 30
0.0
 11
180.438791
 21
165.130651
 31
0.0
  0
LINE
  5
29d
100
AcDbEntity
  8
text
 62
7
100
AcDbLine
 10
180.438791
 20
165.130651
 30
0.0
 11
179.575744
 21
164.709914
 31
0.0
  0
LINE
  5
29e
100
AcDbEntity
  8
text
 62
7
100
AcDbLine
 10
179.575744
 20
164.709914
 30
0.0
 11
178.811120
 21
164.121125
 31
0.0
  0
LINE
  5
29f
100
AcDbEntity
  8
text
 62
7
100
AcDbLine
 10
178.811120
 20
164.121125
 30
0.0
 11
178.185188
 21
163.409519
 31
0.0
  0
LINE
  5
2a0
100
AcDbEntity
  8
text
 62
7
100
AcDbLine
 10
178.185188
 20
163.409519
 30
0.0
 11
177.738188
 21
162.620304
 31
0.0
  0
LINE
  5
2a1
100
AcDbEntity
  8
text
 62
7
100
AcDbLine
 10
177.738188
 20
162.620304
 30
0.0
 11
177.470192
 21
161.753511
 31
0.0
  0
LINE
  5
2a2
100
AcDbEntity
  8
text
 62
7
100
AcDbLine
 10
177.470192
 20
161.753511
 30
0.0
 11
177.381165
 21
160.809124
 31
0.0
  0
LINE
  5
2a3
100
AcDbEntity
  8
text
 62
7
100
AcDbLine
 10
177.381165
 20
160.809124
 30
0.0
 11
177.469630
 21
159.837808
 31
0.0
  0
LINE
  5
2a4
100
AcDbEntity
  8
text
 62
7
100
AcDbLine
 10
177.469630
 20
159.837808
 30
0.0
 11
177.734023
 21
158.953076
 31
0.0
  0
LINE
  5
2a5
100
AcDbEntity
  8
text
 62
7
100
AcDbLine
 10
177.734023
 20
158.953076
 30
0.0
 11
178.174203
 21
158.154858
 31
0.0
  0
LINE
  5
2a6
100
AcDbEntity
  8
text
 62
7
100
AcDbLine
 10
178.174203
 20
158.154858
 30
0.0
 11
178.790485
 21
157.443317
 31
0.0
  0
LINE
  5
2a7
100
AcDbEntity
  8
text
 62
7
100
AcDbLine
 10
178.790485
 20
157.443317
 30
0.0
 11
179.549279
 21
156.858692
 31
0.0
  0
LINE
  5
2a8
100
AcDbEntity
  8
text
 62
7
100
AcDbLine
 10
179.549279
 20
156.858692
 30
0.0
 11
180.417118
 21
156.441251
 31
0.0
  0
LINE
  5
2a9
100
AcDbEntity
  8
text
 62
7
100
AcDbLine
 10
180.417118
 20
156.441251
 30
0.0
 11
181.394001
 21
156.190991
 31
0.0
  0
LINE
  5
2aa
100
AcDbEntity
  8
text
 62
7
100
AcDbLine
 10
181.394001
 20
156.190991
 30
0.0
 11
182.479968
 21
156.107926
 31
0.0
  0
LINE
  5
2ab
100
AcDbEntity
  8
text
 62
7
100
AcDbLine
 10
182.479968
 20
156.107926
 30
0.0
 11
183.543711
 21
156.192002
 31
0.0
  0
LINE
  5
2ac
100
AcDbEntity
  8
text
 62
7
100
AcDbLine
 10
183.543711
 20
156.192002
 30
0.0
 11
184.501227
 21
156.443175
 31
0.0
  0
LINE
  5
2ad
100
AcDbEntity
  8
text
 62
7
100
AcDbLine
 10
184.501227
 20
156.443175
 30
0.0
 11
185.352449
 21
156.861401
 31
0.0
  0
LINE
  5
2ae
100
AcDbEntity
  8
text
 62
7
100
AcDbLine
 10
185.352449
 20
156.861401
 30
0.0
 11
186.097436
 21
157.446738
 31
0.0
  0
LINE
  5
2af
100
AcDbEntity
  8
text
 62
7
100
AcDbLine
 10
186.097436
 20
157.446738
 30
0.0
 11
186.702745
 21
158.159836
 31
0.0
  0
LINE
  5
2b0
100
AcDbEntity
  8
text
 62
7
100
AcDbLine
 10
186.702745
 20
158.159836
 30
0.0
 11
187.134947
 21
158.961324
 31
0.0
  0
LINE
  5
2b1
100
AcDbEntity
  8
text
 62
7
100
AcDbLine
 10
187.134947
 20
158.961324
 30
0.0
 11
187.394083
 21
159.851208
 31
0.0
  0
LINE
  5
2b2
100
AcDbEntity
  8
text
 62
7
100
AcDbLine
 10
187.394083
 20
159.851208
 30
0.0
 11
187.480147
 21
160.829498
 31
0.0
  0
LINE
  5
2b3
100
AcDbEntity
  8
text
 62
7
100
AcDbLine
 10
187.480147
 20
160.829498
 30
0.0
 11
187.480147
 21
160.829498
 31
0.0
  0
LINE
  5
2b4
100
AcDbEntity
  8
text
 62
7
100
AcDbLine
 10
188.449356
 20
116.146380
 30
0.0
 11
180.777990
 21
119.794490
 31
0.0
  0
LINE
  5
2b5
100
AcDbEntity
  8
text
 62
7
100
AcDbLine
 10
180.777990
 20
119.794490
 30
0.0
 11
181.177639
 21
118.263187
 31
0.0
  0
LINE
  5
2b6
100
AcDbEntity
  8
text
 62
7
100
AcDbLine
 10
181.177639
 20
118.263187
 30
0.0
 11
181.273970
 21
116.771609
 31
0.0
  0
LINE
  5
2b7
100
AcDbEntity
  8
text
 62
7
100
AcDbLine
 10
181.273970
 20
116.771609
 30
0.0
 11
181.066919
 21
115.319793
 31
0.0
  0
LINE
  5
2b8
100
AcDbEntity
  8
text
 62
7
100
AcDbLine
 10
181.066919
 20
115.319793
 30
0.0
 11
180.556514
 21
113.907687
 31
0.0
  0
LINE
  5
2b9
100
AcDbEntity
  8
text
 62
7
100
AcDbLine
 10
180.556514
 20
113.907687
 30
0.0
 11
179.721082
 21
112.519535
 31
0.0
  0
LINE
  5
2ba
100
AcDbEntity
  8
text
 62
7
100
AcDbLine
 10
179.721082
 20
112.519535
 30
0.0
 11
178.653812
 21
111.380991
 31
0.0
  0
LINE
  5
2bb
100
AcDbEntity
  8
text
 62
7
100
AcDbLine
 10
178.653812
 20
111.380991
 30
0.0
 11
177.354703
 21
110.492058
 31
0.0
  0
LINE
  5
2bc
100
AcDbEntity
  8
text
 62
7
100
AcDbLine
 10
177.354703
 20
110.492058
 30
0.0
 11
175.823723
 21
109.852713
 31
0.0
  0
LINE
  5
2bd
100
AcDbEntity
  8
text
 62
7
100
AcDbLine
 10
175.823723
 20
109.852713
 30
0.0
 11
174.158947
 21
109.508928
 31
0.0
  0
LINE
  5
2be
100
AcDbEntity
  8
text
 62
7
100
AcDbLine
 10
174.158947
 20
109.508928
 30
0.0
 11
172.458379
 21
109.506560
 31
0.0
  0
LINE
  5
2bf
100
AcDbEntity
  8
text
 62
7
100
AcDbLine
 10
172.458379
 20
109.506560
 30
0.0
 11
170.722056
 21
109.845623
 31
0.0
  0
LINE
  5
2c0
100
AcDbEntity
  8
text
 62
7
100
AcDbLine
 10
170.722056
 20
109.845623
 30
0.0
 11
168.949973
 21
110.526126
 31
0.0
  0
LINE
  5
2c1
100
AcDbEntity
  8
text
 62
7
100
AcDbLine
 10
168.949973
 20
110.526126
 30
0.0
 11
167.359530
 21
111.450131
 31
0.0
  0
LINE
  5
2c2
100
AcDbEntity
  8
text
 62
7
100
AcDbLine
 10
167.359530
 20
111.450131
 30
0.0
 11
166.040306
 21
112.580460
 31
0.0
  0
LINE
  5
2c3
100
AcDbEntity
  8
text
 62
7
100
AcDbLine
 10
166.040306
 20
112.580460
 30
0.0
 11
164.992302
 21
113.917112
 31
0.0
  0
LINE
  5
2c4
100
AcDbEntity
  8
text
 62
7
100
AcDbLine
 10
164.992302
 20
113.917112
 30
0.0
 11
164.215515
 21
115.460092
 31
0.0
  0
LINE
  5
2c5
100
AcDbEntity
  8
text
 62
7
100
AcDbLine
 10
164.215515
 20
115.460092
 30
0.0
 11
163.743580
 21
117.087832
 31
0.0
  0
LINE
  5
2c6
100
AcDbEntity
  8
text
 62
7
100
AcDbLine
 10
163.743580
 20
117.087832
 30
0.0
 11
163.610153
 21
118.678731
 31
0.0
  0
LINE
  5
2c7
100
AcDbEntity
  8
text
 62
7
100
AcDbLine
 10
163.610153
 20
118.678731
 30
0.0
 11
163.815161
 21
120.232757
 31
0.0
  0
LINE
  5
2c8
100
AcDbEntity
  8
text
 62
7
100
AcDbLine
 10
163.815161
 20
120.232757
 30
0.0
 11
164.358640
 21
121.749927
 31
0.0
  0
LINE
  5
2c9
100
AcDbEntity
  8
text
 62
7
100
AcDbLine
 10
164.358640
 20
121.749927
 30
0.0
 11
165.090728
 21
122.982581
 31
0.0
  0
LINE
  5
2ca
100
AcDbEntity
  8
text
 62
7
100
AcDbLine
 10
165.090728
 20
122.982581
 30
0.0
 11
166.016804
 21
124.009697
 31
0.0
  0
LINE
  5
2cb
100
AcDbEntity
  8
text
 62
7
100
AcDbLine
 10
166.016804
 20
124.009697
 30
0.0
 11
167.189201
 21
124.858766
 31
0.0
  0
LINE
  5
2cc
100
AcDbEntity
  8
text
 62
7
100
AcDbLine
 10
167.189201
 20
124.858766
 30
0.0
 11
168.660095
 21
125.557157
 31
0.0
  0
LINE
  5
2cd
100
AcDbEntity
  8
text
 62
7
100
AcDbLine
 10
168.660095
 20
125.557157
 30
0.0
 11
167.026354
 21
126.334055
 31
0.0
  0
LINE
  5
2ce
100
AcDbEntity
  8
text
 62
7
100
AcDbLine
 10
167.026354
 20
126.334055
 30
0.0
 11
168.857167
 21
130.183941
 31
0.0
  0
LINE
  5
2cf
100
AcDbEntity
  8
text
 62
7
100
AcDbLine
 10
168.857167
 20
130.183941
 30
0.0
 11
190.280169
 21
119.996265
 31
0.0
  0
LINE
  5
2d0
100
AcDbEntity
  8
text
 62
7
100
AcDbLine
 10
190.280169
 20
119.996265
 30
0.0
 11
188.449356
 21
116.146380
 31
0.0
  0
LINE
  5
2d1
100
AcDbEntity
  8
text
 62
7
100
AcDbLine
 10
177.361620
 20
116.419892
 30
0.0
 11
177.700639
 21
117.334284
 31
0.0
  0
LINE
  5
2d2
100
AcDbEntity
  8
text
 62
7
100
AcDbLine
 10
177.700639
 20
117.334284
 30
0.0
 11
177.846279
 21
118.244875
 31
0.0
  0
LINE
  5
2d3
100
AcDbEntity
  8
text
 62
7
100
AcDbLine
 10
177.846279
 20
118.244875
 30
0.0
 11
177.798474
 21
119.151626
 31
0.0
  0
LINE
  5
2d4
100
AcDbEntity
  8
text
 62
7
100
AcDbLine
 10
177.798474
 20
119.151626
 30
0.0
 11
177.557222
 21
120.054537
 31
0.0
  0
LINE
  5
2d5
100
AcDbEntity
  8
text
 62
7
100
AcDbLine
 10
177.557222
 20
120.054537
 30
0.0
 11
177.135309
 21
120.902828
 31
0.0
  0
LINE
  5
2d6
100
AcDbEntity
  8
text
 62
7
100
AcDbLine
 10
177.135309
 20
120.902828
 30
0.0
 11
176.545855
 21
121.645843
 31
0.0
  0
LINE
  5
2d7
100
AcDbEntity
  8
text
 62
7
100
AcDbLine
 10
176.545855
 20
121.645843
 30
0.0
 11
175.788721
 21
122.283510
 31
0.0
  0
LINE
  5
2d8
100
AcDbEntity
  8
text
 62
7
100
AcDbLine
 10
175.788721
 20
122.283510
 30
0.0
 11
174.863908
 21
122.815827
 31
0.0
  0
LINE
  5
2d9
100
AcDbEntity
  8
text
 62
7
100
AcDbLine
 10
174.863908
 20
122.815827
 30
0.0
 11
173.847339
 21
123.206716
 31
0.0
  0
LINE
  5
2da
100
AcDbEntity
  8
text
 62
7
100
AcDbLine
 10
173.847339
 20
123.206716
 30
0.0
 11
172.857563
 21
123.399806
 31
0.0
  0
LINE
  5
2db
100
AcDbEntity
  8
text
 62
7
100
AcDbLine
 10
172.857563
 20
123.399806
 30
0.0
 11
171.894551
 21
123.395070
 31
0.0
  0
LINE
  5
2dc
100
AcDbEntity
  8
text
 62
7
100
AcDbLine
 10
171.894551
 20
123.395070
 30
0.0
 11
170.958333
 21
123.192537
 31
0.0
  0
LINE
  5
2dd
100
AcDbEntity
  8
text
 62
7
100
AcDbLine
 10
170.958333
 20
123.192537
 30
0.0
 11
170.096364
 21
122.814237
 31
0.0
  0
LINE
  5
2de
100
AcDbEntity
  8
text
 62
7
100
AcDbLine
 10
170.096364
 20
122.814237
 30
0.0
 11
169.356179
 21
122.282223
 31
0.0
  0
LINE
  5
2df
100
AcDbEntity
  8
text
 62
7
100
AcDbLine
 10
169.356179
 20
122.282223
 30
0.0
 11
168.737744
 21
121.596474
 31
0.0
  0
LINE
  5
2e0
100
AcDbEntity
  8
text
 62
7
100
AcDbLine
 10
168.737744
 20
121.596474
 30
0.0
 11
168.241124
 21
120.757034
 31
0.0
  0
LINE
  5
2e1
100
AcDbEntity
  8
text
 62
7
100
AcDbLine
 10
168.241124
 20
120.757034
 30
0.0
 11
167.916370
 21
119.865805
 31
0.0
  0
LINE
  5
2e2
100
AcDbEntity
  8
text
 62
7
100
AcDbLine
 10
167.916370
 20
119.865805
 30
0.0
 11
167.786582
 21
118.967870
 31
0.0
  0
LINE
  5
2e3
100
AcDbEntity
  8
text
 62
7
100
AcDbLine
 10
167.786582
 20
118.967870
 30
0.0
 11
167.851723
 21
118.063218
 31
0.0
  0
LINE
  5
2e4
100
AcDbEntity
  8
text
 62
7
100
AcDbLine
 10
167.851723
 20
118.063218
 30
0.0
 11
168.111827
 21
117.151863
 31
0.0
  0
LINE
  5
2e5
100
AcDbEntity
  8
text
 62
7
100
AcDbLine
 10
168.111827
 20
117.151863
 30
0.0
 11
168.549737
 21
116.291887
 31
0.0
  0
LINE
  5
2e6
100
AcDbEntity
  8
text
 62
7
100
AcDbLine
 10
168.549737
 20
116.291887
 30
0.0
 11
169.148796
 21
115.541596
 31
0.0
  0
LINE
  5
2e7
100
AcDbEntity
  8
text
 62
7
100
AcDbLine
 10
169.148796
 20
115.541596
 30
0.0
 11
169.908867
 21
114.900916
 31
0.0
  0
LINE
  5
2e8
100
AcDbEntity
  8
text
 62
7
100
AcDbLine
 10
169.908867
 20
114.900916
 30
0.0
 11
170.829916
 21
114.369824
 31
0.0
  0
LINE
  5
2e9
100
AcDbEntity
  8
text
 62
7
100
AcDbLine
 10
170.829916
 20
114.369824
 30
0.0
 11
171.814956
 21
113.992824
 31
0.0
  0
LINE
  5
2ea
100
AcDbEntity
  8
text
 62
7
100
AcDbLine
 10
171.814956
 20
113.992824
 30
0.0
 11
172.781309
 21
113.807658
 31
0.0
  0
LINE
  5
2eb
100
AcDbEntity
  8
text
 62
7
100
AcDbLine
 10
172.781309
 20
113.807658
 30
0.0
 11
173.728874
 21
113.814269
 31
0.0
  0
LINE
  5
2ec
100
AcDbEntity
  8
text
 62
7
100
AcDbLine
 10
173.728874
 20
113.814269
 30
0.0
 11
174.657719
 21
114.012693
 31
0.0
  0
LINE
  5
2ed
100
AcDbEntity
  8
text
 62
7
100
AcDbLine
 10
174.657719
 20
114.012693
 30
0.0
 11
175.516302
 21
114.383902
 31
0.0
  0
LINE
  5
2ee
100
AcDbEntity
  8
text
 62
7
100
AcDbLine
 10
175.516302
 20
114.383902
 30
0.0
 11
176.253106
 21
114.908817
 31
0.0
  0
LINE
  5
2ef
100
AcDbEntity
  8
text
 62
7
100
AcDbLine
 10
176.253106
 20
114.908817
 30
0.0
 11
176.868130
 21
115.587439
 31
0.0
  0
LINE
  5
2f0
100
AcDbEntity
  8
text
 62
7
100
AcDbLine
 10
176.868130
 20
115.587439
 30
0.0
 11
177.361377
 21
116.419763
 31
0.0
  0
LINE
  5
2f1
100
AcDbEntity
  8
text
 62
7
100
AcDbLine
 10
177.361377
 20
116.419763
 30
0.0
 11
177.361377
 21
116.419763
 31
0.0
  0
LINE
  5
2f2
100
AcDbEntity
  8
text
 62
7
100
AcDbLine
 10
149.701285
 20
79.450031
 30
0.0
 11
149.907083
 21
83.204081
 31
0.0
  0
LINE
  5
2f3
100
AcDbEntity
  8
text
 62
7
100
AcDbLine
 10
149.907083
 20
83.204081
 30
0.0
 11
150.964987
 21
83.209456
 31
0.0
  0
LINE
  5
2f4
100
AcDbEntity
  8
text
 62
7
100
AcDbLine
 10
150.964987
 20
83.209456
 30
0.0
 11
151.861202
 21
83.339256
 31
0.0
  0
LINE
  5
2f5
100
AcDbEntity
  8
text
 62
7
100
AcDbLine
 10
151.861202
 20
83.339256
 30
0.0
 11
152.595764
 21
83.593500
 31
0.0
  0
LINE
  5
2f6
100
AcDbEntity
  8
text
 62
7
100
AcDbLine
 10
152.595764
 20
83.593500
 30
0.0
 11
153.168671
 21
83.972190
 31
0.0
  0
LINE
  5
2f7
100
AcDbEntity
  8
text
 62
7
100
AcDbLine
 10
153.168671
 20
83.972190
 30
0.0
 11
153.597826
 21
84.459723
 31
0.0
  0
LINE
  5
2f8
100
AcDbEntity
  8
text
 62
7
100
AcDbLine
 10
153.597826
 20
84.459723
 30
0.0
 11
153.807469
 21
84.956475
 31
0.0
  0
LINE
  5
2f9
100
AcDbEntity
  8
text
 62
7
100
AcDbLine
 10
153.807469
 20
84.956475
 30
0.0
 11
153.806278
 21
85.417471
 31
0.0
  0
LINE
  5
2fa
100
AcDbEntity
  8
text
 62
7
100
AcDbLine
 10
153.806278
 20
85.417471
 30
0.0
 11
153.603806
 21
85.798087
 31
0.0
  0
LINE
  5
2fb
100
AcDbEntity
  8
text
 62
7
100
AcDbLine
 10
153.603806
 20
85.798087
 30
0.0
 11
153.333706
 21
86.002279
 31
0.0
  0
LINE
  5
2fc
100
AcDbEntity
  8
text
 62
7
100
AcDbLine
 10
153.333706
 20
86.002279
 30
0.0
 11
152.985342
 21
86.099354
 31
0.0
  0
LINE
  5
2fd
100
AcDbEntity
  8
text
 62
7
100
AcDbLine
 10
152.985342
 20
86.099354
 30
0.0
 11
151.500389
 21
85.835417
 31
0.0
  0
LINE
  5
2fe
100
AcDbEntity
  8
text
 62
7
100
AcDbLine
 10
151.500389
 20
85.835417
 30
0.0
 11
149.803935
 21
85.371408
 31
0.0
  0
LINE
  5
2ff
100
AcDbEntity
  8
text
 62
7
100
AcDbLine
 10
149.803935
 20
85.371408
 30
0.0
 11
147.416139
 21
84.895185
 31
0.0
  0
LINE
  5
300
100
AcDbEntity
  8
text
 62
7
100
AcDbLine
 10
147.416139
 20
84.895185
 30
0.0
 11
146.433791
 21
84.858516
 31
0.0
  0
LINE
  5
301
100
AcDbEntity
  8
text
 62
7
100
AcDbLine
 10
146.433791
 20
84.858516
 30
0.0
 11
145.592514
 21
84.956155
 31
0.0
  0
LINE
  5
302
100
AcDbEntity
  8
text
 62
7
100
AcDbLine
 10
145.592514
 20
84.956155
 30
0.0
 11
144.846560
 21
85.180160
 31
0.0
  0
LINE
  5
303
100
AcDbEntity
  8
text
 62
7
100
AcDbLine
 10
144.846560
 20
85.180160
 30
0.0
 11
144.150305
 21
85.522607
 31
0.0
  0
LINE
  5
304
100
AcDbEntity
  8
text
 62
7
100
AcDbLine
 10
144.150305
 20
85.522607
 30
0.0
 11
143.503679
 21
85.983459
 31
0.0
  0
LINE
  5
305
100
AcDbEntity
  8
text
 62
7
100
AcDbLine
 10
143.503679
 20
85.983459
 30
0.0
 11
142.906717
 21
86.562736
 31
0.0
  0
LINE
  5
306
100
AcDbEntity
  8
text
 62
7
100
AcDbLine
 10
142.906717
 20
86.562736
 30
0.0
 11
142.255101
 21
87.446845
 31
0.0
  0
LINE
  5
307
100
AcDbEntity
  8
text
 62
7
100
AcDbLine
 10
142.255101
 20
87.446845
 30
0.0
 11
141.822444
 21
88.400414
 31
0.0
  0
LINE
  5
308
100
AcDbEntity
  8
text
 62
7
100
AcDbLine
 10
141.822444
 20
88.400414
 30
0.0
 11
141.608748
 21
89.423442
 31
0.0
  0
LINE
  5
309
100
AcDbEntity
  8
text
 62
7
100
AcDbLine
 10
141.608748
 20
89.423442
 30
0.0
 11
141.613975
 21
90.515916
 31
0.0
  0
LINE
  5
30a
100
AcDbEntity
  8
text
 62
7
100
AcDbLine
 10
141.613975
 20
90.515916
 30
0.0
 11
141.845414
 21
91.619670
 31
0.0
  0
LINE
  5
30b
100
AcDbEntity
  8
text
 62
7
100
AcDbLine
 10
141.845414
 20
91.619670
 30
0.0
 11
142.310287
 21
92.676499
 31
0.0
  0
LINE
  5
30c
100
AcDbEntity
  8
text
 62
7
100
AcDbLine
 10
142.310287
 20
92.676499
 30
0.0
 11
143.008633
 21
93.686414
 31
0.0
  0
LINE
  5
30d
100
AcDbEntity
  8
text
 62
7
100
AcDbLine
 10
143.008633
 20
93.686414
 30
0.0
 11
143.940445
 21
94.649425
 31
0.0
  0
LINE
  5
30e
100
AcDbEntity
  8
text
 62
7
100
AcDbLine
 10
143.940445
 20
94.649425
 30
0.0
 11
145.386360
 21
95.699493
 31
0.0
  0
LINE
  5
30f
100
AcDbEntity
  8
text
 62
7
100
AcDbLine
 10
145.386360
 20
95.699493
 30
0.0
 11
146.935717
 21
96.351180
 31
0.0
  0
LINE
  5
310
100
AcDbEntity
  8
text
 62
7
100
AcDbLine
 10
146.935717
 20
96.351180
 30
0.0
 11
148.588585
 21
96.604522
 31
0.0
  0
LINE
  5
311
100
AcDbEntity
  8
text
 62
7
100
AcDbLine
 10
148.588585
 20
96.604522
 30
0.0
 11
150.344930
 21
96.459496
 31
0.0
  0
LINE
  5
312
100
AcDbEntity
  8
text
 62
7
100
AcDbLine
 10
150.344930
 20
96.459496
 30
0.0
 11
150.297841
 21
92.551938
 31
0.0
  0
LINE
  5
313
100
AcDbEntity
  8
text
 62
7
100
AcDbLine
 10
150.297841
 20
92.551938
 30
0.0
 11
149.155708
 21
92.597838
 31
0.0
  0
LINE
  5
314
100
AcDbEntity
  8
text
 62
7
100
AcDbLine
 10
149.155708
 20
92.597838
 30
0.0
 11
148.029769
 21
92.431180
 31
0.0
  0
LINE
  5
315
100
AcDbEntity
  8
text
 62
7
100
AcDbLine
 10
148.029769
 20
92.431180
 30
0.0
 11
147.044986
 21
92.095286
 31
0.0
  0
LINE
  5
316
100
AcDbEntity
  8
text
 62
7
100
AcDbLine
 10
147.044986
 20
92.095286
 30
0.0
 11
146.326191
 21
91.633383
 31
0.0
  0
LINE
  5
317
100
AcDbEntity
  8
text
 62
7
100
AcDbLine
 10
146.326191
 20
91.633383
 30
0.0
 11
145.823284
 21
91.045462
 31
0.0
  0
LINE
  5
318
100
AcDbEntity
  8
text
 62
7
100
AcDbLine
 10
145.823284
 20
91.045462
 30
0.0
 11
145.579865
 21
90.415460
 31
0.0
  0
LINE
  5
319
100
AcDbEntity
  8
text
 62
7
100
AcDbLine
 10
145.579865
 20
90.415460
 30
0.0
 11
145.583848
 21
89.827612
 31
0.0
  0
LINE
  5
31a
100
AcDbEntity
  8
text
 62
7
100
AcDbLine
 10
145.583848
 20
89.827612
 30
0.0
 11
145.823127
 21
89.366105
 31
0.0
  0
LINE
  5
31b
100
AcDbEntity
  8
text
 62
7
100
AcDbLine
 10
145.823127
 20
89.366105
 30
0.0
 11
146.238962
 21
89.077338
 31
0.0
  0
LINE
  5
31c
100
AcDbEntity
  8
text
 62
7
100
AcDbLine
 10
146.238962
 20
89.077338
 30
0.0
 11
146.825160
 21
88.949136
 31
0.0
  0
LINE
  5
31d
100
AcDbEntity
  8
text
 62
7
100
AcDbLine
 10
146.825160
 20
88.949136
 30
0.0
 11
147.581655
 21
88.981456
 31
0.0
  0
LINE
  5
31e
100
AcDbEntity
  8
text
 62
7
100
AcDbLine
 10
147.581655
 20
88.981456
 30
0.0
 11
148.508514
 21
89.174338
 31
0.0
  0
LINE
  5
31f
100
AcDbEntity
  8
text
 62
7
100
AcDbLine
 10
148.508514
 20
89.174338
 30
0.0
 11
150.069242
 21
89.601221
 31
0.0
  0
LINE
  5
320
100
AcDbEntity
  8
text
 62
7
100
AcDbLine
 10
150.069242
 20
89.601221
 30
0.0
 11
152.164452
 21
89.985586
 31
0.0
  0
LINE
  5
321
100
AcDbEntity
  8
text
 62
7
100
AcDbLine
 10
152.164452
 20
89.985586
 30
0.0
 11
153.960946
 21
89.925389
 31
0.0
  0
LINE
  5
322
100
AcDbEntity
  8
text
 62
7
100
AcDbLine
 10
153.960946
 20
89.925389
 30
0.0
 11
154.747200
 21
89.728593
 31
0.0
  0
LINE
  5
323
100
AcDbEntity
  8
text
 62
7
100
AcDbLine
 10
154.747200
 20
89.728593
 30
0.0
 11
155.458758
 21
89.420647
 31
0.0
  0
LINE
  5
324
100
AcDbEntity
  8
text
 62
7
100
AcDbLine
 10
155.458758
 20
89.420647
 30
0.0
 11
156.095655
 21
89.001568
 31
0.0
  0
LINE
  5
325
100
AcDbEntity
  8
text
 62
7
100
AcDbLine
 10
156.095655
 20
89.001568
 30
0.0
 11
156.657889
 21
88.471361
 31
0.0
  0
LINE
  5
326
100
AcDbEntity
  8
text
 62
7
100
AcDbLine
 10
156.657889
 20
88.471361
 30
0.0
 11
157.237543
 21
87.677900
 31
0.0
  0
LINE
  5
327
100
AcDbEntity
  8
text
 62
7
100
AcDbLine
 10
157.237543
 20
87.677900
 30
0.0
 11
157.622257
 21
86.808771
 31
0.0
  0
LINE
  5
328
100
AcDbEntity
  8
text
 62
7
100
AcDbLine
 10
157.622257
 20
86.808771
 30
0.0
 11
157.812067
 21
85.863993
 31
0.0
  0
LINE
  5
329
100
AcDbEntity
  8
text
 62
7
100
AcDbLine
 10
157.812067
 20
85.863993
 30
0.0
 11
157.806970
 21
84.843568
 31
0.0
  0
LINE
  5
32a
100
AcDbEntity
  8
text
 62
7
100
AcDbLine
 10
157.806970
 20
84.843568
 30
0.0
 11
157.603702
 21
83.815900
 31
0.0
  0
LINE
  5
32b
100
AcDbEntity
  8
text
 62
7
100
AcDbLine
 10
157.603702
 20
83.815900
 30
0.0
 11
157.199119
 21
82.849412
 31
0.0
  0
LINE
  5
32c
100
AcDbEntity
  8
text
 62
7
100
AcDbLine
 10
157.199119
 20
82.849412
 30
0.0
 11
156.593191
 21
81.944079
 31
0.0
  0
LINE
  5
32d
100
AcDbEntity
  8
text
 62
7
100
AcDbLine
 10
156.593191
 20
81.944079
 30
0.0
 11
155.785915
 21
81.099908
 31
0.0
  0
LINE
  5
32e
100
AcDbEntity
  8
text
 62
7
100
AcDbLine
 10
155.785915
 20
81.099908
 30
0.0
 11
154.458620
 21
80.156146
 31
0.0
  0
LINE
  5
32f
100
AcDbEntity
  8
text
 62
7
100
AcDbLine
 10
154.458620
 20
80.156146
 30
0.0
 11
152.960512
 21
79.550368
 31
0.0
  0
LINE
  5
330
100
AcDbEntity
  8
text
 62
7
100
AcDbLine
 10
152.960512
 20
79.550368
 30
0.0
 11
151.354125
 21
79.307018
 31
0.0
  0
LINE
  5
331
100
AcDbEntity
  8
text
 62
7
100
AcDbLine
 10
151.354125
 20
79.307018
 30
0.0
 11
149.702151
 21
79.450492
 31
0.0
  0
LINE
  5
332
100
AcDbEntity
  8
text
 62
7
100
AcDbLine
 10
149.702151
 20
79.450492
 30
0.0
 11
149.702151
 21
79.450492
 31
0.0
  0
LINE
  5
333
100
AcDbEntity
  8
border
 62
7
100
AcDbLine
 10
105.747222
 20
264.530339
 30
0.0
 11
91.142222
 21
263.569020
 31
0.0
  0
LINE
  5
334
100
AcDbEntity
  8
border
 62
7
100
AcDbLine
 10
91.142222
 20
263.569020
 30
0.0
 11
85.674166
 21
240.047561
 31
0.0
  0
LINE
  5
335
100
AcDbEntity
  8
border
 62
7
100
AcDbLine
 10
85.674166
 20
240.047561
 30
0.0
 11
81.958070
 21
239.032890
 31
0.0
  0
LINE
  5
336
100
AcDbEntity
  8
border
 62
7
100
AcDbLine
 10
81.958070
 20
239.032890
 30
0.0
 11
78.288134
 21
237.880295
 31
0.0
  0
LINE
  5
337
100
AcDbEntity
  8
border
 62
7
100
AcDbLine
 10
78.288134
 20
237.880295
 30
0.0
 11
74.664372
 21
236.589839
 31
0.0
  0
LINE
  5
338
100
AcDbEntity
  8
border
 62
7
100
AcDbLine
 10
74.664372
 20
236.589839
 30
0.0
 11
71.086805
 21
235.161589
 31
0.0
  0
LINE
  5
339
100
AcDbEntity
  8
border
 62
7
100
AcDbLine
 10
71.086805
 20
235.161589
 30
0.0
 11
52.539513
 21
250.613256
 31
0.0
  0
LINE
  5
33a
100
AcDbEntity
  8
border
 62
7
100
AcDbLine
 10
52.539513
 20
250.613256
 30
0.0
 11
39.927708
 21
242.314158
 31
0.0
  0
LINE
  5
33b
100
AcDbEntity
  8
border
 62
7
100
AcDbLine
 10
39.927708
 20
242.314158
 30
0.0
 11
46.789236
 21
219.189575
 31
0.0
  0
LINE
  5
33c
100
AcDbEntity
  8
border
 62
7
100
AcDbLine
 10
46.789236
 20
219.189575
 30
0.0
 11
43.878810
 21
216.254439
 31
0.0
  0
LINE
  5
33d
100
AcDbEntity
  8
border
 62
7
100
AcDbLine
 10
43.878810
 20
216.254439
 30
0.0
 11
41.043866
 21
213.252006
 31
0.0
  0
LINE
  5
33e
100
AcDbEntity
  8
border
 62
7
100
AcDbLine
 10
41.043866
 20
213.252006
 30
0.0
 11
38.351988
 21
210.129350
 31
0.0
  0
LINE
  5
33f
100
AcDbEntity
  8
border
 62
7
100
AcDbLine
 10
38.351988
 20
210.129350
 30
0.0
 11
35.870763
 21
206.833533
 31
0.0
  0
LINE
  5
340
100
AcDbEntity
  8
border
 62
7
100
AcDbLine
 10
35.870763
 20
206.833533
 30
0.0
 11
12.031805
 21
210.819922
 31
0.0
  0
LINE
  5
341
100
AcDbEntity
  8
border
 62
7
100
AcDbLine
 10
12.031805
 20
210.819922
 30
0.0
 11
5.373124
 21
197.334992
 31
0.0
  0
LINE
  5
342
100
AcDbEntity
  8
border
 62
7
100
AcDbLine
 10
5.373124
 20
197.334992
 30
0.0
 11
22.914999
 21
180.789714
 31
0.0
  0
LINE
  5
343
100
AcDbEntity
  8
border
 62
7
100
AcDbLine
 10
22.914999
 20
180.789714
 30
0.0
 11
21.832011
 21
176.828993
 31
0.0
  0
LINE
  5
344
100
AcDbEntity
  8
border
 62
7
100
AcDbLine
 10
21.832011
 20
176.828993
 30
0.0
 11
20.929919
 21
172.825837
 31
0.0
  0
LINE
  5
345
100
AcDbEntity
  8
border
 62
7
100
AcDbLine
 10
20.929919
 20
172.825837
 30
0.0
 11
20.220003
 21
168.785160
 31
0.0
  0
LINE
  5
346
100
AcDbEntity
  8
border
 62
7
100
AcDbLine
 10
20.220003
 20
168.785160
 30
0.0
 11
19.713541
 21
164.711867
 31
0.0
  0
LINE
  5
347
100
AcDbEntity
  8
border
 62
7
100
AcDbLine
 10
19.713541
 20
164.711867
 30
0.0
 11
-2.855417
 21
156.192283
 31
0.0
  0
LINE
  5
348
100
AcDbEntity
  8
border
 62
7
100
AcDbLine
 10
-2.855417
 20
156.192283
 30
0.0
 11
-1.867639
 21
141.181589
 31
0.0
  0
LINE
  5
349
100
AcDbEntity
  8
border
 62
7
100
AcDbLine
 10
-1.867639
 20
141.181589
 30
0.0
 11
21.653819
 21
135.713533
 31
0.0
  0
LINE
  5
34a
100
AcDbEntity
  8
border
 62
7
100
AcDbLine
 10
21.653819
 20
135.713533
 30
0.0
 11
22.115783
 21
133.844404
 31
0.0
  0
LINE
  5
34b
100
AcDbEntity
  8
border
 62
7
100
AcDbLine
 10
22.115783
 20
133.844404
 30
0.0
 11
22.656597
 21
131.999489
 31
0.0
  0
LINE
  5
34c
100
AcDbEntity
  8
border
 62
7
100
AcDbLine
 10
22.656597
 20
131.999489
 30
0.0
 11
23.902083
 21
128.360008
 31
0.0
  0
LINE
  5
34d
100
AcDbEntity
  8
border
 62
7
100
AcDbLine
 10
23.902083
 20
128.360008
 30
0.0
 11
25.244933
 21
124.750470
 31
0.0
  0
LINE
  5
34e
100
AcDbEntity
  8
border
 62
7
100
AcDbLine
 10
25.244933
 20
124.750470
 30
0.0
 11
26.539791
 21
121.126172
 31
0.0
  0
LINE
  5
34f
100
AcDbEntity
  8
border
 62
7
100
AcDbLine
 10
26.539791
 20
121.126172
 30
0.0
 11
11.238055
 21
102.737617
 31
0.0
  0
LINE
  5
350
100
AcDbEntity
  8
border
 62
7
100
AcDbLine
 10
11.238055
 20
102.737617
 30
0.0
 11
11.584615
 21
101.921571
 31
0.0
  0
LINE
  5
351
100
AcDbEntity
  8
border
 62
7
100
AcDbLine
 10
11.584615
 20
101.921571
 30
0.0
 11
12.008714
 21
101.128583
 31
0.0
  0
LINE
  5
352
100
AcDbEntity
  8
border
 62
7
100
AcDbLine
 10
12.008714
 20
101.128583
 30
0.0
 11
13.010459
 21
99.588327
 31
0.0
  0
LINE
  5
353
100
AcDbEntity
  8
border
 62
7
100
AcDbLine
 10
13.010459
 20
99.588327
 30
0.0
 11
14.085172
 21
98.069774
 31
0.0
  0
LINE
  5
354
100
AcDbEntity
  8
border
 62
7
100
AcDbLine
 10
14.085172
 20
98.069774
 30
0.0
 11
15.074728
 21
96.525793
 31
0.0
  0
LINE
  5
355
100
AcDbEntity
  8
border
 62
7
100
AcDbLine
 10
15.074728
 20
96.525793
 30
0.0
 11
19.396041
 21
89.993533
 31
0.0
  0
LINE
  5
356
100
AcDbEntity
  8
border
 62
7
100
AcDbLine
 10
19.396041
 20
89.993533
 30
0.0
 11
31.256086
 21
93.495093
 31
0.0
  0
LINE
  5
357
100
AcDbEntity
  8
border
 62
7
100
AcDbLine
 10
31.256086
 20
93.495093
 30
0.0
 11
43.076249
 21
97.057894
 31
0.0
  0
LINE
  5
358
100
AcDbEntity
  8
border
 62
7
100
AcDbLine
 10
43.076249
 20
97.057894
 30
0.0
 11
59.242291
 21
112.430200
 31
0.0
  0
LINE
  5
359
100
AcDbEntity
  8
border
 62
7
100
AcDbLine
 10
59.242291
 20
112.430200
 30
0.0
 11
56.395645
 21
115.663451
 31
0.0
  0
LINE
  5
35a
100
AcDbEntity
  8
border
 62
7
100
AcDbLine
 10
56.395645
 20
115.663451
 30
0.0
 11
53.768058
 21
119.077493
 31
0.0
  0
LINE
  5
35b
100
AcDbEntity
  8
border
 62
7
100
AcDbLine
 10
53.768058
 20
119.077493
 30
0.0
 11
51.371760
 21
122.657030
 31
0.0
  0
LINE
  5
35c
100
AcDbEntity
  8
border
 62
7
100
AcDbLine
 10
51.371760
 20
122.657030
 30
0.0
 11
49.218983
 21
126.386851
 31
0.0
  0
LINE
  5
35d
100
AcDbEntity
  8
border
 62
7
100
AcDbLine
 10
49.218983
 20
126.386851
 30
0.0
 11
47.321961
 21
130.251715
 31
0.0
  0
LINE
  5
35e
100
AcDbEntity
  8
border
 62
7
100
AcDbLine
 10
47.321961
 20
130.251715
 30
0.0
 11
45.692921
 21
134.236439
 31
0.0
  0
LINE
  5
35f
100
AcDbEntity
  8
border
 62
7
100
AcDbLine
 10
45.692921
 20
134.236439
 30
0.0
 11
44.344099
 21
138.325726
 31
0.0
  0
LINE
  5
360
100
AcDbEntity
  8
border
 62
7
100
AcDbLine
 10
44.344099
 20
138.325726
 30
0.0
 11
43.287724
 21
142.504393
 31
0.0
  0
LINE
  5
361
100
AcDbEntity
  8
border
 62
7
100
AcDbLine
 10
43.287724
 20
142.504393
 30
0.0
 11
42.634724
 21
145.950778
 31
0.0
  0
LINE
  5
362
100
AcDbEntity
  8
border
 62
7
100
AcDbLine
 10
42.634724
 20
145.950778
 30
0.0
 11
42.176254
 21
149.429773
 31
0.0
  0
LINE
  5
363
100
AcDbEntity
  8
border
 62
7
100
AcDbLine
 10
42.176254
 20
149.429773
 30
0.0
 11
41.912825
 21
152.929879
 31
0.0
  0
LINE
  5
364
100
AcDbEntity
  8
border
 62
7
100
AcDbLine
 10
41.912825
 20
152.929879
 30
0.0
 11
41.844956
 21
156.439629
 31
0.0
  0
LINE
  5
365
100
AcDbEntity
  8
border
 62
7
100
AcDbLine
 10
41.844956
 20
156.439629
 30
0.0
 11
41.973161
 21
159.947538
 31
0.0
  0
LINE
  5
366
100
AcDbEntity
  8
border
 62
7
100
AcDbLine
 10
41.973161
 20
159.947538
 30
0.0
 11
42.297951
 21
163.442135
 31
0.0
  0
LINE
  5
367
100
AcDbEntity
  8
border
 62
7
100
AcDbLine
 10
42.297951
 20
163.442135
 30
0.0
 11
42.819845
 21
166.911939
 31
0.0
  0
LINE
  5
368
100
AcDbEntity
  8
border
 62
7
100
AcDbLine
 10
42.819845
 20
166.911939
 30
0.0
 11
43.539356
 21
170.345471
 31
0.0
  0
LINE
  5
369
100
AcDbEntity
  8
border
 62
7
100
AcDbLine
 10
43.539356
 20
170.345471
 30
0.0
 11
44.667475
 21
174.495597
 31
0.0
  0
LINE
  5
36a
100
AcDbEntity
  8
border
 62
7
100
AcDbLine
 10
44.667475
 20
174.495597
 30
0.0
 11
46.082498
 21
178.555166
 31
0.0
  0
LINE
  5
36b
100
AcDbEntity
  8
border
 62
7
100
AcDbLine
 10
46.082498
 20
178.555166
 30
0.0
 11
47.773632
 21
182.507493
 31
0.0
  0
LINE
  5
36c
100
AcDbEntity
  8
border
 62
7
100
AcDbLine
 10
47.773632
 20
182.507493
 30
0.0
 11
49.730079
 21
186.335889
 31
0.0
  0
LINE
  5
36d
100
AcDbEntity
  8
border
 62
7
100
AcDbLine
 10
49.730079
 20
186.335889
 30
0.0
 11
51.941041
 21
190.023667
 31
0.0
  0
LINE
  5
36e
100
AcDbEntity
  8
border
 62
7
100
AcDbLine
 10
51.941041
 20
190.023667
 30
0.0
 11
54.395726
 21
193.554142
 31
0.0
  0
LINE
  5
36f
100
AcDbEntity
  8
border
 62
7
100
AcDbLine
 10
54.395726
 20
193.554142
 30
0.0
 11
57.083336
 21
196.910628
 31
0.0
  0
LINE
  5
370
100
AcDbEntity
  8
border
 62
7
100
AcDbLine
 10
57.083336
 20
196.910628
 30
0.0
 11
59.993076
 21
200.076439
 31
0.0
  0
LINE
  5
371
100
AcDbEntity
  8
border
 62
7
100
AcDbLine
 10
59.993076
 20
200.076439
 30
0.0
 11
62.853753
 21
202.803448
 31
0.0
  0
LINE
  5
372
100
AcDbEntity
  8
border
 62
7
100
AcDbLine
 10
62.853753
 20
202.803448
 30
0.0
 11
65.878253
 21
205.346129
 31
0.0
  0
LINE
  5
373
100
AcDbEntity
  8
border
 62
7
100
AcDbLine
 10
65.878253
 20
205.346129
 30
0.0
 11
69.053696
 21
207.697438
 31
0.0
  0
LINE
  5
374
100
AcDbEntity
  8
border
 62
7
100
AcDbLine
 10
69.053696
 20
207.697438
 30
0.0
 11
72.367196
 21
209.850328
 31
0.0
  0
LINE
  5
375
100
AcDbEntity
  8
border
 62
7
100
AcDbLine
 10
72.367196
 20
209.850328
 30
0.0
 11
75.805877
 21
211.797757
 31
0.0
  0
LINE
  5
376
100
AcDbEntity
  8
border
 62
7
100
AcDbLine
 10
75.805877
 20
211.797757
 30
0.0
 11
79.356856
 21
213.532679
 31
0.0
  0
LINE
  5
377
100
AcDbEntity
  8
border
 62
7
100
AcDbLine
 10
79.356856
 20
213.532679
 30
0.0
 11
83.007251
 21
215.048049
 31
0.0
  0
LINE
  5
378
100
AcDbEntity
  8
border
 62
7
100
AcDbLine
 10
83.007251
 20
215.048049
 30
0.0
 11
86.744178
 21
216.336825
 31
0.0
  0
LINE
  5
379
100
AcDbEntity
  8
border
 62
7
100
AcDbLine
 10
86.744178
 20
216.336825
 30
0.0
 11
90.524796
 21
217.373478
 31
0.0
  0
LINE
  5
37a
100
AcDbEntity
  8
border
 62
7
100
AcDbLine
 10
90.524796
 20
217.373478
 30
0.0
 11
94.361212
 21
218.178062
 31
0.0
  0
LINE
  5
37b
100
AcDbEntity
  8
border
 62
7
100
AcDbLine
 10
94.361212
 20
218.178062
 30
0.0
 11
98.239289
 21
218.749732
 31
0.0
  0
LINE
  5
37c
100
AcDbEntity
  8
border
 62
7
100
AcDbLine
 10
98.239289
 20
218.749732
 30
0.0
 11
102.144884
 21
219.087642
 31
0.0
  0
LINE
  5
37d
100
AcDbEntity
  8
border
 62
7
100
AcDbLine
 10
102.144884
 20
219.087642
 30
0.0
 11
106.063858
 21
219.190952
 31
0.0
  0
LINE
  5
37e
100
AcDbEntity
  8
border
 62
7
100
AcDbLine
 10
106.063858
 20
219.190952
 30
0.0
 11
109.982073
 21
219.058819
 31
0.0
  0
LINE
  5
37f
100
AcDbEntity
  8
border
 62
7
100
AcDbLine
 10
109.982073
 20
219.058819
 30
0.0
 11
113.885393
 21
218.690395
 31
0.0
  0
LINE
  5
380
100
AcDbEntity
  8
border
 62
7
100
AcDbLine
 10
113.885393
 20
218.690395
 30
0.0
 11
117.759672
 21
218.084839
 31
0.0
  0
LINE
  5
381
100
AcDbEntity
  8
border
 62
7
100
AcDbLine
 10
117.759672
 20
218.084839
 30
0.0
 11
121.623461
 21
217.242262
 31
0.0
  0
LINE
  5
382
100
AcDbEntity
  8
border
 62
7
100
AcDbLine
 10
121.623461
 20
217.242262
 30
0.0
 11
125.424472
 21
216.155951
 31
0.0
  0
LINE
  5
383
100
AcDbEntity
  8
border
 62
7
100
AcDbLine
 10
125.424472
 20
216.155951
 30
0.0
 11
129.150099
 21
214.834054
 31
0.0
  0
LINE
  5
384
100
AcDbEntity
  8
border
 62
7
100
AcDbLine
 10
129.150099
 20
214.834054
 30
0.0
 11
132.787746
 21
213.284707
 31
0.0
  0
LINE
  5
385
100
AcDbEntity
  8
border
 62
7
100
AcDbLine
 10
132.787746
 20
213.284707
 30
0.0
 11
136.324808
 21
211.516052
 31
0.0
  0
LINE
  5
386
100
AcDbEntity
  8
border
 62
7
100
AcDbLine
 10
136.324808
 20
211.516052
 30
0.0
 11
139.748686
 21
209.536229
 31
0.0
  0
LINE
  5
387
100
AcDbEntity
  8
border
 62
7
100
AcDbLine
 10
139.748686
 20
209.536229
 30
0.0
 11
143.046775
 21
207.353378
 31
0.0
  0
LINE
  5
388
100
AcDbEntity
  8
border
 62
7
100
AcDbLine
 10
143.046775
 20
207.353378
 30
0.0
 11
146.206475
 21
204.975642
 31
0.0
  0
LINE
  5
389
100
AcDbEntity
  8
border
 62
7
100
AcDbLine
 10
146.206475
 20
204.975642
 30
0.0
 11
149.132911
 21
202.461482
 31
0.0
  0
LINE
  5
38a
100
AcDbEntity
  8
border
 62
7
100
AcDbLine
 10
149.132911
 20
202.461482
 30
0.0
 11
151.897416
 21
199.773369
 31
0.0
  0
LINE
  5
38b
100
AcDbEntity
  8
border
 62
7
100
AcDbLine
 10
151.897416
 20
199.773369
 30
0.0
 11
154.493016
 21
196.922863
 31
0.0
  0
LINE
  5
38c
100
AcDbEntity
  8
border
 62
7
100
AcDbLine
 10
154.493016
 20
196.922863
 30
0.0
 11
156.912736
 21
193.921511
 31
0.0
  0
LINE
  5
38d
100
AcDbEntity
  8
border
 62
7
100
AcDbLine
 10
156.912736
 20
193.921511
 30
0.0
 11
159.149598
 21
190.780872
 31
0.0
  0
LINE
  5
38e
100
AcDbEntity
  8
border
 62
7
100
AcDbLine
 10
159.149598
 20
190.780872
 30
0.0
 11
161.196632
 21
187.512496
 31
0.0
  0
LINE
  5
38f
100
AcDbEntity
  8
border
 62
7
100
AcDbLine
 10
161.196632
 20
187.512496
 30
0.0
 11
163.046856
 21
184.127934
 31
0.0
  0
LINE
  5
390
100
AcDbEntity
  8
border
 62
7
100
AcDbLine
 10
163.046856
 20
184.127934
 30
0.0
 11
164.693301
 21
180.638745
 31
0.0
  0
LINE
  5
391
100
AcDbEntity
  8
border
 62
7
100
AcDbLine
 10
164.693301
 20
180.638745
 30
0.0
 11
165.868525
 21
177.673701
 31
0.0
  0
LINE
  5
392
100
AcDbEntity
  8
border
 62
7
100
AcDbLine
 10
165.868525
 20
177.673701
 30
0.0
 11
166.888273
 21
174.654553
 31
0.0
  0
LINE
  5
393
100
AcDbEntity
  8
border
 62
7
100
AcDbLine
 10
166.888273
 20
174.654553
 30
0.0
 11
167.753106
 21
171.588728
 31
0.0
  0
LINE
  5
394
100
AcDbEntity
  8
border
 62
7
100
AcDbLine
 10
167.753106
 20
171.588728
 30
0.0
 11
168.463581
 21
168.483651
 31
0.0
  0
LINE
  5
395
100
AcDbEntity
  8
border
 62
7
100
AcDbLine
 10
168.463581
 20
168.483651
 30
0.0
 11
169.020253
 21
165.346745
 31
0.0
  0
LINE
  5
396
100
AcDbEntity
  8
border
 62
7
100
AcDbLine
 10
169.020253
 20
165.346745
 30
0.0
 11
169.423681
 21
162.185439
 31
0.0
  0
LINE
  5
397
100
AcDbEntity
  8
border
 62
7
100
AcDbLine
 10
169.423681
 20
162.185439
 30
0.0
 11
169.674421
 21
159.007151
 31
0.0
  0
LINE
  5
398
100
AcDbEntity
  8
border
 62
7
100
AcDbLine
 10
169.674421
 20
159.007151
 30
0.0
 11
169.773030
 21
155.819313
 31
0.0
  0
LINE
  5
399
100
AcDbEntity
  8
border
 62
7
100
AcDbLine
 10
169.773030
 20
155.819313
 30
0.0
 11
169.668884
 21
152.683951
 31
0.0
  0
LINE
  5
39a
100
AcDbEntity
  8
border
 62
7
100
AcDbLine
 10
169.668884
 20
152.683951
 30
0.0
 11
169.418198
 21
149.558088
 31
0.0
  0
LINE
  5
39b
100
AcDbEntity
  8
border
 62
7
100
AcDbLine
 10
169.418198
 20
149.558088
 30
0.0
 11
169.020287
 21
146.448702
 31
0.0
  0
LINE
  5
39c
100
AcDbEntity
  8
border
 62
7
100
AcDbLine
 10
169.020287
 20
146.448702
 30
0.0
 11
168.474472
 21
143.362715
 31
0.0
  0
LINE
  5
39d
100
AcDbEntity
  8
border
 62
7
100
AcDbLine
 10
168.474472
 20
143.362715
 30
0.0
 11
167.780075
 21
140.307095
 31
0.0
  0
LINE
  5
39e
100
AcDbEntity
  8
border
 62
7
100
AcDbLine
 10
167.780075
 20
140.307095
 30
0.0
 11
166.936409
 21
137.288841
 31
0.0
  0
LINE
  5
39f
100
AcDbEntity
  8
border
 62
7
100
AcDbLine
 10
166.936409
 20
137.288841
 30
0.0
 11
165.942795
 21
134.314840
 31
0.0
  0
LINE
  5
3a0
100
AcDbEntity
  8
border
 62
7
100
AcDbLine
 10
165.942795
 20
134.314840
 30
0.0
 11
164.798553
 21
131.392119
 31
0.0
  0
LINE
  5
3a1
100
AcDbEntity
  8
border
 62
7
100
AcDbLine
 10
164.798553
 20
131.392119
 30
0.0
 11
163.200080
 21
127.939243
 31
0.0
  0
LINE
  5
3a2
100
AcDbEntity
  8
border
 62
7
100
AcDbLine
 10
163.200080
 20
127.939243
 30
0.0
 11
161.396720
 21
124.591269
 31
0.0
  0
LINE
  5
3a3
100
AcDbEntity
  8
border
 62
7
100
AcDbLine
 10
161.396720
 20
124.591269
 30
0.0
 11
159.396952
 21
121.357933
 31
0.0
  0
LINE
  5
3a4
100
AcDbEntity
  8
border
 62
7
100
AcDbLine
 10
159.396952
 20
121.357933
 30
0.0
 11
157.209261
 21
118.248889
 31
0.0
  0
LINE
  5
3a5
100
AcDbEntity
  8
border
 62
7
100
AcDbLine
 10
157.209261
 20
118.248889
 30
0.0
 11
154.842134
 21
115.273815
 31
0.0
  0
LINE
  5
3a6
100
AcDbEntity
  8
border
 62
7
100
AcDbLine
 10
154.842134
 20
115.273815
 30
0.0
 11
152.304050
 21
112.442420
 31
0.0
  0
LINE
  5
3a7
100
AcDbEntity
  8
border
 62
7
100
AcDbLine
 10
152.304050
 20
112.442420
 30
0.0
 11
149.603494
 21
109.764414
 31
0.0
  0
LINE
  5
3a8
100
AcDbEntity
  8
border
 62
7
100
AcDbLine
 10
149.603494
 20
109.764414
 30
0.0
 11
146.748949
 21
107.249419
 31
0.0
  0
LINE
  5
3a9
100
AcDbEntity
  8
border
 62
7
100
AcDbLine
 10
146.748949
 20
107.249419
 30
0.0
 11
143.671993
 21
104.866645
 31
0.0
  0
LINE
  5
3aa
100
AcDbEntity
  8
border
 62
7
100
AcDbLine
 10
143.671993
 20
104.866645
 30
0.0
 11
140.456107
 21
102.678322
 31
0.0
  0
LINE
  5
3ab
100
AcDbEntity
  8
border
 62
7
100
AcDbLine
 10
140.456107
 20
102.678322
 30
0.0
 11
137.114057
 21
100.689361
 31
0.0
  0
LINE
  5
3ac
100
AcDbEntity
  8
border
 62
7
100
AcDbLine
 10
137.114057
 20
100.689361
 30
0.0
 11
133.658618
 21
98.904559
 31
0.0
  0
LINE
  5
3ad
100
AcDbEntity
  8
border
 62
7
100
AcDbLine
 10
133.658618
 20
98.904559
 30
0.0
 11
130.102554
 21
97.328799
 31
0.0
  0
LINE
  5
3ae
100
AcDbEntity
  8
border
 62
7
100
AcDbLine
 10
130.102554
 20
97.328799
 30
0.0
 11
126.458636
 21
95.966908
 31
0.0
  0
LINE
  5
3af
100
AcDbEntity
  8
border
 62
7
100
AcDbLine
 10
126.458636
 20
95.966908
 30
0.0
 11
122.739633
 21
94.823739
 31
0.0
  0
LINE
  5
3b0
100
AcDbEntity
  8
border
 62
7
100
AcDbLine
 10
122.739633
 20
94.823739
 30
0.0
 11
118.958312
 21
93.904174
 31
0.0
  0
LINE
  5
3b1
100
AcDbEntity
  8
border
 62
7
100
AcDbLine
 10
118.958312
 20
93.904174
 30
0.0
 11
116.571832
 21
93.473136
 31
0.0
  0
LINE
  5
3b2
100
AcDbEntity
  8
border
 62
7
100
AcDbLine
 10
116.571832
 20
93.473136
 30
0.0
 11
114.172340
 21
93.128740
 31
0.0
  0
LINE
  5
3b3
100
AcDbEntity
  8
border
 62
7
100
AcDbLine
 10
114.172340
 20
93.128740
 30
0.0
 11
111.762523
 21
92.869801
 31
0.0
  0
LINE
  5
3b4
100
AcDbEntity
  8
border
 62
7
100
AcDbLine
 10
111.762523
 20
92.869801
 30
0.0
 11
109.345081
 21
92.695162
 31
0.0
  0
LINE
  5
3b5
100
AcDbEntity
  8
border
 62
7
100
AcDbLine
 10
109.345081
 20
92.695162
 30
0.0
 11
104.498109
 21
92.593985
 31
0.0
  0
LINE
  5
3b6
100
AcDbEntity
  8
border
 62
7
100
AcDbLine
 10
104.498109
 20
92.593985
 30
0.0
 11
99.652986
 21
92.815756
 31
0.0
  0
LINE
  5
3b7
100
AcDbEntity
  8
border
 62
7
100
AcDbLine
 10
99.652986
 20
92.815756
 30
0.0
 11
98.212916
 21
81.431052
 31
0.0
  0
LINE
  5
3b8
100
AcDbEntity
  8
border
 62
7
100
AcDbLine
 10
98.212916
 20
81.431052
 30
0.0
 11
96.866041
 21
70.052784
 31
0.0
  0
LINE
  5
3b9
100
AcDbEntity
  8
border
 62
7
100
AcDbLine
 10
96.866041
 20
70.052784
 30
0.0
 11
105.509097
 21
47.183950
 31
0.0
  0
LINE
  5
3ba
100
AcDbEntity
  8
border
 62
7
100
AcDbLine
 10
105.509097
 20
47.183950
 30
0.0
 11
120.519791
 21
48.171728
 31
0.0
  0
LINE
  5
3bb
100
AcDbEntity
  8
border
 62
7
100
AcDbLine
 10
120.519791
 20
48.171728
 30
0.0
 11
125.987847
 21
71.693172
 31
0.0
  0
LINE
  5
3bc
100
AcDbEntity
  8
border
 62
7
100
AcDbLine
 10
125.987847
 20
71.693172
 30
0.0
 11
129.704251
 21
72.713377
 31
0.0
  0
LINE
  5
3bd
100
AcDbEntity
  8
border
 62
7
100
AcDbLine
 10
129.704251
 20
72.713377
 30
0.0
 11
133.375744
 21
73.867892
 31
0.0
  0
LINE
  5
3be
100
AcDbEntity
  8
border
 62
7
100
AcDbLine
 10
133.375744
 20
73.867892
 30
0.0
 11
137.002331
 21
75.156519
 31
0.0
  0
LINE
  5
3bf
100
AcDbEntity
  8
border
 62
7
100
AcDbLine
 10
137.002331
 20
75.156519
 30
0.0
 11
140.584027
 21
76.579173
 31
0.0
  0
LINE
  5
3c0
100
AcDbEntity
  8
border
 62
7
100
AcDbLine
 10
140.584027
 20
76.579173
 30
0.0
 11
159.131319
 21
61.127506
 31
0.0
  0
LINE
  5
3c1
100
AcDbEntity
  8
border
 62
7
100
AcDbLine
 10
159.131319
 20
61.127506
 30
0.0
 11
171.743124
 21
69.426589
 31
0.0
  0
LINE
  5
3c2
100
AcDbEntity
  8
border
 62
7
100
AcDbLine
 10
171.743124
 20
69.426589
 30
0.0
 11
164.872777
 21
92.551172
 31
0.0
  0
LINE
  5
3c3
100
AcDbEntity
  8
border
 62
7
100
AcDbLine
 10
164.872777
 20
92.551172
 30
0.0
 11
167.780312
 21
95.476377
 31
0.0
  0
LINE
  5
3c4
100
AcDbEntity
  8
border
 62
7
100
AcDbLine
 10
167.780312
 20
95.476377
 30
0.0
 11
170.588122
 21
98.501292
 31
0.0
  0
LINE
  5
3c5
100
AcDbEntity
  8
border
 62
7
100
AcDbLine
 10
170.588122
 20
98.501292
 30
0.0
 11
173.265674
 21
101.640139
 31
0.0
  0
LINE
  5
3c6
100
AcDbEntity
  8
border
 62
7
100
AcDbLine
 10
173.265674
 20
101.640139
 30
0.0
 11
175.782430
 21
104.907228
 31
0.0
  0
LINE
  5
3c7
100
AcDbEntity
  8
border
 62
7
100
AcDbLine
 10
175.782430
 20
104.907228
 30
0.0
 11
199.630208
 21
100.920839
 31
0.0
  0
LINE
  5
3c8
100
AcDbEntity
  8
border
 62
7
100
AcDbLine
 10
199.630208
 20
100.920839
 30
0.0
 11
206.288888
 21
114.405756
 31
0.0
  0
LINE
  5
3c9
100
AcDbEntity
  8
border
 62
7
100
AcDbLine
 10
206.288888
 20
114.405756
 30
0.0
 11
188.755833
 21
130.951033
 31
0.0
  0
LINE
  5
3ca
100
AcDbEntity
  8
border
 62
7
100
AcDbLine
 10
188.755833
 20
130.951033
 30
0.0
 11
189.850480
 21
134.907479
 31
0.0
  0
LINE
  5
3cb
100
AcDbEntity
  8
border
 62
7
100
AcDbLine
 10
189.850480
 20
134.907479
 30
0.0
 11
190.746947
 21
138.911422
 31
0.0
  0
LINE
  5
3cc
100
AcDbEntity
  8
border
 62
7
100
AcDbLine
 10
190.746947
 20
138.911422
 30
0.0
 11
191.446015
 21
142.954622
 31
0.0
  0
LINE
  5
3cd
100
AcDbEntity
  8
border
 62
7
100
AcDbLine
 10
191.446015
 20
142.954622
 30
0.0
 11
191.948472
 21
147.028895
 31
0.0
  0
LINE
  5
3ce
100
AcDbEntity
  8
border
 62
7
100
AcDbLine
 10
191.948472
 20
147.028895
 30
0.0
 11
214.526249
 21
155.548464
 31
0.0
  0
LINE
  5
3cf
100
AcDbEntity
  8
border
 62
7
100
AcDbLine
 10
214.526249
 20
155.548464
 30
0.0
 11
213.529652
 21
170.559158
 31
0.0
  0
LINE
  5
3d0
100
AcDbEntity
  8
border
 62
7
100
AcDbLine
 10
213.529652
 20
170.559158
 30
0.0
 11
190.025833
 21
176.027214
 31
0.0
  0
LINE
  5
3d1
100
AcDbEntity
  8
border
 62
7
100
AcDbLine
 10
190.025833
 20
176.027214
 30
0.0
 11
189.057802
 21
179.758042
 31
0.0
  0
LINE
  5
3d2
100
AcDbEntity
  8
border
 62
7
100
AcDbLine
 10
189.057802
 20
179.758042
 30
0.0
 11
187.862735
 21
183.418292
 31
0.0
  0
LINE
  5
3d3
100
AcDbEntity
  8
border
 62
7
100
AcDbLine
 10
187.862735
 20
183.418292
 30
0.0
 11
186.523311
 21
187.032046
 31
0.0
  0
LINE
  5
3d4
100
AcDbEntity
  8
border
 62
7
100
AcDbLine
 10
186.523311
 20
187.032046
 30
0.0
 11
185.122222
 21
190.623395
 31
0.0
  0
LINE
  5
3d5
100
AcDbEntity
  8
border
 62
7
100
AcDbLine
 10
185.122222
 20
190.623395
 30
0.0
 11
200.573888
 21
209.197145
 31
0.0
  0
LINE
  5
3d6
100
AcDbEntity
  8
border
 62
7
100
AcDbLine
 10
200.573888
 20
209.197145
 30
0.0
 11
192.274791
 21
221.738395
 31
0.0
  0
LINE
  5
3d7
100
AcDbEntity
  8
border
 62
7
100
AcDbLine
 10
192.274791
 20
221.738395
 30
0.0
 11
169.000277
 21
215.053256
 31
0.0
  0
LINE
  5
3d8
100
AcDbEntity
  8
border
 62
7
100
AcDbLine
 10
169.000277
 20
215.053256
 30
0.0
 11
166.187577
 21
217.843818
 31
0.0
  0
LINE
  5
3d9
100
AcDbEntity
  8
border
 62
7
100
AcDbLine
 10
166.187577
 20
217.843818
 30
0.0
 11
163.281786
 21
220.528609
 31
0.0
  0
LINE
  5
3da
100
AcDbEntity
  8
border
 62
7
100
AcDbLine
 10
163.281786
 20
220.528609
 30
0.0
 11
160.273018
 21
223.096643
 31
0.0
  0
LINE
  5
3db
100
AcDbEntity
  8
border
 62
7
100
AcDbLine
 10
160.273018
 20
223.096643
 30
0.0
 11
157.151369
 21
225.536933
 31
0.0
  0
LINE
  5
3dc
100
AcDbEntity
  8
border
 62
7
100
AcDbLine
 10
157.151369
 20
225.536933
 30
0.0
 11
156.967468
 21
226.072806
 31
0.0
  0
LINE
  5
3dd
100
AcDbEntity
  8
border
 62
7
100
AcDbLine
 10
156.967468
 20
226.072806
 30
0.0
 11
156.920472
 21
226.661149
 31
0.0
  0
LINE
  5
3de
100
AcDbEntity
  8
border
 62
7
100
AcDbLine
 10
156.920472
 20
226.661149
 30
0.0
 11
157.099437
 21
227.942455
 31
0.0
  0
LINE
  5
3df
100
AcDbEntity
  8
border
 62
7
100
AcDbLine
 10
157.099437
 20
227.942455
 30
0.0
 11
157.412763
 21
229.275255
 31
0.0
  0
LINE
  5
3e0
100
AcDbEntity
  8
border
 62
7
100
AcDbLine
 10
157.412763
 20
229.275255
 30
0.0
 11
157.584939
 21
230.553958
 31
0.0
  0
LINE
  5
3e1
100
AcDbEntity
  8
border
 62
7
100
AcDbLine
 10
157.584939
 20
230.553958
 30
0.0
 11
160.780555
 21
249.669575
 31
0.0
  0
LINE
  5
3e2
100
AcDbEntity
  8
border
 62
7
100
AcDbLine
 10
160.780555
 20
249.669575
 30
0.0
 11
147.295624
 21
256.328256
 31
0.0
  0
LINE
  5
3e3
100
AcDbEntity
  8
border
 62
7
100
AcDbLine
 10
147.295624
 20
256.328256
 30
0.0
 11
130.741527
 21
238.786381
 31
0.0
  0
LINE
  5
3e4
100
AcDbEntity
  8
border
 62
7
100
AcDbLine
 10
130.741527
 20
238.786381
 30
0.0
 11
127.028832
 21
239.753384
 31
0.0
  0
LINE
  5
3e5
100
AcDbEntity
  8
border
 62
7
100
AcDbLine
 10
127.028832
 20
239.753384
 30
0.0
 11
123.293248
 21
240.603446
 31
0.0
  0
LINE
  5
3e6
100
AcDbEntity
  8
border
 62
7
100
AcDbLine
 10
123.293248
 20
240.603446
 30
0.0
 11
119.527868
 21
241.303049
 31
0.0
  0
LINE
  5
3e7
100
AcDbEntity
  8
border
 62
7
100
AcDbLine
 10
119.527868
 20
241.303049
 30
0.0
 11
115.725789
 21
241.818669
 31
0.0
  0
LINE
  5
3e8
100
AcDbEntity
  8
border
 62
7
100
AcDbLine
 10
115.725789
 20
241.818669
 30
0.0
 11
115.116754
 21
241.932128
 31
0.0
  0
LINE
  5
3e9
100
AcDbEntity
  8
border
 62
7
100
AcDbLine
 10
115.116754
 20
241.932128
 30
0.0
 11
114.672807
 21
242.249781
 31
0.0
  0
LINE
  5
3ea
100
AcDbEntity
  8
border
 62
7
100
AcDbLine
 10
114.672807
 20
242.249781
 30
0.0
 11
114.354853
 21
242.723392
 31
0.0
  0
LINE
  5
3eb
100
AcDbEntity
  8
border
 62
7
100
AcDbLine
 10
114.354853
 20
242.723392
 30
0.0
 11
114.123800
 21
243.304719
 31
0.0
  0
LINE
  5
3ec
100
AcDbEntity
  8
border
 62
7
100
AcDbLine
 10
114.123800
 20
243.304719
 30
0.0
 11
113.766019
 21
244.597556
 31
0.0
  0
LINE
  5
3ed
100
AcDbEntity
  8
border
 62
7
100
AcDbLine
 10
113.766019
 20
244.597556
 30
0.0
 11
113.561100
 21
245.212589
 31
0.0
  0
LINE
  5
3ee
100
AcDbEntity
  8
border
 62
7
100
AcDbLine
 10
113.561100
 20
245.212589
 30
0.0
 11
113.286701
 21
245.742377
 31
0.0
  0
LINE
  5
3ef
100
AcDbEntity
  8
border
 62
7
100
AcDbLine
 10
113.286701
 20
245.742377
 30
0.0
 11
106.161736
 21
264.556797
 31
0.0
  0
LINE
  5
3f0
100
AcDbEntity
  8
border
 62
7
100
AcDbLine
 10
106.161736
 20
264.556797
 30
0.0
 11
105.880086
 21
264.538820
 31
0.0
  0
LINE
  5
3f1
100
AcDbEntity
  8
border
 62
7
100
AcDbLine
 10
105.880086
 20
264.538820
 30
0.0
 11
105.747222
 21
264.530353
 31
0.0
  0
LINE
  5
3f2
100
AcDbEntity
  8
border
 62
7
100
AcDbLine
 10
105.747222
 20
264.530353
 30
0.0
 11
105.747222
 21
264.530339
 31
0.0
  0
LINE
  5
3f3
100
AcDbEntity
  8
border
 62
7
100
AcDbLine
 10
106.214652
 20
270.824332
 30
0.0
 11
105.579486
 21
270.802996
 31
0.0
  0
LINE
  5
3f4
100
AcDbEntity
  8
border
 62
7
100
AcDbLine
 10
105.579486
 20
270.802996
 30
0.0
 11
105.341530
 21
270.788998
 31
0.0
  0
LINE
  5
3f5
100
AcDbEntity
  8
border
 62
7
100
AcDbLine
 10
105.341530
 20
270.788998
 30
0.0
 11
105.367986
 21
270.789063
 31
0.0
  0
LINE
  5
3f6
100
AcDbEntity
  8
border
 62
7
100
AcDbLine
 10
105.367986
 20
270.789063
 30
0.0
 11
90.771805
 21
269.827743
 31
0.0
  0
LINE
  5
3f7
100
AcDbEntity
  8
border
 62
7
100
AcDbLine
 10
90.771805
 20
269.827743
 30
0.0
 11
89.850773
 21
269.691884
 31
0.0
  0
LINE
  5
3f8
100
AcDbEntity
  8
border
 62
7
100
AcDbLine
 10
89.850773
 20
269.691884
 30
0.0
 11
88.981024
 21
269.414683
 31
0.0
  0
LINE
  5
3f9
100
AcDbEntity
  8
border
 62
7
100
AcDbLine
 10
88.981024
 20
269.414683
 30
0.0
 11
88.175889
 21
269.007473
 31
0.0
  0
LINE
  5
3fa
100
AcDbEntity
  8
border
 62
7
100
AcDbLine
 10
88.175889
 20
269.007473
 30
0.0
 11
87.448697
 21
268.481588
 31
0.0
  0
LINE
  5
3fb
100
AcDbEntity
  8
border
 62
7
100
AcDbLine
 10
87.448697
 20
268.481588
 30
0.0
 11
86.812779
 21
267.848364
 31
0.0
  0
LINE
  5
3fc
100
AcDbEntity
  8
border
 62
7
100
AcDbLine
 10
86.812779
 20
267.848364
 30
0.0
 11
86.281465
 21
267.119138
 31
0.0
  0
LINE
  5
3fd
100
AcDbEntity
  8
border
 62
7
100
AcDbLine
 10
86.281465
 20
267.119138
 30
0.0
 11
85.868086
 21
266.305246
 31
0.0
  0
LINE
  5
3fe
100
AcDbEntity
  8
border
 62
7
100
AcDbLine
 10
85.868086
 20
266.305246
 30
0.0
 11
85.585972
 21
265.418021
 31
0.0
  0
LINE
  5
3ff
100
AcDbEntity
  8
border
 62
7
100
AcDbLine
 10
85.585972
 20
265.418021
 30
0.0
 11
80.885208
 21
245.221493
 31
0.0
  0
LINE
  5
400
100
AcDbEntity
  8
border
 62
7
100
AcDbLine
 10
80.885208
 20
245.221493
 30
0.0
 11
76.474805
 21
243.847071
 31
0.0
  0
LINE
  5
401
100
AcDbEntity
  8
border
 62
7
100
AcDbLine
 10
76.474805
 20
243.847071
 30
0.0
 11
72.127499
 21
242.284618
 31
0.0
  0
LINE
  5
402
100
AcDbEntity
  8
border
 62
7
100
AcDbLine
 10
72.127499
 20
242.284618
 30
0.0
 11
56.190763
 21
255.566702
 31
0.0
  0
LINE
  5
403
100
AcDbEntity
  8
border
 62
7
100
AcDbLine
 10
56.190763
 20
255.566702
 30
0.0
 11
55.428873
 21
256.102512
 31
0.0
  0
LINE
  5
404
100
AcDbEntity
  8
border
 62
7
100
AcDbLine
 10
55.428873
 20
256.102512
 30
0.0
 11
54.606822
 21
256.500366
 31
0.0
  0
LINE
  5
405
100
AcDbEntity
  8
border
 62
7
100
AcDbLine
 10
54.606822
 20
256.500366
 30
0.0
 11
53.742110
 21
256.759316
 31
0.0
  0
LINE
  5
406
100
AcDbEntity
  8
border
 62
7
100
AcDbLine
 10
53.742110
 20
256.759316
 30
0.0
 11
52.852233
 21
256.878408
 31
0.0
  0
LINE
  5
407
100
AcDbEntity
  8
border
 62
7
100
AcDbLine
 10
52.852233
 20
256.878408
 30
0.0
 11
51.954684
 21
256.856677
 31
0.0
  0
LINE
  5
408
100
AcDbEntity
  8
border
 62
7
100
AcDbLine
 10
51.954684
 20
256.856677
 30
0.0
 11
51.066960
 21
256.693192
 31
0.0
  0
LINE
  5
409
100
AcDbEntity
  8
border
 62
7
100
AcDbLine
 10
51.066960
 20
256.693192
 30
0.0
 11
50.206557
 21
256.386986
 31
0.0
  0
LINE
  5
40a
100
AcDbEntity
  8
border
 62
7
100
AcDbLine
 10
50.206557
 20
256.386986
 30
0.0
 11
49.390972
 21
255.937110
 31
0.0
  0
LINE
  5
40b
100
AcDbEntity
  8
border
 62
7
100
AcDbLine
 10
49.390972
 20
255.937110
 30
0.0
 11
36.796805
 21
247.646832
 31
0.0
  0
LINE
  5
40c
100
AcDbEntity
  8
border
 62
7
100
AcDbLine
 10
36.796805
 20
247.646832
 30
0.0
 11
36.062426
 21
247.074440
 31
0.0
  0
LINE
  5
40d
100
AcDbEntity
  8
border
 62
7
100
AcDbLine
 10
36.062426
 20
247.074440
 30
0.0
 11
35.442381
 21
246.404351
 31
0.0
  0
LINE
  5
40e
100
AcDbEntity
  8
border
 62
7
100
AcDbLine
 10
35.442381
 20
246.404351
 30
0.0
 11
34.942681
 21
245.653000
 31
0.0
  0
LINE
  5
40f
100
AcDbEntity
  8
border
 62
7
100
AcDbLine
 10
34.942681
 20
245.653000
 30
0.0
 11
34.569332
 21
244.836827
 31
0.0
  0
LINE
  5
410
100
AcDbEntity
  8
border
 62
7
100
AcDbLine
 10
34.569332
 20
244.836827
 30
0.0
 11
34.328348
 21
243.972276
 31
0.0
  0
LINE
  5
411
100
AcDbEntity
  8
border
 62
7
100
AcDbLine
 10
34.328348
 20
243.972276
 30
0.0
 11
34.225732
 21
243.075783
 31
0.0
  0
LINE
  5
412
100
AcDbEntity
  8
border
 62
7
100
AcDbLine
 10
34.225732
 20
243.075783
 30
0.0
 11
34.267498
 21
242.163790
 31
0.0
  0
LINE
  5
413
100
AcDbEntity
  8
border
 62
7
100
AcDbLine
 10
34.267498
 20
242.163790
 30
0.0
 11
34.459652
 21
241.252735
 31
0.0
  0
LINE
  5
414
100
AcDbEntity
  8
border
 62
7
100
AcDbLine
 10
34.459652
 20
241.252735
 30
0.0
 11
40.368680
 21
221.338429
 31
0.0
  0
LINE
  5
415
100
AcDbEntity
  8
border
 62
7
100
AcDbLine
 10
40.368680
 20
221.338429
 30
0.0
 11
36.830576
 21
217.625892
 31
0.0
  0
LINE
  5
416
100
AcDbEntity
  8
border
 62
7
100
AcDbLine
 10
36.830576
 20
217.625892
 30
0.0
 11
35.096024
 21
215.664145
 31
0.0
  0
LINE
  5
417
100
AcDbEntity
  8
border
 62
7
100
AcDbLine
 10
35.096024
 20
215.664145
 30
0.0
 11
33.401319
 21
213.603776
 31
0.0
  0
LINE
  5
418
100
AcDbEntity
  8
border
 62
7
100
AcDbLine
 10
33.401319
 20
213.603776
 30
0.0
 11
12.975486
 21
217.016901
 31
0.0
  0
LINE
  5
419
100
AcDbEntity
  8
border
 62
7
100
AcDbLine
 10
12.975486
 20
217.016901
 30
0.0
 11
12.047714
 21
217.095780
 31
0.0
  0
LINE
  5
41a
100
AcDbEntity
  8
border
 62
7
100
AcDbLine
 10
12.047714
 20
217.095780
 30
0.0
 11
11.137468
 21
217.025283
 31
0.0
  0
LINE
  5
41b
100
AcDbEntity
  8
border
 62
7
100
AcDbLine
 10
11.137468
 20
217.025283
 30
0.0
 11
10.260333
 21
216.813397
 31
0.0
  0
LINE
  5
41c
100
AcDbEntity
  8
border
 62
7
100
AcDbLine
 10
10.260333
 20
216.813397
 30
0.0
 11
9.431881
 21
216.468098
 31
0.0
  0
LINE
  5
41d
100
AcDbEntity
  8
border
 62
7
100
AcDbLine
 10
9.431881
 20
216.468098
 30
0.0
 11
8.667696
 21
215.997374
 31
0.0
  0
LINE
  5
41e
100
AcDbEntity
  8
border
 62
7
100
AcDbLine
 10
8.667696
 20
215.997374
 30
0.0
 11
7.983358
 21
215.409203
 31
0.0
  0
LINE
  5
41f
100
AcDbEntity
  8
border
 62
7
100
AcDbLine
 10
7.983358
 20
215.409203
 30
0.0
 11
7.394442
 21
214.711569
 31
0.0
  0
LINE
  5
420
100
AcDbEntity
  8
border
 62
7
100
AcDbLine
 10
7.394442
 20
214.711569
 30
0.0
 11
6.916527
 21
213.912457
 31
0.0
  0
LINE
  5
421
100
AcDbEntity
  8
border
 62
7
100
AcDbLine
 10
6.916527
 20
213.912457
 30
0.0
 11
0.266666
 21
200.436346
 31
0.0
  0
LINE
  5
422
100
AcDbEntity
  8
border
 62
7
100
AcDbLine
 10
0.266666
 20
200.436346
 30
0.0
 11
-0.076516
 21
199.575461
 31
0.0
  0
LINE
  5
423
100
AcDbEntity
  8
border
 62
7
100
AcDbLine
 10
-0.076516
 20
199.575461
 30
0.0
 11
-0.273058
 21
198.688101
 31
0.0
  0
LINE
  5
424
100
AcDbEntity
  8
border
 62
7
100
AcDbLine
 10
-0.273058
 20
198.688101
 30
0.0
 11
-0.325998
 21
197.791263
 31
0.0
  0
LINE
  5
425
100
AcDbEntity
  8
border
 62
7
100
AcDbLine
 10
-0.325998
 20
197.791263
 30
0.0
 11
-0.238359
 21
196.901956
 31
0.0
  0
LINE
  5
426
100
AcDbEntity
  8
border
 62
7
100
AcDbLine
 10
-0.238359
 20
196.901956
 30
0.0
 11
-0.013180
 21
196.037176
 31
0.0
  0
LINE
  5
427
100
AcDbEntity
  8
border
 62
7
100
AcDbLine
 10
-0.013180
 20
196.037176
 30
0.0
 11
0.346510
 21
195.213928
 31
0.0
  0
LINE
  5
428
100
AcDbEntity
  8
border
 62
7
100
AcDbLine
 10
0.346510
 20
195.213928
 30
0.0
 11
0.837678
 21
194.449210
 31
0.0
  0
LINE
  5
429
100
AcDbEntity
  8
border
 62
7
100
AcDbLine
 10
0.837678
 20
194.449210
 30
0.0
 11
1.457291
 21
193.760026
 31
0.0
  0
LINE
  5
42a
100
AcDbEntity
  8
border
 62
7
100
AcDbLine
 10
1.457291
 20
193.760026
 30
0.0
 11
16.512083
 21
179.560721
 31
0.0
  0
LINE
  5
42b
100
AcDbEntity
  8
border
 62
7
100
AcDbLine
 10
16.512083
 20
179.560721
 30
0.0
 11
15.356019
 21
174.518381
 31
0.0
  0
LINE
  5
42c
100
AcDbEntity
  8
border
 62
7
100
AcDbLine
 10
15.356019
 20
174.518381
 30
0.0
 11
14.483611
 21
169.400721
 31
0.0
  0
LINE
  5
42d
100
AcDbEntity
  8
border
 62
7
100
AcDbLine
 10
14.483611
 20
169.400721
 30
0.0
 11
-4.875070
 21
162.098221
 31
0.0
  0
LINE
  5
42e
100
AcDbEntity
  8
border
 62
7
100
AcDbLine
 10
-4.875070
 20
162.098221
 30
0.0
 11
-5.712570
 21
161.700505
 31
0.0
  0
LINE
  5
42f
100
AcDbEntity
  8
border
 62
7
100
AcDbLine
 10
-5.712570
 20
161.700505
 30
0.0
 11
-6.460515
 21
161.183541
 31
0.0
  0
LINE
  5
430
100
AcDbEntity
  8
border
 62
7
100
AcDbLine
 10
-6.460515
 20
161.183541
 30
0.0
 11
-7.109559
 21
160.561879
 31
0.0
  0
LINE
  5
431
100
AcDbEntity
  8
border
 62
7
100
AcDbLine
 10
-7.109559
 20
160.561879
 30
0.0
 11
-7.650350
 21
159.850056
 31
0.0
  0
LINE
  5
432
100
AcDbEntity
  8
border
 62
7
100
AcDbLine
 10
-7.650350
 20
159.850056
 30
0.0
 11
-8.073534
 21
159.062619
 31
0.0
  0
LINE
  5
433
100
AcDbEntity
  8
border
 62
7
100
AcDbLine
 10
-8.073534
 20
159.062619
 30
0.0
 11
-8.369766
 21
158.214109
 31
0.0
  0
LINE
  5
434
100
AcDbEntity
  8
border
 62
7
100
AcDbLine
 10
-8.369766
 20
158.214109
 30
0.0
 11
-8.529690
 21
157.319067
 31
0.0
  0
LINE
  5
435
100
AcDbEntity
  8
border
 62
7
100
AcDbLine
 10
-8.529690
 20
157.319067
 30
0.0
 11
-8.543970
 21
156.392040
 31
0.0
  0
LINE
  5
436
100
AcDbEntity
  8
border
 62
7
100
AcDbLine
 10
-8.543970
 20
156.392040
 30
0.0
 11
-7.556192
 21
141.381346
 31
0.0
  0
LINE
  5
437
100
AcDbEntity
  8
border
 62
7
100
AcDbLine
 10
-7.556192
 20
141.381346
 30
0.0
 11
-7.420333
 21
140.460314
 31
0.0
  0
LINE
  5
438
100
AcDbEntity
  8
border
 62
7
100
AcDbLine
 10
-7.420333
 20
140.460314
 30
0.0
 11
-7.143132
 21
139.590561
 31
0.0
  0
LINE
  5
439
100
AcDbEntity
  8
border
 62
7
100
AcDbLine
 10
-7.143132
 20
139.590561
 30
0.0
 11
-6.735922
 21
138.785438
 31
0.0
  0
LINE
  5
43a
100
AcDbEntity
  8
border
 62
7
100
AcDbLine
 10
-6.735922
 20
138.785438
 30
0.0
 11
-6.210038
 21
138.058236
 31
0.0
  0
LINE
  5
43b
100
AcDbEntity
  8
border
 62
7
100
AcDbLine
 10
-6.210038
 20
138.058236
 30
0.0
 11
-5.576813
 21
137.422333
 31
0.0
  0
LINE
  5
43c
100
AcDbEntity
  8
border
 62
7
100
AcDbLine
 10
-5.576813
 20
137.422333
 30
0.0
 11
-4.847587
 21
136.890993
 31
0.0
  0
LINE
  5
43d
100
AcDbEntity
  8
border
 62
7
100
AcDbLine
 10
-4.847587
 20
136.890993
 30
0.0
 11
-4.033695
 21
136.477622
 31
0.0
  0
LINE
  5
43e
100
AcDbEntity
  8
border
 62
7
100
AcDbLine
 10
-4.033695
 20
136.477622
 30
0.0
 11
-3.146470
 21
136.195513
 31
0.0
  0
LINE
  5
43f
100
AcDbEntity
  8
border
 62
7
100
AcDbLine
 10
-3.146470
 20
136.195513
 30
0.0
 11
17.041238
 21
131.503568
 31
0.0
  0
LINE
  5
440
100
AcDbEntity
  8
border
 62
7
100
AcDbLine
 10
17.041238
 20
131.503568
 30
0.0
 11
18.522597
 21
126.998173
 31
0.0
  0
LINE
  5
441
100
AcDbEntity
  8
border
 62
7
100
AcDbLine
 10
18.522597
 20
126.998173
 30
0.0
 11
20.057488
 21
122.825235
 31
0.0
  0
LINE
  5
442
100
AcDbEntity
  8
border
 62
7
100
AcDbLine
 10
20.057488
 20
122.825235
 30
0.0
 11
6.854780
 21
106.959068
 31
0.0
  0
LINE
  5
443
100
AcDbEntity
  8
border
 62
7
100
AcDbLine
 10
6.854780
 20
106.959068
 30
0.0
 11
6.411008
 21
106.348960
 31
0.0
  0
LINE
  5
444
100
AcDbEntity
  8
border
 62
7
100
AcDbLine
 10
6.411008
 20
106.348960
 30
0.0
 11
6.055795
 21
105.694431
 31
0.0
  0
LINE
  5
445
100
AcDbEntity
  8
border
 62
7
100
AcDbLine
 10
6.055795
 20
105.694431
 30
0.0
 11
5.790774
 21
105.004877
 31
0.0
  0
LINE
  5
446
100
AcDbEntity
  8
border
 62
7
100
AcDbLine
 10
5.790774
 20
105.004877
 30
0.0
 11
5.617583
 21
104.289585
 31
0.0
  0
LINE
  5
447
100
AcDbEntity
  8
border
 62
7
100
AcDbLine
 10
5.617583
 20
104.289585
 30
0.0
 11
5.537855
 21
103.557980
 31
0.0
  0
LINE
  5
448
100
AcDbEntity
  8
border
 62
7
100
AcDbLine
 10
5.537855
 20
103.557980
 30
0.0
 11
5.553236
 21
102.819376
 31
0.0
  0
LINE
  5
449
100
AcDbEntity
  8
border
 62
7
100
AcDbLine
 10
5.553236
 20
102.819376
 30
0.0
 11
5.665346
 21
102.083171
 31
0.0
  0
LINE
  5
44a
100
AcDbEntity
  8
border
 62
7
100
AcDbLine
 10
5.665346
 20
102.083171
 30
0.0
 11
5.875830
 21
101.358707
 31
0.0
  0
LINE
  5
44b
100
AcDbEntity
  8
border
 62
7
100
AcDbLine
 10
5.875830
 20
101.358707
 30
0.0
 11
6.432144
 21
99.996618
 31
0.0
  0
LINE
  5
44c
100
AcDbEntity
  8
border
 62
7
100
AcDbLine
 10
6.432144
 20
99.996618
 30
0.0
 11
7.033822
 21
98.793561
 31
0.0
  0
LINE
  5
44d
100
AcDbEntity
  8
border
 62
7
100
AcDbLine
 10
7.033822
 20
98.793561
 30
0.0
 11
8.267658
 21
96.818993
 31
0.0
  0
LINE
  5
44e
100
AcDbEntity
  8
border
 62
7
100
AcDbLine
 10
8.267658
 20
96.818993
 30
0.0
 11
9.366117
 21
95.343789
 31
0.0
  0
LINE
  5
44f
100
AcDbEntity
  8
border
 62
7
100
AcDbLine
 10
9.366117
 20
95.343789
 30
0.0
 11
10.117983
 21
94.276679
 31
0.0
  0
LINE
  5
450
100
AcDbEntity
  8
border
 62
7
100
AcDbLine
 10
10.117983
 20
94.276679
 30
0.0
 11
10.320830
 21
93.959179
 31
0.0
  0
LINE
  5
451
100
AcDbEntity
  8
border
 62
7
100
AcDbLine
 10
10.320830
 20
93.959179
 30
0.0
 11
14.633538
 21
87.432790
 31
0.0
  0
LINE
  5
452
100
AcDbEntity
  8
border
 62
7
100
AcDbLine
 10
14.633538
 20
87.432790
 30
0.0
 11
15.207909
 21
86.697093
 31
0.0
  0
LINE
  5
453
100
AcDbEntity
  8
border
 62
7
100
AcDbLine
 10
15.207909
 20
86.697093
 30
0.0
 11
15.880297
 21
86.076430
 31
0.0
  0
LINE
  5
454
100
AcDbEntity
  8
border
 62
7
100
AcDbLine
 10
15.880297
 20
86.076430
 30
0.0
 11
16.634138
 21
85.576784
 31
0.0
  0
LINE
  5
455
100
AcDbEntity
  8
border
 62
7
100
AcDbLine
 10
16.634138
 20
85.576784
 30
0.0
 11
17.452865
 21
85.204166
 31
0.0
  0
LINE
  5
456
100
AcDbEntity
  8
border
 62
7
100
AcDbLine
 10
17.452865
 20
85.204166
 30
0.0
 11
18.319908
 21
84.964616
 31
0.0
  0
LINE
  5
457
100
AcDbEntity
  8
border
 62
7
100
AcDbLine
 10
18.319908
 20
84.964616
 30
0.0
 11
19.218704
 21
84.864145
 31
0.0
  0
LINE
  5
458
100
AcDbEntity
  8
border
 62
7
100
AcDbLine
 10
19.218704
 20
84.864145
 30
0.0
 11
20.132681
 21
84.908736
 31
0.0
  0
LINE
  5
459
100
AcDbEntity
  8
border
 62
7
100
AcDbLine
 10
20.132681
 20
84.908736
 30
0.0
 11
21.045274
 21
85.104457
 31
0.0
  0
LINE
  5
45a
100
AcDbEntity
  8
border
 62
7
100
AcDbLine
 10
21.045274
 20
85.104457
 30
0.0
 11
32.856475
 21
88.590127
 31
0.0
  0
LINE
  5
45b
100
AcDbEntity
  8
border
 62
7
100
AcDbLine
 10
32.856475
 20
88.590127
 30
0.0
 11
44.787219
 21
92.186485
 31
0.0
  0
LINE
  5
45c
100
AcDbEntity
  8
border
 62
7
100
AcDbLine
 10
44.787219
 20
92.186485
 30
0.0
 11
45.968547
 21
92.712801
 31
0.0
  0
LINE
  5
45d
100
AcDbEntity
  8
border
 62
7
100
AcDbLine
 10
45.968547
 20
92.712801
 30
0.0
 11
47.000899
 21
93.491763
 31
0.0
  0
LINE
  5
45e
100
AcDbEntity
  8
border
 62
7
100
AcDbLine
 10
47.000899
 20
93.491763
 30
0.0
 11
63.166941
 21
108.864068
 31
0.0
  0
LINE
  5
45f
100
AcDbEntity
  8
border
 62
7
100
AcDbLine
 10
63.166941
 20
108.864068
 30
0.0
 11
63.918939
 21
109.736276
 31
0.0
  0
LINE
  5
460
100
AcDbEntity
  8
border
 62
7
100
AcDbLine
 10
63.918939
 20
109.736276
 30
0.0
 11
64.466103
 21
110.710818
 31
0.0
  0
LINE
  5
461
100
AcDbEntity
  8
border
 62
7
100
AcDbLine
 10
64.466103
 20
110.710818
 30
0.0
 11
64.807516
 21
111.755576
 31
0.0
  0
LINE
  5
462
100
AcDbEntity
  8
border
 62
7
100
AcDbLine
 10
64.807516
 20
111.755576
 30
0.0
 11
64.942260
 21
112.838378
 31
0.0
  0
LINE
  5
463
100
AcDbEntity
  8
border
 62
7
100
AcDbLine
 10
64.942260
 20
112.838378
 30
0.0
 11
64.869424
 21
113.927135
 31
0.0
  0
LINE
  5
464
100
AcDbEntity
  8
border
 62
7
100
AcDbLine
 10
64.869424
 20
113.927135
 30
0.0
 11
64.588085
 21
114.989645
 31
0.0
  0
LINE
  5
465
100
AcDbEntity
  8
border
 62
7
100
AcDbLine
 10
64.588085
 20
114.989645
 30
0.0
 11
64.097332
 21
115.993764
 31
0.0
  0
LINE
  5
466
100
AcDbEntity
  8
border
 62
7
100
AcDbLine
 10
64.097332
 20
115.993764
 30
0.0
 11
63.396247
 21
116.907402
 31
0.0
  0
LINE
  5
467
100
AcDbEntity
  8
border
 62
7
100
AcDbLine
 10
63.396247
 20
116.907402
 30
0.0
 11
60.798956
 21
119.858317
 31
0.0
  0
LINE
  5
468
100
AcDbEntity
  8
border
 62
7
100
AcDbLine
 10
60.798956
 20
119.858317
 30
0.0
 11
58.402003
 21
122.974502
 31
0.0
  0
LINE
  5
469
100
AcDbEntity
  8
border
 62
7
100
AcDbLine
 10
58.402003
 20
122.974502
 30
0.0
 11
56.216717
 21
126.240406
 31
0.0
  0
LINE
  5
46a
100
AcDbEntity
  8
border
 62
7
100
AcDbLine
 10
56.216717
 20
126.240406
 30
0.0
 11
54.254425
 21
129.640591
 31
0.0
  0
LINE
  5
46b
100
AcDbEntity
  8
border
 62
7
100
AcDbLine
 10
54.254425
 20
129.640591
 30
0.0
 11
52.526461
 21
133.159563
 31
0.0
  0
LINE
  5
46c
100
AcDbEntity
  8
border
 62
7
100
AcDbLine
 10
52.526461
 20
133.159563
 30
0.0
 11
51.044150
 21
136.781801
 31
0.0
  0
LINE
  5
46d
100
AcDbEntity
  8
border
 62
7
100
AcDbLine
 10
51.044150
 20
136.781801
 30
0.0
 11
49.818821
 21
140.491810
 31
0.0
  0
LINE
  5
46e
100
AcDbEntity
  8
border
 62
7
100
AcDbLine
 10
49.818821
 20
140.491810
 30
0.0
 11
48.861802
 21
144.274124
 31
0.0
  0
LINE
  5
46f
100
AcDbEntity
  8
border
 62
7
100
AcDbLine
 10
48.861802
 20
144.274124
 30
0.0
 11
48.861802
 21
144.291621
 31
0.0
  0
LINE
  5
470
100
AcDbEntity
  8
border
 62
7
100
AcDbLine
 10
48.861802
 20
144.291621
 30
0.0
 11
48.269347
 21
147.421353
 31
0.0
  0
LINE
  5
471
100
AcDbEntity
  8
border
 62
7
100
AcDbLine
 10
48.269347
 20
147.421353
 30
0.0
 11
47.853747
 21
150.583453
 31
0.0
  0
LINE
  5
472
100
AcDbEntity
  8
border
 62
7
100
AcDbLine
 10
47.853747
 20
150.583453
 30
0.0
 11
47.615306
 21
153.766324
 31
0.0
  0
LINE
  5
473
100
AcDbEntity
  8
border
 62
7
100
AcDbLine
 10
47.615306
 20
153.766324
 30
0.0
 11
47.554329
 21
156.958350
 31
0.0
  0
LINE
  5
474
100
AcDbEntity
  8
border
 62
7
100
AcDbLine
 10
47.554329
 20
156.958350
 30
0.0
 11
47.671115
 21
160.147921
 31
0.0
  0
LINE
  5
475
100
AcDbEntity
  8
border
 62
7
100
AcDbLine
 10
47.671115
 20
160.147921
 30
0.0
 11
47.965972
 21
163.323424
 31
0.0
  0
LINE
  5
476
100
AcDbEntity
  8
border
 62
7
100
AcDbLine
 10
47.965972
 20
163.323424
 30
0.0
 11
48.439203
 21
166.473252
 31
0.0
  0
LINE
  5
477
100
AcDbEntity
  8
border
 62
7
100
AcDbLine
 10
48.439203
 20
166.473252
 30
0.0
 11
49.091108
 21
169.585788
 31
0.0
  0
LINE
  5
478
100
AcDbEntity
  8
border
 62
7
100
AcDbLine
 10
49.091108
 20
169.585788
 30
0.0
 11
49.091108
 21
169.621066
 31
0.0
  0
LINE
  5
479
100
AcDbEntity
  8
border
 62
7
100
AcDbLine
 10
49.091108
 20
169.621066
 30
0.0
 11
50.114654
 21
173.382986
 31
0.0
  0
LINE
  5
47a
100
AcDbEntity
  8
border
 62
7
100
AcDbLine
 10
50.114654
 20
173.382986
 30
0.0
 11
51.401195
 21
177.068177
 31
0.0
  0
LINE
  5
47b
100
AcDbEntity
  8
border
 62
7
100
AcDbLine
 10
51.401195
 20
177.068177
 30
0.0
 11
52.940272
 21
180.660134
 31
0.0
  0
LINE
  5
47c
100
AcDbEntity
  8
border
 62
7
100
AcDbLine
 10
52.940272
 20
180.660134
 30
0.0
 11
54.721430
 21
184.142356
 31
0.0
  0
LINE
  5
47d
100
AcDbEntity
  8
border
 62
7
100
AcDbLine
 10
54.721430
 20
184.142356
 30
0.0
 11
56.734210
 21
187.498342
 31
0.0
  0
LINE
  5
47e
100
AcDbEntity
  8
border
 62
7
100
AcDbLine
 10
56.734210
 20
187.498342
 30
0.0
 11
58.968155
 21
190.711586
 31
0.0
  0
LINE
  5
47f
100
AcDbEntity
  8
border
 62
7
100
AcDbLine
 10
58.968155
 20
190.711586
 30
0.0
 11
61.412806
 21
193.765586
 31
0.0
  0
LINE
  5
480
100
AcDbEntity
  8
border
 62
7
100
AcDbLine
 10
61.412806
 20
193.765586
 30
0.0
 11
64.057705
 21
196.643844
 31
0.0
  0
LINE
  5
481
100
AcDbEntity
  8
border
 62
7
100
AcDbLine
 10
64.057705
 20
196.643844
 30
0.0
 11
66.657832
 21
199.122257
 31
0.0
  0
LINE
  5
482
100
AcDbEntity
  8
border
 62
7
100
AcDbLine
 10
66.657832
 20
199.122257
 30
0.0
 11
69.410275
 21
201.436214
 31
0.0
  0
LINE
  5
483
100
AcDbEntity
  8
border
 62
7
100
AcDbLine
 10
69.410275
 20
201.436214
 30
0.0
 11
72.302418
 21
203.578467
 31
0.0
  0
LINE
  5
484
100
AcDbEntity
  8
border
 62
7
100
AcDbLine
 10
72.302418
 20
203.578467
 30
0.0
 11
75.321645
 21
205.541768
 31
0.0
  0
LINE
  5
485
100
AcDbEntity
  8
border
 62
7
100
AcDbLine
 10
75.321645
 20
205.541768
 30
0.0
 11
78.455335
 21
207.318868
 31
0.0
  0
LINE
  5
486
100
AcDbEntity
  8
border
 62
7
100
AcDbLine
 10
78.455335
 20
207.318868
 30
0.0
 11
81.690871
 21
208.902524
 31
0.0
  0
LINE
  5
487
100
AcDbEntity
  8
border
 62
7
100
AcDbLine
 10
81.690871
 20
208.902524
 30
0.0
 11
85.015636
 21
210.285487
 31
0.0
  0
LINE
  5
488
100
AcDbEntity
  8
border
 62
7
100
AcDbLine
 10
85.015636
 20
210.285487
 30
0.0
 11
88.417011
 21
211.460510
 31
0.0
  0
LINE
  5
489
100
AcDbEntity
  8
border
 62
7
100
AcDbLine
 10
88.417011
 20
211.460510
 30
0.0
 11
88.434650
 21
211.469316
 31
0.0
  0
LINE
  5
48a
100
AcDbEntity
  8
border
 62
7
100
AcDbLine
 10
88.434650
 20
211.469316
 30
0.0
 11
91.876762
 21
212.411396
 31
0.0
  0
LINE
  5
48b
100
AcDbEntity
  8
border
 62
7
100
AcDbLine
 10
91.876762
 20
212.411396
 30
0.0
 11
95.373639
 21
213.142639
 31
0.0
  0
LINE
  5
48c
100
AcDbEntity
  8
border
 62
7
100
AcDbLine
 10
95.373639
 20
213.142639
 30
0.0
 11
98.911082
 21
213.662230
 31
0.0
  0
LINE
  5
48d
100
AcDbEntity
  8
border
 62
7
100
AcDbLine
 10
98.911082
 20
213.662230
 30
0.0
 11
102.474890
 21
213.969353
 31
0.0
  0
LINE
  5
48e
100
AcDbEntity
  8
border
 62
7
100
AcDbLine
 10
102.474890
 20
213.969353
 30
0.0
 11
106.050864
 21
214.063189
 31
0.0
  0
LINE
  5
48f
100
AcDbEntity
  8
border
 62
7
100
AcDbLine
 10
106.050864
 20
214.063189
 30
0.0
 11
109.624805
 21
213.942923
 31
0.0
  0
LINE
  5
490
100
AcDbEntity
  8
border
 62
7
100
AcDbLine
 10
109.624805
 20
213.942923
 30
0.0
 11
113.182513
 21
213.607739
 31
0.0
  0
LINE
  5
491
100
AcDbEntity
  8
border
 62
7
100
AcDbLine
 10
113.182513
 20
213.607739
 30
0.0
 11
116.709789
 21
213.056816
 31
0.0
  0
LINE
  5
492
100
AcDbEntity
  8
border
 62
7
100
AcDbLine
 10
116.709789
 20
213.056816
 30
0.0
 11
116.727427
 21
213.048151
 31
0.0
  0
LINE
  5
493
100
AcDbEntity
  8
border
 62
7
100
AcDbLine
 10
116.727427
 20
213.048151
 30
0.0
 11
120.230228
 21
212.283662
 31
0.0
  0
LINE
  5
494
100
AcDbEntity
  8
border
 62
7
100
AcDbLine
 10
120.230228
 20
212.283662
 30
0.0
 11
123.683099
 21
211.295704
 31
0.0
  0
LINE
  5
495
100
AcDbEntity
  8
border
 62
7
100
AcDbLine
 10
123.683099
 20
211.295704
 30
0.0
 11
127.073153
 21
210.091978
 31
0.0
  0
LINE
  5
496
100
AcDbEntity
  8
border
 62
7
100
AcDbLine
 10
127.073153
 20
210.091978
 30
0.0
 11
130.387503
 21
208.680195
 31
0.0
  0
LINE
  5
497
100
AcDbEntity
  8
border
 62
7
100
AcDbLine
 10
130.387503
 20
208.680195
 30
0.0
 11
133.613263
 21
207.068063
 31
0.0
  0
LINE
  5
498
100
AcDbEntity
  8
border
 62
7
100
AcDbLine
 10
133.613263
 20
207.068063
 30
0.0
 11
136.737544
 21
205.263283
 31
0.0
  0
LINE
  5
499
100
AcDbEntity
  8
border
 62
7
100
AcDbLine
 10
136.737544
 20
205.263283
 30
0.0
 11
139.747464
 21
203.273568
 31
0.0
  0
LINE
  5
49a
100
AcDbEntity
  8
border
 62
7
100
AcDbLine
 10
139.747464
 20
203.273568
 30
0.0
 11
142.630136
 21
201.106624
 31
0.0
  0
LINE
  5
49b
100
AcDbEntity
  8
border
 62
7
100
AcDbLine
 10
142.630136
 20
201.106624
 30
0.0
 11
142.647774
 21
201.088985
 31
0.0
  0
LINE
  5
49c
100
AcDbEntity
  8
border
 62
7
100
AcDbLine
 10
142.647774
 20
201.088985
 30
0.0
 11
145.298710
 21
198.809386
 31
0.0
  0
LINE
  5
49d
100
AcDbEntity
  8
border
 62
7
100
AcDbLine
 10
145.298710
 20
198.809386
 30
0.0
 11
147.806314
 21
196.369213
 31
0.0
  0
LINE
  5
49e
100
AcDbEntity
  8
border
 62
7
100
AcDbLine
 10
147.806314
 20
196.369213
 30
0.0
 11
150.163561
 21
193.779424
 31
0.0
  0
LINE
  5
49f
100
AcDbEntity
  8
border
 62
7
100
AcDbLine
 10
150.163561
 20
193.779424
 30
0.0
 11
152.363435
 21
191.050981
 31
0.0
  0
LINE
  5
4a0
100
AcDbEntity
  8
border
 62
7
100
AcDbLine
 10
152.363435
 20
191.050981
 30
0.0
 11
154.398918
 21
188.194838
 31
0.0
  0
LINE
  5
4a1
100
AcDbEntity
  8
border
 62
7
100
AcDbLine
 10
154.398918
 20
188.194838
 30
0.0
 11
156.262990
 21
185.221960
 31
0.0
  0
LINE
  5
4a2
100
AcDbEntity
  8
border
 62
7
100
AcDbLine
 10
156.262990
 20
185.221960
 30
0.0
 11
157.948627
 21
182.143300
 31
0.0
  0
LINE
  5
4a3
100
AcDbEntity
  8
border
 62
7
100
AcDbLine
 10
157.948627
 20
182.143300
 30
0.0
 11
159.448819
 21
178.969818
 31
0.0
  0
LINE
  5
4a4
100
AcDbEntity
  8
border
 62
7
100
AcDbLine
 10
159.448819
 20
178.969818
 30
0.0
 11
159.466458
 21
178.934540
 31
0.0
  0
LINE
  5
4a5
100
AcDbEntity
  8
border
 62
7
100
AcDbLine
 10
159.466458
 20
178.934540
 30
0.0
 11
160.526676
 21
176.255038
 31
0.0
  0
LINE
  5
4a6
100
AcDbEntity
  8
border
 62
7
100
AcDbLine
 10
160.526676
 20
176.255038
 30
0.0
 11
161.448837
 21
173.522193
 31
0.0
  0
LINE
  5
4a7
100
AcDbEntity
  8
border
 62
7
100
AcDbLine
 10
161.448837
 20
173.522193
 30
0.0
 11
162.232882
 21
170.743077
 31
0.0
  0
LINE
  5
4a8
100
AcDbEntity
  8
border
 62
7
100
AcDbLine
 10
162.232882
 20
170.743077
 30
0.0
 11
162.878739
 21
167.924761
 31
0.0
  0
LINE
  5
4a9
100
AcDbEntity
  8
border
 62
7
100
AcDbLine
 10
162.878739
 20
167.924761
 30
0.0
 11
163.386349
 21
165.074311
 31
0.0
  0
LINE
  5
4aa
100
AcDbEntity
  8
border
 62
7
100
AcDbLine
 10
163.386349
 20
165.074311
 30
0.0
 11
163.755643
 21
162.198796
 31
0.0
  0
LINE
  5
4ab
100
AcDbEntity
  8
border
 62
7
100
AcDbLine
 10
163.755643
 20
162.198796
 30
0.0
 11
163.986557
 21
159.305290
 31
0.0
  0
LINE
  5
4ac
100
AcDbEntity
  8
border
 62
7
100
AcDbLine
 10
163.986557
 20
159.305290
 30
0.0
 11
164.079027
 21
156.400860
 31
0.0
  0
LINE
  5
4ad
100
AcDbEntity
  8
border
 62
7
100
AcDbLine
 10
164.079027
 20
156.400860
 30
0.0
 11
163.981709
 21
153.540591
 31
0.0
  0
LINE
  5
4ae
100
AcDbEntity
  8
border
 62
7
100
AcDbLine
 10
163.981709
 20
153.540591
 30
0.0
 11
163.750617
 21
150.691603
 31
0.0
  0
LINE
  5
4af
100
AcDbEntity
  8
border
 62
7
100
AcDbLine
 10
163.750617
 20
150.691603
 30
0.0
 11
163.385748
 21
147.860463
 31
0.0
  0
LINE
  5
4b0
100
AcDbEntity
  8
border
 62
7
100
AcDbLine
 10
163.385748
 20
147.860463
 30
0.0
 11
162.887101
 21
145.053734
 31
0.0
  0
LINE
  5
4b1
100
AcDbEntity
  8
border
 62
7
100
AcDbLine
 10
162.887101
 20
145.053734
 30
0.0
 11
162.254672
 21
142.277994
 31
0.0
  0
LINE
  5
4b2
100
AcDbEntity
  8
border
 62
7
100
AcDbLine
 10
162.254672
 20
142.277994
 30
0.0
 11
161.488459
 21
139.539789
 31
0.0
  0
LINE
  5
4b3
100
AcDbEntity
  8
border
 62
7
100
AcDbLine
 10
161.488459
 20
139.539789
 30
0.0
 11
160.588452
 21
136.845724
 31
0.0
  0
LINE
  5
4b4
100
AcDbEntity
  8
border
 62
7
100
AcDbLine
 10
160.588452
 20
136.845724
 30
0.0
 11
159.554652
 21
134.202318
 31
0.0
  0
LINE
  5
4b5
100
AcDbEntity
  8
border
 62
7
100
AcDbLine
 10
159.554652
 20
134.202318
 30
0.0
 11
159.545847
 21
134.175789
 31
0.0
  0
LINE
  5
4b6
100
AcDbEntity
  8
border
 62
7
100
AcDbLine
 10
159.545847
 20
134.175789
 30
0.0
 11
158.094158
 21
131.044703
 31
0.0
  0
LINE
  5
4b7
100
AcDbEntity
  8
border
 62
7
100
AcDbLine
 10
158.094158
 20
131.044703
 30
0.0
 11
156.454469
 21
128.005000
 31
0.0
  0
LINE
  5
4b8
100
AcDbEntity
  8
border
 62
7
100
AcDbLine
 10
156.454469
 20
128.005000
 30
0.0
 11
154.634918
 21
125.066305
 31
0.0
  0
LINE
  5
4b9
100
AcDbEntity
  8
border
 62
7
100
AcDbLine
 10
154.634918
 20
125.066305
 30
0.0
 11
152.643642
 21
122.238213
 31
0.0
  0
LINE
  5
4ba
100
AcDbEntity
  8
border
 62
7
100
AcDbLine
 10
152.643642
 20
122.238213
 30
0.0
 11
150.488780
 21
119.530347
 31
0.0
  0
LINE
  5
4bb
100
AcDbEntity
  8
border
 62
7
100
AcDbLine
 10
150.488780
 20
119.530347
 30
0.0
 11
148.178466
 21
116.952303
 31
0.0
  0
LINE
  5
4bc
100
AcDbEntity
  8
border
 62
7
100
AcDbLine
 10
148.178466
 20
116.952303
 30
0.0
 11
145.720841
 21
114.513734
 31
0.0
  0
LINE
  5
4bd
100
AcDbEntity
  8
border
 62
7
100
AcDbLine
 10
145.720841
 20
114.513734
 30
0.0
 11
143.124041
 21
112.224206
 31
0.0
  0
LINE
  5
4be
100
AcDbEntity
  8
border
 62
7
100
AcDbLine
 10
143.124041
 20
112.224206
 30
0.0
 11
143.106402
 21
112.215457
 31
0.0
  0
LINE
  5
4bf
100
AcDbEntity
  8
border
 62
7
100
AcDbLine
 10
143.106402
 20
112.215457
 30
0.0
 11
140.314920
 21
110.054933
 31
0.0
  0
LINE
  5
4c0
100
AcDbEntity
  8
border
 62
7
100
AcDbLine
 10
140.314920
 20
110.054933
 30
0.0
 11
137.393604
 21
108.067045
 31
0.0
  0
LINE
  5
4c1
100
AcDbEntity
  8
border
 62
7
100
AcDbLine
 10
137.393604
 20
108.067045
 30
0.0
 11
134.354945
 21
106.257125
 31
0.0
  0
LINE
  5
4c2
100
AcDbEntity
  8
border
 62
7
100
AcDbLine
 10
134.354945
 20
106.257125
 30
0.0
 11
131.211436
 21
104.630425
 31
0.0
  0
LINE
  5
4c3
100
AcDbEntity
  8
border
 62
7
100
AcDbLine
 10
131.211436
 20
104.630425
 30
0.0
 11
127.975565
 21
103.192305
 31
0.0
  0
LINE
  5
4c4
100
AcDbEntity
  8
border
 62
7
100
AcDbLine
 10
127.975565
 20
103.192305
 30
0.0
 11
124.659823
 21
101.948015
 31
0.0
  0
LINE
  5
4c5
100
AcDbEntity
  8
border
 62
7
100
AcDbLine
 10
124.659823
 20
101.948015
 30
0.0
 11
121.276703
 21
100.902890
 31
0.0
  0
LINE
  5
4c6
100
AcDbEntity
  8
border
 62
7
100
AcDbLine
 10
121.276703
 20
100.902890
 30
0.0
 11
117.838694
 21
100.062235
 31
0.0
  0
LINE
  5
4c7
100
AcDbEntity
  8
border
 62
7
100
AcDbLine
 10
117.838694
 20
100.062235
 30
0.0
 11
113.461368
 21
99.354280
 31
0.0
  0
LINE
  5
4c8
100
AcDbEntity
  8
border
 62
7
100
AcDbLine
 10
113.461368
 20
99.354280
 30
0.0
 11
109.033203
 21
98.959141
 31
0.0
  0
LINE
  5
4c9
100
AcDbEntity
  8
border
 62
7
100
AcDbLine
 10
109.033203
 20
98.959141
 30
0.0
 11
104.573807
 21
98.868632
 31
0.0
  0
LINE
  5
4ca
100
AcDbEntity
  8
border
 62
7
100
AcDbLine
 10
104.573807
 20
98.868632
 30
0.0
 11
100.102791
 21
99.074457
 31
0.0
  0
LINE
  5
4cb
100
AcDbEntity
  8
border
 62
7
100
AcDbLine
 10
100.102791
 20
99.074457
 30
0.0
 11
98.979931
 21
99.053572
 31
0.0
  0
LINE
  5
4cc
100
AcDbEntity
  8
border
 62
7
100
AcDbLine
 10
98.979931
 20
99.053572
 30
0.0
 11
97.913256
 21
98.822094
 31
0.0
  0
LINE
  5
4cd
100
AcDbEntity
  8
border
 62
7
100
AcDbLine
 10
97.913256
 20
98.822094
 30
0.0
 11
96.925941
 21
98.399043
 31
0.0
  0
LINE
  5
4ce
100
AcDbEntity
  8
border
 62
7
100
AcDbLine
 10
96.925941
 20
98.399043
 30
0.0
 11
96.041162
 21
97.803384
 31
0.0
  0
LINE
  5
4cf
100
AcDbEntity
  8
border
 62
7
100
AcDbLine
 10
96.041162
 20
97.803384
 30
0.0
 11
95.282094
 21
97.054084
 31
0.0
  0
LINE
  5
4d0
100
AcDbEntity
  8
border
 62
7
100
AcDbLine
 10
95.282094
 20
97.054084
 30
0.0
 11
94.671914
 21
96.170108
 31
0.0
  0
LINE
  5
4d1
100
AcDbEntity
  8
border
 62
7
100
AcDbLine
 10
94.671914
 20
96.170108
 30
0.0
 11
94.233796
 21
95.170392
 31
0.0
  0
LINE
  5
4d2
100
AcDbEntity
  8
border
 62
7
100
AcDbLine
 10
94.233796
 20
95.170392
 30
0.0
 11
93.990916
 21
94.073902
 31
0.0
  0
LINE
  5
4d3
100
AcDbEntity
  8
border
 62
7
100
AcDbLine
 10
93.990916
 20
94.073902
 30
0.0
 11
92.555514
 21
82.722925
 31
0.0
  0
LINE
  5
4d4
100
AcDbEntity
  8
border
 62
7
100
AcDbLine
 10
92.555514
 20
82.722925
 30
0.0
 11
91.195152
 21
71.213902
 31
0.0
  0
LINE
  5
4d5
100
AcDbEntity
  8
border
 62
7
100
AcDbLine
 10
91.195152
 20
71.213902
 30
0.0
 11
91.208795
 21
69.902952
 31
0.0
  0
LINE
  5
4d6
100
AcDbEntity
  8
border
 62
7
100
AcDbLine
 10
91.208795
 20
69.902952
 30
0.0
 11
91.521473
 21
68.629791
 31
0.0
  0
LINE
  5
4d7
100
AcDbEntity
  8
border
 62
7
100
AcDbLine
 10
91.521473
 20
68.629791
 30
0.0
 11
100.190987
 21
45.708069
 31
0.0
  0
LINE
  5
4d8
100
AcDbEntity
  8
border
 62
7
100
AcDbLine
 10
100.190987
 20
45.708069
 30
0.0
 11
100.590504
 21
44.876755
 31
0.0
  0
LINE
  5
4d9
100
AcDbEntity
  8
border
 62
7
100
AcDbLine
 10
100.590504
 20
44.876755
 30
0.0
 11
101.107724
 21
44.134511
 31
0.0
  0
LINE
  5
4da
100
AcDbEntity
  8
border
 62
7
100
AcDbLine
 10
101.107724
 20
44.134511
 30
0.0
 11
101.728302
 21
43.490508
 31
0.0
  0
LINE
  5
4db
100
AcDbEntity
  8
border
 62
7
100
AcDbLine
 10
101.728302
 20
43.490508
 30
0.0
 11
102.437894
 21
42.953919
 31
0.0
  0
LINE
  5
4dc
100
AcDbEntity
  8
border
 62
7
100
AcDbLine
 10
102.437894
 20
42.953919
 30
0.0
 11
103.222156
 21
42.533972
 31
0.0
  0
LINE
  5
4dd
100
AcDbEntity
  8
border
 62
7
100
AcDbLine
 10
103.222156
 20
42.533972
 30
0.0
 11
104.066745
 21
42.239812
 31
0.0
  0
LINE
  5
4de
100
AcDbEntity
  8
border
 62
7
100
AcDbLine
 10
104.066745
 20
42.239812
 30
0.0
 11
104.957317
 21
42.080639
 31
0.0
  0
LINE
  5
4df
100
AcDbEntity
  8
border
 62
7
100
AcDbLine
 10
104.957317
 20
42.080639
 30
0.0
 11
105.879528
 21
42.065681
 31
0.0
  0
LINE
  5
4e0
100
AcDbEntity
  8
border
 62
7
100
AcDbLine
 10
105.879528
 20
42.065681
 30
0.0
 11
120.890223
 21
43.053459
 31
0.0
  0
LINE
  5
4e1
100
AcDbEntity
  8
border
 62
7
100
AcDbLine
 10
120.890223
 20
43.053459
 30
0.0
 11
121.811255
 21
43.189320
 31
0.0
  0
LINE
  5
4e2
100
AcDbEntity
  8
border
 62
7
100
AcDbLine
 10
121.811255
 20
43.189320
 30
0.0
 11
122.681003
 21
43.466519
 31
0.0
  0
LINE
  5
4e3
100
AcDbEntity
  8
border
 62
7
100
AcDbLine
 10
122.681003
 20
43.466519
 30
0.0
 11
123.486139
 21
43.873737
 31
0.0
  0
LINE
  5
4e4
100
AcDbEntity
  8
border
 62
7
100
AcDbLine
 10
123.486139
 20
43.873737
 30
0.0
 11
124.213331
 21
44.399602
 31
0.0
  0
LINE
  5
4e5
100
AcDbEntity
  8
border
 62
7
100
AcDbLine
 10
124.213331
 20
44.399602
 30
0.0
 11
124.849249
 21
45.032824
 31
0.0
  0
LINE
  5
4e6
100
AcDbEntity
  8
border
 62
7
100
AcDbLine
 10
124.849249
 20
45.032824
 30
0.0
 11
125.380563
 21
45.762058
 31
0.0
  0
LINE
  5
4e7
100
AcDbEntity
  8
border
 62
7
100
AcDbLine
 10
125.380563
 20
45.762058
 30
0.0
 11
125.793942
 21
46.575959
 31
0.0
  0
LINE
  5
4e8
100
AcDbEntity
  8
border
 62
7
100
AcDbLine
 10
125.793942
 20
46.575959
 30
0.0
 11
126.076056
 21
47.463181
 31
0.0
  0
LINE
  5
4e9
100
AcDbEntity
  8
border
 62
7
100
AcDbLine
 10
126.076056
 20
47.463181
 30
0.0
 11
130.776820
 21
67.659737
 31
0.0
  0
LINE
  5
4ea
100
AcDbEntity
  8
border
 62
7
100
AcDbLine
 10
130.776820
 20
67.659737
 30
0.0
 11
135.186479
 21
69.040904
 31
0.0
  0
LINE
  5
4eb
100
AcDbEntity
  8
border
 62
7
100
AcDbLine
 10
135.186479
 20
69.040904
 30
0.0
 11
139.534527
 21
70.605403
 31
0.0
  0
LINE
  5
4ec
100
AcDbEntity
  8
border
 62
7
100
AcDbLine
 10
139.534527
 20
70.605403
 30
0.0
 11
155.480083
 21
57.314514
 31
0.0
  0
LINE
  5
4ed
100
AcDbEntity
  8
border
 62
7
100
AcDbLine
 10
155.480083
 20
57.314514
 30
0.0
 11
156.241973
 21
56.778715
 31
0.0
  0
LINE
  5
4ee
100
AcDbEntity
  8
border
 62
7
100
AcDbLine
 10
156.241973
 20
56.778715
 30
0.0
 11
157.064024
 21
56.380839
 31
0.0
  0
LINE
  5
4ef
100
AcDbEntity
  8
border
 62
7
100
AcDbLine
 10
157.064024
 20
56.380839
 30
0.0
 11
157.928736
 21
56.121900
 31
0.0
  0
LINE
  5
4f0
100
AcDbEntity
  8
border
 62
7
100
AcDbLine
 10
157.928736
 20
56.121900
 30
0.0
 11
158.818614
 21
56.002802
 31
0.0
  0
LINE
  5
4f1
100
AcDbEntity
  8
border
 62
7
100
AcDbLine
 10
158.818614
 20
56.002802
 30
0.0
 11
159.716162
 21
56.024533
 31
0.0
  0
LINE
  5
4f2
100
AcDbEntity
  8
border
 62
7
100
AcDbLine
 10
159.716162
 20
56.024533
 30
0.0
 11
160.603887
 21
56.188024
 31
0.0
  0
LINE
  5
4f3
100
AcDbEntity
  8
border
 62
7
100
AcDbLine
 10
160.603887
 20
56.188024
 30
0.0
 11
161.464289
 21
56.494207
 31
0.0
  0
LINE
  5
4f4
100
AcDbEntity
  8
border
 62
7
100
AcDbLine
 10
161.464289
 20
56.494207
 30
0.0
 11
162.279875
 21
56.944098
 31
0.0
  0
LINE
  5
4f5
100
AcDbEntity
  8
border
 62
7
100
AcDbLine
 10
162.279875
 20
56.944098
 30
0.0
 11
174.874041
 21
65.234375
 31
0.0
  0
LINE
  5
4f6
100
AcDbEntity
  8
border
 62
7
100
AcDbLine
 10
174.874041
 20
65.234375
 30
0.0
 11
175.607162
 21
65.807569
 31
0.0
  0
LINE
  5
4f7
100
AcDbEntity
  8
border
 62
7
100
AcDbLine
 10
175.607162
 20
65.807569
 30
0.0
 11
176.225934
 21
66.478185
 31
0.0
  0
LINE
  5
4f8
100
AcDbEntity
  8
border
 62
7
100
AcDbLine
 10
176.225934
 20
66.478185
 30
0.0
 11
176.724378
 21
67.229828
 31
0.0
  0
LINE
  5
4f9
100
AcDbEntity
  8
border
 62
7
100
AcDbLine
 10
176.724378
 20
67.229828
 30
0.0
 11
177.096513
 21
68.046043
 31
0.0
  0
LINE
  5
4fa
100
AcDbEntity
  8
border
 62
7
100
AcDbLine
 10
177.096513
 20
68.046043
 30
0.0
 11
177.336360
 21
68.910461
 31
0.0
  0
LINE
  5
4fb
100
AcDbEntity
  8
border
 62
7
100
AcDbLine
 10
177.336360
 20
68.910461
 30
0.0
 11
177.437940
 21
69.806601
 31
0.0
  0
LINE
  5
4fc
100
AcDbEntity
  8
border
 62
7
100
AcDbLine
 10
177.437940
 20
69.806601
 30
0.0
 11
177.395271
 21
70.718066
 31
0.0
  0
LINE
  5
4fd
100
AcDbEntity
  8
border
 62
7
100
AcDbLine
 10
177.395271
 20
70.718066
 30
0.0
 11
177.202375
 21
71.628459
 31
0.0
  0
LINE
  5
4fe
100
AcDbEntity
  8
border
 62
7
100
AcDbLine
 10
177.202375
 20
71.628459
 30
0.0
 11
171.302166
 21
91.507515
 31
0.0
  0
LINE
  5
4ff
100
AcDbEntity
  8
border
 62
7
100
AcDbLine
 10
171.302166
 20
91.507515
 30
0.0
 11
174.832253
 21
95.287401
 31
0.0
  0
LINE
  5
500
100
AcDbEntity
  8
border
 62
7
100
AcDbLine
 10
174.832253
 20
95.287401
 30
0.0
 11
178.207791
 21
99.286236
 31
0.0
  0
LINE
  5
501
100
AcDbEntity
  8
border
 62
7
100
AcDbLine
 10
178.207791
 20
99.286236
 30
0.0
 11
198.686541
 21
95.864292
 31
0.0
  0
LINE
  5
502
100
AcDbEntity
  8
border
 62
7
100
AcDbLine
 10
198.686541
 20
95.864292
 30
0.0
 11
199.614313
 21
95.785411
 31
0.0
  0
LINE
  5
503
100
AcDbEntity
  8
border
 62
7
100
AcDbLine
 10
199.614313
 20
95.785411
 30
0.0
 11
200.524559
 21
95.855910
 31
0.0
  0
LINE
  5
504
100
AcDbEntity
  8
border
 62
7
100
AcDbLine
 10
200.524559
 20
95.855910
 30
0.0
 11
201.401694
 21
96.067802
 31
0.0
  0
LINE
  5
505
100
AcDbEntity
  8
border
 62
7
100
AcDbLine
 10
201.401694
 20
96.067802
 30
0.0
 11
202.230146
 21
96.413101
 31
0.0
  0
LINE
  5
506
100
AcDbEntity
  8
border
 62
7
100
AcDbLine
 10
202.230146
 20
96.413101
 30
0.0
 11
202.994331
 21
96.883820
 31
0.0
  0
LINE
  5
507
100
AcDbEntity
  8
border
 62
7
100
AcDbLine
 10
202.994331
 20
96.883820
 30
0.0
 11
203.678669
 21
97.471999
 31
0.0
  0
LINE
  5
508
100
AcDbEntity
  8
border
 62
7
100
AcDbLine
 10
203.678669
 20
97.471999
 30
0.0
 11
204.267585
 21
98.169624
 31
0.0
  0
LINE
  5
509
100
AcDbEntity
  8
border
 62
7
100
AcDbLine
 10
204.267585
 20
98.169624
 30
0.0
 11
204.745500
 21
98.968736
 31
0.0
  0
LINE
  5
50a
100
AcDbEntity
  8
border
 62
7
100
AcDbLine
 10
204.745500
 20
98.968736
 30
0.0
 11
211.395361
 21
112.444847
 31
0.0
  0
LINE
  5
50b
100
AcDbEntity
  8
border
 62
7
100
AcDbLine
 10
211.395361
 20
112.444847
 30
0.0
 11
211.738546
 21
113.305738
 31
0.0
  0
LINE
  5
50c
100
AcDbEntity
  8
border
 62
7
100
AcDbLine
 10
211.738546
 20
113.305738
 30
0.0
 11
211.935091
 21
114.193101
 31
0.0
  0
LINE
  5
50d
100
AcDbEntity
  8
border
 62
7
100
AcDbLine
 10
211.935091
 20
114.193101
 30
0.0
 11
211.988030
 21
115.089947
 31
0.0
  0
LINE
  5
50e
100
AcDbEntity
  8
border
 62
7
100
AcDbLine
 10
211.988030
 20
115.089947
 30
0.0
 11
211.900392
 21
115.979257
 31
0.0
  0
LINE
  5
50f
100
AcDbEntity
  8
border
 62
7
100
AcDbLine
 10
211.900392
 20
115.979257
 30
0.0
 11
211.675212
 21
116.844015
 31
0.0
  0
LINE
  5
510
100
AcDbEntity
  8
border
 62
7
100
AcDbLine
 10
211.675212
 20
116.844015
 30
0.0
 11
211.315523
 21
117.667285
 31
0.0
  0
LINE
  5
511
100
AcDbEntity
  8
border
 62
7
100
AcDbLine
 10
211.315523
 20
117.667285
 30
0.0
 11
210.824352
 21
118.431994
 31
0.0
  0
LINE
  5
512
100
AcDbEntity
  8
border
 62
7
100
AcDbLine
 10
210.824352
 20
118.431994
 30
0.0
 11
210.204736
 21
119.121181
 31
0.0
  0
LINE
  5
513
100
AcDbEntity
  8
border
 62
7
100
AcDbLine
 10
210.204736
 20
119.121181
 30
0.0
 11
195.167583
 21
133.311681
 31
0.0
  0
LINE
  5
514
100
AcDbEntity
  8
border
 62
7
100
AcDbLine
 10
195.167583
 20
133.311681
 30
0.0
 11
196.325623
 21
138.368906
 31
0.0
  0
LINE
  5
515
100
AcDbEntity
  8
border
 62
7
100
AcDbLine
 10
196.325623
 20
138.368906
 30
0.0
 11
197.187236
 21
143.480487
 31
0.0
  0
LINE
  5
516
100
AcDbEntity
  8
border
 62
7
100
AcDbLine
 10
197.187236
 20
143.480487
 30
0.0
 11
216.545916
 21
150.782987
 31
0.0
  0
LINE
  5
517
100
AcDbEntity
  8
border
 62
7
100
AcDbLine
 10
216.545916
 20
150.782987
 30
0.0
 11
217.383416
 21
151.180703
 31
0.0
  0
LINE
  5
518
100
AcDbEntity
  8
border
 62
7
100
AcDbLine
 10
217.383416
 20
151.180703
 30
0.0
 11
218.131362
 21
151.697666
 31
0.0
  0
LINE
  5
519
100
AcDbEntity
  8
border
 62
7
100
AcDbLine
 10
218.131362
 20
151.697666
 30
0.0
 11
218.780405
 21
152.319328
 31
0.0
  0
LINE
  5
51a
100
AcDbEntity
  8
border
 62
7
100
AcDbLine
 10
218.780405
 20
152.319328
 30
0.0
 11
219.321197
 21
153.031152
 31
0.0
  0
LINE
  5
51b
100
AcDbEntity
  8
border
 62
7
100
AcDbLine
 10
219.321197
 20
153.031152
 30
0.0
 11
219.744380
 21
153.818589
 31
0.0
  0
LINE
  5
51c
100
AcDbEntity
  8
border
 62
7
100
AcDbLine
 10
219.744380
 20
153.818589
 30
0.0
 11
220.040612
 21
154.667098
 31
0.0
  0
LINE
  5
51d
100
AcDbEntity
  8
border
 62
7
100
AcDbLine
 10
220.040612
 20
154.667098
 30
0.0
 11
220.200536
 21
155.562140
 31
0.0
  0
LINE
  5
51e
100
AcDbEntity
  8
border
 62
7
100
AcDbLine
 10
220.200536
 20
155.562140
 30
0.0
 11
220.214817
 21
156.489167
 31
0.0
  0
LINE
  5
51f
100
AcDbEntity
  8
border
 62
7
100
AcDbLine
 10
220.214817
 20
156.489167
 30
0.0
 11
219.218219
 21
171.499862
 31
0.0
  0
LINE
  5
520
100
AcDbEntity
  8
border
 62
7
100
AcDbLine
 10
219.218219
 20
171.499862
 30
0.0
 11
219.082908
 21
172.420019
 31
0.0
  0
LINE
  5
521
100
AcDbEntity
  8
border
 62
7
100
AcDbLine
 10
219.082908
 20
172.420019
 30
0.0
 11
218.806505
 21
173.289088
 31
0.0
  0
LINE
  5
522
100
AcDbEntity
  8
border
 62
7
100
AcDbLine
 10
218.806505
 20
173.289088
 30
0.0
 11
218.400297
 21
174.093763
 31
0.0
  0
LINE
  5
523
100
AcDbEntity
  8
border
 62
7
100
AcDbLine
 10
218.400297
 20
174.093763
 30
0.0
 11
217.875575
 21
174.820748
 31
0.0
  0
LINE
  5
524
100
AcDbEntity
  8
border
 62
7
100
AcDbLine
 10
217.875575
 20
174.820748
 30
0.0
 11
217.243626
 21
175.456736
 31
0.0
  0
LINE
  5
525
100
AcDbEntity
  8
border
 62
7
100
AcDbLine
 10
217.243626
 20
175.456736
 30
0.0
 11
216.515741
 21
175.988423
 31
0.0
  0
LINE
  5
526
100
AcDbEntity
  8
border
 62
7
100
AcDbLine
 10
216.515741
 20
175.988423
 30
0.0
 11
215.703209
 21
176.402510
 31
0.0
  0
LINE
  5
527
100
AcDbEntity
  8
border
 62
7
100
AcDbLine
 10
215.703209
 20
176.402510
 30
0.0
 11
214.817317
 21
176.685695
 31
0.0
  0
LINE
  5
528
100
AcDbEntity
  8
border
 62
7
100
AcDbLine
 10
214.817317
 20
176.685695
 30
0.0
 11
194.673705
 21
181.368820
 31
0.0
  0
LINE
  5
529
100
AcDbEntity
  8
border
 62
7
100
AcDbLine
 10
194.673705
 20
181.368820
 30
0.0
 11
193.232394
 21
185.849504
 31
0.0
  0
LINE
  5
52a
100
AcDbEntity
  8
border
 62
7
100
AcDbLine
 10
193.232394
 20
185.849504
 30
0.0
 11
191.639817
 21
190.108889
 31
0.0
  0
LINE
  5
52b
100
AcDbEntity
  8
border
 62
7
100
AcDbLine
 10
191.639817
 20
190.108889
 30
0.0
 11
204.957178
 21
206.116181
 31
0.0
  0
LINE
  5
52c
100
AcDbEntity
  8
border
 62
7
100
AcDbLine
 10
204.957178
 20
206.116181
 30
0.0
 11
205.494774
 21
206.880289
 31
0.0
  0
LINE
  5
52d
100
AcDbEntity
  8
border
 62
7
100
AcDbLine
 10
205.494774
 20
206.880289
 30
0.0
 11
205.893557
 21
207.704863
 31
0.0
  0
LINE
  5
52e
100
AcDbEntity
  8
border
 62
7
100
AcDbLine
 10
205.893557
 20
207.704863
 30
0.0
 11
206.152595
 21
208.572251
 31
0.0
  0
LINE
  5
52f
100
AcDbEntity
  8
border
 62
7
100
AcDbLine
 10
206.152595
 20
208.572251
 30
0.0
 11
206.270945
 21
209.464804
 31
0.0
  0
LINE
  5
530
100
AcDbEntity
  8
border
 62
7
100
AcDbLine
 10
206.270945
 20
209.464804
 30
0.0
 11
206.247690
 21
210.364867
 31
0.0
  0
LINE
  5
531
100
AcDbEntity
  8
border
 62
7
100
AcDbLine
 10
206.247690
 20
210.364867
 30
0.0
 11
206.081861
 21
211.254790
 31
0.0
  0
LINE
  5
532
100
AcDbEntity
  8
border
 62
7
100
AcDbLine
 10
206.081861
 20
211.254790
 30
0.0
 11
205.772540
 21
212.116923
 31
0.0
  0
LINE
  5
533
100
AcDbEntity
  8
border
 62
7
100
AcDbLine
 10
205.772540
 20
212.116923
 30
0.0
 11
205.318789
 21
212.933612
 31
0.0
  0
LINE
  5
534
100
AcDbEntity
  8
border
 62
7
100
AcDbLine
 10
205.318789
 20
212.933612
 30
0.0
 11
197.028511
 21
225.457223
 31
0.0
  0
LINE
  5
535
100
AcDbEntity
  8
border
 62
7
100
AcDbLine
 10
197.028511
 20
225.457223
 30
0.0
 11
196.461496
 21
226.180205
 31
0.0
  0
LINE
  5
536
100
AcDbEntity
  8
border
 62
7
100
AcDbLine
 10
196.461496
 20
226.180205
 30
0.0
 11
195.799363
 21
226.791784
 31
0.0
  0
LINE
  5
537
100
AcDbEntity
  8
border
 62
7
100
AcDbLine
 10
195.799363
 20
226.791784
 30
0.0
 11
195.057911
 21
227.286116
 31
0.0
  0
LINE
  5
538
100
AcDbEntity
  8
border
 62
7
100
AcDbLine
 10
195.057911
 20
227.286116
 30
0.0
 11
194.252937
 21
227.657348
 31
0.0
  0
LINE
  5
539
100
AcDbEntity
  8
border
 62
7
100
AcDbLine
 10
194.252937
 20
227.657348
 30
0.0
 11
193.400243
 21
227.899639
 31
0.0
  0
LINE
  5
53a
100
AcDbEntity
  8
border
 62
7
100
AcDbLine
 10
193.400243
 20
227.899639
 30
0.0
 11
192.515620
 21
228.007137
 31
0.0
  0
LINE
  5
53b
100
AcDbEntity
  8
border
 62
7
100
AcDbLine
 10
192.515620
 20
228.007137
 30
0.0
 11
191.614868
 21
227.973999
 31
0.0
  0
LINE
  5
53c
100
AcDbEntity
  8
border
 62
7
100
AcDbLine
 10
191.614868
 20
227.973999
 30
0.0
 11
190.713789
 21
227.794375
 31
0.0
  0
LINE
  5
53d
100
AcDbEntity
  8
border
 62
7
100
AcDbLine
 10
190.713789
 20
227.794375
 30
0.0
 11
170.649553
 21
222.026459
 31
0.0
  0
LINE
  5
53e
100
AcDbEntity
  8
border
 62
7
100
AcDbLine
 10
170.649553
 20
222.026459
 30
0.0
 11
166.941113
 21
225.467004
 31
0.0
  0
LINE
  5
53f
100
AcDbEntity
  8
border
 62
7
100
AcDbLine
 10
166.941113
 20
225.467004
 30
0.0
 11
163.047192
 21
228.746875
 31
0.0
  0
LINE
  5
540
100
AcDbEntity
  8
border
 62
7
100
AcDbLine
 10
163.047192
 20
228.746875
 30
0.0
 11
163.241220
 21
230.360834
 31
0.0
  0
LINE
  5
541
100
AcDbEntity
  8
border
 62
7
100
AcDbLine
 10
163.241220
 20
230.360834
 30
0.0
 11
166.407400
 21
249.296181
 31
0.0
  0
LINE
  5
542
100
AcDbEntity
  8
border
 62
7
100
AcDbLine
 10
166.407400
 20
249.296181
 30
0.0
 11
166.486278
 21
250.223953
 31
0.0
  0
LINE
  5
543
100
AcDbEntity
  8
border
 62
7
100
AcDbLine
 10
166.486278
 20
250.223953
 30
0.0
 11
166.415782
 21
251.134198
 31
0.0
  0
LINE
  5
544
100
AcDbEntity
  8
border
 62
7
100
AcDbLine
 10
166.415782
 20
251.134198
 30
0.0
 11
166.203895
 21
252.011334
 31
0.0
  0
LINE
  5
545
100
AcDbEntity
  8
border
 62
7
100
AcDbLine
 10
166.203895
 20
252.011334
 30
0.0
 11
165.858596
 21
252.839786
 31
0.0
  0
LINE
  5
546
100
AcDbEntity
  8
border
 62
7
100
AcDbLine
 10
165.858596
 20
252.839786
 30
0.0
 11
165.387872
 21
253.603970
 31
0.0
  0
LINE
  5
547
100
AcDbEntity
  8
border
 62
7
100
AcDbLine
 10
165.387872
 20
253.603970
 30
0.0
 11
164.799701
 21
254.288308
 31
0.0
  0
LINE
  5
548
100
AcDbEntity
  8
border
 62
7
100
AcDbLine
 10
164.799701
 20
254.288308
 30
0.0
 11
164.102068
 21
254.877224
 31
0.0
  0
LINE
  5
549
100
AcDbEntity
  8
border
 62
7
100
AcDbLine
 10
164.102068
 20
254.877224
 30
0.0
 11
163.302956
 21
255.355139
 31
0.0
  0
LINE
  5
54a
100
AcDbEntity
  8
border
 62
7
100
AcDbLine
 10
163.302956
 20
255.355139
 30
0.0
 11
149.826845
 21
262.005000
 31
0.0
  0
LINE
  5
54b
100
AcDbEntity
  8
border
 62
7
100
AcDbLine
 10
149.826845
 20
262.005000
 30
0.0
 11
148.965957
 21
262.348185
 31
0.0
  0
LINE
  5
54c
100
AcDbEntity
  8
border
 62
7
100
AcDbLine
 10
148.965957
 20
262.348185
 30
0.0
 11
148.078596
 21
262.544731
 31
0.0
  0
LINE
  5
54d
100
AcDbEntity
  8
border
 62
7
100
AcDbLine
 10
148.078596
 20
262.544731
 30
0.0
 11
147.181759
 21
262.597670
 31
0.0
  0
LINE
  5
54e
100
AcDbEntity
  8
border
 62
7
100
AcDbLine
 10
147.181759
 20
262.597670
 30
0.0
 11
146.292449
 21
262.510031
 31
0.0
  0
LINE
  5
54f
100
AcDbEntity
  8
border
 62
7
100
AcDbLine
 10
146.292449
 20
262.510031
 30
0.0
 11
145.427666
 21
262.284852
 31
0.0
  0
LINE
  5
550
100
AcDbEntity
  8
border
 62
7
100
AcDbLine
 10
145.427666
 20
262.284852
 30
0.0
 11
144.604415
 21
261.925163
 31
0.0
  0
LINE
  5
551
100
AcDbEntity
  8
border
 62
7
100
AcDbLine
 10
144.604415
 20
261.925163
 30
0.0
 11
143.839698
 21
261.433991
 31
0.0
  0
LINE
  5
552
100
AcDbEntity
  8
border
 62
7
100
AcDbLine
 10
143.839698
 20
261.433991
 30
0.0
 11
143.150511
 21
260.814375
 31
0.0
  0
LINE
  5
553
100
AcDbEntity
  8
border
 62
7
100
AcDbLine
 10
143.150511
 20
260.814375
 30
0.0
 11
128.871831
 21
245.680209
 31
0.0
  0
LINE
  5
554
100
AcDbEntity
  8
border
 62
7
100
AcDbLine
 10
128.871831
 20
245.680209
 30
0.0
 11
124.009020
 21
246.808485
 31
0.0
  0
LINE
  5
555
100
AcDbEntity
  8
border
 62
7
100
AcDbLine
 10
124.009020
 20
246.808485
 30
0.0
 11
121.533743
 21
247.291681
 31
0.0
  0
LINE
  5
556
100
AcDbEntity
  8
border
 62
7
100
AcDbLine
 10
121.533743
 20
247.291681
 30
0.0
 11
119.020512
 21
247.699862
 31
0.0
  0
LINE
  5
557
100
AcDbEntity
  8
border
 62
7
100
AcDbLine
 10
119.020512
 20
247.699862
 30
0.0
 11
118.473706
 21
248.705278
 31
0.0
  0
LINE
  5
558
100
AcDbEntity
  8
border
 62
7
100
AcDbLine
 10
118.473706
 20
248.705278
 30
0.0
 11
111.497526
 21
267.146737
 31
0.0
  0
LINE
  5
559
100
AcDbEntity
  8
border
 62
7
100
AcDbLine
 10
111.497526
 20
267.146737
 30
0.0
 11
111.127335
 21
267.934910
 31
0.0
  0
LINE
  5
55a
100
AcDbEntity
  8
border
 62
7
100
AcDbLine
 10
111.127335
 20
267.934910
 30
0.0
 11
110.650567
 21
268.645718
 31
0.0
  0
LINE
  5
55b
100
AcDbEntity
  8
border
 62
7
100
AcDbLine
 10
110.650567
 20
268.645718
 30
0.0
 11
110.079058
 21
269.270919
 31
0.0
  0
LINE
  5
55c
100
AcDbEntity
  8
border
 62
7
100
AcDbLine
 10
110.079058
 20
269.270919
 30
0.0
 11
109.424646
 21
269.802275
 31
0.0
  0
LINE
  5
55d
100
AcDbEntity
  8
border
 62
7
100
AcDbLine
 10
109.424646
 20
269.802275
 30
0.0
 11
108.699166
 21
270.231547
 31
0.0
  0
LINE
  5
55e
100
AcDbEntity
  8
border
 62
7
100
AcDbLine
 10
108.699166
 20
270.231547
 30
0.0
 11
107.914453
 21
270.550492
 31
0.0
  0
LINE
  5
55f
100
AcDbEntity
  8
border
 62
7
100
AcDbLine
 10
107.914453
 20
270.550492
 30
0.0
 11
107.082346
 21
270.750870
 31
0.0
  0
LINE
  5
560
100
AcDbEntity
  8
border
 62
7
100
AcDbLine
 10
107.082346
 20
270.750870
 30
0.0
 11
106.214678
 21
270.824445
 31
0.0
  0
LINE
  5
561
100
AcDbEntity
  8
border
 62
7
100
AcDbLine
 10
106.214678
 20
270.824445
 30
0.0
 11
106.214678
 21
270.824445
 31
0.0
  0
LINE
  5
562
100
AcDbEntity
  8
border
 62
7
100
AcDbLine
 10
162.676761
 20
227.318125
 30
0.0
 11
162.656554
 21
227.098983
 31
0.0
  0
LINE
  5
563
100
AcDbEntity
  8
border
 62
7
100
AcDbLine
 10
162.656554
 20
227.098983
 30
0.0
 11
162.652575
 21
227.118908
 31
0.0
  0
LINE
  5
564
100
AcDbEntity
  8
border
 62
7
100
AcDbLine
 10
162.652575
 20
227.118908
 30
0.0
 11
162.676733
 21
227.318131
 31
0.0
  0
LINE
  5
565
100
AcDbEntity
  8
border
 62
7
100
AcDbLine
 10
162.676733
 20
227.318131
 30
0.0
 11
162.676733
 21
227.318131
 31
0.0
  0
ENDSEC
  0
SECTION
  2
OBJECTS
  0
DICTIONARY
  5
C
330
0
100
AcDbDictionary
  3
ACAD_GROUP
350
D
  3
ACAD_MLINESTYLE
350
17
  0
DICTIONARY
  5
D
330
C
100
AcDbDictionary
  0
DICTIONARY
  5
1A
330
C
100
AcDbDictionary
  0
DICTIONARY
  5
17
330
C
100
AcDbDictionary
  3
STANDARD
350
18
  0
DICTIONARY
  5
19
330
C
100
AcDbDictionary
  0
ENDSEC
  0
EOF
