<?xml version="1.0" encoding="UTF-8" standalone="no"?>
<!-- Created with Inkscape (http://www.inkscape.org/) -->

<svg
   xmlns:dc="http://purl.org/dc/elements/1.1/"
   xmlns:cc="http://creativecommons.org/ns#"
   xmlns:rdf="http://www.w3.org/1999/02/22-rdf-syntax-ns#"
   xmlns:svg="http://www.w3.org/2000/svg"
   xmlns="http://www.w3.org/2000/svg"
   xmlns:sodipodi="http://sodipodi.sourceforge.net/DTD/sodipodi-0.dtd"
   xmlns:inkscape="http://www.inkscape.org/namespaces/inkscape"
   id="svg2"
   version="1.1"
   inkscape:version="0.92.2 (5c3e80d, 2017-08-06)"
   xml:space="preserve"
   width="2400"
   height="1200"
   viewBox="0 0 2250 1125"
   sodipodi:docname="nova-labs_icon.svg"><metadata
     id="metadata8"><rdf:RDF><cc:Work
         rdf:about=""><dc:format>image/svg+xml</dc:format><dc:type
           rdf:resource="http://purl.org/dc/dcmitype/StillImage" /><dc:title /></cc:Work></rdf:RDF></metadata><defs
     id="defs6"><clipPath
       clipPathUnits="userSpaceOnUse"
       id="clipPath16"><path
         d="M 0,900 H 1800 V 0 H 0 Z"
         id="path18"
         inkscape:connector-curvature="0" /></clipPath><clipPath
       clipPathUnits="userSpaceOnUse"
       id="clipPath56"><path
         d="M 0,900 H 1800 V 0 H 0 Z"
         id="path58"
         inkscape:connector-curvature="0" /></clipPath><clipPath
       clipPathUnits="userSpaceOnUse"
       id="clipPath176"><path
         d="M 0,900 H 1800 V 0 H 0 Z"
         id="path178"
         inkscape:connector-curvature="0" /></clipPath></defs><sodipodi:namedview
     pagecolor="#ffffff"
     bordercolor="#666666"
     borderopacity="1"
     objecttolerance="10"
     gridtolerance="10"
     guidetolerance="10"
     inkscape:pageopacity="0"
     inkscape:pageshadow="2"
     inkscape:window-width="1381"
     inkscape:window-height="961"
     id="namedview4"
     showgrid="false"
     inkscape:zoom="0.50534566"
     inkscape:cx="195.04378"
     inkscape:cy="157.06762"
     inkscape:window-x="0"
     inkscape:window-y="27"
     inkscape:window-maximized="0"
     inkscape:current-layer="layer1" /><g
     id="g10"
     inkscape:groupmode="layer"
     inkscape:label="nova-labs_logo"
     transform="matrix(1.25,0,0,-1.25,0,1125)"
     style="display:inline"><g
       id="g188"
       transform="translate(-174.8004,-229.5639)"><path
         d="m 0,0 -0.208,-0.391 c 0,0 0.093,0.158 0.208,0.391"
         style="fill:#68696b;fill-opacity:1;fill-rule:nonzero;stroke:none"
         id="path190"
         inkscape:connector-curvature="0" /></g><g
       id="g192"
       transform="translate(-194.2648,-262.6499)"><path
         d="m 0,0 -0.201,-0.374 c 0,0 0.087,0.145 0.201,0.374"
         style="fill:#68696b;fill-opacity:1;fill-rule:nonzero;stroke:none"
         id="path194"
         inkscape:connector-curvature="0" /></g><g
       id="g196"
       transform="translate(-210.7394,-296.1264)"><path
         d="m 0,0 -0.206,-0.391 c 0,0 0.094,0.158 0.206,0.391"
         style="fill:#68696b;fill-opacity:1;fill-rule:nonzero;stroke:none"
         id="path198"
         inkscape:connector-curvature="0" /></g><g
       id="g200"
       transform="translate(-230.9098,-330.4936)"><path
         d="m 0,0 -0.201,-0.382 c 0,0 0.086,0.152 0.201,0.382"
         style="fill:#68696b;fill-opacity:1;fill-rule:nonzero;stroke:none"
         id="path202"
         inkscape:connector-curvature="0" /></g></g><g
     inkscape:groupmode="layer"
     id="layer3"
     inkscape:label="gear"
     style="display:none"><g
       style="display:inline"
       id="g180"
       transform="matrix(1.25,0,0,-1.25,315.40938,1197.8375)"><path
         d="m 0,0 c 0.531,2.126 1.026,4.205 1.501,6.337 0.469,2.074 0.917,4.086 1.334,6.17 0.02,0.104 -0.021,0.223 0,0.333 0.812,4.112 1.561,8.216 2.168,12.342 0.625,4.205 1.083,8.459 1.5,12.672 L 74.541,63.535 71.707,106.393 0.833,122.9 c -0.937,3.978 -1.88,7.907 -3.001,11.84 -1.104,3.873 -2.387,7.691 -3.668,11.508 -2.56,7.661 -5.417,15.144 -8.672,22.513 l 46.526,55.865 v 0.166 l -23.68,35.686 v 0.168 l -69.705,-20.68 c -0.266,0.288 -0.569,0.549 -0.834,0.834 -11.358,12.168 -24.024,23.389 -37.855,33.352 l 12.007,71.874 -38.522,19.01 -49.861,-52.863 c -16.603,5.084 -33.518,8.351 -50.36,10.007 l -1.502,3.835 c -0.078,0.214 -0.088,0.453 -0.166,0.668 v 0.332 l -11.34,30.017 -0.5,1.167 c -4.06,10.706 -8.127,21.338 -12.174,32.018 l -42.857,-2.835 -16.509,-70.872 c -15.701,-3.696 -31.111,-8.818 -45.859,-15.343 l -55.864,46.526 -36.02,-23.68 20.678,-69.705 c -6.243,-5.778 -12.301,-11.887 -18.01,-18.342 -2.854,-3.219 -5.631,-6.458 -8.338,-9.84 -0.026,-0.031 0.026,-0.133 0,-0.167 -2.705,-3.388 -5.287,-6.802 -7.838,-10.339 l -71.873,12.006 -19.011,-38.521 52.863,-49.862 c -1.102,-3.6 -2.063,-7.216 -3.001,-10.839 -0.402,-1.563 -0.798,-3.103 -1.168,-4.668 -0.68,-2.845 -1.42,-5.652 -2.001,-8.506 -0.088,-0.44 -0.081,-0.896 -0.167,-1.334 -0.815,-4.112 -1.56,-8.214 -2.167,-12.339 -0.621,-4.213 -1.085,-8.463 -1.502,-12.673 l -68.037,-25.683 2.835,-42.857 70.872,-16.508 c 0.926,-3.925 1.9,-7.791 3.002,-11.674 0.016,-0.051 -0.015,-0.114 0,-0.166 3.299,-11.591 7.468,-22.998 12.34,-34.019 l -46.526,-55.865 v -0.166 l 23.68,-35.687 v -0.166 l 69.706,20.677 57.277,53.92 c -29.66,32.299 -47.772,75.372 -47.772,122.679 0,100.2 81.23,181.434 181.434,181.434 100.204,0 181.434,-81.234 181.434,-181.434 0,-100.202 -81.23,-181.434 -181.434,-181.434 -5.413,0 -10.767,0.252 -16.06,0.715 l -9.454,-78.092 v -0.166 c 4.091,-11.445 8.635,-23.118 13.008,-34.686 4.207,-11.105 8.475,-22.111 12.673,-33.185 l 42.857,2.834 16.509,70.873 c 15.693,3.715 31.098,8.807 45.859,15.342 l 55.864,-46.525 36.021,23.68 -20.678,69.704 c 3.149,2.913 6.136,5.92 9.171,9.005 5.956,6.091 11.785,12.434 17.177,19.177 0.025,0.037 -0.027,0.13 0,0.167 2.707,3.388 5.283,6.796 7.837,10.339 l 71.873,-12.006 19.011,38.521 -52.863,49.861 C -2.233,-8.354 -1.056,-4.185 0,0"
         style="fill:#606164;fill-opacity:1;fill-rule:nonzero;stroke:none"
         id="path182"
         inkscape:connector-curvature="0" /></g></g><g
     inkscape:groupmode="layer"
     id="layer2"
     inkscape:label="threads"
     style="display:none"><g
       transform="matrix(1.25,0,0,-1.25,0,1125)"
       style="display:inline"
       id="g5390"><g
         transform="translate(-50.1896,-250.184)"
         id="g208"><path
           inkscape:connector-curvature="0"
           id="path210"
           style="fill:#606164;fill-opacity:1;fill-rule:nonzero;stroke:none"
           d="m 0,0 c -8.62,11.814 -7.259,14.472 -7.259,14.472 l -1.486,-2.565 c -4.291,-0.385 -16.657,3.925 -52.797,18.625 -66.391,26.969 -54.184,11.83 -66.951,10.538 l -2.395,-4.439 c 8.492,-9.558 6.931,-14.692 6.277,-16.011 l 2.069,3.841 c 5.136,1.174 27.802,-8.343 56.172,-20.125 46.338,-19.204 53.769,-12.413 62.886,-10.203 0.227,0.046 0.362,0.094 0.362,0.094 z" /></g><g
         transform="translate(-76.9074,-268.7876)"
         id="g212"><path
           inkscape:connector-curvature="0"
           id="path214"
           style="fill:#606164;fill-opacity:1;fill-rule:nonzero;stroke:none"
           d="m 0,0 -1.501,-2.59 c -4.289,-0.387 -16.637,3.923 -52.798,18.604 -66.375,27 -54.183,11.861 -66.943,10.568 l -2.395,-4.439 c 8.505,-9.6 6.923,-14.707 6.277,-16.005 l 2.074,3.815 c 5.131,1.183 27.802,-8.333 56.159,-20.099 46.338,-19.208 53.79,-12.424 62.895,-10.2 0.226,0.048 0.359,0.095 0.359,0.095 l 3.122,5.769 C -1.347,-2.663 0,0 0,0" /></g><g
         transform="translate(-93.3957,-302.2602)"
         id="g216"><path
           inkscape:connector-curvature="0"
           id="path218"
           style="fill:#606164;fill-opacity:1;fill-rule:nonzero;stroke:none"
           d="m 0,0 -1.48,-2.584 c -4.297,-0.396 -16.655,3.924 -52.803,18.615 -66.391,26.952 -54.189,11.849 -66.944,10.547 l -2.402,-4.44 c 8.479,-9.557 6.939,-14.675 6.285,-16.004 l 2.061,3.837 c 5.136,1.172 27.802,-8.355 56.172,-20.122 46.364,-19.229 53.795,-12.418 62.915,-10.193 0.211,0.052 0.339,0.094 0.339,0.094 l 3.116,5.747 C -1.339,-2.678 0,0 0,0" /></g><g
         transform="translate(-113.5529,-336.6333)"
         id="g220"><path
           inkscape:connector-curvature="0"
           id="path222"
           style="fill:#606164;fill-opacity:1;fill-rule:nonzero;stroke:none"
           d="m 0,0 -1.496,-2.579 c -4.281,-0.386 -16.634,3.925 -52.782,18.61 -66.396,26.978 -54.183,11.84 -66.951,10.547 l -2.4,-4.435 c 8.505,-9.594 6.923,-14.701 6.27,-16.003 l 2.082,3.824 c 5.135,1.173 27.801,-8.348 56.164,-20.105 46.319,-19.188 53.769,-12.434 62.881,-10.213 0.239,0.051 0.375,0.099 0.375,0.099 l 3.121,5.763 C -1.347,-2.668 0,0 0,0" /></g></g></g><g
     inkscape:groupmode="layer"
     id="layer1"
     inkscape:label="inner"
     style="display:none"><g
       transform="matrix(1.25,0,0,-1.25,0,1125)"
       style="display:inline"
       id="g5379"><g
         transform="translate(0.0208,178.5279)"
         id="g184"><path
           inkscape:connector-curvature="0"
           id="path186"
           style="fill:#f3744a;fill-opacity:1;fill-rule:nonzero;stroke:none"
           d="m 0,0 c -95.783,0 -173.43,-77.647 -173.43,-173.429 0,-45.234 17.325,-86.355 45.692,-117.232 l 20.895,19.759 c -23.131,25.37 -37.238,59.109 -37.238,96.143 0,78.84 63.912,142.746 142.747,142.746 78.837,0 142.746,-63.906 142.746,-142.746 0,-78.834 -63.909,-142.745 -142.746,-142.745 -3.458,0 -6.884,0.131 -10.279,0.372 l -3.563,-29.059 c 5.011,-0.439 10.053,-0.668 15.176,-0.668 95.782,0 173.43,77.648 173.43,173.43 C 173.43,-77.647 95.782,0 0,0" /></g><g
         transform="translate(-165.2091,-360.521)"
         id="g204"><path
           inkscape:connector-curvature="0"
           id="path206"
           style="fill:#f3744a;fill-opacity:1;fill-rule:nonzero;stroke:none"
           d="M 0,0 -28.148,14.08 -36.327,-2.272 -8.179,-16.354 Z" /></g><g
         transform="translate(2.7982,-24.7251)"
         id="g224"><path
           inkscape:connector-curvature="0"
           id="path226"
           style="fill:#f3744a;fill-opacity:1;fill-rule:nonzero;stroke:none"
           d="m 0,0 -28.135,14.088 -96.442,-192.765 28.136,-14.076 z" /></g></g></g></svg>