  0
SECTION
  2
HEADER
  9
$ACADVER
  1
AC1014
  9
$HANDSEED
  5
FFFF
  9
$MEASUREMENT
 70
     1
  0
ENDSEC
  0
SECTION
  2
TABLES
  0
TABLE
  2
VPORT
  5
8
330
0
100
AcDbSymbolTable
 70
     4
  0
VPORT
  5
2E
330
8
100
AcDbSymbolTableRecord
100
AcDbViewportTableRecord
  2
*ACTIVE
 70
     0
 10
0.0
 20
0.0
 11
1.0
 21
1.0
 12
210.0
 22
148.5
 13
0.0
 23
0.0
 14
10.0
 24
10.0
 15
10.0
 25
10.0
 16
0.0
 26
0.0
 36
1.0
 17
0.0
 27
0.0
 37
0.0
 40
341.0
 41
1.24
 42
50.0
 43
0.0
 44
0.0
 50
0.0
 51
0.0
 71
     0
 72
   100
 73
     1
 74
     3
 75
     0
 76
     0
 77
     0
 78
     0
  0
ENDTAB
  0
TABLE
  2
LTYPE
  5
5
330
0
100
AcDbSymbolTable
 70
     1
  0
LTYPE
  5
14
330
5
100
AcDbSymbolTableRecord
100
AcDbLinetypeTableRecord
  2
BYBLOCK
 70
     0
  3

 72
    65
 73
     0
 40
0.0
  0
LTYPE
  5
15
330
5
100
AcDbSymbolTableRecord
100
AcDbLinetypeTableRecord
  2
BYLAYER
 70
     0
  3

 72
    65
 73
     0
 40
0.0
  0
LTYPE
  5
16
330
5
100
AcDbSymbolTableRecord
100
AcDbLinetypeTableRecord
  2
CONTINUOUS
 70
     0
  3
Solid line
 72
    65
 73
     0
 40
0.0
  0
ENDTAB
  0
TABLE
  2
LAYER
  5
2
100
AcDbSymbolTable
 70
5
  0
LAYER
  5
50
100
AcDbSymbolTableRecord
100
AcDbLayerTableRecord
  2
0
 70
0
  6
CONTINUOUS
  0
LAYER
  5
51
100
AcDbSymbolTableRecord
100
AcDbLayerTableRecord
  2
nova-labs_logo
 70
0
  6
CONTINUOUS
  0
LAYER
  5
52
100
AcDbSymbolTableRecord
100
AcDbLayerTableRecord
  2
gear
 70
0
  6
CONTINUOUS
  0
LAYER
  5
53
100
AcDbSymbolTableRecord
100
AcDbLayerTableRecord
  2
threads
 70
0
  6
CONTINUOUS
  0
LAYER
  5
54
100
AcDbSymbolTableRecord
100
AcDbLayerTableRecord
  2
inner
 70
0
  6
CONTINUOUS
  0
ENDTAB
  0
TABLE
  2
STYLE
  5
3
330
0
100
AcDbSymbolTable
 70
     1
  0
STYLE
  5
11
330
3
100
AcDbSymbolTableRecord
100
AcDbTextStyleTableRecord
  2
STANDARD
 70
     0
 40
0.0
 41
1.0
 50
0.0
 71
     0
 42
2.5
  3
txt
  4

  0
ENDTAB
  0
TABLE
  2
VIEW
  5
6
330
0
100
AcDbSymbolTable
 70
     0
  0
ENDTAB
  0
TABLE
  2
UCS
  5
7
330
0
100
AcDbSymbolTable
 70
     0
  0
ENDTAB
  0
TABLE
  2
APPID
  5
9
330
0
100
AcDbSymbolTable
 70
     2
  0
APPID
  5
12
330
9
100
AcDbSymbolTableRecord
100
AcDbRegAppTableRecord
  2
ACAD
 70
     0
  0
ENDTAB
  0
TABLE
  2
DIMSTYLE
  5
A
330
0
100
AcDbSymbolTable
 70
     1
  0
DIMSTYLE
105
27
330
A
100
AcDbSymbolTableRecord
100
AcDbDimStyleTableRecord
  2
ISO-25
 70
     0
  3

  4

  5

  6

  7

 40
1.0
 41
2.5
 42
0.625
 43
3.75
 44
1.25
 45
0.0
 46
0.0
 47
0.0
 48
0.0
140
2.5
141
2.5
142
0.0
143
0.03937007874016
144
1.0
145
0.0
146
1.0
147
0.625
 71
     0
 72
     0
 73
     0
 74
     0
 75
     0
 76
     0
 77
     1
 78
     8
170
     0
171
     3
172
     1
173
     0
174
     0
175
     0
176
     0
177
     0
178
     0
270
     2
271
     2
272
     2
273
     2
274
     3
340
11
275
     0
280
     0
281
     0
282
     0
283
     0
284
     8
285
     0
286
     0
287
     3
288
     0
  0
ENDTAB
  0
TABLE
  2
BLOCK_RECORD
  5
1
330
0
100
AcDbSymbolTable
 70
     1
  0
BLOCK_RECORD
  5
1F
330
1
100
AcDbSymbolTableRecord
100
AcDbBlockTableRecord
  2
*MODEL_SPACE
  0
BLOCK_RECORD
  5
1B
330
1
100
AcDbSymbolTableRecord
100
AcDbBlockTableRecord
  2
*PAPER_SPACE
  0
ENDTAB
  0
ENDSEC
  0
SECTION
  2
BLOCKS
  0
BLOCK
  5
20
330
1F
100
AcDbEntity
  8
0
100
AcDbBlockBegin
  2
*MODEL_SPACE
 70
     0
 10
0.0
 20
0.0
 30
0.0
  3
*MODEL_SPACE
  1

  0
ENDBLK
  5
21
330
1F
100
AcDbEntity
  8
0
100
AcDbBlockEnd
  0
BLOCK
  5
1C
330
1B
100
AcDbEntity
 67
     1
  8
0
100
AcDbBlockBegin
  2
*PAPER_SPACE
  1

  0
ENDBLK
  5
1D
330
1B
100
AcDbEntity
 67
     1
  8
0
100
AcDbBlockEnd
  0
ENDSEC
  0
SECTION
  2
ENTITIES
  0
SPLINE
  5
100
100
AcDbEntity
  8
nova-labs_logo
 62
7
100
AcDbSpline
 70
8
 71
3
 72
8
 73
4
 74
0
 40
0
 40
0
 40
0
 40
0
 40
1
 40
1
 40
1
 40
1
 10
-57.880382
 20
-56.209042
 30
0.0
 10
-57.880382
 20
-56.209042
 30
0.0
 10
-57.849624
 20
-56.156787
 30
0.0
 10
-57.811591
 20
-56.079727
 30
0.0
  0
SPLINE
  5
101
100
AcDbEntity
  8
nova-labs_logo
 62
7
100
AcDbSpline
 70
8
 71
3
 72
8
 73
4
 74
0
 40
0
 40
0
 40
0
 40
0
 40
1
 40
1
 40
1
 40
1
 10
-64.315512
 20
-67.145925
 30
0.0
 10
-64.315512
 20
-67.145925
 30
0.0
 10
-64.286739
 20
-67.097970
 30
0.0
 10
-64.249035
 20
-67.022233
 30
0.0
  0
LWPOLYLINE
  5
102
100
AcDbEntity
  8
nova-labs_logo
 62
7
100
AcDbPolyline
 90
2
 70
0
 10
-57.811591
 20
-56.079727
 30
0.0
 10
-57.880382
 20
-56.209042
 30
0.0
  0
SPLINE
  5
103
100
AcDbEntity
  8
nova-labs_logo
 62
7
100
AcDbSpline
 70
8
 71
3
 72
8
 73
4
 74
0
 40
0
 40
0
 40
0
 40
0
 40
1
 40
1
 40
1
 40
1
 10
-69.765796
 20
-78.223203
 30
0.0
 10
-69.765796
 20
-78.223203
 30
0.0
 10
-69.734708
 20
-78.170947
 30
0.0
 10
-69.697666
 20
-78.093888
 30
0.0
  0
LWPOLYLINE
  5
104
100
AcDbEntity
  8
nova-labs_logo
 62
7
100
AcDbPolyline
 90
2
 70
0
 10
-64.249035
 20
-67.022233
 30
0.0
 10
-64.315512
 20
-67.145925
 30
0.0
  0
SPLINE
  5
105
100
AcDbEntity
  8
nova-labs_logo
 62
7
100
AcDbSpline
 70
8
 71
3
 72
8
 73
4
 74
0
 40
0
 40
0
 40
0
 40
0
 40
1
 40
1
 40
1
 40
1
 10
-76.435082
 20
-89.586461
 30
0.0
 10
-76.435082
 20
-89.586461
 30
0.0
 10
-76.406640
 20
-89.536191
 30
0.0
 10
-76.368606
 20
-89.460123
 30
0.0
  0
LWPOLYLINE
  5
106
100
AcDbEntity
  8
nova-labs_logo
 62
7
100
AcDbPolyline
 90
2
 70
0
 10
-69.697666
 20
-78.093888
 30
0.0
 10
-69.765796
 20
-78.223203
 30
0.0
  0
LWPOLYLINE
  5
107
100
AcDbEntity
  8
nova-labs_logo
 62
7
100
AcDbPolyline
 90
2
 70
0
 10
-76.368606
 20
-89.460123
 30
0.0
 10
-76.435082
 20
-89.586461
 30
0.0
  0
LWPOLYLINE
  5
108
100
AcDbEntity
  8
gear
 62
7
100
AcDbPolyline
 90
129
 70
0
 10
64.523736
 20
21.168317
 30
0.0
 10
64.151071
 20
14.635512
 30
0.0
 10
63.134555
 20
8.295291
 30
0.0
 10
61.506833
 20
2.179582
 30
0.0
 10
59.300546
 20
-3.679687
 30
0.0
 10
56.548345
 20
-9.250587
 30
0.0
 10
53.282868
 20
-14.501164
 30
0.0
 10
49.536763
 20
-19.399489
 30
0.0
 10
45.342672
 20
-23.913634
 30
0.0
 10
40.733241
 20
-28.011644
 30
0.0
 10
35.741115
 20
-31.661618
 30
0.0
 10
30.398934
 20
-34.831600
 30
0.0
 10
24.739349
 20
-37.489663
 30
0.0
 10
18.795000
 20
-39.603851
 30
0.0
 10
12.598533
 20
-41.142264
 30
0.0
 10
6.182592
 20
-42.072945
 30
0.0
 10
-0.420180
 20
-42.363966
 30
0.0
 10
-5.675693
 20
-42.119768
 30
0.0
 10
-8.431449
 20
-64.093670
 30
0.0
 10
-4.129331
 20
-75.592787
 30
0.0
 10
0.062000
 20
-86.568027
 30
0.0
 10
14.236060
 20
-85.630723
 30
0.0
 10
19.696068
 20
-62.190983
 30
0.0
 10
27.395113
 20
-60.003701
 30
0.0
 10
34.862977
 20
-57.116939
 30
0.0
 10
53.338831
 20
-72.504092
 30
0.0
 10
65.252027
 20
-64.672437
 30
0.0
 10
58.413207
 20
-41.619271
 30
0.0
 10
61.446325
 20
-38.641086
 30
0.0
 10
67.127293
 20
-32.271086
 30
0.0
 10
69.719251
 20
-28.824040
 30
0.0
 10
93.489749
 20
-32.794757
 30
0.0
 10
99.777240
 20
-20.054757
 30
0.0
 10
82.293904
 20
-3.564257
 30
0.0
 10
83.452117
 20
0.572169
 30
0.0
 10
83.948544
 20
2.668003
 30
0.0
 10
84.389670
 20
4.763662
 30
0.0
 10
85.106627
 20
8.900575
 30
0.0
 10
85.602719
 20
13.091577
 30
0.0
 10
108.104871
 20
21.585042
 30
0.0
 10
107.167584
 20
35.759433
 30
0.0
 10
83.727486
 20
41.218779
 30
0.0
 10
82.734967
 20
45.134609
 30
0.0
 10
81.521852
 20
48.940641
 30
0.0
 10
78.653770
 20
56.386345
 30
0.0
 10
94.041308
 20
74.889981
 30
0.0
 10
86.209708
 20
86.747613
 30
0.0
 10
63.018352
 20
80.073830
 30
0.0
 10
56.927270
 20
86.000457
 30
0.0
 10
50.360687
 20
91.242224
 30
0.0
 10
54.331751
 20
115.013051
 30
0.0
 10
41.591402
 20
121.300214
 30
0.0
 10
25.100916
 20
103.816878
 30
0.0
 10
16.802796
 20
105.896831
 30
0.0
 10
8.445394
 20
107.126484
 30
0.0
 10
7.921189
 20
108.560194
 30
0.0
 10
4.143269
 20
118.653057
 30
0.0
 10
3.977904
 20
119.039016
 30
0.0
 10
-0.048393
 20
129.628307
 30
0.0
 10
-14.222452
 20
128.690685
 30
0.0
 10
-19.682460
 20
105.251247
 30
0.0
 10
-27.384108
 20
103.064925
 30
0.0
 10
-34.849370
 20
100.176872
 30
0.0
 10
-53.325224
 20
115.564377
 30
0.0
 10
-65.238087
 20
107.732712
 30
0.0
 10
-58.399269
 20
84.679234
 30
0.0
 10
-64.355702
 20
78.613001
 30
0.0
 10
-67.113322
 20
75.358624
 30
0.0
 10
-67.113390
 20
75.303392
 30
0.0
 10
-69.705647
 20
71.883984
 30
0.0
 10
-93.476144
 20
75.854721
 30
0.0
 10
-99.763635
 20
63.114701
 30
0.0
 10
-82.280299
 20
46.623885
 30
0.0
 10
-83.272817
 20
43.039108
 30
0.0
 10
-83.659111
 20
41.495266
 30
0.0
 10
-84.348514
 20
38.461487
 30
0.0
 10
-85.092820
 20
34.160021
 30
0.0
 10
-85.589576
 20
29.968676
 30
0.0
 10
-108.091395
 20
21.474575
 30
0.0
 10
-107.153778
 20
7.300515
 30
0.0
 10
-83.714341
 20
1.840826
 30
0.0
 10
-82.721525
 20
-2.047571
 30
0.0
 10
-78.640362
 20
-13.326067
 30
0.0
 10
-94.027867
 20
-31.802252
 30
0.0
 10
-94.027933
 20
-31.857154
 30
0.0
 10
-86.196297
 20
-43.687332
 30
0.0
 10
-63.142523
 20
-36.876305
 30
0.0
 10
-47.367267
 20
-21.878379
 30
0.0
 10
-50.218108
 20
-18.661441
 30
0.0
 10
-53.961372
 20
-13.592755
 30
0.0
 10
-57.170273
 20
-8.210643
 30
0.0
 10
-59.827534
 20
-2.557146
 30
0.0
 10
-61.915868
 20
3.325699
 30
0.0
 10
-63.417997
 20
9.395931
 30
0.0
 10
-64.316633
 20
15.611511
 30
0.0
 10
-64.594500
 20
21.930426
 30
0.0
 10
-64.240547
 20
28.245612
 30
0.0
 10
-63.267114
 20
34.450137
 30
0.0
 10
-61.691981
 20
40.502201
 30
0.0
 10
-59.532942
 20
46.359997
 30
0.0
 10
-56.807778
 20
51.981717
 30
0.0
 10
-53.534283
 20
57.325556
 30
0.0
 10
-49.730237
 20
62.349711
 30
0.0
 10
-45.413435
 20
67.012372
 30
0.0
 10
-40.652532
 20
71.230103
 30
0.0
 10
-35.532623
 20
74.935929
 30
0.0
 10
-30.096150
 20
78.112737
 30
0.0
 10
-24.385546
 20
80.743420
 30
0.0
 10
-18.443250
 20
82.810868
 30
0.0
 10
-12.311699
 20
84.297973
 30
0.0
 10
-6.033331
 20
85.187622
 30
0.0
 10
0.349418
 20
85.462710
 30
0.0
 10
6.948215
 20
85.093772
 30
0.0
 10
13.352491
 20
84.087421
 30
0.0
 10
19.529989
 20
82.475978
 30
0.0
 10
25.448452
 20
80.291760
 30
0.0
 10
31.075620
 20
77.567081
 30
0.0
 10
36.379241
 20
74.334265
 30
0.0
 10
41.327052
 20
70.625624
 30
0.0
 10
45.886798
 20
66.473481
 30
0.0
 10
50.026222
 20
61.910150
 30
0.0
 10
53.713065
 20
56.967950
 30
0.0
 10
56.915072
 20
51.679200
 30
0.0
 10
59.599980
 20
46.076218
 30
0.0
 10
61.735541
 20
40.191322
 30
0.0
 10
63.289489
 20
34.056828
 30
0.0
 10
64.229570
 20
27.705058
 30
0.0
 10
64.523527
 20
21.168318
 30
0.0
 10
64.523527
 20
21.168318
 30
0.0
  0
LWPOLYLINE
  5
109
100
AcDbEntity
  8
threads
 62
7
100
AcDbPolyline
 90
24
 70
1
 10
-16.599165
 20
-62.899400
 30
0.0
 10
-18.868628
 20
-59.041034
 30
0.0
 10
-18.999928
 20
-58.113087
 30
0.0
 10
-19.491391
 20
-58.961394
 30
0.0
 10
-24.272123
 20
-57.752381
 30
0.0
 10
-36.952899
 20
-52.801577
 30
0.0
 10
-49.082206
 20
-48.434020
 30
0.0
 10
-52.494905
 20
-47.666491
 30
0.0
 10
-54.674855
 20
-47.553937
 30
0.0
 10
-56.942191
 20
-48.426347
 30
0.0
 10
-59.095547
 20
-49.316353
 30
0.0
 10
-59.887644
 20
-50.784446
 30
0.0
 10
-58.347996
 20
-52.884100
 30
0.0
 10
-57.715333
 20
-54.453926
 30
0.0
 10
-57.811657
 20
-56.079764
 30
0.0
 10
-57.127378
 20
-54.809420
 30
0.0
 10
-54.827456
 20
-55.137636
 30
0.0
 10
-50.720080
 20
-56.530535
 30
0.0
 10
-38.549659
 20
-61.465358
 30
0.0
 10
-29.258583
 20
-64.774846
 30
0.0
 10
-23.534266
 20
-65.808414
 30
0.0
 10
-20.118087
 20
-65.514039
 30
0.0
 10
-17.751425
 20
-64.839775
 30
0.0
 10
-17.631701
 20
-64.808686
 30
0.0
  0
LWPOLYLINE
  5
10a
100
AcDbEntity
  8
threads
 62
7
100
AcDbPolyline
 90
24
 70
1
 10
-25.435520
 20
-69.052153
 30
0.0
 10
-25.931945
 20
-69.908741
 30
0.0
 10
-30.709989
 20
-68.701077
 30
0.0
 10
-43.393783
 20
-63.755856
 30
0.0
 10
-55.520770
 20
-59.382399
 30
0.0
 10
-58.933236
 20
-58.613044
 30
0.0
 10
-61.113302
 20
-58.499273
 30
0.0
 10
-63.381075
 20
-59.370678
 30
0.0
 10
-65.533786
 20
-60.260710
 30
0.0
 10
-66.325882
 20
-61.728804
 30
0.0
 10
-64.784793
 20
-63.834966
 30
0.0
 10
-64.152949
 20
-65.405110
 30
0.0
 10
-64.249895
 20
-67.022137
 30
0.0
 10
-63.563963
 20
-65.760392
 30
0.0
 10
-61.264805
 20
-66.086756
 30
0.0
 10
-57.157821
 20
-67.478094
 30
0.0
 10
-44.990544
 20
-72.407731
 30
0.0
 10
-35.698443
 20
-75.718277
 30
0.0
 10
-29.972175
 20
-76.752507
 30
0.0
 10
-26.554785
 20
-76.457708
 30
0.0
 10
-24.189333
 20
-75.781169
 30
0.0
 10
-24.070601
 20
-75.749736
 30
0.0
 10
-23.038065
 20
-73.841773
 30
0.0
 10
-25.302898
 20
-69.981131
 30
0.0
  0
LWPOLYLINE
  5
10b
100
AcDbEntity
  8
threads
 62
7
100
AcDbPolyline
 90
24
 70
1
 10
-30.888683
 20
-80.122505
 30
0.0
 10
-31.378160
 20
-80.977109
 30
0.0
 10
-36.159636
 20
-79.770000
 30
0.0
 10
-48.841652
 20
-74.820599
 30
0.0
 10
-60.971155
 20
-70.454497
 30
0.0
 10
-64.383973
 20
-69.686174
 30
0.0
 10
-66.563941
 20
-69.572324
 30
0.0
 10
-68.830666
 20
-70.442247
 30
0.0
 10
-70.981988
 20
-71.332385
 30
0.0
 10
-71.776397
 20
-72.800822
 30
0.0
 10
-70.238152
 20
-74.899497
 30
0.0
 10
-69.604377
 20
-76.467789
 30
0.0
 10
-69.697764
 20
-78.093812
 30
0.0
 10
-69.016134
 20
-76.824817
 30
0.0
 10
-66.716212
 20
-77.153853
 30
0.0
 10
-62.608833
 20
-78.547546
 30
0.0
 10
-50.438415
 20
-83.479750
 30
0.0
 10
-41.142351
 20
-86.792915
 30
0.0
 10
-35.415371
 20
-87.826113
 30
0.0
 10
-31.997957
 20
-87.528907
 30
0.0
 10
-29.630587
 20
-86.850859
 30
0.0
 10
-29.518472
 20
-86.819770
 30
0.0
 10
-28.487918
 20
-84.919083
 30
0.0
 10
-30.754653
 20
-81.054209
 30
0.0
  0
LWPOLYLINE
  5
10c
100
AcDbEntity
  8
threads
 62
7
100
AcDbPolyline
 90
24
 70
1
 10
-37.555255
 20
-91.490698
 30
0.0
 10
-38.050028
 20
-92.343662
 30
0.0
 10
-42.826046
 20
-91.135363
 30
0.0
 10
-55.506575
 20
-86.188792
 30
0.0
 10
-67.636530
 20
-81.819463
 30
0.0
 10
-71.049219
 20
-81.051351
 30
0.0
 10
-73.229028
 20
-80.938427
 30
0.0
 10
-75.495957
 20
-81.810494
 30
0.0
 10
-77.649221
 20
-82.700578
 30
0.0
 10
-78.442971
 20
-84.167375
 30
0.0
 10
-76.901918
 20
-86.272400
 30
0.0
 10
-76.270329
 20
-87.842094
 30
0.0
 10
-76.369299
 20
-89.460021
 30
0.0
 10
-75.680721
 20
-88.195313
 30
0.0
 10
-73.381029
 20
-88.523793
 30
0.0
 10
-69.274002
 20
-89.916348
 30
0.0
 10
-57.105648
 20
-94.844636
 30
0.0
 10
-47.817249
 20
-98.152933
 30
0.0
 10
-42.092819
 20
-99.188724
 30
0.0
 10
-38.675657
 20
-98.896888
 30
0.0
 10
-36.309067
 20
-98.222360
 30
0.0
 10
-36.185044
 20
-98.189631
 30
0.0
 10
-35.152838
 20
-96.283625
 30
0.0
 10
-37.422013
 20
-92.420709
 30
0.0
  0
LWPOLYLINE
  5
10d
100
AcDbEntity
  8
inner
 62
7
100
AcDbPolyline
 90
4
 70
1
 10
-54.639467
 20
-99.391051
 30
0.0
 10
-63.948834
 20
-94.734384
 30
0.0
 10
-66.653865
 20
-100.142467
 30
0.0
 10
-57.344503
 20
-104.799795
 30
0.0
  0
LWPOLYLINE
  5
10e
100
AcDbEntity
  8
inner
 62
7
100
AcDbPolyline
 90
4
 70
1
 10
0.925446
 20
11.666428
 30
0.0
 10
-8.379619
 20
16.325740
 30
0.0
 10
-40.275801
 20
-47.427254
 30
0.0
 10
-30.970405
 20
-52.082598
 30
0.0
  0
LWPOLYLINE
  5
10f
100
AcDbEntity
  8
inner
 62
7
100
AcDbPolyline
 90
89
 70
1
 10
54.131067
 20
21.531232
 30
0.0
 10
53.852710
 20
16.018718
 30
0.0
 10
53.035703
 20
10.665456
 30
0.0
 10
51.707150
 20
5.498514
 30
0.0
 10
49.894149
 20
0.545038
 30
0.0
 10
47.623804
 20
-4.167906
 30
0.0
 10
44.923210
 20
-8.613223
 30
0.0
 10
41.819473
 20
-12.763795
 30
0.0
 10
38.339694
 20
-16.592527
 30
0.0
 10
34.510969
 20
-20.072301
 30
0.0
 10
30.360403
 20
-23.176049
 30
0.0
 10
25.915093
 20
-25.876624
 30
0.0
 10
21.202143
 20
-28.146987
 30
0.0
 10
16.248653
 20
-29.959965
 30
0.0
 10
11.081722
 20
-31.288518
 30
0.0
 10
5.728452
 20
-32.105525
 30
0.0
 10
0.215944
 20
-32.383893
 30
0.0
 10
-4.669244
 20
-32.136745
 30
0.0
 10
-3.833879
 20
-25.996666
 30
0.0
 10
-0.434314
 20
-26.119697
 30
0.0
 10
9.080255
 20
-25.160530
 30
0.0
 10
17.942131
 20
-22.409630
 30
0.0
 10
25.961476
 20
-18.056811
 30
0.0
 10
32.948454
 20
-12.291990
 30
0.0
 10
38.713230
 20
-5.305006
 30
0.0
 10
43.065962
 20
2.714251
 30
0.0
 10
45.816814
 20
11.575967
 30
0.0
 10
46.775952
 20
21.090225
 30
0.0
 10
45.816814
 20
30.605091
 30
0.0
 10
43.065962
 20
39.467098
 30
0.0
 10
38.713230
 20
47.486460
 30
0.0
 10
32.948454
 20
54.473376
 30
0.0
 10
25.961476
 20
60.238038
 30
0.0
 10
17.942131
 20
64.590651
 30
0.0
 10
9.080255
 20
67.341405
 30
0.0
 10
-0.434314
 20
68.300501
 30
0.0
 10
-9.948706
 20
67.341405
 30
0.0
 10
-18.810530
 20
64.590651
 30
0.0
 10
-26.829917
 20
60.238038
 30
0.0
 10
-33.816999
 20
54.473376
 30
0.0
 10
-39.581907
 20
47.486460
 30
0.0
 10
-43.934774
 20
39.467098
 30
0.0
 10
-46.685732
 20
30.605091
 30
0.0
 10
-47.644910
 20
21.090225
 30
0.0
 10
-46.796378
 20
12.134608
 30
0.0
 10
-44.355851
 20
3.744988
 30
0.0
 10
-40.480930
 20
-3.921367
 30
0.0
 10
-35.329217
 20
-10.707056
 30
0.0
 10
-39.677221
 20
-14.679352
 30
0.0
 10
-41.387586
 20
-12.763795
 30
0.0
 10
-44.491323
 20
-8.613223
 30
0.0
 10
-47.191917
 20
-4.167906
 30
0.0
 10
-49.462261
 20
0.545038
 30
0.0
 10
-51.275263
 20
5.498514
 30
0.0
 10
-52.603815
 20
10.665456
 30
0.0
 10
-53.420822
 20
16.018718
 30
0.0
 10
-53.699180
 20
21.531232
 30
0.0
 10
-53.420820
 20
27.043746
 30
0.0
 10
-52.603813
 20
32.397008
 30
0.0
 10
-51.275260
 20
37.563937
 30
0.0
 10
-49.462259
 20
42.517426
 30
0.0
 10
-47.191911
 20
47.230375
 30
0.0
 10
-44.491320
 20
51.675685
 30
0.0
 10
-41.387583
 20
55.826251
 30
0.0
 10
-37.907801
 20
59.654973
 30
0.0
 10
-34.079077
 20
63.134755
 30
0.0
 10
-29.928510
 20
66.238489
 30
0.0
 10
-25.483202
 20
68.939081
 30
0.0
 10
-20.770252
 20
71.209428
 30
0.0
 10
-15.816762
 20
73.022427
 30
0.0
 10
-10.649832
 20
74.350979
 30
0.0
 10
-5.296563
 20
75.167986
 30
0.0
 10
0.215944
 20
75.446344
 30
0.0
 10
5.728451
 20
75.167986
 30
0.0
 10
11.081720
 20
74.350979
 30
0.0
 10
16.248650
 20
73.022427
 30
0.0
 10
21.202140
 20
71.209428
 30
0.0
 10
25.915090
 20
68.939081
 30
0.0
 10
30.360398
 20
66.238489
 30
0.0
 10
34.510964
 20
63.134755
 30
0.0
 10
38.339689
 20
59.654973
 30
0.0
 10
41.819470
 20
55.826251
 30
0.0
 10
44.923207
 20
51.675685
 30
0.0
 10
47.623799
 20
47.230375
 30
0.0
 10
49.894146
 20
42.517426
 30
0.0
 10
51.707148
 20
37.563937
 30
0.0
 10
53.035700
 20
32.397008
 30
0.0
 10
53.852707
 20
27.043746
 30
0.0
 10
54.131067
 20
21.531232
 30
0.0
  0
ENDSEC
  0
SECTION
  2
OBJECTS
  0
DICTIONARY
  5
C
330
0
100
AcDbDictionary
  3
ACAD_GROUP
350
D
  3
ACAD_MLINESTYLE
350
17
  0
DICTIONARY
  5
D
330
C
100
AcDbDictionary
  0
DICTIONARY
  5
1A
330
C
100
AcDbDictionary
  0
DICTIONARY
  5
17
330
C
100
AcDbDictionary
  3
STANDARD
350
18
  0
DICTIONARY
  5
19
330
C
100
AcDbDictionary
  0
ENDSEC
  0
EOF
