  0
SECTION
  2
BLOCKS
  0
ENDSEC
  0
SECTION
  2
ENTITIES
  0
LINE
  8
0
 10
-44.293
 20
31.2979
 11
-44.29
 21
31.1125
  0
LINE
  8
0
 10
-44.29
 20
31.1125
 11
-44.2896
 21
31.1098
  0
LINE
  8
0
 10
-44.2896
 20
31.1098
 11
-44.2582
 21
30.9334
  0
LINE
  8
0
 10
-44.2582
 20
30.9334
 11
-44.1988
 21
30.7637
  0
LINE
  8
0
 10
-44.1988
 20
30.7637
 11
-44.1143
 21
30.6062
  0
LINE
  8
0
 10
-44.1143
 20
30.6062
 11
-43.9893
 21
30.3897
  0
LINE
  8
0
 10
-43.9893
 20
30.3897
 11
-43.8811
 21
30.2474
  0
LINE
  8
0
 10
-43.8811
 20
30.2474
 11
-43.7514
 21
30.1229
  0
LINE
  8
0
 10
-43.7514
 20
30.1229
 11
-43.6018
 21
30.0196
  0
LINE
  8
0
 10
-43.6018
 20
30.0196
 11
-43.4342
 21
29.9401
  0
LINE
  8
0
 10
-43.4342
 20
29.9401
 11
-39.657
 21
28.5152
  0
LINE
  8
0
 10
-39.657
 20
28.5152
 11
-39.5333
 21
27.7822
  0
LINE
  8
0
 10
-39.5333
 20
27.7822
 11
-39.515
 21
27.6738
  0
LINE
  8
0
 10
-39.515
 20
27.6738
 11
-39.3566
 21
26.9814
  0
LINE
  8
0
 10
-39.3566
 20
26.9814
 11
-39.3021
 21
26.7433
  0
LINE
  8
0
 10
-39.3021
 20
26.7433
 11
-42.166
 21
24.0407
  0
LINE
  8
0
 10
-42.166
 20
24.0407
 11
-42.2898
 21
23.9028
  0
LINE
  8
0
 10
-42.2898
 20
23.9028
 11
-42.3881
 21
23.7499
  0
LINE
  8
0
 10
-42.3881
 20
23.7499
 11
-42.5131
 21
23.5334
  0
LINE
  8
0
 10
-42.5131
 20
23.5334
 11
-42.585
 21
23.3687
  0
LINE
  8
0
 10
-42.585
 20
23.3687
 11
-42.6301
 21
23.1959
  0
LINE
  8
0
 10
-42.6301
 20
23.1959
 11
-42.6477
 21
23.018
  0
LINE
  8
0
 10
-42.6477
 20
23.018
 11
-42.6396
 21
22.8811
  0
LINE
  8
0
 10
-42.6396
 20
22.8811
 11
-42.6371
 21
22.8387
  0
LINE
  8
0
 10
-42.6371
 20
22.8387
 11
-42.5977
 21
22.6611
  0
LINE
  8
0
 10
-42.5977
 20
22.6611
 11
-42.5291
 21
22.4891
  0
LINE
  8
0
 10
-42.5291
 20
22.4891
 11
-41.3917
 21
20.1842
  0
LINE
  8
0
 10
-41.3917
 20
20.1842
 11
-41.2303
 21
19.8572
  0
LINE
  8
0
 10
-41.2303
 20
19.8572
 11
-41.199
 21
19.7937
  0
LINE
  8
0
 10
-41.199
 20
19.7937
 11
-41.074
 21
19.5772
  0
LINE
  8
0
 10
-41.074
 20
19.5772
 11
-40.9785
 21
19.4175
  0
LINE
  8
0
 10
-40.9785
 20
19.4175
 11
-40.8607
 21
19.2778
  0
LINE
  8
0
 10
-40.8607
 20
19.2778
 11
-40.7238
 21
19.1603
  0
LINE
  8
0
 10
-40.7238
 20
19.1603
 11
-40.5711
 21
19.0661
  0
LINE
  8
0
 10
-40.5711
 20
19.0661
 11
-40.4053
 21
18.997
  0
LINE
  8
0
 10
-40.4053
 20
18.997
 11
-40.2299
 21
18.9546
  0
LINE
  8
0
 10
-40.2299
 20
18.9546
 11
-40.0479
 21
18.9405
  0
LINE
  8
0
 10
-40.0479
 20
18.9405
 11
-39.7979
 21
18.9405
  0
LINE
  8
0
 10
-39.7979
 20
18.9405
 11
-39.6123
 21
18.9563
  0
LINE
  8
0
 10
-39.6123
 20
18.9563
 11
-35.7357
 21
19.6041
  0
LINE
  8
0
 10
-35.7357
 20
19.6041
 11
-35.634
 21
19.4837
  0
LINE
  8
0
 10
-35.634
 20
19.4837
 11
-35.1234
 21
18.8788
  0
LINE
  8
0
 10
-35.1234
 20
18.8788
 11
-35.0914
 21
18.8409
  0
LINE
  8
0
 10
-35.0914
 20
18.8409
 11
-34.529
 21
18.2388
  0
LINE
  8
0
 10
-34.529
 20
18.2388
 11
-35.6904
 21
14.3258
  0
LINE
  8
0
 10
-35.6904
 20
14.3258
 11
-35.7291
 21
14.1436
  0
LINE
  8
0
 10
-35.7291
 20
14.1436
 11
-35.7375
 21
13.9613
  0
LINE
  8
0
 10
-35.7375
 20
13.9613
 11
-35.7289
 21
13.8854
  0
LINE
  8
0
 10
-35.7289
 20
13.8854
 11
-35.7172
 21
13.782
  0
LINE
  8
0
 10
-35.7172
 20
13.782
 11
-35.6693
 21
13.6092
  0
LINE
  8
0
 10
-35.6693
 20
13.6092
 11
-35.5949
 21
13.4459
  0
LINE
  8
0
 10
-35.5949
 20
13.4459
 11
-35.4699
 21
13.2294
  0
LINE
  8
0
 10
-35.4699
 20
13.2294
 11
-35.3701
 21
13.0792
  0
LINE
  8
0
 10
-35.3701
 20
13.0792
 11
-35.2465
 21
12.945
  0
LINE
  8
0
 10
-35.2465
 20
12.945
 11
-35.0998
 21
12.8304
  0
LINE
  8
0
 10
-35.0998
 20
12.8304
 11
-33.8521
 21
12.0091
  0
LINE
  8
0
 10
-33.8521
 20
12.0091
 11
-32.5811
 21
11.1724
  0
LINE
  8
0
 10
-32.5811
 20
11.1724
 11
-32.4178
 21
11.0823
  0
LINE
  8
0
 10
-32.4178
 20
11.0823
 11
-32.2457
 21
11.0212
  0
LINE
  8
0
 10
-32.2457
 20
11.0212
 11
-32.0682
 21
10.9884
  0
LINE
  8
0
 10
-32.0682
 20
10.9884
 11
-31.8887
 21
10.9841
  0
LINE
  8
0
 10
-31.8887
 20
10.9841
 11
-31.6387
 21
10.9841
  0
LINE
  8
0
 10
-31.6387
 20
10.9841
 11
-31.4607
 21
11.0079
  0
LINE
  8
0
 10
-31.4607
 20
11.0079
 11
-31.2879
 21
11.0597
  0
LINE
  8
0
 10
-31.2879
 20
11.0597
 11
-31.1234
 21
11.1392
  0
LINE
  8
0
 10
-31.1234
 20
11.1392
 11
-30.9711
 21
11.2464
  0
LINE
  8
0
 10
-30.9711
 20
11.2464
 11
-30.056
 21
12.0091
  0
LINE
  8
0
 10
-30.056
 20
12.0091
 11
-27.8572
 21
13.8418
  0
LINE
  8
0
 10
-27.8572
 20
13.8418
 11
-27.1623
 21
13.5917
  0
LINE
  8
0
 10
-27.1623
 20
13.5917
 11
-26.3608
 21
13.3407
  0
LINE
  8
0
 10
-26.3608
 20
13.3407
 11
-25.4982
 21
9.63437
  0
LINE
  8
0
 10
-25.4982
 20
9.63437
 11
-25.4652
 21
9.49258
  0
LINE
  8
0
 10
-25.4652
 20
9.49258
 11
-25.4475
 21
9.43672
  0
LINE
  8
0
 10
-25.4475
 20
9.43672
 11
-25.4088
 21
9.31523
  0
LINE
  8
0
 10
-25.4088
 20
9.31523
 11
-25.3262
 21
9.15234
  0
LINE
  8
0
 10
-25.3262
 20
9.15234
 11
-25.2012
 21
8.93584
  0
LINE
  8
0
 10
-25.2012
 20
8.93584
 11
-25.0949
 21
8.79013
  0
LINE
  8
0
 10
-25.0949
 20
8.79013
 11
-24.9676
 21
8.66338
  0
LINE
  8
0
 10
-24.9676
 20
8.66338
 11
-24.8223
 21
8.5583
  0
LINE
  8
0
 10
-24.8223
 20
8.5583
 11
-24.6611
 21
8.47685
  0
LINE
  8
0
 10
-24.6611
 20
8.47685
 11
-24.4873
 21
8.42138
  0
LINE
  8
0
 10
-24.4873
 20
8.42138
 11
-24.3031
 21
8.39424
  0
LINE
  8
0
 10
-24.3031
 20
8.39424
 11
-21.301
 21
8.19658
  0
LINE
  8
0
 10
-21.301
 20
8.19658
 11
-21.051
 21
8.19658
  0
LINE
  8
0
 10
-21.051
 20
8.19658
 11
-20.8664
 21
8.19971
  0
LINE
  8
0
 10
-20.8664
 20
8.19971
 11
-20.6883
 21
8.23154
  0
LINE
  8
0
 10
-20.6883
 20
8.23154
 11
-20.5193
 21
8.29033
  0
LINE
  8
0
 10
-20.5193
 20
8.29033
 11
-20.3625
 21
8.37432
  0
LINE
  8
0
 10
-20.3625
 20
8.37432
 11
-20.2207
 21
8.48154
  0
LINE
  8
0
 10
-20.2207
 20
8.48154
 11
-20.0965
 21
8.61045
  0
LINE
  8
0
 10
-20.0965
 20
8.61045
 11
-19.9932
 21
8.75888
  0
LINE
  8
0
 10
-19.9932
 20
8.75888
 11
-19.8682
 21
8.97539
  0
LINE
  8
0
 10
-19.8682
 20
8.97539
 11
-19.7883
 21
9.1416
  0
LINE
  8
0
 10
-19.7883
 20
9.1416
 11
-19.6767
 21
9.43672
  0
LINE
  8
0
 10
-19.6767
 20
9.43672
 11
-18.0543
 21
13.726
  0
LINE
  8
0
 10
-18.0543
 20
13.726
 11
-17.9918
 21
13.9807
  0
LINE
  8
0
 10
-17.9918
 20
13.9807
 11
-17.9915
 21
14.0105
  0
LINE
  8
0
 10
-17.9915
 20
14.0105
 11
-17.9891
 21
14.2428
  0
LINE
  8
0
 10
-17.9891
 20
14.2428
 11
-18.2306
 21
16.2861
  0
LINE
  8
0
 10
-18.2306
 20
16.2861
 11
-18.2611
 21
16.5445
  0
LINE
  8
0
 10
-18.2611
 20
16.5445
 11
-18.5164
 21
18.5631
  0
LINE
  8
0
 10
-18.5164
 20
18.5631
 11
-18.5482
 21
18.8148
  0
LINE
  8
0
 10
-18.5482
 20
18.8148
 11
-18.5967
 21
19.034
  0
LINE
  8
0
 10
-18.5967
 20
19.034
 11
-18.6844
 21
19.234
  0
LINE
  8
0
 10
-18.6844
 20
19.234
 11
-18.8094
 21
19.4505
  0
LINE
  8
0
 10
-18.8094
 20
19.4505
 11
-18.9314
 21
19.6272
  0
LINE
  8
0
 10
-18.9314
 20
19.6272
 11
-19.0832
 21
19.7772
  0
LINE
  8
0
 10
-19.0832
 20
19.7772
 11
-19.2602
 21
19.8964
  0
LINE
  8
0
 10
-19.2602
 20
19.8964
 11
-19.4576
 21
19.981
  0
LINE
  8
0
 10
-19.4576
 20
19.981
 11
-19.4999
 21
19.9901
  0
LINE
  8
0
 10
-19.4999
 20
19.9901
 11
-19.6709
 21
20.0272
  0
LINE
  8
0
 10
-19.6709
 20
20.0272
 11
-19.8955
 21
20.0313
  0
LINE
  8
0
 10
-19.8955
 20
20.0313
 11
-20.1455
 21
20.0313
  0
LINE
  8
0
 10
-20.1455
 20
20.0313
 11
-20.9632
 21
19.9937
  0
LINE
  8
0
 10
-20.9632
 20
19.9937
 11
-21.6816
 21
20.0083
  0
LINE
  8
0
 10
-21.6816
 20
20.0083
 11
-22.5672
 21
20.0874
  0
LINE
  8
0
 10
-22.5672
 20
20.0874
 11
-23.4428
 21
20.229
  0
LINE
  8
0
 10
-23.4428
 20
20.229
 11
-24.1303
 21
20.3972
  0
LINE
  8
0
 10
-24.1303
 20
20.3972
 11
-24.807
 21
20.6062
  0
LINE
  8
0
 10
-24.807
 20
20.6062
 11
-25.4701
 21
20.855
  0
LINE
  8
0
 10
-25.4701
 20
20.855
 11
-26.1174
 21
21.1427
  0
LINE
  8
0
 10
-26.1174
 20
21.1427
 11
-26.7459
 21
21.4679
  0
LINE
  8
0
 10
-26.7459
 20
21.4679
 11
-27.3537
 21
21.83
  0
LINE
  8
0
 10
-27.3537
 20
21.83
 11
-27.9379
 21
22.2274
  0
LINE
  8
0
 10
-27.9379
 20
22.2274
 11
-28.4963
 21
22.6597
  0
LINE
  8
0
 10
-28.4963
 20
22.6597
 11
-28.4998
 21
22.6614
  0
LINE
  8
0
 10
-28.4998
 20
22.6614
 11
-29.0191
 21
23.1192
  0
LINE
  8
0
 10
-29.0191
 20
23.1192
 11
-29.5107
 21
23.6069
  0
LINE
  8
0
 10
-29.5107
 20
23.6069
 11
-29.9729
 21
24.1226
  0
LINE
  8
0
 10
-29.9729
 20
24.1226
 11
-30.4037
 21
24.6642
  0
LINE
  8
0
 10
-30.4037
 20
24.6642
 11
-30.802
 21
25.2298
  0
LINE
  8
0
 10
-30.802
 20
25.2298
 11
-31.102
 21
25.7143
  0
LINE
  8
0
 10
-31.102
 20
25.7143
 11
-31.3687
 21
26.209
  0
LINE
  8
0
 10
-31.3687
 20
26.209
 11
-31.6592
 21
26.8352
  0
LINE
  8
0
 10
-31.6592
 20
26.8352
 11
-31.6609
 21
26.8404
  0
LINE
  8
0
 10
-31.6609
 20
26.8404
 11
-31.8678
 21
27.3691
  0
LINE
  8
0
 10
-31.8678
 20
27.3691
 11
-32.0477
 21
27.908
  0
LINE
  8
0
 10
-32.0477
 20
27.908
 11
-32.201
 21
28.4557
  0
LINE
  8
0
 10
-32.201
 20
28.4557
 11
-32.3273
 21
29.0107
  0
LINE
  8
0
 10
-32.3273
 20
29.0107
 11
-32.4271
 21
29.5721
  0
LINE
  8
0
 10
-32.4271
 20
29.5721
 11
-32.5002
 21
30.1383
  0
LINE
  8
0
 10
-32.5002
 20
30.1383
 11
-32.5463
 21
30.7082
  0
LINE
  8
0
 10
-32.5463
 20
30.7082
 11
-32.5658
 21
31.2801
  0
LINE
  8
0
 10
-32.5658
 20
31.2801
 11
-32.5473
 21
31.8611
  0
LINE
  8
0
 10
-32.5473
 20
31.8611
 11
-32.5012
 21
32.4398
  0
LINE
  8
0
 10
-32.5012
 20
32.4398
 11
-32.4273
 21
33.0148
  0
LINE
  8
0
 10
-32.4273
 20
33.0148
 11
-32.3258
 21
33.585
  0
LINE
  8
0
 10
-32.3258
 20
33.585
 11
-32.1965
 21
34.1486
  0
LINE
  8
0
 10
-32.1965
 20
34.1486
 11
-32.0398
 21
34.7045
  0
LINE
  8
0
 10
-32.0398
 20
34.7045
 11
-31.8553
 21
35.251
  0
LINE
  8
0
 10
-31.8553
 20
35.251
 11
-31.6434
 21
35.7869
  0
LINE
  8
0
 10
-31.6434
 20
35.7869
 11
-31.3396
 21
36.4287
  0
LINE
  8
0
 10
-31.3396
 20
36.4287
 11
-31.0766
 21
36.9091
  0
LINE
  8
0
 10
-31.0766
 20
36.9091
 11
-30.7547
 21
37.4226
  0
LINE
  8
0
 10
-30.7547
 20
37.4226
 11
-30.3477
 21
37.9937
  0
LINE
  8
0
 10
-30.3477
 20
37.9937
 11
-29.9076
 21
38.5394
  0
LINE
  8
0
 10
-29.9076
 20
38.5394
 11
-29.4363
 21
39.0573
  0
LINE
  8
0
 10
-29.4363
 20
39.0573
 11
-28.9348
 21
39.5454
  0
LINE
  8
0
 10
-28.9348
 20
39.5454
 11
-28.4045
 21
40.0013
  0
LINE
  8
0
 10
-28.4045
 20
40.0013
 11
-28.401
 21
40.0048
  0
LINE
  8
0
 10
-28.401
 20
40.0048
 11
-27.8244
 21
40.4382
  0
LINE
  8
0
 10
-27.8244
 20
40.4382
 11
-27.2225
 21
40.8362
  0
LINE
  8
0
 10
-27.2225
 20
40.8362
 11
-26.5977
 21
41.1972
  0
LINE
  8
0
 10
-26.5977
 20
41.1972
 11
-25.9525
 21
41.5196
  0
LINE
  8
0
 10
-25.9525
 20
41.5196
 11
-25.2896
 21
41.8019
  0
LINE
  8
0
 10
-25.2896
 20
41.8019
 11
-24.6115
 21
42.0427
  0
LINE
  8
0
 10
-24.6115
 20
42.0427
 11
-23.9211
 21
42.2401
  0
LINE
  8
0
 10
-23.9211
 20
42.2401
 11
-23.2205
 21
42.3931
  0
LINE
  8
0
 10
-23.2205
 20
42.3931
 11
-23.217
 21
42.3948
  0
LINE
  8
0
 10
-23.217
 20
42.3948
 11
-22.5115
 21
42.505
  0
LINE
  8
0
 10
-22.5115
 20
42.505
 11
-21.8
 21
42.5722
  0
LINE
  8
0
 10
-21.8
 20
42.5722
 11
-21.1947
 21
42.5925
  0
LINE
  8
0
 10
-21.1947
 20
42.5925
 11
-20.6199
 21
42.5774
  0
LINE
  8
0
 10
-20.6199
 20
42.5774
 11
-19.9072
 21
42.5159
  0
LINE
  8
0
 10
-19.9072
 20
42.5159
 11
-19.1998
 21
42.412
  0
LINE
  8
0
 10
-19.1998
 20
42.412
 11
-18.5004
 21
42.2657
  0
LINE
  8
0
 10
-18.5004
 20
42.2657
 11
-17.8119
 21
42.0774
  0
LINE
  8
0
 10
-17.8119
 20
42.0774
 11
-17.8084
 21
42.0757
  0
LINE
  8
0
 10
-17.8084
 20
42.0757
 11
-17.1281
 21
41.8405
  0
LINE
  8
0
 10
-17.1281
 20
41.8405
 11
-16.4631
 21
41.564
  0
LINE
  8
0
 10
-16.4631
 20
41.564
 11
-15.816
 21
41.2474
  0
LINE
  8
0
 10
-15.816
 20
41.2474
 11
-15.1893
 21
40.8919
  0
LINE
  8
0
 10
-15.1893
 20
40.8919
 11
-14.5855
 21
40.4991
  0
LINE
  8
0
 10
-14.5855
 20
40.4991
 11
-14.007
 21
40.0708
  0
LINE
  8
0
 10
-14.007
 20
40.0708
 11
-13.4566
 21
39.6079
  0
LINE
  8
0
 10
-13.4566
 20
39.6079
 11
-12.9365
 21
39.1122
  0
LINE
  8
0
 10
-12.9365
 20
39.1122
 11
-12.4076
 21
38.5366
  0
LINE
  8
0
 10
-12.4076
 20
38.5366
 11
-11.9186
 21
37.9259
  0
LINE
  8
0
 10
-11.9186
 20
37.9259
 11
-11.4719
 21
37.2831
  0
LINE
  8
0
 10
-11.4719
 20
37.2831
 11
-11.1662
 21
36.7734
  0
LINE
  8
0
 10
-11.1662
 20
36.7734
 11
-10.8381
 21
36.132
  0
LINE
  8
0
 10
-10.8381
 20
36.132
 11
-10.5303
 21
35.4137
  0
LINE
  8
0
 10
-10.5303
 20
35.4137
 11
-10.2729
 21
34.6766
  0
LINE
  8
0
 10
-10.2729
 20
34.6766
 11
-10.0682
 21
33.9242
  0
LINE
  8
0
 10
-10.0682
 20
33.9242
 11
-10.0682
 21
33.9172
  0
LINE
  8
0
 10
-10.0682
 20
33.9172
 11
-9.93789
 21
33.2947
  0
LINE
  8
0
 10
-9.93789
 20
33.2947
 11
-9.84316
 21
32.6646
  0
LINE
  8
0
 10
-9.84316
 20
32.6646
 11
-9.78418
 21
32.0295
  0
LINE
  8
0
 10
-9.78418
 20
32.0295
 11
-9.76094
 21
31.3916
  0
LINE
  8
0
 10
-9.76094
 20
31.3916
 11
-9.77305
 21
30.7533
  0
LINE
  8
0
 10
-9.77305
 20
30.7533
 11
-9.8207
 21
30.1166
  0
LINE
  8
0
 10
-9.8207
 20
30.1166
 11
-9.90391
 21
29.4842
  0
LINE
  8
0
 10
-9.90391
 20
29.4842
 11
-10.0223
 21
28.8584
  0
LINE
  8
0
 10
-10.0223
 20
28.8584
 11
-10.0223
 21
28.8549
  0
LINE
  8
0
 10
-10.0223
 20
28.8549
 11
-10.2137
 21
28.0984
  0
LINE
  8
0
 10
-10.2137
 20
28.0984
 11
-10.4588
 21
27.3564
  0
LINE
  8
0
 10
-10.4588
 20
27.3564
 11
-10.7553
 21
26.6318
  0
LINE
  8
0
 10
-10.7553
 20
26.6318
 11
-11.101
 21
25.9281
  0
LINE
  8
0
 10
-11.101
 20
25.9281
 11
-11.369
 21
25.4637
  0
LINE
  8
0
 10
-11.369
 20
25.4637
 11
-11.8055
 21
24.8114
  0
LINE
  8
0
 10
-11.8055
 20
24.8114
 11
-12.2848
 21
24.1882
  0
LINE
  8
0
 10
-12.2848
 20
24.1882
 11
-12.8043
 21
23.5979
  0
LINE
  8
0
 10
-12.8043
 20
23.5979
 11
-12.9445
 21
23.4153
  0
LINE
  8
0
 10
-12.9445
 20
23.4153
 11
-13.0695
 21
23.1988
  0
LINE
  8
0
 10
-13.0695
 20
23.1988
 11
-13.1676
 21
22.9979
  0
LINE
  8
0
 10
-13.1676
 20
22.9979
 11
-13.2238
 21
22.7854
  0
LINE
  8
0
 10
-13.2238
 20
22.7854
 11
-13.2385
 21
22.5676
  0
LINE
  8
0
 10
-13.2385
 20
22.5676
 11
-13.2283
 21
22.4861
  0
LINE
  8
0
 10
-13.2283
 20
22.4861
 11
-13.2115
 21
22.3512
  0
LINE
  8
0
 10
-13.2115
 20
22.3512
 11
-13.1432
 21
22.1422
  0
LINE
  8
0
 10
-13.1432
 20
22.1422
 11
-13.0338
 21
21.9473
  0
LINE
  8
0
 10
-13.0338
 20
21.9473
 11
-12.9088
 21
21.7308
  0
LINE
  8
0
 10
-12.9088
 20
21.7308
 11
-12.7584
 21
21.5563
  0
LINE
  8
0
 10
-12.7584
 20
21.5563
 11
-10.2751
 21
19.195
  0
LINE
  8
0
 10
-10.2751
 20
19.195
 11
-9.52581
 21
18.4825
  0
LINE
  8
0
 10
-9.52581
 20
18.4825
 11
-9.52519
 21
18.4819
  0
LINE
  8
0
 10
-9.52519
 20
18.4819
 11
-9.31875
 21
18.3261
  0
LINE
  8
0
 10
-9.31875
 20
18.3261
 11
-9.08242
 21
18.2208
  0
LINE
  8
0
 10
-9.08242
 20
18.2208
 11
-7.62729
 21
17.7821
  0
LINE
  8
0
 10
-7.62729
 20
17.7821
 11
-6.69629
 21
17.5015
  0
LINE
  8
0
 10
-6.69629
 20
17.5015
 11
-4.33398
 21
16.8044
  0
LINE
  8
0
 10
-4.33398
 20
16.8044
 11
-4.15156
 21
16.7653
  0
LINE
  8
0
 10
-4.15156
 20
16.7653
 11
-3.96875
 21
16.7563
  0
LINE
  8
0
 10
-3.96875
 20
16.7563
 11
-3.71875
 21
16.7563
  0
LINE
  8
0
 10
-3.71875
 20
16.7563
 11
-3.53906
 21
16.7765
  0
LINE
  8
0
 10
-3.53906
 20
16.7765
 11
-3.36562
 21
16.8243
  0
LINE
  8
0
 10
-3.36562
 20
16.8243
 11
-3.20176
 21
16.8989
  0
LINE
  8
0
 10
-3.20176
 20
16.8989
 11
-3.05098
 21
16.9987
  0
LINE
  8
0
 10
-3.05098
 20
16.9987
 11
-2.9166
 21
17.1229
  0
LINE
  8
0
 10
-2.9166
 20
17.1229
 11
-2.80176
 21
17.27
  0
LINE
  8
0
 10
-2.80176
 20
17.27
 11
-2.46336
 21
17.7821
  0
LINE
  8
0
 10
-2.46336
 20
17.7821
 11
-1.93926
 21
18.5753
  0
LINE
  8
0
 10
-1.93926
 20
18.5753
 11
-1.89863
 21
18.6388
  0
LINE
  8
0
 10
-1.89863
 20
18.6388
 11
-1.74824
 21
18.8522
  0
LINE
  8
0
 10
-1.74824
 20
18.8522
 11
-1.57228
 21
19.0886
  0
LINE
  8
0
 10
-1.57228
 20
19.0886
 11
-1.52851
 21
19.1474
  0
LINE
  8
0
 10
-1.52851
 20
19.1474
 11
-1.28184
 21
19.5423
  0
LINE
  8
0
 10
-1.28184
 20
19.5423
 11
-1.15684
 21
19.7588
  0
LINE
  8
0
 10
-1.15684
 20
19.7588
 11
-1.07744
 21
19.9176
  0
LINE
  8
0
 10
-1.07744
 20
19.9176
 11
-1.03652
 21
19.9994
  0
LINE
  8
0
 10
-1.03652
 20
19.9994
 11
-0.94396
 21
20.2258
  0
LINE
  8
0
 10
-0.94396
 20
20.2258
 11
-0.925194
 21
20.2717
  0
LINE
  8
0
 10
-0.925194
 20
20.2717
 11
-0.892387
 21
20.3844
  0
LINE
  8
0
 10
-0.892387
 20
20.3844
 11
-0.883007
 21
20.4166
  0
LINE
  8
0
 10
-0.883007
 20
20.4166
 11
-0.86322
 21
20.5475
  0
LINE
  8
0
 10
-0.86322
 20
20.5475
 11
-0.860741
 21
20.5639
  0
LINE
  8
0
 10
-0.860741
 20
20.5639
 11
-0.857616
 21
20.7115
  0
LINE
  8
0
 10
-0.857616
 20
20.7115
 11
-0.873436
 21
20.858
  0
LINE
  8
0
 10
-0.873436
 20
20.858
 11
-0.908203
 21
21.001
  0
LINE
  8
0
 10
-0.908203
 20
21.001
 11
-0.961132
 21
21.1389
  0
LINE
  8
0
 10
-0.961132
 20
21.1389
 11
-1.03223
 21
21.2697
  0
LINE
  8
0
 10
-1.03223
 20
21.2697
 11
-1.15723
 21
21.4862
  0
LINE
  8
0
 10
-1.15723
 20
21.4862
 11
-1.2459
 21
21.6083
  0
LINE
  8
0
 10
-1.2459
 20
21.6083
 11
-3.74461
 21
24.611
  0
LINE
  8
0
 10
-3.74461
 20
24.611
 11
-3.45449
 21
25.3996
  0
LINE
  8
0
 10
-3.45449
 20
25.3996
 11
-3.36491
 21
25.6721
  0
LINE
  8
0
 10
-3.36491
 20
25.6721
 11
-3.22493
 21
26.0978
  0
LINE
  8
0
 10
-3.22493
 20
26.0978
 11
-2.8571
 21
26.1833
  0
LINE
  8
0
 10
-2.8571
 20
26.1833
 11
-1.26866
 21
26.5524
  0
LINE
  8
0
 10
-1.26866
 20
26.5524
 11
0.754295
 21
27.0226
  0
LINE
  8
0
 10
0.754295
 20
27.0226
 11
0.931835
 21
27.079
  0
LINE
  8
0
 10
0.931835
 20
27.079
 11
1.09453
 21
27.1616
  0
LINE
  8
0
 10
1.09453
 20
27.1616
 11
1.24043
 21
27.2679
  0
LINE
  8
0
 10
1.24043
 20
27.2679
 11
1.36699
 21
27.3952
  0
LINE
  8
0
 10
1.36699
 20
27.3952
 11
1.47227
 21
27.5405
  0
LINE
  8
0
 10
1.47227
 20
27.5405
 11
1.59727
 21
27.757
  0
LINE
  8
0
 10
1.59727
 20
27.757
 11
1.67871
 21
27.9182
  0
LINE
  8
0
 10
1.67871
 20
27.9182
 11
1.73398
 21
28.092
  0
LINE
  8
0
 10
1.73398
 20
28.092
 11
1.75541
 21
28.2363
  0
LINE
  8
0
 10
1.75541
 20
28.2363
 11
1.76133
 21
28.2762
  0
LINE
  8
0
 10
1.76133
 20
28.2762
 11
1.95617
 21
31.2385
  0
LINE
  8
0
 10
1.95617
 20
31.2385
 11
1.95879
 21
31.2783
  0
LINE
  8
0
 10
1.95879
 20
31.2783
 11
1.95586
 21
31.4639
  0
LINE
  8
0
 10
1.95586
 20
31.4639
 11
1.92402
 21
31.6428
  0
LINE
  8
0
 10
1.92402
 20
31.6428
 11
1.86465
 21
31.8125
  0
LINE
  8
0
 10
1.86465
 20
31.8125
 11
1.78008
 21
31.9699
  0
LINE
  8
0
 10
1.78008
 20
31.9699
 11
1.65508
 21
32.1864
  0
LINE
  8
0
 10
1.65508
 20
32.1864
 11
1.54687
 21
32.3288
  0
LINE
  8
0
 10
1.54687
 20
32.3288
 11
1.41718
 21
32.4532
  0
LINE
  8
0
 10
1.41718
 20
32.4532
 11
1.26758
 21
32.5565
  0
LINE
  8
0
 10
1.26758
 20
32.5565
 11
1.1
 21
32.6362
  0
LINE
  8
0
 10
1.1
 20
32.6362
 11
-2.44546
 21
33.9735
  0
LINE
  8
0
 10
-2.44546
 20
33.9735
 11
-2.67755
 21
34.0611
  0
LINE
  8
0
 10
-2.67755
 20
34.0611
 11
-2.76355
 21
34.5652
  0
LINE
  8
0
 10
-2.76355
 20
34.5652
 11
-2.82129
 21
34.9037
  0
LINE
  8
0
 10
-2.82129
 20
34.9037
 11
-2.92717
 21
35.3658
  0
LINE
  8
0
 10
-2.92717
 20
35.3658
 11
-3.03376
 21
35.831
  0
LINE
  8
0
 10
-3.03376
 20
35.831
 11
-0.166405
 21
38.5354
  0
LINE
  8
0
 10
-0.166405
 20
38.5354
 11
-0.0425777
 21
38.6733
  0
LINE
  8
0
 10
-0.0425777
 20
38.6733
 11
0.0556641
 21
38.8263
  0
LINE
  8
0
 10
0.0556641
 20
38.8263
 11
0.180664
 21
39.0428
  0
LINE
  8
0
 10
0.180664
 20
39.0428
 11
0.252539
 21
39.2074
  0
LINE
  8
0
 10
0.252539
 20
39.2074
 11
0.297655
 21
39.3805
  0
LINE
  8
0
 10
0.297655
 20
39.3805
 11
0.306211
 21
39.467
  0
LINE
  8
0
 10
0.306211
 20
39.467
 11
0.315233
 21
39.5582
  0
LINE
  8
0
 10
0.315233
 20
39.5582
 11
0.304688
 21
39.7377
  0
LINE
  8
0
 10
0.304688
 20
39.7377
 11
0.265234
 21
39.915
  0
LINE
  8
0
 10
0.265234
 20
39.915
 11
0.19668
 21
40.0873
  0
LINE
  8
0
 10
0.19668
 20
40.0873
 11
-0.828228
 21
42.1641
  0
LINE
  8
0
 10
-0.828228
 20
42.1641
 11
-1.06824
 21
42.6504
  0
LINE
  8
0
 10
-1.06824
 20
42.6504
 11
-1.10294
 21
42.7207
  0
LINE
  8
0
 10
-1.10294
 20
42.7207
 11
-1.1334
 21
42.7824
  0
LINE
  8
0
 10
-1.1334
 20
42.7824
 11
-1.2584
 21
42.9989
  0
LINE
  8
0
 10
-1.2584
 20
42.9989
 11
-1.35391
 21
43.1589
  0
LINE
  8
0
 10
-1.35391
 20
43.1589
 11
-1.47168
 21
43.2983
  0
LINE
  8
0
 10
-1.47168
 20
43.2983
 11
-1.60859
 21
43.4159
  0
LINE
  8
0
 10
-1.60859
 20
43.4159
 11
-1.76133
 21
43.5101
  0
LINE
  8
0
 10
-1.76133
 20
43.5101
 11
-1.92715
 21
43.5792
  0
LINE
  8
0
 10
-1.92715
 20
43.5792
 11
-2.10254
 21
43.6216
  0
LINE
  8
0
 10
-2.10254
 20
43.6216
 11
-2.28457
 21
43.6356
  0
LINE
  8
0
 10
-2.28457
 20
43.6356
 11
-2.53457
 21
43.6356
  0
LINE
  8
0
 10
-2.53457
 20
43.6356
 11
-2.72012
 21
43.6198
  0
LINE
  8
0
 10
-2.72012
 20
43.6198
 11
-6.58548
 21
42.9739
  0
LINE
  8
0
 10
-6.58548
 20
42.9739
 11
-6.89414
 21
43.3493
  0
LINE
  8
0
 10
-6.89414
 20
43.3493
 11
-6.99866
 21
43.4675
  0
LINE
  8
0
 10
-6.99866
 20
43.4675
 11
-7.24121
 21
43.7417
  0
LINE
  8
0
 10
-7.24121
 20
43.7417
 11
-7.80452
 21
44.3328
  0
LINE
  8
0
 10
-7.80452
 20
44.3328
 11
-6.64199
 21
48.2506
  0
LINE
  8
0
 10
-6.64199
 20
48.2506
 11
-6.60352
 21
48.4328
  0
LINE
  8
0
 10
-6.60352
 20
48.4328
 11
-6.60213
 21
48.4629
  0
LINE
  8
0
 10
-6.60213
 20
48.4629
 11
-6.59512
 21
48.6152
  0
LINE
  8
0
 10
-6.59512
 20
48.6152
 11
-6.61562
 21
48.7945
  0
LINE
  8
0
 10
-6.61562
 20
48.7945
 11
-6.66387
 21
48.9674
  0
LINE
  8
0
 10
-6.66387
 20
48.9674
 11
-6.73848
 21
49.1307
  0
LINE
  8
0
 10
-6.73848
 20
49.1307
 11
-6.86348
 21
49.3472
  0
LINE
  8
0
 10
-6.86348
 20
49.3472
 11
-6.96348
 21
49.4974
  0
LINE
  8
0
 10
-6.96348
 20
49.4974
 11
-7.0875
 21
49.6313
  0
LINE
  8
0
 10
-7.0875
 20
49.6313
 11
-7.23438
 21
49.7458
  0
LINE
  8
0
 10
-7.23438
 20
49.7458
 11
-8.13567
 21
50.3392
  0
LINE
  8
0
 10
-8.13567
 20
50.3392
 11
-9.75313
 21
51.404
  0
LINE
  8
0
 10
-9.75313
 20
51.404
 11
-9.91641
 21
51.4938
  0
LINE
  8
0
 10
-9.91641
 20
51.4938
 11
-10.0885
 21
51.5552
  0
LINE
  8
0
 10
-10.0885
 20
51.5552
 11
-10.266
 21
51.5878
  0
LINE
  8
0
 10
-10.266
 20
51.5878
 11
-10.4455
 21
51.5921
  0
LINE
  8
0
 10
-10.4455
 20
51.5921
 11
-10.6955
 21
51.5921
  0
LINE
  8
0
 10
-10.6955
 20
51.5921
 11
-10.8734
 21
51.5685
  0
LINE
  8
0
 10
-10.8734
 20
51.5685
 11
-11.0463
 21
51.5165
  0
LINE
  8
0
 10
-11.0463
 20
51.5165
 11
-11.2107
 21
51.437
  0
LINE
  8
0
 10
-11.2107
 20
51.437
 11
-11.3631
 21
51.3298
  0
LINE
  8
0
 10
-11.3631
 20
51.3298
 11
-12.5517
 21
50.3392
  0
LINE
  8
0
 10
-12.5517
 20
50.3392
 11
-14.4752
 21
48.7361
  0
LINE
  8
0
 10
-14.4752
 20
48.7361
 11
-15.1699
 21
48.9858
  0
LINE
  8
0
 10
-15.1699
 20
48.9858
 11
-15.9715
 21
49.2358
  0
LINE
  8
0
 10
-15.9715
 20
49.2358
 11
-16.7811
 21
52.7139
  0
LINE
  8
0
 10
-16.7811
 20
52.7139
 11
-16.8271
 21
52.9113
  0
LINE
  8
0
 10
-16.8271
 20
52.9113
 11
-16.8672
 21
53.0836
  0
LINE
  8
0
 10
-16.8672
 20
53.0836
 11
-16.9236
 21
53.2611
  0
LINE
  8
0
 10
-16.9236
 20
53.2611
 11
-17.0062
 21
53.4238
  0
LINE
  8
0
 10
-17.0062
 20
53.4238
 11
-17.1313
 21
53.6403
  0
LINE
  8
0
 10
-17.1313
 20
53.6403
 11
-17.2375
 21
53.7862
  0
LINE
  8
0
 10
-17.2375
 20
53.7862
 11
-17.3646
 21
53.9128
  0
LINE
  8
0
 10
-17.3646
 20
53.9128
 11
-17.5102
 21
54.0181
  0
LINE
  8
0
 10
-17.5102
 20
54.0181
 11
-17.6713
 21
54.0995
  0
LINE
  8
0
 10
-17.6713
 20
54.0995
 11
-17.8451
 21
54.1548
  0
LINE
  8
0
 10
-17.8451
 20
54.1548
 11
-18.0293
 21
54.1821
  0
LINE
  8
0
 10
-18.0293
 20
54.1821
 11
-20.9432
 21
54.374
  0
LINE
  8
0
 10
-20.9432
 20
54.374
 11
-20.9434
 21
54.3743
  0
LINE
  8
0
 10
-20.9434
 20
54.3743
 11
-20.9908
 21
54.3771
  0
LINE
  8
0
 10
-20.9908
 20
54.3771
 11
-21.118
 21
54.3813
  0
LINE
  8
0
 10
-21.118
 20
54.3813
 11
-21.368
 21
54.3813
  0
LINE
  8
0
 10
-21.368
 20
54.3813
 11
-21.4512
 21
54.3743
  0
LINE
  8
0
 10
-21.4512
 20
54.3743
 11
-21.5414
 21
54.3667
  0
LINE
  8
0
 10
-21.5414
 20
54.3667
 11
-21.7078
 21
54.3267
  0
LINE
  8
0
 10
-21.7078
 20
54.3267
 11
-21.8648
 21
54.2628
  0
LINE
  8
0
 10
-21.8648
 20
54.2628
 11
-22.01
 21
54.1771
  0
LINE
  8
0
 10
-22.01
 20
54.1771
 11
-22.1408
 21
54.0706
  0
LINE
  8
0
 10
-22.1408
 20
54.0706
 11
-22.2551
 21
53.9456
  0
LINE
  8
0
 10
-22.2551
 20
53.9456
 11
-22.3504
 21
53.8034
  0
LINE
  8
0
 10
-22.3504
 20
53.8034
 11
-22.4754
 21
53.5869
  0
LINE
  8
0
 10
-22.4754
 20
53.5869
 11
-22.5494
 21
53.4293
  0
LINE
  8
0
 10
-22.5494
 20
53.4293
 11
-22.7454
 21
52.9113
  0
LINE
  8
0
 10
-22.7454
 20
52.9113
 11
-23.9395
 21
49.7549
  0
LINE
  8
0
 10
-23.9395
 20
49.7549
 11
-24.4318
 21
49.6749
  0
LINE
  8
0
 10
-24.4318
 20
49.6749
 11
-24.9268
 21
49.5782
  0
LINE
  8
0
 10
-24.9268
 20
49.5782
 11
-25.6943
 21
49.4002
  0
LINE
  8
0
 10
-25.6943
 20
49.4002
 11
-27.6585
 21
51.4821
  0
LINE
  8
0
 10
-27.6585
 20
51.4821
 11
-28.5051
 21
52.3794
  0
LINE
  8
0
 10
-28.5051
 20
52.3794
 11
-28.643
 21
52.5032
  0
LINE
  8
0
 10
-28.643
 20
52.5032
 11
-28.7959
 21
52.6015
  0
LINE
  8
0
 10
-28.7959
 20
52.6015
 11
-28.9605
 21
52.6735
  0
LINE
  8
0
 10
-28.9605
 20
52.6735
 11
-29.1334
 21
52.7185
  0
LINE
  8
0
 10
-29.1334
 20
52.7185
 11
-29.3113
 21
52.736
  0
LINE
  8
0
 10
-29.3113
 20
52.736
 11
-29.5613
 21
52.736
  0
LINE
  8
0
 10
-29.5613
 20
52.736
 11
-29.7406
 21
52.7255
  0
LINE
  8
0
 10
-29.7406
 20
52.7255
 11
-29.9182
 21
52.6862
  0
LINE
  8
0
 10
-29.9182
 20
52.6862
 11
-30.0904
 21
52.6175
  0
LINE
  8
0
 10
-30.0904
 20
52.6175
 11
-32.3913
 21
51.4821
  0
LINE
  8
0
 10
-32.3913
 20
51.4821
 11
-32.7855
 21
51.2876
  0
LINE
  8
0
 10
-32.7855
 20
51.2876
 11
-32.9455
 21
51.1919
  0
LINE
  8
0
 10
-32.9455
 20
51.1919
 11
-33.085
 21
51.0741
  0
LINE
  8
0
 10
-33.085
 20
51.0741
 11
-33.2025
 21
50.9372
  0
LINE
  8
0
 10
-33.2025
 20
50.9372
 11
-33.2967
 21
50.7845
  0
LINE
  8
0
 10
-33.2967
 20
50.7845
 11
-33.4217
 21
50.568
  0
LINE
  8
0
 10
-33.4217
 20
50.568
 11
-33.4908
 21
50.4023
  0
LINE
  8
0
 10
-33.4908
 20
50.4023
 11
-33.5332
 21
50.2268
  0
LINE
  8
0
 10
-33.5332
 20
50.2268
 11
-33.5473
 21
50.0447
  0
LINE
  8
0
 10
-33.5473
 20
50.0447
 11
-33.5378
 21
49.934
  0
LINE
  8
0
 10
-33.5378
 20
49.934
 11
-33.5314
 21
49.8592
  0
LINE
  8
0
 10
-33.5314
 20
49.8592
 11
-32.8982
 21
46.0721
  0
LINE
  8
0
 10
-32.8982
 20
46.0721
 11
-32.8721
 21
45.8551
  0
LINE
  8
0
 10
-32.8721
 20
45.8551
 11
-32.8715
 21
45.8504
  0
LINE
  8
0
 10
-32.8715
 20
45.8504
 11
-33.0736
 21
45.6802
  0
LINE
  8
0
 10
-33.0736
 20
45.6802
 11
-33.1258
 21
45.6362
  0
LINE
  8
0
 10
-33.1258
 20
45.6362
 11
-33.5133
 21
45.3099
  0
LINE
  8
0
 10
-33.5133
 20
45.3099
 11
-34.0242
 21
44.8358
  0
LINE
  8
0
 10
-34.0242
 20
44.8358
 11
-34.1958
 21
44.6766
  0
LINE
  8
0
 10
-34.1958
 20
44.6766
 11
-38.0178
 21
45.7753
  0
LINE
  8
0
 10
-38.0178
 20
45.7753
 11
-38.198
 21
45.8112
  0
LINE
  8
0
 10
-38.198
 20
45.8112
 11
-38.3781
 21
45.8179
  0
LINE
  8
0
 10
-38.3781
 20
45.8179
 11
-38.6281
 21
45.8179
  0
LINE
  8
0
 10
-38.6281
 20
45.8179
 11
-38.8051
 21
45.7964
  0
LINE
  8
0
 10
-38.8051
 20
45.7964
 11
-38.9756
 21
45.7479
  0
LINE
  8
0
 10
-38.9756
 20
45.7479
 11
-39.1365
 21
45.6737
  0
LINE
  8
0
 10
-39.1365
 20
45.6737
 11
-39.285
 21
45.5749
  0
LINE
  8
0
 10
-39.285
 20
45.5749
 11
-39.4174
 21
45.4526
  0
LINE
  8
0
 10
-39.4174
 20
45.4526
 11
-39.5307
 21
45.3079
  0
LINE
  8
0
 10
-39.5307
 20
45.3079
 11
-39.9849
 21
44.6218
  0
LINE
  8
0
 10
-39.9849
 20
44.6218
 11
-40.023
 21
44.5642
  0
LINE
  8
0
 10
-40.023
 20
44.5642
 11
-41.1887
 21
42.8032
  0
LINE
  8
0
 10
-41.1887
 20
42.8032
 11
-41.3137
 21
42.5867
  0
LINE
  8
0
 10
-41.3137
 20
42.5867
 11
-41.4045
 21
42.4234
  0
LINE
  8
0
 10
-41.4045
 20
42.4234
 11
-41.4664
 21
42.251
  0
LINE
  8
0
 10
-41.4664
 20
42.251
 11
-41.4996
 21
42.073
  0
LINE
  8
0
 10
-41.4996
 20
42.073
 11
-41.5041
 21
41.893
  0
LINE
  8
0
 10
-41.5041
 20
41.893
 11
-41.497
 21
41.8395
  0
LINE
  8
0
 10
-41.497
 20
41.8395
 11
-41.4805
 21
41.7145
  0
LINE
  8
0
 10
-41.4805
 20
41.7145
 11
-41.4287
 21
41.541
  0
LINE
  8
0
 10
-41.4287
 20
41.541
 11
-41.349
 21
41.376
  0
LINE
  8
0
 10
-41.349
 20
41.376
 11
-41.224
 21
41.1595
  0
LINE
  8
0
 10
-41.224
 20
41.1595
 11
-41.1164
 21
41.0067
  0
LINE
  8
0
 10
-41.1164
 20
41.0067
 11
-38.595
 21
37.9762
  0
LINE
  8
0
 10
-38.595
 20
37.9762
 11
-38.808
 21
37.4064
  0
LINE
  8
0
 10
-38.808
 20
37.4064
 11
-38.8965
 21
37.1699
  0
LINE
  8
0
 10
-38.8965
 20
37.1699
 11
-39.0529
 21
36.6836
  0
LINE
  8
0
 10
-39.0529
 20
36.6836
 11
-39.1196
 21
36.4764
  0
LINE
  8
0
 10
-39.1196
 20
36.4764
 11
-40.4458
 21
36.1681
  0
LINE
  8
0
 10
-40.4458
 20
36.1681
 11
-43.0885
 21
35.5536
  0
LINE
  8
0
 10
-43.0885
 20
35.5536
 11
-43.2656
 21
35.497
  0
LINE
  8
0
 10
-43.2656
 20
35.497
 11
-43.4281
 21
35.4142
  0
LINE
  8
0
 10
-43.4281
 20
35.4142
 11
-43.5736
 21
35.3079
  0
LINE
  8
0
 10
-43.5736
 20
35.3079
 11
-43.7002
 21
35.1806
  0
LINE
  8
0
 10
-43.7002
 20
35.1806
 11
-43.8051
 21
35.0353
  0
LINE
  8
0
 10
-43.8051
 20
35.0353
 11
-43.9301
 21
34.8187
  0
LINE
  8
0
 10
-43.9301
 20
34.8187
 11
-44.0113
 21
34.6578
  0
LINE
  8
0
 10
-44.0113
 20
34.6578
 11
-44.0666
 21
34.484
  0
LINE
  8
0
 10
-44.0666
 20
34.484
 11
-44.0936
 21
34.3
  0
LINE
  8
0
 10
-44.0936
 20
34.3
 11
-44.106
 21
34.1119
  0
LINE
  8
0
 10
-44.106
 20
34.1119
 11
-44.293
 21
31.2979
  0
LINE
  8
0
 10
-42.6443
 20
31.275
 11
-42.4685
 21
33.9215
  0
LINE
  8
0
 10
-42.4685
 20
33.9215
 11
-37.8801
 21
34.989
  0
LINE
  8
0
 10
-37.8801
 20
34.989
 11
-37.7551
 21
35.2055
  0
LINE
  8
0
 10
-37.7551
 20
35.2055
 11
-37.5615
 21
35.9516
  0
LINE
  8
0
 10
-37.5615
 20
35.9516
 11
-37.4563
 21
36.2738
  0
LINE
  8
0
 10
-37.4563
 20
36.2738
 11
-37.3225
 21
36.6836
  0
LINE
  8
0
 10
-37.3225
 20
36.6836
 11
-37.0547
 21
37.4064
  0
LINE
  8
0
 10
-37.0547
 20
37.4064
 11
-36.8145
 21
38.0219
  0
LINE
  8
0
 10
-36.8145
 20
38.0219
 11
-36.7744
 21
38.1246
  0
LINE
  8
0
 10
-36.7744
 20
38.1246
 11
-36.8994
 21
38.3411
  0
LINE
  8
0
 10
-36.8994
 20
38.3411
 11
-39.8302
 21
41.8641
  0
LINE
  8
0
 10
-39.8302
 20
41.8641
 11
-38.3698
 21
44.0708
  0
LINE
  8
0
 10
-38.3698
 20
44.0708
 11
-37.7373
 21
43.8892
  0
LINE
  8
0
 10
-37.7373
 20
43.8892
 11
-35.8679
 21
43.3522
  0
LINE
  8
0
 10
-35.8679
 20
43.3522
 11
-33.925
 21
42.7942
  0
LINE
  8
0
 10
-33.925
 20
42.7942
 11
-33.675
 21
42.7942
  0
LINE
  8
0
 10
-33.675
 20
42.7942
 11
-33.1125
 21
43.3522
  0
LINE
  8
0
 10
-33.1125
 20
43.3522
 11
-32.5314
 21
43.8892
  0
LINE
  8
0
 10
-32.5314
 20
43.8892
 11
-32.248
 21
44.1312
  0
LINE
  8
0
 10
-32.248
 20
44.1312
 11
-32.1805
 21
44.1888
  0
LINE
  8
0
 10
-32.1805
 20
44.1888
 11
-31.9297
 21
44.4028
  0
LINE
  8
0
 10
-31.9297
 20
44.4028
 11
-31.3053
 21
44.8909
  0
LINE
  8
0
 10
-31.3053
 20
44.8909
 11
-31.1803
 21
45.1074
  0
LINE
  8
0
 10
-31.1803
 20
45.1074
 11
-31.1436
 21
45.2146
  0
LINE
  8
0
 10
-31.1436
 20
45.2146
 11
-31.1342
 21
45.3322
  0
LINE
  8
0
 10
-31.1342
 20
45.3322
 11
-31.1464
 21
45.4197
  0
LINE
  8
0
 10
-31.1464
 20
45.4197
 11
-31.147
 21
45.4238
  0
LINE
  8
0
 10
-31.147
 20
45.4238
 11
-31.1525
 21
45.4637
  0
LINE
  8
0
 10
-31.1525
 20
45.4637
 11
-31.1699
 21
45.5885
  0
LINE
  8
0
 10
-31.1699
 20
45.5885
 11
-31.2078
 21
45.7494
  0
LINE
  8
0
 10
-31.2078
 20
45.7494
 11
-31.2326
 21
45.8551
  0
LINE
  8
0
 10
-31.2326
 20
45.8551
 11
-31.2618
 21
46.0721
  0
LINE
  8
0
 10
-31.2618
 20
46.0721
 11
-31.267
 21
46.1107
  0
LINE
  8
0
 10
-31.267
 20
46.1107
 11
-31.8822
 21
49.791
  0
LINE
  8
0
 10
-31.8822
 20
49.791
 11
-29.5047
 21
50.9649
  0
LINE
  8
0
 10
-29.5047
 20
50.9649
 11
-27.5745
 21
48.9196
  0
LINE
  8
0
 10
-27.5745
 20
48.9196
 11
-27.4862
 21
48.8261
  0
LINE
  8
0
 10
-27.4862
 20
48.8261
 11
-27.3701
 21
48.703
  0
LINE
  8
0
 10
-27.3701
 20
48.703
 11
-26.7482
 21
48.044
  0
LINE
  8
0
 10
-26.7482
 20
48.044
 11
-26.6163
 21
47.9042
  0
LINE
  8
0
 10
-26.6163
 20
47.9042
 11
-26.4557
 21
47.7341
  0
LINE
  8
0
 10
-26.4557
 20
47.7341
 11
-26.2732
 21
47.5407
  0
LINE
  8
0
 10
-26.2732
 20
47.5407
 11
-26.0232
 21
47.5407
  0
LINE
  8
0
 10
-26.0232
 20
47.5407
 11
-25.2809
 21
47.7341
  0
LINE
  8
0
 10
-25.2809
 20
47.7341
 11
-24.5336
 21
47.9042
  0
LINE
  8
0
 10
-24.5336
 20
47.9042
 11
-23.7807
 21
48.044
  0
LINE
  8
0
 10
-23.7807
 20
48.044
 11
-23.0201
 21
48.1472
  0
LINE
  8
0
 10
-23.0201
 20
48.1472
 11
-22.8984
 21
48.1698
  0
LINE
  8
0
 10
-22.8984
 20
48.1698
 11
-22.8096
 21
48.2335
  0
LINE
  8
0
 10
-22.8096
 20
48.2335
 11
-22.7459
 21
48.3282
  0
LINE
  8
0
 10
-22.7459
 20
48.3282
 11
-22.6209
 21
48.5447
  0
LINE
  8
0
 10
-22.6209
 20
48.5447
 11
-22.5748
 21
48.6609
  0
LINE
  8
0
 10
-22.5748
 20
48.6609
 11
-22.5031
 21
48.9195
  0
LINE
  8
0
 10
-22.5031
 20
48.9195
 11
-22.4623
 21
49.0426
  0
LINE
  8
0
 10
-22.4623
 20
49.0426
 11
-22.4138
 21
49.1361
  0
LINE
  8
0
 10
-22.4138
 20
49.1361
 11
-22.4074
 21
49.1484
  0
LINE
  8
0
 10
-22.4074
 20
49.1484
 11
-22.2591
 21
49.54
  0
LINE
  8
0
 10
-22.2591
 20
49.54
 11
-22.183
 21
49.741
  0
LINE
  8
0
 10
-22.183
 20
49.741
 11
-21.0715
 21
52.676
  0
LINE
  8
0
 10
-21.0715
 20
52.676
 11
-18.4293
 21
52.5023
  0
LINE
  8
0
 10
-18.4293
 20
52.5023
 11
-17.6253
 21
49.0443
  0
LINE
  8
0
 10
-17.6253
 20
49.0443
 11
-17.4888
 21
48.4568
  0
LINE
  8
0
 10
-17.4888
 20
48.4568
 11
-17.3848
 21
48.0096
  0
LINE
  8
0
 10
-17.3848
 20
48.0096
 11
-17.2598
 21
47.7931
  0
LINE
  8
0
 10
-17.2598
 20
47.7931
 11
-16.5166
 21
47.5901
  0
LINE
  8
0
 10
-16.5166
 20
47.5901
 11
-15.7826
 21
47.3595
  0
LINE
  8
0
 10
-15.7826
 20
47.3595
 11
-15.0578
 21
47.1015
  0
LINE
  8
0
 10
-15.0578
 20
47.1015
 11
-14.3424
 21
46.8157
  0
LINE
  8
0
 10
-14.3424
 20
46.8157
 11
-14.0924
 21
46.8157
  0
LINE
  8
0
 10
-14.0924
 20
46.8157
 11
-13.7494
 21
47.1015
  0
LINE
  8
0
 10
-13.7494
 20
47.1015
 11
-13.4397
 21
47.3595
  0
LINE
  8
0
 10
-13.4397
 20
47.3595
 11
-13.1628
 21
47.5901
  0
LINE
  8
0
 10
-13.1628
 20
47.5901
 11
-12.3824
 21
48.2403
  0
LINE
  8
0
 10
-12.3824
 20
48.2403
 11
-10.4931
 21
49.8142
  0
LINE
  8
0
 10
-10.4931
 20
49.8142
 11
-8.26887
 21
48.3506
  0
LINE
  8
0
 10
-8.26887
 20
48.3506
 11
-9.48026
 21
44.2678
  0
LINE
  8
0
 10
-9.48026
 20
44.2678
 11
-9.60781
 21
43.8379
  0
LINE
  8
0
 10
-9.60781
 20
43.8379
 11
-9.48281
 21
43.6214
  0
LINE
  8
0
 10
-9.48281
 20
43.6214
 11
-8.90078
 21
43.0345
  0
LINE
  8
0
 10
-8.90078
 20
43.0345
 11
-8.40017
 21
42.5042
  0
LINE
  8
0
 10
-8.40017
 20
42.5042
 11
-8.33379
 21
42.4339
  0
LINE
  8
0
 10
-8.33379
 20
42.4339
 11
-7.91452
 21
41.9476
  0
LINE
  8
0
 10
-7.91452
 20
41.9476
 11
-7.79531
 21
41.8093
  0
LINE
  8
0
 10
-7.79531
 20
41.8093
 11
-7.29922
 21
41.1503
  0
LINE
  8
0
 10
-7.29922
 20
41.1503
 11
-7.04922
 21
41.1503
  0
LINE
  8
0
 10
-7.04922
 20
41.1503
 11
-3.1084
 21
41.8093
  0
LINE
  8
0
 10
-3.1084
 20
41.8093
 11
-2.52908
 21
41.9061
  0
LINE
  8
0
 10
-2.52908
 20
41.9061
 11
-1.35783
 21
39.5343
  0
LINE
  8
0
 10
-1.35783
 20
39.5343
 11
-4.70801
 21
36.3745
  0
LINE
  8
0
 10
-4.70801
 20
36.3745
 11
-4.83301
 21
36.158
  0
LINE
  8
0
 10
-4.83301
 20
36.158
 11
-4.76577
 21
35.9121
  0
LINE
  8
0
 10
-4.76577
 20
35.9121
 11
-4.61641
 21
35.3658
  0
LINE
  8
0
 10
-4.61641
 20
35.3658
 11
-4.43594
 21
34.5652
  0
LINE
  8
0
 10
-4.43594
 20
34.5652
 11
-4.31556
 21
33.8801
  0
LINE
  8
0
 10
-4.31556
 20
33.8801
 11
-4.29395
 21
33.757
  0
LINE
  8
0
 10
-4.29395
 20
33.757
 11
-4.19277
 21
32.9424
  0
LINE
  8
0
 10
-4.19277
 20
32.9424
 11
-4.06777
 21
32.7259
  0
LINE
  8
0
 10
-4.06777
 20
32.7259
 11
0.310215
 21
31.0733
  0
LINE
  8
0
 10
0.310215
 20
31.0733
 11
0.135969
 21
28.4267
  0
LINE
  8
0
 10
0.135969
 20
28.4267
 11
-4.45586
 21
27.3593
  0
LINE
  8
0
 10
-4.45586
 20
27.3593
 11
-4.58086
 21
27.1428
  0
LINE
  8
0
 10
-4.58086
 20
27.1428
 11
-4.67324
 21
26.7689
  0
LINE
  8
0
 10
-4.67324
 20
26.7689
 11
-4.78125
 21
26.3998
  0
LINE
  8
0
 10
-4.78125
 20
26.3998
 11
-4.81516
 21
26.3008
  0
LINE
  8
0
 10
-4.81516
 20
26.3008
 11
-5.03047
 21
25.6721
  0
LINE
  8
0
 10
-5.03047
 20
25.6721
 11
-5.29902
 21
24.95
  0
LINE
  8
0
 10
-5.29902
 20
24.95
 11
-5.43657
 21
24.565
  0
LINE
  8
0
 10
-5.43657
 20
24.565
 11
-5.55801
 21
24.2252
  0
LINE
  8
0
 10
-5.55801
 20
24.2252
 11
-5.43301
 21
24.0087
  0
LINE
  8
0
 10
-5.43301
 20
24.0087
 11
-2.51631
 21
20.5036
  0
LINE
  8
0
 10
-2.51631
 20
20.5036
 11
-2.56699
 21
20.3844
  0
LINE
  8
0
 10
-2.56699
 20
20.3844
 11
-2.57892
 21
20.3621
  0
LINE
  8
0
 10
-2.57892
 20
20.3621
 11
-2.72715
 21
20.1341
  0
LINE
  8
0
 10
-2.72715
 20
20.1341
 11
-2.94199
 21
19.8304
  0
LINE
  8
0
 10
-2.94199
 20
19.8304
 11
-3.14004
 21
19.5216
  0
LINE
  8
0
 10
-3.14004
 20
19.5216
 11
-3.29638
 21
19.2853
  0
LINE
  8
0
 10
-3.29638
 20
19.2853
 11
-3.4376
 21
19.0718
  0
LINE
  8
0
 10
-3.4376
 20
19.0718
 11
-3.96344
 21
18.2769
  0
LINE
  8
0
 10
-3.96344
 20
18.2769
 11
-6.12617
 21
18.9155
  0
LINE
  8
0
 10
-6.12617
 20
18.9155
 11
-8.49024
 21
19.628
  0
LINE
  8
0
 10
-8.49024
 20
19.628
 11
-11.5159
 21
22.5053
  0
LINE
  8
0
 10
-11.5159
 20
22.5053
 11
-11.1541
 21
22.9161
  0
LINE
  8
0
 10
-11.1541
 20
22.9161
 11
-10.6285
 21
23.5989
  0
LINE
  8
0
 10
-10.6285
 20
23.5989
 11
-10.524
 21
23.7552
  0
LINE
  8
0
 10
-10.524
 20
23.7552
 11
-10.1494
 21
24.3149
  0
LINE
  8
0
 10
-10.1494
 20
24.3149
 11
-10.1128
 21
24.3784
  0
LINE
  8
0
 10
-10.1128
 20
24.3784
 11
-9.73566
 21
25.0315
  0
LINE
  8
0
 10
-9.73566
 20
25.0315
 11
-9.61066
 21
25.248
  0
LINE
  8
0
 10
-9.61066
 20
25.248
 11
-9.61066
 21
25.248
  0
LINE
  8
0
 10
-9.61066
 20
25.248
 11
-9.59375
 21
25.2773
  0
LINE
  8
0
 10
-9.59375
 20
25.2773
 11
-9.27444
 21
25.9281
  0
LINE
  8
0
 10
-9.27444
 20
25.9281
 11
-9.21445
 21
26.0504
  0
LINE
  8
0
 10
-9.21445
 20
26.0504
 11
-8.97674
 21
26.6318
  0
LINE
  8
0
 10
-8.97674
 20
26.6318
 11
-8.88867
 21
26.8473
  0
LINE
  8
0
 10
-8.88867
 20
26.8473
 11
-8.72065
 21
27.3564
  0
LINE
  8
0
 10
-8.72065
 20
27.3564
 11
-8.61875
 21
27.6652
  0
LINE
  8
0
 10
-8.61875
 20
27.6652
 11
-8.50928
 21
28.0984
  0
LINE
  8
0
 10
-8.50928
 20
28.0984
 11
-8.40762
 21
28.5008
  0
LINE
  8
0
 10
-8.40762
 20
28.5008
 11
-8.34051
 21
28.8549
  0
LINE
  8
0
 10
-8.34051
 20
28.8549
 11
-8.27695
 21
29.1902
  0
LINE
  8
0
 10
-8.27695
 20
29.1902
 11
-8.23817
 21
29.4842
  0
LINE
  8
0
 10
-8.23817
 20
29.4842
 11
-8.18516
 21
29.8859
  0
LINE
  8
0
 10
-8.18516
 20
29.8859
 11
-8.16784
 21
30.1166
  0
LINE
  8
0
 10
-8.16784
 20
30.1166
 11
-8.13262
 21
30.5859
  0
LINE
  8
0
 10
-8.13262
 20
30.5859
 11
-8.12935
 21
30.7533
  0
LINE
  8
0
 10
-8.12935
 20
30.7533
 11
-8.11894
 21
31.2879
  0
LINE
  8
0
 10
-8.11894
 20
31.2879
 11
-8.12276
 21
31.3916
  0
LINE
  8
0
 10
-8.12276
 20
31.3916
 11
-8.14473
 21
31.9895
  0
LINE
  8
0
 10
-8.14473
 20
31.9895
 11
-8.14844
 21
32.0295
  0
LINE
  8
0
 10
-8.14844
 20
32.0295
 11
-8.20736
 21
32.6646
  0
LINE
  8
0
 10
-8.20736
 20
32.6646
 11
-8.20957
 21
32.6885
  0
LINE
  8
0
 10
-8.20957
 20
32.6885
 11
-8.30086
 21
33.2947
  0
LINE
  8
0
 10
-8.30086
 20
33.2947
 11
-8.31406
 21
33.3824
  0
LINE
  8
0
 10
-8.31406
 20
33.3824
 11
-8.42747
 21
33.9242
  0
LINE
  8
0
 10
-8.42747
 20
33.9242
 11
-8.45781
 21
34.0691
  0
LINE
  8
0
 10
-8.45781
 20
34.0691
 11
-8.62292
 21
34.6766
  0
LINE
  8
0
 10
-8.62292
 20
34.6766
 11
-8.6834
 21
34.899
  0
LINE
  8
0
 10
-8.6834
 20
34.899
 11
-8.86279
 21
35.4137
  0
LINE
  8
0
 10
-8.86279
 20
35.4137
 11
-8.96641
 21
35.7109
  0
LINE
  8
0
 10
-8.96641
 20
35.7109
 11
-9.14658
 21
36.132
  0
LINE
  8
0
 10
-9.14658
 20
36.132
 11
-9.30469
 21
36.5016
  0
LINE
  8
0
 10
-9.30469
 20
36.5016
 11
-9.47183
 21
36.8285
  0
LINE
  8
0
 10
-9.47183
 20
36.8285
 11
-9.69609
 21
37.2672
  0
LINE
  8
0
 10
-9.69609
 20
37.2672
 11
-9.82109
 21
37.4837
  0
LINE
  8
0
 10
-9.82109
 20
37.4837
 11
-9.96045
 21
37.7161
  0
LINE
  8
0
 10
-9.96045
 20
37.7161
 11
-10.2633
 21
38.2212
  0
LINE
  8
0
 10
-10.2633
 20
38.2212
 11
-10.359
 21
38.3589
  0
LINE
  8
0
 10
-10.359
 20
38.3589
 11
-10.7541
 21
38.9272
  0
LINE
  8
0
 10
-10.7541
 20
38.9272
 11
-10.788
 21
38.9696
  0
LINE
  8
0
 10
-10.788
 20
38.9696
 11
-11.2489
 21
39.5452
  0
LINE
  8
0
 10
-11.2489
 20
39.5452
 11
-11.2916
 21
39.5985
  0
LINE
  8
0
 10
-11.2916
 20
39.5985
 11
-11.6982
 21
40.0409
  0
LINE
  8
0
 10
-11.6982
 20
40.0409
 11
-11.8736
 21
40.2317
  0
LINE
  8
0
 10
-11.8736
 20
40.2317
 11
-12.159
 21
40.5038
  0
LINE
  8
0
 10
-12.159
 20
40.5038
 11
-12.4457
 21
40.7772
  0
LINE
  8
0
 10
-12.4457
 20
40.7772
 11
-12.63
 21
40.9321
  0
LINE
  8
0
 10
-12.63
 20
40.9321
 11
-13.0506
 21
41.2856
  0
LINE
  8
0
 10
-13.0506
 20
41.2856
 11
-13.1036
 21
41.3249
  0
LINE
  8
0
 10
-13.1036
 20
41.3249
 11
-13.5837
 21
41.6804
  0
LINE
  8
0
 10
-13.5837
 20
41.6804
 11
-13.6857
 21
41.756
  0
LINE
  8
0
 10
-13.6857
 20
41.756
 11
-14.0566
 21
41.997
  0
LINE
  8
0
 10
-14.0566
 20
41.997
 11
-14.3484
 21
42.1866
  0
LINE
  8
0
 10
-14.3484
 20
42.1866
 11
-14.5019
 21
42.2735
  0
LINE
  8
0
 10
-14.5019
 20
42.2735
 11
-14.9203
 21
42.5105
  0
LINE
  8
0
 10
-14.9203
 20
42.5105
 11
-15.0361
 21
42.5761
  0
LINE
  8
0
 10
-15.0361
 20
42.5761
 11
-15.2872
 21
42.6987
  0
LINE
  8
0
 10
-15.2872
 20
42.6987
 11
-15.5867
 21
42.845
  0
LINE
  8
0
 10
-15.5867
 20
42.845
 11
-15.7463
 21
42.9229
  0
LINE
  8
0
 10
-15.7463
 20
42.9229
 11
-15.8089
 21
42.9489
  0
LINE
  8
0
 10
-15.8089
 20
42.9489
 11
-15.957
 21
43.0105
  0
LINE
  8
0
 10
-15.957
 20
43.0105
 11
-16.0022
 21
43.0292
  0
LINE
  8
0
 10
-16.0022
 20
43.0292
 11
-16.4764
 21
43.2261
  0
LINE
  8
0
 10
-16.4764
 20
43.2261
 11
-17.2238
 21
43.4839
  0
LINE
  8
0
 10
-17.2238
 20
43.4839
 11
-17.9799
 21
43.6911
  0
LINE
  8
0
 10
-17.9799
 20
43.6911
 11
-18.7473
 21
43.8521
  0
LINE
  8
0
 10
-18.7473
 20
43.8521
 11
-19.5229
 21
43.9665
  0
LINE
  8
0
 10
-19.5229
 20
43.9665
 11
-20.3039
 21
44.0341
  0
LINE
  8
0
 10
-20.3039
 20
44.0341
 11
-21.0877
 21
44.0548
  0
LINE
  8
0
 10
-21.0877
 20
44.0548
 11
-21.3377
 21
44.0548
  0
LINE
  8
0
 10
-21.3377
 20
44.0548
 11
-22.1215
 21
44.0282
  0
LINE
  8
0
 10
-22.1215
 20
44.0282
 11
-22.9021
 21
43.9546
  0
LINE
  8
0
 10
-22.9021
 20
43.9546
 11
-23.677
 21
43.8335
  0
LINE
  8
0
 10
-23.677
 20
43.8335
 11
-24.4496
 21
43.6649
  0
LINE
  8
0
 10
-24.4496
 20
43.6649
 11
-25.21
 21
43.4478
  0
LINE
  8
0
 10
-25.21
 20
43.4478
 11
-25.9551
 21
43.1833
  0
LINE
  8
0
 10
-25.9551
 20
43.1833
 11
-26.317
 21
43.0292
  0
LINE
  8
0
 10
-26.317
 20
43.0292
 11
-26.3734
 21
43.0052
  0
LINE
  8
0
 10
-26.3734
 20
43.0052
 11
-26.5312
 21
42.938
  0
LINE
  8
0
 10
-26.5312
 20
42.938
 11
-26.6826
 21
42.8735
  0
LINE
  8
0
 10
-26.6826
 20
42.8735
 11
-26.774
 21
42.8278
  0
LINE
  8
0
 10
-26.774
 20
42.8278
 11
-27.0832
 21
42.6731
  0
LINE
  8
0
 10
-27.0832
 20
42.6731
 11
-27.39
 21
42.5196
  0
LINE
  8
0
 10
-27.39
 20
42.5196
 11
-27.466
 21
42.4757
  0
LINE
  8
0
 10
-27.466
 20
42.4757
 11
-27.8826
 21
42.2349
  0
LINE
  8
0
 10
-27.8826
 20
42.2349
 11
-28.0748
 21
42.1237
  0
LINE
  8
0
 10
-28.0748
 20
42.1237
 11
-28.3333
 21
41.9526
  0
LINE
  8
0
 10
-28.3333
 20
41.9526
 11
-28.7344
 21
41.6872
  0
LINE
  8
0
 10
-28.7344
 20
41.6872
 11
-28.8101
 21
41.6302
  0
LINE
  8
0
 10
-28.8101
 20
41.6302
 11
-29.2897
 21
41.2692
  0
LINE
  8
0
 10
-29.2897
 20
41.2692
 11
-29.3662
 21
41.2116
  0
LINE
  8
0
 10
-29.3662
 20
41.2116
 11
-29.7626
 21
40.8712
  0
LINE
  8
0
 10
-29.7626
 20
40.8712
 11
-29.9516
 21
40.7089
  0
LINE
  8
0
 10
-29.9516
 20
40.7089
 11
-30.2303
 21
40.4378
  0
LINE
  8
0
 10
-30.2303
 20
40.4378
 11
-30.5045
 21
40.1712
  0
LINE
  8
0
 10
-30.5045
 20
40.1712
 11
-30.68
 21
39.9784
  0
LINE
  8
0
 10
-30.68
 20
39.9784
 11
-31.0236
 21
39.6011
  0
LINE
  8
0
 10
-31.0236
 20
39.6011
 11
-31.1129
 21
39.4903
  0
LINE
  8
0
 10
-31.1129
 20
39.4903
 11
-31.5076
 21
39.0009
  0
LINE
  8
0
 10
-31.5076
 20
39.0009
 11
-31.5279
 21
38.9724
  0
LINE
  8
0
 10
-31.5279
 20
38.9724
 11
-31.9165
 21
38.4267
  0
LINE
  8
0
 10
-31.9165
 20
38.4267
 11
-31.9549
 21
38.3728
  0
LINE
  8
0
 10
-31.9549
 20
38.3728
 11
-32.2788
 21
37.8556
  0
LINE
  8
0
 10
-32.2788
 20
37.8556
 11
-32.3643
 21
37.719
  0
LINE
  8
0
 10
-32.3643
 20
37.719
 11
-32.4893
 21
37.5025
  0
LINE
  8
0
 10
-32.4893
 20
37.5025
 11
-32.7398
 21
37.0443
  0
LINE
  8
0
 10
-32.7398
 20
37.0443
 11
-32.8594
 21
36.8256
  0
LINE
  8
0
 10
-32.8594
 20
36.8256
 11
-33.0466
 21
36.4287
  0
LINE
  8
0
 10
-33.0466
 20
36.4287
 11
-33.1887
 21
36.1277
  0
LINE
  8
0
 10
-33.1887
 20
36.1277
 11
-33.3237
 21
35.7869
  0
LINE
  8
0
 10
-33.3237
 20
35.7869
 11
-33.4236
 21
35.5348
  0
LINE
  8
0
 10
-33.4236
 20
35.5348
 11
-33.5195
 21
35.251
  0
LINE
  8
0
 10
-33.5195
 20
35.251
 11
-33.6277
 21
34.9309
  0
LINE
  8
0
 10
-33.6277
 20
34.9309
 11
-33.6916
 21
34.7045
  0
LINE
  8
0
 10
-33.6916
 20
34.7045
 11
-33.8006
 21
34.3178
  0
LINE
  8
0
 10
-33.8006
 20
34.3178
 11
-33.8393
 21
34.1486
  0
LINE
  8
0
 10
-33.8393
 20
34.1486
 11
-33.9428
 21
33.6967
  0
LINE
  8
0
 10
-33.9428
 20
33.6967
 11
-33.9626
 21
33.585
  0
LINE
  8
0
 10
-33.9626
 20
33.585
 11
-34.0541
 21
33.0693
  0
LINE
  8
0
 10
-34.0541
 20
33.0693
 11
-34.0611
 21
33.0148
  0
LINE
  8
0
 10
-34.0611
 20
33.0148
 11
-34.1344
 21
32.4398
  0
LINE
  8
0
 10
-34.1344
 20
32.4398
 11
-34.1348
 21
32.4371
  0
LINE
  8
0
 10
-34.1348
 20
32.4371
 11
-34.1802
 21
31.8611
  0
LINE
  8
0
 10
-34.1802
 20
31.8611
 11
-34.185
 21
31.8014
  0
LINE
  8
0
 10
-34.185
 20
31.8014
 11
-34.2011
 21
31.2801
  0
LINE
  8
0
 10
-34.2011
 20
31.2801
 11
-34.2047
 21
31.1639
  0
LINE
  8
0
 10
-34.2047
 20
31.1639
 11
-34.1895
 21
30.7082
  0
LINE
  8
0
 10
-34.1895
 20
30.7082
 11
-34.1838
 21
30.5367
  0
LINE
  8
0
 10
-34.1838
 20
30.5367
 11
-34.1518
 21
30.1383
  0
LINE
  8
0
 10
-34.1518
 20
30.1383
 11
-34.1336
 21
29.9115
  0
LINE
  8
0
 10
-34.1336
 20
29.9115
 11
-34.0902
 21
29.5721
  0
LINE
  8
0
 10
-34.0902
 20
29.5721
 11
-34.0541
 21
29.2896
  0
LINE
  8
0
 10
-34.0541
 20
29.2896
 11
-34.0048
 21
29.0107
  0
LINE
  8
0
 10
-34.0048
 20
29.0107
 11
-33.9449
 21
28.6725
  0
LINE
  8
0
 10
-33.9449
 20
28.6725
 11
-33.8957
 21
28.4557
  0
LINE
  8
0
 10
-33.8957
 20
28.4557
 11
-33.8061
 21
28.0613
  0
LINE
  8
0
 10
-33.8061
 20
28.0613
 11
-33.7632
 21
27.908
  0
LINE
  8
0
 10
-33.7632
 20
27.908
 11
-33.6373
 21
27.4578
  0
LINE
  8
0
 10
-33.6373
 20
27.4578
 11
-33.6077
 21
27.3691
  0
LINE
  8
0
 10
-33.6077
 20
27.3691
 11
-33.4385
 21
26.8629
  0
LINE
  8
0
 10
-33.4385
 20
26.8629
 11
-33.4276
 21
26.8352
  0
LINE
  8
0
 10
-33.4276
 20
26.8352
 11
-33.2098
 21
26.2785
  0
LINE
  8
0
 10
-33.2098
 20
26.2785
 11
-33.1776
 21
26.209
  0
LINE
  8
0
 10
-33.1776
 20
26.209
 11
-32.8961
 21
25.601
  0
LINE
  8
0
 10
-32.8961
 20
25.601
 11
-32.89
 21
25.5879
  0
LINE
  8
0
 10
-32.89
 20
25.5879
 11
-32.5805
 21
25.0133
  0
LINE
  8
0
 10
-32.5805
 20
25.0133
 11
-32.5293
 21
24.9182
  0
LINE
  8
0
 10
-32.5293
 20
24.9182
 11
-32.4043
 21
24.7017
  0
LINE
  8
0
 10
-32.4043
 20
24.7017
 11
-32.1132
 21
24.2311
  0
LINE
  8
0
 10
-32.1132
 20
24.2311
 11
-32.0043
 21
24.0552
  0
LINE
  8
0
 10
-32.0043
 20
24.0552
 11
-31.7471
 21
23.6895
  0
LINE
  8
0
 10
-31.7471
 20
23.6895
 11
-31.5668
 21
23.4333
  0
LINE
  8
0
 10
-31.5668
 20
23.4333
 11
-31.3605
 21
23.1739
  0
LINE
  8
0
 10
-31.3605
 20
23.1739
 11
-31.0934
 21
22.8382
  0
LINE
  8
0
 10
-31.0934
 20
22.8382
 11
-30.9571
 21
22.6862
  0
LINE
  8
0
 10
-30.9571
 20
22.6862
 11
-30.5857
 21
22.272
  0
LINE
  8
0
 10
-30.5857
 20
22.272
 11
-30.5418
 21
22.2284
  0
LINE
  8
0
 10
-30.5418
 20
22.2284
 11
-30.1042
 21
21.7944
  0
LINE
  8
0
 10
-30.1042
 20
21.7944
 11
-30.0457
 21
21.7364
  0
LINE
  8
0
 10
-30.0457
 20
21.7364
 11
-29.6605
 21
21.397
  0
LINE
  8
0
 10
-29.6605
 20
21.397
 11
-29.4748
 21
21.2333
  0
LINE
  8
0
 10
-29.4748
 20
21.2333
 11
-29.2185
 21
21.0349
  0
LINE
  8
0
 10
-29.2185
 20
21.0349
 11
-28.8594
 21
20.7567
  0
LINE
  8
0
 10
-28.8594
 20
20.7567
 11
-28.7902
 21
20.7097
  0
LINE
  8
0
 10
-28.7902
 20
20.7097
 11
-28.3672
 21
20.422
  0
LINE
  8
0
 10
-28.3672
 20
20.422
 11
-28.2162
 21
20.3192
  0
LINE
  8
0
 10
-28.2162
 20
20.3192
 11
-27.9708
 21
20.1731
  0
LINE
  8
0
 10
-27.9708
 20
20.1731
 11
-27.6197
 21
19.9642
  0
LINE
  8
0
 10
-27.6197
 20
19.9642
 11
-27.5479
 21
19.9214
  0
LINE
  8
0
 10
-27.5479
 20
19.9214
 11
-27.3051
 21
19.796
  0
LINE
  8
0
 10
-27.3051
 20
19.796
 11
-27.031
 21
19.6544
  0
LINE
  8
0
 10
-27.031
 20
19.6544
 11
-26.8778
 21
19.5753
  0
LINE
  8
0
 10
-26.8778
 20
19.5753
 11
-26.8566
 21
19.5644
  0
LINE
  8
0
 10
-26.8566
 20
19.5644
 11
-26.8403
 21
19.5571
  0
LINE
  8
0
 10
-26.8403
 20
19.5571
 11
-26.1455
 21
19.2493
  0
LINE
  8
0
 10
-26.1455
 20
19.2493
 11
-25.4168
 21
18.9769
  0
LINE
  8
0
 10
-25.4168
 20
18.9769
 11
-24.6729
 21
18.7483
  0
LINE
  8
0
 10
-24.6729
 20
18.7483
 11
-23.9166
 21
18.5644
  0
LINE
  8
0
 10
-23.9166
 20
18.5644
 11
-23.4395
 21
18.478
  0
LINE
  8
0
 10
-23.4395
 20
18.478
 11
-22.9594
 21
18.4093
  0
LINE
  8
0
 10
-22.9594
 20
18.4093
 11
-22.4775
 21
18.3575
  0
LINE
  8
0
 10
-22.4775
 20
18.3575
 11
-22.3263
 21
18.3466
  0
LINE
  8
0
 10
-22.3263
 20
18.3466
 11
-21.9939
 21
18.3226
  0
LINE
  8
0
 10
-21.9939
 20
18.3226
 11
-21.0246
 21
18.3022
  0
LINE
  8
0
 10
-21.0246
 20
18.3022
 11
-20.7746
 21
18.3022
  0
LINE
  8
0
 10
-20.7746
 20
18.3022
 11
-20.1513
 21
18.3308
  0
LINE
  8
0
 10
-20.1513
 20
18.3308
 11
-19.8926
 21
16.2861
  0
LINE
  8
0
 10
-19.8926
 20
16.2861
 11
-19.6232
 21
14.0105
  0
LINE
  8
0
 10
-19.6232
 20
14.0105
 11
-21.2628
 21
9.67206
  0
LINE
  8
0
 10
-21.2628
 20
9.67206
 11
-23.9031
 21
9.84589
  0
LINE
  8
0
 10
-23.9031
 20
9.84589
 11
-24.7601
 21
13.532
  0
LINE
  8
0
 10
-24.7601
 20
13.532
 11
-24.8971
 21
14.1211
  0
LINE
  8
0
 10
-24.8971
 20
14.1211
 11
-24.9477
 21
14.3387
  0
LINE
  8
0
 10
-24.9477
 20
14.3387
 11
-25.0727
 21
14.5552
  0
LINE
  8
0
 10
-25.0727
 20
14.5552
 11
-25.8158
 21
14.7591
  0
LINE
  8
0
 10
-25.8158
 20
14.7591
 11
-26.5502
 21
14.9901
  0
LINE
  8
0
 10
-26.5502
 20
14.9901
 11
-27.2754
 21
15.2478
  0
LINE
  8
0
 10
-27.2754
 20
15.2478
 11
-27.9918
 21
15.5323
  0
LINE
  8
0
 10
-27.9918
 20
15.5323
 11
-28.2418
 21
15.5323
  0
LINE
  8
0
 10
-28.2418
 20
15.5323
 11
-28.5834
 21
15.2478
  0
LINE
  8
0
 10
-28.5834
 20
15.2478
 11
-28.8926
 21
14.9901
  0
LINE
  8
0
 10
-28.8926
 20
14.9901
 11
-29.17
 21
14.7591
  0
LINE
  8
0
 10
-29.17
 20
14.7591
 11
-29.6759
 21
14.3376
  0
LINE
  8
0
 10
-29.6759
 20
14.3376
 11
-31.8409
 21
12.534
  0
LINE
  8
0
 10
-31.8409
 20
12.534
 11
-34.0653
 21
13.9977
  0
LINE
  8
0
 10
-34.0653
 20
13.9977
 11
-32.7866
 21
18.3016
  0
LINE
  8
0
 10
-32.7866
 20
18.3016
 11
-32.7246
 21
18.5102
  0
LINE
  8
0
 10
-32.7246
 20
18.5102
 11
-32.8496
 21
18.7267
  0
LINE
  8
0
 10
-32.8496
 20
18.7267
 11
-33.4311
 21
19.3118
  0
LINE
  8
0
 10
-33.4311
 20
19.3118
 11
-33.9926
 21
19.9167
  0
LINE
  8
0
 10
-33.9926
 20
19.9167
 11
-34.1265
 21
20.0737
  0
LINE
  8
0
 10
-34.1265
 20
20.0737
 11
-34.4054
 21
20.4007
  0
LINE
  8
0
 10
-34.4054
 20
20.4007
 11
-34.5281
 21
20.5446
  0
LINE
  8
0
 10
-34.5281
 20
20.5446
 11
-35.0314
 21
21.198
  0
LINE
  8
0
 10
-35.0314
 20
21.198
 11
-35.2814
 21
21.198
  0
LINE
  8
0
 10
-35.2814
 20
21.198
 11
-39.1898
 21
20.5446
  0
LINE
  8
0
 10
-39.1898
 20
20.5446
 11
-39.8033
 21
20.4421
  0
LINE
  8
0
 10
-39.8033
 20
20.4421
 11
-40.9746
 21
22.8138
  0
LINE
  8
0
 10
-40.9746
 20
22.8138
 11
-37.6262
 21
25.9737
  0
LINE
  8
0
 10
-37.6262
 20
25.9737
 11
-37.5012
 21
26.1902
  0
LINE
  8
0
 10
-37.5012
 20
26.1902
 11
-37.6318
 21
26.6623
  0
LINE
  8
0
 10
-37.6318
 20
26.6623
 11
-37.7201
 21
26.9814
  0
LINE
  8
0
 10
-37.7201
 20
26.9814
 11
-37.8994
 21
27.7822
  0
LINE
  8
0
 10
-37.8994
 20
27.7822
 11
-38.0393
 21
28.591
  0
LINE
  8
0
 10
-38.0393
 20
28.591
 11
-38.0522
 21
28.6961
  0
LINE
  8
0
 10
-38.0522
 20
28.6961
 11
-38.1396
 21
29.4059
  0
LINE
  8
0
 10
-38.1396
 20
29.4059
 11
-38.2647
 21
29.6224
  0
LINE
  8
0
 10
-38.2647
 20
29.6224
 11
-42.6443
 21
31.275
  0
LINE
  8
0
 10
-38.5389
 20
32.3426
 11
-38.5218
 21
32.166
  0
LINE
  8
0
 10
-38.5218
 20
32.166
 11
-38.51
 21
32.0436
  0
LINE
  8
0
 10
-38.51
 20
32.0436
 11
-38.4871
 21
31.9703
  0
LINE
  8
0
 10
-38.4871
 20
31.9703
 11
-38.4316
 21
31.7922
  0
LINE
  8
0
 10
-38.4316
 20
31.7922
 11
-38.4227
 21
31.7635
  0
LINE
  8
0
 10
-38.4227
 20
31.7635
 11
-38.3493
 21
31.632
  0
LINE
  8
0
 10
-38.3493
 20
31.632
 11
-38.2773
 21
31.5031
  0
LINE
  8
0
 10
-38.2773
 20
31.5031
 11
-38.2639
 21
31.4798
  0
LINE
  8
0
 10
-38.2639
 20
31.4798
 11
-38.3262
 21
31.4798
  0
LINE
  8
0
 10
-38.3262
 20
31.4798
 11
-38.4512
 21
31.2633
  0
LINE
  8
0
 10
-38.4512
 20
31.2633
 11
-38.4512
 21
31.2631
  0
LINE
  8
0
 10
-38.4512
 20
31.2631
 11
-38.4512
 21
31.2385
  0
LINE
  8
0
 10
-38.4512
 20
31.2385
 11
-38.4512
 21
31.2217
  0
LINE
  8
0
 10
-38.4512
 20
31.2217
 11
-38.4516
 21
30.4076
  0
LINE
  8
0
 10
-38.4516
 20
30.4076
 11
-38.3266
 21
30.1911
  0
LINE
  8
0
 10
-38.3266
 20
30.1911
 11
-34.9037
 21
30.1895
  0
LINE
  8
0
 10
-34.9037
 20
30.1895
 11
-34.6537
 21
30.1895
  0
LINE
  8
0
 10
-34.6537
 20
30.1895
 11
-34.5287
 21
30.4061
  0
LINE
  8
0
 10
-34.5287
 20
30.4061
 11
-34.5283
 21
31.2217
  0
LINE
  8
0
 10
-34.5283
 20
31.2217
 11
-34.5283
 21
31.2383
  0
LINE
  8
0
 10
-34.5283
 20
31.2383
 11
-34.5283
 21
31.2617
  0
LINE
  8
0
 10
-34.5283
 20
31.2617
 11
-34.6533
 21
31.4782
  0
LINE
  8
0
 10
-34.6533
 20
31.4782
 11
-34.7047
 21
31.4783
  0
LINE
  8
0
 10
-34.7047
 20
31.4783
 11
-34.6842
 21
31.5139
  0
LINE
  8
0
 10
-34.6842
 20
31.5139
 11
-34.6198
 21
31.6311
  0
LINE
  8
0
 10
-34.6198
 20
31.6311
 11
-34.5453
 21
31.7666
  0
LINE
  8
0
 10
-34.5453
 20
31.7666
 11
-34.5381
 21
31.7906
  0
LINE
  8
0
 10
-34.5381
 20
31.7906
 11
-34.4851
 21
31.9676
  0
LINE
  8
0
 10
-34.4851
 20
31.9676
 11
-34.4662
 21
32.0305
  0
LINE
  8
0
 10
-34.4662
 20
32.0305
 11
-34.454
 21
32.1619
  0
LINE
  8
0
 10
-34.454
 20
32.1619
 11
-34.4396
 21
32.3156
  0
LINE
  8
0
 10
-34.4396
 20
32.3156
 11
-34.4432
 21
32.3508
  0
LINE
  8
0
 10
-34.4432
 20
32.3508
 11
-34.4605
 21
32.524
  0
LINE
  8
0
 10
-34.4605
 20
32.524
 11
-34.4717
 21
32.6363
  0
LINE
  8
0
 10
-34.4717
 20
32.6363
 11
-34.4864
 21
32.6818
  0
LINE
  8
0
 10
-34.4864
 20
32.6818
 11
-34.5323
 21
32.8242
  0
LINE
  8
0
 10
-34.5323
 20
32.8242
 11
-34.568
 21
32.9348
  0
LINE
  8
0
 10
-34.568
 20
32.9348
 11
-34.693
 21
33.1513
  0
LINE
  8
0
 10
-34.693
 20
33.1513
 11
-34.6972
 21
33.1585
  0
LINE
  8
0
 10
-34.6972
 20
33.1585
 11
-34.7461
 21
33.2427
  0
LINE
  8
0
 10
-34.7461
 20
33.2427
 11
-34.7755
 21
33.2931
  0
LINE
  8
0
 10
-34.7755
 20
33.2931
 11
-34.7853
 21
33.3101
  0
LINE
  8
0
 10
-34.7853
 20
33.3101
 11
-34.8535
 21
33.4272
  0
LINE
  8
0
 10
-34.8535
 20
33.4272
 11
-35.0785
 21
33.6808
  0
LINE
  8
0
 10
-35.0785
 20
33.6808
 11
-35.3512
 21
33.8929
  0
LINE
  8
0
 10
-35.3512
 20
33.8929
 11
-35.6553
 21
34.0444
  0
LINE
  8
0
 10
-35.6553
 20
34.0444
 11
-35.9906
 21
34.1355
  0
LINE
  8
0
 10
-35.9906
 20
34.1355
 11
-36.3572
 21
34.1659
  0
LINE
  8
0
 10
-36.3572
 20
34.1659
 11
-36.6072
 21
34.1659
  0
LINE
  8
0
 10
-36.6072
 20
34.1659
 11
-36.9857
 21
34.1368
  0
LINE
  8
0
 10
-36.9857
 20
34.1368
 11
-37.3285
 21
34.0489
  0
LINE
  8
0
 10
-37.3285
 20
34.0489
 11
-37.6355
 21
33.9026
  0
LINE
  8
0
 10
-37.6355
 20
33.9026
 11
-37.9068
 21
33.6978
  0
LINE
  8
0
 10
-37.9068
 20
33.6978
 11
-38.1285
 21
33.4509
  0
LINE
  8
0
 10
-38.1285
 20
33.4509
 11
-38.2105
 21
33.3101
  0
LINE
  8
0
 10
-38.2105
 20
33.3101
 11
-38.2201
 21
33.2937
  0
LINE
  8
0
 10
-38.2201
 20
33.2937
 11
-38.2488
 21
33.2442
  0
LINE
  8
0
 10
-38.2488
 20
33.2442
 11
-38.2869
 21
33.1788
  0
LINE
  8
0
 10
-38.2869
 20
33.1788
 11
-38.4119
 21
32.9623
  0
LINE
  8
0
 10
-38.4119
 20
32.9623
 11
-38.4174
 21
32.9451
  0
LINE
  8
0
 10
-38.4174
 20
32.9451
 11
-38.4543
 21
32.8297
  0
LINE
  8
0
 10
-38.4543
 20
32.8297
 11
-38.4993
 21
32.6891
  0
LINE
  8
0
 10
-38.4993
 20
32.6891
 11
-38.507
 21
32.665
  0
LINE
  8
0
 10
-38.507
 20
32.665
 11
-38.5202
 21
32.5316
  0
LINE
  8
0
 10
-38.5202
 20
32.5316
 11
-38.5374
 21
32.3572
  0
LINE
  8
0
 10
-38.5374
 20
32.3572
 11
-38.5389
 21
32.3426
  0
LINE
  8
0
 10
-37.2461
 20
32.166
 11
-37.2283
 21
32.3572
  0
LINE
  8
0
 10
-37.2283
 20
32.3572
 11
-37.1834
 21
32.5057
  0
LINE
  8
0
 10
-37.1834
 20
32.5057
 11
-37.0893
 21
32.6132
  0
LINE
  8
0
 10
-37.0893
 20
32.6132
 11
-36.9385
 21
32.7286
  0
LINE
  8
0
 10
-36.9385
 20
32.7286
 11
-36.7678
 21
32.8112
  0
LINE
  8
0
 10
-36.7678
 20
32.8112
 11
-36.5773
 21
32.8606
  0
LINE
  8
0
 10
-36.5773
 20
32.8606
 11
-36.4937
 21
32.8672
  0
LINE
  8
0
 10
-36.4937
 20
32.8672
 11
-36.4051
 21
32.8601
  0
LINE
  8
0
 10
-36.4051
 20
32.8601
 11
-36.2127
 21
32.8097
  0
LINE
  8
0
 10
-36.2127
 20
32.8097
 11
-36.0402
 21
32.7255
  0
LINE
  8
0
 10
-36.0402
 20
32.7255
 11
-35.8873
 21
32.6077
  0
LINE
  8
0
 10
-35.8873
 20
32.6077
 11
-35.7889
 21
32.4958
  0
LINE
  8
0
 10
-35.7889
 20
32.4958
 11
-35.7439
 21
32.3508
  0
LINE
  8
0
 10
-35.7439
 20
32.3508
 11
-35.7262
 21
32.1619
  0
LINE
  8
0
 10
-35.7262
 20
32.1619
 11
-35.7439
 21
31.9676
  0
LINE
  8
0
 10
-35.7439
 20
31.9676
 11
-35.7904
 21
31.8121
  0
LINE
  8
0
 10
-35.7904
 20
31.8121
 11
-35.883
 21
31.7052
  0
LINE
  8
0
 10
-35.883
 20
31.7052
 11
-36.0348
 21
31.5882
  0
LINE
  8
0
 10
-36.0348
 20
31.5882
 11
-36.2084
 21
31.5048
  0
LINE
  8
0
 10
-36.2084
 20
31.5048
 11
-36.3114
 21
31.4784
  0
LINE
  8
0
 10
-36.3114
 20
31.4784
 11
-36.4037
 21
31.4548
  0
LINE
  8
0
 10
-36.4037
 20
31.4548
 11
-36.4939
 21
31.4479
  0
LINE
  8
0
 10
-36.4939
 20
31.4479
 11
-36.5838
 21
31.455
  0
LINE
  8
0
 10
-36.5838
 20
31.455
 11
-36.6776
 21
31.4796
  0
LINE
  8
0
 10
-36.6776
 20
31.4796
 11
-36.7752
 21
31.5052
  0
LINE
  8
0
 10
-36.7752
 20
31.5052
 11
-36.9455
 21
31.5888
  0
LINE
  8
0
 10
-36.9455
 20
31.5888
 11
-37.0945
 21
31.7058
  0
LINE
  8
0
 10
-37.0945
 20
31.7058
 11
-37.1817
 21
31.8086
  0
LINE
  8
0
 10
-37.1817
 20
31.8086
 11
-37.2289
 21
31.9703
  0
LINE
  8
0
 10
-37.2289
 20
31.9703
 11
-37.2461
 21
32.166
  0
LINE
  8
0
 10
-38.3061
 20
23.9992
 11
-38.2869
 21
23.959
  0
LINE
  8
0
 10
-38.2869
 20
23.959
 11
-37.9398
 21
23.2293
  0
LINE
  8
0
 10
-37.9398
 20
23.2293
 11
-37.8148
 21
23.0128
  0
LINE
  8
0
 10
-37.8148
 20
23.0128
 11
-37.5648
 21
23.0128
  0
LINE
  8
0
 10
-37.5648
 20
23.0128
 11
-36.494
 21
23.5221
  0
LINE
  8
0
 10
-36.494
 20
23.5221
 11
-36.4976
 21
23.4668
  0
LINE
  8
0
 10
-36.4976
 20
23.4668
 11
-36.5049
 21
23.3543
  0
LINE
  8
0
 10
-36.5049
 20
23.3543
 11
-36.4949
 21
23.284
  0
LINE
  8
0
 10
-36.4949
 20
23.284
 11
-36.4711
 21
23.1176
  0
LINE
  8
0
 10
-36.4711
 20
23.1176
 11
-36.4635
 21
23.0639
  0
LINE
  8
0
 10
-36.4635
 20
23.0639
 11
-36.4338
 21
22.9818
  0
LINE
  8
0
 10
-36.4338
 20
22.9818
 11
-36.3958
 21
22.8768
  0
LINE
  8
0
 10
-36.3958
 20
22.8768
 11
-36.369
 21
22.8025
  0
LINE
  8
0
 10
-36.369
 20
22.8025
 11
-36.3613
 21
22.7814
  0
LINE
  8
0
 10
-36.3613
 20
22.7814
 11
-36.2363
 21
22.5649
  0
LINE
  8
0
 10
-36.2363
 20
22.5649
 11
-36.2251
 21
22.5464
  0
LINE
  8
0
 10
-36.2251
 20
22.5464
 11
-36.2243
 21
22.545
  0
LINE
  8
0
 10
-36.2243
 20
22.545
 11
-36.0691
 21
22.2874
  0
LINE
  8
0
 10
-36.0691
 20
22.2874
 11
-35.8559
 21
22.0597
  0
LINE
  8
0
 10
-35.8559
 20
22.0597
 11
-35.5959
 21
21.8819
  0
LINE
  8
0
 10
-35.5959
 20
21.8819
 11
-35.2896
 21
21.754
  0
LINE
  8
0
 10
-35.2896
 20
21.754
 11
-34.9568
 21
21.6853
  0
LINE
  8
0
 10
-34.9568
 20
21.6853
 11
-34.6166
 21
21.6849
  0
LINE
  8
0
 10
-34.6166
 20
21.6849
 11
-34.3666
 21
21.6849
  0
LINE
  8
0
 10
-34.3666
 20
21.6849
 11
-34.0193
 21
21.7526
  0
LINE
  8
0
 10
-34.0193
 20
21.7526
 11
-33.665
 21
21.8888
  0
LINE
  8
0
 10
-33.665
 20
21.8888
 11
-33.3469
 21
22.0735
  0
LINE
  8
0
 10
-33.3469
 20
22.0735
 11
-33.083
 21
22.2995
  0
LINE
  8
0
 10
-33.083
 20
22.2995
 11
-32.8906
 21
22.545
  0
LINE
  8
0
 10
-32.8906
 20
22.545
 11
-32.8734
 21
22.5669
  0
LINE
  8
0
 10
-32.8734
 20
22.5669
 11
-32.7484
 21
22.7834
  0
LINE
  8
0
 10
-32.7484
 20
22.7834
 11
-32.7408
 21
22.7986
  0
LINE
  8
0
 10
-32.7408
 20
22.7986
 11
-32.7028
 21
22.874
  0
LINE
  8
0
 10
-32.7028
 20
22.874
 11
-32.6494
 21
22.9803
  0
LINE
  8
0
 10
-32.6494
 20
22.9803
 11
-32.5932
 21
23.092
  0
LINE
  8
0
 10
-32.5932
 20
23.092
 11
-32.5884
 21
23.1084
  0
LINE
  8
0
 10
-32.5884
 20
23.1084
 11
-32.5448
 21
23.2584
  0
LINE
  8
0
 10
-32.5448
 20
23.2584
 11
-32.4986
 21
23.4176
  0
LINE
  8
0
 10
-32.4986
 20
23.4176
 11
-32.4976
 21
23.4305
  0
LINE
  8
0
 10
-32.4976
 20
23.4305
 11
-32.4823
 21
23.6127
  0
LINE
  8
0
 10
-32.4823
 20
23.6127
 11
-32.4721
 21
23.7357
  0
LINE
  8
0
 10
-32.4721
 20
23.7357
 11
-32.4797
 21
23.7936
  0
LINE
  8
0
 10
-32.4797
 20
23.7936
 11
-32.5034
 21
23.9732
  0
LINE
  8
0
 10
-32.5034
 20
23.9732
 11
-32.5131
 21
24.0465
  0
LINE
  8
0
 10
-32.5131
 20
24.0465
 11
-32.5506
 21
24.1514
  0
LINE
  8
0
 10
-32.5506
 20
24.1514
 11
-32.6107
 21
24.3193
  0
LINE
  8
0
 10
-32.6107
 20
24.3193
 11
-32.6217
 21
24.35
  0
LINE
  8
0
 10
-32.6217
 20
24.35
 11
-32.7467
 21
24.5665
  0
LINE
  8
0
 10
-32.7467
 20
24.5665
 11
-32.8732
 21
24.7794
  0
LINE
  8
0
 10
-32.8732
 20
24.7794
 11
-32.8932
 21
24.813
  0
LINE
  8
0
 10
-32.8932
 20
24.813
 11
-32.931
 21
24.855
  0
LINE
  8
0
 10
-32.931
 20
24.855
 11
-32.9676
 21
24.8956
  0
LINE
  8
0
 10
-32.9676
 20
24.8956
 11
-32.9683
 21
24.8964
  0
LINE
  8
0
 10
-32.9683
 20
24.8964
 11
-33.0783
 21
25.0185
  0
LINE
  8
0
 10
-33.0783
 20
25.0185
 11
-33.2337
 21
25.1309
  0
LINE
  8
0
 10
-33.2337
 20
25.1309
 11
-33.1553
 21
25.2668
  0
LINE
  8
0
 10
-33.1553
 20
25.2668
 11
-33.5215
 21
26.0367
  0
LINE
  8
0
 10
-33.5215
 20
26.0367
 11
-33.6465
 21
26.2532
  0
LINE
  8
0
 10
-33.6465
 20
26.2532
 11
-33.8965
 21
26.2532
  0
LINE
  8
0
 10
-33.8965
 20
26.2532
 11
-35.842
 21
25.328
  0
LINE
  8
0
 10
-35.842
 20
25.328
 11
-36.7497
 21
24.8964
  0
LINE
  8
0
 10
-36.7497
 20
24.8964
 11
-36.8306
 21
24.8579
  0
LINE
  8
0
 10
-36.8306
 20
24.8579
 11
-36.9953
 21
24.7796
  0
LINE
  8
0
 10
-36.9953
 20
24.7796
 11
-37.2192
 21
24.6731
  0
LINE
  8
0
 10
-37.2192
 20
24.6731
 11
-37.4874
 21
24.5456
  0
LINE
  8
0
 10
-37.4874
 20
24.5456
 11
-37.7999
 21
24.397
  0
LINE
  8
0
 10
-37.7999
 20
24.397
 11
-38.1564
 21
24.2274
  0
LINE
  8
0
 10
-38.1564
 20
24.2274
 11
-38.1811
 21
24.2157
  0
LINE
  8
0
 10
-38.1811
 20
24.2157
 11
-38.3061
 21
23.9992
  0
LINE
  8
0
 10
-35.3193
 20
23.649
 11
-35.3098
 21
23.8303
  0
LINE
  8
0
 10
-35.3098
 20
23.8303
 11
-35.2754
 21
23.959
  0
LINE
  8
0
 10
-35.2754
 20
23.959
 11
-35.2615
 21
24.0109
  0
LINE
  8
0
 10
-35.2615
 20
24.0109
 11
-35.2559
 21
24.0222
  0
LINE
  8
0
 10
-35.2559
 20
24.0222
 11
-35.1842
 21
24.1126
  0
LINE
  8
0
 10
-35.1842
 20
24.1126
 11
-35.0328
 21
24.2401
  0
LINE
  8
0
 10
-35.0328
 20
24.2401
 11
-34.8479
 21
24.3466
  0
LINE
  8
0
 10
-34.8479
 20
24.3466
 11
-34.6445
 21
24.4249
  0
LINE
  8
0
 10
-34.6445
 20
24.4249
 11
-34.4787
 21
24.4571
  0
LINE
  8
0
 10
-34.4787
 20
24.4571
 11
-34.3166
 21
24.422
  0
LINE
  8
0
 10
-34.3166
 20
24.422
 11
-34.1443
 21
24.3464
  0
LINE
  8
0
 10
-34.1443
 20
24.3464
 11
-33.9963
 21
24.2399
  0
LINE
  8
0
 10
-33.9963
 20
24.2399
 11
-33.886
 21
24.1178
  0
LINE
  8
0
 10
-33.886
 20
24.1178
 11
-33.8332
 21
23.9732
  0
LINE
  8
0
 10
-33.8332
 20
23.9732
 11
-33.8072
 21
23.7936
  0
LINE
  8
0
 10
-33.8072
 20
23.7936
 11
-33.8203
 21
23.6127
  0
LINE
  8
0
 10
-33.8203
 20
23.6127
 11
-33.8725
 21
23.4305
  0
LINE
  8
0
 10
-33.8725
 20
23.4305
 11
-33.876
 21
23.4235
  0
LINE
  8
0
 10
-33.876
 20
23.4235
 11
-33.9547
 21
23.3249
  0
LINE
  8
0
 10
-33.9547
 20
23.3249
 11
-34.1068
 21
23.1968
  0
LINE
  8
0
 10
-34.1068
 20
23.1968
 11
-34.291
 21
23.0905
  0
LINE
  8
0
 10
-34.291
 20
23.0905
 11
-34.4881
 21
23.0151
  0
LINE
  8
0
 10
-34.4881
 20
23.0151
 11
-34.646
 21
22.9848
  0
LINE
  8
0
 10
-34.646
 20
22.9848
 11
-34.8066
 21
23.019
  0
LINE
  8
0
 10
-34.8066
 20
23.019
 11
-34.9783
 21
23.0933
  0
LINE
  8
0
 10
-34.9783
 20
23.0933
 11
-35.1256
 21
23.1983
  0
LINE
  8
0
 10
-35.1256
 20
23.1983
 11
-35.2354
 21
23.3195
  0
LINE
  8
0
 10
-35.2354
 20
23.3195
 11
-35.29
 21
23.4668
  0
LINE
  8
0
 10
-35.29
 20
23.4668
 11
-35.3193
 21
23.649
  0
LINE
  8
0
 10
-37.1268
 20
40.6203
 11
-37.0018
 21
40.4038
  0
LINE
  8
0
 10
-37.0018
 20
40.4038
 11
-34.4424
 21
39.2411
  0
LINE
  8
0
 10
-34.4424
 20
39.2411
 11
-34.8809
 21
38.1908
  0
LINE
  8
0
 10
-34.8809
 20
38.1908
 11
-34.7559
 21
37.9743
  0
LINE
  8
0
 10
-34.7559
 20
37.9743
 11
-33.9807
 21
37.6507
  0
LINE
  8
0
 10
-33.9807
 20
37.6507
 11
-33.7307
 21
37.6507
  0
LINE
  8
0
 10
-33.7307
 20
37.6507
 11
-33.6057
 21
37.8672
  0
LINE
  8
0
 10
-33.6057
 20
37.8672
 11
-32.9761
 21
39.3754
  0
LINE
  8
0
 10
-32.9761
 20
39.3754
 11
-32.7719
 21
39.8646
  0
LINE
  8
0
 10
-32.7719
 20
39.8646
 11
-32.8969
 21
40.0812
  0
LINE
  8
0
 10
-32.8969
 20
40.0812
 11
-36.4123
 21
41.6497
  0
LINE
  8
0
 10
-36.4123
 20
41.6497
 11
-36.6623
 21
41.6497
  0
LINE
  8
0
 10
-36.6623
 20
41.6497
 11
-36.7873
 21
41.4332
  0
LINE
  8
0
 10
-36.7873
 20
41.4332
 11
-37.1268
 21
40.6203
  0
LINE
  8
0
 10
-31.8125
 20
17.1729
 11
-31.8124
 21
17.1596
  0
LINE
  8
0
 10
-31.8124
 20
17.1596
 11
-31.812
 21
17.0834
  0
LINE
  8
0
 10
-31.812
 20
17.0834
 11
-31.8115
 21
16.9912
  0
LINE
  8
0
 10
-31.8115
 20
16.9912
 11
-31.8113
 21
16.9688
  0
LINE
  8
0
 10
-31.8113
 20
16.9688
 11
-31.7962
 21
16.892
  0
LINE
  8
0
 10
-31.7962
 20
16.892
 11
-31.7769
 21
16.7945
  0
LINE
  8
0
 10
-31.7769
 20
16.7945
 11
-31.7707
 21
16.7631
  0
LINE
  8
0
 10
-31.7707
 20
16.7631
 11
-31.7521
 21
16.7188
  0
LINE
  8
0
 10
-31.7521
 20
16.7188
 11
-31.7308
 21
16.6678
  0
LINE
  8
0
 10
-31.7308
 20
16.6678
 11
-31.7199
 21
16.6418
  0
LINE
  8
0
 10
-31.7199
 20
16.6418
 11
-31.6898
 21
16.5699
  0
LINE
  8
0
 10
-31.6898
 20
16.5699
 11
-31.5648
 21
16.3534
  0
LINE
  8
0
 10
-31.5648
 20
16.3534
 11
-31.4436
 21
16.1724
  0
LINE
  8
0
 10
-31.4436
 20
16.1724
 11
-31.2822
 21
16.0034
  0
LINE
  8
0
 10
-31.2822
 20
16.0034
 11
-31.0168
 21
15.8147
  0
LINE
  8
0
 10
-31.0168
 20
15.8147
 11
-30.7172
 21
15.6937
  0
LINE
  8
0
 10
-30.7172
 20
15.6937
 11
-30.3959
 21
15.6448
  0
LINE
  8
0
 10
-30.3959
 20
15.6448
 11
-30.1459
 21
15.6448
  0
LINE
  8
0
 10
-30.1459
 20
15.6448
 11
-29.8152
 21
15.6735
  0
LINE
  8
0
 10
-29.8152
 20
15.6735
 11
-29.6902
 21
15.89
  0
LINE
  8
0
 10
-29.6902
 20
15.89
 11
-29.7314
 21
16.6408
  0
LINE
  8
0
 10
-29.7314
 20
16.6408
 11
-29.8269
 21
16.8062
  0
LINE
  8
0
 10
-29.8269
 20
16.8062
 11
-29.6082
 21
16.7626
  0
LINE
  8
0
 10
-29.6082
 20
16.7626
 11
-29.4117
 21
16.7552
  0
LINE
  8
0
 10
-29.4117
 20
16.7552
 11
-29.1617
 21
16.7552
  0
LINE
  8
0
 10
-29.1617
 20
16.7552
 11
-28.9936
 21
16.7747
  0
LINE
  8
0
 10
-28.9936
 20
16.7747
 11
-28.8443
 21
16.8194
  0
LINE
  8
0
 10
-28.8443
 20
16.8194
 11
-28.7051
 21
16.888
  0
LINE
  8
0
 10
-28.7051
 20
16.888
 11
-28.6174
 21
16.9505
  0
LINE
  8
0
 10
-28.6174
 20
16.9505
 11
-28.5758
 21
16.9802
  0
LINE
  8
0
 10
-28.5758
 20
16.9802
 11
-28.5518
 21
17.0034
  0
LINE
  8
0
 10
-28.5518
 20
17.0034
 11
-28.4562
 21
17.096
  0
LINE
  8
0
 10
-28.4562
 20
17.096
 11
-28.326
 21
17.2729
  0
LINE
  8
0
 10
-28.326
 20
17.2729
 11
-28.201
 21
17.4895
  0
LINE
  8
0
 10
-28.201
 20
17.4895
 11
-28.1145
 21
17.6801
  0
LINE
  8
0
 10
-28.1145
 20
17.6801
 11
-28.0915
 21
17.7898
  0
LINE
  8
0
 10
-28.0915
 20
17.7898
 11
-28.0862
 21
17.8154
  0
LINE
  8
0
 10
-28.0862
 20
17.8154
 11
-28.0741
 21
17.8732
  0
LINE
  8
0
 10
-28.0741
 20
17.8732
 11
-28.0717
 21
17.8848
  0
LINE
  8
0
 10
-28.0717
 20
17.8848
 11
-28.0721
 21
17.9654
  0
LINE
  8
0
 10
-28.0721
 20
17.9654
 11
-28.0727
 21
18.083
  0
LINE
  8
0
 10
-28.0727
 20
18.083
 11
-28.0729
 21
18.1031
  0
LINE
  8
0
 10
-28.0729
 20
18.1031
 11
-28.0951
 21
18.2092
  0
LINE
  8
0
 10
-28.0951
 20
18.2092
 11
-28.1191
 21
18.324
  0
LINE
  8
0
 10
-28.1191
 20
18.324
 11
-28.1203
 21
18.3268
  0
LINE
  8
0
 10
-28.1203
 20
18.3268
 11
-28.161
 21
18.4191
  0
LINE
  8
0
 10
-28.161
 20
18.4191
 11
-28.1905
 21
18.4863
  0
LINE
  8
0
 10
-28.1905
 20
18.4863
 11
-28.2051
 21
18.5195
  0
LINE
  8
0
 10
-28.2051
 20
18.5195
 11
-28.2121
 21
18.5354
  0
LINE
  8
0
 10
-28.2121
 20
18.5354
 11
-28.3371
 21
18.7519
  0
LINE
  8
0
 10
-28.3371
 20
18.7519
 11
-28.4768
 21
18.9538
  0
LINE
  8
0
 10
-28.4768
 20
18.9538
 11
-28.6631
 21
19.1464
  0
LINE
  8
0
 10
-28.6631
 20
19.1464
 11
-28.9523
 21
19.3563
  0
LINE
  8
0
 10
-28.9523
 20
19.3563
 11
-29.2621
 21
19.4868
  0
LINE
  8
0
 10
-29.2621
 20
19.4868
 11
-29.5928
 21
19.5374
  0
LINE
  8
0
 10
-29.5928
 20
19.5374
 11
-29.8428
 21
19.5374
  0
LINE
  8
0
 10
-29.8428
 20
19.5374
 11
-30.1939
 21
19.5085
  0
LINE
  8
0
 10
-30.1939
 20
19.5085
 11
-30.3189
 21
19.292
  0
LINE
  8
0
 10
-30.3189
 20
19.292
 11
-30.3097
 21
18.5195
  0
LINE
  8
0
 10
-30.3097
 20
18.5195
 11
-30.3096
 21
18.5104
  0
LINE
  8
0
 10
-30.3096
 20
18.5104
 11
-30.1846
 21
18.2938
  0
LINE
  8
0
 10
-30.1846
 20
18.2938
 11
-29.9346
 21
18.2938
  0
LINE
  8
0
 10
-29.9346
 20
18.2938
 11
-29.9025
 21
18.2951
  0
LINE
  8
0
 10
-29.9025
 20
18.2951
 11
-29.7309
 21
18.2698
  0
LINE
  8
0
 10
-29.7309
 20
18.2698
 11
-29.534
 21
18.2026
  0
LINE
  8
0
 10
-29.534
 20
18.2026
 11
-29.3902
 21
18.1103
  0
LINE
  8
0
 10
-29.3902
 20
18.1103
 11
-29.366
 21
18.0819
  0
LINE
  8
0
 10
-29.366
 20
18.0819
 11
-29.3663
 21
18.0365
  0
LINE
  8
0
 10
-29.3663
 20
18.0365
 11
-29.3729
 21
18.0319
  0
LINE
  8
0
 10
-29.3729
 20
18.0319
 11
-29.4267
 21
18.0202
  0
LINE
  8
0
 10
-29.4267
 20
18.0202
 11
-29.5768
 21
18.0515
  0
LINE
  8
0
 10
-29.5768
 20
18.0515
 11
-29.8889
 21
18.1368
  0
LINE
  8
0
 10
-29.8889
 20
18.1368
 11
-30.3078
 21
18.2136
  0
LINE
  8
0
 10
-30.3078
 20
18.2136
 11
-30.5578
 21
18.2136
  0
LINE
  8
0
 10
-30.5578
 20
18.2136
 11
-30.9172
 21
18.2017
  0
LINE
  8
0
 10
-30.9172
 20
18.2017
 11
-31.0744
 21
18.1622
  0
LINE
  8
0
 10
-31.0744
 20
18.1622
 11
-31.2168
 21
18.1007
  0
LINE
  8
0
 10
-31.2168
 20
18.1007
 11
-31.2916
 21
18.0515
  0
LINE
  8
0
 10
-31.2916
 20
18.0515
 11
-31.3441
 21
18.0169
  0
LINE
  8
0
 10
-31.3441
 20
18.0169
 11
-31.3485
 21
18.0128
  0
LINE
  8
0
 10
-31.3485
 20
18.0128
 11
-31.3553
 21
18.0063
  0
LINE
  8
0
 10
-31.3553
 20
18.0063
 11
-31.4566
 21
17.9108
  0
LINE
  8
0
 10
-31.4566
 20
17.9108
 11
-31.5725
 21
17.7521
  0
LINE
  8
0
 10
-31.5725
 20
17.7521
 11
-31.6975
 21
17.5355
  0
LINE
  8
0
 10
-31.6975
 20
17.5355
 11
-31.7744
 21
17.3617
  0
LINE
  8
0
 10
-31.7744
 20
17.3617
 11
-31.803
 21
17.2199
  0
LINE
  8
0
 10
-31.803
 20
17.2199
 11
-31.8069
 21
17.2004
  0
LINE
  8
0
 10
-31.8069
 20
17.2004
 11
-31.8125
 21
17.1729
  0
LINE
  8
0
 10
-30.4117
 20
16.9468
 11
-30.1103
 21
16.8644
  0
LINE
  8
0
 10
-30.1103
 20
16.8644
 11
-30.2473
 21
16.8843
  0
LINE
  8
0
 10
-30.2473
 20
16.8843
 11
-30.3941
 21
16.9353
  0
LINE
  8
0
 10
-30.3941
 20
16.9353
 11
-30.4117
 21
16.9468
  0
LINE
  8
0
 10
-31.4893
 20
31.1891
 11
-31.4852
 21
31.1076
  0
LINE
  8
0
 10
-31.4852
 20
31.1076
 11
-31.4381
 21
30.1713
  0
LINE
  8
0
 10
-31.4381
 20
30.1713
 11
-31.3138
 21
29.3508
  0
LINE
  8
0
 10
-31.3138
 20
29.3508
 11
-31.2883
 21
29.1826
  0
LINE
  8
0
 10
-31.2883
 20
29.1826
 11
-31.0445
 21
28.2285
  0
LINE
  8
0
 10
-31.0445
 20
28.2285
 11
-30.8575
 21
27.7145
  0
LINE
  8
0
 10
-30.8575
 20
27.7145
 11
-30.7117
 21
27.3139
  0
LINE
  8
0
 10
-30.7117
 20
27.3139
 11
-30.2953
 21
26.4436
  0
LINE
  8
0
 10
-30.2953
 20
26.4436
 11
-30.1703
 21
26.227
  0
LINE
  8
0
 10
-30.1703
 20
26.227
 11
-30.0435
 21
26.0171
  0
LINE
  8
0
 10
-30.0435
 20
26.0171
 11
-29.6746
 21
25.4063
  0
LINE
  8
0
 10
-29.6746
 20
25.4063
 11
-29.17
 21
24.7269
  0
LINE
  8
0
 10
-29.17
 20
24.7269
 11
-29.1053
 21
24.6397
  0
LINE
  8
0
 10
-29.1053
 20
24.6397
 11
-28.4666
 21
23.9329
  0
LINE
  8
0
 10
-28.4666
 20
23.9329
 11
-28.1708
 21
23.6624
  0
LINE
  8
0
 10
-28.1708
 20
23.6624
 11
-27.7641
 21
23.2903
  0
LINE
  8
0
 10
-27.7641
 20
23.2903
 11
-27.1906
 21
22.8587
  0
LINE
  8
0
 10
-27.1906
 20
22.8587
 11
-27.0025
 21
22.7171
  0
LINE
  8
0
 10
-27.0025
 20
22.7171
 11
-26.4032
 21
22.3507
  0
LINE
  8
0
 10
-26.4032
 20
22.3507
 11
-26.1869
 21
22.2185
  0
LINE
  8
0
 10
-26.1869
 20
22.2185
 11
-26.0943
 21
22.1735
  0
LINE
  8
0
 10
-26.0943
 20
22.1735
 11
-25.3221
 21
21.7991
  0
LINE
  8
0
 10
-25.3221
 20
21.7991
 11
-24.4133
 21
21.4644
  0
LINE
  8
0
 10
-24.4133
 20
21.4644
 11
-23.465
 21
21.219
  0
LINE
  8
0
 10
-23.465
 20
21.219
 11
-22.4828
 21
21.0683
  0
LINE
  8
0
 10
-22.4828
 20
21.0683
 11
-21.4713
 21
21.0169
  0
LINE
  8
0
 10
-21.4713
 20
21.0169
 11
-21.2213
 21
21.0169
  0
LINE
  8
0
 10
-21.2213
 20
21.0169
 11
-20.325
 21
21.0624
  0
LINE
  8
0
 10
-20.325
 20
21.0624
 11
-20.2
 21
21.2789
  0
LINE
  8
0
 10
-20.2
 20
21.2789
 11
-20.3503
 21
22.39
  0
LINE
  8
0
 10
-20.3503
 20
22.39
 11
-20.3533
 21
22.4127
  0
LINE
  8
0
 10
-20.3533
 20
22.4127
 11
-20.4783
 21
22.6292
  0
LINE
  8
0
 10
-20.4783
 20
22.6292
 11
-20.7283
 21
22.6292
  0
LINE
  8
0
 10
-20.7283
 20
22.6292
 11
-21.1679
 21
22.6132
  0
LINE
  8
0
 10
-21.1679
 20
22.6132
 11
-22.8479
 21
22.7837
  0
LINE
  8
0
 10
-22.8479
 20
22.7837
 11
-24.474
 21
23.2917
  0
LINE
  8
0
 10
-24.474
 20
23.2917
 11
-25.9453
 21
24.0954
  0
LINE
  8
0
 10
-25.9453
 20
24.0954
 11
-27.2275
 21
25.1599
  0
LINE
  8
0
 10
-27.2275
 20
25.1599
 11
-28.2611
 21
26.4208
  0
LINE
  8
0
 10
-28.2611
 20
26.4208
 11
-28.959
 21
27.7145
  0
LINE
  8
0
 10
-28.959
 20
27.7145
 11
-29.4637
 21
29.3508
  0
LINE
  8
0
 10
-29.4637
 20
29.3508
 11
-29.6396
 21
31.1076
  0
LINE
  8
0
 10
-29.6396
 20
31.1076
 11
-29.4637
 21
32.8646
  0
LINE
  8
0
 10
-29.4637
 20
32.8646
 11
-28.959
 21
34.5012
  0
LINE
  8
0
 10
-28.959
 20
34.5012
 11
-28.2612
 21
35.7948
  0
LINE
  8
0
 10
-28.2612
 20
35.7948
 11
-27.2275
 21
37.0556
  0
LINE
  8
0
 10
-27.2275
 20
37.0556
 11
-25.9453
 21
38.12
  0
LINE
  8
0
 10
-25.9453
 20
38.12
 11
-24.474
 21
38.9239
  0
LINE
  8
0
 10
-24.474
 20
38.9239
 11
-22.8479
 21
39.4317
  0
LINE
  8
0
 10
-22.8479
 20
39.4317
 11
-21.227
 21
39.5962
  0
LINE
  8
0
 10
-21.227
 20
39.5962
 11
-19.6062
 21
39.4317
  0
LINE
  8
0
 10
-19.6062
 20
39.4317
 11
-17.9803
 21
38.9239
  0
LINE
  8
0
 10
-17.9803
 20
38.9239
 11
-16.5088
 21
38.12
  0
LINE
  8
0
 10
-16.5088
 20
38.12
 11
-15.2266
 21
37.0556
  0
LINE
  8
0
 10
-15.2266
 20
37.0556
 11
-14.1928
 21
35.7949
  0
LINE
  8
0
 10
-14.1928
 20
35.7949
 11
-13.4951
 21
34.5012
  0
LINE
  8
0
 10
-13.4951
 20
34.5012
 11
-12.9904
 21
32.8646
  0
LINE
  8
0
 10
-12.9904
 20
32.8646
 11
-12.8145
 21
31.1076
  0
LINE
  8
0
 10
-12.8145
 20
31.1076
 11
-12.9701
 21
29.4539
  0
LINE
  8
0
 10
-12.9701
 20
29.4539
 11
-13.418
 21
27.9047
  0
LINE
  8
0
 10
-13.418
 20
27.9047
 11
-14.0526
 21
26.6411
  0
LINE
  8
0
 10
-14.0526
 20
26.6411
 11
-14.9492
 21
25.4526
  0
LINE
  8
0
 10
-14.9492
 20
25.4526
 11
-15.0742
 21
25.2361
  0
LINE
  8
0
 10
-15.0742
 20
25.2361
 11
-14.9492
 21
25.0196
  0
LINE
  8
0
 10
-14.9492
 20
25.0196
 11
-14.1514
 21
24.286
  0
LINE
  8
0
 10
-14.1514
 20
24.286
 11
-13.9014
 21
24.286
  0
LINE
  8
0
 10
-13.9014
 20
24.286
 11
-13.5875
 21
24.6397
  0
LINE
  8
0
 10
-13.5875
 20
24.6397
 11
-13.018
 21
25.4063
  0
LINE
  8
0
 10
-13.018
 20
25.4063
 11
-12.5225
 21
26.227
  0
LINE
  8
0
 10
-12.5225
 20
26.227
 11
-12.3975
 21
26.4436
  0
LINE
  8
0
 10
-12.3975
 20
26.4436
 11
-12.3757
 21
26.4891
  0
LINE
  8
0
 10
-12.3757
 20
26.4891
 11
-11.9809
 21
27.3139
  0
LINE
  8
0
 10
-11.9809
 20
27.3139
 11
-11.766
 21
27.9047
  0
LINE
  8
0
 10
-11.766
 20
27.9047
 11
-11.6482
 21
28.2285
  0
LINE
  8
0
 10
-11.6482
 20
28.2285
 11
-11.4045
 21
29.1826
  0
LINE
  8
0
 10
-11.4045
 20
29.1826
 11
-11.3633
 21
29.4539
  0
LINE
  8
0
 10
-11.3633
 20
29.4539
 11
-11.2545
 21
30.1713
  0
LINE
  8
0
 10
-11.2545
 20
30.1713
 11
-11.2076
 21
31.1076
  0
LINE
  8
0
 10
-11.2076
 20
31.1076
 11
-11.2035
 21
31.1891
  0
LINE
  8
0
 10
-11.2035
 20
31.1891
 11
-11.2545
 21
32.207
  0
LINE
  8
0
 10
-11.2545
 20
32.207
 11
-11.3543
 21
32.8646
  0
LINE
  8
0
 10
-11.3543
 20
32.8646
 11
-11.4045
 21
33.1955
  0
LINE
  8
0
 10
-11.4045
 20
33.1955
 11
-11.6482
 21
34.1496
  0
LINE
  8
0
 10
-11.6482
 20
34.1496
 11
-11.7761
 21
34.5012
  0
LINE
  8
0
 10
-11.7761
 20
34.5012
 11
-11.9809
 21
35.0645
  0
LINE
  8
0
 10
-11.9809
 20
35.0645
 11
-12.3975
 21
35.9346
  0
LINE
  8
0
 10
-12.3975
 20
35.9346
 11
-12.5225
 21
36.1511
  0
LINE
  8
0
 10
-12.5225
 20
36.1511
 11
-12.5511
 21
36.1985
  0
LINE
  8
0
 10
-12.5511
 20
36.1985
 11
-13.018
 21
36.972
  0
LINE
  8
0
 10
-13.018
 20
36.972
 11
-13.4019
 21
37.4886
  0
LINE
  8
0
 10
-13.4019
 20
37.4886
 11
-13.5875
 21
37.7384
  0
LINE
  8
0
 10
-13.5875
 20
37.7384
 11
-14.226
 21
38.4454
  0
LINE
  8
0
 10
-14.226
 20
38.4454
 11
-14.3436
 21
38.553
  0
LINE
  8
0
 10
-14.3436
 20
38.553
 11
-14.9285
 21
39.088
  0
LINE
  8
0
 10
-14.9285
 20
39.088
 11
-15.2859
 21
39.3569
  0
LINE
  8
0
 10
-15.2859
 20
39.3569
 11
-15.6902
 21
39.6612
  0
LINE
  8
0
 10
-15.6902
 20
39.6612
 11
-16.0231
 21
39.8647
  0
LINE
  8
0
 10
-16.0231
 20
39.8647
 11
-16.3129
 21
40.0419
  0
LINE
  8
0
 10
-16.3129
 20
40.0419
 11
-16.5059
 21
40.1599
  0
LINE
  8
0
 10
-16.5059
 20
40.1599
 11
-17.3705
 21
40.579
  0
LINE
  8
0
 10
-17.3705
 20
40.579
 11
-18.2795
 21
40.9138
  0
LINE
  8
0
 10
-18.2795
 20
40.9138
 11
-19.2275
 21
41.1591
  0
LINE
  8
0
 10
-19.2275
 20
41.1591
 11
-20.21
 21
41.3101
  0
LINE
  8
0
 10
-20.21
 20
41.3101
 11
-21.2213
 21
41.3614
  0
LINE
  8
0
 10
-21.2213
 20
41.3614
 11
-21.4713
 21
41.3614
  0
LINE
  8
0
 10
-21.4713
 20
41.3614
 11
-22.4828
 21
41.3101
  0
LINE
  8
0
 10
-22.4828
 20
41.3101
 11
-23.465
 21
41.1591
  0
LINE
  8
0
 10
-23.465
 20
41.1591
 11
-24.4133
 21
40.9138
  0
LINE
  8
0
 10
-24.4133
 20
40.9138
 11
-25.3221
 21
40.579
  0
LINE
  8
0
 10
-25.3221
 20
40.579
 11
-26.1869
 21
40.1599
  0
LINE
  8
0
 10
-26.1869
 20
40.1599
 11
-26.3799
 21
40.0419
  0
LINE
  8
0
 10
-26.3799
 20
40.0419
 11
-26.6696
 21
39.8647
  0
LINE
  8
0
 10
-26.6696
 20
39.8647
 11
-27.0025
 21
39.6612
  0
LINE
  8
0
 10
-27.0025
 20
39.6612
 11
-27.4068
 21
39.3569
  0
LINE
  8
0
 10
-27.4068
 20
39.3569
 11
-27.7641
 21
39.088
  0
LINE
  8
0
 10
-27.7641
 20
39.088
 11
-28.3489
 21
38.553
  0
LINE
  8
0
 10
-28.3489
 20
38.553
 11
-28.4666
 21
38.4454
  0
LINE
  8
0
 10
-28.4666
 20
38.4454
 11
-29.1053
 21
37.7384
  0
LINE
  8
0
 10
-29.1053
 20
37.7384
 11
-29.2908
 21
37.4886
  0
LINE
  8
0
 10
-29.2908
 20
37.4886
 11
-29.6746
 21
36.972
  0
LINE
  8
0
 10
-29.6746
 20
36.972
 11
-30.1417
 21
36.1985
  0
LINE
  8
0
 10
-30.1417
 20
36.1985
 11
-30.1703
 21
36.1511
  0
LINE
  8
0
 10
-30.1703
 20
36.1511
 11
-30.2953
 21
35.9346
  0
LINE
  8
0
 10
-30.2953
 20
35.9346
 11
-30.7117
 21
35.0645
  0
LINE
  8
0
 10
-30.7117
 20
35.0645
 11
-30.9166
 21
34.5012
  0
LINE
  8
0
 10
-30.9166
 20
34.5012
 11
-31.0445
 21
34.1496
  0
LINE
  8
0
 10
-31.0445
 20
34.1496
 11
-31.2883
 21
33.1955
  0
LINE
  8
0
 10
-31.2883
 20
33.1955
 11
-31.3384
 21
32.8646
  0
LINE
  8
0
 10
-31.3384
 20
32.8646
 11
-31.4381
 21
32.207
  0
LINE
  8
0
 10
-31.4381
 20
32.207
 11
-31.4893
 21
31.1891
  0
LINE
  8
0
 10
-22.4004
 20
45.4664
 11
-22.2754
 21
45.2499
  0
LINE
  8
0
 10
-22.2754
 20
45.2499
 11
-21.4076
 21
45.0843
  0
LINE
  8
0
 10
-21.4076
 20
45.0843
 11
-21.1576
 21
45.0843
  0
LINE
  8
0
 10
-21.1576
 20
45.0843
 11
-20.2584
 21
46.5329
  0
LINE
  8
0
 10
-20.2584
 20
46.5329
 11
-19.7025
 21
47.452
  0
LINE
  8
0
 10
-19.7025
 20
47.452
 11
-19.5553
 21
46.5439
  0
LINE
  8
0
 10
-19.5553
 20
46.5439
 11
-19.4371
 21
45.8314
  0
LINE
  8
0
 10
-19.4371
 20
45.8314
 11
-19.282
 21
44.8717
  0
LINE
  8
0
 10
-19.282
 20
44.8717
 11
-19.157
 21
44.6552
  0
LINE
  8
0
 10
-19.157
 20
44.6552
 11
-18.3107
 21
44.4938
  0
LINE
  8
0
 10
-18.3107
 20
44.4938
 11
-18.0607
 21
44.4938
  0
LINE
  8
0
 10
-18.0607
 20
44.4938
 11
-17.9357
 21
44.7104
  0
LINE
  8
0
 10
-17.9357
 20
44.7104
 11
-18.1432
 21
45.8314
  0
LINE
  8
0
 10
-18.1432
 20
45.8314
 11
-18.5652
 21
48.1117
  0
LINE
  8
0
 10
-18.5652
 20
48.1117
 11
-18.7213
 21
48.9549
  0
LINE
  8
0
 10
-18.7213
 20
48.9549
 11
-18.8463
 21
49.1714
  0
LINE
  8
0
 10
-18.8463
 20
49.1714
 11
-19.6898
 21
49.3323
  0
LINE
  8
0
 10
-19.6898
 20
49.3323
 11
-19.9398
 21
49.3323
  0
LINE
  8
0
 10
-19.9398
 20
49.3323
 11
-20.5824
 21
48.3282
  0
LINE
  8
0
 10
-20.5824
 20
48.3282
 11
-22.2754
 21
45.6829
  0
LINE
  8
0
 10
-22.2754
 20
45.6829
 11
-22.4004
 21
45.4664
  0
LINE
  8
0
 10
-21.7266
 20
29.3676
 11
-15.874
 21
17.5959
  0
LINE
  8
0
 10
-15.874
 20
17.5959
 11
-15.749
 21
17.3794
  0
LINE
  8
0
 10
-15.749
 20
17.3794
 11
-15.499
 21
17.3794
  0
LINE
  8
0
 10
-15.499
 20
17.3794
 11
-13.7916
 21
18.239
  0
LINE
  8
0
 10
-13.7916
 20
18.239
 11
-13.6666
 21
18.4555
  0
LINE
  8
0
 10
-13.6666
 20
18.4555
 11
-19.5191
 21
30.2279
  0
LINE
  8
0
 10
-19.5191
 20
30.2279
 11
-19.6441
 21
30.4444
  0
LINE
  8
0
 10
-19.6441
 20
30.4444
 11
-19.8941
 21
30.4444
  0
LINE
  8
0
 10
-19.8941
 20
30.4444
 11
-21.6016
 21
29.5841
  0
LINE
  8
0
 10
-21.6016
 20
29.5841
 11
-21.7266
 21
29.3676
  0
LINE
  8
0
 10
-18.0594
 20
15.3727
 11
-17.8699
 21
15.0201
  0
LINE
  8
0
 10
-17.8699
 20
15.0201
 11
-17.7449
 21
14.8036
  0
LINE
  8
0
 10
-17.7449
 20
14.8036
 11
-17.723
 21
14.7979
  0
LINE
  8
0
 10
-17.723
 20
14.7979
 11
-17.2887
 21
14.6733
  0
LINE
  8
0
 10
-17.2887
 20
14.6733
 11
-16.6619
 21
14.619
  0
LINE
  8
0
 10
-16.6619
 20
14.619
 11
-16.4119
 21
14.619
  0
LINE
  8
0
 10
-16.4119
 20
14.619
 11
-15.4271
 21
14.7979
  0
LINE
  8
0
 10
-15.4271
 20
14.7979
 11
-15.3615
 21
14.8099
  0
LINE
  8
0
 10
-15.3615
 20
14.8099
 11
-13.6566
 21
15.421
  0
LINE
  8
0
 10
-13.6566
 20
15.421
 11
-12.5595
 21
15.8687
  0
LINE
  8
0
 10
-12.5595
 20
15.8687
 11
-12.5236
 21
15.8833
  0
LINE
  8
0
 10
-12.5236
 20
15.8833
 11
-11.9765
 21
16.1065
  0
LINE
  8
0
 10
-11.9765
 20
16.1065
 11
-11.4236
 21
16.3321
  0
LINE
  8
0
 10
-11.4236
 20
16.3321
 11
-10.6699
 21
16.5894
  0
LINE
  8
0
 10
-10.6699
 20
16.5894
 11
-10.4878
 21
16.6156
  0
LINE
  8
0
 10
-10.4878
 20
16.6156
 11
-10.3723
 21
16.4155
  0
LINE
  8
0
 10
-10.3723
 20
16.4155
 11
-10.1223
 21
16.4155
  0
LINE
  8
0
 10
-10.1223
 20
16.4155
 11
-9.99726
 21
16.632
  0
LINE
  8
0
 10
-9.99726
 20
16.632
 11
-10.0112
 21
16.8666
  0
LINE
  8
0
 10
-10.0112
 20
16.8666
 11
-10.015
 21
16.9322
  0
LINE
  8
0
 10
-10.015
 20
16.9322
 11
-9.93888
 21
17.1222
  0
LINE
  8
0
 10
-9.93888
 20
17.1222
 11
-9.74141
 21
17.3933
  0
LINE
  8
0
 10
-9.74141
 20
17.3933
 11
-9.61641
 21
17.6098
  0
LINE
  8
0
 10
-9.61641
 20
17.6098
 11
-9.76172
 21
17.8809
  0
LINE
  8
0
 10
-9.76172
 20
17.8809
 11
-9.88672
 21
18.0974
  0
LINE
  8
0
 10
-9.88672
 20
18.0974
 11
-10.2818
 21
18.2618
  0
LINE
  8
0
 10
-10.2818
 20
18.2618
 11
-10.6979
 21
18.4228
  0
LINE
  8
0
 10
-10.6979
 20
18.4228
 11
-10.9479
 21
18.4228
  0
LINE
  8
0
 10
-10.9479
 20
18.4228
 11
-11.3479
 21
18.4021
  0
LINE
  8
0
 10
-11.3479
 20
18.4021
 11
-11.974
 21
18.2603
  0
LINE
  8
0
 10
-11.974
 20
18.2603
 11
-14.1996
 21
17.4538
  0
LINE
  8
0
 10
-14.1996
 20
17.4538
 11
-14.2384
 21
17.4386
  0
LINE
  8
0
 10
-14.2384
 20
17.4386
 11
-14.9761
 21
17.1487
  0
LINE
  8
0
 10
-14.9761
 20
17.1487
 11
-15.1431
 21
17.0831
  0
LINE
  8
0
 10
-15.1431
 20
17.0831
 11
-15.2977
 21
17.0224
  0
LINE
  8
0
 10
-15.2977
 20
17.0224
 11
-15.9524
 21
16.7651
  0
LINE
  8
0
 10
-15.9524
 20
16.7651
 11
-16.5266
 21
16.5396
  0
LINE
  8
0
 10
-16.5266
 20
16.5396
 11
-17.1856
 21
16.3718
  0
LINE
  8
0
 10
-17.1856
 20
16.3718
 11
-17.2439
 21
16.4729
  0
LINE
  8
0
 10
-17.2439
 20
16.4729
 11
-17.4939
 21
16.4729
  0
LINE
  8
0
 10
-17.4939
 20
16.4729
 11
-17.6189
 21
16.2564
  0
LINE
  8
0
 10
-17.6189
 20
16.2564
 11
-17.6409
 21
16.0998
  0
LINE
  8
0
 10
-17.6409
 20
16.0998
 11
-17.6425
 21
16.0886
  0
LINE
  8
0
 10
-17.6425
 20
16.0886
 11
-17.9344
 21
15.5892
  0
LINE
  8
0
 10
-17.9344
 20
15.5892
 11
-18.0594
 21
15.3727
  0
LINE
  8
0
 10
-16.8779
 20
13.3521
 11
-16.6885
 21
12.9998
  0
LINE
  8
0
 10
-16.6885
 20
12.9998
 11
-16.5635
 21
12.7833
  0
LINE
  8
0
 10
-16.5635
 20
12.7833
 11
-16.5416
 21
12.7774
  0
LINE
  8
0
 10
-16.5416
 20
12.7774
 11
-16.1076
 21
12.6524
  0
LINE
  8
0
 10
-16.1076
 20
12.6524
 11
-15.4807
 21
12.5981
  0
LINE
  8
0
 10
-15.4807
 20
12.5981
 11
-15.2307
 21
12.5981
  0
LINE
  8
0
 10
-15.2307
 20
12.5981
 11
-14.2443
 21
12.7774
  0
LINE
  8
0
 10
-14.2443
 20
12.7774
 11
-14.1799
 21
12.7892
  0
LINE
  8
0
 10
-14.1799
 20
12.7892
 11
-12.4748
 21
13.4005
  0
LINE
  8
0
 10
-12.4748
 20
13.4005
 11
-11.3758
 21
13.8485
  0
LINE
  8
0
 10
-11.3758
 20
13.8485
 11
-11.3433
 21
13.8618
  0
LINE
  8
0
 10
-11.3433
 20
13.8618
 11
-10.7962
 21
14.0849
  0
LINE
  8
0
 10
-10.7962
 20
14.0849
 11
-10.2424
 21
14.3106
  0
LINE
  8
0
 10
-10.2424
 20
14.3106
 11
-9.48867
 21
14.5677
  0
LINE
  8
0
 10
-9.48867
 20
14.5677
 11
-9.30586
 21
14.5937
  0
LINE
  8
0
 10
-9.30586
 20
14.5937
 11
-9.19102
 21
14.3948
  0
LINE
  8
0
 10
-9.19102
 20
14.3948
 11
-8.94102
 21
14.3948
  0
LINE
  8
0
 10
-8.94102
 20
14.3948
 11
-8.81602
 21
14.6113
  0
LINE
  8
0
 10
-8.81602
 20
14.6113
 11
-8.82988
 21
14.8443
  0
LINE
  8
0
 10
-8.82988
 20
14.8443
 11
-8.83379
 21
14.91
  0
LINE
  8
0
 10
-8.83379
 20
14.91
 11
-8.75744
 21
15.1008
  0
LINE
  8
0
 10
-8.75744
 20
15.1008
 11
-8.55996
 21
15.3724
  0
LINE
  8
0
 10
-8.55996
 20
15.3724
 11
-8.43496
 21
15.5889
  0
LINE
  8
0
 10
-8.43496
 20
15.5889
 11
-8.58047
 21
15.86
  0
LINE
  8
0
 10
-8.58047
 20
15.86
 11
-8.70547
 21
16.0765
  0
LINE
  8
0
 10
-8.70547
 20
16.0765
 11
-9.10039
 21
16.2407
  0
LINE
  8
0
 10
-9.10039
 20
16.2407
 11
-9.51641
 21
16.4017
  0
LINE
  8
0
 10
-9.51641
 20
16.4017
 11
-9.76641
 21
16.4017
  0
LINE
  8
0
 10
-9.76641
 20
16.4017
 11
-10.1666
 21
16.3808
  0
LINE
  8
0
 10
-10.1666
 20
16.3808
 11
-10.7926
 21
16.2386
  0
LINE
  8
0
 10
-10.7926
 20
16.2386
 11
-13.0178
 21
15.431
  0
LINE
  8
0
 10
-13.0178
 20
15.431
 11
-13.0546
 21
15.4165
  0
LINE
  8
0
 10
-13.0546
 20
15.4165
 11
-13.7939
 21
15.1265
  0
LINE
  8
0
 10
-13.7939
 20
15.1265
 11
-13.9612
 21
15.0608
  0
LINE
  8
0
 10
-13.9612
 20
15.0608
 11
-14.1145
 21
15.0007
  0
LINE
  8
0
 10
-14.1145
 20
15.0007
 11
-14.7696
 21
14.7437
  0
LINE
  8
0
 10
-14.7696
 20
14.7437
 11
-15.3451
 21
14.5179
  0
LINE
  8
0
 10
-15.3451
 20
14.5179
 11
-16.0038
 21
14.3503
  0
LINE
  8
0
 10
-16.0038
 20
14.3503
 11
-16.0631
 21
14.453
  0
LINE
  8
0
 10
-16.0631
 20
14.453
 11
-16.3131
 21
14.453
  0
LINE
  8
0
 10
-16.3131
 20
14.453
 11
-16.4381
 21
14.2365
  0
LINE
  8
0
 10
-16.4381
 20
14.2365
 11
-16.4604
 21
14.0783
  0
LINE
  8
0
 10
-16.4604
 20
14.0783
 11
-16.4619
 21
14.0678
  0
LINE
  8
0
 10
-16.4619
 20
14.0678
 11
-16.7529
 21
13.5687
  0
LINE
  8
0
 10
-16.7529
 20
13.5687
 11
-16.8779
 21
13.3521
  0
LINE
  8
0
 10
-15.8779
 20
11.3066
 11
-15.6889
 21
10.9557
  0
LINE
  8
0
 10
-15.6889
 20
10.9557
 11
-15.5639
 21
10.7392
  0
LINE
  8
0
 10
-15.5639
 20
10.7392
 11
-15.1088
 21
10.6081
  0
LINE
  8
0
 10
-15.1088
 20
10.6081
 11
-14.4818
 21
10.5532
  0
LINE
  8
0
 10
-14.4818
 20
10.5532
 11
-14.2318
 21
10.5532
  0
LINE
  8
0
 10
-14.2318
 20
10.5532
 11
-13.1811
 21
10.744
  0
LINE
  8
0
 10
-13.1811
 20
10.744
 11
-11.4752
 21
11.356
  0
LINE
  8
0
 10
-11.4752
 20
11.356
 11
-10.377
 21
11.8038
  0
LINE
  8
0
 10
-10.377
 20
11.8038
 11
-10.3421
 21
11.8181
  0
LINE
  8
0
 10
-10.3421
 20
11.8181
 11
-9.79562
 21
12.0409
  0
LINE
  8
0
 10
-9.79562
 20
12.0409
 11
-9.24199
 21
12.2667
  0
LINE
  8
0
 10
-9.24199
 20
12.2667
 11
-8.48848
 21
12.5239
  0
LINE
  8
0
 10
-8.48848
 20
12.5239
 11
-8.30665
 21
12.5501
  0
LINE
  8
0
 10
-8.30665
 20
12.5501
 11
-8.19141
 21
12.3505
  0
LINE
  8
0
 10
-8.19141
 20
12.3505
 11
-7.94141
 21
12.3505
  0
LINE
  8
0
 10
-7.94141
 20
12.3505
 11
-7.81641
 21
12.567
  0
LINE
  8
0
 10
-7.81641
 20
12.567
 11
-7.82966
 21
12.8012
  0
LINE
  8
0
 10
-7.82966
 20
12.8012
 11
-7.8334
 21
12.8672
  0
LINE
  8
0
 10
-7.8334
 20
12.8672
 11
-7.75728
 21
13.0569
  0
LINE
  8
0
 10
-7.75728
 20
13.0569
 11
-7.55996
 21
13.3278
  0
LINE
  8
0
 10
-7.55996
 20
13.3278
 11
-7.43496
 21
13.5443
  0
LINE
  8
0
 10
-7.43496
 20
13.5443
 11
-7.58066
 21
13.8154
  0
LINE
  8
0
 10
-7.58066
 20
13.8154
 11
-7.70567
 21
14.0319
  0
LINE
  8
0
 10
-7.70567
 20
14.0319
 11
-8.10039
 21
14.1964
  0
LINE
  8
0
 10
-8.10039
 20
14.1964
 11
-8.51641
 21
14.3569
  0
LINE
  8
0
 10
-8.51641
 20
14.3569
 11
-8.76641
 21
14.3569
  0
LINE
  8
0
 10
-8.76641
 20
14.3569
 11
-9.1664
 21
14.336
  0
LINE
  8
0
 10
-9.1664
 20
14.336
 11
-9.79258
 21
14.194
  0
LINE
  8
0
 10
-9.79258
 20
14.194
 11
-12.0182
 21
13.3878
  0
LINE
  8
0
 10
-12.0182
 20
13.3878
 11
-12.055
 21
13.3733
  0
LINE
  8
0
 10
-12.055
 20
13.3733
 11
-12.7925
 21
13.0837
  0
LINE
  8
0
 10
-12.7925
 20
13.0837
 11
-12.9607
 21
13.0177
  0
LINE
  8
0
 10
-12.9607
 20
13.0177
 11
-13.1153
 21
12.9569
  0
LINE
  8
0
 10
-13.1153
 20
12.9569
 11
-13.7704
 21
12.6997
  0
LINE
  8
0
 10
-13.7704
 20
12.6997
 11
-14.3453
 21
12.4739
  0
LINE
  8
0
 10
-14.3453
 20
12.4739
 11
-15.0035
 21
12.3067
  0
LINE
  8
0
 10
-15.0035
 20
12.3067
 11
-15.0625
 21
12.4089
  0
LINE
  8
0
 10
-15.0625
 20
12.4089
 11
-15.3125
 21
12.4089
  0
LINE
  8
0
 10
-15.3125
 20
12.4089
 11
-15.4375
 21
12.1924
  0
LINE
  8
0
 10
-15.4375
 20
12.1924
 11
-15.4599
 21
12.0346
  0
LINE
  8
0
 10
-15.4599
 20
12.0346
 11
-15.4615
 21
12.023
  0
LINE
  8
0
 10
-15.4615
 20
12.023
 11
-15.7529
 21
11.5231
  0
LINE
  8
0
 10
-15.7529
 20
11.5231
 11
-15.8779
 21
11.3066
  0
LINE
  8
0
 10
-14.6549
 20
9.20801
 11
-14.4656
 21
8.85605
  0
LINE
  8
0
 10
-14.4656
 20
8.85605
 11
-14.3406
 21
8.63955
  0
LINE
  8
0
 10
-14.3406
 20
8.63955
 11
-14.3178
 21
8.63349
  0
LINE
  8
0
 10
-14.3178
 20
8.63349
 11
-13.8836
 21
8.50908
  0
LINE
  8
0
 10
-13.8836
 20
8.50908
 11
-13.2566
 21
8.45517
  0
LINE
  8
0
 10
-13.2566
 20
8.45517
 11
-13.0066
 21
8.45517
  0
LINE
  8
0
 10
-13.0066
 20
8.45517
 11
-12.0271
 21
8.63349
  0
LINE
  8
0
 10
-12.0271
 20
8.63349
 11
-11.9562
 21
8.64639
  0
LINE
  8
0
 10
-11.9562
 20
8.64639
 11
-10.252
 21
9.25732
  0
LINE
  8
0
 10
-10.252
 20
9.25732
 11
-9.154
 21
9.70478
  0
LINE
  8
0
 10
-9.154
 20
9.70478
 11
-9.11901
 21
9.71904
  0
LINE
  8
0
 10
-9.11901
 20
9.71904
 11
-8.57123
 21
9.94228
  0
LINE
  8
0
 10
-8.57123
 20
9.94228
 11
-8.01914
 21
10.1673
  0
LINE
  8
0
 10
-8.01914
 20
10.1673
 11
-7.26543
 21
10.4245
  0
LINE
  8
0
 10
-7.26543
 20
10.4245
 11
-7.08217
 21
10.4508
  0
LINE
  8
0
 10
-7.08217
 20
10.4508
 11
-6.96719
 21
10.2517
  0
LINE
  8
0
 10
-6.96719
 20
10.2517
 11
-6.71719
 21
10.2517
  0
LINE
  8
0
 10
-6.71719
 20
10.2517
 11
-6.59219
 21
10.4682
  0
LINE
  8
0
 10
-6.59219
 20
10.4682
 11
-6.60638
 21
10.7016
  0
LINE
  8
0
 10
-6.60638
 20
10.7016
 11
-6.61035
 21
10.7668
  0
LINE
  8
0
 10
-6.61035
 20
10.7668
 11
-6.53416
 21
10.9575
  0
LINE
  8
0
 10
-6.53416
 20
10.9575
 11
-6.33672
 21
11.2288
  0
LINE
  8
0
 10
-6.33672
 20
11.2288
 11
-6.21172
 21
11.4453
  0
LINE
  8
0
 10
-6.21172
 20
11.4453
 11
-6.35723
 21
11.7162
  0
LINE
  8
0
 10
-6.35723
 20
11.7162
 11
-6.48223
 21
11.9327
  0
LINE
  8
0
 10
-6.48223
 20
11.9327
 11
-6.87734
 21
12.0972
  0
LINE
  8
0
 10
-6.87734
 20
12.0972
 11
-7.29336
 21
12.2581
  0
LINE
  8
0
 10
-7.29336
 20
12.2581
 11
-7.54336
 21
12.2581
  0
LINE
  8
0
 10
-7.54336
 20
12.2581
 11
-7.94336
 21
12.2372
  0
LINE
  8
0
 10
-7.94336
 20
12.2372
 11
-8.56953
 21
12.0954
  0
LINE
  8
0
 10
-8.56953
 20
12.0954
 11
-10.7953
 21
11.2886
  0
LINE
  8
0
 10
-10.7953
 20
11.2886
 11
-10.8346
 21
11.2731
  0
LINE
  8
0
 10
-10.8346
 20
11.2731
 11
-11.5731
 21
10.9833
  0
LINE
  8
0
 10
-11.5731
 20
10.9833
 11
-11.7393
 21
10.9181
  0
LINE
  8
0
 10
-11.7393
 20
10.9181
 11
-11.8935
 21
10.8575
  0
LINE
  8
0
 10
-11.8935
 20
10.8575
 11
-12.5488
 21
10.6003
  0
LINE
  8
0
 10
-12.5488
 20
10.6003
 11
-13.1221
 21
10.3753
  0
LINE
  8
0
 10
-13.1221
 20
10.3753
 11
-13.7803
 21
10.2076
  0
LINE
  8
0
 10
-13.7803
 20
10.2076
 11
-13.8393
 21
10.3097
  0
LINE
  8
0
 10
-13.8393
 20
10.3097
 11
-14.0893
 21
10.3097
  0
LINE
  8
0
 10
-14.0893
 20
10.3097
 11
-14.2143
 21
10.0932
  0
LINE
  8
0
 10
-14.2143
 20
10.0932
 11
-14.2366
 21
9.93555
  0
LINE
  8
0
 10
-14.2366
 20
9.93555
 11
-14.2382
 21
9.92431
  0
LINE
  8
0
 10
-14.2382
 20
9.92431
 11
-14.5299
 21
9.42451
  0
LINE
  8
0
 10
-14.5299
 20
9.42451
 11
-14.6549
 21
9.20801
  0
LINE
  8
0
 10
-14.3824
 20
42.5789
 11
-14.2574
 21
42.3624
  0
LINE
  8
0
 10
-14.2574
 20
42.3624
 11
-13.5602
 21
41.8472
  0
LINE
  8
0
 10
-13.5602
 20
41.8472
 11
-13.3102
 21
41.8472
  0
LINE
  8
0
 10
-13.3102
 20
41.8472
 11
-11.6495
 21
42.962
  0
LINE
  8
0
 10
-11.6495
 20
42.962
 11
-9.76367
 21
44.228
  0
LINE
  8
0
 10
-9.76367
 20
44.228
 11
-9.63867
 21
44.4445
  0
LINE
  8
0
 10
-9.63867
 20
44.4445
 11
-9.76367
 21
44.661
  0
LINE
  8
0
 10
-9.76367
 20
44.661
 11
-10.4721
 21
45.1845
  0
LINE
  8
0
 10
-10.4721
 20
45.1845
 11
-10.7221
 21
45.1845
  0
LINE
  8
0
 10
-10.7221
 20
45.1845
 11
-12.7331
 21
43.7938
  0
LINE
  8
0
 10
-12.7331
 20
43.7938
 11
-11.958
 21
46.1582
  0
LINE
  8
0
 10
-11.958
 20
46.1582
 11
-12.083
 21
46.3747
  0
LINE
  8
0
 10
-12.083
 20
46.3747
 11
-12.776
 21
46.8866
  0
LINE
  8
0
 10
-12.776
 20
46.8866
 11
-13.026
 21
46.8866
  0
LINE
  8
0
 10
-13.026
 20
46.8866
 11
-13.151
 21
46.6701
  0
LINE
  8
0
 10
-13.151
 20
46.6701
 11
-14.2019
 21
43.1785
  0
LINE
  8
0
 10
-14.2019
 20
43.1785
 11
-14.3824
 21
42.5789
  0
LINE
  8
0
 10
-10.8535
 20
8.29551
 11
-10.3572
 21
7.29688
  0
LINE
  8
0
 10
-10.3572
 20
7.29688
 11
-10.2322
 21
7.08037
  0
LINE
  8
0
 10
-10.2322
 20
7.08037
 11
-9.98223
 21
7.08037
  0
LINE
  8
0
 10
-9.98223
 20
7.08037
 11
-8.27402
 21
7.94033
  0
LINE
  8
0
 10
-8.27402
 20
7.94033
 11
-8.14902
 21
8.15684
  0
LINE
  8
0
 10
-8.14902
 20
8.15684
 11
-8.64551
 21
9.15547
  0
LINE
  8
0
 10
-8.64551
 20
9.15547
 11
-8.77051
 21
9.37197
  0
LINE
  8
0
 10
-8.77051
 20
9.37197
 11
-9.02051
 21
9.37197
  0
LINE
  8
0
 10
-9.02051
 20
9.37197
 11
-10.7285
 21
8.51201
  0
LINE
  8
0
 10
-10.7285
 20
8.51201
 11
-10.8535
 21
8.29551
  0
LINE
  8
0
 10
-9.72773
 20
37.6742
 11
-9.72322
 21
37.6531
  0
LINE
  8
0
 10
-9.72322
 20
37.6531
 11
-9.67682
 21
37.4363
  0
LINE
  8
0
 10
-9.67682
 20
37.4363
 11
-9.64609
 21
37.2928
  0
LINE
  8
0
 10
-9.64609
 20
37.2928
 11
-9.61575
 21
37.2203
  0
LINE
  8
0
 10
-9.61575
 20
37.2203
 11
-9.53372
 21
37.0244
  0
LINE
  8
0
 10
-9.53372
 20
37.0244
 11
-9.48301
 21
36.9033
  0
LINE
  8
0
 10
-9.48301
 20
36.9033
 11
-9.35801
 21
36.6868
  0
LINE
  8
0
 10
-9.35801
 20
36.6868
 11
-9.33566
 21
36.6511
  0
LINE
  8
0
 10
-9.33566
 20
36.6511
 11
-9.26204
 21
36.5333
  0
LINE
  8
0
 10
-9.26204
 20
36.5333
 11
-9.21295
 21
36.4548
  0
LINE
  8
0
 10
-9.21295
 20
36.4548
 11
-9.19305
 21
36.4229
  0
LINE
  8
0
 10
-9.19305
 20
36.4229
 11
-9.13164
 21
36.3247
  0
LINE
  8
0
 10
-9.13164
 20
36.3247
 11
-8.86582
 21
36.0349
  0
LINE
  8
0
 10
-8.86582
 20
36.0349
 11
-8.56035
 21
35.8173
  0
LINE
  8
0
 10
-8.56035
 20
35.8173
 11
-8.21523
 21
35.6722
  0
LINE
  8
0
 10
-8.21523
 20
35.6722
 11
-8.03105
 21
35.6278
  0
LINE
  8
0
 10
-8.03105
 20
35.6278
 11
-7.84277
 21
35.6042
  0
LINE
  8
0
 10
-7.84277
 20
35.6042
 11
-7.59277
 21
35.6042
  0
LINE
  8
0
 10
-7.59277
 20
35.6042
 11
-7.20488
 21
35.619
  0
LINE
  8
0
 10
-7.20488
 20
35.619
 11
-6.80176
 21
35.7161
  0
LINE
  8
0
 10
-6.80176
 20
35.7161
 11
-6.38301
 21
35.896
  0
LINE
  8
0
 10
-6.38301
 20
35.896
 11
-6.12656
 21
36.0419
  0
LINE
  8
0
 10
-6.12656
 20
36.0419
 11
-5.90234
 21
36.1968
  0
LINE
  8
0
 10
-5.90234
 20
36.1968
 11
-5.71094
 21
36.3608
  0
LINE
  8
0
 10
-5.71094
 20
36.3608
 11
-5.6538
 21
36.4229
  0
LINE
  8
0
 10
-5.6538
 20
36.4229
 11
-5.6335
 21
36.445
  0
LINE
  8
0
 10
-5.6335
 20
36.445
 11
-5.56343
 21
36.5212
  0
LINE
  8
0
 10
-5.56343
 20
36.5212
 11
-5.55176
 21
36.5339
  0
LINE
  8
0
 10
-5.55176
 20
36.5339
 11
-5.47395
 21
36.6515
  0
LINE
  8
0
 10
-5.47395
 20
36.6515
 11
-5.36758
 21
36.8122
  0
LINE
  8
0
 10
-5.36758
 20
36.8122
 11
-5.24258
 21
37.0287
  0
LINE
  8
0
 10
-5.24258
 20
37.0287
 11
-5.23996
 21
37.0348
  0
LINE
  8
0
 10
-5.23996
 20
37.0348
 11
-5.16195
 21
37.2154
  0
LINE
  8
0
 10
-5.16195
 20
37.2154
 11
-5.10957
 21
37.3367
  0
LINE
  8
0
 10
-5.10957
 20
37.3367
 11
-5.09242
 21
37.4102
  0
LINE
  8
0
 10
-5.09242
 20
37.4102
 11
-5.04373
 21
37.6187
  0
LINE
  8
0
 10
-5.04373
 20
37.6187
 11
-5.03516
 21
37.6555
  0
LINE
  8
0
 10
-5.03516
 20
37.6555
 11
-5.03061
 21
37.8354
  0
LINE
  8
0
 10
-5.03061
 20
37.8354
 11
-5.02734
 21
37.965
  0
LINE
  8
0
 10
-5.02734
 20
37.965
 11
-5.03941
 21
38.0537
  0
LINE
  8
0
 10
-5.03941
 20
38.0537
 11
-5.05527
 21
38.1703
  0
LINE
  8
0
 10
-5.05527
 20
38.1703
 11
-5.0812
 21
38.2738
  0
LINE
  8
0
 10
-5.0812
 20
38.2738
 11
-5.10762
 21
38.3793
  0
LINE
  8
0
 10
-5.10762
 20
38.3793
 11
-5.14963
 21
38.4959
  0
LINE
  8
0
 10
-5.14963
 20
38.4959
 11
-5.18418
 21
38.5918
  0
LINE
  8
0
 10
-5.18418
 20
38.5918
 11
-5.23371
 21
38.6979
  0
LINE
  8
0
 10
-5.23371
 20
38.6979
 11
-5.28516
 21
38.808
  0
LINE
  8
0
 10
-5.28516
 20
38.808
 11
-5.41016
 21
39.0245
  0
LINE
  8
0
 10
-5.41016
 20
39.0245
 11
-5.44174
 21
39.0749
  0
LINE
  8
0
 10
-5.44174
 20
39.0749
 11
-5.51617
 21
39.1937
  0
LINE
  8
0
 10
-5.51617
 20
39.1937
 11
-5.5644
 21
39.2706
  0
LINE
  8
0
 10
-5.5644
 20
39.2706
 11
-5.58288
 21
39.3001
  0
LINE
  8
0
 10
-5.58288
 20
39.3001
 11
-5.63516
 21
39.3835
  0
LINE
  8
0
 10
-5.63516
 20
39.3835
 11
-5.90078
 21
39.6714
  0
LINE
  8
0
 10
-5.90078
 20
39.6714
 11
-6.20723
 21
39.8882
  0
LINE
  8
0
 10
-6.20723
 20
39.8882
 11
-6.55449
 21
40.0337
  0
LINE
  8
0
 10
-6.55449
 20
40.0337
 11
-6.74043
 21
40.0782
  0
LINE
  8
0
 10
-6.74043
 20
40.0782
 11
-6.93067
 21
40.1017
  0
LINE
  8
0
 10
-6.93067
 20
40.1017
 11
-7.1252
 21
40.1042
  0
LINE
  8
0
 10
-7.1252
 20
40.1042
 11
-7.37519
 21
40.1042
  0
LINE
  8
0
 10
-7.37519
 20
40.1042
 11
-7.57402
 21
40.0856
  0
LINE
  8
0
 10
-7.57402
 20
40.0856
 11
-7.98438
 21
39.9856
  0
LINE
  8
0
 10
-7.98438
 20
39.9856
 11
-8.41172
 21
39.8015
  0
LINE
  8
0
 10
-8.41172
 20
39.8015
 11
-8.80547
 21
39.5603
  0
LINE
  8
0
 10
-8.80547
 20
39.5603
 11
-9.10358
 21
39.3001
  0
LINE
  8
0
 10
-9.10358
 20
39.3001
 11
-9.12148
 21
39.2845
  0
LINE
  8
0
 10
-9.12148
 20
39.2845
 11
-9.12916
 21
39.2755
  0
LINE
  8
0
 10
-9.12916
 20
39.2755
 11
-9.19612
 21
39.1972
  0
LINE
  8
0
 10
-9.19612
 20
39.1972
 11
-9.25039
 21
39.1337
  0
LINE
  8
0
 10
-9.25039
 20
39.1337
 11
-9.29774
 21
39.0649
  0
LINE
  8
0
 10
-9.29774
 20
39.0649
 11
-9.36016
 21
38.9743
  0
LINE
  8
0
 10
-9.36016
 20
38.9743
 11
-9.48516
 21
38.7578
  0
LINE
  8
0
 10
-9.48516
 20
38.7578
 11
-9.52686
 21
38.6803
  0
LINE
  8
0
 10
-9.52686
 20
38.6803
 11
-9.57539
 21
38.59
  0
LINE
  8
0
 10
-9.57539
 20
38.59
 11
-9.61238
 21
38.4977
  0
LINE
  8
0
 10
-9.61238
 20
38.4977
 11
-9.64609
 21
38.4135
  0
LINE
  8
0
 10
-9.64609
 20
38.4135
 11
-9.6713
 21
38.3006
  0
LINE
  8
0
 10
-9.6713
 20
38.3006
 11
-9.71853
 21
38.0891
  0
LINE
  8
0
 10
-9.71853
 20
38.0891
 11
-9.72773
 21
38.0479
  0
LINE
  8
0
 10
-9.72773
 20
38.0479
 11
-9.72773
 21
37.6742
  0
LINE
  8
0
 10
-8.49121
 20
37.6531
 11
-8.48086
 21
37.8707
  0
LINE
  8
0
 10
-8.48086
 20
37.8707
 11
-8.42168
 21
38.0891
  0
LINE
  8
0
 10
-8.42168
 20
38.0891
 11
-8.40742
 21
38.116
  0
LINE
  8
0
 10
-8.40742
 20
38.116
 11
-8.26601
 21
38.2812
  0
LINE
  8
0
 10
-8.26601
 20
38.2812
 11
-8.04043
 21
38.4638
  0
LINE
  8
0
 10
-8.04043
 20
38.4638
 11
-7.7582
 21
38.6319
  0
LINE
  8
0
 10
-7.7582
 20
38.6319
 11
-7.46211
 21
38.7642
  0
LINE
  8
0
 10
-7.46211
 20
38.7642
 11
-7.1875
 21
38.8425
  0
LINE
  8
0
 10
-7.1875
 20
38.8425
 11
-7.07618
 21
38.8533
  0
LINE
  8
0
 10
-7.07618
 20
38.8533
 11
-6.95293
 21
38.8376
  0
LINE
  8
0
 10
-6.95293
 20
38.8376
 11
-6.74512
 21
38.7606
  0
LINE
  8
0
 10
-6.74512
 20
38.7606
 11
-6.56387
 21
38.6419
  0
LINE
  8
0
 10
-6.56387
 20
38.6419
 11
-6.40879
 21
38.4813
  0
LINE
  8
0
 10
-6.40879
 20
38.4813
 11
-6.38182
 21
38.439
  0
LINE
  8
0
 10
-6.38182
 20
38.439
 11
-6.31426
 21
38.2738
  0
LINE
  8
0
 10
-6.31426
 20
38.2738
 11
-6.27285
 21
38.0537
  0
LINE
  8
0
 10
-6.27285
 20
38.0537
 11
-6.28086
 21
37.8354
  0
LINE
  8
0
 10
-6.28086
 20
37.8354
 11
-6.33828
 21
37.6187
  0
LINE
  8
0
 10
-6.33828
 20
37.6187
 11
-6.35094
 21
37.5948
  0
LINE
  8
0
 10
-6.35094
 20
37.5948
 11
-6.49062
 21
37.4319
  0
LINE
  8
0
 10
-6.49062
 20
37.4319
 11
-6.71406
 21
37.2513
  0
LINE
  8
0
 10
-6.71406
 20
37.2513
 11
-6.99394
 21
37.0845
  0
LINE
  8
0
 10
-6.99394
 20
37.0845
 11
-7.28789
 21
36.9542
  0
LINE
  8
0
 10
-7.28789
 20
36.9542
 11
-7.56328
 21
36.878
  0
LINE
  8
0
 10
-7.56328
 20
36.878
 11
-7.66812
 21
36.869
  0
LINE
  8
0
 10
-7.66812
 20
36.869
 11
-7.8086
 21
36.8878
  0
LINE
  8
0
 10
-7.8086
 20
36.8878
 11
-8.02305
 21
36.9663
  0
LINE
  8
0
 10
-8.02305
 20
36.9663
 11
-8.2082
 21
37.0841
  0
LINE
  8
0
 10
-8.2082
 20
37.0841
 11
-8.36387
 21
37.2409
  0
LINE
  8
0
 10
-8.36387
 20
37.2409
 11
-8.39028
 21
37.2818
  0
LINE
  8
0
 10
-8.39028
 20
37.2818
 11
-8.45273
 21
37.4363
  0
LINE
  8
0
 10
-8.45273
 20
37.4363
 11
-8.49121
 21
37.6531
  0
LINE
  8
0
 10
-7.70605
 20
31.4447
 11
-7.70193
 21
30.6973
  0
LINE
  8
0
 10
-7.70193
 20
30.6973
 11
-7.70156
 21
30.6297
  0
LINE
  8
0
 10
-7.70156
 20
30.6297
 11
-7.57656
 21
30.4132
  0
LINE
  8
0
 10
-7.57656
 20
30.4132
 11
-5.64767
 21
29.2351
  0
LINE
  8
0
 10
-5.64767
 20
29.2351
 11
-7.56777
 21
29.2247
  0
LINE
  8
0
 10
-7.56777
 20
29.2247
 11
-7.69277
 21
29.0082
  0
LINE
  8
0
 10
-7.69277
 20
29.0082
 11
-7.68867
 21
28.2537
  0
LINE
  8
0
 10
-7.68867
 20
28.2537
 11
-7.56367
 21
28.0372
  0
LINE
  8
0
 10
-7.56367
 20
28.0372
 11
-7.31367
 21
28.0372
  0
LINE
  8
0
 10
-7.31367
 20
28.0372
 11
-3.2914
 21
28.0589
  0
LINE
  8
0
 10
-3.2914
 20
28.0589
 11
-3.1664
 21
28.2754
  0
LINE
  8
0
 10
-3.1664
 20
28.2754
 11
-3.17047
 21
29.0225
  0
LINE
  8
0
 10
-3.17047
 20
29.0225
 11
-3.1707
 21
29.0656
  0
LINE
  8
0
 10
-3.1707
 20
29.0656
 11
-3.2957
 21
29.2821
  0
LINE
  8
0
 10
-3.2957
 20
29.2821
 11
-5.28182
 21
30.4846
  0
LINE
  8
0
 10
-5.28182
 20
30.4846
 11
-3.30469
 21
30.4954
  0
LINE
  8
0
 10
-3.30469
 20
30.4954
 11
-3.17969
 21
30.7119
  0
LINE
  8
0
 10
-3.17969
 20
30.7119
 11
-3.18379
 21
31.4664
  0
LINE
  8
0
 10
-3.18379
 20
31.4664
 11
-3.30879
 21
31.6829
  0
LINE
  8
0
 10
-3.30879
 20
31.6829
 11
-3.55879
 21
31.6829
  0
LINE
  8
0
 10
-3.55879
 20
31.6829
 11
-7.58105
 21
31.6612
  0
LINE
  8
0
 10
-7.58105
 20
31.6612
 11
-7.70605
 21
31.4447
  0
ENDSEC
  0
SECTION
  2
OBJECTS
  0
DICTIONARY
  0
ENDSEC
  0
EOF
