solid OpenSCAD_Model
  facet normal 0.923879 0.382684 0
    outer loop
      vertex 10.5 0 1
      vertex 7.42462 7.42462 0
      vertex 7.42462 7.42462 1
    endloop
  endfacet
  facet normal 0.923879 0.382684 0
    outer loop
      vertex 7.42462 7.42462 0
      vertex 10.5 0 1
      vertex 10.5 0 0
    endloop
  endfacet
  facet normal -0.923879 0.382684 0
    outer loop
      vertex -10.5 0 0
      vertex -7.42462 7.42462 1
      vertex -7.42462 7.42462 0
    endloop
  endfacet
  facet normal -0.923879 0.382684 0
    outer loop
      vertex -7.42462 7.42462 1
      vertex -10.5 0 0
      vertex -10.5 0 1
    endloop
  endfacet
  facet normal 0.382684 0.923879 -0
    outer loop
      vertex 7.42462 7.42462 0
      vertex 0 10.5 1
      vertex 7.42462 7.42462 1
    endloop
  endfacet
  facet normal 0.382684 0.923879 0
    outer loop
      vertex 0 10.5 1
      vertex 7.42462 7.42462 0
      vertex 0 10.5 0
    endloop
  endfacet
  facet normal 0 0 -1
    outer loop
      vertex 7.42462 -7.42462 0
      vertex 7.42462 7.42462 0
      vertex 10.5 0 0
    endloop
  endfacet
  facet normal 0 0 -1
    outer loop
      vertex 0 -10.5 0
      vertex 7.42462 7.42462 0
      vertex 7.42462 -7.42462 0
    endloop
  endfacet
  facet normal 0 0 -1
    outer loop
      vertex 0 -10.5 0
      vertex 0 10.5 0
      vertex 7.42462 7.42462 0
    endloop
  endfacet
  facet normal 0 0 -1
    outer loop
      vertex -7.42462 -7.42462 0
      vertex 0 10.5 0
      vertex 0 -10.5 0
    endloop
  endfacet
  facet normal 0 0 -1
    outer loop
      vertex -7.42462 -7.42462 0
      vertex -7.42462 7.42462 0
      vertex 0 10.5 0
    endloop
  endfacet
  facet normal 0 -0 -1
    outer loop
      vertex -7.42462 7.42462 0
      vertex -7.42462 -7.42462 0
      vertex -10.5 0 0
    endloop
  endfacet
  facet normal -0.382684 0.923879 0
    outer loop
      vertex 0 10.5 0
      vertex -7.42462 7.42462 1
      vertex 0 10.5 1
    endloop
  endfacet
  facet normal -0.382684 0.923879 0
    outer loop
      vertex -7.42462 7.42462 1
      vertex 0 10.5 0
      vertex -7.42462 7.42462 0
    endloop
  endfacet
  facet normal 0.382684 -0.923879 0
    outer loop
      vertex 0 -10.5 0
      vertex 7.42462 -7.42462 1
      vertex 0 -10.5 1
    endloop
  endfacet
  facet normal 0.382684 -0.923879 0
    outer loop
      vertex 7.42462 -7.42462 1
      vertex 0 -10.5 0
      vertex 7.42462 -7.42462 0
    endloop
  endfacet
  facet normal -0.923879 -0.382684 0
    outer loop
      vertex -7.42462 -7.42462 0
      vertex -10.5 0 1
      vertex -10.5 0 0
    endloop
  endfacet
  facet normal -0.923879 -0.382684 0
    outer loop
      vertex -10.5 0 1
      vertex -7.42462 -7.42462 0
      vertex -7.42462 -7.42462 1
    endloop
  endfacet
  facet normal 0.923879 -0.382684 0
    outer loop
      vertex 7.42462 -7.42462 1
      vertex 10.5 0 0
      vertex 10.5 0 1
    endloop
  endfacet
  facet normal 0.923879 -0.382684 0
    outer loop
      vertex 10.5 0 0
      vertex 7.42462 -7.42462 1
      vertex 7.42462 -7.42462 0
    endloop
  endfacet
  facet normal -0.382684 -0.923879 0
    outer loop
      vertex -7.42462 -7.42462 0
      vertex 0 -10.5 1
      vertex -7.42462 -7.42462 1
    endloop
  endfacet
  facet normal -0.382684 -0.923879 -0
    outer loop
      vertex 0 -10.5 1
      vertex -7.42462 -7.42462 0
      vertex 0 -10.5 0
    endloop
  endfacet
  facet normal -0 0 1
    outer loop
      vertex 7.04769 2.56515 1
      vertex 10.5 0 1
      vertex 7.42462 7.42462 1
    endloop
  endfacet
  facet normal 0 0 1
    outer loop
      vertex 10.5 0 1
      vertex 7.38606 1.30236 1
      vertex 7.5 0 1
    endloop
  endfacet
  facet normal 0 0 1
    outer loop
      vertex 10.5 0 1
      vertex 7.04769 2.56515 1
      vertex 7.38606 1.30236 1
    endloop
  endfacet
  facet normal 0 0 1
    outer loop
      vertex 7.42462 7.42462 1
      vertex 6.49519 3.75 1
      vertex 7.04769 2.56515 1
    endloop
  endfacet
  facet normal 0 0 1
    outer loop
      vertex 7.42462 7.42462 1
      vertex 5.74533 4.82091 1
      vertex 6.49519 3.75 1
    endloop
  endfacet
  facet normal 0 0 1
    outer loop
      vertex 7.42462 7.42462 1
      vertex 4.82091 5.74533 1
      vertex 5.74533 4.82091 1
    endloop
  endfacet
  facet normal 0 0 1
    outer loop
      vertex 7.42462 7.42462 1
      vertex 3.75 6.49519 1
      vertex 4.82091 5.74533 1
    endloop
  endfacet
  facet normal 0 0 1
    outer loop
      vertex 7.42462 7.42462 1
      vertex 2.56515 7.04769 1
      vertex 3.75 6.49519 1
    endloop
  endfacet
  facet normal 0 0 1
    outer loop
      vertex 0 10.5 1
      vertex 2.56515 7.04769 1
      vertex 7.42462 7.42462 1
    endloop
  endfacet
  facet normal 0 0 1
    outer loop
      vertex 2.56515 7.04769 1
      vertex 0 10.5 1
      vertex 1.30236 7.38606 1
    endloop
  endfacet
  facet normal 0 0 1
    outer loop
      vertex 0 10.5 1
      vertex 0 7.5 1
      vertex 1.30236 7.38606 1
    endloop
  endfacet
  facet normal 0 0 1
    outer loop
      vertex 0 10.5 1
      vertex -1.30236 7.38606 1
      vertex 0 7.5 1
    endloop
  endfacet
  facet normal 0 0 1
    outer loop
      vertex 0 10.5 1
      vertex -2.56515 7.04769 1
      vertex -1.30236 7.38606 1
    endloop
  endfacet
  facet normal -0 0 1
    outer loop
      vertex -7.42462 7.42462 1
      vertex -2.56515 7.04769 1
      vertex 0 10.5 1
    endloop
  endfacet
  facet normal 0 0 1
    outer loop
      vertex -2.56515 7.04769 1
      vertex -7.42462 7.42462 1
      vertex -3.75 6.49519 1
    endloop
  endfacet
  facet normal 0 0 1
    outer loop
      vertex -3.75 6.49519 1
      vertex -7.42462 7.42462 1
      vertex -4.82091 5.74533 1
    endloop
  endfacet
  facet normal 0 0 1
    outer loop
      vertex -7.42462 7.42462 1
      vertex -5.74533 4.82091 1
      vertex -4.82091 5.74533 1
    endloop
  endfacet
  facet normal 0 0 1
    outer loop
      vertex -7.42462 7.42462 1
      vertex -6.49519 3.75 1
      vertex -5.74533 4.82091 1
    endloop
  endfacet
  facet normal 0 0 1
    outer loop
      vertex -7.42462 7.42462 1
      vertex -7.04769 2.56515 1
      vertex -6.49519 3.75 1
    endloop
  endfacet
  facet normal 0 0 1
    outer loop
      vertex -10.5 0 1
      vertex -7.04769 2.56515 1
      vertex -7.42462 7.42462 1
    endloop
  endfacet
  facet normal 0 0 1
    outer loop
      vertex -7.04769 2.56515 1
      vertex -10.5 0 1
      vertex -7.38606 1.30236 1
    endloop
  endfacet
  facet normal 0 0 1
    outer loop
      vertex -7.38606 1.30236 1
      vertex -10.5 0 1
      vertex -7.5 0 1
    endloop
  endfacet
  facet normal 0 0 1
    outer loop
      vertex 7.38606 -1.30236 1
      vertex 10.5 0 1
      vertex 7.5 0 1
    endloop
  endfacet
  facet normal 0 0 1
    outer loop
      vertex 7.04769 -2.56515 1
      vertex 10.5 0 1
      vertex 7.38606 -1.30236 1
    endloop
  endfacet
  facet normal 0 0 1
    outer loop
      vertex 10.5 0 1
      vertex 7.04769 -2.56515 1
      vertex 7.42462 -7.42462 1
    endloop
  endfacet
  facet normal -0 0 1
    outer loop
      vertex 6.49519 -3.75 1
      vertex 7.42462 -7.42462 1
      vertex 7.04769 -2.56515 1
    endloop
  endfacet
  facet normal -0 0 1
    outer loop
      vertex 5.74533 -4.82091 1
      vertex 7.42462 -7.42462 1
      vertex 6.49519 -3.75 1
    endloop
  endfacet
  facet normal -0 0 1
    outer loop
      vertex 4.82091 -5.74533 1
      vertex 7.42462 -7.42462 1
      vertex 5.74533 -4.82091 1
    endloop
  endfacet
  facet normal -0 0 1
    outer loop
      vertex 3.75 -6.49519 1
      vertex 7.42462 -7.42462 1
      vertex 4.82091 -5.74533 1
    endloop
  endfacet
  facet normal -0 0 1
    outer loop
      vertex 2.56515 -7.04769 1
      vertex 7.42462 -7.42462 1
      vertex 3.75 -6.49519 1
    endloop
  endfacet
  facet normal 0 0 1
    outer loop
      vertex 0 -10.5 1
      vertex 2.56515 -7.04769 1
      vertex 1.30236 -7.38606 1
    endloop
  endfacet
  facet normal 0 0 1
    outer loop
      vertex 0 -10.5 1
      vertex 1.30236 -7.38606 1
      vertex 0 -7.5 1
    endloop
  endfacet
  facet normal 0 0 1
    outer loop
      vertex 2.56515 -7.04769 1
      vertex 0 -10.5 1
      vertex 7.42462 -7.42462 1
    endloop
  endfacet
  facet normal 0 0 1
    outer loop
      vertex -1.30236 -7.38606 1
      vertex 0 -10.5 1
      vertex 0 -7.5 1
    endloop
  endfacet
  facet normal 0 0 1
    outer loop
      vertex -2.56515 -7.04769 1
      vertex 0 -10.5 1
      vertex -1.30236 -7.38606 1
    endloop
  endfacet
  facet normal 0 0 1
    outer loop
      vertex -7.42462 -7.42462 1
      vertex -2.56515 -7.04769 1
      vertex -3.75 -6.49519 1
    endloop
  endfacet
  facet normal 0 0 1
    outer loop
      vertex -7.42462 -7.42462 1
      vertex -3.75 -6.49519 1
      vertex -4.82091 -5.74533 1
    endloop
  endfacet
  facet normal 0 0 1
    outer loop
      vertex -2.56515 -7.04769 1
      vertex -7.42462 -7.42462 1
      vertex 0 -10.5 1
    endloop
  endfacet
  facet normal 0 0 1
    outer loop
      vertex -5.74533 -4.82091 1
      vertex -7.42462 -7.42462 1
      vertex -4.82091 -5.74533 1
    endloop
  endfacet
  facet normal 0 0 1
    outer loop
      vertex -6.49519 -3.75 1
      vertex -7.42462 -7.42462 1
      vertex -5.74533 -4.82091 1
    endloop
  endfacet
  facet normal 0 0 1
    outer loop
      vertex -7.04769 -2.56515 1
      vertex -7.42462 -7.42462 1
      vertex -6.49519 -3.75 1
    endloop
  endfacet
  facet normal 0 0 1
    outer loop
      vertex -10.5 0 1
      vertex -7.04769 -2.56515 1
      vertex -7.38606 -1.30236 1
    endloop
  endfacet
  facet normal -0 0 1
    outer loop
      vertex -10.5 0 1
      vertex -7.38606 -1.30236 1
      vertex -7.5 0 1
    endloop
  endfacet
  facet normal 0 0 1
    outer loop
      vertex -7.04769 -2.56515 1
      vertex -10.5 0 1
      vertex -7.42462 -7.42462 1
    endloop
  endfacet
  facet normal 0.996195 0.087156 0
    outer loop
      vertex 7.5 0 10
      vertex 7.38606 1.30236 1
      vertex 7.38606 1.30236 10
    endloop
  endfacet
  facet normal 0.996195 0.087156 0
    outer loop
      vertex 7.38606 1.30236 1
      vertex 7.5 0 10
      vertex 7.5 0 1
    endloop
  endfacet
  facet normal -0.996195 0.087156 0
    outer loop
      vertex -7.5 0 1
      vertex -7.38606 1.30236 10
      vertex -7.38606 1.30236 1
    endloop
  endfacet
  facet normal -0.996195 0.087156 0
    outer loop
      vertex -7.38606 1.30236 10
      vertex -7.5 0 1
      vertex -7.5 0 10
    endloop
  endfacet
  facet normal 0.087156 0.996195 -0
    outer loop
      vertex 1.30236 7.38606 1
      vertex 0 7.5 10
      vertex 1.30236 7.38606 10
    endloop
  endfacet
  facet normal 0.087156 0.996195 0
    outer loop
      vertex 0 7.5 10
      vertex 1.30236 7.38606 1
      vertex 0 7.5 1
    endloop
  endfacet
  facet normal -0.087156 -0.996195 0
    outer loop
      vertex -1.30236 -7.38606 1
      vertex 0 -7.5 10
      vertex -1.30236 -7.38606 10
    endloop
  endfacet
  facet normal -0.087156 -0.996195 -0
    outer loop
      vertex 0 -7.5 10
      vertex -1.30236 -7.38606 1
      vertex 0 -7.5 1
    endloop
  endfacet
  facet normal -0.819152 -0.573576 0
    outer loop
      vertex -5.74533 -4.82091 1
      vertex -6.49519 -3.75 10
      vertex -6.49519 -3.75 1
    endloop
  endfacet
  facet normal -0.819152 -0.573576 0
    outer loop
      vertex -6.49519 -3.75 10
      vertex -5.74533 -4.82091 1
      vertex -5.74533 -4.82091 10
    endloop
  endfacet
  facet normal 0.707107 0.707107 0
    outer loop
      vertex 5.74533 4.82091 10
      vertex 4.82091 5.74533 1
      vertex 4.82091 5.74533 10
    endloop
  endfacet
  facet normal 0.707107 0.707107 0
    outer loop
      vertex 4.82091 5.74533 1
      vertex 5.74533 4.82091 10
      vertex 5.74533 4.82091 1
    endloop
  endfacet
  facet normal -0.573576 0.819152 0
    outer loop
      vertex -3.75 6.49519 1
      vertex -4.82091 5.74533 10
      vertex -3.75 6.49519 10
    endloop
  endfacet
  facet normal -0.573576 0.819152 0
    outer loop
      vertex -4.82091 5.74533 10
      vertex -3.75 6.49519 1
      vertex -4.82091 5.74533 1
    endloop
  endfacet
  facet normal -0.258819 0.965926 0
    outer loop
      vertex -1.30236 7.38606 1
      vertex -2.56515 7.04769 10
      vertex -1.30236 7.38606 10
    endloop
  endfacet
  facet normal -0.258819 0.965926 0
    outer loop
      vertex -2.56515 7.04769 10
      vertex -1.30236 7.38606 1
      vertex -2.56515 7.04769 1
    endloop
  endfacet
  facet normal 0.906308 0.422619 0
    outer loop
      vertex 7.04769 2.56515 10
      vertex 6.49519 3.75 1
      vertex 6.49519 3.75 10
    endloop
  endfacet
  facet normal 0.906308 0.422619 0
    outer loop
      vertex 6.49519 3.75 1
      vertex 7.04769 2.56515 10
      vertex 7.04769 2.56515 1
    endloop
  endfacet
  facet normal 0.965926 0.258819 0
    outer loop
      vertex 7.38606 1.30236 10
      vertex 7.04769 2.56515 1
      vertex 7.04769 2.56515 10
    endloop
  endfacet
  facet normal 0.965926 0.258819 0
    outer loop
      vertex 7.04769 2.56515 1
      vertex 7.38606 1.30236 10
      vertex 7.38606 1.30236 1
    endloop
  endfacet
  facet normal 0.819152 0.573576 0
    outer loop
      vertex 6.49519 3.75 10
      vertex 5.74533 4.82091 1
      vertex 5.74533 4.82091 10
    endloop
  endfacet
  facet normal 0.819152 0.573576 0
    outer loop
      vertex 5.74533 4.82091 1
      vertex 6.49519 3.75 10
      vertex 6.49519 3.75 1
    endloop
  endfacet
  facet normal 0.422618 0.906308 -0
    outer loop
      vertex 3.75 6.49519 1
      vertex 2.56515 7.04769 10
      vertex 3.75 6.49519 10
    endloop
  endfacet
  facet normal 0.422618 0.906308 0
    outer loop
      vertex 2.56515 7.04769 10
      vertex 3.75 6.49519 1
      vertex 2.56515 7.04769 1
    endloop
  endfacet
  facet normal 0.258819 0.965926 -0
    outer loop
      vertex 2.56515 7.04769 1
      vertex 1.30236 7.38606 10
      vertex 2.56515 7.04769 10
    endloop
  endfacet
  facet normal 0.258819 0.965926 0
    outer loop
      vertex 1.30236 7.38606 10
      vertex 2.56515 7.04769 1
      vertex 1.30236 7.38606 1
    endloop
  endfacet
  facet normal 0.573576 0.819152 -0
    outer loop
      vertex 4.82091 5.74533 1
      vertex 3.75 6.49519 10
      vertex 4.82091 5.74533 10
    endloop
  endfacet
  facet normal 0.573576 0.819152 0
    outer loop
      vertex 3.75 6.49519 10
      vertex 4.82091 5.74533 1
      vertex 3.75 6.49519 1
    endloop
  endfacet
  facet normal -0.819152 0.573576 0
    outer loop
      vertex -6.49519 3.75 1
      vertex -5.74533 4.82091 10
      vertex -5.74533 4.82091 1
    endloop
  endfacet
  facet normal -0.819152 0.573576 0
    outer loop
      vertex -5.74533 4.82091 10
      vertex -6.49519 3.75 1
      vertex -6.49519 3.75 10
    endloop
  endfacet
  facet normal -0.707107 0.707107 0
    outer loop
      vertex -5.74533 4.82091 1
      vertex -4.82091 5.74533 10
      vertex -4.82091 5.74533 1
    endloop
  endfacet
  facet normal -0.707107 0.707107 0
    outer loop
      vertex -4.82091 5.74533 10
      vertex -5.74533 4.82091 1
      vertex -5.74533 4.82091 10
    endloop
  endfacet
  facet normal -0.906308 0.422618 0
    outer loop
      vertex -7.04769 2.56515 1
      vertex -6.49519 3.75 10
      vertex -6.49519 3.75 1
    endloop
  endfacet
  facet normal -0.906308 0.422618 0
    outer loop
      vertex -6.49519 3.75 10
      vertex -7.04769 2.56515 1
      vertex -7.04769 2.56515 10
    endloop
  endfacet
  facet normal -0.422619 0.906308 0
    outer loop
      vertex -2.56515 7.04769 1
      vertex -3.75 6.49519 10
      vertex -2.56515 7.04769 10
    endloop
  endfacet
  facet normal -0.422619 0.906308 0
    outer loop
      vertex -3.75 6.49519 10
      vertex -2.56515 7.04769 1
      vertex -3.75 6.49519 1
    endloop
  endfacet
  facet normal -0.087156 0.996195 0
    outer loop
      vertex 0 7.5 1
      vertex -1.30236 7.38606 10
      vertex 0 7.5 10
    endloop
  endfacet
  facet normal -0.087156 0.996195 0
    outer loop
      vertex -1.30236 7.38606 10
      vertex 0 7.5 1
      vertex -1.30236 7.38606 1
    endloop
  endfacet
  facet normal 0.996195 -0.087156 0
    outer loop
      vertex 7.38606 -1.30236 10
      vertex 7.5 0 1
      vertex 7.5 0 10
    endloop
  endfacet
  facet normal 0.996195 -0.087156 0
    outer loop
      vertex 7.5 0 1
      vertex 7.38606 -1.30236 10
      vertex 7.38606 -1.30236 1
    endloop
  endfacet
  facet normal 0.087156 -0.996195 0
    outer loop
      vertex 0 -7.5 1
      vertex 1.30236 -7.38606 10
      vertex 0 -7.5 10
    endloop
  endfacet
  facet normal 0.087156 -0.996195 0
    outer loop
      vertex 1.30236 -7.38606 10
      vertex 0 -7.5 1
      vertex 1.30236 -7.38606 1
    endloop
  endfacet
  facet normal -0.707107 -0.707107 0
    outer loop
      vertex -4.82091 -5.74533 1
      vertex -5.74533 -4.82091 10
      vertex -5.74533 -4.82091 1
    endloop
  endfacet
  facet normal -0.707107 -0.707107 0
    outer loop
      vertex -5.74533 -4.82091 10
      vertex -4.82091 -5.74533 1
      vertex -4.82091 -5.74533 10
    endloop
  endfacet
  facet normal -0.422618 -0.906308 0
    outer loop
      vertex -3.75 -6.49519 1
      vertex -2.56515 -7.04769 10
      vertex -3.75 -6.49519 10
    endloop
  endfacet
  facet normal -0.422618 -0.906308 -0
    outer loop
      vertex -2.56515 -7.04769 10
      vertex -3.75 -6.49519 1
      vertex -2.56515 -7.04769 1
    endloop
  endfacet
  facet normal -0.906308 -0.422618 0
    outer loop
      vertex -6.49519 -3.75 1
      vertex -7.04769 -2.56515 10
      vertex -7.04769 -2.56515 1
    endloop
  endfacet
  facet normal -0.906308 -0.422618 0
    outer loop
      vertex -7.04769 -2.56515 10
      vertex -6.49519 -3.75 1
      vertex -6.49519 -3.75 10
    endloop
  endfacet
  facet normal -0.996195 -0.087156 0
    outer loop
      vertex -7.38606 -1.30236 1
      vertex -7.5 0 10
      vertex -7.5 0 1
    endloop
  endfacet
  facet normal -0.996195 -0.087156 0
    outer loop
      vertex -7.5 0 10
      vertex -7.38606 -1.30236 1
      vertex -7.38606 -1.30236 10
    endloop
  endfacet
  facet normal -0.965926 0.258819 0
    outer loop
      vertex -7.38606 1.30236 1
      vertex -7.04769 2.56515 10
      vertex -7.04769 2.56515 1
    endloop
  endfacet
  facet normal -0.965926 0.258819 0
    outer loop
      vertex -7.04769 2.56515 10
      vertex -7.38606 1.30236 1
      vertex -7.38606 1.30236 10
    endloop
  endfacet
  facet normal 0 0 1
    outer loop
      vertex 7.38606 1.30236 10
      vertex 7.38606 -1.30236 10
      vertex 7.5 0 10
    endloop
  endfacet
  facet normal 0 0 1
    outer loop
      vertex 7.04769 2.56515 10
      vertex 7.38606 -1.30236 10
      vertex 7.38606 1.30236 10
    endloop
  endfacet
  facet normal 0 0 1
    outer loop
      vertex 7.04769 2.56515 10
      vertex 7.04769 -2.56515 10
      vertex 7.38606 -1.30236 10
    endloop
  endfacet
  facet normal 0 0 1
    outer loop
      vertex 6.49519 3.75 10
      vertex 7.04769 -2.56515 10
      vertex 7.04769 2.56515 10
    endloop
  endfacet
  facet normal 0 0 1
    outer loop
      vertex 6.49519 3.75 10
      vertex 6.49519 -3.75 10
      vertex 7.04769 -2.56515 10
    endloop
  endfacet
  facet normal 0 0 1
    outer loop
      vertex 5.74533 4.82091 10
      vertex 6.49519 -3.75 10
      vertex 6.49519 3.75 10
    endloop
  endfacet
  facet normal 0 0 1
    outer loop
      vertex 5.74533 4.82091 10
      vertex 5.74533 -4.82091 10
      vertex 6.49519 -3.75 10
    endloop
  endfacet
  facet normal 0 0 1
    outer loop
      vertex 4.82091 5.74533 10
      vertex 5.74533 -4.82091 10
      vertex 5.74533 4.82091 10
    endloop
  endfacet
  facet normal 0 0 1
    outer loop
      vertex 4.82091 5.74533 10
      vertex 4.82091 -5.74533 10
      vertex 5.74533 -4.82091 10
    endloop
  endfacet
  facet normal 0 0 1
    outer loop
      vertex 3.75 6.49519 10
      vertex 4.82091 -5.74533 10
      vertex 4.82091 5.74533 10
    endloop
  endfacet
  facet normal 0 0 1
    outer loop
      vertex 3.75 6.49519 10
      vertex 3.75 -6.49519 10
      vertex 4.82091 -5.74533 10
    endloop
  endfacet
  facet normal 0 0 1
    outer loop
      vertex 2.56515 7.04769 10
      vertex 3.75 -6.49519 10
      vertex 3.75 6.49519 10
    endloop
  endfacet
  facet normal 0 0 1
    outer loop
      vertex 2.56515 7.04769 10
      vertex 2.56515 -7.04769 10
      vertex 3.75 -6.49519 10
    endloop
  endfacet
  facet normal 0 0 1
    outer loop
      vertex 1.30236 7.38606 10
      vertex 2.56515 -7.04769 10
      vertex 2.56515 7.04769 10
    endloop
  endfacet
  facet normal 0 0 1
    outer loop
      vertex 1.30236 7.38606 10
      vertex 1.30236 -7.38606 10
      vertex 2.56515 -7.04769 10
    endloop
  endfacet
  facet normal 0 0 1
    outer loop
      vertex 0 7.5 10
      vertex 1.30236 -7.38606 10
      vertex 1.30236 7.38606 10
    endloop
  endfacet
  facet normal 0 0 1
    outer loop
      vertex 0 7.5 10
      vertex 0 -7.5 10
      vertex 1.30236 -7.38606 10
    endloop
  endfacet
  facet normal -0 0 1
    outer loop
      vertex -1.30236 7.38606 10
      vertex 0 -7.5 10
      vertex 0 7.5 10
    endloop
  endfacet
  facet normal 0 0 1
    outer loop
      vertex -1.30236 7.38606 10
      vertex -1.30236 -7.38606 10
      vertex 0 -7.5 10
    endloop
  endfacet
  facet normal -0 0 1
    outer loop
      vertex -2.56515 7.04769 10
      vertex -1.30236 -7.38606 10
      vertex -1.30236 7.38606 10
    endloop
  endfacet
  facet normal 0 0 1
    outer loop
      vertex -2.56515 7.04769 10
      vertex -2.56515 -7.04769 10
      vertex -1.30236 -7.38606 10
    endloop
  endfacet
  facet normal -0 0 1
    outer loop
      vertex -3.75 6.49519 10
      vertex -2.56515 -7.04769 10
      vertex -2.56515 7.04769 10
    endloop
  endfacet
  facet normal 0 0 1
    outer loop
      vertex -3.75 6.49519 10
      vertex -3.75 -6.49519 10
      vertex -2.56515 -7.04769 10
    endloop
  endfacet
  facet normal -0 0 1
    outer loop
      vertex -4.82091 5.74533 10
      vertex -3.75 -6.49519 10
      vertex -3.75 6.49519 10
    endloop
  endfacet
  facet normal 0 0 1
    outer loop
      vertex -4.82091 5.74533 10
      vertex -4.82091 -5.74533 10
      vertex -3.75 -6.49519 10
    endloop
  endfacet
  facet normal -0 0 1
    outer loop
      vertex -5.74533 4.82091 10
      vertex -4.82091 -5.74533 10
      vertex -4.82091 5.74533 10
    endloop
  endfacet
  facet normal 0 0 1
    outer loop
      vertex -5.74533 4.82091 10
      vertex -5.74533 -4.82091 10
      vertex -4.82091 -5.74533 10
    endloop
  endfacet
  facet normal -0 0 1
    outer loop
      vertex -6.49519 3.75 10
      vertex -5.74533 -4.82091 10
      vertex -5.74533 4.82091 10
    endloop
  endfacet
  facet normal 0 0 1
    outer loop
      vertex -6.49519 3.75 10
      vertex -6.49519 -3.75 10
      vertex -5.74533 -4.82091 10
    endloop
  endfacet
  facet normal -0 0 1
    outer loop
      vertex -7.04769 2.56515 10
      vertex -6.49519 -3.75 10
      vertex -6.49519 3.75 10
    endloop
  endfacet
  facet normal 0 0 1
    outer loop
      vertex -7.04769 2.56515 10
      vertex -7.04769 -2.56515 10
      vertex -6.49519 -3.75 10
    endloop
  endfacet
  facet normal -0 0 1
    outer loop
      vertex -7.38606 1.30236 10
      vertex -7.04769 -2.56515 10
      vertex -7.04769 2.56515 10
    endloop
  endfacet
  facet normal 0 0 1
    outer loop
      vertex -7.38606 1.30236 10
      vertex -7.38606 -1.30236 10
      vertex -7.04769 -2.56515 10
    endloop
  endfacet
  facet normal 0 -0 1
    outer loop
      vertex -7.38606 -1.30236 10
      vertex -7.38606 1.30236 10
      vertex -7.5 0 10
    endloop
  endfacet
  facet normal 0.258819 -0.965926 0
    outer loop
      vertex 1.30236 -7.38606 1
      vertex 2.56515 -7.04769 10
      vertex 1.30236 -7.38606 10
    endloop
  endfacet
  facet normal 0.258819 -0.965926 0
    outer loop
      vertex 2.56515 -7.04769 10
      vertex 1.30236 -7.38606 1
      vertex 2.56515 -7.04769 1
    endloop
  endfacet
  facet normal 0.707107 -0.707107 0
    outer loop
      vertex 4.82091 -5.74533 10
      vertex 5.74533 -4.82091 1
      vertex 5.74533 -4.82091 10
    endloop
  endfacet
  facet normal 0.707107 -0.707107 0
    outer loop
      vertex 5.74533 -4.82091 1
      vertex 4.82091 -5.74533 10
      vertex 4.82091 -5.74533 1
    endloop
  endfacet
  facet normal 0.422619 -0.906308 0
    outer loop
      vertex 2.56515 -7.04769 1
      vertex 3.75 -6.49519 10
      vertex 2.56515 -7.04769 10
    endloop
  endfacet
  facet normal 0.422619 -0.906308 0
    outer loop
      vertex 3.75 -6.49519 10
      vertex 2.56515 -7.04769 1
      vertex 3.75 -6.49519 1
    endloop
  endfacet
  facet normal 0.965926 -0.258819 0
    outer loop
      vertex 7.04769 -2.56515 10
      vertex 7.38606 -1.30236 1
      vertex 7.38606 -1.30236 10
    endloop
  endfacet
  facet normal 0.965926 -0.258819 0
    outer loop
      vertex 7.38606 -1.30236 1
      vertex 7.04769 -2.56515 10
      vertex 7.04769 -2.56515 1
    endloop
  endfacet
  facet normal 0.819152 -0.573576 0
    outer loop
      vertex 5.74533 -4.82091 10
      vertex 6.49519 -3.75 1
      vertex 6.49519 -3.75 10
    endloop
  endfacet
  facet normal 0.819152 -0.573576 0
    outer loop
      vertex 6.49519 -3.75 1
      vertex 5.74533 -4.82091 10
      vertex 5.74533 -4.82091 1
    endloop
  endfacet
  facet normal -0.573576 -0.819152 0
    outer loop
      vertex -4.82091 -5.74533 1
      vertex -3.75 -6.49519 10
      vertex -4.82091 -5.74533 10
    endloop
  endfacet
  facet normal -0.573576 -0.819152 -0
    outer loop
      vertex -3.75 -6.49519 10
      vertex -4.82091 -5.74533 1
      vertex -3.75 -6.49519 1
    endloop
  endfacet
  facet normal -0.258819 -0.965926 0
    outer loop
      vertex -2.56515 -7.04769 1
      vertex -1.30236 -7.38606 10
      vertex -2.56515 -7.04769 10
    endloop
  endfacet
  facet normal -0.258819 -0.965926 -0
    outer loop
      vertex -1.30236 -7.38606 10
      vertex -2.56515 -7.04769 1
      vertex -1.30236 -7.38606 1
    endloop
  endfacet
  facet normal -0.965926 -0.258819 0
    outer loop
      vertex -7.04769 -2.56515 1
      vertex -7.38606 -1.30236 10
      vertex -7.38606 -1.30236 1
    endloop
  endfacet
  facet normal -0.965926 -0.258819 0
    outer loop
      vertex -7.38606 -1.30236 10
      vertex -7.04769 -2.56515 1
      vertex -7.04769 -2.56515 10
    endloop
  endfacet
  facet normal 0.573576 -0.819152 0
    outer loop
      vertex 3.75 -6.49519 1
      vertex 4.82091 -5.74533 10
      vertex 3.75 -6.49519 10
    endloop
  endfacet
  facet normal 0.573576 -0.819152 0
    outer loop
      vertex 4.82091 -5.74533 10
      vertex 3.75 -6.49519 1
      vertex 4.82091 -5.74533 1
    endloop
  endfacet
  facet normal 0.906308 -0.422619 0
    outer loop
      vertex 6.49519 -3.75 10
      vertex 7.04769 -2.56515 1
      vertex 7.04769 -2.56515 10
    endloop
  endfacet
  facet normal 0.906308 -0.422619 0
    outer loop
      vertex 7.04769 -2.56515 1
      vertex 6.49519 -3.75 10
      vertex 6.49519 -3.75 1
    endloop
  endfacet
endsolid OpenSCAD_Model
